<svg width="880" height="747" viewBox="0 0 880 747" fill="none" xmlns="http://www.w3.org/2000/svg">
<path d="M128.87 313.141C-42.9597 412.384 -42.9596 573.301 128.888 672.561C300.736 771.822 579.325 771.804 751.137 672.561C922.948 573.319 922.966 412.402 751.119 313.141C579.271 213.881 300.682 213.881 128.87 313.141Z" fill="#F5F5F5"/>
<path d="M794.978 313.087C794.082 313.966 792.649 315.184 790.821 316.744C779.373 326.494 752.697 349.167 749.329 380.785L745.656 379.835C745.333 345.188 769.753 309.682 786.558 302.495C786.952 302.333 787.149 301.867 786.97 301.473C786.79 301.079 786.325 300.882 785.93 301.061C769 308.284 743.9 343.073 744.079 379.44L741.589 378.795C740.657 375.641 735.175 353.774 750.439 324.756C753.091 319.701 756.065 315.059 759.218 310.937L759.361 310.757C769.986 296.956 782.544 289.052 791.162 291.866C795.569 293.3 798.507 296.257 799.403 300.2C800.424 304.556 798.776 309.377 794.978 313.087Z" fill="white"/>
<path d="M775.361 280.682C768.463 290.576 761.315 300.792 758 309.951C754.776 314.145 751.73 318.877 749.043 324.021C744.134 333.341 741.339 341.98 739.834 349.508C738.436 296.885 767.299 255.589 776.113 248.24C776.436 247.971 776.49 247.469 776.203 247.147C775.934 246.824 775.432 246.77 775.11 247.039C765.74 254.854 734.065 300.344 738.669 357.143C738.669 357.161 738.669 357.197 738.687 357.215C737.63 367.772 739.064 375.264 739.834 378.257L735.48 376.949C734.316 372.988 725.251 339.596 732.704 295.361C736.681 271.738 750.368 248.706 765.256 240.641C772.154 236.913 778.908 236.411 785.34 239.225C788.833 240.748 790.912 242.845 791.718 245.659C794.047 253.886 784.964 266.899 775.361 280.682Z" fill="white"/>
<path d="M800.923 299.842C799.883 295.415 796.497 291.974 791.624 290.378C783.365 287.672 771.792 293.981 761.49 305.721C760.326 307.065 759.161 308.463 758.014 309.969C754.79 314.163 751.744 318.895 749.057 324.039C744.148 333.359 741.353 341.998 739.848 349.526C739.328 352.232 738.952 354.831 738.701 357.233C737.644 367.79 739.078 375.282 739.848 378.275C740.063 379.189 740.224 379.673 740.242 379.709C740.314 379.888 740.439 380.032 740.6 380.121L740.744 380.175C740.762 380.193 740.762 380.193 740.78 380.193L744.542 381.161L749.809 382.505C749.917 382.541 750.006 382.541 750.114 382.523C750.221 382.505 750.347 382.469 750.436 382.398C750.615 382.272 750.741 382.057 750.759 381.824C753.661 350.386 780.391 327.623 791.821 317.909C793.667 316.35 795.118 315.095 796.05 314.181C800.242 310.112 802.069 304.735 800.923 299.842ZM794.975 313.087C794.079 313.966 792.646 315.185 790.818 316.744C779.37 326.494 752.693 349.168 749.325 380.785L745.653 379.835L744.094 379.44L741.604 378.795C740.672 375.641 735.19 353.774 750.454 324.756C753.106 319.701 756.08 315.059 759.233 310.937L759.376 310.757C770 296.956 782.559 289.052 791.176 291.866C795.584 293.3 798.522 296.257 799.418 300.2C800.421 304.556 798.773 309.377 794.975 313.087Z" fill="#1F5FFF"/>
<path d="M786.539 302.495C769.734 309.664 745.315 345.188 745.638 379.835V380.444C745.656 380.82 745.369 381.179 744.975 381.233H744.867C744.76 381.233 744.652 381.215 744.545 381.179C744.294 381.053 744.097 380.785 744.097 380.462C744.097 380.139 744.079 379.781 744.079 379.44C743.9 343.074 768.982 308.284 785.93 301.061C786.324 300.899 786.79 301.079 786.969 301.473C787.131 301.885 786.933 302.333 786.539 302.495Z" fill="#1F5FFF"/>
<path d="M776.635 281.578C770.992 289.661 765.187 298.014 761.479 305.721C760.672 307.406 759.992 309.037 759.4 310.632C759.382 310.668 758.684 311.223 758.397 311.098C758.003 310.955 757.788 310.489 757.949 310.094C757.967 310.04 757.985 310.005 758.003 309.951C761.317 300.792 768.448 290.576 775.363 280.682C784.966 266.899 794.049 253.886 791.72 245.641C790.914 242.827 788.836 240.748 785.342 239.207C778.911 236.393 772.156 236.895 765.259 240.623C750.371 248.688 736.665 271.72 732.706 295.343C725.253 339.578 734.318 372.97 735.483 376.931L739.836 378.239L741.198 378.652C741.592 378.777 741.843 379.225 741.7 379.637C741.61 379.924 741.377 380.121 741.073 380.175C740.965 380.193 740.84 380.175 740.732 380.139L740.589 380.086L734.623 378.293C734.372 378.222 734.175 378.024 734.103 377.791C733.996 377.451 723.193 342.339 731.147 295.074C735.214 271.003 749.224 247.505 764.506 239.243C771.852 235.246 779.072 234.762 785.951 237.773C789.857 239.476 792.294 241.967 793.207 245.211C795.733 254.173 786.471 267.49 776.635 281.578Z" fill="#1F5FFF"/>
<path d="M776.114 248.24C767.299 255.607 738.437 296.885 739.834 349.508C739.888 351.982 740.031 354.509 740.229 357.018C740.264 357.43 739.978 357.807 739.566 357.86C739.548 357.86 739.512 357.86 739.494 357.878C739.1 357.896 738.742 357.627 738.67 357.215C738.652 357.197 738.652 357.161 738.652 357.143C734.048 300.344 765.705 254.854 775.093 247.039C775.415 246.77 775.917 246.824 776.185 247.147C776.49 247.487 776.436 247.971 776.114 248.24Z" fill="#1F5FFF"/>
<path d="M488.974 54.5945L472.259 64.2553C472.349 63.5025 472.402 62.7676 472.402 62.0328V57.1934C472.402 48.5722 466.347 45.0771 458.894 49.3967C455.866 51.1352 453.089 53.9134 450.85 57.1396C449.631 46.2959 441.121 42.2631 430.802 48.2316C419.64 54.6841 410.593 70.3672 410.593 83.2542V90.4953C410.593 93.8291 411.202 96.6431 412.313 98.8835L398.428 106.895C394.29 109.279 390.939 115.104 390.939 119.89C390.939 124.675 394.29 126.611 398.428 124.227L488.992 71.9086C493.131 69.5248 496.481 63.6996 496.481 58.9141C496.463 54.1464 493.113 52.2107 488.974 54.5945Z" fill="#EBEBEB"/>
<path d="M591.324 65.0439L578.712 72.3209C578.765 71.7652 578.819 71.1917 578.819 70.654V66.9976C578.819 60.4913 574.251 57.8566 568.625 61.1007C566.35 62.4092 564.254 64.5062 562.552 66.9438C561.638 58.7707 555.206 55.7237 547.431 60.2225C539.01 65.0977 532.167 76.9272 532.167 86.6597V92.1263C532.167 94.6536 532.632 96.7685 533.457 98.4534L522.976 104.511C519.858 106.322 517.314 110.713 517.314 114.316C517.314 117.918 519.841 119.388 522.976 117.578L591.324 78.0922C594.442 76.282 596.986 71.9086 596.986 68.2881C596.986 64.7034 594.442 63.2336 591.324 65.0439Z" fill="#EBEBEB"/>
<path d="M490.121 615.78L476.72 608.037L486.466 602.409C491.536 599.469 492.289 595.311 492.289 593.071C492.289 590.848 491.519 586.69 486.448 583.768L462.173 569.752C459.485 568.193 456.296 567.404 452.659 567.404C449.04 567.404 445.851 568.193 443.164 569.752L426.789 579.216L342.173 530.338C339.486 528.779 336.297 527.99 332.678 527.99C329.077 527.99 325.87 528.779 323.165 530.338L288.587 550.305C285.595 552.026 283.642 553.728 282.388 555.718C280.901 558.102 280.436 561.041 281.063 564.626L298.96 654.226C299.999 658.724 303.368 662.65 308.975 665.894L333.251 679.91C335.938 681.469 339.127 682.258 342.728 682.258H342.746C346.365 682.258 349.554 681.469 352.242 679.91L421.056 640.156L441.086 651.734C443.773 653.294 446.962 654.082 450.599 654.082C454.2 654.082 457.389 653.294 460.076 651.734L490.049 634.42C495.138 631.499 495.89 627.34 495.908 625.082C495.962 622.859 495.191 618.701 490.121 615.78ZM356.864 619.615L352.851 599.433L372.325 610.689L356.864 619.615Z" fill="#E0E0E0"/>
<path d="M105.491 608.79C119.304 613.826 132.508 620.565 144.726 628.828C158.468 638.112 171.009 649.333 185.664 657.04C204.69 667.059 226.583 670.679 248.01 669.658C260.139 669.066 273.361 666.414 281.154 656.843C283.143 654.387 284.738 651.412 284.791 648.239C284.863 643.561 281.692 639.546 278.395 636.338C260.82 619.167 236.222 612.087 212.483 606.567C188.745 601.047 174.538 594.128 151.265 581.689C141.304 576.366 131.486 570.648 121.454 565.63C121.364 565.594 121.292 565.54 121.203 565.504C116.115 562.977 111.331 560.163 105.957 558.191C99.0949 555.664 93.3977 553.818 85.8193 554.392C78.2768 554.947 69.7668 554.84 64.4638 560.988C59.8415 566.329 59.3399 573.534 62.0989 579.879C69.4623 596.835 89.6175 603 105.491 608.79Z" fill="#E0E0E0"/>
<path d="M624.866 476.335C618.81 472.481 612.092 468.43 604.925 464.29C597.831 460.186 590.665 456.225 583.588 452.496C574.523 447.818 564.543 443.947 553.919 441.025C543.206 438.068 531.883 436.491 520.292 436.365H518.733C507.679 436.365 496.213 437.781 484.657 440.595C472.492 443.553 460.274 448.553 448.324 455.454C435.962 462.587 427.273 469.721 421.773 477.267C416.022 485.171 413.245 493.165 413.532 501.051C413.818 508.92 416.918 516.483 422.723 523.492C428.008 529.89 434.905 535.859 443.29 541.272C449.56 545.251 456.422 549.391 463.678 553.585C470.934 557.779 477.957 561.651 484.55 565.11C493.633 569.806 503.63 573.659 514.218 576.581C524.932 579.538 536.255 581.116 547.846 581.241H549.423C560.512 581.241 571.979 579.825 583.498 577.011C595.663 574.054 607.882 569.053 619.831 562.153C632.193 555.001 640.882 547.868 646.382 540.34C652.151 532.435 654.928 524.441 654.642 516.555C654.355 508.687 651.273 501.141 645.451 494.115C640.13 487.716 633.214 481.748 624.866 476.335ZM583.695 523.796C583.068 524.746 581.313 526.736 576.529 529.496C572.57 531.79 568.664 533.367 564.92 534.174C561.928 534.837 558.954 535.16 556.051 535.16C555.263 535.16 554.475 535.142 553.687 535.088C550.032 534.873 546.413 534.156 542.937 532.973C539.229 531.718 535.52 530.105 531.811 528.134C518.357 521.233 505.619 513.867 493.83 506.195C490.659 504.206 488.079 502.198 486.18 500.227C484.783 498.775 483.905 497.359 483.636 496.194C483.582 495.961 483.439 495.28 484.424 493.792C485.033 492.86 486.789 490.871 491.591 488.093C495.568 485.798 499.474 484.221 503.2 483.415C506.067 482.787 508.933 482.465 511.674 482.465C512.534 482.465 513.394 482.5 514.236 482.554C517.873 482.823 521.474 483.558 524.968 484.741C528.748 486.013 532.6 487.627 536.255 489.419C549.315 496.266 562.089 503.65 574.29 511.393C577.514 513.419 580.184 515.444 582.19 517.433C583.534 518.778 584.358 520.05 584.573 521.144C584.609 521.394 584.752 522.183 583.695 523.796Z" fill="#E0E0E0"/>
<path d="M824.576 422.6L811.175 414.857L820.921 409.229C825.991 406.29 826.743 402.131 826.743 399.909C826.743 397.686 825.991 393.528 820.903 390.589L796.645 376.573C793.958 375.013 790.769 374.225 787.132 374.225C783.513 374.225 780.324 375.013 777.636 376.573L761.261 386.036L676.663 337.159C673.976 335.599 670.787 334.811 667.168 334.811C663.567 334.811 660.36 335.599 657.673 337.159L623.095 357.126C620.121 358.846 618.151 360.549 616.879 362.538C615.392 364.922 614.926 367.88 615.553 371.446L633.451 461.046C634.49 465.545 637.858 469.47 643.466 472.714L667.741 486.73C670.429 488.29 673.618 489.078 677.219 489.078H677.237C680.856 489.078 684.045 488.29 686.732 486.73L755.546 446.994L775.576 458.573C778.263 460.132 781.47 460.921 785.089 460.921C788.69 460.921 791.879 460.132 794.567 458.573L824.54 441.258C829.61 438.337 830.38 434.179 830.398 431.902C830.416 429.68 829.646 425.522 824.576 422.6ZM691.318 426.418L687.305 406.236L706.78 417.492L691.318 426.418Z" fill="#E0E0E0"/>
<path d="M484.139 598.448L454.148 615.762C452.482 616.747 450.403 617.231 447.967 617.231C445.53 617.231 443.488 616.747 441.804 615.762L418.442 602.265L346.313 643.937C344.647 644.887 342.569 645.407 340.132 645.407C337.696 645.407 335.653 644.905 333.951 643.937L309.693 629.921C305.716 627.645 303.423 625.172 302.814 622.519L284.952 533.116C284.844 532.525 284.826 532.005 284.826 531.521C284.826 533.242 284.808 555.557 284.826 556.65C284.826 557.08 284.88 557.528 284.952 558.03L302.814 647.433C303.423 650.085 305.716 652.559 309.693 654.835L333.951 668.851C335.653 669.801 337.696 670.321 340.132 670.321C342.569 670.321 344.647 669.819 346.313 668.851L418.442 627.179L441.804 640.675C443.47 641.661 445.512 642.145 447.967 642.145C450.403 642.145 452.482 641.661 454.148 640.675L484.139 623.361C485.805 622.376 486.665 621.21 486.665 619.777V594.863C486.665 596.279 485.823 597.462 484.139 598.448Z" fill="#1F5FFF"/>
<path d="M483.01 587.783V562.869C483.01 564.285 482.168 565.468 480.484 566.454L460.795 577.818L482.061 590.095C482.652 589.396 483.01 588.626 483.01 587.783Z" fill="#1F5FFF"/>
<path d="M346.438 584.27L361.362 592.927L382.95 580.47L340.812 556.112L346.42 584.27H346.438Z" fill="#1F5FFF"/>
<path opacity="0.35" d="M346.438 584.27L361.362 592.927L382.95 580.47L340.812 556.112L346.42 584.27H346.438Z" fill="black"/>
<path opacity="0.2" d="M483.01 587.783V562.869C483.01 564.285 482.168 565.468 480.484 566.454L460.795 577.818L482.061 590.095C482.652 589.396 483.01 588.626 483.01 587.783Z" fill="black"/>
<path opacity="0.2" d="M484.139 598.448L454.148 615.762C452.482 616.747 450.403 617.231 447.967 617.231V642.145C450.403 642.145 452.482 641.661 454.148 640.675L484.139 623.361C485.805 622.375 486.665 621.21 486.665 619.777V594.863C486.665 596.279 485.823 597.462 484.139 598.448Z" fill="black"/>
<path opacity="0.25" d="M302.796 622.519L284.934 533.116C284.827 532.525 284.809 532.005 284.809 531.521C284.809 533.242 284.791 555.557 284.809 556.65C284.809 557.08 284.862 557.528 284.934 558.03L302.796 647.433C302.904 647.934 303.083 648.436 303.351 648.938V624.024C303.101 623.523 302.904 623.021 302.796 622.519Z" fill="black"/>
<path opacity="0.35" d="M340.134 645.407C337.698 645.407 335.655 644.905 333.953 643.937L309.695 629.921C306.488 628.093 304.356 626.122 303.371 624.024V648.938C304.356 651.035 306.471 653.007 309.695 654.835L333.953 668.851C335.655 669.801 337.698 670.321 340.134 670.321C340.367 670.321 340.582 670.321 340.833 670.267V645.353C340.582 645.407 340.367 645.407 340.134 645.407Z" fill="black"/>
<path opacity="0.2" d="M346.313 643.955C344.808 644.834 342.962 645.318 340.812 645.371V670.285C342.962 670.231 344.79 669.747 346.313 668.869L418.441 627.197V602.283L346.313 643.955Z" fill="black"/>
<path opacity="0.35" d="M441.802 615.762L418.439 602.265V627.179L441.802 640.675C443.468 641.661 445.51 642.145 447.965 642.145V617.231C445.51 617.231 443.468 616.747 441.802 615.762Z" fill="black"/>
<path d="M454.148 615.762C452.464 616.73 450.404 617.214 447.967 617.214C445.531 617.214 443.47 616.73 441.786 615.762L418.424 602.265L346.296 643.92C344.611 644.888 342.569 645.371 340.115 645.371C337.66 645.371 335.618 644.888 333.934 643.92L309.658 629.903C305.681 627.609 303.405 625.136 302.778 622.501L284.916 533.099C284.612 531.342 284.773 529.962 285.364 528.994C285.973 528.026 287.281 526.969 289.252 525.822L323.829 505.855C325.513 504.887 327.574 504.403 330.01 504.403C332.447 504.403 334.507 504.887 336.191 505.855L424.121 556.632L443.811 545.251C445.495 544.283 447.555 543.799 449.992 543.799C452.428 543.799 454.489 544.283 456.173 545.251L480.448 559.267C482.132 560.235 482.975 561.436 482.975 562.834C482.975 564.25 482.132 565.433 480.448 566.4L460.759 577.782L484.103 591.278C485.787 592.246 486.629 593.447 486.629 594.845C486.629 596.261 485.787 597.444 484.103 598.412L454.148 615.762ZM382.933 580.452L340.813 556.112L349.52 599.756L382.933 580.452Z" fill="#1F5FFF"/>
<path d="M645.345 487.842C645.238 493.846 642.873 499.976 638.34 506.213C633.449 512.899 625.298 519.566 613.832 526.18C602.384 532.794 590.864 537.49 579.272 540.34C567.663 543.154 556.34 544.516 545.268 544.373C534.232 544.247 523.554 542.759 513.324 539.945C503.113 537.131 493.635 533.457 484.928 528.958C478.371 525.535 471.527 521.735 464.325 517.595C457.159 513.454 450.44 509.422 444.17 505.425C436.394 500.406 430.052 494.94 425.197 489.043C420.288 483.128 417.744 476.98 417.529 470.581C417.655 474.543 417.368 491.14 417.529 495.495C417.744 501.894 420.288 508.024 425.197 513.956C430.052 519.853 436.394 525.32 444.17 530.338C450.44 534.317 457.159 538.35 464.325 542.509C471.527 546.649 478.371 550.449 484.928 553.908C493.635 558.389 503.113 562.063 513.324 564.877C523.554 567.691 534.214 569.179 545.268 569.304C556.34 569.43 567.681 568.085 579.272 565.271C590.882 562.422 602.401 557.726 613.832 551.112C625.298 544.498 633.449 537.83 638.34 531.145C643.231 524.46 645.56 517.899 645.327 511.519C645.184 507.844 645.417 493.488 645.345 487.842Z" fill="#1F5FFF"/>
<path opacity="0.35" d="M551.36 544.247C549.318 544.319 547.275 544.408 545.251 544.373C534.215 544.247 523.537 542.759 513.307 539.945C503.095 537.131 493.618 533.457 484.911 528.958C478.353 525.535 471.51 521.735 464.307 517.595C457.141 513.454 450.423 509.422 444.152 505.425C436.377 500.406 430.035 494.94 425.18 489.043C420.271 483.128 417.727 476.98 417.512 470.581C417.637 474.543 417.35 491.14 417.512 495.495C417.727 501.894 420.271 508.024 425.18 513.956C430.035 519.853 436.377 525.32 444.152 530.338C450.423 534.317 457.141 538.35 464.307 542.508C471.51 546.649 478.353 550.449 484.911 553.908C493.618 558.389 503.095 562.063 513.307 564.877C523.537 567.691 534.197 569.179 545.251 569.304C547.275 569.322 549.318 569.25 551.36 569.179V544.247Z" fill="black"/>
<path opacity="0.2" d="M645.345 487.842C645.237 493.846 642.872 499.976 638.34 506.213C633.449 512.899 625.297 519.566 613.831 526.18C602.383 532.794 590.863 537.49 579.272 540.34C569.794 542.634 560.496 543.907 551.377 544.247V569.161C560.496 568.82 569.794 567.548 579.272 565.253C590.881 562.404 602.401 557.708 613.831 551.094C625.297 544.48 633.449 537.813 638.34 531.127C643.231 524.442 645.56 517.882 645.327 511.501C645.184 507.844 645.417 493.488 645.345 487.842Z" fill="black"/>
<path d="M478.747 474.614C480.019 475.941 481.506 477.267 483.208 478.54C483.979 478.038 484.749 477.536 485.591 477.034C490.178 474.399 494.674 472.607 499.1 471.621C503.525 470.671 507.86 470.313 512.053 470.635C516.245 470.958 520.366 471.782 524.432 473.127C528.463 474.507 532.548 476.209 536.669 478.235C549.944 485.225 562.772 492.609 575.134 500.46C576.746 501.464 578.233 502.503 579.595 503.507C582.856 501.392 585.22 499.313 586.582 497.216C588.248 494.671 588.857 492.144 588.409 489.67C587.962 487.232 586.546 484.813 584.181 482.465C581.799 480.135 578.789 477.823 575.134 475.528C562.772 467.66 549.944 460.258 536.669 453.303C532.548 451.278 528.463 449.593 524.432 448.195C520.366 446.833 516.263 446.026 512.053 445.704C507.86 445.381 503.525 445.722 499.1 446.689C494.674 447.675 490.178 449.485 485.591 452.102C481.023 454.755 477.887 457.354 476.221 459.917C474.555 462.462 473.964 464.971 474.501 467.373C475.075 469.829 476.472 472.213 478.747 474.614Z" fill="#1F5FFF"/>
<path opacity="0.35" d="M478.747 474.614C480.019 475.941 481.506 477.267 483.208 478.54C483.979 478.038 484.749 477.536 485.591 477.034C490.178 474.399 494.674 472.607 499.1 471.621C503.525 470.671 507.86 470.313 512.053 470.635C516.245 470.958 520.366 471.782 524.432 473.127C528.463 474.507 532.548 476.209 536.669 478.235C549.944 485.225 562.772 492.609 575.134 500.46C576.746 501.464 578.233 502.503 579.595 503.507C582.856 501.392 585.22 499.313 586.582 497.216C588.248 494.671 588.857 492.144 588.409 489.67C587.962 487.232 586.546 484.813 584.181 482.465C581.799 480.135 578.789 477.823 575.134 475.528C562.772 467.66 549.944 460.258 536.669 453.303C532.548 451.278 528.463 449.593 524.432 448.195C520.366 446.833 516.263 446.026 512.053 445.704C507.86 445.381 503.525 445.722 499.1 446.689C494.674 447.675 490.178 449.485 485.591 452.102C481.023 454.755 477.887 457.354 476.221 459.917C474.555 462.462 473.964 464.971 474.501 467.373C475.075 469.829 476.472 472.213 478.747 474.614Z" fill="black"/>
<path d="M448.99 430.971C460.438 424.357 471.976 419.643 483.567 416.811C495.159 413.997 506.499 412.653 517.571 412.778C528.625 412.922 539.285 414.391 549.515 417.205C559.745 420.037 569.204 423.694 577.911 428.174C584.773 431.795 591.796 435.666 598.98 439.807C606.147 443.947 612.722 447.926 618.67 451.708C626.445 456.727 632.787 462.211 637.678 468.108C642.569 474.023 645.113 480.171 645.346 486.551C645.579 492.95 643.25 499.492 638.359 506.195C633.468 512.899 625.299 519.549 613.85 526.162C602.402 532.776 590.882 537.49 579.273 540.322C567.682 543.136 556.341 544.48 545.269 544.355C534.215 544.229 523.555 542.742 513.325 539.928C503.095 537.114 493.636 533.439 484.929 528.958C478.372 525.517 471.51 521.735 464.326 517.577C457.159 513.437 450.423 509.386 444.171 505.407C436.395 500.388 430.053 494.922 425.18 489.007C420.289 483.11 417.745 476.944 417.512 470.564C417.279 464.165 419.608 457.623 424.499 450.919C429.372 444.234 437.542 437.566 448.99 430.971ZM575.152 475.528C562.791 467.678 549.963 460.275 536.687 453.303C532.567 451.278 528.482 449.575 524.433 448.213C520.384 446.851 516.263 446.008 512.071 445.704C507.879 445.399 503.561 445.722 499.136 446.689C494.711 447.657 490.214 449.468 485.628 452.102C481.059 454.755 477.924 457.354 476.24 459.899C474.556 462.462 473.982 464.954 474.52 467.373C475.057 469.793 476.473 472.195 478.748 474.578C481.041 476.962 484.015 479.292 487.67 481.587C499.566 489.347 512.394 496.75 526.135 503.812C530.094 505.927 534.108 507.665 538.156 509.027C542.188 510.39 546.362 511.214 550.626 511.465C554.908 511.734 559.261 511.375 563.686 510.408C568.112 509.44 572.626 507.629 577.195 504.995C581.781 502.342 584.899 499.743 586.583 497.198C588.267 494.635 588.876 492.126 588.41 489.652C587.944 487.179 586.547 484.777 584.182 482.447C581.817 480.135 578.807 477.823 575.152 475.528Z" fill="#1F5FFF"/>
<path d="M818.588 405.268L788.597 422.582C786.931 423.568 784.853 424.034 782.416 424.034C779.98 424.034 777.937 423.55 776.253 422.582L752.891 409.086L680.762 450.758C679.096 451.708 677.018 452.21 674.581 452.21C672.145 452.21 670.102 451.708 668.4 450.758L644.143 436.742C640.165 434.466 637.872 431.992 637.263 429.339L619.401 339.937C619.293 339.345 619.276 338.826 619.276 338.342C619.276 340.062 619.258 362.377 619.276 363.471C619.276 363.901 619.329 364.349 619.401 364.851L637.263 454.253C637.872 456.906 640.165 459.379 644.143 461.656L668.4 475.672C670.102 476.622 672.145 477.141 674.581 477.141C677.018 477.141 679.096 476.64 680.762 475.672L752.891 434L776.253 447.496C777.919 448.482 779.962 448.948 782.416 448.948C784.853 448.948 786.931 448.464 788.597 447.496L818.588 430.182C820.254 429.196 821.114 428.031 821.114 426.597V401.683C821.114 403.099 820.272 404.282 818.588 405.268Z" fill="#1F5FFF"/>
<path d="M817.46 394.586V369.672C817.46 371.088 816.618 372.271 814.933 373.257L795.244 384.62L816.51 396.898C817.101 396.217 817.46 395.446 817.46 394.586Z" fill="#1F5FFF"/>
<path d="M680.887 391.091L695.811 399.748L717.399 387.291L675.262 362.933L680.869 391.091H680.887Z" fill="#1F5FFF"/>
<path opacity="0.35" d="M680.887 391.091L695.811 399.748L717.399 387.291L675.262 362.933L680.869 391.091H680.887Z" fill="black"/>
<path opacity="0.2" d="M817.46 394.586V369.672C817.46 371.088 816.618 372.271 814.933 373.257L795.244 384.62L816.51 396.898C817.101 396.217 817.46 395.446 817.46 394.586Z" fill="black"/>
<path opacity="0.2" d="M818.588 405.268L788.597 422.582C786.931 423.568 784.853 424.034 782.416 424.034V448.948C784.853 448.948 786.931 448.464 788.597 447.496L818.588 430.182C820.254 429.196 821.114 428.031 821.114 426.597V401.683C821.114 403.099 820.272 404.282 818.588 405.268Z" fill="black"/>
<path opacity="0.25" d="M637.245 429.339L619.383 339.937C619.276 339.345 619.258 338.826 619.258 338.342C619.258 340.062 619.24 362.377 619.258 363.471C619.258 363.901 619.312 364.349 619.383 364.851L637.245 454.253C637.353 454.755 637.532 455.257 637.801 455.759V430.845C637.55 430.343 637.353 429.841 637.245 429.339Z" fill="black"/>
<path opacity="0.35" d="M674.583 452.228C672.147 452.228 670.104 451.726 668.402 450.776L644.145 436.76C640.938 434.932 638.806 432.96 637.82 430.863V455.777C638.806 457.874 640.92 459.845 644.145 461.673L668.402 475.69C670.104 476.64 672.147 477.159 674.583 477.159C674.816 477.159 675.031 477.159 675.282 477.106V452.192C675.031 452.228 674.816 452.228 674.583 452.228Z" fill="black"/>
<path opacity="0.2" d="M680.762 450.758C679.257 451.636 677.412 452.12 675.262 452.174V477.088C677.412 477.034 679.239 476.55 680.762 475.672L752.891 433.999V409.086L680.762 450.758Z" fill="black"/>
<path opacity="0.35" d="M776.251 422.582L752.889 409.086V433.999L776.251 447.496C777.917 448.482 779.959 448.948 782.414 448.948V424.034C779.959 424.052 777.917 423.568 776.251 422.582Z" fill="black"/>
<path d="M788.615 422.582C786.931 423.55 784.871 424.034 782.434 424.034C779.998 424.034 777.937 423.55 776.253 422.582L752.891 409.086L680.762 450.74C679.078 451.708 677.036 452.192 674.581 452.192C672.127 452.192 670.085 451.708 668.4 450.74L644.125 436.724C640.147 434.43 637.872 431.956 637.245 429.322L619.383 339.919C619.078 338.162 619.24 336.782 619.831 335.815C620.44 334.847 621.748 333.789 623.719 332.642L658.296 312.675C659.98 311.707 662.04 311.223 664.477 311.223C666.913 311.223 668.974 311.707 670.658 312.675L758.588 363.453L778.278 352.071C779.944 351.103 782.022 350.619 784.458 350.619C786.895 350.619 788.955 351.103 790.639 352.071L814.915 366.087C816.599 367.055 817.441 368.256 817.441 369.654C817.441 371.07 816.599 372.253 814.915 373.221L795.226 384.602L818.57 398.099C820.254 399.067 821.096 400.267 821.096 401.666C821.096 403.081 820.254 404.264 818.57 405.232L788.615 422.582ZM717.4 387.273L675.28 362.933L683.987 406.577L717.4 387.273Z" fill="#1F5FFF"/>
<path d="M630.784 613.593C631.196 613.36 631.698 613.235 632.289 613.235C632.88 613.235 633.382 613.36 633.794 613.593L639.724 617.016C640.136 617.25 640.333 617.536 640.333 617.895C640.333 618.235 640.136 618.54 639.724 618.773L613.191 634.098C612.779 634.331 612.277 634.456 611.686 634.456C611.095 634.456 610.593 634.331 610.181 634.098L574.027 613.217C573.615 612.984 573.418 612.697 573.418 612.338C573.418 611.998 573.633 611.711 574.027 611.46L600.112 596.404C600.524 596.171 601.026 596.046 601.617 596.046C602.209 596.046 602.728 596.171 603.122 596.404L609.052 599.828C609.464 600.061 609.661 600.348 609.661 600.706C609.661 601.047 609.464 601.351 609.052 601.584L591.817 611.532L597.855 615.027L613.854 605.778C614.266 605.545 614.767 605.42 615.359 605.42C615.95 605.42 616.452 605.545 616.864 605.778L622.794 609.202C623.206 609.435 623.403 609.722 623.403 610.08C623.403 610.421 623.206 610.725 622.794 610.958L606.795 620.207L613.065 623.827L630.784 613.593Z" fill="#455A64"/>
<path d="M639.634 585.22C640.046 584.987 640.548 584.862 641.139 584.862C641.73 584.862 642.232 584.987 642.644 585.22L648.287 588.482C648.699 588.715 648.896 589.002 648.896 589.361C648.896 589.701 648.699 590.006 648.287 590.239L643.199 593.178C639.759 595.168 639.759 597.139 643.199 599.129L656.958 607.087C657.37 607.32 657.568 607.607 657.568 607.965C657.568 608.306 657.37 608.61 656.958 608.843L649.9 612.912C649.488 613.145 648.986 613.27 648.395 613.27C647.803 613.27 647.302 613.145 646.89 612.912L620.804 597.856C620.392 597.623 620.195 597.336 620.195 596.978C620.195 596.637 620.392 596.351 620.804 596.1L627.29 592.354C627.702 592.121 628.204 591.995 628.795 591.995C629.386 591.995 629.888 592.121 630.3 592.354L631.59 593.089C631.626 592.121 631.984 591.135 632.683 590.131C633.381 589.127 634.564 588.142 636.23 587.174L639.634 585.22Z" fill="#455A64"/>
<path d="M666.724 569.573C667.136 569.34 667.638 569.215 668.229 569.215C668.82 569.215 669.322 569.34 669.734 569.573L675.377 572.835C675.789 573.068 675.986 573.355 675.986 573.713C675.986 574.054 675.789 574.359 675.377 574.592L670.289 577.531C666.849 579.521 666.849 581.492 670.289 583.482L684.049 591.44C684.461 591.673 684.658 591.96 684.658 592.318C684.658 592.659 684.461 592.963 684.049 593.196L676.99 597.265C676.578 597.498 676.076 597.623 675.485 597.623C674.894 597.623 674.392 597.498 673.98 597.265L647.895 582.209C647.483 581.976 647.268 581.689 647.268 581.331C647.268 580.99 647.465 580.704 647.877 580.453L654.362 576.707C654.774 576.474 655.276 576.348 655.867 576.348C656.458 576.348 656.96 576.474 657.372 576.707L658.662 577.441C658.698 576.474 659.056 575.488 659.755 574.484C660.454 573.48 661.636 572.495 663.302 571.527L666.724 569.573Z" fill="#455A64"/>
<path d="M714.847 556.13C715.438 556.435 716.172 556.829 717.05 557.349C717.928 557.851 718.627 558.281 719.146 558.622C720.866 559.697 722.138 560.898 722.944 562.242C723.769 563.587 724.109 564.967 723.984 566.401C723.858 567.835 723.195 569.268 722.031 570.738C720.848 572.19 719.128 573.57 716.853 574.896C714.578 576.205 712.177 577.208 709.669 577.89C707.143 578.571 704.653 578.947 702.18 579.019C699.69 579.09 697.307 578.893 694.978 578.427C692.667 577.961 690.571 577.226 688.708 576.223C688.116 575.918 687.382 575.524 686.504 575.004C685.626 574.502 684.927 574.072 684.408 573.731C682.652 572.674 681.362 571.473 680.556 570.147C679.732 568.82 679.391 567.422 679.553 565.97C679.696 564.519 680.359 563.067 681.505 561.615C682.67 560.145 684.372 558.765 686.647 557.439C688.923 556.13 691.323 555.127 693.867 554.464C696.411 553.8 698.92 553.424 701.428 553.334C703.918 553.245 706.319 553.442 708.612 553.926C710.905 554.392 712.983 555.127 714.847 556.13ZM698.507 570.218C700.03 570.971 701.661 571.312 703.381 571.258C705.1 571.186 706.695 570.738 708.2 569.86C709.687 569 710.493 568.067 710.601 567.082C710.708 566.096 710.117 565.146 708.809 564.268C708.325 563.909 707.734 563.515 707.017 563.103C706.301 562.69 705.638 562.35 705.011 562.063C703.488 561.31 701.858 560.97 700.138 561.024C698.418 561.095 696.805 561.543 695.318 562.422C693.831 563.282 693.025 564.214 692.918 565.2C692.81 566.186 693.402 567.135 694.709 568.014C695.193 568.372 695.784 568.767 696.501 569.179C697.2 569.591 697.88 569.949 698.507 570.218Z" fill="#455A64"/>
<path d="M729.39 533.367C729.802 533.134 730.304 533.009 730.895 533.009C731.486 533.009 731.988 533.134 732.4 533.367L738.043 536.63C738.455 536.863 738.652 537.149 738.652 537.508C738.652 537.848 738.455 538.153 738.043 538.386L732.955 541.326C729.515 543.315 729.515 545.287 732.955 547.276L746.715 555.234C747.127 555.467 747.324 555.754 747.324 556.112C747.324 556.453 747.127 556.758 746.715 556.991L739.656 561.059C739.244 561.292 738.742 561.418 738.151 561.418C737.56 561.418 737.058 561.292 736.646 561.059L710.561 546.004C710.149 545.771 709.934 545.484 709.934 545.125C709.934 544.785 710.131 544.48 710.543 544.247L717.028 540.501C717.44 540.268 717.942 540.143 718.533 540.143C719.124 540.143 719.644 540.268 720.056 540.501L721.346 541.236C721.382 540.268 721.74 539.282 722.439 538.279C723.137 537.275 724.32 536.289 725.986 535.321L729.39 533.367Z" fill="#455A64"/>
<path d="M549.727 298.91C551.286 291.633 521.582 308.786 520.041 316.063L529.608 341.837C529.966 342.679 530.54 343.307 531.22 343.719C533.317 345.009 541.056 349.383 541.737 349.795C543.851 351.085 546.968 350.279 547.846 347.519L560.244 304.986C560.996 301.383 549.727 298.91 549.727 298.91Z" fill="#04CE78"/>
<path opacity="0.25" d="M549.727 298.91C551.286 291.633 521.582 308.786 520.041 316.063L529.608 341.837C529.966 342.679 530.54 343.307 531.22 343.719C533.317 345.009 541.056 349.383 541.737 349.795C543.851 351.085 546.968 350.279 547.846 347.519L560.244 304.986C560.996 301.383 549.727 298.91 549.727 298.91Z" fill="#000D44"/>
<path d="M642.585 105.874L394.846 248.867C392.643 250.14 390.869 253.223 390.869 255.768V392.058C390.869 394.604 392.661 397.686 394.864 398.941L397.355 400.357C399.558 401.612 403.141 401.612 405.327 400.339L653.066 257.184C655.269 255.911 657.043 252.829 657.043 250.283V114.154C657.043 111.609 655.251 108.526 653.048 107.272L650.557 105.856C648.372 104.583 644.789 104.601 642.585 105.874Z" fill="#04CE78"/>
<path opacity="0.25" d="M642.585 105.874L394.846 248.867C392.643 250.14 390.869 253.223 390.869 255.768V392.058C390.869 394.604 392.661 397.686 394.864 398.941L397.355 400.357C399.558 401.612 403.141 401.612 405.327 400.339L653.066 257.184C655.269 255.911 657.043 252.829 657.043 250.283V114.154C657.043 111.609 655.251 108.526 653.048 107.272L650.557 105.856C648.372 104.583 644.789 104.601 642.585 105.874Z" fill="#000D44"/>
<path d="M657.065 114.172V115.732C657.065 112.9 654.001 111.143 651.547 112.559L406.836 253.994C405.134 254.961 403.772 256.36 402.841 257.991C402.805 258.044 402.787 258.062 402.787 258.116L392.02 251.897C392.754 250.624 393.757 249.495 394.886 248.85L642.607 105.856C644.81 104.583 648.393 104.583 650.579 105.838L653.069 107.272C655.255 108.544 657.065 111.627 657.065 114.172Z" fill="#04CE78"/>
<path opacity="0.45" d="M657.065 114.172V115.732C657.065 112.9 654.001 111.143 651.547 112.559L406.836 253.994C405.134 254.961 403.772 256.36 402.841 257.991C402.805 258.044 402.787 258.062 402.787 258.116L392.02 251.897C392.754 250.624 393.757 249.495 394.886 248.85L642.607 105.856C644.81 104.583 648.393 104.583 650.579 105.838L653.069 107.272C655.255 108.544 657.065 111.627 657.065 114.172Z" fill="white"/>
<path d="M653.37 113.491C652.976 113.491 652.6 113.599 652.26 113.796L407.549 255.212C404.611 256.915 402.783 260.07 402.783 263.475V396.253C402.783 397.005 402.944 398.744 404.396 398.744C404.897 398.744 405.506 398.547 406.133 398.188L533.12 324.845L541.057 346.855C542.58 350.35 547.632 350.1 548.796 346.461L559.546 309.574L650.844 256.808C654.159 254.908 655.628 252.972 655.628 250.57V115.732C655.61 114.352 654.445 113.491 653.37 113.491Z" fill="white"/>
<path d="M404.395 400.178C402.55 400.178 401.35 398.636 401.35 396.253V263.475C401.35 259.568 403.446 255.929 406.832 253.976L651.543 112.559C652.116 112.237 652.725 112.057 653.37 112.057C655.126 112.057 657.043 113.455 657.043 115.732V250.57C657.043 254.442 653.908 256.7 651.543 258.044L560.746 310.524L550.158 346.873C549.441 349.132 547.47 350.655 545.141 350.763C542.812 350.87 540.698 349.58 539.766 347.429L532.367 326.924L406.868 399.425C405.99 399.927 405.166 400.178 404.395 400.178ZM653.37 114.925C653.227 114.925 653.101 114.961 652.958 115.033L408.247 256.449C405.739 257.901 404.198 260.59 404.198 263.475V396.253C404.198 396.916 404.342 397.292 404.413 397.364C404.485 397.328 404.825 397.31 405.416 396.97L533.872 322.784L542.382 346.407C542.902 347.59 544.066 347.985 544.98 347.949C545.894 347.895 547.004 347.375 547.434 346.067L558.327 308.66L558.829 308.374L650.127 255.607C653.71 253.546 654.194 251.915 654.194 250.588V115.75C654.194 115.122 653.621 114.925 653.37 114.925Z" fill="#04CE78"/>
<path d="M430.477 298.05C430.621 293.802 431.212 289.518 432.251 285.234C433.29 280.951 434.759 276.9 436.676 273.064C438.593 269.247 440.904 265.734 443.645 262.561C446.369 259.389 449.522 256.754 453.105 254.693C456.634 252.649 459.769 251.646 462.529 251.646C465.288 251.664 467.617 252.47 469.534 254.083C471.451 255.696 472.92 258.044 473.959 261.127C474.998 264.21 475.589 267.795 475.732 271.881C475.822 275.018 475.876 278.352 475.876 281.847C475.876 285.342 475.822 288.658 475.732 291.758C475.589 296.006 474.998 300.272 473.959 304.574C472.92 308.857 471.451 312.926 469.534 316.798C467.617 320.651 465.288 324.164 462.529 327.319C459.769 330.473 456.634 333.072 453.105 335.115C449.522 337.177 446.369 338.216 443.645 338.234C440.904 338.252 438.593 337.428 436.676 335.779C434.759 334.13 433.29 331.746 432.251 328.663C431.212 325.58 430.621 321.995 430.477 317.909C430.37 314.916 430.334 311.654 430.334 308.158C430.334 304.681 430.388 301.312 430.477 298.05ZM462.314 298.982C462.367 297.619 462.421 296.096 462.457 294.429C462.511 292.762 462.529 291.077 462.529 289.357C462.529 287.636 462.511 286.005 462.457 284.428C462.421 282.85 462.367 281.452 462.314 280.216C462.224 278.405 461.955 276.846 461.561 275.52C461.149 274.193 460.576 273.172 459.823 272.455C459.071 271.738 458.139 271.362 457.028 271.326C455.918 271.308 454.61 271.72 453.105 272.58C451.6 273.441 450.292 274.534 449.181 275.842C448.071 277.151 447.139 278.603 446.386 280.198C445.634 281.793 445.061 283.478 444.649 285.27C444.237 287.08 443.986 288.927 443.878 290.844C443.789 292.171 443.717 293.64 443.699 295.254C443.681 296.867 443.663 298.534 443.663 300.254C443.663 301.975 443.681 303.642 443.699 305.255C443.717 306.886 443.789 308.338 443.878 309.61C444.075 313.231 444.899 315.83 446.386 317.443C447.856 319.056 450.095 318.984 453.087 317.264C456.079 315.525 458.318 313.016 459.752 309.718C461.239 306.42 462.081 302.853 462.314 298.982Z" fill="#000D44"/>
<path d="M521.219 261.396C521.273 262.489 521.291 263.905 521.291 265.644C521.291 267.4 521.255 268.834 521.219 269.981C521.13 273.602 520.592 277.276 519.625 280.951C518.657 284.643 517.332 288.138 515.63 291.472C513.946 294.788 511.903 297.817 509.502 300.541C507.102 303.265 504.432 305.488 501.494 307.191C498.538 308.893 495.869 309.772 493.486 309.807C491.103 309.843 489.043 309.18 487.359 307.818C485.657 306.456 484.331 304.484 483.363 301.903C482.396 299.34 481.859 296.293 481.769 292.762C481.715 291.669 481.697 290.253 481.697 288.496C481.697 286.74 481.715 285.306 481.769 284.159C481.823 280.556 482.324 276.918 483.292 273.226C484.259 269.533 485.603 266.02 487.323 262.687C489.043 259.353 491.103 256.306 493.486 253.546C495.886 250.785 498.556 248.545 501.494 246.842C504.45 245.139 507.12 244.279 509.502 244.279C511.903 244.279 513.946 244.942 515.665 246.304C517.385 247.649 518.711 249.62 519.661 252.201C520.592 254.818 521.112 257.865 521.219 261.396ZM494.812 284.679C494.955 287.421 495.618 289.249 496.8 290.181C497.983 291.095 499.541 291.006 501.476 289.876C503.411 288.765 504.97 287.063 506.152 284.768C507.335 282.492 507.998 279.893 508.141 276.972C508.23 275.807 508.284 274.498 508.284 273.082C508.284 271.666 508.23 270.429 508.141 269.372C507.998 266.63 507.335 264.801 506.152 263.869C504.97 262.955 503.411 263.045 501.476 264.174C499.541 265.285 497.983 266.988 496.8 269.282C495.618 271.577 494.955 274.175 494.812 277.079C494.722 278.244 494.668 279.553 494.668 280.951C494.668 282.384 494.722 283.621 494.812 284.679Z" fill="#000D44"/>
<path d="M550.819 278.71C549.422 279.517 548.186 280.019 547.129 280.18C546.072 280.341 545.14 280.323 544.37 280.09C543.599 279.857 542.936 279.517 542.417 279.051C541.879 278.585 541.449 278.101 541.109 277.635V301.437C541.109 302.262 540.912 303.068 540.536 303.893C540.142 304.717 539.694 305.273 539.156 305.577L530.019 310.865C529.482 311.17 529.034 311.134 528.64 310.775C528.246 310.399 528.066 309.807 528.066 308.983V235.694C528.066 234.869 528.263 234.063 528.64 233.238C529.034 232.414 529.482 231.858 530.019 231.553L538.798 226.481C539.335 226.176 539.783 226.212 540.177 226.571C540.554 226.947 540.751 227.539 540.751 228.363V230.926C541.181 229.94 541.664 228.865 542.166 227.754C542.668 226.642 543.295 225.549 544.047 224.492C544.8 223.434 545.713 222.377 546.806 221.337C547.899 220.297 549.243 219.312 550.837 218.397C553.023 217.143 555.065 216.462 557 216.354C558.935 216.247 560.619 216.82 562.07 218.111C563.522 219.401 564.686 221.373 565.582 224.061C566.478 226.75 566.961 230.263 567.069 234.6C567.123 235.694 567.141 237.181 567.141 239.081C567.141 240.981 567.123 242.505 567.069 243.652C566.961 248.097 566.478 252.183 565.582 255.911C564.686 259.64 563.522 262.973 562.07 265.931C560.619 268.888 558.917 271.451 557 273.602C555.047 275.735 552.987 277.455 550.819 278.71ZM554.08 249.782C554.223 247.613 554.223 245.534 554.08 243.526C553.937 240.999 553.381 239.063 552.414 237.683C551.446 236.303 549.834 236.267 547.559 237.594C546.502 238.203 545.57 238.992 544.8 239.96C544.029 240.927 543.384 241.985 542.883 243.132C542.381 244.279 541.969 245.462 541.682 246.681C541.396 247.9 541.199 249.083 541.109 250.248C541.002 251.431 540.966 252.757 540.966 254.245C540.966 255.732 541.019 257.005 541.109 258.062C541.199 259.12 541.396 260.088 541.682 260.966C541.969 261.844 542.363 262.561 542.883 263.135C543.384 263.69 544.029 264.013 544.8 264.085C545.57 264.156 546.502 263.887 547.559 263.278C549.834 261.97 551.446 260.07 552.414 257.56C553.381 255.069 553.937 252.47 554.08 249.782Z" fill="#000D44"/>
<path d="M595.339 234.439C595.339 233.615 595.16 233.095 594.801 232.862C594.443 232.629 593.816 232.611 592.956 232.808C592.078 233.023 590.932 233.382 589.516 233.901C588.083 234.421 586.309 235.013 584.177 235.64C580.505 236.715 577.674 236.267 575.685 234.278C573.697 232.306 572.711 228.775 572.711 223.703C572.711 221.176 573.123 218.595 573.948 215.96C574.772 213.325 575.918 210.762 577.387 208.271C578.856 205.779 580.63 203.467 582.726 201.334C584.804 199.201 587.116 197.391 589.695 195.921C592.204 194.47 594.533 193.591 596.665 193.305C598.797 193 600.624 193.143 602.183 193.699C603.723 194.255 604.942 195.222 605.838 196.603C606.733 197.983 607.235 199.578 607.325 201.388C607.378 202.177 607.199 203.001 606.787 203.826C606.375 204.65 605.909 205.224 605.372 205.528L596.736 210.511C596.199 210.816 595.787 210.87 595.464 210.69C595.16 210.493 594.766 210.314 594.336 210.117C593.906 209.92 593.332 209.848 592.634 209.866C591.935 209.902 590.95 210.278 589.695 211.013C588.585 211.658 587.653 212.429 586.901 213.361C586.148 214.275 585.772 215.297 585.772 216.408C585.772 217.232 585.897 217.788 586.13 218.093C586.381 218.397 586.865 218.469 587.581 218.308C588.316 218.147 589.319 217.842 590.627 217.394C591.935 216.946 593.655 216.354 595.787 215.655C600.176 214.221 603.383 214.669 605.39 216.982C607.396 219.294 608.399 222.663 608.399 227.144C608.399 229.671 607.987 232.288 607.163 234.959C606.339 237.629 605.139 240.264 603.544 242.863C601.95 245.462 600.015 247.9 597.74 250.176C595.464 252.452 592.884 254.442 589.982 256.109C587.08 257.793 584.536 258.761 582.332 259.012C580.128 259.281 578.283 259.066 576.778 258.367C575.273 257.668 574.127 256.628 573.338 255.212C572.532 253.814 572.084 252.237 571.995 250.516C571.959 249.728 572.138 248.903 572.55 248.079C572.962 247.254 573.428 246.681 573.965 246.376L582.959 241.178C583.497 240.874 583.873 240.856 584.124 241.125C584.357 241.393 584.679 241.662 585.073 241.913C585.449 242.182 586.023 242.307 586.739 242.29C587.474 242.272 588.549 241.859 590 241.017C591.451 240.175 592.705 239.153 593.762 237.952C594.819 236.715 595.339 235.55 595.339 234.439Z" fill="#000D44"/>
<path d="M628.052 205.941C628.052 206.765 627.855 207.572 627.479 208.396C627.085 209.221 626.637 209.776 626.1 210.081L616.963 215.368C616.425 215.673 615.977 215.637 615.583 215.279C615.189 214.902 615.01 214.311 615.01 213.486V165.344C615.01 164.519 615.207 163.713 615.583 162.888C615.977 162.064 616.425 161.508 616.963 161.204L626.1 155.916C626.637 155.611 627.085 155.647 627.479 156.024C627.873 156.4 628.052 156.992 628.052 157.816V205.941ZM628.052 229.958C628.052 230.783 627.855 231.589 627.479 232.414C627.085 233.238 626.637 233.794 626.1 234.099L616.963 239.386C616.425 239.691 615.977 239.655 615.583 239.296C615.189 238.92 615.01 238.328 615.01 237.504V226.212C615.01 225.388 615.207 224.581 615.583 223.757C615.977 222.932 616.425 222.377 616.963 222.072L626.1 216.784C626.637 216.48 627.085 216.516 627.479 216.874C627.873 217.25 628.052 217.842 628.052 218.666V229.958Z" fill="#000D44"/>
<path d="M276.285 287.833C277.539 290.45 278.703 293.156 279.241 296.024C280.549 303.086 278.023 310.202 276.607 317.246C276.141 319.629 275.98 321.798 277.682 323.662C278.04 324.039 278.506 324.415 279.008 324.29C279.438 324.182 279.725 323.77 279.94 323.375C281.624 320.526 282.967 317.461 283.953 314.27C284.15 317.299 284.042 320.364 283.63 323.375C283.308 325.777 282.806 328.269 283.558 330.581C284.293 332.875 286.891 334.721 288.933 333.592C290.277 332.857 290.85 331.19 291.316 329.685C291.871 327.892 292.427 326.082 292.982 324.29C293.753 321.78 294.523 319.253 295.025 316.672C296.78 307.388 294.63 297.351 289.238 289.751C287.805 287.726 286.085 285.826 283.845 284.93C281.767 284.087 279.33 284.231 277.36 285.306C276.07 286.005 275.622 286.489 276.285 287.833Z" fill="#F28F8F"/>
<path d="M299.216 300.165C298.445 290.755 298.123 280.897 296.367 271.989C294.611 263.081 290.885 228.829 289.201 219.312C286.997 206.801 284.005 198.915 282.178 191.154C280.135 182.479 278.415 170.613 274.761 151.65C271.142 132.866 266.663 122.184 257.329 116.09C248.765 110.498 241.527 109.172 233.984 108.957C231.87 114.764 233.805 135.107 233.805 135.107C233.805 135.107 242.853 178.446 243.731 183.751C244.609 189.057 254.283 213.451 260.697 233.274C264.37 244.655 269.923 260.661 269.923 260.661C271.608 267.741 272.199 269.999 270.783 275.609C270.192 277.975 269.243 280.234 268.651 282.6C268.006 285.181 267.612 287.815 267.469 290.45C267.379 292.242 267.397 294.017 267.308 295.809C267.146 299.125 266.609 302.423 266.215 305.721C265.928 308.141 267.326 309.628 269.78 308.857C271.554 308.32 273.005 306.725 273.811 305.147C275.011 302.799 275.352 300.129 275.943 297.548C276.23 296.311 277.699 288.873 280.082 290.898C282.088 292.601 284.22 298.426 286.854 302.369C289.487 306.312 290.849 308.804 290.401 314.826C289.953 320.83 287.069 328.86 288.054 333.932C289.022 339.023 291.852 340.098 292.873 337.983C293.895 335.868 297.012 323.626 298.051 319.396C299.108 315.184 299.932 309.055 299.216 300.165Z" fill="#FFA8A7"/>
<path d="M275.978 293.497C286.889 298.301 300.487 300.935 306.435 324.236C312.383 347.536 319.424 433.139 319.424 433.139C319.424 433.139 311.702 444.359 295.596 444.359L296.581 468.789C296.581 468.789 280.636 476.46 256.88 470.456C245.36 467.552 238.266 457.013 238.266 457.013C238.266 457.013 240.989 387.864 242.852 361.463C244.733 335.08 247.134 280.61 275.978 293.497Z" fill="#455A64"/>
<path d="M291.762 350.333C291.762 350.333 294.664 420.198 295.614 444.359C298.498 444.359 301.114 443.983 303.479 443.391L291.762 350.333Z" fill="#37474F"/>
<path d="M267.343 295.809C267.181 299.125 266.644 302.423 266.25 305.721C265.963 308.141 267.361 309.628 269.815 308.858C271.589 308.32 273.04 306.725 273.846 305.147C275.046 302.799 275.387 300.129 275.978 297.548C276.193 296.598 277.107 292.027 278.594 290.844L267.486 290.432C267.414 292.224 267.432 294.017 267.343 295.809ZM278.594 290.862L280.099 290.916C279.561 290.432 279.06 290.486 278.594 290.862Z" fill="#FFA8A7"/>
<path d="M244.073 107.72C261.756 114.997 267.417 120.858 270.785 131.576C274.135 142.294 279.618 169.395 281.373 181.17C283.147 192.946 287.59 203.539 290.062 218.935C292.535 234.332 294.989 256.79 294.989 256.79C294.989 256.79 291.782 260.912 282.108 261.486C272.433 262.059 267.399 258.582 267.399 258.582C267.399 258.582 257.115 227.825 253.228 217.555C249.34 207.285 240.418 181.762 240.418 181.762L244.073 107.72Z" fill="#E6E6E6"/>
<path d="M92.7871 535.482L104.594 539.103L106.367 530.589L96.6927 531.503L92.7871 535.482Z" fill="#000D44"/>
<path d="M96.0296 511.68C96.0296 511.68 91.0849 517.362 89.5442 519.172C88.0213 520.982 91.5328 532.991 92.769 535.482L96.6746 531.486C97.0688 534.533 96.4059 537.508 95.7788 542.132C95.2593 546.004 93.3244 552.581 94.901 559.303C97.2479 569.268 105.041 579.431 114.769 587.497C124.48 595.562 132.112 597.516 136.609 597.534C141.124 597.552 143.972 595.705 145.226 592.623C146.498 589.522 96.0296 511.68 96.0296 511.68Z" fill="#263238"/>
<path d="M138.435 511.931L141.212 508.561C143.093 509.924 139.456 515.103 138.776 521.574C137.844 530.267 137.468 541.774 138.991 550.413C142.018 567.458 146.605 580.238 147.913 587.891C149.686 598.125 132.236 598.788 116.614 585.292C108.856 578.606 97.6053 563.443 97.247 555.539C96.8887 547.635 100.149 538.261 99.594 532.292C99.0386 526.324 94.7747 517.469 96.0109 511.68C96.6916 508.508 101.439 503.543 105.65 499.456C109.501 495.71 112.762 487.573 114.733 489.939L113.317 492.735C112.87 495.334 114.554 501.374 120.233 507.504C123.081 510.551 132.595 518.33 138.435 511.931Z" fill="#455A64"/>
<path opacity="0.15" d="M125.356 511.698C128.688 513.831 132.826 515.372 136.302 513.58C136.338 513.562 136.392 513.562 136.428 513.526C136.428 513.526 133.131 516.143 133.418 521.807C133.704 527.471 133.615 565.755 133.615 565.755C133.615 565.755 131.752 532.669 131.339 526.395C130.73 517.111 129.691 515.283 125.356 511.698Z" fill="#000D44"/>
<path d="M147.932 587.873C146.821 581.42 143.381 571.294 140.515 558.03C140.138 562.135 140.998 566.221 140.551 567.333C139.44 570.075 130.303 568.067 125.394 566.006C120.485 563.945 120.342 554.517 118.407 544.588C116.454 534.658 106.385 536.755 98.6277 542.598C97.8932 546.846 97.087 551.399 97.284 555.539C97.6424 563.443 108.893 578.589 116.651 585.292C132.256 598.77 149.705 598.107 147.932 587.873Z" fill="#37474F"/>
<path opacity="0.15" d="M124.513 521.216C124.029 521.718 123.241 521.736 122.739 521.252C122.238 520.768 122.22 519.979 122.703 519.477C123.187 518.975 123.975 518.957 124.477 519.441C124.979 519.925 124.997 520.714 124.513 521.216Z" fill="#000D44"/>
<path opacity="0.15" d="M125.232 530.249C124.748 530.751 123.96 530.769 123.458 530.285C122.956 529.801 122.938 529.012 123.422 528.51C123.906 528.008 124.694 527.99 125.196 528.475C125.697 528.959 125.715 529.747 125.232 530.249Z" fill="#000D44"/>
<path opacity="0.15" d="M125.947 539.283C125.463 539.785 124.675 539.803 124.173 539.319C123.671 538.835 123.653 538.046 124.137 537.544C124.621 537.042 125.409 537.024 125.911 537.508C126.43 537.992 126.43 538.781 125.947 539.283Z" fill="#000D44"/>
<path opacity="0.15" d="M126.683 548.316C126.199 548.818 125.411 548.836 124.909 548.352C124.408 547.868 124.39 547.079 124.873 546.577C125.357 546.075 126.145 546.057 126.647 546.541C127.149 547.025 127.149 547.814 126.683 548.316Z" fill="#000D44"/>
<path opacity="0.15" d="M127.396 557.368C126.912 557.87 126.124 557.888 125.622 557.404C125.12 556.92 125.103 556.131 125.586 555.629C126.07 555.127 126.858 555.109 127.36 555.593C127.862 556.059 127.879 556.866 127.396 557.368Z" fill="#000D44"/>
<path d="M123.279 520.713C123.189 520.642 123.135 520.516 123.117 520.391C123.082 520.104 123.279 519.853 123.565 519.835C123.924 519.799 132.29 518.849 138.292 524.065C138.489 524.244 138.507 524.567 138.328 524.782C138.149 524.997 137.826 525.015 137.611 524.836C131.95 519.925 123.762 520.839 123.673 520.857C123.53 520.875 123.368 520.821 123.279 520.713Z" fill="#263238"/>
<path d="M124.015 529.747C123.925 529.675 123.872 529.55 123.854 529.424C123.818 529.138 124.015 528.887 124.302 528.869C124.66 528.833 133.027 527.883 139.028 533.099C139.226 533.278 139.261 533.6 139.064 533.816C138.885 534.031 138.563 534.049 138.348 533.869C132.686 528.976 124.499 529.872 124.409 529.89C124.248 529.89 124.105 529.837 124.015 529.747Z" fill="#263238"/>
<path d="M124.712 538.798C124.623 538.727 124.569 538.601 124.551 538.476C124.515 538.189 124.712 537.938 124.999 537.92C125.357 537.884 133.724 536.934 139.726 542.15C139.923 542.329 139.959 542.652 139.762 542.867C139.582 543.082 139.26 543.1 139.045 542.921C133.384 538.028 125.196 538.924 125.106 538.942C124.963 538.942 124.82 538.888 124.712 538.798Z" fill="#263238"/>
<path d="M125.433 547.832C125.343 547.76 125.29 547.635 125.272 547.509C125.236 547.222 125.433 546.972 125.72 546.954C126.078 546.918 134.445 545.968 140.446 551.166C140.643 551.345 140.679 551.668 140.482 551.883C140.303 552.098 139.981 552.116 139.766 551.936C134.104 547.043 125.917 547.939 125.827 547.957C125.684 547.975 125.541 547.921 125.433 547.832Z" fill="#263238"/>
<path d="M126.144 556.865C126.054 556.794 126.001 556.668 125.983 556.543C125.947 556.256 126.144 556.005 126.431 555.987C126.789 555.951 135.156 555.001 141.157 560.217C141.354 560.396 141.39 560.719 141.193 560.934C141.014 561.149 140.692 561.167 140.477 560.988C134.815 556.095 126.628 556.991 126.538 557.009C126.395 557.009 126.251 556.955 126.144 556.865Z" fill="#263238"/>
<path d="M258.614 250.57C258.614 250.57 259.904 272.957 258.793 319.522C257.862 358.47 262.161 378.687 246.539 403.476C232.582 425.611 145.476 510.174 139.17 517.846C139.17 517.846 111.616 520.373 110.254 492.09C110.254 492.09 135.927 446.223 148.056 420.216C160.167 394.209 176.721 381.734 176.721 381.734L154.094 268.332L258.614 250.57Z" fill="#263238"/>
<path d="M163.715 266.701L154.148 268.332L154.166 268.745L175.969 378.096L176.704 380.838C176.704 380.838 176.65 380.856 176.543 380.892L176.704 381.735C176.704 381.735 164.933 390.642 153.969 409.032C157.785 418.854 165.399 436.061 165.399 436.061C166.08 438.731 158.376 449.665 162.765 482.572C163.088 484.938 163.661 488.379 164.324 492.072C183.924 472.32 210.582 445.345 228.588 425.378C229.466 420.234 232.099 403.279 230.594 390.356C229.089 377.361 223.231 313.912 223.231 313.912C223.231 313.912 230.093 310.202 237.707 300.595C243.225 293.622 244.461 285.933 244.461 285.933C244.461 285.933 249.836 270.895 251.932 259.962L163.715 266.701Z" fill="#000D44"/>
<path d="M198.094 628.416L209.829 624.58L206.389 616.604L198.99 622.913L198.094 628.416Z" fill="#000D44"/>
<path d="M187.061 607.069C187.061 607.069 186.272 614.561 186.075 616.927C185.878 619.293 195.642 627.089 198.097 628.416L198.992 622.895C201.053 625.154 202.235 627.968 204.385 632.126C206.177 635.585 208.38 642.074 213.54 646.662C221.19 653.473 233.409 657.273 246.003 658.276C258.598 659.28 265.943 656.484 269.634 653.903C273.343 651.322 274.615 648.168 273.844 644.923C273.11 641.697 187.061 607.069 187.061 607.069Z" fill="#263238"/>
<path d="M221.889 582.872L222.23 578.517C224.559 578.553 224.559 584.88 227.712 590.561C231.958 598.215 238.246 607.84 244.481 614.023C256.771 626.229 267.861 634.044 273.325 639.528C280.653 646.877 266.768 657.452 246.237 655.427C236.043 654.405 218.127 648.49 213.29 642.235C208.452 635.98 205.729 626.426 201.824 621.874C197.936 617.303 189.354 612.518 187.043 607.087C185.771 604.094 186.81 597.301 187.885 591.547C188.888 586.26 186.864 577.746 189.838 578.535L190.286 581.635C191.415 584.019 196.27 587.98 204.439 589.719C208.542 590.579 220.778 591.475 221.889 582.872Z" fill="#455A64"/>
<path opacity="0.15" d="M211.051 590.221C214.993 590.059 219.275 588.93 221.084 585.453C221.102 585.417 221.138 585.381 221.156 585.346C221.156 585.346 219.956 589.378 223.449 593.841C226.943 598.304 248.872 629.67 248.872 629.67C248.872 629.67 228.322 603.681 224.363 598.788C218.522 591.547 216.623 590.651 211.016 590.221C211.034 590.221 211.051 590.221 211.051 590.221Z" fill="#000D44"/>
<path d="M273.325 639.528C268.703 634.886 260.068 628.577 250.089 619.382C252.131 622.967 255.195 625.799 255.463 626.964C256.144 629.85 247.509 633.47 242.295 634.599C237.082 635.746 231.564 628.111 224.254 621.103C216.945 614.095 209.922 621.623 206.93 630.853C208.775 634.743 210.728 638.937 213.272 642.217C218.109 648.472 236.025 654.387 246.219 655.409C266.768 657.452 280.671 646.877 273.325 639.528Z" fill="#37474F"/>
<path opacity="0.15" d="M215.851 598.484C215.743 599.165 215.098 599.649 214.418 599.542C213.737 599.434 213.253 598.789 213.361 598.107C213.468 597.426 214.113 596.942 214.794 597.05C215.475 597.157 215.958 597.803 215.851 598.484Z" fill="#000D44"/>
<path opacity="0.15" d="M221.62 605.456C221.513 606.137 220.868 606.622 220.187 606.514C219.506 606.406 219.023 605.761 219.13 605.08C219.238 604.398 219.883 603.914 220.563 604.022C221.262 604.129 221.728 604.775 221.62 605.456Z" fill="#000D44"/>
<path opacity="0.15" d="M227.406 612.446C227.298 613.128 226.653 613.612 225.972 613.504C225.292 613.397 224.808 612.751 224.915 612.07C225.023 611.389 225.668 610.905 226.349 611.012C227.047 611.102 227.513 611.747 227.406 612.446Z" fill="#000D44"/>
<path opacity="0.15" d="M233.193 619.419C233.085 620.1 232.44 620.584 231.76 620.476C231.079 620.369 230.595 619.723 230.702 619.042C230.81 618.361 231.455 617.877 232.136 617.984C232.834 618.092 233.3 618.737 233.193 619.419Z" fill="#000D44"/>
<path opacity="0.15" d="M238.98 626.391C238.872 627.072 238.227 627.556 237.547 627.449C236.866 627.341 236.382 626.696 236.49 626.014C236.597 625.333 237.242 624.849 237.923 624.957C238.622 625.064 239.087 625.71 238.98 626.391Z" fill="#000D44"/>
<path d="M214.542 598.806C214.416 598.788 214.309 598.734 214.219 598.645C214.022 598.43 214.04 598.107 214.255 597.928C214.524 597.695 220.83 592.103 228.731 592.909C228.731 592.909 228.731 592.909 228.749 592.909C229.018 592.945 229.215 593.196 229.197 593.465C229.161 593.752 228.928 593.949 228.641 593.913C221.189 593.16 215.008 598.627 214.954 598.681C214.828 598.77 214.667 598.824 214.542 598.806Z" fill="#263238"/>
<path d="M220.333 605.743C220.207 605.725 220.1 605.671 220.01 605.581C219.813 605.366 219.831 605.044 220.046 604.864C220.315 604.631 226.621 599.039 234.522 599.846C234.522 599.846 234.522 599.846 234.54 599.846C234.809 599.882 235.006 600.133 234.988 600.401C234.952 600.67 234.719 600.885 234.432 600.849C226.997 600.097 220.799 605.563 220.745 605.617C220.619 605.725 220.476 605.76 220.333 605.743Z" fill="#263238"/>
<path d="M226.101 612.751C225.976 612.733 225.868 612.679 225.779 612.589C225.599 612.374 225.599 612.052 225.814 611.872C226.083 611.639 232.39 606.047 240.29 606.854C240.29 606.854 240.29 606.854 240.308 606.854C240.577 606.89 240.774 607.14 240.756 607.409C240.72 607.696 240.487 607.893 240.201 607.857C232.766 607.105 226.567 612.571 226.513 612.625C226.388 612.733 226.244 612.768 226.101 612.751Z" fill="#263238"/>
<path d="M231.884 619.723C231.759 619.705 231.651 619.651 231.562 619.561C231.383 619.346 231.383 619.042 231.598 618.845C231.866 618.612 238.173 613.019 246.074 613.826C246.074 613.826 246.074 613.826 246.091 613.826C246.36 613.862 246.557 614.113 246.539 614.382C246.504 614.668 246.271 614.866 245.984 614.83C238.549 614.077 232.35 619.544 232.296 619.597C232.171 619.705 232.028 619.741 231.884 619.723Z" fill="#263238"/>
<path d="M237.673 626.695C237.548 626.677 237.44 626.623 237.351 626.534C237.172 626.319 237.172 625.996 237.387 625.817C237.655 625.584 243.962 619.992 251.863 620.798C251.863 620.798 251.863 620.798 251.881 620.798C252.149 620.834 252.346 621.085 252.328 621.354C252.293 621.641 252.06 621.838 251.773 621.802C244.338 621.049 238.139 626.516 238.085 626.57C237.96 626.677 237.817 626.713 237.673 626.695Z" fill="#263238"/>
<path d="M133.188 243.347C133.188 243.347 132.561 271.971 132.687 284.894C132.937 311.313 138.007 322.193 144.583 344.418C149.921 362.449 171.582 428.587 173.23 435.057C170.937 449.037 168.5 461.405 173.176 491.928C179.93 535.966 187.598 588.285 187.598 588.285C191.629 593.895 219.112 595.921 227.102 587.801C227.102 587.801 229.467 446.851 228.607 418.048C227.873 393.008 216.192 310.919 216.192 310.919C216.192 310.919 253.636 295.164 256.86 251.09L133.188 243.347Z" fill="#263238"/>
<path d="M185.624 294.017C162.047 294.017 146.228 289.016 132.791 277.33C132.916 250.839 133.346 217.483 133.651 193.09L133.758 184.415C134.009 164.968 134.314 152.17 136.589 138.333C138.237 128.332 142.179 115.517 147.894 112.29C154.684 108.455 159.27 106.107 170.038 101.572C174.517 99.6901 177.401 97.8619 180.196 95.1375C184.496 95.4601 222.137 98.5609 243.689 108.508C248.544 110.749 263.719 130.572 261.928 158.049C257.52 224.975 259.025 264.085 259.151 267.096C257.341 271.684 243.421 289.464 208.718 292.762C199.975 293.623 192.432 294.017 185.624 294.017Z" fill="#FAFAFA"/>
<path d="M180.536 96.0695C186.322 96.5176 222.458 99.6901 243.33 109.333C248.06 111.52 262.823 130.967 261.049 158.013C256.731 223.703 258.093 262.615 258.254 266.952C257.52 268.548 254.223 273.692 246.681 279.051C239.819 283.926 227.636 290.109 208.628 291.92C199.938 292.744 192.414 293.139 185.624 293.139C162.459 293.139 146.872 288.281 133.668 276.936C133.794 250.534 134.206 217.43 134.528 193.179L134.636 184.432C134.886 165.039 135.191 152.26 137.466 138.494C139.204 127.92 143.235 115.947 148.323 113.079C155.077 109.261 159.646 106.931 170.378 102.414C174.749 100.568 177.759 98.7043 180.536 96.0695ZM179.855 94.2234C177.114 96.9657 174.265 98.8297 169.679 100.765C158.625 105.426 154.038 107.791 147.445 111.52C141.157 115.068 137.233 128.941 135.711 138.19C133.417 152.08 133.113 164.77 132.862 184.397C132.539 209.938 132.02 247.953 131.895 277.724C145.636 289.823 161.563 294.895 185.624 294.895C192.611 294.895 200.279 294.465 208.789 293.658C245.48 290.181 258.774 270.788 260.046 267.239C260.046 267.239 258.2 228.22 262.823 158.103C264.65 130.268 249.242 110.068 244.083 107.684C220.882 97.0015 179.855 94.2234 179.855 94.2234Z" fill="#E0E0E0"/>
<path d="M180.661 15.2882C169.536 27.8705 173.137 42.6216 177.15 57.4802C181.826 74.3821 182.095 79.8487 191.805 84.0787C189.619 31.0071 206.567 96.0337 249.081 54.7737C256.767 47.3175 257.251 24.232 247.935 13.7647C234.749 -1.04011 202.411 -8.4246 180.661 15.2882Z" fill="#37474F"/>
<path d="M178.348 74.149C186.106 77.3752 189.617 72.034 189.617 72.034L182.774 91.7499C182.774 91.7499 178.456 103.974 188.399 109.942C215.954 126.504 209.701 133.458 219.035 141.506C222.206 137.562 221.794 119.818 222.278 115.14L228.333 96.1591C228.333 96.1591 233.332 96.3742 237.757 95.7289C245.12 94.6894 249.313 89.4378 251.624 81.4977C255.35 68.7361 254.777 49.5042 250.208 24.5547C242.057 18.0484 215.04 16.6504 197.572 27.3686C198.199 42.0301 194.222 44.396 194.222 50.7051C194.222 57.7849 193.738 59.4159 191.57 60.3658C189.42 61.3158 187.468 57.9999 186.59 55.9208C185.121 52.4078 183.849 50.1674 180.391 49.2891C176.844 48.3929 173.081 49.0023 169.91 53.6624C164.983 60.9215 172.723 71.819 178.348 74.149Z" fill="#FFA8A7"/>
<path d="M228.295 96.177C219.57 95.7468 207.316 91.1584 202.371 86.5342C197.426 81.9099 194.201 72.9123 194.201 72.9123C194.201 72.9123 194.058 81.8024 200.508 89.6528C206.957 97.5033 226.45 101.93 226.45 101.93L228.295 96.177Z" fill="#F28F8F"/>
<path d="M223.656 31.5807C223.423 31.5986 223.137 31.7241 223.137 31.9571C223.137 32.2259 223.37 32.2797 223.549 32.3693C223.853 32.5306 224.14 32.7457 224.409 32.9429C224.677 33.1579 224.946 33.3909 225.107 33.6956C225.215 33.9107 225.269 34.1617 225.322 34.3947C225.394 34.8069 225.394 35.2012 225.412 35.6135C225.412 35.954 225.699 36.1691 226.039 35.9002C226.164 35.7927 226.236 35.6493 226.308 35.5059C226.505 35.0399 226.577 34.556 226.541 34.072C226.505 33.8032 226.451 33.5343 226.326 33.2834C225.86 32.3335 224.749 31.509 223.656 31.5807ZM236.986 32.1184C237.147 31.5627 236.556 31.0071 236 31.1863C235.069 31.509 234.459 32.4948 234.155 33.4089C233.725 34.6994 233.832 36.2946 234.871 37.2624C235.033 37.4058 235.266 37.5313 235.427 37.4058C235.839 37.119 235.516 35.6493 235.534 35.2371C235.57 34.6277 235.749 34.0183 236.072 33.4985C236.358 33.0504 236.842 32.6561 236.986 32.1184ZM229.73 28.9818C229.586 28.8921 229.443 28.928 229.371 29.1072C229.246 29.4657 229.407 29.7345 229.551 30.0572C229.73 30.3977 229.873 30.7562 229.981 31.1326C230.213 31.8495 230.321 32.6202 230.357 33.373C230.375 34.09 230.321 34.8069 230.213 35.5059C230.106 36.1691 229.909 36.8143 229.801 37.4775C229.783 37.5492 229.837 37.7284 229.927 37.6567C231.109 36.6709 231.378 35.0937 231.36 33.6239C231.342 32.8174 231.235 31.975 230.984 31.2043C230.769 30.4156 230.41 29.4478 229.73 28.9818Z" fill="#F28F8F"/>
<path d="M214.018 37.7464L221.9 34.7173C222.689 36.9756 221.56 39.4849 219.392 40.3094C217.207 41.1518 214.806 40.0047 214.018 37.7464Z" fill="#37474F"/>
<path d="M239.065 33.5164L246.697 37.2804C245.73 39.4491 243.24 40.3632 241.126 39.3237C239.012 38.2841 238.098 35.6852 239.065 33.5164Z" fill="#37474F"/>
<path d="M221.9 45.8837C221.166 44.1093 220.109 46.6185 217.977 47.5147C215.845 48.393 213.462 47.2996 214.196 49.0741C214.931 50.8485 217.242 51.5654 219.374 50.6872C221.488 49.8089 222.617 47.6581 221.9 45.8837Z" fill="#263238"/>
<path d="M246.75 47.6402C247.18 45.7761 244.851 47.1921 242.611 46.6723C240.372 46.1525 239.064 43.8762 238.634 45.7403C238.204 47.6043 239.655 49.5401 241.913 50.0599C244.152 50.5976 246.32 49.5042 246.75 47.6402Z" fill="#263238"/>
<path d="M228.012 41.6L231.219 64.8826L242.828 62.1941C240.248 55.4548 233.046 44.7007 228.012 41.6Z" fill="#F28F8F"/>
<path d="M222.689 70.3313C222.151 70.6719 221.685 71.12 221.363 71.6577C220.342 73.3425 221.793 74.2028 223.334 74.3462C225.018 74.5075 226.684 74.9914 228.207 75.7442C228.941 76.1206 229.622 76.5687 230.464 76.4612C230.93 76.4074 231.503 76.0848 231.754 75.6905C232.005 75.2961 232.058 74.7047 231.987 74.2566C231.736 72.4463 230.446 70.5106 228.404 69.7578C226.522 69.0588 224.373 69.238 222.689 70.3313Z" fill="#B16668"/>
<path d="M228.206 75.7442C228.582 75.9414 228.941 76.1386 229.335 76.2819C228.565 73.0736 225.716 70.6719 222.276 70.654C221.936 70.9407 221.613 71.2634 221.38 71.6398C220.359 73.3246 221.81 74.1849 223.351 74.3283C225.017 74.5075 226.683 74.9735 228.206 75.7442Z" fill="#F28F8F"/>
<path d="M215.794 153.066C207.374 147.241 191.662 134.354 178.601 96.1053L173.441 99.6542C173.441 99.6542 181.718 138.96 214.54 158.927L215.794 153.066Z" fill="#04CE78"/>
<path d="M223.818 152.313C226.237 149.016 231.809 126.557 226.237 102.432L230.806 106.824C235.517 130.393 230.411 152.331 226.022 158.927L223.818 152.313Z" fill="#04CE78"/>
<path d="M223.445 164.501C223.445 164.501 233.299 233.901 233.711 240.712C234.105 247.505 223.409 264.12 221.958 264.945C220.507 265.769 210.922 249.674 210.797 244.279C210.671 238.866 217.73 164.448 217.73 164.448L223.445 164.501Z" fill="#04CE78"/>
<path d="M223.821 152.313C223.821 152.313 219.664 151.417 215.795 153.066C214.272 155.773 213.752 159.967 214.917 161.938C216.081 163.91 218.339 166.975 221.062 166.832C223.785 166.706 226.078 163.229 226.419 159.913C226.795 156.346 223.821 152.313 223.821 152.313Z" fill="#04CE78"/>
<path opacity="0.2" d="M223.821 152.313C223.821 152.313 219.664 151.417 215.795 153.066C214.272 155.773 213.752 159.967 214.917 161.938C216.081 163.91 218.339 166.975 221.062 166.832C223.785 166.706 226.078 163.229 226.419 159.913C226.795 156.346 223.821 152.313 223.821 152.313Z" fill="white"/>
<path d="M218.895 141.541C214.076 136.057 212.391 119.496 208.826 116.717C205.261 113.939 184.55 101.285 182.616 92.198L184.891 85.5843C182.418 84.4551 179.086 92.3594 169.68 100.765C169.68 100.765 168.534 110.355 175.718 121.288C184.192 134.175 191.627 138.494 191.627 138.494C191.627 138.494 201.982 125.124 203.684 124.604C205.386 124.084 213.126 139.57 218.895 141.541Z" fill="#F0F0F0"/>
<path d="M218.895 141.542C221.474 137.043 221.062 118.474 221.779 116.018C223.32 110.856 227.87 97.4855 227.87 97.4855C227.87 97.4855 229.053 98.3996 229.913 99.4929C238.459 110.57 238.208 126.575 235.861 131.486C233.388 126.235 227.512 119.478 226.455 120.822C225.416 122.166 223.32 139.337 218.895 141.542Z" fill="#F0F0F0"/>
<path d="M186.893 368.346L191.085 453.733C191.282 457.874 188.488 460.401 185.012 462.695L176.287 468.323C173.886 469.882 172.525 470.438 169.336 470.044C167.938 469.882 165.573 468.879 164.445 468.323C164.373 468.305 164.319 468.269 164.248 468.233L163.746 467.982L69.4018 419.499C62.5042 415.95 58.0253 408.996 57.6491 401.253L53.833 323.501C53.7435 321.727 54.8901 319.504 56.395 318.536L71.2829 308.947C72.77 307.979 75.2602 307.854 76.8368 308.678L183.847 363.668C184.654 364.062 185.388 364.815 185.926 365.639C186.481 366.499 186.857 367.467 186.893 368.346Z" fill="#37474F"/>
<path d="M186.892 368.346L191.084 453.733C191.281 457.874 188.486 460.401 185.011 462.695L176.286 468.323C173.885 469.882 172.523 470.438 169.334 470.044C167.937 469.882 165.572 468.879 164.443 468.323V468.287C168.098 469.793 170.821 467.785 170.624 463.555L166.683 383.097C166.611 381.752 166.074 380.283 165.25 378.992L185.942 365.639C186.48 366.499 186.856 367.467 186.892 368.346Z" fill="#263238"/>
<path d="M166.685 383.097C166.559 380.426 164.499 377.236 162.116 375.999L60.9639 324.021C56.9687 321.96 53.8693 323.967 54.1022 328.448L57.6674 401.235C58.0436 408.978 62.5225 415.933 69.4201 419.481L163.764 467.965C167.759 470.026 170.859 468.018 170.626 463.537L166.685 383.097Z" fill="#455A64"/>
<path d="M66.4681 312.048L173.712 367.736C176.775 369.331 178.8 372.468 178.961 375.927L183.279 463.806L181.738 464.81L177.384 376.017C177.241 373.131 175.557 370.496 172.995 369.17L64.9453 313.052L66.4681 312.048Z" fill="#04CE78"/>
<path opacity="0.2" d="M177.421 371.142C178.335 372.558 178.873 374.207 178.962 375.927L183.28 463.806L181.739 464.81L177.386 376.017C177.314 374.565 176.866 373.203 176.096 372.002L177.421 371.142Z" fill="#000D44"/>
<path opacity="0.2" d="M176.077 372.002C175.325 370.819 174.25 369.815 172.96 369.152L64.9102 313.034L66.4509 312.048L173.694 367.736C175.235 368.543 176.507 369.708 177.403 371.124" fill="#000D44"/>
<path d="M104.031 321.153L104.676 334.381L99.66 337.625L98.8001 320.06C98.7463 319.146 99.3734 318.751 100.18 319.163L104.031 321.153Z" fill="#04CE78"/>
<path opacity="0.4" d="M104.031 321.153L104.676 334.381L99.66 337.625L98.8001 320.06C98.7463 319.146 99.3734 318.751 100.18 319.163L104.031 321.153Z" fill="#000D44"/>
<path d="M140.992 332.427L142.049 353.828L137.248 356.928L133.826 355.172L132.966 337.607C132.93 336.711 132.232 335.635 131.425 335.223L105.537 321.924L100.163 319.163C99.3563 318.751 98.7472 319.146 98.783 320.06L99.643 337.625L96.2211 335.868L95.1641 314.468C95.1641 314.378 95.1641 314.27 95.182 314.181C95.2536 313.338 95.7911 312.37 96.4719 311.94L98.5143 310.614C99.2668 310.13 100.539 310.058 101.345 310.471L139.452 330.043C140.276 330.455 140.957 331.531 140.992 332.427Z" fill="#04CE78"/>
<path opacity="0.2" d="M136.209 335.528L137.266 356.928L133.844 355.172L132.984 337.607C132.948 336.711 132.249 335.635 131.443 335.223L105.555 321.924L100.18 319.163C99.3739 318.751 98.7648 319.146 98.8006 320.06L99.6606 337.625L96.2387 335.868L95.1816 314.468C95.1816 314.378 95.1816 314.27 95.1996 314.181C95.2891 313.482 95.8624 313.213 96.5791 313.571L134.686 333.144C135.474 333.556 136.155 334.631 136.209 335.528Z" fill="#000D44"/>
<path d="M118.26 319.128L134.491 327.48C134.294 324.935 133.488 321.601 132.342 320.4C130.657 318.644 123.294 311.439 120.983 312.155C119.854 312.496 118.797 315.543 118.26 319.128Z" fill="#F28F8F"/>
<path d="M118.26 328.466C118.403 329.021 118.564 329.505 118.779 329.936C120.983 334.56 125.695 338.019 125.695 338.019C127.594 337.643 129.403 336.37 130.89 334.936L118.26 328.466Z" fill="#F28F8F"/>
<path d="M143.252 119.298C131.464 124.478 122.918 133.512 116.826 152.744C110.825 171.743 103.282 194.828 100.308 214.831C97.3341 234.851 94.7363 276.667 94.0197 289.626C93.7151 295.021 93.1776 299.967 93.6076 305.344C93.8405 308.302 94.7901 316.242 96.4383 322.963C97.1012 325.67 98.4986 328.251 101.258 329.254C101.956 329.505 102.709 329.649 103.336 330.043C104.536 330.778 105.092 332.248 106.077 333.251C107.224 334.398 108.908 334.882 110.52 334.936C111.255 334.954 111.989 334.918 112.706 335.026C115.375 335.42 117.328 337.786 119.89 338.646C122.04 339.381 123.724 339.596 125.784 338.79C126.537 338.503 127.934 337.535 128.579 337.069C129.063 336.711 130.371 335.402 130.801 335.008C127.182 335.331 124.566 332.373 123.204 329.577C121.682 326.458 120.768 322.623 120.678 319.146C120.66 318.303 120.678 317.425 121.037 316.654C121.216 316.278 121.52 315.883 121.95 315.883C122.416 315.883 122.721 316.332 122.954 316.726C124.584 319.486 126.143 322.193 128.705 324.218C129.726 325.042 130.944 325.741 132.252 325.706C133.56 325.67 134.903 324.63 134.85 323.322C134.832 322.802 134.599 322.318 134.366 321.834C132.592 318.034 131.159 314.073 130.102 310.023C129.117 306.223 128.149 302.548 126.214 299.089C124.208 295.487 119.567 290.647 120.051 286.489C120.893 279.481 133.828 224.796 133.828 224.796C133.828 224.796 149.451 176.94 153.195 164.286C157.853 148.621 154.575 128.439 143.252 119.298Z" fill="#FFA8A7"/>
<path d="M147.447 111.52C128.6 121.109 124.031 128.708 118.854 142.993C114.231 155.773 103.912 190.813 101.35 203.288C96.7455 225.603 94.1836 268.261 94.1836 268.261C94.1836 268.261 96.4051 274.408 107.549 277.097C118.692 279.786 123.189 276.362 123.189 276.362L135.694 222.161C135.694 222.161 155.079 177.173 156.709 170.828C159.988 158.085 162.693 120.105 147.447 111.52Z" fill="#E6E6E6"/>
<path d="M290.919 75.7084C291.366 76.9093 291.617 78.1818 292.155 79.3648C292.674 80.494 293.391 81.5335 294.215 82.4476C295.953 84.3475 298.336 85.6022 300.898 85.8352C306.398 86.3191 312.525 81.7307 311.253 75.7621C311.128 75.1527 311.647 74.7047 312.22 74.6509C315.875 74.2924 317.792 70.6719 317.774 67.3022C317.738 63.5204 315.678 60.2225 311.79 59.5951C311.02 59.4697 310.25 59.4338 309.479 59.4697C308.745 59.5055 307.974 59.7385 307.24 59.6668C305.807 59.5414 305.663 57.7311 305.054 56.7095C303.406 53.9492 300.271 52.3899 297.082 52.9097C295.165 53.2323 293.391 54.2898 292.209 55.8312C291.026 57.3726 290.578 59.2546 290.309 61.1366C290.274 61.3696 289.754 61.9969 289.611 61.495C288.607 57.9999 290.919 54.0747 293.946 52.3899C297.422 50.4541 301.811 50.7947 304.839 53.4115C305.502 53.9851 306.093 54.6482 306.577 55.3831C306.846 55.7774 307.061 56.2076 307.258 56.6378C307.365 56.8708 307.58 57.8566 307.759 57.9641C307.867 58.0358 308.655 57.8745 308.798 57.8566C309.246 57.8207 309.712 57.8028 310.16 57.8028C311.199 57.8028 312.22 57.8924 313.224 58.1433C317.362 59.165 319.566 62.7855 319.691 66.9079C319.799 71.0662 317.308 75.0452 313.259 76.0131C314.012 82.591 307.491 87.5737 301.238 87.4304C298.121 87.3587 295.218 86.0503 293.015 83.8457C291.116 81.9458 289.002 78.7375 289.539 75.9235C289.647 75.4216 290.668 75.0452 290.919 75.7084Z" fill="#455A64"/>
<path d="M268.487 66.89C271.211 65.8146 274.364 65.6354 277.248 65.1514C278.52 64.9363 279.81 64.7392 281.082 64.542C282.408 64.3269 283.787 64.0402 285.149 64.0581C285.776 64.076 285.418 64.9184 285.041 65.0618C283.68 65.5816 282.175 65.8146 280.742 66.0834C279.38 66.3344 278.036 66.5674 276.675 66.8004C275.385 67.0155 274.077 67.2305 272.787 67.4277C271.39 67.6428 269.831 67.9116 268.416 67.7503C267.986 67.6966 268.219 66.9975 268.487 66.89Z" fill="#455A64"/>
<path d="M270.797 75.0813C271.299 74.8662 271.818 74.8482 272.356 74.7765C272.965 74.6869 273.556 74.6152 274.165 74.5793C275.204 74.5076 276.261 74.4538 277.3 74.4C278.357 74.3462 279.396 74.2924 280.453 74.2924C281.654 74.2745 283.033 74.0952 284.216 74.3821C284.789 74.5255 284.252 75.3682 283.911 75.4399C282.908 75.673 281.815 75.6371 280.776 75.7088C279.683 75.7806 278.608 75.8343 277.515 75.8881C276.44 75.9419 275.365 76.0136 274.29 76.0853C273.789 76.1212 273.287 76.1571 272.786 76.175C272.176 76.1929 271.245 76.2826 270.618 76.1033C270.134 75.9419 270.492 75.2068 270.797 75.0813Z" fill="#455A64"/>
</svg>
