<svg width="30" height="31" viewBox="0 0 30 31" fill="none" xmlns="http://www.w3.org/2000/svg">
<path d="M9.02052 7.98877V11.3431H10.1694V9.12849C9.7689 8.77186 9.39095 8.3878 9.02052 7.98877Z" fill="#04CE78"/>
<path d="M19.7631 8.91389V11.343H20.9795V7.73926C20.579 8.13579 20.1735 8.52983 19.7631 8.91389Z" fill="#04CE78"/>
<path d="M19.7631 20.835V25.2118H19.7581C19.6679 27.7506 17.568 29.7906 15 29.7906C12.4295 29.7906 10.3295 27.7531 10.2419 25.2118H10.2369V20.835H9.02052V25.0422C9.02052 28.3267 11.7036 31.0002 15 31.0002C18.2963 31.0002 20.9795 28.3267 20.9795 25.0422V20.835H19.7631Z" fill="#04CE78"/>
<path d="M10.2369 20.835H6.92558V20.8025H5.97947C3.35391 20.8025 1.21642 18.6727 1.21642 16.0566C1.21642 13.4405 3.35391 11.3107 5.97947 11.3107H10.1694V10.0986H5.97947C2.68313 10.0986 0 12.7721 0 16.0566C0 19.3411 2.68313 22.0146 5.97947 22.0146H10.2369V20.835Z" fill="#04CE78"/>
<path d="M24.0205 10.0986H19.7631V11.3107H24.0205C26.6461 11.3107 28.7836 13.4405 28.7836 16.0566C28.7836 18.6727 26.6461 20.8025 24.0205 20.8025H22.4662V20.835H19.7631V22.0121H24.0205C27.3169 22.0121 30 19.3386 30 16.0541C30 12.7696 27.3169 10.0986 24.0205 10.0986Z" fill="#04CE78"/>
<path d="M9.49357 25.5481C7.48122 25.5481 5.84431 23.9171 5.84431 21.912C5.84431 19.9069 7.48122 18.2759 9.49357 18.2759C11.5059 18.2759 13.1428 19.9069 13.1428 21.912C13.1428 23.9171 11.5059 25.5481 9.49357 25.5481ZM9.49357 19.4879C8.152 19.4879 7.06073 20.5753 7.06073 21.912C7.06073 23.2488 8.152 24.3361 9.49357 24.3361C10.8351 24.3361 11.9264 23.2488 11.9264 21.912C11.9264 20.5753 10.8351 19.4879 9.49357 19.4879Z" fill="white"/>
<path d="M11.3364 23.8171C12.3921 22.7653 12.3921 21.0599 11.3364 20.0081C10.2808 18.9562 8.56927 18.9562 7.51363 20.0081C6.45799 21.0599 6.45799 22.7653 7.51363 23.8171C8.56927 24.869 10.2808 24.869 11.3364 23.8171Z" fill="white"/>
<path d="M9.49357 25.5481C7.48122 25.5481 5.84431 23.9171 5.84431 21.912C5.84431 19.9069 7.48122 18.2759 9.49357 18.2759C11.5059 18.2759 13.1428 19.9069 13.1428 21.912C13.1428 23.9171 11.5059 25.5481 9.49357 25.5481ZM9.49357 19.4879C8.152 19.4879 7.06073 20.5753 7.06073 21.912C7.06073 23.2488 8.152 24.3361 9.49357 24.3361C10.8351 24.3361 11.9264 23.2488 11.9264 21.912C11.9264 20.5753 10.8351 19.4879 9.49357 19.4879Z" fill="#04CE78"/>
<path d="M15.1852 10.7368V17.4829C15.1852 19.5553 16.6544 21.2387 18.7344 21.2387L23.8178 21.306" stroke="#04CE78" stroke-width="1.3" stroke-miterlimit="10" stroke-linecap="round" stroke-linejoin="round"/>
<path d="M13.8737 1.16782L13.1453 1.12044C10.0417 0.913444 8.27215 4.70669 10.5223 6.84398C10.5823 6.90134 10.6474 6.9587 10.7125 7.01357L14.8999 10.8043" stroke="#04CE78" stroke-width="1.3" stroke-miterlimit="10" stroke-linecap="round" stroke-linejoin="round"/>
<path d="M16.6119 1.05552L17.3402 1.00813C20.4439 0.801139 22.2134 4.59439 19.9633 6.73168C19.9032 6.78904 19.8382 6.8464 19.7731 6.90126L15.5857 10.692" stroke="#04CE78" stroke-width="1.3" stroke-miterlimit="10" stroke-linecap="round" stroke-linejoin="round"/>
</svg>
