<svg width="30" height="30" viewBox="0 0 30 30" fill="none" xmlns="http://www.w3.org/2000/svg">
<path d="M16.875 23.4375C21.0171 23.4375 24.375 20.0796 24.375 15.9375C24.375 11.7954 21.0171 8.4375 16.875 8.4375C12.7329 8.4375 9.375 11.7954 9.375 15.9375C9.375 20.0796 12.7329 23.4375 16.875 23.4375Z" fill="#54FEBD"/>
<path d="M15 23.9062C8.71359 23.9062 2.98828 20.58 0.0576563 15.225C-0.0192188 15.0848 -0.0192188 14.9152 0.0576563 14.775C2.98828 9.42 8.71359 6.09375 15 6.09375C21.2864 6.09375 27.0117 9.42 29.9423 14.775C30.0192 14.9152 30.0192 15.0848 29.9423 15.225C27.0117 20.58 21.2864 23.9062 15 23.9062ZM1.00547 15C3.80766 19.9219 9.14531 22.9688 15 22.9688C20.8547 22.9688 26.1923 19.9219 28.9941 15C26.1923 10.0781 20.8547 7.03125 15 7.03125C9.14531 7.03125 3.80766 10.0781 1.00547 15Z" fill="#1D1B4C"/>
<path d="M6.17718 11.7515C6.03233 11.7515 5.8903 11.685 5.79843 11.5593C5.64562 11.3503 5.69108 11.0573 5.90015 10.9045L6.11483 10.7503C6.32671 10.6012 6.61874 10.6518 6.76827 10.8632C6.91733 11.0751 6.86671 11.3671 6.6553 11.5167L6.45374 11.6611C6.36983 11.7225 6.2728 11.7515 6.17718 11.7515Z" fill="#1D1B4C"/>
<path d="M2.65028 15.4688C2.56262 15.4688 2.47403 15.4444 2.39528 15.3928C2.17825 15.2517 2.11637 14.9616 2.25794 14.7445C2.42903 14.4816 2.60762 14.2252 2.79419 13.9749C2.98075 13.7245 3.17528 13.4813 3.37637 13.2445C3.57794 13.0078 3.78653 12.7777 4.00215 12.5555C4.21731 12.3328 4.43997 12.1172 4.66872 11.9095C4.8609 11.7352 5.15715 11.7497 5.33106 11.941C5.50544 12.1327 5.49137 12.4294 5.29965 12.6033C5.08544 12.7983 4.87731 12.9999 4.67575 13.2085C4.47372 13.4166 4.27872 13.6317 4.09028 13.853C3.90231 14.0742 3.72044 14.302 3.54606 14.536C3.37169 14.7699 3.20434 15.0099 3.0445 15.256C2.95403 15.3938 2.80403 15.4688 2.65028 15.4688Z" fill="#1D1B4C"/>
<path d="M15 23.4375C10.3477 23.4375 6.5625 19.6523 6.5625 15C6.5625 10.3477 10.3477 6.5625 15 6.5625C19.6523 6.5625 23.4375 10.3477 23.4375 15C23.4375 19.6523 19.6523 23.4375 15 23.4375ZM15 7.5C10.8647 7.5 7.5 10.8647 7.5 15C7.5 19.1353 10.8647 22.5 15 22.5C19.1353 22.5 22.5 19.1353 22.5 15C22.5 10.8647 19.1353 7.5 15 7.5Z" fill="#1D1B4C"/>
<path d="M15 21.5625C11.3813 21.5625 8.4375 18.6187 8.4375 15C8.4375 11.3813 11.3813 8.4375 15 8.4375C18.6187 8.4375 21.5625 11.3813 21.5625 15C21.5625 18.6187 18.6187 21.5625 15 21.5625ZM15 9.375C11.8983 9.375 9.375 11.8983 9.375 15C9.375 18.1017 11.8983 20.625 15 20.625C18.1017 20.625 20.625 18.1017 20.625 15C20.625 11.8983 18.1017 9.375 15 9.375Z" fill="#1D1B4C"/>
<path d="M15.9375 18.75H14.0625C13.8038 18.75 13.5938 18.54 13.5938 18.2812V16.4062H11.7188C11.46 16.4062 11.25 16.1962 11.25 15.9375V14.0625C11.25 13.8038 11.46 13.5938 11.7188 13.5938H13.5938V11.7188C13.5938 11.46 13.8038 11.25 14.0625 11.25H15.9375C16.1962 11.25 16.4062 11.46 16.4062 11.7188V13.5938H18.2812C18.54 13.5938 18.75 13.8038 18.75 14.0625V15.9375C18.75 16.1962 18.54 16.4062 18.2812 16.4062H16.4062V18.2812C16.4062 18.54 16.1962 18.75 15.9375 18.75ZM14.5312 17.8125H15.4688V15.9375C15.4688 15.6788 15.6788 15.4688 15.9375 15.4688H17.8125V14.5312H15.9375C15.6788 14.5312 15.4688 14.3212 15.4688 14.0625V12.1875H14.5312V14.0625C14.5312 14.3212 14.3212 14.5312 14.0625 14.5312H12.1875V15.4688H14.0625C14.3212 15.4688 14.5312 15.6788 14.5312 15.9375V17.8125Z" fill="#1D1B4C"/>
</svg>
