<svg width="60" height="60" viewBox="0 0 60 60" fill="none" xmlns="http://www.w3.org/2000/svg">
<g clip-path="url(#clip0_295_5986)">
<path d="M16.8674 14.3862V21.3502H15.1992V33.7005L20.3216 34.7696L24.2544 15.9281L16.8674 14.3862Z" fill="#04CE78"/>
<path d="M16.6735 28.7912C17.1407 23.8068 18.1954 19.1322 19.691 14.9756L15.734 14.1497L11.8013 32.9912L16.4114 33.9534C16.4238 32.2633 16.5096 30.5392 16.6735 28.7912Z" fill="#1F5FFF"/>
<path d="M42.2412 23.688H50.052V38.6929H42.2412V23.688Z" fill="#04CE78"/>
<path d="M45.498 29.1799C45.498 26.7599 47.4597 24.7982 49.8796 24.7982H50.052V23.688H42.2412V38.6929H45.498V29.1799Z" fill="#1F5FFF"/>
<path d="M46.1467 59.1211C42.7059 59.1211 39.9711 56.2311 40.1607 52.7955L40.9039 39.332C40.9589 38.3338 41.7844 37.5526 42.7841 37.5526H49.5092C50.5089 37.5526 51.3344 38.3338 51.3895 39.332L52.1327 52.7955C52.3223 56.2311 49.5876 59.1211 46.1467 59.1211Z" fill="#6A829A"/>
<path d="M45.498 55.6184V37.5526H42.7841C41.7844 37.5526 40.9589 38.3338 40.9039 39.332L40.1607 52.7955C39.9711 56.2311 42.7057 59.1211 46.1466 59.1211C46.486 59.1211 46.818 59.0919 47.1415 59.038C46.1399 58.235 45.498 57.002 45.498 55.6184Z" fill="#516980"/>
<path d="M47.2436 0.925049C53.823 1.48146 58.9895 6.99817 58.9895 13.7216C58.9895 20.0725 54.3796 25.3468 48.3233 26.3806L44.0482 25.8978L38.5518 13.6529L43.0012 2.07993L47.2436 0.925049Z" fill="#6A829A"/>
<path d="M42.2411 13.1479C42.2411 8.38699 44.15 4.0725 47.2432 0.926016C46.8815 0.89543 46.516 0.878906 46.1464 0.878906C39.0535 0.878906 33.3037 6.62883 33.3037 13.7216C33.3037 20.8145 39.0536 26.5643 46.1464 26.5643C46.8883 26.5643 47.6154 26.5005 48.3228 26.3798C44.5999 23.182 42.2411 18.4406 42.2411 13.1479Z" fill="#516980"/>
<path d="M43.7467 6.0051C44.5052 5.76862 45.3115 5.64124 46.1469 5.64124C50.6024 5.64124 54.2272 9.26608 54.2272 13.7215C54.2272 18.177 50.6024 21.802 46.1469 21.802C45.5594 21.802 44.9865 21.7389 44.4343 21.6194L42.0293 20.0649L39.3745 13.7217L41.0571 8.39901L43.7467 6.0051Z" fill="#04CE78"/>
<path d="M42.2413 13.1479C42.2413 10.6001 42.788 8.18021 43.7702 5.99841C40.471 7.01572 38.0664 10.0928 38.0664 13.7215C38.0664 17.5895 40.799 20.8299 44.4345 21.6176C43.038 19.1098 42.2413 16.2221 42.2413 13.1479Z" fill="#1F5FFF"/>
<path d="M24.8772 4.91089C26.7426 5.31319 28.0146 7.11999 27.6978 9.0578L26.5718 15.9466C26.2288 18.0447 24.1691 19.4042 22.105 18.8949L18.6925 18.0529L17.0703 15.959L17.405 10.5823L22.1793 5.64132L24.8772 4.91089Z" fill="#6A829A"/>
<path d="M24.8768 4.91214C24.7224 4.87886 24.5643 4.8539 24.4023 4.84054L16.817 4.21617C14.9248 4.06043 13.2303 5.38453 12.9241 7.25824L11.9939 12.948C11.6876 14.8219 12.8723 16.6166 14.7156 17.0714L18.6925 18.0527C20.1818 12.9231 22.3207 8.43211 24.8768 4.91214Z" fill="#516980"/>
<path d="M16.365 59.1211C12.9241 59.1211 10.1893 56.2311 10.3789 52.7955L11.1221 32.2302C11.1772 31.232 12.0027 30.4508 13.0024 30.4508H19.7274C20.7272 30.4508 21.5526 31.232 21.6077 32.2302L22.3509 52.7955C22.5406 56.2311 19.8058 59.1211 16.365 59.1211Z" fill="#6A829A"/>
<path d="M15.5485 55.6183V33.2519C15.5485 32.1866 15.929 31.2103 16.5612 30.4508H13.0024C12.0027 30.4508 11.1772 31.232 11.1221 32.2302L10.3789 52.7955C10.1893 56.2311 12.924 59.1211 16.3649 59.1211C16.6551 59.1211 16.9399 59.0988 17.2188 59.0591C16.2021 58.2567 15.5485 57.0143 15.5485 55.6183Z" fill="#516980"/>
<path d="M3.5248 11.1558C4.91274 11.1558 6.03789 10.0307 6.03789 8.64272C6.03789 7.25479 4.91274 6.12964 3.5248 6.12964C2.13687 6.12964 1.01172 7.25479 1.01172 8.64272C1.01172 10.0307 2.13687 11.1558 3.5248 11.1558Z" fill="#04CE78"/>
<path d="M59.868 13.7216C59.868 10.9266 59.0327 8.23711 57.4523 5.94387C57.1768 5.54414 56.6298 5.44348 56.2298 5.71887C55.8301 5.99437 55.7293 6.54164 56.0048 6.94137C57.3822 8.94 58.1102 11.2846 58.1102 13.7216C58.1102 20.3184 52.7432 25.6854 46.1463 25.6854C39.5495 25.6854 34.1825 20.3184 34.1825 13.7216C34.1826 7.12477 39.5496 1.75781 46.1464 1.75781C48.7734 1.75781 51.2661 2.59277 53.3553 4.17258C53.7424 4.46543 54.2936 4.38891 54.5865 4.00172C54.8792 3.61453 54.8027 3.06328 54.4155 2.77055C52.0186 0.958008 49.1592 0 46.1464 0C38.5802 0 32.4248 6.15551 32.4248 13.7216C32.4248 19.6059 36.1483 24.6364 41.3627 26.5823V37.0682C40.6028 37.5253 40.0783 38.338 40.0262 39.2836L39.283 52.7472C39.1779 54.6524 39.8421 56.4649 41.1537 57.8508C42.4652 59.2368 44.2384 60 46.1464 60C48.0546 60 49.8277 59.2368 51.1392 57.8508C52.4507 56.4648 53.1151 54.6524 53.01 52.747L52.2668 39.2835C52.2146 38.3382 51.6903 37.5259 50.9311 37.0686V26.5819C56.145 24.6359 59.868 19.6057 59.868 13.7216ZM49.8625 56.6426C48.8864 57.6741 47.5666 58.2422 46.1464 58.2422C44.7263 58.2422 43.4066 57.6741 42.4304 56.6426C41.4542 55.6111 40.9597 54.262 41.038 52.8439L41.7812 39.3804C41.8106 38.8482 42.251 38.4315 42.7839 38.4315H49.5091C50.042 38.4315 50.4825 38.8484 50.5119 39.3805L51.2551 52.8441C51.3331 54.262 50.8387 55.611 49.8625 56.6426ZM49.1732 36.6737H43.1205V27.1063C44.0945 27.3264 45.107 27.4432 46.1464 27.4432C47.1862 27.4432 48.1991 27.3263 49.1732 27.1062V36.6737Z" fill="black"/>
<path d="M46.1462 4.76233C41.2061 4.76233 37.187 8.78139 37.187 13.7215C37.187 18.6617 41.2061 22.6809 46.1462 22.6809C51.0864 22.6809 55.1056 18.6617 55.1056 13.7215C55.1056 8.78139 51.0864 4.76233 46.1462 4.76233ZM46.1462 20.9231C42.1753 20.9231 38.9448 17.6924 38.9448 13.7215C38.9448 9.75065 42.1753 6.52014 46.1462 6.52014C50.1172 6.52014 53.3478 9.75065 53.3478 13.7215C53.3478 17.6924 50.1171 20.9231 46.1462 20.9231Z" fill="black"/>
<path d="M46.1465 8.62952C45.661 8.62952 45.2676 9.02303 45.2676 9.50842C45.2676 9.99381 45.661 10.3873 46.1465 10.3873C47.985 10.3873 49.4808 11.8831 49.4808 13.7215C49.4808 14.2069 49.8742 14.6005 50.3597 14.6005C50.8452 14.6005 51.2386 14.2069 51.2386 13.7215C51.2386 10.9137 48.9543 8.62952 46.1465 8.62952Z" fill="black"/>
<path d="M24.4744 3.96467L16.889 3.34018C14.5578 3.14822 12.4339 4.8069 12.0566 7.11643L11.7334 9.09397L6.89927 8.30377C6.74927 6.81455 5.61759 5.54787 4.07177 5.29522C2.22642 4.99358 0.478806 6.24983 0.177048 8.09565C-0.124592 9.94135 1.13166 11.6886 2.97736 11.9903C3.16193 12.0204 3.34533 12.035 3.5265 12.035C4.86338 12.035 6.07299 11.2398 6.61591 10.0386L11.4499 10.8288L11.1267 12.8062C10.7735 14.9665 12.0491 17.0727 14.0747 17.7949L11.5268 29.9996C10.7962 30.4623 10.2954 31.2588 10.2445 32.1818C10.2442 32.1873 10.2439 32.1929 10.2437 32.1984L9.92552 41.0027C9.90806 41.4879 10.287 41.8953 10.7722 41.9128C11.2542 41.9301 11.6646 41.5513 11.6823 41.0662L12.0001 32.2714C12.0329 31.7427 12.4718 31.3296 13.0024 31.3296H19.7276C20.2579 31.3296 20.6968 31.7427 20.7299 32.2714L21.4727 52.8272C21.4729 52.8327 21.4732 52.8383 21.4735 52.8439C21.5518 54.2619 21.0573 55.611 20.0811 56.6426C19.1049 57.674 17.7852 58.2422 16.365 58.2422C14.9449 58.2422 13.6251 57.674 12.649 56.6426C11.6728 55.6111 11.1783 54.262 11.2565 52.8439C11.2569 52.8383 11.2571 52.8328 11.2574 52.8272L11.533 45.2025C11.5504 44.7173 11.1715 44.3099 10.6863 44.2924C10.2045 44.2735 9.79392 44.6538 9.77623 45.139L9.50095 52.7557C9.3983 54.6578 10.0626 56.4669 11.3722 57.8508C12.6837 59.2367 14.4568 60 16.3649 60C18.273 60 20.0462 59.2367 21.3576 57.8508C22.6672 56.4669 23.3315 54.6576 23.2289 52.7557L22.486 32.1985C22.4858 32.193 22.4856 32.1874 22.4852 32.1818C22.4577 31.6821 22.2981 31.2196 22.0418 30.8269L24.3746 19.6547C24.7578 19.5303 25.1265 19.3571 25.4678 19.1319C26.5175 18.439 27.236 17.3297 27.4388 16.0882L28.5649 9.19944C28.7678 7.95807 28.44 6.67756 27.6654 5.68651C26.8911 4.69545 25.7279 4.06779 24.4744 3.96467ZM5.13736 8.90623C4.99193 9.79557 4.14888 10.4011 3.26084 10.2554C2.37162 10.1101 1.76646 9.26834 1.91166 8.37912C2.04256 7.57861 2.73748 7.00838 3.52345 7.00838C3.61076 7.00838 3.69924 7.01541 3.78806 7.02994C4.67752 7.17537 5.28267 8.01713 5.13736 8.90623ZM13.4119 29.572L15.7776 18.2388L21.8944 19.7482C22.1067 19.8006 22.3215 19.8351 22.537 19.856L20.486 29.6783C20.2446 29.6094 19.9903 29.572 19.7276 29.572H13.4119ZM26.8304 8.91596L25.7044 15.8047C25.5785 16.5745 25.1505 17.2352 24.4997 17.6649C23.8485 18.0947 23.0726 18.2284 22.3155 18.0415L14.9263 16.2181C13.5375 15.8755 12.6306 14.5015 12.8613 13.0898L13.7914 7.40002C14.01 6.06291 15.1855 5.08287 16.5206 5.08287C16.5949 5.08287 16.6698 5.08592 16.745 5.09213L24.3303 5.71662C25.1078 5.78061 25.8003 6.15444 26.2808 6.76897C26.7609 7.38362 26.9562 8.14615 26.8304 8.91596Z" fill="black"/>
</g>
<defs>
<clipPath id="clip0_295_5986">
<rect width="60" height="60" fill="white"/>
</clipPath>
</defs>
</svg>
