<svg width="24" height="24" viewBox="0 0 24 24" fill="none" xmlns="http://www.w3.org/2000/svg">
<g clip-path="url(#clip0_1258_1214)">
<path fill-rule="evenodd" clip-rule="evenodd" d="M12.5841 17.3952H3.52662C2.61313 17.3952 1.86572 16.6477 1.86572 15.7343V1.6609C1.86572 0.747405 2.61313 0 3.52662 0H14.6602C15.5737 0 16.3155 0.747405 16.3155 1.6609V10.5633C16.3155 10.6353 16.2934 10.7017 16.2491 10.7626C15.9778 11.1003 15.773 11.3772 15.6069 11.6042C15.0976 12.2907 14.865 12.6007 14.256 12.6007C14.0401 12.6007 13.7744 12.5619 13.4145 12.5121C13.2318 12.4844 13.0159 12.4512 12.7723 12.418C12.8 12.6671 12.8332 12.883 12.8609 13.0657C13.0547 14.3557 12.9993 14.4775 11.9529 15.2581C11.8034 15.3689 11.6318 15.4962 11.4325 15.6457C11.6318 15.8007 11.8034 15.928 11.9529 16.0388C12.4567 16.4152 12.7225 16.609 12.8553 16.908C12.8886 16.9578 12.9052 17.0131 12.9052 17.074C12.9052 17.2512 12.7612 17.3952 12.5841 17.3952Z" fill="#000D44"/>
<path fill-rule="evenodd" clip-rule="evenodd" d="M12.2074 2.68518H5.97907C5.8019 2.68518 5.65796 2.54124 5.65796 2.36408C5.65796 2.18691 5.8019 2.04297 5.97907 2.04297H12.2074C12.3846 2.04297 12.5285 2.18691 12.5285 2.36408C12.5285 2.54124 12.3846 2.68518 12.2074 2.68518Z" fill="#3B566A"/>
<path fill-rule="evenodd" clip-rule="evenodd" d="M14.0179 4.79439H4.16876C3.9916 4.79439 3.84766 4.65045 3.84766 4.47329C3.84766 4.30166 3.9916 4.15771 4.16876 4.15771H14.0179C14.1951 4.15771 14.339 4.30166 14.339 4.47329C14.339 4.65045 14.1951 4.79439 14.0179 4.79439Z" fill="#3B566A"/>
<path fill-rule="evenodd" clip-rule="evenodd" d="M14.0179 6.90377H4.16876C3.9916 6.90377 3.84766 6.76536 3.84766 6.5882C3.84766 6.41103 3.9916 6.26709 4.16876 6.26709H14.0179C14.1951 6.26709 14.339 6.41103 14.339 6.5882C14.339 6.76536 14.1951 6.90377 14.0179 6.90377Z" fill="#3B566A"/>
<path fill-rule="evenodd" clip-rule="evenodd" d="M14.0179 9.01868H4.16876C3.9916 9.01868 3.84766 8.87473 3.84766 8.69757C3.84766 8.52041 3.9916 8.37646 4.16876 8.37646H14.0179C14.1951 8.37646 14.339 8.52041 14.339 8.69757C14.339 8.87473 14.1951 9.01868 14.0179 9.01868Z" fill="#3B566A"/>
<path fill-rule="evenodd" clip-rule="evenodd" d="M14.0179 11.1279H4.16876C3.9916 11.1279 3.84766 10.9839 3.84766 10.8068C3.84766 10.6296 3.9916 10.4912 4.16876 10.4912H14.0179C14.1951 10.4912 14.339 10.6296 14.339 10.8068C14.339 10.9839 14.1951 11.1279 14.0179 11.1279Z" fill="#3B566A"/>
<path fill-rule="evenodd" clip-rule="evenodd" d="M10.1037 13.2373H4.16876C3.9916 13.2373 3.84766 13.0989 3.84766 12.9217C3.84766 12.7445 3.9916 12.6006 4.16876 12.6006H10.1037C10.2809 12.6006 10.4248 12.7445 10.4248 12.9217C10.4248 13.0989 10.2809 13.2373 10.1037 13.2373Z" fill="#3B566A"/>
<path fill-rule="evenodd" clip-rule="evenodd" d="M8.59229 15.3522H4.16876C3.9916 15.3522 3.84766 15.2082 3.84766 15.0311C3.84766 14.8539 3.9916 14.71 4.16876 14.71H8.59229C8.76946 14.71 8.9134 14.8539 8.9134 15.0311C8.9134 15.2082 8.76946 15.3522 8.59229 15.3522Z" fill="#3B566A"/>
<path fill-rule="evenodd" clip-rule="evenodd" d="M19.9141 23.9891C19.8144 23.9891 19.7148 23.9503 19.6373 23.8728L16.1604 20.396C16.022 20.2576 16.0054 20.0361 16.1217 19.8811L16.321 19.6154C16.8414 18.9123 17.0795 18.5967 17.7217 18.5967C17.9431 18.5967 18.2033 18.6299 18.5632 18.6853C18.7404 18.7129 18.9452 18.7406 19.1777 18.7738C19.2663 18.7849 19.3438 18.8237 19.4047 18.8846L22.0123 21.4922C22.1341 21.614 22.1618 21.7911 22.0899 21.9462C22.0179 22.0956 21.8573 22.1842 21.6912 22.1676L20.0746 21.9794L20.2961 23.4742C20.3072 23.5129 20.3127 23.5517 20.3127 23.596C20.3127 23.8119 20.1355 23.9891 19.9196 23.9891C19.9196 23.9891 19.9196 23.9891 19.9141 23.9891Z" fill="#000D44"/>
<path fill-rule="evenodd" clip-rule="evenodd" d="M12.0803 23.9891C12.0194 23.9891 11.9585 23.9725 11.9032 23.9448C11.7537 23.8673 11.6651 23.7012 11.6928 23.5351L11.9253 21.9794L10.3087 22.1676C10.1371 22.1842 9.97654 22.0956 9.90457 21.9462C9.8326 21.7911 9.86582 21.614 9.98208 21.4922L12.5897 18.8846C12.6506 18.8237 12.7336 18.7849 12.8167 18.7738C13.0547 18.7406 13.2596 18.7129 13.4368 18.6853C13.7966 18.6299 14.0568 18.5967 14.2783 18.5967C14.9205 18.5967 15.1585 18.9123 15.679 19.6154L15.8727 19.8811C15.9945 20.0361 15.9779 20.2576 15.8395 20.396L12.3627 23.8728C12.2852 23.9503 12.1855 23.9891 12.0803 23.9891Z" fill="#000D44"/>
<path fill-rule="evenodd" clip-rule="evenodd" d="M15.917 15.4794H12.645V12.1299H16.3987C16.4042 12.2461 16.4097 12.3679 16.4097 12.4842V14.9866C16.4097 15.2579 16.1883 15.4794 15.917 15.4794Z" fill="#FFC39C"/>
<path fill-rule="evenodd" clip-rule="evenodd" d="M16 21.0825C15.8782 21.0825 15.7619 21.0271 15.6899 20.933C15.4187 20.5897 15.2083 20.3074 15.0422 20.0859C14.5384 19.405 14.4996 19.3828 14.2782 19.3828C14.1176 19.3828 13.8796 19.416 13.5529 19.4659C13.2761 19.5102 12.9329 19.56 12.4955 19.6098C12.3737 19.6209 12.2574 19.5821 12.1688 19.4936C12.0858 19.4105 12.0415 19.2942 12.0581 19.1724C12.1079 18.7351 12.1578 18.3918 12.2021 18.115C12.2685 17.6389 12.3128 17.351 12.2574 17.2181C12.2021 17.0853 11.9695 16.9136 11.582 16.6257C11.3605 16.4596 11.0782 16.2493 10.7349 15.978C10.6408 15.9005 10.5854 15.7897 10.5854 15.668C10.5854 15.5462 10.6408 15.4354 10.7349 15.3579C11.0782 15.0866 11.3605 14.8763 11.582 14.7102C11.9695 14.4223 12.2021 14.2506 12.2574 14.1178C12.3128 13.9849 12.2685 13.697 12.2021 13.2209C12.1578 12.9441 12.1079 12.6008 12.0581 12.1635C12.0415 12.0417 12.0858 11.9254 12.1688 11.8423C12.2574 11.7538 12.3737 11.715 12.4955 11.7261C12.9329 11.7759 13.2761 11.8313 13.5529 11.87C13.8796 11.9199 14.1176 11.9531 14.2782 11.9531C14.4996 11.9531 14.5384 11.9309 15.0422 11.25C15.2083 11.0285 15.4187 10.7462 15.6899 10.4029C15.7619 10.3088 15.8782 10.2534 16 10.2534C16.1218 10.2534 16.2325 10.3088 16.31 10.4029C16.5813 10.7462 16.7861 11.0285 16.9522 11.25C17.456 11.9309 17.5003 11.9531 17.7218 11.9531C17.8823 11.9531 18.1204 11.9199 18.447 11.87C18.7239 11.8313 19.0671 11.7759 19.5045 11.7261C19.6207 11.715 19.7425 11.7538 19.8256 11.8423C19.9142 11.9254 19.9529 12.0472 19.9418 12.1635C19.892 12.6008 19.8367 12.9441 19.7979 13.2209C19.7259 13.697 19.6816 13.9849 19.737 14.1178C19.7924 14.2506 20.0249 14.4223 20.4124 14.7102C20.6394 14.8763 20.9218 15.0866 21.265 15.3579C21.3592 15.4354 21.4145 15.5462 21.4145 15.668C21.4145 15.7897 21.3592 15.9005 21.265 15.978C20.9218 16.2493 20.6394 16.4596 20.4124 16.6257C20.0249 16.9136 19.7924 17.0853 19.737 17.2181C19.6816 17.351 19.7259 17.6389 19.7979 18.115C19.8367 18.3918 19.892 18.7351 19.9418 19.1724C19.9529 19.2942 19.9142 19.4105 19.8256 19.4991C19.7425 19.5821 19.6207 19.6209 19.5045 19.6098C19.0671 19.56 18.7239 19.5102 18.447 19.4659C18.1204 19.416 17.8823 19.3828 17.7218 19.3828C17.5003 19.3828 17.456 19.405 16.9578 20.0859C16.7861 20.3074 16.5813 20.5897 16.31 20.933C16.2325 21.0271 16.1218 21.0825 16 21.0825Z" fill="#04CE78"/>
<path fill-rule="evenodd" clip-rule="evenodd" d="M16 18.4747C14.4499 18.4747 13.1931 17.2179 13.1931 15.6678C13.1931 14.1176 14.4499 12.8608 16 12.8608C17.5447 12.8608 18.807 14.1176 18.807 15.6678C18.807 17.2179 17.5447 18.4747 16 18.4747Z" fill="#F5F5F5"/>
<path fill-rule="evenodd" clip-rule="evenodd" d="M15.5736 16.814C15.474 16.814 15.3688 16.7753 15.2968 16.6978L14.638 16.0389C14.483 15.8839 14.483 15.6348 14.638 15.4798C14.793 15.3303 15.0421 15.3247 15.1972 15.4798L15.5792 15.8618L16.8027 14.6382C16.9577 14.4832 17.2068 14.4832 17.3619 14.6382C17.5169 14.7877 17.5169 15.0424 17.3619 15.1919L15.856 16.6978C15.7785 16.7753 15.6788 16.814 15.5736 16.814Z" fill="#04CE78"/>
</g>
<defs>
<clipPath id="clip0_1258_1214">
<rect width="24" height="24" fill="white"/>
</clipPath>
</defs>
</svg>
