<svg width="24" height="24" viewBox="0 0 24 24" fill="none" xmlns="http://www.w3.org/2000/svg">
<path d="M9.00839 19.3408C8.96579 19.3122 8.91595 19.2964 8.86467 19.295C8.81339 19.2937 8.76279 19.3069 8.71875 19.3332V20.0082C8.79199 20.0251 8.86867 20.0185 8.93798 19.9895C8.99979 19.9641 9.05362 19.9225 9.09377 19.8691C9.13392 19.8157 9.15891 19.7525 9.16611 19.6861C9.17331 19.6197 9.16245 19.5525 9.13468 19.4918C9.1069 19.431 9.06324 19.3789 9.0083 19.3409L9.00839 19.3408Z" fill="#000D44"/>
<path d="M7.74431 15.9293C7.47844 15.7746 7.15561 15.8037 6.78337 16.0155L6.77466 16.0212C6.16308 16.3692 5.36072 16.8262 4.11061 16.3269C3.69689 16.7993 3.21998 16.957 2.7825 16.957C2.71416 16.9576 2.64586 16.9534 2.57813 16.9443V20.4974C2.57812 20.8699 2.65148 21.2386 2.794 21.5827C2.93652 21.9268 3.14541 22.2394 3.40875 22.5027C3.67209 22.7661 3.98472 22.975 4.3288 23.1175C4.67287 23.26 5.04164 23.3334 5.41406 23.3334C5.78648 23.3334 6.15526 23.26 6.49933 23.1175C6.8434 22.975 7.15603 22.7661 7.41937 22.5027C7.68271 22.2394 7.89161 21.9268 8.03413 21.5827C8.17665 21.2386 8.25 20.8699 8.25 20.4974V17.8127H8.25881C8.2101 17.427 8.18713 17.0384 8.19005 16.6497C8.19 16.4591 8.04839 16.1065 7.74431 15.9293ZM3.98625 18.9012C3.90749 18.9012 3.83198 18.9326 3.77629 18.9883C3.72059 19.0439 3.68926 19.1194 3.68916 19.1982C3.68916 19.2604 3.66446 19.32 3.62051 19.3639C3.57656 19.4079 3.51694 19.4326 3.45478 19.4326C3.39262 19.4326 3.33301 19.4079 3.28905 19.3639C3.2451 19.32 3.22041 19.2604 3.22041 19.1982C3.22199 18.9961 3.30337 18.8029 3.44682 18.6605C3.59026 18.5182 3.78415 18.4384 3.98623 18.4384C4.1883 18.4384 4.38219 18.5182 4.52564 18.6605C4.66908 18.8029 4.75047 18.9961 4.75205 19.1982C4.75205 19.2604 4.72735 19.32 4.6834 19.3639C4.63945 19.4079 4.57983 19.4326 4.51767 19.4326C4.45551 19.4326 4.3959 19.4079 4.35194 19.3639C4.30799 19.32 4.2833 19.2604 4.2833 19.1982C4.28322 19.1194 4.2519 19.0439 4.19621 18.9882C4.14052 18.9325 4.06501 18.9012 3.98625 18.9011V18.9012ZM6.45516 21.3549C6.17599 21.6334 5.79777 21.7898 5.40345 21.7898C5.00912 21.7898 4.6309 21.6334 4.35173 21.3549C4.32981 21.3331 4.3124 21.3073 4.3005 21.2788C4.28859 21.2503 4.28243 21.2198 4.28236 21.1889C4.28229 21.1581 4.28832 21.1275 4.3001 21.099C4.31188 21.0704 4.32918 21.0445 4.35101 21.0227C4.37283 21.0009 4.39875 20.9836 4.42728 20.9718C4.45581 20.96 4.48638 20.954 4.51725 20.954C4.54811 20.9541 4.57866 20.9603 4.60714 20.9722C4.63561 20.9841 4.66146 21.0015 4.68319 21.0234C4.87437 21.2142 5.13339 21.3213 5.40345 21.3213C5.6735 21.3213 5.93252 21.2142 6.1237 21.0234C6.14543 21.0015 6.17128 20.9841 6.19975 20.9722C6.22823 20.9603 6.25878 20.9541 6.28964 20.954C6.32051 20.954 6.35108 20.96 6.37961 20.9718C6.40814 20.9836 6.43406 21.0009 6.45588 21.0227C6.47771 21.0445 6.49501 21.0704 6.50679 21.099C6.51857 21.1275 6.5246 21.1581 6.52453 21.1889C6.52446 21.2198 6.5183 21.2503 6.50639 21.2788C6.49449 21.3073 6.47708 21.3331 6.45516 21.3549ZM7.35211 19.4326C7.28995 19.4326 7.23034 19.4079 7.18638 19.3639C7.14243 19.32 7.11773 19.2604 7.11773 19.1982C7.11773 19.1194 7.08643 19.0438 7.03072 18.9881C6.975 18.9324 6.89943 18.9011 6.82064 18.9011C6.74185 18.9011 6.66628 18.9324 6.61056 18.9881C6.55485 19.0438 6.52355 19.1194 6.52355 19.1982C6.52355 19.2604 6.49885 19.32 6.4549 19.3639C6.41095 19.4079 6.35133 19.4326 6.28917 19.4326C6.22701 19.4326 6.1674 19.4079 6.12344 19.3639C6.07949 19.32 6.0548 19.2604 6.0548 19.1982C6.0548 18.9951 6.13548 18.8003 6.27911 18.6567C6.42273 18.513 6.61753 18.4324 6.82064 18.4324C7.02376 18.4324 7.21855 18.513 7.36217 18.6567C7.5058 18.8003 7.58648 18.9951 7.58648 19.1982C7.58647 19.2604 7.56177 19.32 7.51782 19.3639C7.47387 19.4078 7.41426 19.4325 7.35211 19.4325V19.4326Z" fill="#04CE78"/>
<path d="M1.64109 19.5949C1.63081 19.677 1.648 19.7603 1.68999 19.8316C1.73198 19.903 1.7964 19.9584 1.87321 19.9893C1.94836 20.019 2.03079 20.025 2.10946 20.0066V19.3369C2.06358 19.3088 2.01069 19.2943 1.9569 19.2949C1.9031 19.2956 1.85059 19.3115 1.80543 19.3407C1.76208 19.3696 1.72513 19.407 1.69686 19.4507C1.66859 19.4945 1.6496 19.5435 1.64109 19.5949Z" fill="#000D44"/>
<path d="M21.9844 19.3332V20.0082C22.0552 20.0231 22.1289 20.0166 22.196 19.9894C22.2578 19.9641 22.3117 19.9225 22.3518 19.8691C22.392 19.8157 22.417 19.7525 22.4242 19.686C22.4314 19.6196 22.4205 19.5525 22.3927 19.4917C22.365 19.431 22.3213 19.3788 22.2663 19.3408C22.2252 19.3123 22.1766 19.2964 22.1265 19.295C22.0764 19.2937 22.027 19.3069 21.9844 19.3332Z" fill="#000D44"/>
<path d="M19.3108 16.9277C18.8577 17.3619 18.3475 17.732 17.7942 18.0279C17.1591 18.3673 16.4895 18.6376 15.7969 18.8342V20.4968C15.7969 22.0663 17.0867 23.3431 18.6562 23.3431C20.2258 23.3431 21.5156 22.0663 21.5156 20.4968V18.939C21.0469 18.7509 20.6378 18.4681 20.2448 18.0915C19.8856 17.7445 19.5718 17.3535 19.3108 16.9277ZM17.2367 19.1555C17.0888 19.1555 16.9396 19.2343 16.9396 19.4101C16.9396 19.4723 16.9149 19.5319 16.871 19.5759C16.827 19.6198 16.7674 19.6445 16.7053 19.6445C16.6431 19.6445 16.5835 19.6198 16.5395 19.5759C16.4956 19.5319 16.4709 19.4723 16.4709 19.4101C16.4709 18.9976 16.8001 18.6868 17.2367 18.6868C17.6733 18.6868 18.0025 18.9978 18.0025 19.4101C18.0025 19.4723 17.9778 19.5319 17.9339 19.5759C17.8899 19.6198 17.8303 19.6445 17.7682 19.6445C17.706 19.6445 17.6464 19.6198 17.6024 19.5759C17.5585 19.5319 17.5338 19.4723 17.5338 19.4101C17.5338 19.2343 17.3846 19.1555 17.2367 19.1555ZM19.7056 21.3545C19.4265 21.633 19.0483 21.7894 18.6539 21.7894C18.2596 21.7894 17.8814 21.633 17.6022 21.3545C17.5803 21.3327 17.5629 21.3069 17.551 21.2784C17.5391 21.2499 17.5329 21.2194 17.5328 21.1885C17.5328 21.1577 17.5388 21.1271 17.5506 21.0986C17.5624 21.07 17.5797 21.0441 17.6015 21.0223C17.6233 21.0005 17.6492 20.9832 17.6778 20.9714C17.7063 20.9596 17.7369 20.9536 17.7677 20.9536C17.7986 20.9537 17.8291 20.9599 17.8576 20.9718C17.8861 20.9837 17.9119 21.0011 17.9337 21.023C18.1249 21.2137 18.3839 21.3209 18.6539 21.3209C18.924 21.3209 19.183 21.2137 19.3742 21.023C19.3959 21.0011 19.4218 20.9837 19.4502 20.9718C19.4787 20.9599 19.5093 20.9537 19.5401 20.9536C19.571 20.9536 19.6016 20.9596 19.6301 20.9714C19.6586 20.9832 19.6845 21.0005 19.7064 21.0223C19.7282 21.0441 19.7455 21.07 19.7573 21.0986C19.7691 21.1271 19.7751 21.1577 19.775 21.1885C19.7749 21.2194 19.7688 21.2499 19.7569 21.2784C19.745 21.3069 19.7276 21.3327 19.7056 21.3545ZM20.837 19.4101C20.837 19.4723 20.8123 19.5319 20.7683 19.5759C20.7244 19.6198 20.6648 19.6445 20.6026 19.6445C20.5404 19.6445 20.4808 19.6198 20.4369 19.5759C20.3929 19.5319 20.3682 19.4723 20.3682 19.4101C20.3682 19.2343 20.219 19.1555 20.0711 19.1555C19.9232 19.1555 19.774 19.2343 19.774 19.4101C19.774 19.4723 19.7493 19.5319 19.7054 19.5759C19.6614 19.6198 19.6018 19.6445 19.5397 19.6445C19.4775 19.6445 19.4179 19.6198 19.3739 19.5759C19.33 19.5319 19.3053 19.4723 19.3053 19.4101C19.3053 18.9976 19.6345 18.6868 20.0711 18.6868C20.5077 18.6868 20.837 18.9978 20.837 19.4101Z" fill="#04CE78"/>
<path d="M14.8834 19.5949C14.8743 19.654 14.8798 19.7144 14.8995 19.7709C14.9192 19.8274 14.9525 19.8782 14.9964 19.9188C15.0402 19.9595 15.0934 19.9887 15.1513 20.004C15.2091 20.0193 15.2698 20.0202 15.328 20.0066V19.3369C15.2843 19.3089 15.2333 19.2943 15.1814 19.2949C15.1294 19.2956 15.0788 19.3115 15.0359 19.3407C14.9941 19.3701 14.9589 19.4079 14.9327 19.4516C14.9064 19.4954 14.8896 19.5442 14.8834 19.5949Z" fill="#000D44"/>
<path d="M2.10937 16.833C1.9801 16.788 1.85586 16.7296 1.73868 16.6588C1.68512 16.6266 1.64642 16.5746 1.63097 16.514C1.61552 16.4535 1.62456 16.3893 1.65613 16.3354C1.68941 16.283 1.74207 16.246 1.80259 16.2324C1.86311 16.2188 1.92655 16.2298 1.97901 16.2629C2.02096 16.2891 2.91651 16.833 3.65887 16.1162C3.5818 16.0745 3.50366 16.0305 3.42346 15.9817C3.37036 15.9494 3.33228 15.8973 3.31759 15.8369C3.3029 15.7765 3.31281 15.7127 3.34513 15.6596C3.37745 15.6065 3.42955 15.5684 3.48995 15.5537C3.55035 15.5391 3.61411 15.549 3.66721 15.5813C5.08283 16.4429 5.85707 16.0023 6.54018 15.6136L6.55026 15.6079C7.20763 15.2339 7.69026 15.3558 7.97933 15.5239C8.42521 15.7832 8.65846 16.2921 8.65846 16.6609C8.65333 17.1235 8.68896 17.5856 8.76491 18.0419C8.96432 17.7967 9.12314 17.5211 9.2353 17.2256L9.44502 16.6713C9.46558 16.6169 9.47306 16.5585 9.46687 16.5007C9.46067 16.443 9.44096 16.3875 9.40934 16.3387C9.37772 16.29 9.33508 16.2493 9.28485 16.2201C9.23462 16.1909 9.17823 16.1739 9.12022 16.1705L8.82655 16.1534C8.78961 16.1512 8.7537 16.1404 8.72176 16.1217C8.68983 16.103 8.66278 16.077 8.64282 16.0458C8.62286 16.0146 8.61057 15.9792 8.60695 15.9423C8.60333 15.9055 8.60849 15.8683 8.62199 15.8339C8.66094 15.7345 8.67717 15.6276 8.66948 15.5211C8.66179 15.4146 8.63037 15.3112 8.57754 15.2184C8.52471 15.1256 8.4518 15.0458 8.36414 14.9849C8.27648 14.9239 8.1763 14.8833 8.07093 14.8661L7.97212 14.8499C7.92062 14.8415 7.87341 14.8161 7.83796 14.7778L7.40057 14.3056C7.23578 14.1283 7.01465 14.0135 6.7748 13.9808C6.53494 13.9481 6.29115 13.9994 6.08488 14.1261C6.04945 14.1463 6.00937 14.1569 5.96859 14.1569C5.92782 14.1568 5.88776 14.1461 5.85238 14.1259L5.7478 14.0624H5.81249V12.5812C5.81548 12.4769 5.85856 12.3778 5.93277 12.3044C6.00698 12.2311 6.10661 12.1892 6.21093 12.1874H17.7891C17.8934 12.1892 17.993 12.2311 18.0672 12.3044C18.1414 12.3778 18.1845 12.4769 18.1875 12.5812V13.7343H18.2094C17.5088 13.8728 16.8695 14.2281 16.3821 14.7501C15.8946 15.2721 15.5838 15.9342 15.4935 16.6427C15.7736 16.5779 16.0493 16.4954 16.3189 16.3955C16.3475 16.3844 16.378 16.3792 16.4087 16.3801C16.4394 16.3809 16.4695 16.3879 16.4975 16.4005C16.5255 16.413 16.5507 16.4311 16.5717 16.4534C16.5926 16.4758 16.6089 16.5022 16.6197 16.5309C16.6304 16.5596 16.6354 16.5902 16.6342 16.6209C16.6331 16.6515 16.6258 16.6816 16.613 16.7095C16.6001 16.7373 16.5819 16.7624 16.5593 16.7831C16.5367 16.8039 16.5102 16.8199 16.4814 16.8304C16.1505 16.9486 15.8123 17.0451 15.4689 17.1192V18.4429C16.0783 18.2732 16.8506 18.013 17.5763 17.6166C18.8075 16.9441 19.6497 16.0546 20.0822 14.9728C20.1053 14.9151 20.1504 14.8689 20.2075 14.8444C20.2647 14.82 20.3292 14.8192 20.3869 14.8422C20.4446 14.8653 20.4908 14.9104 20.5153 14.9675C20.5398 15.0247 20.5406 15.0892 20.5175 15.1469C20.3087 15.6671 20.0147 16.1489 19.6477 16.5725C20.5218 18.1089 21.6486 18.5597 22.2868 18.69L22.286 17.0553C22.2844 16.3018 22.0338 15.57 21.5731 14.9737C21.1125 14.3775 20.4676 13.9502 19.739 13.7585C19.7363 13.7762 19.7316 13.7936 19.7249 13.8103C19.2468 14.9822 18.4127 15.8847 17.2463 16.4928C17.219 16.507 17.1892 16.5158 17.1585 16.5185C17.1278 16.5212 17.0969 16.5178 17.0676 16.5085C17.0382 16.4993 17.011 16.4844 16.9874 16.4646C16.9638 16.4448 16.9443 16.4206 16.9301 16.3933C16.9159 16.366 16.9071 16.3362 16.9044 16.3055C16.9017 16.2749 16.9051 16.244 16.9144 16.2146C16.9236 16.1853 16.9385 16.158 16.9583 16.1344C16.9781 16.1108 17.0023 16.0914 17.0296 16.0771C18.0819 15.5287 18.8366 14.719 19.2743 13.6716C19.1445 13.6558 19.014 13.6478 18.8833 13.6475C18.8046 13.6475 18.7033 13.6512 18.6564 13.6565V12.5812C18.6533 12.3526 18.5608 12.1343 18.3986 11.9731C18.2365 11.8118 18.0177 11.7205 17.7891 11.7187H12.2344V10.1922C13.0914 10.1506 13.9201 9.87267 14.629 9.38924C15.3378 8.9058 15.8991 8.2357 16.2508 7.45306H16.4888C16.6853 7.45586 16.8728 7.53594 17.0107 7.67597C17.1486 7.816 17.2258 8.0047 17.2256 8.20123C17.2257 8.51596 17.3484 8.81828 17.5675 9.0442C17.7866 9.27011 18.0851 9.40191 18.3996 9.41168C18.4569 9.69928 18.619 9.95532 18.8545 10.13C19.0901 10.3048 19.3821 10.3857 19.6739 10.3571C19.9658 10.3285 20.2366 10.1924 20.4337 9.97526C20.6308 9.75814 20.7401 9.47549 20.7404 9.18225C20.7408 8.88901 20.632 8.60613 20.4354 8.38857C20.2388 8.17101 19.9683 8.03432 19.6766 8.00507C19.3848 7.97582 19.0925 8.05609 18.8567 8.23028C18.6208 8.40448 18.4581 8.66015 18.4002 8.94762C18.2094 8.93699 18.0299 8.85369 17.8986 8.71482C17.7673 8.57596 17.6942 8.39209 17.6943 8.201C17.6943 7.88023 17.5677 7.57244 17.3419 7.34459C17.1161 7.11673 16.8095 6.98725 16.4888 6.98431H16.4364C16.5536 6.65862 16.6279 6.31909 16.6576 5.97425C16.6652 5.8977 16.6707 5.81244 16.6745 5.76556H18.8842C18.9392 5.98922 19.0512 6.19484 19.2092 6.36242C19.3967 6.55088 19.6418 6.67118 19.9056 6.70413C20.1694 6.73709 20.4367 6.68081 20.6648 6.54427C20.8929 6.40773 21.0687 6.19877 21.1643 5.9507C21.2598 5.70262 21.2696 5.4297 21.1921 5.17542C21.1146 4.92113 20.9541 4.70011 20.7364 4.54757C20.5187 4.39503 20.2562 4.31975 19.9907 4.33371C19.7252 4.34767 19.4721 4.45008 19.2715 4.62462C19.071 4.79917 18.9347 5.03579 18.8842 5.29681H16.6744C16.6584 4.86525 16.5773 4.43857 16.434 4.03119H16.4888C16.809 4.0296 17.1155 3.90134 17.3414 3.67444C17.5673 3.44753 17.6942 3.14044 17.6943 2.82026C17.6945 2.6301 17.768 2.44733 17.8994 2.30991C18.0309 2.17249 18.2102 2.091 18.4002 2.08236C18.4432 2.29265 18.5424 2.48735 18.6872 2.64578C18.832 2.80421 19.0171 2.92046 19.2226 2.98216C19.4282 3.04386 19.6467 3.04871 19.8548 2.99621C20.0629 2.9437 20.253 2.83579 20.4047 2.68395C20.5357 2.55282 20.6343 2.39284 20.6924 2.21681C20.7506 2.04078 20.7667 1.85359 20.7395 1.6702C20.7124 1.48681 20.6427 1.31233 20.536 1.1607C20.4294 1.00908 20.2887 0.884516 20.1253 0.79699C19.9619 0.709463 19.7802 0.661399 19.5949 0.656641C19.4096 0.651884 19.2257 0.690566 19.058 0.769593C18.8903 0.848619 18.7434 0.965797 18.6291 1.11175C18.5148 1.25771 18.4363 1.42839 18.3997 1.61014C18.0852 1.61987 17.7868 1.7516 17.5677 1.97746C17.3485 2.20331 17.2259 2.50557 17.2257 2.82026C17.2257 3.01618 17.1482 3.20415 17.0101 3.34318C16.8721 3.48221 16.6847 3.56102 16.4888 3.56244H16.2457C15.8707 2.75194 15.2716 2.06569 14.5191 1.58474C13.7667 1.10378 12.8923 0.848216 11.9992 0.848216C11.1062 0.848216 10.2318 1.10378 9.47933 1.58474C8.72686 2.06569 8.12774 2.75194 7.75274 3.56244H7.51119C7.3153 3.561 7.12791 3.48218 6.98989 3.34315C6.85188 3.20412 6.77442 3.01617 6.77441 2.82026C6.77412 2.50585 6.65136 2.20392 6.43217 1.9785C6.21299 1.75309 5.91461 1.62192 5.60033 1.61281C5.54274 1.32462 5.38009 1.06813 5.14397 0.89315C4.90784 0.718174 4.61511 0.63721 4.32264 0.665985C4.03016 0.69476 3.75882 0.83122 3.56133 1.04886C3.36384 1.26649 3.25429 1.54977 3.25396 1.84366C3.25364 2.13754 3.36256 2.42106 3.55957 2.63913C3.75659 2.85721 4.02762 2.99426 4.32003 3.02369C4.61245 3.05311 4.90535 2.97279 5.14186 2.79834C5.37837 2.62388 5.54159 2.36775 5.59982 2.07969C5.79005 2.08894 5.96943 2.171 6.10083 2.30887C6.23222 2.44674 6.30556 2.62986 6.30566 2.82031C6.30583 3.14048 6.43273 3.44756 6.65862 3.67445C6.88451 3.90135 7.19103 4.0296 7.51119 4.03119H7.56519C7.45158 4.36871 7.37681 4.71809 7.34235 5.07256C7.33508 5.14634 7.32969 5.20306 7.32585 5.29681H5.11574C5.0641 5.04078 4.9285 4.8093 4.73044 4.63904C4.53238 4.46878 4.28318 4.36946 4.0223 4.35683C3.76142 4.34419 3.50378 4.41896 3.29019 4.56928C3.07661 4.71961 2.91928 4.9369 2.84313 5.18674C2.76698 5.43657 2.77637 5.70468 2.86981 5.94858C2.96324 6.19248 3.13538 6.39823 3.35896 6.53325C3.58254 6.66827 3.84477 6.72484 4.10413 6.69399C4.36349 6.66314 4.60514 6.54663 4.7908 6.36294C4.94884 6.19518 5.06078 5.98938 5.11574 5.76556H7.32458C7.34274 6.18123 7.4223 6.59193 7.56069 6.98431H7.51119C7.19041 6.98726 6.88377 7.11678 6.658 7.34469C6.43223 7.57259 6.3056 7.88043 6.30566 8.20123C6.30557 8.39172 6.23224 8.57488 6.10085 8.7128C5.96946 8.85072 5.79008 8.93285 5.59982 8.94219C5.55377 8.71399 5.44078 8.5047 5.27526 8.34101C5.0878 8.15359 4.84311 8.03415 4.58003 8.00164C4.31695 7.96913 4.05055 8.02542 3.8231 8.16157C3.59566 8.29773 3.42021 8.50595 3.32459 8.75318C3.22897 9.00042 3.21866 9.27251 3.29531 9.52627C3.37195 9.78002 3.53115 10.0009 3.74765 10.1539C3.96414 10.3069 4.22552 10.3831 4.49031 10.3706C4.75509 10.3581 5.00811 10.2575 5.20921 10.0848C5.41031 9.91209 5.54797 9.67717 5.60033 9.41731C5.91547 9.40624 6.21401 9.27327 6.43303 9.04641C6.65204 8.81955 6.77444 8.51652 6.77441 8.20119C6.77419 8.00466 6.85139 7.81596 6.98929 7.67594C7.12719 7.53592 7.31469 7.45585 7.51119 7.45306H7.7473C7.911 7.82114 8.1245 8.16498 8.3818 8.47494C8.77026 8.95211 9.24944 9.34755 9.79164 9.63842C10.3338 9.92929 10.9283 10.1098 11.5407 10.1696C11.616 10.177 11.6909 10.1883 11.7657 10.192V11.7187H6.21093C5.98233 11.7206 5.76356 11.8119 5.60147 11.9731C5.43938 12.1343 5.34687 12.3526 5.34374 12.5812V13.9504C5.09862 13.9212 4.85123 13.9817 4.64722 14.1207C4.60116 14.1529 4.5447 14.1666 4.48902 14.1591L4.38088 14.1445C3.96089 14.089 3.53382 14.1576 3.15239 14.3419C2.77095 14.5263 2.45185 14.8183 2.23447 15.182C2.21918 15.2084 2.19873 15.2315 2.17435 15.2499C2.14997 15.2683 2.12215 15.2816 2.09254 15.2891C2.00164 15.307 1.9166 15.3472 1.84499 15.4059C1.77338 15.4647 1.71742 15.5403 1.6821 15.626C1.42565 16.1962 1.73437 17.3057 2.10937 18.1654V16.833ZM9.70494 6.42884C9.66616 6.42908 9.62792 6.41965 9.5937 6.40139C9.55948 6.38313 9.53035 6.35662 9.50896 6.32426L8.84633 5.31645C8.82288 5.28217 8.80949 5.24201 8.80767 5.20052C8.80586 5.15902 8.81571 5.11785 8.83609 5.08165C8.85647 5.04546 8.88658 5.0157 8.923 4.99573C8.95942 4.97577 9.0007 4.9664 9.04218 4.96869H9.5166C9.62171 4.37107 9.93204 3.82886 10.3941 3.43554C10.8582 3.03772 11.4449 2.79987 12.0042 2.79987C12.7682 2.79987 13.5448 3.21237 14.0304 3.87537C14.0488 3.9002 14.0622 3.92842 14.0697 3.95841C14.0772 3.9884 14.0788 4.01958 14.0742 4.05017C14.0697 4.08076 14.0592 4.11016 14.0433 4.13669C14.0274 4.16322 14.0065 4.18636 13.9817 4.20479C13.9568 4.22322 13.9286 4.23658 13.8986 4.2441C13.8686 4.25163 13.8374 4.25317 13.8069 4.24865C13.7763 4.24412 13.7469 4.23362 13.7203 4.21773C13.6938 4.20185 13.6707 4.18089 13.6522 4.15606C13.2593 3.61958 12.6124 3.278 12.0042 3.278C11.1837 3.278 10.2305 3.89056 9.99472 4.96869H10.3676C10.4091 4.96639 10.4504 4.97577 10.4869 4.99576C10.5233 5.01574 10.5535 5.04554 10.5739 5.08178C10.5943 5.11801 10.6041 5.15923 10.6023 5.20078C10.6005 5.24232 10.5871 5.28252 10.5636 5.31683L9.90093 6.32244C9.87963 6.35502 9.85057 6.3818 9.81637 6.40037C9.78216 6.41895 9.74387 6.42873 9.70494 6.42884ZM13.0706 5.51375C13.0706 5.72553 13.0078 5.93256 12.8901 6.10865C12.7724 6.28474 12.6052 6.42199 12.4095 6.50302C12.2139 6.58406 11.9986 6.60526 11.7908 6.56393C11.5831 6.52259 11.3923 6.42059 11.2426 6.27083C11.0928 6.12106 10.9909 5.93025 10.9496 5.72253C10.9083 5.51481 10.9295 5.29951 11.0106 5.10385C11.0917 4.9082 11.2289 4.74098 11.4051 4.62335C11.5812 4.50571 11.7882 4.44295 12 4.44298C12.2839 4.4433 12.556 4.55622 12.7568 4.75696C12.9575 4.9577 13.0702 5.22986 13.0706 5.51375ZM9.96922 7.15437C9.95121 7.12954 9.93827 7.1014 9.93113 7.07157C9.92399 7.04173 9.9228 7.01079 9.92762 6.98049C9.93245 6.9502 9.94319 6.92115 9.95924 6.895C9.97529 6.86886 9.99633 6.84613 10.0212 6.82812C10.046 6.81011 10.0741 6.79717 10.104 6.79003C10.1338 6.78289 10.1647 6.7817 10.195 6.78652C10.2253 6.79135 10.2544 6.80209 10.2805 6.81814C10.3067 6.83419 10.3294 6.85523 10.3474 6.88006C10.7404 7.41654 11.3872 7.76698 11.9955 7.76698C12.8161 7.76698 13.7693 7.12479 14.0051 6.09354H13.6322C13.5894 6.09208 13.5477 6.07924 13.5114 6.05633C13.4752 6.03342 13.4457 6.00127 13.426 5.96319C13.4059 5.92471 13.3962 5.88162 13.398 5.83823C13.3998 5.79485 13.413 5.7527 13.4362 5.71601L14.0988 4.70562C14.1201 4.67311 14.1492 4.64641 14.1834 4.62793C14.2176 4.60946 14.2559 4.59978 14.2948 4.59978C14.3337 4.59978 14.372 4.60946 14.4062 4.62793C14.4404 4.64641 14.4695 4.67311 14.4908 4.70562L15.1534 5.71597C15.1766 5.75268 15.1898 5.79484 15.1916 5.83823C15.1934 5.88163 15.1837 5.92473 15.1636 5.96323C15.144 6.00127 15.1145 6.0334 15.0784 6.05632C15.0422 6.07925 15.0006 6.09214 14.9578 6.09369H14.4832C14.3667 6.68231 14.0581 7.2156 13.6057 7.6099C13.1417 8.00773 12.5549 8.22865 11.9957 8.22865C11.2315 8.22884 10.4549 7.81737 9.96922 7.15437Z" fill="#000D44"/>
<path d="M11.3979 5.51364C11.3979 5.6327 11.4333 5.7491 11.4994 5.8481C11.5656 5.9471 11.6596 6.02426 11.7696 6.06983C11.8796 6.11539 12.0006 6.12731 12.1174 6.10408C12.2342 6.08086 12.3415 6.02352 12.4257 5.93933C12.5098 5.85513 12.5672 5.74786 12.5904 5.63108C12.6136 5.5143 12.6017 5.39326 12.5562 5.28326C12.5106 5.17325 12.4334 5.07923 12.3344 5.01308C12.2354 4.94693 12.119 4.91162 12 4.91162C11.8404 4.91181 11.6873 4.97529 11.5745 5.08815C11.4616 5.20101 11.3981 5.35403 11.3979 5.51364Z" fill="#000D44"/>
<path d="M14.2951 5.27637L14.0664 5.62498H14.5237L14.2951 5.27637Z" fill="#000D44"/>
<path d="M9.70493 5.78611L9.93358 5.4375H9.47632L9.70493 5.78611Z" fill="#000D44"/>
<path d="M7.04272 12.75C6.98056 12.75 6.92095 12.7747 6.877 12.8186C6.83304 12.8626 6.80835 12.9222 6.80835 12.9844C6.80835 13.0465 6.83304 13.1061 6.877 13.1501C6.92095 13.1941 6.98056 13.2188 7.04272 13.2188H7.2809C7.34306 13.2188 7.40267 13.1941 7.44663 13.1501C7.49058 13.1061 7.51527 13.0465 7.51527 12.9844C7.51527 12.9222 7.49058 12.8626 7.44663 12.8186C7.40267 12.7747 7.34306 12.75 7.2809 12.75H7.04272Z" fill="#000D44"/>
<path d="M8.21118 12.75C8.14902 12.75 8.08941 12.7747 8.04545 12.8186C8.0015 12.8626 7.97681 12.9222 7.97681 12.9844C7.97681 13.0465 8.0015 13.1061 8.04545 13.1501C8.08941 13.1941 8.14902 13.2188 8.21118 13.2188H10.4794C10.5415 13.2188 10.6011 13.1941 10.6451 13.1501C10.6891 13.1061 10.7137 13.0465 10.7137 12.9844C10.7137 12.9222 10.6891 12.8626 10.6451 12.8186C10.6011 12.7747 10.5415 12.75 10.4794 12.75H8.21118Z" fill="#000D44"/>
</svg>
