<svg width="60" height="60" viewBox="0 0 60 60" fill="none" xmlns="http://www.w3.org/2000/svg">
<path d="M28.0591 44.5588C28.0591 44.9118 28.412 45.2647 28.765 45.2647C29.1179 45.2647 29.4708 45 29.4708 44.5588C29.4708 44.1177 29.1179 43.853 28.765 43.853C28.3238 43.853 28.0591 44.2059 28.0591 44.5588Z" fill="#000D44"/>
<path d="M24.7944 22.853C25.5886 22.853 26.2944 22.1471 26.2944 21.353C26.2944 20.5588 25.5886 19.853 24.7944 19.853C24.0003 19.853 23.2944 20.5588 23.2944 21.353C23.2944 22.1471 23.9121 22.853 24.7944 22.853Z" fill="#000D44"/>
<path d="M15.0884 22.853C15.8825 22.853 16.5884 22.1471 16.5884 21.353C16.5884 20.5588 15.8825 19.853 15.0884 19.853C14.2943 19.853 13.5884 20.5588 13.5884 21.353C13.5884 22.1471 14.2943 22.853 15.0884 22.853Z" fill="#000D44"/>
<path d="M17.5591 28.2353C18.265 28.6765 19.0591 28.8529 19.8533 28.8529C20.6474 28.8529 21.4415 28.6765 22.2356 28.2353C22.6768 27.9706 22.8533 27.4412 22.6768 27.0882C22.4121 26.647 21.8827 26.4706 21.5297 26.647C20.3827 27.1765 19.4121 27.2647 18.5297 26.647C18.0886 26.3823 17.5591 26.5588 17.2944 26.9117C17.0297 27.4412 17.2062 27.9706 17.5591 28.2353Z" fill="#000D44"/>
<path d="M19.9414 25.0588C20.4708 25.0588 20.8238 24.6177 20.8238 24.1765V22.4118C20.8238 21.9706 20.4708 21.5294 19.9414 21.5294C19.5003 21.5294 19.0591 21.9706 19.0591 22.4118V24.1765C19.0591 24.7059 19.5003 25.0588 19.9414 25.0588Z" fill="#000D44"/>
<path d="M54.5296 28.2353H52.0591V27.5294C52.0591 27 51.6179 26.6471 51.1767 26.6471H41.2061C40.6767 26.6471 40.3238 27.0882 40.3238 27.5294V28.2353H37.8532C35.912 28.2353 34.3238 29.8235 34.3238 31.7647V37.2353C33.7061 36.6177 33.0002 36 32.2061 35.4706C31.7649 32.7353 30.2649 30.7059 28.1473 29.5588C29.3826 28.1471 30.2649 26.4706 30.6179 24.5294C32.8238 24.1765 34.412 22.3235 34.412 20.0294C34.412 18.4412 33.6179 17.0294 32.3826 16.2353C32.3826 16.1471 32.3826 16.1471 32.3826 16.0588V8.38236C32.3826 3.79412 26.2061 1.76471 20.0296 1.76471C13.8532 1.76471 7.6767 3.79412 7.6767 8.38236V16.2353V16.4118C6.44141 17.2059 5.64729 18.6177 5.64729 20.2059C5.64729 22.4118 7.23552 24.3529 9.44141 24.7059C9.79435 26.5588 10.6767 28.2353 11.8238 29.6471C10.0591 30.8824 8.91199 32.7353 8.55905 35.2059C4.58847 37.3235 1.94141 41.4706 1.94141 46.3235V53.7353C1.94141 56.2059 3.97082 58.2353 6.44141 58.2353H33.3532C34.2355 58.2353 35.0296 57.9706 35.7355 57.5294C36.2649 57.9706 37.0591 58.1471 37.7649 58.1471H54.4414C56.3826 58.1471 57.9708 56.5588 57.9708 54.6177V31.8529C58.0591 29.8235 56.4708 28.2353 54.5296 28.2353ZM56.2943 54.7059C56.2943 55.6765 55.5002 56.4706 54.5296 56.4706H37.8532C36.8826 56.4706 36.0885 55.6765 36.0885 54.7059C36.0885 35.9118 36.0885 50.8235 36.0885 31.9412C36.0885 30.9706 36.8826 30.1765 37.8532 30.1765H40.3238V30.7059C40.3238 31.2353 40.7649 31.5882 41.2061 31.5882H51.0885C51.6179 31.5882 51.9708 31.2353 51.9708 30.7059V30H54.4414C55.412 30 56.2061 30.7941 56.2061 31.7647V54.7059H56.2943ZM3.70611 46.3235C3.70611 42.5294 5.55905 39.2647 8.47082 37.2353C8.47082 37.8529 8.55905 38.5588 8.73552 39.2647C6.79435 40.8529 6.00023 44.9118 6.79435 49.7647C6.88258 50.2059 7.14729 50.6471 7.50023 50.9118C7.76494 51.0882 8.11788 51.1765 8.47082 51.1765H8.55905V51.7059H3.70611V46.3235ZM10.9414 17.2059H28.9414V23.1177C28.7649 25.4118 27.7943 27.4412 26.2943 28.9412C24.7061 30.5294 22.412 31.5882 19.9414 31.5882C17.3826 31.5882 15.0002 30.4412 13.3238 28.6765C12.0002 27.1765 11.1179 25.3235 10.9414 23.2059V17.2059ZM17.912 33.0882C19.1473 33.3529 20.4708 33.3529 21.6179 33.1765C21.6179 33.2647 21.6179 34.3235 21.6179 34.2353C21.6179 34.7647 21.9708 35.1176 22.5002 35.1176H23.8238L19.7649 39.4412L15.7061 35.1176H17.0296C17.5591 35.1176 17.912 34.7647 17.912 34.2353C17.912 34.1471 17.912 33 17.912 33.0882ZM10.2355 52.5882V51.6177H10.3238H10.6767C11.6473 51.4412 12.2649 50.4706 12.0885 49.5C11.912 48.5294 10.9414 47.9118 9.97082 48.0882C9.26494 48.2647 8.73552 48.7941 8.64729 49.3235H8.47082C8.02964 46.4118 8.02964 40.7647 10.412 40.2353C12.0002 39.8824 14.5591 42.8824 15.8826 47.7353H15.7061C15.3532 47.2941 14.7355 47.0294 14.0296 47.2059C13.0591 47.4706 12.4414 48.3529 12.6179 49.3235C12.7943 50.2059 13.5885 50.7353 14.3826 50.7353C15.1767 50.7353 15.7943 50.2941 16.0591 49.5H16.2355C16.6767 49.4118 17.1179 49.1471 17.3826 48.7059C17.6473 48.2647 17.7355 47.8235 17.5591 47.3824C16.1473 41.8235 13.1473 38.2059 10.412 38.4706C10.2355 37.6765 10.2355 36.8824 10.2355 36.1765C11.2061 35.7353 12.3532 35.3824 13.5002 35.2059L19.2355 41.3824C19.5885 41.7353 20.2061 41.7353 20.5591 41.3824L26.2943 35.2059C27.8826 35.3824 29.2943 35.8235 30.6179 36.6176C30.7061 37.9412 30.5296 39.4412 30.0885 41.1176C29.7355 41.0294 29.2943 40.9412 28.8532 40.9412C26.8238 40.9412 25.1473 42.6176 25.1473 44.6471C25.1473 46.6765 26.8238 48.3529 28.8532 48.3529C30.8826 48.3529 32.5591 46.6765 32.5591 44.6471C32.5591 43.6765 32.2061 42.7941 31.5885 42.1765C32.0296 40.5882 32.2943 39.1765 32.3826 37.8529C33.1767 38.4706 33.7943 39.2647 34.412 40.0588V51.6177H31.5885V50.7353C31.5885 50.2059 31.2355 49.8529 30.7061 49.8529C30.2649 49.8529 29.8238 50.2059 29.8238 50.7353V52.5V52.5882V56.4706H10.412V52.5882H10.2355ZM30.7061 44.5588C30.7061 45.6177 29.8238 46.5 28.7649 46.5C27.7061 46.5 26.8238 45.6177 26.8238 44.5588C26.8238 43.5 27.7061 42.6176 28.7649 42.6176C29.8238 42.6176 30.7061 43.5 30.7061 44.5588ZM30.0885 34.4118C27.8826 33.4412 25.9414 33.3529 23.4708 33.4412V32.8235C24.7061 32.3824 25.7649 31.7647 26.7355 31.0588C28.3238 31.5882 29.4708 32.7353 30.0885 34.4118ZM16.1473 9.08824C15.9708 9 15.8826 8.7353 15.9708 8.47059L16.412 7.67647C16.5002 7.5 16.7649 7.41177 17.0296 7.5L18.7061 8.47059V6.61765C18.7061 6.35294 18.8826 6.17647 19.1473 6.17647H20.0296C20.2943 6.17647 20.4708 6.35294 20.4708 6.61765V8.47059L22.0591 7.58824C22.2355 7.5 22.5002 7.5 22.6767 7.76471L23.1179 8.55883C23.2061 8.7353 23.2061 9 22.9414 9.17647L21.3532 10.1471L22.9414 11.1177C23.1179 11.2059 23.2061 11.4706 23.1179 11.7353L22.6767 12.3529C22.5885 12.5294 22.3238 12.6177 22.0591 12.5294L20.4708 11.6471V13.5C20.4708 13.7647 20.2943 13.9412 20.0296 13.9412H19.1473C18.8826 13.9412 18.7061 13.7647 18.7061 13.5V11.5588L17.0296 12.5294C16.8532 12.6177 16.5885 12.5294 16.412 12.3529L15.9708 11.5588C15.8826 11.3824 15.8826 11.1177 16.1473 10.9412L17.7355 9.97059L16.1473 9.08824ZM13.0591 30.7941C13.9414 31.5882 15.0002 32.2059 16.1473 32.5588V33.3529C13.7649 33.1765 12.1767 33.5294 10.5002 34.1471C10.9414 32.8235 11.8238 31.5882 13.0591 30.7941Z" fill="#000D44"/>
<path d="M42.0884 35.7353H50.2943C50.8237 35.7353 51.1766 35.2941 51.1766 34.8529C51.1766 34.4118 50.8237 33.9706 50.2943 33.9706H42.0884C41.559 33.9706 41.2061 34.4118 41.2061 34.8529C41.2061 35.2941 41.559 35.7353 42.0884 35.7353Z" fill="#000D44"/>
<path d="M53.118 38.4706H39.1768C38.6474 38.4706 38.2944 38.9118 38.2944 39.3529C38.2944 39.8823 38.6474 40.2353 39.1768 40.2353H53.2062C53.7356 40.2353 54.0885 39.8823 54.0885 39.3529C54.0003 38.8235 53.6474 38.4706 53.118 38.4706Z" fill="#000D44"/>
<path d="M53.118 42.9706H39.1768C38.6474 42.9706 38.2944 43.4118 38.2944 43.8529C38.2944 44.3823 38.6474 44.7353 39.1768 44.7353H53.2062C53.7356 44.7353 54.0885 44.3823 54.0885 43.8529C54.0003 43.3235 53.6474 42.9706 53.118 42.9706Z" fill="#000D44"/>
<path d="M48.8825 49.5882H47.2943V48C47.2943 47.647 47.0296 47.3823 46.6766 47.3823H45.6178C45.2649 47.3823 44.9119 47.647 44.9119 48V49.5882H43.4119C43.059 49.5882 42.7061 49.8529 42.7061 50.2059V51.2647C42.7061 51.6176 42.9708 51.9706 43.4119 51.9706H45.0002V53.4706C45.0002 53.8235 45.2649 54.0882 45.7061 54.0882H46.7649C47.1178 54.0882 47.3825 53.8235 47.3825 53.4706V51.9706H48.9708C49.3237 51.9706 49.5884 51.7059 49.5884 51.2647V50.2941C49.5002 49.8529 49.2355 49.5882 48.8825 49.5882Z" fill="#000D44"/>
<path d="M38.4706 20.9118C38.2059 21.8824 39.0883 22.7647 39.9706 22.4118L43.4118 21.2647C44.6471 21.8824 46.0589 22.1471 47.4706 22.1471C52.6765 22.1471 56.8236 18 56.8236 12.7941C56.8236 7.76472 52.6765 3.61766 47.7353 3.44119C42.353 3.26472 38.1177 7.58825 38.1177 12.7941C38.1177 14.5588 38.6471 16.2353 39.5294 17.6471L38.4706 20.9118ZM51.8824 11.7353C52.5883 11.7353 53.1177 12.2647 53.1177 12.9706C53.1177 13.6765 52.5883 14.2059 51.8824 14.2059C51.1765 14.2059 50.6471 13.6765 50.6471 12.9706C50.6471 12.353 51.1765 11.7353 51.8824 11.7353ZM47.5589 11.7353C48.2647 11.7353 48.7941 12.2647 48.7941 12.9706C48.7941 13.6765 48.2647 14.2059 47.5589 14.2059C46.853 14.2059 46.3236 13.6765 46.3236 12.9706C46.3236 12.353 46.853 11.7353 47.5589 11.7353ZM43.2353 11.7353C43.9412 11.7353 44.4706 12.2647 44.4706 12.9706C44.4706 13.6765 43.9412 14.2059 43.2353 14.2059C42.5294 14.2059 42 13.6765 42 12.9706C42 12.353 42.5294 11.7353 43.2353 11.7353Z" fill="#000D44"/>
</svg>
