<svg width="60" height="60" viewBox="0 0 60 60" fill="none" xmlns="http://www.w3.org/2000/svg">
<path d="M33.75 30.9375V25.3125H39.375C39.6236 25.3125 39.8621 25.2137 40.0379 25.0379C40.2137 24.8621 40.3125 24.6236 40.3125 24.375V18.75C40.3125 18.5014 40.2137 18.2629 40.0379 18.0871C39.8621 17.9113 39.6236 17.8125 39.375 17.8125H33.75V12.1875C33.75 11.9389 33.6512 11.7004 33.4754 11.5246C33.2996 11.3488 33.0611 11.25 32.8125 11.25H27.1875C26.9389 11.25 26.7004 11.3488 26.5246 11.5246C26.3488 11.7004 26.25 11.9389 26.25 12.1875V17.8125H20.625C20.3764 17.8125 20.1379 17.9113 19.9621 18.0871C19.7863 18.2629 19.6875 18.5014 19.6875 18.75V24.375C19.6875 24.6236 19.7863 24.8621 19.9621 25.0379C20.1379 25.2137 20.3764 25.3125 20.625 25.3125H26.25V30.9375C26.25 31.1861 26.3488 31.4246 26.5246 31.6004C26.7004 31.7762 26.9389 31.875 27.1875 31.875H32.8125C33.0611 31.875 33.2996 31.7762 33.4754 31.6004C33.6512 31.4246 33.75 31.1861 33.75 30.9375ZM31.875 24.375V30H28.125V24.375C28.125 24.1264 28.0262 23.8879 27.8504 23.7121C27.6746 23.5363 27.4361 23.4375 27.1875 23.4375H21.5625V19.6875H27.1875C27.4361 19.6875 27.6746 19.5887 27.8504 19.4129C28.0262 19.2371 28.125 18.9986 28.125 18.75V13.125H31.875V18.75C31.875 18.9986 31.9738 19.2371 32.1496 19.4129C32.3254 19.5887 32.5639 19.6875 32.8125 19.6875H38.4375V23.4375H32.8125C32.5639 23.4375 32.3254 23.5363 32.1496 23.7121C31.9738 23.8879 31.875 24.1264 31.875 24.375Z" fill="#1F5FFF"/>
<path d="M35.1938 49.3594C40.8375 43.0312 49.6875 31.5187 49.6875 21.5625C49.6875 16.3411 47.6133 11.3335 43.9212 7.64134C40.229 3.94921 35.2214 1.875 30 1.875C24.7786 1.875 19.771 3.94921 16.0788 7.64134C12.3867 11.3335 10.3125 16.3411 10.3125 21.5625C10.3125 31.5187 19.1625 43.0312 24.8062 49.3594C21.6094 50.1469 19.6875 51.6469 19.6875 53.4375C19.6875 56.4844 25.0031 58.125 30 58.125C34.9969 58.125 40.3125 56.4844 40.3125 53.4375C40.3125 51.6469 38.3906 50.1469 35.1938 49.3594ZM15.9375 21.5625C15.9375 18.7812 16.7623 16.0624 18.3075 13.7498C19.8527 11.4372 22.0489 9.6348 24.6185 8.57044C27.1881 7.50609 30.0156 7.2276 32.7435 7.77021C35.4713 8.31281 37.977 9.65213 39.9437 11.6188C41.9104 13.5855 43.2497 16.0912 43.7923 18.819C44.3349 21.5469 44.0564 24.3744 42.9921 26.944C41.9277 29.5136 40.1253 31.7098 37.8127 33.255C35.5001 34.8003 32.7813 35.625 30 35.625C26.2718 35.6205 22.6975 34.1375 20.0612 31.5013C17.425 28.865 15.942 25.2907 15.9375 21.5625ZM30.9375 43.125V45.6656C31.3125 45.2437 31.6969 44.8219 32.0719 44.3906L33.4969 45.6094C32.5688 46.6875 31.6313 47.7375 30.6844 48.7406C30.5967 48.8346 30.4908 48.9096 30.3731 48.9612C30.2555 49.0128 30.1285 49.0398 30 49.0406C29.8717 49.0389 29.745 49.0115 29.6274 48.9599C29.5099 48.9084 29.4039 48.8338 29.3156 48.7406C28.3875 47.7469 27.4406 46.6969 26.5125 45.6094L27.9375 44.3906C28.3125 44.8219 28.6875 45.2344 29.0625 45.6562V43.125H30.9375ZM29.0625 41.25V39.375H30.9375V41.25H29.0625ZM30 56.25C24.8531 56.25 21.5625 54.5812 21.5625 53.4375C21.5625 52.7438 23.0438 51.5531 26.2781 50.9719C27.975 52.7906 29.1656 53.9437 29.3531 54.1219C29.5293 54.2845 29.7602 54.3749 30 54.3749C30.2398 54.3749 30.4707 54.2845 30.6469 54.1219C30.8344 53.9437 32.025 52.7906 33.7219 50.9719C36.9563 51.5531 38.4375 52.7438 38.4375 53.4375C38.4375 54.5812 35.1469 56.25 30 56.25Z" fill="#1F5FFF"/>
</svg>
