<svg width="56" height="56" viewBox="0 0 56 56" fill="none" xmlns="http://www.w3.org/2000/svg">
<path d="M42.0447 5.4304C45.3297 5.43401 48.4791 6.74057 50.802 9.06343C53.1249 11.3863 54.4314 14.5357 54.435 17.8208C54.435 17.8412 54.435 17.8624 54.435 17.8828C54.435 17.9237 54.4403 17.985 54.4449 18.066C54.6991 22.5656 53.9636 34.7146 41.6716 50.2819C41.5609 50.4217 41.4044 50.5179 41.2296 50.5536C41.0549 50.5892 40.8732 50.562 40.7166 50.4768C40.5599 50.3916 40.4384 50.2537 40.3735 50.0876C40.3085 49.9216 40.3043 49.7379 40.3616 49.569C40.3964 49.4661 43.7557 39.4035 41.4604 30.196C38.2276 30.0443 35.1825 28.6337 32.9762 26.2659C30.7699 23.8981 29.5776 20.761 29.6543 17.5256C29.7311 14.2901 31.0707 11.213 33.3867 8.95246C35.7027 6.69188 38.8113 5.4272 42.0477 5.42889L42.0447 5.4304ZM52.9215 17.7776C52.9132 15.6282 52.2681 13.5295 51.0679 11.7464C49.8676 9.96326 48.166 8.57574 46.1778 7.759C44.1896 6.94225 42.0039 6.73288 39.8968 7.15734C37.7897 7.5818 35.8556 8.62105 34.3387 10.1439C32.8218 11.6667 31.7901 13.6048 31.3738 15.7136C30.9575 17.8223 31.1754 20.0071 31.9999 21.9921C32.8243 23.9772 34.2185 25.6734 36.0062 26.8667C37.794 28.06 39.8952 28.6969 42.0447 28.6969C42.2104 28.6969 42.3715 28.7514 42.5033 28.8518C42.6351 28.9523 42.7303 29.0933 42.7742 29.2531C44.5147 35.5871 43.6611 42.2315 42.7961 46.2635C52.5462 32.6055 53.1584 22.1804 52.9306 18.1507C52.9203 18.0266 52.9173 17.9021 52.9215 17.7776Z" fill="#04CE78"/>
<path d="M13.9039 5.4304C17.1889 5.43401 20.3384 6.74057 22.6613 9.06343C24.9841 11.3863 26.2907 14.5357 26.2943 17.8208C26.2943 17.8412 26.2943 17.8624 26.2943 17.8828C26.2943 17.9237 26.2996 17.985 26.3041 18.066C26.5584 22.5656 25.8228 34.7146 13.5308 50.2819C13.4201 50.4217 13.2636 50.5179 13.0889 50.5536C12.9142 50.5892 12.7324 50.562 12.5758 50.4768C12.4192 50.3916 12.2977 50.2537 12.2327 50.0876C12.1678 49.9216 12.1636 49.7379 12.2209 49.569C12.2557 49.4661 15.6149 39.4035 13.3197 30.196C10.0869 30.0443 7.04171 28.6337 4.83543 26.2659C2.62915 23.8981 1.43689 20.761 1.5136 17.5256C1.59031 14.2901 2.92992 11.213 5.24595 8.95246C7.56197 6.69188 10.6706 5.4272 13.9069 5.42889L13.9039 5.4304ZM24.7808 17.7776C24.7724 15.6282 24.1274 13.5295 22.9271 11.7464C21.7269 9.96326 20.0252 8.57574 18.037 7.759C16.0488 6.94225 13.8632 6.73288 11.7561 7.15734C9.64898 7.5818 7.71487 8.62105 6.19795 10.1439C4.68103 11.6667 3.64931 13.6048 3.23305 15.7136C2.81679 17.8223 3.03464 20.0071 3.85912 21.9921C4.68359 23.9772 6.07772 25.6734 7.86548 26.8667C9.65324 28.06 11.7545 28.6969 13.9039 28.6969C14.0696 28.6969 14.2308 28.7514 14.3626 28.8518C14.4944 28.9523 14.5895 29.0933 14.6334 29.2531C16.374 35.5871 15.5203 42.2315 14.6554 46.2635C24.4054 32.6055 25.0184 22.1804 24.7906 18.1507C24.7801 18.0267 24.7768 17.9021 24.7808 17.7776Z" fill="#04CE78"/>
</svg>
