<svg width="22" height="17" viewBox="0 0 22 17" fill="none" xmlns="http://www.w3.org/2000/svg">
<path d="M21.3201 0C21.6167 0.2992 21.8106 0.618621 22 1.01082C22 1.09421 22 1.1776 22 1.26352C21.8712 1.34007 21.7423 1.41663 21.6096 1.4955C20.4714 2.18064 19.3986 2.90982 18.3737 3.79057C18.3137 3.84159 18.2537 3.89261 18.1919 3.94518C17.8126 4.27963 17.5563 4.60212 17.3183 5.06989C17.2348 5.23064 17.2348 5.23064 17.1497 5.39465C16.8984 5.93312 16.8561 6.34636 16.9005 6.94938C17.1881 7.95236 17.8905 8.69508 18.5507 9.41325C19.396 10.3798 19.9595 11.2478 20.0098 12.6194C19.9754 13.9408 19.4437 14.9378 18.6468 15.8809C17.813 16.7559 16.882 17.0125 15.7562 16.9995C14.7361 16.9468 13.9862 16.4314 13.2533 15.6687C12.2584 14.4425 11.9678 13.0812 12.0028 11.4645C12.168 8.31996 13.7247 5.74462 15.7724 3.676C17.3743 2.1291 19.3481 0.854746 21.3201 0Z" fill="#04CE78"/>
<path d="M10.6284 0.127026C10.8606 0.431653 10.8606 0.431653 11 0.768346C10.825 1.31178 10.4504 1.42313 9.98572 1.67421C8.26999 2.63711 6.07672 3.87566 5.42535 5.89891C5.31971 6.69109 5.43579 7.19663 5.88506 7.84542C6.04475 8.0794 6.04475 8.0794 6.15799 8.34946C6.32818 8.65688 6.4829 8.69611 6.78804 8.84898C7.83814 9.85011 8.78646 11.0464 8.84756 12.5767C8.7677 13.9842 8.20174 15.1593 7.19356 16.1039C6.10867 16.9656 4.91201 17.071 3.5883 16.9672C2.51872 16.8177 1.70472 16.1548 1.04208 15.3093C0.737974 14.8484 0.525017 14.3764 0.346217 13.8513C0.280106 13.6792 0.280106 13.6792 0.212658 13.5036C-0.371866 11.3443 0.330707 9.036 1.32275 7.13596C1.6771 6.48867 2.08681 5.93082 2.57608 5.38585C2.63642 5.31813 2.69676 5.2504 2.75894 5.18062C4.44654 3.30537 6.36172 1.99641 8.52238 0.768346C8.6408 0.699926 8.6408 0.699926 8.76161 0.630124C10.0163 -0.0906598 10.0163 -0.0906598 10.6284 0.127026Z" fill="#04CE78"/>
</svg>
