<svg width="22" height="17" viewBox="0 0 22 17" fill="none" xmlns="http://www.w3.org/2000/svg">
<path d="M7.81016 0.570564C8.84253 1.26696 9.53316 2.2717 9.89513 3.55149C10.0029 4.05229 10.0065 4.53641 9.99616 5.04917C9.9948 5.15475 9.99344 5.26034 9.99204 5.36913C9.93705 8.04831 8.82798 10.2597 7.24421 12.1975C7.15433 12.3085 7.06445 12.4194 6.97184 12.5337C5.24416 14.5624 2.9806 15.9555 0.679145 17C0.390242 16.6901 0.190818 16.3846 0 15.989C0 15.9055 0 15.8221 0 15.7362C0.120522 15.6688 0.241043 15.6013 0.365217 15.5318C1.4863 14.8936 2.51283 14.1935 3.50891 13.335C3.64724 13.2179 3.64724 13.2179 3.78835 13.0985C4.43903 12.5116 4.82957 11.8181 5.09358 10.9337C5.1735 10.0563 4.99882 9.60686 4.52763 8.91166C4.48152 8.84243 4.43542 8.77319 4.38791 8.70185C4.15967 8.37834 3.92691 8.123 3.63625 7.86903C2.80309 7.1186 2.15847 5.88921 1.99852 4.70606C1.94923 3.40108 2.41717 2.30163 3.16934 1.32885C3.45135 1.03001 3.74189 0.793773 4.07487 0.570564C4.15147 0.518432 4.22807 0.4663 4.307 0.412589C5.42769 -0.246221 6.7132 -0.0586344 7.81016 0.570564Z" fill="#04CE78"/>
<path d="M19.785 0.601545C20.5322 1.15937 21.1091 1.78206 21.5173 2.63546C21.5567 2.71395 21.5961 2.79244 21.6367 2.87331C22.2522 4.36825 22.0124 6.61838 21.4622 8.0892C19.9958 11.7857 17.1077 14.0847 13.7917 15.9751C13.6892 16.0337 13.5868 16.0922 13.4812 16.1526C12.8735 16.4922 12.2721 16.7665 11.6187 17C11 16.1419 11 16.1419 11 15.8559C11.1942 15.7148 11.1942 15.7148 11.4664 15.561C11.5656 15.5039 11.6647 15.4469 11.7668 15.3881C11.8736 15.3275 11.9804 15.2669 12.0904 15.2044C13.0122 14.668 13.8852 14.1246 14.712 13.4406C14.8225 13.3508 14.933 13.261 15.0469 13.1685C15.856 12.4724 16.4237 11.7823 16.6303 10.6981C16.6804 9.98339 16.5255 9.5485 16.0779 9.00684C15.7174 8.62159 15.3461 8.24796 14.974 7.87456C13.9688 6.85153 13.2317 5.77964 13.1731 4.30391C13.2135 3.03091 13.678 2.18468 14.5249 1.27141C15.9295 -0.0324384 18.1095 -0.466046 19.785 0.601545Z" fill="#04CE78"/>
</svg>
