<svg width="60" height="61" viewBox="0 0 60 61" fill="none" xmlns="http://www.w3.org/2000/svg">
<path d="M33.492 42.024C33.2694 42.024 33.049 41.9802 32.8434 41.895C32.6377 41.8099 32.4509 41.685 32.2935 41.5276C32.1361 41.3702 32.0113 41.1834 31.9261 40.9778C31.8409 40.7721 31.7971 40.5517 31.7971 40.3292V34.524C31.7971 34.0268 31.5995 33.5499 31.2479 33.1982C30.8963 32.8466 30.4194 32.649 29.9221 32.649C29.4248 32.649 28.9479 32.8466 28.5963 33.1982C28.2446 33.5499 28.0471 34.0268 28.0471 34.524V40.3292C28.0471 40.5517 28.0032 40.7721 27.9181 40.9778C27.8329 41.1834 27.7081 41.3702 27.5507 41.5276C27.3933 41.685 27.2064 41.8099 27.0008 41.895C26.7952 41.9802 26.5748 42.024 26.3522 42.024C26.0205 42.0241 25.6961 41.9267 25.4192 41.7441C25.1422 41.5615 24.925 41.3017 24.7943 40.9968L23.477 37.9231C22.7753 36.2856 22.2276 34.5864 21.8411 32.8473L21.6779 32.1129C20.9347 28.7683 20.997 25.2949 21.8596 21.979C22.0207 21.3599 22.3826 20.8118 22.8887 20.4206C23.3948 20.0293 24.0164 19.817 24.656 19.817C25.1237 19.8171 25.5843 19.9307 25.9983 20.1481C26.4124 20.3654 26.7675 20.68 27.0332 21.0648C27.3561 21.5324 27.7876 21.9146 28.2908 22.1786C28.7939 22.4426 29.3536 22.5806 29.9219 22.5806C30.4901 22.5806 31.0498 22.4426 31.5529 22.1786C32.0561 21.9146 32.4877 21.5324 32.8105 21.0648C33.0763 20.68 33.4315 20.3654 33.8456 20.1482C34.2598 19.9309 34.7205 19.8174 35.1881 19.8174C35.8277 19.8175 36.4491 20.0297 36.9551 20.4209C37.4611 20.812 37.823 21.36 37.9841 21.9789C38.8467 25.2948 38.909 28.7681 38.1658 32.1128L38.0025 32.8472C37.6161 34.5862 37.0685 36.2855 36.3667 37.9228L35.0494 40.9967C34.9188 41.3015 34.7016 41.5613 34.4248 41.7439C34.1479 41.9266 33.8236 42.024 33.492 42.024Z" fill="#DBDBDB"/>
<path d="M37.0657 32.955L37.229 32.2206C37.9722 28.876 37.91 25.4026 37.0473 22.0867C36.9086 21.5549 36.6209 21.0738 36.2182 20.6998C35.8155 20.3258 35.3145 20.0745 34.7739 19.9754C34.3819 20.029 34.0051 20.1629 33.6673 20.3688C33.3295 20.5747 33.0378 20.8482 32.8106 21.1722C32.4425 21.7041 31.9332 22.1226 31.3401 22.3808C30.747 22.6389 30.0936 22.7263 29.4535 22.6331C28.8133 22.7263 28.1599 22.6389 27.5668 22.3808C26.9737 22.1226 26.4644 21.7041 26.0963 21.1722C25.8691 20.8482 25.5775 20.5746 25.2397 20.3686C24.9018 20.1626 24.5251 20.0286 24.133 19.975C23.5925 20.0741 23.0914 20.3254 22.6887 20.6993C22.286 21.0733 21.9983 21.5545 21.8596 22.0862C20.997 25.4021 20.9347 28.8755 21.6779 32.2201L21.8411 32.9545C22.2276 34.6936 22.7753 36.3929 23.477 38.0304L24.7943 41.1041C24.8927 41.3332 25.0405 41.5377 25.2271 41.703C25.4137 41.8683 25.6345 41.9904 25.8737 42.0605C26.2286 41.9615 26.5414 41.7492 26.7645 41.4561C26.9876 41.1629 27.1088 40.8048 27.1096 40.4364V34.6317C27.106 34.3446 27.1693 34.0607 27.2943 33.8022C27.4194 33.5438 27.6028 33.3179 27.8301 33.1425C28.0574 32.9671 28.3224 32.847 28.6041 32.7915C28.8858 32.7361 29.1765 32.747 29.4533 32.8232C29.7301 32.747 30.0209 32.7361 30.3026 32.7915C30.5843 32.847 30.8493 32.9671 31.0766 33.1425C31.3039 33.3179 31.4873 33.5438 31.6123 33.8022C31.7374 34.0607 31.8006 34.3446 31.7971 34.6317V40.4369C31.7979 40.8053 31.919 41.1633 32.1421 41.4565C32.3652 41.7497 32.678 41.962 33.0328 42.0609C33.2721 41.9909 33.4929 41.8688 33.6795 41.7035C33.8661 41.5381 34.0139 41.3336 34.1124 41.1046L35.4297 38.0308C36.1315 36.3933 36.6792 34.6941 37.0657 32.955Z" fill="#EBEBEB"/>
<path d="M31.8743 27.2867C31.729 27.2868 31.5857 27.2529 31.4558 27.1878C31.0035 26.9629 30.5053 26.8459 30.0002 26.8459C29.495 26.8459 28.9968 26.9629 28.5445 27.1878C28.3221 27.299 28.0646 27.3173 27.8287 27.2387C27.5927 27.1601 27.3977 26.9909 27.2865 26.7685C27.1753 26.5461 27.157 26.2886 27.2356 26.0527C27.3142 25.8167 27.4834 25.6217 27.7058 25.5105C28.4188 25.1564 29.2041 24.9722 30.0002 24.9722C30.7962 24.9722 31.5815 25.1564 32.2945 25.5105C32.4836 25.6049 32.6352 25.7605 32.7248 25.9519C32.8143 26.1433 32.8366 26.3594 32.7879 26.565C32.7393 26.7707 32.6226 26.9539 32.4567 27.0849C32.2909 27.2159 32.0856 27.287 31.8743 27.2867Z" fill="#DBDBDB"/>
<path d="M46.8321 42.0439C46.6198 41.9773 46.4226 41.8694 46.2519 41.7266C46.0812 41.5837 45.9403 41.4087 45.8373 41.2114C45.7343 41.0141 45.6711 40.7984 45.6514 40.5767C45.6318 40.355 45.6559 40.1316 45.7226 39.9192L47.461 34.3806C47.6099 33.9061 47.5642 33.3919 47.334 32.9512C47.1038 32.5104 46.708 32.1791 46.2335 32.0301C45.7591 31.8812 45.2449 31.9269 44.8041 32.1571C44.3633 32.3873 44.032 32.7831 43.8831 33.2576L42.1446 38.7963C42.01 39.2252 41.7106 39.583 41.3121 39.7911C40.9137 39.9992 40.4489 40.0404 40.02 39.9058C39.7036 39.8065 39.4232 39.6165 39.2137 39.3594C39.0041 39.1022 38.8746 38.7893 38.8412 38.4593L38.5048 35.1321C38.3256 33.3596 38.312 31.5744 38.464 29.7994L38.5282 29.0494C38.8207 25.6356 39.9202 22.3403 41.7362 19.4349C42.0753 18.8925 42.5848 18.4779 43.1848 18.2562C43.7848 18.0344 44.4415 18.0181 45.0518 18.2096C45.498 18.3497 45.9036 18.5959 46.2337 18.9273C46.5637 19.2586 46.8084 19.6651 46.9467 20.1118C47.1148 20.6546 47.4121 21.1484 47.8131 21.5509C48.214 21.9534 48.7067 22.2526 49.2488 22.4227C49.7909 22.5929 50.3662 22.6289 50.9253 22.5277C51.4843 22.4265 52.0105 22.1911 52.4585 21.8417C52.8273 21.5542 53.2604 21.3604 53.7206 21.2771C54.1808 21.1938 54.6543 21.2235 55.1005 21.3635C55.7109 21.5551 56.2405 21.9438 56.6062 22.4688C56.9719 22.9937 57.153 23.6252 57.1212 24.2641C56.9514 27.6861 55.9707 31.0188 54.2598 33.9873L53.8848 34.6392C52.9953 36.1827 51.964 37.64 50.8041 38.9921L48.6267 41.5303C48.4107 41.7822 48.1255 41.9652 47.8065 42.0565C47.4875 42.1478 47.1487 42.1434 46.8321 42.0439Z" fill="#DBDBDB"/>
<path d="M55.1274 21.3748C55.1182 21.3717 55.11 21.3668 55.1006 21.3639C54.6544 21.2238 54.1808 21.1942 53.7207 21.2775C53.2605 21.3608 52.8274 21.5545 52.4586 21.8421C51.8542 22.314 51.1117 22.5747 50.345 22.5843C49.5782 22.5939 48.8295 22.3518 48.2135 21.8952C47.7055 21.7122 47.2471 21.4135 46.8747 21.0226C46.5022 20.6318 46.2259 20.1596 46.0675 19.6434C45.8829 19.0672 45.521 18.564 45.0333 18.2058C44.4251 18.019 43.7722 18.0382 43.176 18.2606C42.5798 18.4829 42.0737 18.8958 41.7363 19.4353C39.9203 22.3407 38.8208 25.636 38.5283 29.0497L38.4641 29.7997C38.312 31.5747 38.3256 33.3599 38.5048 35.1323L38.8413 38.4596C38.8851 38.8476 39.0629 39.2082 39.344 39.4792C39.7497 39.5552 40.1692 39.48 40.5233 39.2678C40.8774 39.0557 41.1415 38.7213 41.2659 38.3277L43.0042 32.7889C43.1532 32.3145 43.4845 31.9186 43.9253 31.6884C44.3661 31.4583 44.8802 31.4126 45.3547 31.5615C45.628 31.6491 45.8773 31.7988 46.0829 31.9991C46.1333 32.0108 46.1837 32.0144 46.2339 32.0303C46.7083 32.1793 47.104 32.5106 47.3341 32.9513C47.5642 33.392 47.6099 33.9061 47.461 34.3805L45.7226 39.9192C45.632 40.2105 45.622 40.521 45.6938 40.8176C45.7656 41.1141 45.9164 41.3857 46.1302 41.6033C46.4236 41.6652 46.7282 41.6476 47.0125 41.5524C47.2968 41.4571 47.5505 41.2877 47.7474 41.0616L49.9248 38.5234C51.0846 37.1712 52.116 35.714 53.0055 34.1705L53.3812 33.5185C55.0917 30.5499 56.0723 27.2173 56.2421 23.7954C56.2645 23.332 56.1749 22.8701 55.9808 22.4487C55.7868 22.0274 55.4941 21.659 55.1274 21.3748Z" fill="#EFEFEF"/>
<path d="M49.5833 26.5185C48.2516 26.5182 46.9715 26.003 46.0109 25.0806C45.9197 24.9958 45.8463 24.8936 45.795 24.7801C45.7438 24.6666 45.7156 24.544 45.7123 24.4195C45.7089 24.2949 45.7304 24.171 45.7755 24.0549C45.8205 23.9387 45.8883 23.8328 45.9748 23.7431C46.0613 23.6535 46.1648 23.582 46.2793 23.5328C46.3937 23.4836 46.5168 23.4578 46.6414 23.4567C46.766 23.4556 46.8895 23.4794 47.0048 23.5266C47.12 23.5738 47.2247 23.6436 47.3128 23.7317C47.6769 24.0816 48.1172 24.3424 48.5991 24.4936C49.081 24.6448 49.5913 24.6823 50.0901 24.6032C50.2117 24.5836 50.3359 24.5882 50.4558 24.6166C50.5756 24.645 50.6886 24.6967 50.7885 24.7688C50.8883 24.841 50.9729 24.932 51.0375 25.0368C51.1022 25.1417 51.1455 25.2582 51.1651 25.3798C51.1847 25.5013 51.1802 25.6256 51.1518 25.7454C51.1234 25.8652 51.0716 25.9783 50.9995 26.0781C50.9274 26.1779 50.8363 26.2626 50.7315 26.3272C50.6267 26.3918 50.5102 26.4352 50.3886 26.4548C50.1223 26.4973 49.853 26.5187 49.5833 26.5185Z" fill="#DBDBDB"/>
<path d="M16.0008 42.1217C15.5512 42.1217 15.1201 41.9431 14.8023 41.6253C14.4844 41.3074 14.3059 40.8763 14.3059 40.4268V34.6217C14.3059 34.1244 14.1083 33.6475 13.7567 33.2959C13.4051 32.9442 12.9282 32.7467 12.4309 32.7467C11.9336 32.7467 11.4567 32.9442 11.1051 33.2959C10.7534 33.6475 10.5559 34.1244 10.5559 34.6217V40.4268C10.5559 40.8763 10.3773 41.3074 10.0595 41.6253C9.7416 41.9431 9.3105 42.1217 8.86099 42.1217C8.5293 42.1217 8.2049 42.0244 7.92798 41.8418C7.65106 41.6592 7.43379 41.3994 7.3031 41.0946L5.9858 38.0207C5.28404 36.3833 4.7364 34.684 4.34998 32.945L4.18674 32.2106C3.44348 28.8659 3.50574 25.3925 4.36838 22.0767C4.52945 21.4576 4.89139 20.9095 5.39747 20.5182C5.90354 20.127 6.52514 19.9147 7.16482 19.9147C7.6325 19.9147 8.09319 20.0282 8.50733 20.2455C8.92146 20.4627 9.27667 20.7773 9.54244 21.1621C9.8653 21.6297 10.2968 22.012 10.8 22.276C11.3032 22.54 11.8629 22.678 12.4311 22.678C12.9993 22.678 13.5591 22.54 14.0622 22.276C14.5654 22.012 14.9969 21.6297 15.3198 21.1621C15.5856 20.7773 15.9408 20.4627 16.3549 20.2455C16.769 20.0282 17.2297 19.9147 17.6974 19.9147C18.3371 19.9147 18.9587 20.127 19.4648 20.5182C19.9708 20.9095 20.3328 21.4576 20.4938 22.0767C21.3565 25.3925 21.4187 28.8659 20.6755 32.2106L20.5124 32.945C20.1259 34.684 19.5782 36.3833 18.8764 38.0207L17.5591 41.0946C17.4284 41.3995 17.2111 41.6594 16.934 41.8419C16.657 42.0245 16.3325 42.1218 16.0008 42.1217Z" fill="#DBDBDB"/>
<path d="M19.5746 32.945L19.7378 32.2106C20.481 28.866 20.4187 25.3926 19.5561 22.0767C19.4174 21.5449 19.1297 21.0638 18.727 20.6898C18.3243 20.3158 17.8232 20.0645 17.2827 19.9653C16.8907 20.0189 16.5139 20.1528 16.1761 20.3588C15.8383 20.5647 15.5466 20.8382 15.3194 21.1622C14.9513 21.6941 14.4421 22.1127 13.849 22.3708C13.2559 22.629 12.6025 22.7165 11.9624 22.6235C11.3222 22.7165 10.6688 22.629 10.0757 22.3709C9.48257 22.1127 8.97329 21.6941 8.60517 21.1622C8.37796 20.8382 8.08629 20.5647 7.74844 20.3588C7.41059 20.1528 7.03385 20.0189 6.64181 19.9653C6.10123 20.0644 5.60015 20.3157 5.19744 20.6897C4.79473 21.0637 4.50711 21.5449 4.36838 22.0767C3.50574 25.3926 3.44348 28.866 4.18674 32.2106L4.34998 32.945C4.73642 34.6841 5.28414 36.3834 5.98603 38.0208L7.30334 41.0945C7.40175 41.3235 7.54952 41.528 7.73609 41.6933C7.92266 41.8586 8.14343 41.9807 8.38264 42.0508C8.73753 41.9519 9.05036 41.7397 9.27349 41.4465C9.49662 41.1533 9.61781 40.7953 9.61861 40.4269V34.6217C9.61505 34.3346 9.67828 34.0506 9.80331 33.7922C9.92835 33.5337 10.1118 33.3079 10.3391 33.1324C10.5664 32.957 10.8314 32.8369 11.1131 32.7814C11.3948 32.726 11.6855 32.7368 11.9624 32.8131C12.2392 32.7368 12.5299 32.726 12.8116 32.7814C13.0934 32.8369 13.3583 32.957 13.5857 33.1324C13.813 33.3079 13.9964 33.5337 14.1214 33.7922C14.2464 34.0506 14.3097 34.3346 14.3061 34.6217V40.4269C14.3069 40.7953 14.4281 41.1533 14.6512 41.4465C14.8744 41.7397 15.1872 41.9519 15.5421 42.0508C15.7813 41.9807 16.0021 41.8586 16.1887 41.6933C16.3752 41.528 16.523 41.3235 16.6214 41.0945L17.9387 38.0208C18.6404 36.3833 19.1881 34.6841 19.5746 32.945Z" fill="#EBEBEB"/>
<path d="M14.3048 27.7293C14.1595 27.7294 14.0162 27.6955 13.8864 27.6304C13.4341 27.4055 12.9358 27.2885 12.4307 27.2885C11.9255 27.2885 11.4273 27.4055 10.975 27.6304C10.8648 27.6855 10.7449 27.7183 10.6221 27.727C10.4993 27.7358 10.376 27.7202 10.2592 27.6813C10.1424 27.6423 10.0344 27.5807 9.94139 27.5001C9.84838 27.4194 9.77218 27.3212 9.71712 27.2111C9.66207 27.1009 9.62924 26.9811 9.62052 26.8582C9.6118 26.7354 9.62735 26.6121 9.66629 26.4953C9.70523 26.3785 9.7668 26.2705 9.84747 26.1775C9.92815 26.0845 10.0264 26.0083 10.1365 25.9532C10.8495 25.5992 11.6348 25.4149 12.4308 25.4149C13.2269 25.4149 14.0122 25.5992 14.7252 25.9532C14.9142 26.0477 15.0657 26.2032 15.1553 26.3946C15.2448 26.586 15.267 26.8021 15.2184 27.0077C15.1697 27.2133 15.053 27.3965 14.8872 27.5275C14.7214 27.6584 14.5161 27.7296 14.3048 27.7293Z" fill="#DBDBDB"/>
<path d="M57.1875 47.9118H2.8125V32.9118L23.0527 30.12C27.6675 29.4834 32.3421 29.404 36.9758 29.8834L57.1875 31.9743V47.9118Z" fill="#04CE78"/>
<path d="M38.4488 30.0356C38.3159 31.7327 38.3345 33.4382 38.5042 35.1319L38.8407 38.4592C38.8799 38.8476 39.052 39.2105 39.3279 39.4866C39.6038 39.7628 39.9666 39.9352 40.3549 39.9748C40.7432 40.0145 41.1333 39.9188 41.4593 39.7041C41.7853 39.4893 42.0272 39.1687 42.144 38.7962L43.8825 33.2575C44.0314 32.783 44.3627 32.3871 44.8035 32.1569C45.2443 31.9267 45.7585 31.881 46.233 32.0299C46.7074 32.1788 47.1033 32.5101 47.3335 32.9509C47.5637 33.3917 47.6094 33.9059 47.4605 34.3804L45.7221 39.9191C45.6052 40.2916 45.6204 40.6929 45.7652 41.0555C45.91 41.418 46.1755 41.7194 46.5169 41.9088C46.8582 42.0982 47.2545 42.164 47.6387 42.095C48.0229 42.026 48.3715 41.8265 48.6257 41.5302L50.803 38.9921C51.9629 37.6399 52.9943 36.1826 53.8838 34.6391L54.2588 33.9872C54.6683 33.2749 55.0369 32.5398 55.3627 31.7855L38.4488 30.0356Z" fill="#DC989B"/>
<path d="M39.0002 39.0018C39.0345 39.0689 39.0733 39.1337 39.1162 39.1956C39.1828 39.2973 39.2593 39.3923 39.3446 39.479C39.7503 39.555 40.1698 39.4798 40.5239 39.2676C40.878 39.0555 41.1421 38.7211 41.2665 38.3275L43.0048 32.7887C43.1538 32.3143 43.4851 31.9184 43.9259 31.6882C44.3666 31.4581 44.8808 31.4124 45.3553 31.5613C45.6285 31.6488 45.8778 31.7986 46.0834 31.9988C46.1338 32.0105 46.1843 32.0142 46.2345 32.0301C46.7088 32.1792 47.1044 32.5105 47.3345 32.9512C47.5645 33.392 47.61 33.906 47.4611 34.3804L45.7228 39.9191C45.6815 40.0555 45.6581 40.1966 45.653 40.339C45.6512 40.3726 45.6525 40.4059 45.653 40.4394C45.6535 40.5608 45.6672 40.6817 45.6939 40.8C45.6971 40.8138 45.6986 40.828 45.7021 40.8416C45.777 41.1282 45.9245 41.3906 46.1306 41.6033C46.424 41.6653 46.7286 41.6477 47.0129 41.5524C47.2972 41.4572 47.5509 41.2877 47.7478 41.0616L49.9251 38.5234C51.085 37.1713 52.1164 35.714 53.0059 34.1705L53.3816 33.5186C53.7264 32.9201 54.0335 32.3032 54.3184 31.6773L38.4494 30.0356C38.3839 30.8824 38.3553 31.7303 38.3637 32.5796C38.3637 32.6241 38.3673 32.6687 38.3678 32.7133C38.3735 33.0907 38.3844 33.4683 38.405 33.8454C38.4291 34.2751 38.4623 34.7039 38.5048 35.1319L38.8413 38.4592C38.8585 38.5957 38.8924 38.7295 38.9423 38.8576C38.9608 38.9064 38.9768 38.9556 39.0002 39.0018Z" fill="#1F5FFF"/>
<path d="M36.9757 29.8832C32.3419 29.4039 27.6673 29.4834 23.0525 30.1198L21.3711 30.3517C21.4518 30.9414 21.5478 31.5296 21.6775 32.1128L21.8407 32.8472C22.2272 34.5863 22.7748 36.2856 23.4766 37.9231L24.7939 40.9968C24.9477 41.3556 25.2206 41.6504 25.5666 41.8313C25.9125 42.0121 26.3103 42.068 26.6927 41.9895C27.0751 41.911 27.4187 41.7028 27.6654 41.4003C27.9121 41.0977 28.0468 40.7192 28.0467 40.3288V34.5241C28.0467 34.0268 28.2442 33.5499 28.5959 33.1982C28.9475 32.8466 29.4244 32.6491 29.9217 32.6491C30.419 32.6491 30.8959 32.8466 31.2475 33.1982C31.5991 33.5499 31.7967 34.0268 31.7967 34.5241V40.3292C31.7966 40.7196 31.9313 41.098 32.1779 41.4006C32.4246 41.7032 32.7682 41.9113 33.1506 41.9898C33.533 42.0684 33.9308 42.0125 34.2768 41.8316C34.6228 41.6507 34.8957 41.356 35.0495 40.9971L36.3668 37.9233C37.0685 36.2859 37.6162 34.5866 38.0026 32.8476L38.1658 32.1133C38.3182 31.4278 38.428 30.7363 38.5127 30.0426L36.9757 29.8832Z" fill="#DC989B"/>
<path d="M36.9757 29.8832C32.3419 29.4039 27.6673 29.4834 23.0525 30.1198L21.3711 30.3517C21.4518 30.9414 21.5478 31.5296 21.6775 32.1128L21.8407 32.8472C22.2272 34.5863 22.7748 36.2856 23.4766 37.9231L24.7939 40.9968C24.9055 41.2516 25.0786 41.4747 25.2976 41.6462C25.5167 41.8176 25.7748 41.932 26.049 41.9792C26.3594 41.8572 26.6263 41.6452 26.8152 41.3703C27.0041 41.0955 27.1065 40.7704 27.1092 40.4369V34.6318C27.1092 34.1345 27.3067 33.6576 27.6584 33.3059C28.01 32.9543 28.4869 32.7568 28.9842 32.7568C29.0616 32.7618 29.1386 32.7727 29.2145 32.7893C29.4989 32.6725 29.8078 32.6276 30.1138 32.6586C30.4198 32.6896 30.7134 32.7955 30.9687 32.9669C31.224 33.1384 31.4331 33.3702 31.5775 33.6417C31.722 33.9132 31.7972 34.2162 31.7967 34.5237V40.3288C31.7985 40.419 31.8076 40.5088 31.8239 40.5975C31.8274 40.6343 31.8356 40.669 31.8419 40.705C31.9157 41.0287 32.0832 41.3236 32.3235 41.5528C32.5637 41.7821 32.8661 41.9355 33.193 41.9941C33.6045 41.8302 33.9347 41.5106 34.112 41.1046L35.4293 38.0309C36.131 36.3935 36.6787 34.6942 37.0651 32.9552L37.2283 32.2207C37.393 31.4704 37.5176 30.7118 37.6014 29.9481L36.9757 29.8832Z" fill="#1F5FFF"/>
<path d="M16.0006 42.1217C16.3323 42.1217 16.6568 42.0243 16.9337 41.8417C17.2106 41.6591 17.4279 41.3993 17.5585 41.0944L18.8758 38.0207C19.5776 36.3832 20.1252 34.684 20.5118 32.9449L20.6749 32.2105C20.8078 31.6129 20.9056 31.0094 20.9871 30.4048L4.29688 32.7068L4.34984 32.9449C4.73621 34.684 5.28385 36.3833 5.98566 38.0207L7.30297 41.0944C7.45673 41.4532 7.72965 41.748 8.07561 41.9289C8.42158 42.1097 8.81938 42.1656 9.2018 42.0871C9.58421 42.0086 9.92779 41.8004 10.1745 41.4979C10.4212 41.1953 10.5558 40.8168 10.5557 40.4264V34.6217C10.5557 34.1244 10.7533 33.6475 11.1049 33.2958C11.4565 32.9442 11.9335 32.7467 12.4307 32.7467C12.928 32.7467 13.4049 32.9442 13.7566 33.2958C14.1082 33.6475 14.3057 34.1244 14.3057 34.6217V40.4268C14.3057 40.6494 14.3496 40.8697 14.4348 41.0754C14.5199 41.281 14.6448 41.4679 14.8022 41.6252C14.9595 41.7826 15.1464 41.9075 15.352 41.9926C15.5577 42.0778 15.778 42.1217 16.0006 42.1217Z" fill="#DC989B"/>
<path d="M14.3906 40.9306C14.3988 40.9569 14.4056 40.9838 14.4151 41.0094C14.4714 41.1634 14.55 41.3082 14.6484 41.4393C14.6568 41.451 14.6664 41.4607 14.6751 41.4717C14.8964 41.7504 15.1993 41.9528 15.5414 42.0508C15.7806 41.9806 16.0014 41.8585 16.1879 41.6932C16.3745 41.5279 16.5223 41.3234 16.6207 41.0944L17.938 38.0207C18.6397 36.3832 19.1874 34.684 19.5739 32.9449L19.737 32.2105C19.8603 31.6559 19.9531 31.0972 20.0321 30.5364L4.29688 32.7068L4.34984 32.9449C4.73621 34.684 5.28385 36.3833 5.98566 38.0207L7.30297 41.0944C7.36382 41.2311 7.44264 41.3591 7.53734 41.475C7.56652 41.5117 7.59957 41.5441 7.63109 41.5781C7.70062 41.6523 7.77676 41.72 7.85855 41.7804C7.89945 41.8105 7.93953 41.8415 7.98289 41.8677C8.08292 41.9281 8.18896 41.9779 8.2993 42.0163C8.32754 42.0263 8.35309 42.0422 8.38133 42.0508C8.73622 41.9518 9.04905 41.7396 9.27218 41.4464C9.49531 41.1533 9.6165 40.7952 9.6173 40.4268V34.6216C9.61374 34.3346 9.67697 34.0506 9.80201 33.7921C9.92704 33.5336 10.1105 33.3078 10.3378 33.1324C10.5651 32.9569 10.83 32.8368 11.1118 32.7813C11.3935 32.7259 11.6842 32.7367 11.9611 32.813C12.2379 32.7367 12.5286 32.7259 12.8103 32.7813C13.0921 32.8368 13.357 32.9569 13.5843 33.1324C13.8117 33.3078 13.9951 33.5336 14.1201 33.7921C14.2451 34.0506 14.3084 34.3346 14.3048 34.6216V40.4268C14.3072 40.5981 14.3362 40.7681 14.3906 40.9306Z" fill="#1F5FFF"/>
<path d="M40.3126 16.9751C40.2117 16.975 40.1115 16.9587 40.0159 16.9266L37.2034 15.9891C36.9675 15.9104 36.7726 15.7412 36.6614 15.5188C36.5502 15.2964 36.532 15.0389 36.6107 14.803C36.6894 14.5671 36.8585 14.3722 37.0809 14.261C37.3034 14.1498 37.5608 14.1316 37.7967 14.2103L40.6092 15.1478C40.8207 15.218 41.0003 15.3612 41.1158 15.5518C41.2313 15.7423 41.2751 15.9678 41.2394 16.1878C41.2037 16.4078 41.0908 16.6078 40.921 16.7521C40.7511 16.8964 40.5355 16.9754 40.3126 16.9751Z" fill="#FCD795"/>
<path d="M43.125 14.1626C42.9283 14.1625 42.7366 14.1005 42.577 13.9854C42.4175 13.8703 42.2982 13.7079 42.236 13.5213L41.2985 10.7088C41.2558 10.5911 41.237 10.4661 41.2434 10.3411C41.2498 10.2161 41.2811 10.0936 41.3356 9.98086C41.3901 9.86815 41.4666 9.76748 41.5606 9.68481C41.6546 9.60214 41.7642 9.53913 41.8829 9.4995C42.0017 9.45988 42.1272 9.44443 42.252 9.45408C42.3768 9.46374 42.4984 9.49829 42.6096 9.5557C42.7209 9.61311 42.8195 9.69222 42.8997 9.78837C42.9799 9.88451 43.04 9.99573 43.0765 10.1155L44.014 12.928C44.0609 13.0689 44.0737 13.219 44.0513 13.3658C44.0289 13.5126 43.972 13.652 43.8852 13.7726C43.7984 13.8931 43.6842 13.9913 43.552 14.0591C43.4199 14.1269 43.2735 14.1624 43.125 14.1626Z" fill="#FCD795"/>
<path d="M47.1062 15.9052C46.9209 15.9051 46.7396 15.8501 46.5855 15.7471C46.4314 15.6441 46.3112 15.4977 46.2403 15.3264C46.1694 15.1551 46.1508 14.9667 46.1869 14.7848C46.2231 14.603 46.3124 14.436 46.4434 14.3049L49.2559 11.4924C49.3426 11.4037 49.446 11.3331 49.5602 11.2847C49.6744 11.2363 49.797 11.211 49.921 11.2103C50.045 11.2096 50.1679 11.2336 50.2826 11.2807C50.3973 11.3278 50.5015 11.3972 50.5891 11.4849C50.6768 11.5726 50.7462 11.6768 50.7934 11.7915C50.8405 11.9062 50.8644 12.0291 50.8637 12.1531C50.863 12.2771 50.8377 12.3997 50.7893 12.5138C50.7409 12.628 50.6703 12.7314 50.5817 12.8181L47.7692 15.6306C47.6822 15.7178 47.5789 15.7869 47.4651 15.834C47.3513 15.8812 47.2294 15.9053 47.1062 15.9052Z" fill="#FCD795"/>
<path d="M20.625 42.2867H22.5V44.1617H20.625V42.2867Z" fill="#04CE78"/>
<path d="M29.0625 43.2242H30.9375V45.0992H29.0625V43.2242Z" fill="#04CE78"/>
<path d="M38.4375 42.2867H40.3125V44.1617H38.4375V42.2867Z" fill="#04CE78"/>
<path d="M51.5625 42.2867H53.4375V44.1617H51.5625V42.2867Z" fill="#04CE78"/>
<path d="M11.25 43.2242H13.125V45.0992H11.25V43.2242Z" fill="#04CE78"/>
<path d="M2.8125 46.8756H57.1876V47.9117H2.8125V46.8756Z" fill="#F6A9AC"/>
<path d="M28.5445 27.1878C28.9968 26.9629 29.495 26.8459 30.0002 26.8459C30.5053 26.8459 31.0035 26.9629 31.4558 27.1878C31.6782 27.299 31.9357 27.3173 32.1716 27.2387C32.4076 27.1601 32.6026 26.9909 32.7138 26.7685C32.825 26.5461 32.8433 26.2886 32.7647 26.0527C32.6861 25.8167 32.5169 25.6217 32.2945 25.5105C31.5815 25.1564 30.7962 24.9722 30.0002 24.9722C29.2041 24.9722 28.4188 25.1564 27.7058 25.5105C27.4834 25.6217 27.3142 25.8167 27.2356 26.0527C27.157 26.2886 27.1753 26.5461 27.2865 26.7685C27.3977 26.9909 27.5927 27.1601 27.8287 27.2387C28.0646 27.3173 28.3221 27.299 28.5445 27.1878Z" fill="#000D44"/>
<path d="M49.5829 26.5185C49.8528 26.5186 50.1222 26.4971 50.3886 26.4544C50.5102 26.4348 50.6267 26.3915 50.7315 26.3268C50.8363 26.2622 50.9274 26.1776 50.9995 26.0777C51.0716 25.9779 51.1234 25.8649 51.1518 25.745C51.1802 25.6252 51.1847 25.501 51.1651 25.3794C51.1455 25.2578 51.1022 25.1413 51.0375 25.0365C50.9729 24.9317 50.8883 24.8406 50.7885 24.7685C50.6886 24.6964 50.5756 24.6446 50.4558 24.6162C50.3359 24.5878 50.2117 24.5833 50.0901 24.6029C49.5913 24.682 49.081 24.6444 48.5991 24.4932C48.1172 24.342 47.6769 24.0812 47.3128 23.7313C47.2247 23.6432 47.12 23.5735 47.0048 23.5263C46.8895 23.479 46.766 23.4553 46.6414 23.4563C46.5168 23.4574 46.3937 23.4833 46.2793 23.5325C46.1648 23.5816 46.0613 23.6531 45.9748 23.7428C45.8883 23.8324 45.8205 23.9384 45.7755 24.0545C45.7304 24.1706 45.7089 24.2946 45.7123 24.4191C45.7156 24.5436 45.7438 24.6662 45.795 24.7797C45.8463 24.8933 45.9197 24.9954 46.0109 25.0803C46.9714 26.0027 48.2513 26.518 49.5829 26.5185Z" fill="#000D44"/>
<path d="M14.7252 25.9532C14.0122 25.5992 13.2269 25.4149 12.4308 25.4149C11.6347 25.4149 10.8494 25.5992 10.1364 25.9532C9.91404 26.0644 9.74491 26.2594 9.66628 26.4953C9.58764 26.7312 9.60594 26.9887 9.71715 27.2111C9.82835 27.4335 10.0234 27.6027 10.2593 27.6813C10.4952 27.7599 10.7526 27.7416 10.975 27.6304C11.4273 27.4055 11.9256 27.2885 12.4307 27.2885C12.9359 27.2885 13.4341 27.4055 13.8864 27.6304C13.9966 27.6855 14.1165 27.7183 14.2393 27.7271C14.3621 27.7358 14.4854 27.7203 14.6022 27.6813C14.7191 27.6424 14.8271 27.5809 14.9201 27.5002C15.0131 27.4195 15.0893 27.3213 15.1444 27.2112C15.1995 27.1011 15.2323 26.9812 15.241 26.8584C15.2498 26.7355 15.2342 26.6122 15.1953 26.4954C15.1564 26.3786 15.0948 26.2706 15.0141 26.1776C14.9335 26.0845 14.8353 26.0083 14.7252 25.9532Z" fill="#000D44"/>
<path d="M57.2836 31.0417L56.6913 30.9804C57.4806 28.8387 57.9414 26.5898 58.0582 24.3103C58.0943 23.5782 57.9196 22.8512 57.5546 22.2157C57.1897 21.5801 56.6499 21.0626 55.9995 20.7248C55.3491 20.387 54.6154 20.243 53.8856 20.31C53.1557 20.377 52.4605 20.6522 51.8824 21.1027C51.5541 21.3589 51.1684 21.5315 50.7586 21.6058C50.3488 21.68 49.9271 21.6537 49.5298 21.529C49.1324 21.4044 48.7712 21.1851 48.4773 20.8901C48.1834 20.595 47.9654 20.233 47.8423 19.8352C47.6256 19.135 47.2124 18.5117 46.6518 18.0396C46.0912 17.5674 45.4068 17.2662 44.68 17.1717C43.9531 17.0772 43.2145 17.1935 42.5518 17.5067C41.8891 17.8199 41.3303 18.3168 40.9419 18.9384C40.2141 20.106 39.5949 21.3379 39.092 22.6186C39.0284 22.3257 38.9674 22.0327 38.8921 21.7427C38.7075 21.0333 38.3232 20.3918 37.7846 19.8945C37.2461 19.3972 36.5761 19.0651 35.8543 18.9375C35.1325 18.8099 34.3893 18.8923 33.7129 19.1749C33.0366 19.4574 32.4556 19.9283 32.0391 20.5314C31.8047 20.8763 31.4889 21.158 31.1197 21.3518C30.7505 21.5456 30.3393 21.6454 29.9223 21.6424H29.9215C29.5045 21.6452 29.0933 21.5452 28.7241 21.3514C28.3549 21.1575 28.0392 20.8758 27.8047 20.531C27.4176 19.9703 26.8877 19.5231 26.2699 19.2359C25.6521 18.9486 24.9687 18.8316 24.2905 18.8969C23.6123 18.9623 22.9638 19.2077 22.4122 19.6076C21.8606 20.0076 21.4259 20.5477 21.1529 21.172C20.8668 20.5639 20.4254 20.042 19.8732 19.6589C19.3211 19.2758 18.6776 19.0451 18.0078 18.9901C17.3381 18.9351 16.6656 19.0577 16.0583 19.3455C15.451 19.6333 14.9303 20.0761 14.5488 20.6294C14.3141 20.974 13.9981 21.2556 13.6288 21.4493C13.2594 21.6429 12.8481 21.7427 12.4311 21.7399H12.4303C12.0136 21.7428 11.6026 21.6431 11.2336 21.4495C10.8645 21.2559 10.5489 20.9744 10.3145 20.6299C9.89797 20.0266 9.31697 19.5556 8.64056 19.273C7.96416 18.9903 7.22081 18.9079 6.4989 19.0354C5.77699 19.1629 5.10689 19.4951 4.56827 19.9924C4.02965 20.4897 3.64517 21.1312 3.46055 21.8406C2.61078 25.1348 2.51346 28.5781 3.17578 31.915L2.68359 31.9829C2.45939 32.014 2.25402 32.1252 2.1054 32.2959C1.95678 32.4666 1.87494 32.6853 1.875 32.9117V47.9117C1.875 48.1603 1.97377 48.3988 2.14959 48.5746C2.3254 48.7504 2.56386 48.8492 2.8125 48.8492H57.1875C57.4361 48.8492 57.6746 48.7504 57.8504 48.5746C58.0262 48.3988 58.125 48.1603 58.125 47.9117V31.9742C58.125 31.7422 58.0389 31.5185 57.8835 31.3462C57.7281 31.174 57.5144 31.0655 57.2836 31.0417ZM42.5307 19.9324C42.7289 19.6153 43.014 19.3619 43.352 19.2021C43.69 19.0424 44.0668 18.9831 44.4376 19.0312C44.8083 19.0793 45.1575 19.2329 45.4435 19.4737C45.7295 19.7144 45.9404 20.0323 46.0511 20.3894C46.264 21.0771 46.6408 21.7029 47.1489 22.2129C47.657 22.7229 48.2814 23.102 48.9683 23.3175C49.6552 23.5331 50.3842 23.5786 51.0926 23.4503C51.8011 23.322 52.4677 23.0236 53.0354 22.5808C53.3302 22.3508 53.6849 22.2104 54.0572 22.1762C54.4295 22.142 54.8038 22.2155 55.1356 22.3878C55.4673 22.5602 55.7426 22.8243 55.9286 23.1486C56.1147 23.4729 56.2036 23.8438 56.185 24.2172C56.0679 26.4677 55.5854 28.6842 54.7563 30.7797L39.5365 29.2056C39.5698 28.7816 39.5913 28.3569 39.6012 27.9316C40.0155 25.0916 41.0129 22.3682 42.5307 19.9324ZM29.9221 31.7113C29.1764 31.7122 28.4615 32.0088 27.9343 32.536C27.407 33.0633 27.1104 33.7782 27.1096 34.5238V40.3293C27.1095 40.5038 27.0493 40.6729 26.939 40.808C26.8287 40.9432 26.6751 41.0361 26.5042 41.0712C26.3333 41.1062 26.1555 41.0812 26.0009 41.0003C25.8464 40.9194 25.7244 40.7877 25.6557 40.6273L24.3383 37.5538C23.6597 35.9698 23.1301 34.326 22.7563 32.6437L22.5933 31.9094C22.5373 31.6576 22.4945 31.4031 22.4481 31.1494L23.1811 31.0483C27.7214 30.424 32.3201 30.3459 36.8789 30.8156L37.4476 30.8742C37.389 31.2206 37.326 31.5664 37.2497 31.9094L37.0867 32.6437C36.7129 34.326 36.1833 35.9698 35.5046 37.5538L34.1882 40.6269C34.1195 40.7872 33.9976 40.919 33.843 40.9998C33.6884 41.0807 33.5106 41.1057 33.3397 41.0707C33.1688 41.0357 33.0152 40.9427 32.9049 40.8076C32.7946 40.6724 32.7344 40.5033 32.7343 40.3288V34.524C32.7335 33.7783 32.437 33.0634 31.9098 32.5362C31.3826 32.0089 30.6677 31.7122 29.9221 31.7113ZM14.0273 32.3111L19.8555 31.5072C19.8231 31.6734 19.797 31.8408 19.7604 32.0062L19.5956 32.7418C19.2216 34.4237 18.6923 36.0673 18.0145 37.6513L16.6971 40.7248C16.6285 40.8853 16.5065 41.0171 16.3519 41.098C16.1973 41.1789 16.0195 41.204 15.8486 41.1689C15.6776 41.1339 15.524 41.0409 15.4137 40.9057C15.3034 40.7705 15.2431 40.6013 15.2432 40.4268V34.6218C15.2427 34.167 15.1319 33.7191 14.9201 33.3166C14.7083 32.9141 14.4019 32.5691 14.0273 32.3111ZM39.3239 31.0689L44.0214 31.5549C43.5326 31.9052 43.1702 32.4042 42.9884 32.9774L41.25 38.5156C41.1977 38.682 41.0897 38.8252 40.944 38.9211C40.7984 39.017 40.6241 39.0597 40.4507 39.042C40.2772 39.0243 40.1152 38.9473 39.9919 38.8239C39.8686 38.7006 39.7917 38.5385 39.7741 38.365L39.4382 35.0369C39.3057 33.7185 39.2676 32.3924 39.3241 31.0686L39.3239 31.0689ZM47.748 31.9399L53.9511 32.5816C53.7902 32.898 53.6248 33.2119 53.4472 33.5191L53.0722 34.1705C52.211 35.6632 51.2134 37.0728 50.0921 38.3814L47.915 40.9198C47.8014 41.0523 47.6455 41.1415 47.4737 41.1723C47.3019 41.2031 47.1247 41.1737 46.9721 41.089C46.8194 41.0043 46.7007 40.8695 46.636 40.7074C46.5713 40.5452 46.5645 40.3658 46.6168 40.1992L48.3554 34.6612C48.5003 34.194 48.5205 33.6971 48.4139 33.2197C48.3074 32.7423 48.0778 32.3011 47.748 31.9399ZM24.6562 20.7543C24.9721 20.7545 25.2831 20.8313 25.5627 20.9781C25.8424 21.1249 26.0822 21.3373 26.2617 21.5971C26.6708 22.1894 27.2175 22.6736 27.8549 23.008C28.4923 23.3425 29.2013 23.5173 29.9211 23.5174H29.922C30.6419 23.5173 31.3511 23.3425 31.9886 23.008C32.6262 22.6736 33.173 22.1894 33.5823 21.5971C33.7947 21.2895 34.0909 21.0493 34.4358 20.9052C34.7807 20.7611 35.1597 20.719 35.5278 20.7841C35.8959 20.8491 36.2375 21.0185 36.5122 21.2721C36.7868 21.5257 36.9828 21.8528 37.0768 22.2146C37.5478 24.0423 37.767 25.9257 37.7284 27.8126C37.6751 28.1974 37.6274 28.5829 37.5941 28.9699L37.5912 29.005L37.0713 28.9512C32.3631 28.465 27.6136 28.5457 22.9246 29.1916L22.1916 29.2926C22.1447 28.7678 22.1213 28.2415 22.1136 27.7145C22.1157 27.454 22.1186 27.1938 22.1116 26.9333C22.1476 25.3408 22.3673 23.7578 22.7663 22.2156C22.8751 21.7972 23.1197 21.4267 23.4618 21.1623C23.8038 20.8978 24.2239 20.7543 24.6562 20.7543ZM5.27543 22.3129C5.36951 21.951 5.56554 21.6238 5.84021 21.3701C6.11488 21.1164 6.45662 20.947 6.82481 20.8819C7.19299 20.8168 7.57213 20.8588 7.91712 21.003C8.26212 21.1471 8.55845 21.3873 8.7709 21.695C9.17998 22.2872 9.72669 22.7713 10.3641 23.1057C11.0015 23.4401 11.7105 23.6148 12.4303 23.6149H12.4311C13.1511 23.6148 13.8603 23.4401 14.4979 23.1056C15.1354 22.7711 15.6823 22.2869 16.0915 21.6945C16.3039 21.3869 16.6002 21.1469 16.9452 21.0028C17.2901 20.8588 17.6692 20.8168 18.0373 20.882C18.4053 20.9471 18.747 21.1166 19.0215 21.3702C19.2961 21.6239 19.492 21.9511 19.586 22.3129C19.9761 23.823 20.1942 25.3724 20.2362 26.9315C20.2304 27.1945 20.2362 27.4573 20.24 27.7204C20.2343 28.3393 20.2093 28.9579 20.1485 29.5738L5.03543 31.6586C4.40397 28.5657 4.48597 25.3695 5.2752 22.313L5.27543 22.3129ZM10.2836 32.8274C9.85699 33.3282 9.62144 33.9639 9.61863 34.6217V40.4267C9.61869 40.6012 9.55851 40.7704 9.44824 40.9056C9.33798 41.0409 9.18441 41.1339 9.01347 41.169C8.84254 41.2041 8.66473 41.1791 8.5101 41.0982C8.35547 41.0173 8.2335 40.8856 8.1648 40.7252L6.84715 37.6518C6.2734 36.3047 5.80649 34.9145 5.45074 33.4941L10.2836 32.8274ZM56.25 46.9742H3.75V34.4272C4.11437 35.7788 4.57359 37.1031 5.12426 38.3902L6.44168 41.4645C6.68065 42.0216 7.10458 42.4792 7.64187 42.76C8.17916 43.0407 8.79688 43.1274 9.3907 43.0054C9.98452 42.8835 10.518 42.5603 10.9012 42.0905C11.2843 41.6207 11.4935 41.033 11.4935 40.4268V34.6218C11.4935 34.3732 11.5923 34.1347 11.7681 33.9589C11.9439 33.7831 12.1824 33.6843 12.431 33.6843C12.6797 33.6843 12.9181 33.7831 13.0939 33.9589C13.2697 34.1347 13.3685 34.3732 13.3685 34.6218V40.4268C13.3684 41.0331 13.5776 41.6208 13.9608 42.0907C14.344 42.5606 14.8776 42.8838 15.4715 43.0058C16.0654 43.1277 16.6832 43.0409 17.2205 42.76C17.7578 42.4791 18.1817 42.0213 18.4205 41.464L19.7379 38.3897C20.3295 37.0035 20.8144 35.5741 21.1882 34.114C21.5593 35.5405 22.0364 36.9373 22.6154 38.2927L23.9329 41.3661C24.1717 41.9232 24.5955 42.3809 25.1328 42.6618C25.67 42.9426 26.2877 43.0294 26.8815 42.9076C27.4753 42.7857 28.0089 42.4626 28.3921 41.9929C28.7753 41.5231 28.9846 40.9355 28.9847 40.3293V34.524C28.9847 34.2753 29.0835 34.0369 29.2593 33.861C29.4351 33.6852 29.6735 33.5865 29.9222 33.5865C30.1708 33.5865 30.4093 33.6852 30.5851 33.861C30.7609 34.0369 30.8597 34.2753 30.8597 34.524V40.3293C30.8597 40.9356 31.069 41.5233 31.4522 41.9931C31.8354 42.4629 32.3691 42.786 32.963 42.9079C33.5569 43.0297 34.1747 42.9428 34.7119 42.6618C35.2492 42.3808 35.673 41.9229 35.9116 41.3656L37.2281 38.2927C37.4126 37.863 37.5866 37.4283 37.7503 36.9885L37.9084 38.554C37.9695 39.1572 38.2369 39.7207 38.6655 40.1495C39.094 40.5783 39.6574 40.846 40.2605 40.9075C40.8636 40.9689 41.4694 40.8203 41.9757 40.4868C42.4819 40.1533 42.8575 39.6552 43.039 39.0768L44.7773 33.5388C44.8135 33.4204 44.8727 33.3105 44.9515 33.2151C45.0304 33.1198 45.1273 33.041 45.2367 32.9833C45.3462 32.9256 45.4659 32.8901 45.5891 32.8789C45.7123 32.8677 45.8365 32.881 45.9546 32.9181C46.0726 32.9551 46.1822 33.0151 46.2769 33.0947C46.3716 33.1743 46.4497 33.2718 46.5065 33.3816C46.5634 33.4915 46.598 33.6115 46.6082 33.7348C46.6185 33.8581 46.6043 33.9822 46.5663 34.1L44.8279 39.6391C44.6199 40.3051 44.6845 41.0264 45.0074 41.645C45.3303 42.2635 45.8852 42.7289 46.5505 42.9391H46.5514C47.0429 43.0938 47.569 43.1006 48.0643 42.9588C48.5596 42.8169 49.0023 42.5327 49.3373 42.1413L51.5146 39.603C52.7121 38.2064 53.7771 36.7015 54.696 35.1077L55.071 34.4562C55.3838 33.9139 55.6648 33.3541 55.9309 32.7872L56.2493 32.8203L56.25 46.9742Z" fill="#000D44"/>
<path d="M37.2034 15.9886L40.0159 16.9261C40.2518 17.0048 40.5093 16.9865 40.7317 16.8754C40.9541 16.7642 41.1233 16.5692 41.202 16.3333C41.2806 16.0975 41.2624 15.84 41.1512 15.6176C41.0401 15.3951 40.8451 15.226 40.6092 15.1473L37.7967 14.2098C37.5608 14.1311 37.3034 14.1494 37.0809 14.2605C36.8585 14.3717 36.6894 14.5666 36.6107 14.8025C36.532 15.0384 36.5502 15.2959 36.6614 15.5183C36.7726 15.7407 36.9675 15.9099 37.2034 15.9886Z" fill="#000D44"/>
<path d="M42.236 13.5208C42.2725 13.6406 42.3326 13.7518 42.4128 13.8479C42.493 13.9441 42.5916 14.0232 42.7028 14.0806C42.8141 14.138 42.9357 14.1726 43.0605 14.1822C43.1853 14.1919 43.3108 14.1764 43.4295 14.1368C43.5483 14.0972 43.6579 14.0342 43.7519 13.9515C43.8459 13.8688 43.9224 13.7681 43.9769 13.6554C44.0313 13.5427 44.0627 13.4202 44.0691 13.2952C44.0754 13.1702 44.0567 13.0452 44.014 12.9275L43.0765 10.115C43.04 9.99524 42.9799 9.88402 42.8997 9.78788C42.8195 9.69174 42.7209 9.61262 42.6096 9.55521C42.4984 9.4978 42.3768 9.46325 42.252 9.4536C42.1272 9.44394 42.0017 9.45939 41.8829 9.49902C41.7642 9.53864 41.6546 9.60165 41.5606 9.68432C41.4666 9.767 41.3901 9.86766 41.3356 9.98037C41.2811 10.0931 41.2498 10.2156 41.2434 10.3406C41.237 10.4656 41.2558 10.5906 41.2985 10.7083L42.236 13.5208Z" fill="#000D44"/>
<path d="M47.1062 15.9052C47.2294 15.9053 47.3513 15.8812 47.4651 15.834C47.5789 15.7869 47.6822 15.7178 47.7692 15.6306L50.5817 12.8181C50.6703 12.7314 50.7409 12.628 50.7893 12.5138C50.8377 12.3997 50.863 12.2771 50.8637 12.1531C50.8644 12.0291 50.8405 11.9062 50.7934 11.7915C50.7462 11.6768 50.6768 11.5726 50.5891 11.4849C50.5015 11.3972 50.3973 11.3278 50.2826 11.2807C50.1679 11.2336 50.045 11.2096 49.921 11.2103C49.797 11.211 49.6744 11.2363 49.5602 11.2847C49.446 11.3331 49.3426 11.4037 49.2559 11.4924L46.4434 14.3049C46.3124 14.436 46.2231 14.603 46.1869 14.7848C46.1508 14.9667 46.1694 15.1551 46.2403 15.3264C46.3112 15.4977 46.4314 15.6441 46.5855 15.7471C46.7396 15.8501 46.9209 15.9051 47.1062 15.9052Z" fill="#000D44"/>
<path d="M20.625 42.2867H22.5V44.1617H20.625V42.2867Z" fill="#000D44"/>
<path d="M29.0625 43.2242H30.9375V45.0992H29.0625V43.2242Z" fill="#000D44"/>
<path d="M38.4375 42.2867H40.3125V44.1617H38.4375V42.2867Z" fill="#000D44"/>
<path d="M51.5625 42.2867H53.4375V44.1617H51.5625V42.2867Z" fill="#000D44"/>
<path d="M11.25 43.2242H13.125V45.0992H11.25V43.2242Z" fill="#000D44"/>
</svg>
