<svg width="50" height="50" viewBox="0 0 50 50" fill="none" xmlns="http://www.w3.org/2000/svg">
<g clip-path="url(#clip0_125_7049)">
<path d="M49.1667 20.0001V30.0001C45.6975 30.2138 42.539 32.0717 40.6667 35.0001C37.2708 40.8827 31.1214 44.6398 24.3373 44.9766C17.5532 45.3135 11.0619 42.1841 7.10001 36.6667C3.33334 35.0001 0.833344 31.4417 0.833344 25.0001C0.833344 18.5584 3.33334 15.0001 7.08334 13.3334C11.044 7.8085 17.5399 4.67366 24.3294 5.01061C31.119 5.34756 37.2725 9.11016 40.6667 15.0001C42.539 17.9284 45.6975 19.7863 49.1667 20.0001Z" fill="#04CE78"/>
<path d="M40.6667 15.0001C37.0917 8.80813 30.4832 4.99554 23.3334 5.00013C22.9 5.00013 22.5 5.00013 22.05 5.00012C28.7617 5.41216 34.8171 9.1694 38.1667 15.0001C40.039 17.9285 43.1975 19.7864 46.6667 20.0001V30.0001C43.1975 30.2139 40.039 32.0718 38.1667 35.0001C34.8171 40.8309 28.7617 44.5881 22.05 45.0001C22.475 45.0001 22.8834 45.0001 23.3334 45.0001C30.4832 45.0047 37.0917 41.1921 40.6667 35.0001C42.539 32.0718 45.6975 30.2139 49.1667 30.0001V20.0001C45.6975 19.7864 42.539 17.9285 40.6667 15.0001Z" fill="#1F5FFF"/>
<path d="M15.8333 25.0001C15.8333 29.6001 13.7833 33.3334 11.25 33.3334C11.1114 33.3469 10.9719 33.3469 10.8333 33.3334C9.16667 33.0751 7.80833 31.2584 7.125 28.7001C7.34406 28.9955 7.68283 29.1786 8.05 29.2001C9.16667 29.1668 10 27.3001 10 25.0001C10 22.7001 9.16667 20.8334 8.06667 20.8334C7.6995 20.8549 7.36073 21.038 7.14167 21.3334C7.825 18.7751 9.20833 16.9584 10.8333 16.6668C10.9664 16.6544 11.1003 16.6544 11.2333 16.6668C13.7833 16.6668 15.8333 20.4001 15.8333 25.0001Z" fill="#04CE78"/>
<path d="M11.25 16.6667C11.1114 16.6533 10.9719 16.6533 10.8333 16.6667C10.5423 16.7207 10.2612 16.8191 10 16.9584C11.925 17.9584 13.3333 21.125 13.3333 24.9667C13.3333 28.8084 11.9333 31.975 10 32.975C10.2572 33.1376 10.5384 33.2585 10.8333 33.3334C10.9664 33.3457 11.1003 33.3457 11.2333 33.3334C13.7333 33.3334 15.8167 29.6 15.8167 25C15.8167 20.4 13.7833 16.6667 11.25 16.6667Z" fill="#1F5FFF"/>
<path d="M10 25C10 27.3 9.16668 29.1667 8.06668 29.1667C7.69951 29.1453 7.36074 28.9621 7.14168 28.6667C6.50844 26.2633 6.50844 23.7368 7.14168 21.3334C7.36074 21.0379 7.69951 20.8548 8.06668 20.8334C9.16668 20.8334 10 22.7 10 25Z" fill="#1F5FFF"/>
<path d="M49.1667 23.3334V26.6667H44.4084C41.2058 26.6534 38.2836 28.4911 36.9084 31.3834C36.6262 31.9896 36.3003 32.5744 35.9334 33.1334C34.9084 31.9917 34.1667 28.8167 34.1667 25.0834C34.1667 21.35 34.9334 18.0584 35.9917 16.9584C36.3348 17.4925 36.641 18.0493 36.9084 18.625C38.2836 21.5173 41.2058 23.355 44.4084 23.3417L49.1667 23.3334Z" fill="#1F5FFF"/>
<path d="M46.6667 23.3334H49.1667V26.6667H46.6667V23.3334Z" fill="#04CE78"/>
<path d="M34.1667 25.0835C34.1667 28.8168 34.9083 31.9918 35.9333 33.1335C33.1959 37.3891 28.4973 39.9778 23.4374 40.0182C18.3775 40.0585 13.6383 37.545 10.8333 33.3335C10.9664 33.3458 11.1003 33.3458 11.2333 33.3335C13.7333 33.3335 15.8167 29.6001 15.8167 25.0001C15.8167 20.4001 13.7667 16.6668 11.2333 16.6668C11.1003 16.6544 10.9664 16.6544 10.8333 16.6668C13.6447 12.4431 18.4007 9.92694 23.4742 9.97907C28.5477 10.0312 33.251 12.6446 35.975 16.9251C34.9333 18.0585 34.1667 21.2835 34.1667 25.0835Z" fill="white"/>
<path d="M35 25.1751C35 25.1751 35 25.1751 35 25.1167C35.0054 25.078 35.0054 25.0388 35 25.0001C35.0866 24.5492 34.7922 24.1133 34.3417 24.0251C32.7333 23.6917 30.8333 22.8917 30.8333 20.8334C30.8495 19.8597 30.726 18.8887 30.4667 17.9501C30.4677 17.9307 30.4677 17.9112 30.4667 17.8917C29.6667 15.3417 27.6417 14.1667 24.1667 14.1667C23.7064 14.1667 23.3333 14.5398 23.3333 15.0001C23.3333 15.4603 23.7064 15.8334 24.1667 15.8334C26.2583 15.8334 27.5833 16.2584 28.3333 17.2917C26.9206 17.3109 25.587 17.9473 24.6833 19.0334C24.6008 19.131 24.5117 19.2229 24.4167 19.3084C24.0339 19.7397 23.4849 19.9865 22.9083 19.9865C22.3317 19.9865 21.7827 19.7397 21.4 19.3084C21.191 19.0761 20.8696 18.9801 20.5675 19.06C20.2654 19.1398 20.0333 19.382 19.9664 19.6872C19.8995 19.9925 20.009 20.3095 20.25 20.5084C20.9363 21.228 21.8808 21.6448 22.875 21.6667C23.8894 21.6371 24.8545 21.223 25.575 20.5084C25.6833 20.4084 25.7917 20.2917 25.9083 20.1667C26.6597 19.2496 27.8337 18.7888 29.0083 18.9501C29.1226 19.5712 29.1756 20.202 29.1667 20.8334C29.1667 22.8751 30.4 24.4251 32.5833 25.2251C31.6089 25.7131 30.7331 26.377 30 27.1834C28.3333 26.1667 26.0167 26.9084 25.0583 27.3001L22.9333 25.9584C22.6803 25.8006 22.3623 25.7898 22.0991 25.9301C21.8359 26.0704 21.6675 26.3404 21.6574 26.6384C21.6473 26.9365 21.7969 27.2173 22.05 27.3751L23.7167 28.4084L22.7417 29.4251C22.5839 29.5816 22.4952 29.7946 22.4952 30.0167C22.4952 30.2389 22.5839 30.4519 22.7417 30.6084C22.9016 30.7583 23.1142 30.8392 23.3333 30.8334C23.5631 30.8348 23.7832 30.7414 23.9417 30.5751L25.4917 28.9084C26.25 28.5584 27.9917 28.0001 29.05 28.5584C28.6961 29.2285 28.454 29.9519 28.3333 30.7001C28.1374 32.129 27.3437 33.4073 26.15 34.2168C25.0994 34.7351 23.8673 34.7351 22.8167 34.2168C22.3886 34.0465 21.9036 34.2554 21.7333 34.6834C21.563 35.1114 21.772 35.5965 22.2 35.7667C22.9657 36.088 23.7864 36.2578 24.6167 36.2668C25.4448 36.2715 26.2601 36.062 26.9833 35.6584C28.6206 34.6049 29.721 32.8936 30 30.9667C30.4583 28.2001 32.6833 26.8667 34.4583 26.2334C34.6717 26.1666 34.8492 26.0169 34.9511 25.8178C35.053 25.6188 35.0706 25.3872 35 25.1751Z" fill="#1F5FFF"/>
<path d="M49.1667 19.1667C46.0036 18.9507 43.1251 17.2631 41.3917 14.6084C37.8793 8.51466 31.5293 4.6046 24.5067 4.21138C17.4842 3.81816 10.7374 6.99487 6.56667 12.6584C2.20833 14.675 0 18.825 0 25C0 31.175 2.20833 35.325 6.56667 37.3417C10.7374 43.0052 17.4842 46.1819 24.5067 45.7887C31.5293 45.3955 37.8793 41.4854 41.3917 35.3917C43.1251 32.737 46.0036 31.0494 49.1667 30.8334C49.6269 30.8334 50 30.4603 50 30V20C50 19.5398 49.6269 19.1667 49.1667 19.1667ZM39.9417 34.5584C36.6997 40.2039 30.8138 43.8178 24.3124 44.1547C17.811 44.4915 11.583 41.5052 7.775 36.225C7.67552 36.0865 7.5359 35.9817 7.375 35.925C3.58333 34.1667 1.66667 30.5167 1.66667 25C1.66667 19.4834 3.575 15.8334 7.34167 14.1667C7.51708 14.1118 7.66943 14.0005 7.775 13.85C11.583 8.56984 17.811 5.58357 24.3124 5.92043C30.8138 6.25729 36.6997 9.87122 39.9417 15.5167C41.8227 18.4349 44.8912 20.379 48.3333 20.8334V22.5H44.4083C41.5324 22.5085 38.9084 20.8608 37.6667 18.2667C35.039 12.7271 29.4645 9.18791 23.3333 9.16671C18.1507 9.16045 13.2963 11.7029 10.35 15.9667C7.75833 16.6667 5.83333 20.3834 5.83333 25C5.83333 29.6167 7.75833 33.3334 10.35 34.0334C13.5804 38.6723 19.0388 41.2371 24.6718 40.7628C30.3047 40.2885 35.2575 36.8471 37.6667 31.7334C38.9084 29.1393 41.5324 27.4916 44.4083 27.5H48.3333V29.1667C44.8779 29.6385 41.807 31.6116 39.9417 34.5584ZM48.3333 25.8334H44.4083C40.8899 25.8372 37.6841 27.8546 36.1583 31.025C36.0917 31.1667 36.0083 31.3084 35.9417 31.4417C35.2627 29.3926 34.944 27.2413 35 25.0834C34.9379 22.887 35.268 20.6971 35.975 18.6167C36.0333 18.7334 36.1 18.85 36.1583 18.975C37.6841 22.1455 40.8899 24.1629 44.4083 24.1667H48.3333V25.8334ZM8.06667 21.6667C8.33333 21.6667 9.16667 22.8167 9.16667 25C9.16667 27.1834 8.33333 28.3334 8.06667 28.3334C7.9914 28.3116 7.92269 28.2715 7.86667 28.2167C7.37774 26.1001 7.37774 23.9 7.86667 21.7834C7.92269 21.7286 7.9914 21.6885 8.06667 21.6667ZM10.8333 25C10.8333 22.35 9.85833 20.3667 8.45833 20.05C9.16667 18.4417 10.2417 17.5 11.25 17.5C13.0583 17.5 15 20.5167 15 25C15 29.4834 13.0583 32.5 11.25 32.5C10.2417 32.5 9.19167 31.5584 8.45833 29.95C9.85833 29.6334 10.8333 27.65 10.8333 25ZM16.6667 25C16.6667 20.5167 14.8583 16.8917 12.3833 16.0334C15.1991 12.5879 19.47 10.6656 23.9161 10.8425C28.3623 11.0195 32.467 13.2751 35 16.9334C33.9917 18.5 33.3333 21.5667 33.3333 25.0834C33.3333 28.6 33.9417 31.5584 34.9167 33.1417C32.2559 36.9038 27.9412 39.1481 23.3333 39.1667C19.0868 39.1697 15.0647 37.2597 12.3833 33.9667C14.8583 33.1084 16.6667 29.475 16.6667 25Z" fill="#000D44"/>
</g>
<defs>
<clipPath id="clip0_125_7049">
<rect width="50" height="50" fill="white"/>
</clipPath>
</defs>
</svg>
