<svg width="50" height="50" viewBox="0 0 50 50" fill="none" xmlns="http://www.w3.org/2000/svg">
<g clip-path="url(#clip0_124_6288)">
<path d="M33.3081 4.43542C31.5411 4.43542 29.7895 4.89672 28.3129 5.86768C27.5185 6.38946 26.4145 6.85478 25 6.85478C23.5855 6.85478 22.4814 6.38946 21.6871 5.86768C20.2113 4.89672 18.4589 4.43542 16.6919 4.43542C11.4823 4.43542 7.25806 8.65962 7.25806 13.8693V15.9959C7.25806 21.6112 8.87257 27.108 11.9089 31.8314C13.6355 34.5169 14.9113 37.4669 15.6855 40.5645L16.5637 44.0766C16.7822 44.9507 17.5677 45.5645 18.4693 45.5645C19.4419 45.5645 20.2677 44.8532 20.4121 43.8911L22.2218 31.8282C22.4282 30.4532 23.6097 29.4354 25 29.4354C26.3903 29.4354 27.5718 30.4532 27.7782 31.8282L29.5879 43.8911C29.7322 44.8532 30.5581 45.5645 31.5306 45.5645C32.4323 45.5645 33.2177 44.9507 33.4363 44.0766L34.3145 40.5645C35.0887 37.4669 36.3645 34.5169 38.0911 31.8314C40.4452 28.1701 41.9443 24.0435 42.4992 19.758L42.6427 12.4999C41.9798 7.93865 38.0532 4.43542 33.3081 4.43542Z" fill="white"/>
<path d="M25.4032 27.0161C18.3556 27.0161 12.0516 24.9548 7.83548 21.7129C8.54919 25.2943 9.91532 28.7314 11.9089 31.8314C13.6355 34.5169 14.9113 37.4669 15.6855 40.5645L16.5637 44.0766C16.7823 44.9508 17.5677 45.5645 18.4694 45.5645C19.4419 45.5645 20.2677 44.8532 20.4121 43.8911L22.2218 31.8282C22.4282 30.4532 23.6097 29.4355 25 29.4355C26.3903 29.4355 27.5718 30.4532 27.7782 31.8282L29.5879 43.8911C29.7323 44.8532 30.5581 45.5645 31.5306 45.5645C32.4323 45.5645 33.2177 44.9508 33.4363 44.0766L34.3145 40.5645C35.0887 37.4669 36.3645 34.5169 38.0911 31.8314C39.9573 28.9282 41.2766 25.7306 42.0242 22.3951C37.8387 25.2403 31.9419 27.0161 25.4032 27.0161Z" fill="#04CE78"/>
<path d="M37.0968 16.5323C40.6597 16.5323 43.5484 13.6436 43.5484 10.0807C43.5484 13.6436 46.4371 16.5323 50 16.5323C46.4371 16.5323 43.5484 19.421 43.5484 22.9839C43.5484 19.421 40.6597 16.5323 37.0968 16.5323Z" fill="#FCD770"/>
<path d="M0 37.5001C3.5629 37.5001 6.45161 34.6114 6.45161 31.0485C6.45161 34.6114 9.34032 37.5001 12.9032 37.5001C9.34032 37.5001 6.45161 40.3888 6.45161 43.9517C6.45161 40.3888 3.5629 37.5001 0 37.5001Z" fill="#FCD770"/>
<path d="M11.2903 15.996V15.7258H9.67743V15.996C9.67743 16.4581 9.68953 16.9202 9.71291 17.3799L11.3242 17.2976C11.3024 16.8645 11.2903 16.4315 11.2903 15.996Z" fill="#000D44"/>
<path d="M9.85001 19.0427C10.3113 23.1048 11.7274 27.0749 13.9444 30.5225L15.3008 29.6499C13.2169 26.4088 11.8871 22.6774 11.4524 18.8596L9.85001 19.0427Z" fill="#000D44"/>
<path d="M25 9.27421C23.3048 9.27421 21.671 8.77582 20.2742 7.83308L19.3718 9.17018C21.0363 10.2936 22.9822 10.8871 25 10.8871C27.0177 10.8871 28.9637 10.2936 30.629 9.16937L29.7266 7.83228C28.3298 8.77582 26.6952 9.27421 25 9.27421Z" fill="#000D44"/>
<path d="M7.25806 31.0483H5.64516C5.64516 34.1604 3.1121 36.6935 0 36.6935V38.3064C3.1121 38.3064 5.64516 40.8395 5.64516 43.9516H7.25806C7.25806 40.8395 9.79113 38.3064 12.9032 38.3064V36.6935C9.79113 36.6935 7.25806 34.1604 7.25806 31.0483ZM6.45161 40.6411C5.75806 39.2943 4.65726 38.1935 3.31048 37.5C4.65726 36.8064 5.75806 35.7056 6.45161 34.3588C7.14516 35.7056 8.24597 36.8064 9.59274 37.5C8.24597 38.1935 7.14516 39.2943 6.45161 40.6411Z" fill="#000D44"/>
<path d="M44.3548 10.0806H42.8105C41.2831 6.28145 37.5443 3.62903 33.3081 3.62903C31.3081 3.62903 29.4274 4.17016 27.8693 5.19274C26.1443 6.32822 23.8564 6.32822 22.1306 5.19274C20.5734 4.17016 18.6927 3.62903 16.6919 3.62903C11.0451 3.62903 6.4516 8.22258 6.4516 13.8694V15.996C6.4516 21.7782 8.10483 27.404 11.2314 32.2677C12.9137 34.8847 14.1492 37.7419 14.904 40.7597L15.7814 44.271C16.0895 45.5081 17.1951 46.371 18.4693 46.371C19.8524 46.371 21.0056 45.3782 21.2097 44.0105L23.0185 31.9476C23.1677 30.9597 24.0008 30.2419 25 30.2419C25.9992 30.2419 26.8322 30.9597 26.9806 31.9476L28.7895 44.0105C28.9943 45.3782 30.1476 46.371 31.5306 46.371C32.8048 46.371 33.9105 45.5081 34.2185 44.271L35.0968 40.7597C35.8516 37.7411 37.0879 34.8839 38.7701 32.2677C40.6081 29.4081 41.9524 26.2145 42.7387 22.9C42.7379 22.9282 42.7419 22.9556 42.7419 22.9839H44.3548C44.3548 19.8718 46.8879 17.3387 50 17.3387V15.7258C46.8879 15.7258 44.3548 13.1927 44.3548 10.0806ZM37.4129 31.3952C35.6347 34.1613 34.3298 37.1806 33.5322 40.3694L32.6532 43.8806C32.525 44.3976 32.0629 44.7581 31.5306 44.7581C30.9524 44.7581 30.471 44.3427 30.3855 43.771L28.5766 31.7081C28.3089 29.9234 26.804 28.629 25 28.629C23.196 28.629 21.6911 29.9234 21.4234 31.7081L19.6145 43.771C19.5298 44.3427 19.0476 44.7581 18.4693 44.7581C17.9371 44.7581 17.475 44.3976 17.3451 43.8806L16.4669 40.3694C15.6701 37.1798 14.3645 34.1605 12.5863 31.3952C9.62821 26.7927 8.0645 21.4677 8.0645 15.996V13.8694C8.0645 9.11209 11.9347 5.24193 16.6919 5.24193C18.3766 5.24193 19.9508 5.69113 21.2443 6.54113C22.3742 7.28387 23.6387 7.66129 25 7.66129C26.3613 7.66129 27.6258 7.28387 28.7548 6.54113C30.0492 5.69113 31.6234 5.24193 33.3081 5.24193C37.5629 5.24193 41.2339 8.41209 41.8387 12.5516L41.8726 13.0766C40.8726 14.6645 39.1081 15.7258 37.0968 15.7258V17.3387C38.9903 17.3387 40.6653 18.279 41.6895 19.7137C41.1451 23.8492 39.6677 27.8871 37.4129 31.3952ZM43.5484 19.6734C42.8548 18.3266 41.754 17.2258 40.4072 16.5323C41.754 15.8387 42.8548 14.7379 43.5484 13.3911C44.2419 14.7379 45.3427 15.8387 46.6895 16.5323C45.3427 17.2258 44.2419 18.3266 43.5484 19.6734Z" fill="#000D44"/>
</g>
<defs>
<clipPath id="clip0_124_6288">
<rect width="50" height="50" fill="white"/>
</clipPath>
</defs>
</svg>
