<svg width="50" height="50" viewBox="0 0 50 50" fill="none" xmlns="http://www.w3.org/2000/svg">
<g clip-path="url(#clip0_302_8495)">
<path d="M18.5825 23.4129C18.5825 23.4129 14.8677 14.1052 18.8904 7.4625C22.7726 1.05174 30.3545 -0.835368 38.4023 2.03886C46.4502 4.91308 49.6298 14.8677 47.2094 20.6829C43.8411 28.7756 34.9232 33.3443 33.7916 39.5022C32.406 47.0422 25.0946 50.6118 20.6742 48.8005C16.5822 47.1238 12.8274 42.6251 16.9175 34.3742C20.2581 27.6353 18.5825 23.4129 18.5825 23.4129Z" fill="#04CE78"/>
<path d="M43.8025 5.65222C46.1612 9.67528 46.6985 14.5879 45.2613 18.0408C41.893 26.1335 32.9751 30.7022 31.8435 36.8601C30.4578 44.4001 23.1465 47.9697 18.7261 46.1584C17.7158 45.7444 16.7263 45.1581 15.8701 44.386C16.8554 46.5637 18.7263 48.002 20.6742 48.8003C25.0948 50.6115 32.406 47.042 33.7917 39.502C34.9234 33.3441 43.8412 28.7754 47.2095 20.6827C48.9821 16.4236 47.7505 9.94422 43.8025 5.65222Z" fill="#1F5FFF"/>
<path d="M23.4506 16.4459C23.4506 16.4459 26.3753 10.2381 32.9742 10.2381C39.5732 10.2381 42.0483 15.5479 42.0483 15.5479C42.3888 8.36219 33.5161 4.19461 27.3364 7.84217C23.9758 9.82577 23.3352 13.5035 23.4504 16.446" fill="#1F5FFF"/>
<path d="M37.3564 21.5354C36.9815 15.6249 30.9004 11.2538 23.4507 16.4459L24.1751 20.8652C24.1751 20.8652 27.8927 20.6446 28.0634 23.7694C28.2256 26.7393 24.1751 26.9949 24.1751 26.9949L23.988 26.8804C23.7377 28.3668 23.2895 29.8864 22.5099 31.1247C22.5099 31.1247 20.2331 37.8288 24.4074 38.0819C28.5817 38.3349 27.2219 32.9111 29.6253 31.1402C32.0285 29.3691 37.6395 25.9986 37.3564 21.5354Z" fill="#1F5FFF"/>
<path d="M37.2231 23.0744C37.3398 22.5772 37.3899 22.064 37.3564 21.5354C36.9815 15.6249 30.9003 11.2538 23.4507 16.4459L23.8359 18.7963C30.6534 14.3159 36.246 17.8323 37.2231 23.0744Z" fill="#1F5FFF"/>
<path d="M32.1962 43.7901C31.8645 43.5596 31.4089 43.6416 31.1784 43.9735C29.9153 45.7917 28.1269 47.207 26.1428 47.9585C24.2952 48.6583 22.4029 48.7184 20.9512 48.1237C19.6669 47.5974 17.3631 46.3193 16.3639 43.6713C15.4348 41.2095 15.8416 38.1906 17.5725 34.6987C21.0181 27.748 19.3354 23.3279 19.2617 23.1422C19.2484 23.1089 17.934 19.763 17.7676 15.7604C17.7508 15.3569 17.4082 15.0417 17.0067 15.0602C16.6032 15.077 16.2897 15.4177 16.3065 15.8212C16.4838 20.0833 17.8454 23.539 17.9028 23.6827C17.9184 23.7219 19.4217 27.6761 16.2623 34.0493C14.3436 37.9196 13.9174 41.3307 14.9957 44.1878C15.8811 46.5343 17.7993 48.4128 20.3967 49.4771C21.262 49.8316 22.2016 50.0001 23.1716 50.0001C26.4777 50.0001 30.1337 48.0408 32.3796 44.8078C32.61 44.4762 32.5278 44.0205 32.1962 43.7901Z" fill="#000D44"/>
<path d="M47.2693 9.65879C45.4965 5.65321 42.4347 2.70262 38.6481 1.35037C34.5171 -0.125216 30.4523 -0.397384 26.8936 0.562872C23.234 1.55037 20.2501 3.80516 18.2648 7.08369C17.2337 8.78623 16.5987 10.7949 16.3771 13.0543C16.3377 13.4562 16.6316 13.814 17.0334 13.8534C17.4361 13.8929 17.7931 13.5989 17.8325 13.1971C18.0325 11.1572 18.5988 9.35537 19.5157 7.8414C23.1308 1.87157 30.2736 -0.0878133 38.1563 2.72752C41.5616 3.94374 44.3231 6.61542 45.932 10.2506C47.4666 13.7177 47.6973 17.6074 46.5342 20.4019C44.9383 24.2363 42.0779 27.2304 39.3117 30.1257C36.4205 33.1521 33.6896 36.0104 33.0723 39.37C32.9113 40.2463 32.6589 41.0951 32.3223 41.8927C32.1654 42.2648 32.3397 42.6938 32.7118 42.8507C32.8045 42.8899 32.901 42.9085 32.9958 42.9085C33.2809 42.9085 33.552 42.7406 33.6699 42.4613C34.0477 41.566 34.3305 40.6148 34.5108 39.6342C35.0492 36.7047 37.5146 34.1241 40.3693 31.136C43.0949 28.2831 46.1839 25.0497 47.8846 20.9638C49.1964 17.8118 48.9606 13.4799 47.2693 9.65879Z" fill="#000D44"/>
<path d="M42.0136 16.2782C42.0254 16.2787 42.0371 16.279 42.0488 16.279C42.4367 16.279 42.76 15.974 42.7786 15.5824C42.9378 12.2226 41.2677 9.23368 38.1964 7.38231C34.7341 5.2953 30.3255 5.22869 26.9646 7.21229C26.6169 7.41756 26.5014 7.86591 26.7065 8.21366C26.9119 8.56132 27.3601 8.67704 27.708 8.47167C30.6125 6.75721 34.4329 6.82127 37.4412 8.63466C40.0377 10.1998 41.4506 12.7068 41.3177 15.513C41.2988 15.9166 41.6101 16.2591 42.0136 16.2782Z" fill="#000D44"/>
<path d="M25.8967 8.88913C25.5876 8.62926 25.1263 8.6693 24.8665 8.97838C23.346 10.7874 22.6086 13.3606 22.7206 16.4344C22.7202 16.458 22.7214 16.4814 22.7234 16.5053C22.7272 16.5995 22.7292 16.6928 22.7346 16.7879C22.8708 19.178 23.4539 21.0123 23.4787 21.0892C23.4798 21.0925 23.4815 21.0953 23.4826 21.0985C23.4945 21.1339 23.5086 21.1682 23.5253 21.2006C23.5262 21.2024 23.5274 21.2043 23.5284 21.2061C23.5465 21.2402 23.5669 21.2726 23.5897 21.3031C23.59 21.3035 23.5903 21.3039 23.5906 21.3043C23.6139 21.3351 23.6397 21.3638 23.6674 21.3904C23.6689 21.3918 23.6703 21.3932 23.6717 21.3945C23.757 21.4754 23.8607 21.535 23.9747 21.5677C23.9753 21.5679 23.9758 21.568 23.9764 21.5682C24.0138 21.5788 24.0522 21.5865 24.0915 21.5911C24.0935 21.5913 24.0956 21.5914 24.0976 21.5917C24.136 21.5958 24.175 21.5974 24.2144 21.5952C24.215 21.5952 24.2156 21.5953 24.2162 21.5953C24.2162 21.5953 24.218 21.5952 24.2184 21.5952C24.2187 21.5952 24.2189 21.5952 24.2192 21.5952C24.2548 21.5934 25.0586 21.5603 25.8458 21.8473C26.7934 22.1927 27.2801 22.8346 27.3333 23.8094C27.4538 26.0157 24.2633 26.2561 24.1275 26.2652C23.7253 26.2915 23.4199 26.6385 23.4453 27.041C23.4698 27.4284 23.7915 27.7263 24.1744 27.7263C24.1899 27.7263 24.2054 27.7258 24.2212 27.7248C25.8724 27.6206 28.9531 26.6515 28.7935 23.7296C28.7373 22.6987 28.3544 21.86 27.6555 21.2364C26.7543 20.4323 25.542 20.2085 24.7989 20.1502L24.248 16.7892C28.3598 14.0884 31.3479 14.8149 32.785 15.5079C34.9844 16.5685 36.4562 18.896 36.6267 21.5818C36.7336 23.268 35.8813 24.972 34.0212 26.7912C33.7325 27.0735 33.7273 27.5366 34.0097 27.8253C34.1529 27.9718 34.3426 28.0452 34.5324 28.0452C34.7169 28.0452 34.9015 27.9759 35.0437 27.8367C37.2266 25.702 38.2217 23.6257 38.0861 21.4892C37.8823 18.2769 36.0945 15.4804 33.4203 14.1905C31.7934 13.4058 28.5313 12.5655 24.1913 15.1035C24.2818 13.3091 24.7406 11.4013 25.9863 9.9193C26.2459 9.61032 26.2059 9.14899 25.8967 8.88913Z" fill="#000D44"/>
<path d="M21.8176 30.8895C21.6668 31.3336 20.3864 35.2904 21.8477 37.4663C22.3941 38.2799 23.2639 38.745 24.3631 38.8116C24.4765 38.8185 24.5863 38.8219 24.6933 38.8219C27.4999 38.8216 28.1372 36.507 28.6524 34.6337C28.984 33.4285 29.2971 32.2903 30.059 31.7288C30.3229 31.5343 30.6349 31.3142 30.9652 31.0811C31.6184 30.6201 32.3586 30.0976 33.1228 29.5002C33.4409 29.2515 33.4973 28.792 33.2485 28.4737C32.9999 28.1557 32.5404 28.0993 32.2221 28.348C31.486 28.9233 30.7613 29.4348 30.122 29.886C29.7853 30.1236 29.4674 30.3481 29.1914 30.5514C28.0214 31.4135 27.6253 32.8533 27.2423 34.2457C26.6763 36.3032 26.2681 37.4625 24.4514 37.3518C23.7983 37.3122 23.3568 37.0898 23.0623 36.6519C22.1621 35.3136 22.8578 32.3785 23.2021 31.3598C23.332 30.9774 23.1272 30.562 22.745 30.4321C22.3629 30.3026 21.9474 30.5071 21.8176 30.8895Z" fill="#000D44"/>
<path d="M1.47516 20.4459C1.19723 20.7389 1.20934 21.2017 1.5025 21.4797C2.45368 22.3819 3.02155 23.9085 3.02155 25.563C3.02155 27.2175 2.45368 28.744 1.5025 29.6463C1.20953 29.9242 1.19733 30.3871 1.47526 30.6801C1.6191 30.8317 1.81217 30.908 2.00582 30.908C2.18649 30.908 2.36754 30.8414 2.50895 30.7072C3.74557 29.534 4.48395 27.6108 4.48395 25.5629C4.48395 23.5148 3.74557 21.5917 2.50895 20.4184C2.21578 20.1407 1.75299 20.1529 1.47516 20.4459Z" fill="#000D44"/>
<path d="M6.08065 17.2077C5.78778 16.9298 5.32489 16.9419 5.04686 17.235C4.76903 17.5279 4.78114 17.9907 5.07421 18.2687C6.78671 19.8933 7.80908 22.6199 7.80908 25.5628C7.80908 28.5056 6.78671 31.2324 5.07421 32.8569C4.78124 33.1348 4.76903 33.5977 5.04686 33.8907C5.19071 34.0422 5.38387 34.1186 5.57743 34.1186C5.75819 34.1186 5.93915 34.052 6.08065 33.9178C8.07861 32.0224 9.27138 28.899 9.27138 25.5628C9.27148 22.2265 8.0787 19.1031 6.08065 17.2077Z" fill="#000D44"/>
<path d="M9.84834 14.2913C9.55537 14.0134 9.09258 14.0256 8.81455 14.3186C8.53652 14.6117 8.54873 15.0744 8.8419 15.3524C11.2459 17.6329 12.6811 21.45 12.6811 25.563C12.6811 29.676 11.2459 33.4931 8.8419 35.7737C8.54893 36.0516 8.53672 36.5145 8.81455 36.8074C8.9584 36.959 9.15156 37.0354 9.34522 37.0354C9.52588 37.0354 9.70694 36.9688 9.84834 36.8346C12.5378 34.2832 14.1436 30.0695 14.1436 25.563C14.1436 21.0564 12.5378 16.8426 9.84834 14.2913Z" fill="#000D44"/>
</g>
<defs>
<clipPath id="clip0_302_8495">
<rect width="50" height="50" fill="white"/>
</clipPath>
</defs>
</svg>
