<svg width="50" height="50" viewBox="0 0 50 50" fill="none" xmlns="http://www.w3.org/2000/svg">
<path d="M25.1429 9.81313C25.2734 9.80212 25.9753 9.75011 26.9327 9.78522C26.6963 10.2553 26.5203 10.8033 26.43 11.4363L26.4294 11.4406C26.2832 12.483 25.8064 13.3765 25.1451 14.5661C25.1193 14.6123 25.093 14.6595 25.0661 14.7076C25.0447 14.7458 25.023 14.7845 25.0011 14.8239C24.9819 14.7895 24.963 14.7556 24.9443 14.7222C24.9149 14.6695 24.8862 14.6179 24.8581 14.5674L24.8566 14.5647C24.1992 13.386 23.7224 12.4873 23.5726 11.4376C23.4831 10.8044 23.3076 10.2566 23.0714 9.78666C23.9565 9.75445 24.6254 9.79662 24.8307 9.81347L24.9868 9.82629L25.1429 9.81313Z" fill="#000D44" stroke="#04CE78" stroke-width="3.76471"/>
<path d="M48.3822 9.64336C48.6322 7.50733 49.0513 3.93748 44.9005 2.73159C41.2903 1.68012 39.827 3.8088 38.8601 5.21689C38.7498 5.37865 38.6432 5.53306 38.5403 5.67277C38.1653 6.1838 37.9042 6.15439 37.4704 6.09924C37.0403 6.04777 36.452 5.97792 35.8381 6.59189C35.5108 6.91542 35.2939 7.44115 35.0807 7.94483C34.838 8.52571 34.5586 9.18748 34.2241 9.22792C34.0108 9.25365 33.5145 9.09189 32.4888 7.72424C29.5292 3.77939 25.1689 3.94115 25.0108 3.9485C24.827 3.94115 20.4667 3.77939 17.5072 7.72424C16.4814 9.09189 15.9851 9.25733 15.7719 9.22792C15.4373 9.18748 15.1579 8.52571 14.9153 7.94483C14.702 7.44115 14.4851 6.91542 14.1579 6.59189C13.5439 5.97792 12.9557 6.04777 12.5255 6.09924C12.0917 6.15439 11.8307 6.1838 11.4557 5.67277C11.3528 5.53306 11.2461 5.37865 11.1358 5.21689C10.1689 3.8088 8.7057 1.68012 5.0954 2.73159C0.948344 3.93748 1.36746 7.50733 1.61378 9.64336C1.87849 11.886 1.47776 14.8529 1.47408 14.8823C1.45202 15.0404 1.5329 15.1912 1.67261 15.2647C1.72408 15.2904 1.7829 15.3014 1.83805 15.3014C1.93364 15.3014 2.02555 15.2647 2.0954 15.1948L2.27555 15.0147C2.41526 15.4375 2.59173 15.8309 2.81231 16.1875C3.3932 17.1323 4.2829 17.8162 5.24614 18.0662C5.57334 18.147 5.90423 18.1838 6.23511 18.1838C7.10276 18.1838 7.95202 17.9448 8.67628 17.7389L11.3123 17C11.7535 16.875 12.5476 16.647 12.9116 16.0294C13.7719 16.0367 16.4998 15.9853 17.8858 15.1875C18.213 16.125 19.0403 18.1838 20.4189 19.6434C20.2388 20.6103 19.5329 24.9081 20.5366 27.8639C20.9336 29.0367 21.088 30.761 21.1836 32.2978C21.1947 32.4926 21.3564 32.6397 21.5513 32.6397H21.5733C21.7755 32.6287 21.93 32.4522 21.9153 32.25C21.816 30.6691 21.6579 28.8823 21.2351 27.625C20.1836 24.5404 21.1653 19.647 21.1763 19.5992C21.1983 19.4779 21.1616 19.3529 21.077 19.2647C19.3197 17.5037 18.441 14.5184 18.43 14.4889C18.3932 14.3639 18.2939 14.2684 18.1689 14.2353C18.0439 14.2022 17.9079 14.2389 17.816 14.3309C17.0439 15.1066 14.4557 15.2831 13.1101 15.2941C13.1101 15.011 13.0292 14.7132 12.8711 14.4044C13.1211 14.4375 13.3711 14.4522 13.6101 14.4522C15.8491 14.4522 17.5219 13.2389 17.6101 13.1764C17.7425 13.0735 17.7939 12.8934 17.7278 12.7389C17.4851 12.1507 17.6138 11.1103 17.6836 10.761C17.713 10.6176 17.6542 10.4706 17.5329 10.386C17.4153 10.3014 17.2572 10.2978 17.1322 10.3713C16.088 11.0037 15.2278 11.2095 14.5807 10.9816C13.7241 10.6801 13.3528 9.66174 13.1285 9.05145C13.0807 8.92277 13.0403 8.81248 13.0035 8.72792C12.7608 8.18012 12.1138 8.27203 11.4888 8.36027C10.4153 8.51468 9.74614 8.53306 9.5329 7.52571C9.23511 6.13233 8.49614 5.54042 7.92628 5.29042C7.0329 4.90071 5.92628 5.04777 4.80496 5.71321C2.77555 6.91542 3.60643 8.86027 4.1579 10.1434L4.24246 10.3492C4.49981 10.9595 5.04026 11.25 5.6579 11.3419L5.56231 11.397C5.45937 11.4559 5.3932 11.5625 5.38217 11.6801C5.37114 11.7941 5.41526 11.9117 5.50349 11.9889L5.59908 12.0735L4.63217 12.3162C4.46305 12.3566 4.3454 12.5147 4.35276 12.6875L4.3932 13.5588L3.5182 13.0992C3.37481 13.0257 3.20202 13.0551 3.08805 13.1654L2.31599 13.9375C2.41893 12.8382 2.52187 11.0662 2.34173 9.55512C2.02923 6.87498 2.02187 4.38968 5.30496 3.43748C8.4079 2.53306 9.58437 4.24998 10.5329 5.63233C10.6505 5.80145 10.7608 5.96321 10.8675 6.10659C11.4961 6.96689 12.1469 6.886 12.6175 6.83086C13.0035 6.78306 13.2829 6.74998 13.6432 7.11027C13.8638 7.33453 14.055 7.79042 14.2425 8.23159C14.577 9.03306 14.9263 9.86395 15.6836 9.95953C16.3601 10.0404 17.1064 9.48895 18.0991 8.16542C20.8197 4.54042 24.941 4.68012 24.9814 4.6838H25.0219C25.066 4.68012 29.1836 4.54042 31.9042 8.16542C32.8932 9.48895 33.6432 10.0441 34.3197 9.95953C35.077 9.86395 35.4263 9.03306 35.7608 8.23159C35.9483 7.79042 36.1395 7.33453 36.3601 7.11027C36.7204 6.74998 36.9998 6.78306 37.3858 6.83086C37.8564 6.886 38.5072 6.96689 39.1358 6.11027C39.2425 5.96321 39.3528 5.80145 39.4704 5.63233C40.4189 4.24998 41.5954 2.53306 44.6983 3.43748C47.9814 4.38968 47.9704 6.87498 47.6579 9.55512C47.4778 11.0662 47.5807 12.8382 47.6836 13.9375L46.9116 13.1654C46.7976 13.0514 46.6248 13.0257 46.4814 13.0992L45.6064 13.5588L45.6469 12.6875C45.6542 12.5147 45.5366 12.3566 45.3675 12.3162L44.4005 12.0735L44.4961 11.9889C44.5844 11.9117 44.6285 11.7941 44.6175 11.6801C44.6064 11.5625 44.5403 11.4559 44.4373 11.397L44.3417 11.3382C44.9594 11.25 45.4961 10.9595 45.7572 10.3492L45.8454 10.1434C46.3932 8.86027 47.2241 6.91542 45.1947 5.71321C44.0733 5.04777 42.9667 4.90071 42.0733 5.29042C41.5035 5.54042 40.7645 6.13233 40.4667 7.52571C40.2535 8.53306 39.5844 8.51468 38.5108 8.36027C37.8858 8.27203 37.2388 8.18012 36.9961 8.72792C36.9594 8.81248 36.9189 8.92277 36.8711 9.05145C36.6469 9.66174 36.2755 10.6801 35.4189 10.9816C34.7719 11.2095 33.9116 11.0037 32.8675 10.3713C32.7425 10.2978 32.5844 10.3014 32.4667 10.386C32.3454 10.4706 32.2866 10.6176 32.316 10.761C32.3858 11.1103 32.5145 12.1507 32.2719 12.7389C32.202 12.9007 32.2608 13.0919 32.4079 13.1875C32.4925 13.2463 34.191 14.3309 36.3969 14.3309C36.6579 14.3309 36.9263 14.3125 37.1983 14.2794C36.9925 14.636 36.8895 14.9742 36.8895 15.2941C35.5403 15.2831 32.9557 15.1066 32.1836 14.3309C32.0917 14.2389 31.9557 14.2022 31.8307 14.2353C31.7057 14.2684 31.6064 14.3639 31.5697 14.4889C31.5623 14.5184 30.68 17.5037 28.9226 19.2647C28.8344 19.3529 28.7976 19.4779 28.8197 19.5992C28.8307 19.647 29.816 24.5404 28.7682 27.625C28.5991 28.1176 28.463 28.7095 28.3564 29.4338C28.327 29.6323 28.463 29.8198 28.6653 29.8492C28.6836 29.8529 28.702 29.8529 28.7204 29.8529C28.8969 29.8529 29.055 29.7242 29.0844 29.5404C29.1836 28.8603 29.3086 28.3125 29.463 27.8639C30.4667 24.9081 29.7608 20.6139 29.577 19.6434C30.9594 18.1838 31.7866 16.125 32.1138 15.1875C33.4998 15.9853 36.2314 16.0367 37.0917 16.0294C37.4667 16.6507 38.2461 16.8787 38.6873 17L41.3233 17.7389C42.0476 17.9412 42.8969 18.1838 43.7645 18.1838C44.0954 18.1838 44.4263 18.147 44.7535 18.0662C45.7167 17.8162 46.6064 17.1323 47.1873 16.1875C47.4079 15.8309 47.5844 15.4375 47.7241 15.0147L47.9042 15.1948C48.0145 15.3051 48.1836 15.3345 48.327 15.2647C48.4667 15.1912 48.5476 15.0404 48.5256 14.8823C48.5219 14.8529 48.1175 11.886 48.3822 9.64336ZM6.83437 14.3934H6.42628C6.22408 14.3934 6.05864 14.2279 6.05864 14.0257C6.05864 13.8235 6.22408 13.6581 6.42628 13.6581H6.83437C7.03658 13.6581 7.20202 13.8235 7.20202 14.0257C7.20202 14.2279 7.03658 14.3934 6.83437 14.3934ZM7.9704 16.0073H7.50717C7.30128 16.0073 7.13952 15.8419 7.13952 15.6397C7.13952 15.4375 7.30128 15.272 7.50717 15.272H7.9704C8.17261 15.272 8.33805 15.4375 8.33805 15.6397C8.33805 15.8419 8.17261 16.0073 7.9704 16.0073ZM8.27555 13.3787H7.80128C7.59908 13.3787 7.43364 13.2132 7.43364 13.011C7.43364 12.8088 7.59908 12.6434 7.80128 12.6434H8.27555C8.47776 12.6434 8.6432 12.8088 8.6432 13.011C8.6432 13.2132 8.47776 13.3787 8.27555 13.3787ZM10.0513 15.1213H9.58437C9.38217 15.1213 9.21673 14.9559 9.21673 14.7537C9.21673 14.5478 9.38217 14.386 9.58437 14.386H10.0513C10.2572 14.386 10.4189 14.5478 10.4189 14.7537C10.4189 14.9559 10.2572 15.1213 10.0513 15.1213ZM4.92261 10.0625L4.8307 9.85292C4.17261 8.31248 3.80864 7.15806 5.17996 6.34556C6.09173 5.80512 6.95937 5.66909 7.63217 5.96321C8.2204 6.22424 8.62849 6.81615 8.81231 7.68012C9.18364 9.43012 10.691 9.21689 11.5917 9.08821C11.8564 9.05145 12.2535 8.9963 12.3307 9.02203C12.3601 9.09556 12.3969 9.19115 12.4373 9.30512C12.6873 9.98895 13.1542 11.261 14.338 11.6764C15.0476 11.9264 15.8969 11.8162 16.8675 11.3529C16.838 11.761 16.838 12.2757 16.952 12.7279C16.3233 13.1103 14.4116 14.1066 12.2645 13.5404C12.2498 13.5257 12.2351 13.5073 12.2241 13.4926C11.4116 12.5588 10.3013 11.2794 8.79393 10.9117C8.39687 10.8162 7.99981 10.7904 7.60643 10.7904C7.60643 10.7684 7.60643 10.7463 7.59908 10.7206C7.54393 10.5294 7.33805 10.4191 7.1432 10.4742C6.95937 10.5331 5.31599 10.9963 4.92261 10.0625ZM5.11746 15.272H5.57702C5.7829 15.272 5.94467 15.4375 5.94467 15.6397C5.94467 15.8419 5.7829 16.0073 5.57702 16.0073H5.11746C4.91158 16.0073 4.74981 15.8419 4.74981 15.6397C4.74981 15.4375 4.9079 15.272 5.11746 15.272ZM42.8564 10.4742H42.8233C42.7903 10.4669 42.7608 10.4632 42.7278 10.4632C42.7167 10.4632 42.7057 10.4669 42.6947 10.4669C42.6579 10.4742 42.6211 10.4853 42.588 10.5C42.5807 10.5037 42.5733 10.5073 42.566 10.5147C42.5329 10.5331 42.5072 10.5551 42.4814 10.5809C42.4741 10.5919 42.4667 10.5992 42.4594 10.6103C42.4483 10.625 42.4336 10.6323 42.4263 10.6507C42.4153 10.6691 42.4153 10.6875 42.4079 10.7059C42.4042 10.7132 42.4006 10.7169 42.4006 10.7242C42.3969 10.7279 42.3969 10.7353 42.3969 10.7389C42.3932 10.7573 42.3858 10.772 42.3822 10.7904C41.9925 10.7904 41.5991 10.8162 41.2057 10.9117C39.7425 11.2684 38.6542 12.4816 37.8528 13.4044C35.702 13.9742 33.7204 13.0698 33.0513 12.7095C33.1616 12.2647 33.1616 11.7573 33.1322 11.3529C34.1028 11.8162 34.952 11.9264 35.6616 11.6764C36.8454 11.261 37.3123 9.98895 37.5623 9.30512C37.6028 9.19115 37.6395 9.09556 37.6469 9.04777C37.7461 8.9963 38.1432 9.05145 38.4079 9.08821C39.3086 9.21689 40.816 9.43012 41.1873 7.68012C41.3711 6.81615 41.7792 6.22424 42.3675 5.96321C43.0366 5.66909 43.9079 5.80512 44.8197 6.34556C46.191 7.15806 45.827 8.31248 45.1689 9.85292L45.077 10.0662C44.6873 10.9926 43.0439 10.5331 42.8564 10.4742Z" fill="#000D44"/>
<path d="M44.0105 23.7389H34.812C34.0914 23.7389 33.5068 24.3235 33.5068 25.0404C33.5068 25.7536 34.0804 26.3308 34.7862 26.3418V42.9264C34.7862 45.4779 36.8598 47.5514 39.4112 47.5514C41.9627 47.5514 44.0362 45.4779 44.0362 42.9264V26.3418C44.7421 26.3308 45.3157 25.7536 45.3157 25.0404C45.3157 24.3235 44.7311 23.7389 44.0105 23.7389ZM37.6355 42.2977C37.0142 42.2977 36.5105 41.794 36.5105 41.1727C36.5105 40.5514 37.0142 40.0477 37.6355 40.0477C38.2568 40.0477 38.7605 40.5514 38.7605 41.1727C38.7605 41.794 38.2605 42.2977 37.6355 42.2977ZM39.2201 37.6764C39.2201 36.9448 39.8157 36.3455 40.5473 36.3455C41.2789 36.3455 41.8745 36.9448 41.8745 37.6764C41.8745 38.408 41.2789 39.0036 40.5473 39.0036C39.8157 39.0036 39.2201 38.408 39.2201 37.6764ZM40.9554 44.1176C40.2017 44.1176 39.5877 43.5073 39.5877 42.7536C39.5877 41.9999 40.2017 41.3896 40.9554 41.3896C41.709 41.3896 42.3193 41.9999 42.3193 42.7536C42.3193 43.5073 41.7127 44.1176 40.9554 44.1176ZM43.2973 34.2904H35.5179V26.3455H43.2973V34.2904ZM44.0105 25.7095H34.8083C34.4039 25.7095 34.0693 25.4043 34.0693 25.0257C34.0693 24.647 34.4039 24.3382 34.8083 24.3382H44.0105C44.4223 24.3382 44.7495 24.647 44.7495 25.0257C44.7495 25.4043 44.4223 25.7095 44.0105 25.7095Z" fill="#000D44"/>
<path d="M27.5955 32.283C27.522 32.6911 27.272 33.0441 26.9117 33.2463L3.92273 46.1764C3.74626 46.2757 3.5514 46.3235 3.36023 46.3235C3.1617 46.3235 2.96317 46.272 2.78302 46.1654C2.4264 45.9558 2.21317 45.5882 2.21684 45.1764L2.22052 43.522C2.22787 42.2022 2.93376 40.9632 4.06611 40.2867L7.01464 38.5294C7.95214 37.9669 9.30876 38.1617 10.033 38.3272L10.7683 38.5698C11.5918 38.8455 12.5036 38.7683 13.2683 38.3639L22.0698 33.4669C22.1543 33.0183 22.4521 31.9154 23.4117 31.2022C24.2021 30.6139 25.2315 30.4375 26.4779 30.6764C26.7904 30.7352 27.0771 30.9007 27.283 31.1433C27.5551 31.4595 27.669 31.875 27.5955 32.283Z" fill="#04CE78"/>
</svg>
