<svg width="60" height="61" viewBox="0 0 60 61" fill="none" xmlns="http://www.w3.org/2000/svg">
<g clip-path="url(#clip0_1517_1770)">
<path d="M52.5 19.8137C52.5 24.0812 51.2728 28.2587 48.9656 31.8484C45.7641 36.8275 44.0625 42.6222 44.0625 48.5415C44.0625 52.854 40.5666 56.35 36.2541 56.35H34.6875V46.0375C34.6875 43.449 32.5884 41.35 30 41.35C27.4116 41.35 25.3125 43.449 25.3125 46.0375V56.35H23.7459C19.4334 56.35 15.9375 52.854 15.9375 48.5415C15.9375 42.6222 14.2359 36.8275 11.0344 31.8484C8.72719 28.2587 7.5 24.0812 7.5 19.8137C7.5 13.0684 12.9684 7.59998 19.7137 7.59998C23.7975 7.59998 27.6112 9.64091 29.8762 13.0384L30 13.225L30.1238 13.0384C32.3897 9.64091 36.2025 7.59998 40.2863 7.59998C47.0316 7.59998 52.5 13.0684 52.5 19.8137Z" fill="#04CE78"/>
<path d="M7.5 53.5375H6.5625V52.6C6.5625 51.565 5.7225 50.725 4.6875 50.725C3.6525 50.725 2.8125 51.565 2.8125 52.6V53.5375H1.875C0.84 53.5375 0 54.3775 0 55.4125C0 56.4475 0.84 57.2875 1.875 57.2875H2.8125V58.225C2.8125 59.26 3.6525 60.1 4.6875 60.1C5.7225 60.1 6.5625 59.26 6.5625 58.225V57.2875H7.5C8.535 57.2875 9.375 56.4475 9.375 55.4125C9.375 54.3775 8.535 53.5375 7.5 53.5375Z" fill="white"/>
<path d="M52.5 6.66248H53.4375V7.59998C53.4375 8.63498 54.2775 9.47498 55.3125 9.47498C56.3475 9.47498 57.1875 8.63498 57.1875 7.59998V6.66248H58.125C59.16 6.66248 60 5.82248 60 4.78748C60 3.75248 59.16 2.91248 58.125 2.91248H57.1875V1.97498C57.1875 0.939976 56.3475 0.0999756 55.3125 0.0999756C54.2775 0.0999756 53.4375 0.939976 53.4375 1.97498V2.91248H52.5C51.465 2.91248 50.625 3.75248 50.625 4.78748C50.625 5.82248 51.465 6.66248 52.5 6.66248Z" fill="white"/>
<path d="M30.0004 22.5699C31.8238 22.5699 33.6491 22.2231 35.3835 21.5284C36.3454 21.144 36.8132 20.0528 36.4288 19.0909C36.0435 18.129 34.9541 17.6603 33.9913 18.0465C31.4169 19.0759 28.5819 19.0759 26.0085 18.0465C25.0494 17.6621 23.9563 18.129 23.571 19.0909C23.1866 20.0518 23.6544 21.1431 24.6154 21.5284C26.3526 22.2231 28.176 22.5699 30.0004 22.5699Z" fill="#000D44"/>
<path d="M54.5878 17.9969L54.2325 17.9153C53.2997 11.0444 47.4103 5.72498 40.2872 5.72498C36.3459 5.72498 32.64 7.35904 30 10.1847C27.36 7.35998 23.6541 5.72498 19.7137 5.72498C17.2031 5.72498 14.85 6.39248 12.8062 7.54841C11.2322 6.13935 10.3125 4.13123 10.3125 1.97498C10.3125 0.939976 9.4725 0.0999756 8.4375 0.0999756C7.4025 0.0999756 6.5625 0.939976 6.5625 1.97498C6.5625 4.96185 7.74281 7.75654 9.78188 9.8331C7.21594 12.3859 5.625 15.9175 5.625 19.8137C5.625 23.29 6.39656 26.7953 7.85719 29.95C8.29125 30.8884 9.40406 31.2981 10.3463 30.864C11.2856 30.429 11.6944 29.3144 11.2603 28.375C10.0266 25.7106 9.375 22.75 9.375 19.8137C9.375 14.1128 14.0128 9.47498 19.7137 9.47498C23.1778 9.47498 26.3934 11.1962 28.3153 14.0781L28.4391 14.2647C28.7869 14.7869 29.3728 15.1 30 15.1C30.6272 15.1 31.2131 14.7868 31.5609 14.2637L31.6847 14.0781C33.6066 11.1953 36.8222 9.47404 40.2872 9.47404C45.9872 9.47498 50.625 14.1128 50.625 19.8137C50.625 22.8737 49.9172 25.9215 48.5869 28.6769L11.3963 34.1894C8.05219 34.6862 5.625 37.4969 5.625 40.8719C5.625 42.4872 6.20906 44.0556 7.26844 45.2903C8.32219 46.5165 9.79125 47.3237 11.4103 47.5647L14.0484 47.95C14.0522 48.1469 14.0625 48.3437 14.0625 48.5415C14.0625 53.8806 18.4069 58.225 23.7459 58.225H25.3125C26.3475 58.225 27.1875 57.385 27.1875 56.35V49.8653L32.8125 50.6865V56.35C32.8125 57.385 33.6525 58.225 34.6875 58.225H36.2541C40.1906 58.225 43.5806 55.8597 45.0928 52.4781L45.7331 52.5709C48.5222 52.9778 50.625 55.4078 50.625 58.225C50.625 59.26 51.465 60.1 52.5 60.1C53.535 60.1 54.375 59.26 54.375 58.225C54.375 53.559 50.8922 49.5334 46.2722 48.8603L45.9234 48.8097C45.9263 48.7197 45.9375 48.6315 45.9375 48.5415C45.9375 45.0184 46.5713 41.5609 47.82 38.2647C48.1875 37.2962 47.6991 36.2134 46.7316 35.8469C45.7669 35.4812 44.6803 35.9659 44.3138 36.9362C42.9028 40.6581 42.1875 44.5628 42.1875 48.5415C42.1875 51.7094 39.6919 54.3062 36.5625 54.4675V46.0375C36.5625 42.4187 33.6178 39.475 30 39.475C26.3813 39.475 23.4375 42.4187 23.4375 46.0375V54.4675C20.3091 54.3062 17.8125 51.7103 17.8125 48.5415C17.8125 47.7737 17.7769 47.0106 17.7234 46.2503C17.7225 46.2175 17.7187 46.1847 17.7159 46.1519C17.4975 43.1312 16.8694 40.1744 15.8278 37.3225L54.0741 31.6534C55.7325 31.4012 57.2381 30.5697 58.2984 29.3275C59.3953 28.0722 60 26.4587 60 24.7844C60 21.5106 57.7725 18.7197 54.5878 17.9969ZM30 43.225C31.5506 43.225 32.8125 44.4869 32.8125 46.0375V46.8972L27.1875 46.0759V46.0375C27.1875 44.4869 28.4494 43.225 30 43.225ZM13.7212 44.1119L11.9559 43.854C11.2331 43.7472 10.5787 43.389 10.1128 42.8462C9.6375 42.2931 9.375 41.5909 9.375 40.8719C9.375 39.37 10.4569 38.1194 11.9466 37.8981L12.0253 37.8868C12.8241 39.9062 13.3941 41.9865 13.7212 44.1119ZM55.4606 26.8769C54.9713 27.4506 54.2794 27.8303 53.5172 27.9465L52.9219 28.0347C53.6447 26.035 54.1012 23.9415 54.2794 21.8218C55.4625 22.3103 56.25 23.4615 56.25 24.7844C56.25 25.5512 55.9753 26.2881 55.4606 26.8769Z" fill="#000D44"/>
</g>
<defs>
<clipPath id="clip0_1517_1770">
<rect width="60" height="60" fill="white" transform="translate(0 0.0999756)"/>
</clipPath>
</defs>
</svg>
