<svg width="50" height="50" viewBox="0 0 50 50" fill="none" xmlns="http://www.w3.org/2000/svg">
<g clip-path="url(#clip0_124_6566)">
<path d="M29.3045 41.3302C28.8282 41.3113 28.367 41.075 28.0781 40.6508C27.5942 39.9401 27.778 38.9719 28.4887 38.488C29.8691 37.5481 30.9772 36.0915 31.609 34.3866C33.7249 28.6773 29.5693 25.8503 28.9163 20.8115C28.3041 16.0861 31.5235 11.3751 36.1543 10.2172C36.9885 10.0089 37.8335 10.5156 38.042 11.3496C38.2506 12.1836 37.7435 13.0288 36.9096 13.2373C33.8108 14.0121 31.5943 17.2526 32.0038 20.4114C32.3377 22.9895 34.2118 25.4483 34.9671 28.4573C36.1329 33.102 34.1452 38.4027 30.241 41.0613C29.9545 41.2563 29.6262 41.3429 29.3045 41.3302Z" fill="#1F5FFF"/>
<path d="M20.6955 41.3302C21.1717 41.3113 21.633 41.075 21.9218 40.6508C22.4057 39.9401 22.2219 38.9719 21.5113 38.488C20.1308 37.5481 19.0227 36.0915 18.391 34.3866C16.275 28.6773 20.4306 25.8503 21.0836 20.8115C21.6958 16.0861 18.4764 11.3751 13.8456 10.2172C13.0115 10.0089 12.1665 10.5156 11.958 11.3496C11.7494 12.1836 12.2564 13.0288 13.0904 13.2373C16.1891 14.0121 18.4056 17.2526 17.9961 20.4114C17.6623 22.9895 15.7881 25.4483 15.0329 28.4573C13.867 33.102 15.8547 38.4027 19.7589 41.0613C20.0455 41.2563 20.3738 41.3429 20.6955 41.3302Z" fill="#1F5FFF"/>
<path d="M40.7448 0.939819H39.9245C37.633 0.939819 35.7134 2.7574 35.6811 5.04871C35.665 6.19353 36.1101 7.23376 36.8424 7.99617C37.0216 8.18269 37.0209 8.47908 36.8418 8.6656C36.1227 9.41462 35.6808 10.4315 35.6808 11.5522C35.6808 12.6722 36.1227 13.689 36.8418 14.4381C37.0209 14.6247 37.0216 14.921 36.8424 15.1075C36.1101 15.8699 35.665 16.9101 35.6811 18.055C35.7135 20.3463 37.633 22.1638 39.9245 22.1638H40.7449C45.0541 22.1638 49.2677 17.4123 49.2677 11.5522C49.2677 5.69216 45.054 0.939819 40.7448 0.939819Z" fill="#04CE78"/>
<path d="M40.7448 0.939819H39.8497C39.5445 0.939819 39.2475 0.973511 38.9609 1.03582C42.8738 1.73347 46.4199 6.17644 46.4199 11.5524C46.4199 16.9283 42.8738 21.3706 38.961 22.0681C39.2476 22.1303 39.5446 22.164 39.8498 22.164H40.7449C45.0541 22.164 49.2677 17.4125 49.2677 11.5524C49.2676 5.69216 45.054 0.939819 40.7448 0.939819Z" fill="#1F5FFF"/>
<path d="M9.25515 0.939819H10.0755C12.367 0.939819 14.2866 2.7574 14.3188 5.04871C14.3349 6.19353 13.8899 7.23376 13.1576 7.99617C12.9784 8.18269 12.9791 8.47908 13.1582 8.6656C13.8773 9.41462 14.3192 10.4315 14.3192 11.5522C14.3192 12.6722 13.8773 13.689 13.1582 14.438C12.9791 14.6246 12.9784 14.9209 13.1576 15.1074C13.8899 15.8698 14.3349 16.91 14.3188 18.055C14.2865 20.3463 12.367 22.1638 10.0755 22.1638H9.25505C4.94587 22.1638 0.7323 17.4123 0.7323 11.5522C0.7323 5.69216 4.94597 0.939819 9.25515 0.939819Z" fill="#04CE78"/>
<path d="M14.3193 11.5523C14.3193 10.4315 13.8774 9.41462 13.1583 8.6657C12.9792 8.47908 12.9785 8.18279 13.1577 7.99626C13.89 7.23386 14.3352 6.19353 14.3189 5.04861C14.287 2.78787 12.3365 0.939819 10.0755 0.939819H9.25518C8.89912 0.939819 8.54375 0.972925 8.19141 1.03582C10.0666 1.44324 11.4717 3.11189 11.4717 5.10896C11.4717 6.22976 11.0298 7.24666 10.3106 7.99558C10.1313 8.1824 10.1313 8.47878 10.3106 8.6656C11.0298 9.41462 11.4717 10.4315 11.4717 11.5523C11.4717 12.6723 11.0298 13.6891 10.3106 14.4382C10.1313 14.625 10.1313 14.9214 10.3106 15.1082C11.0298 15.8572 11.4717 16.8741 11.4717 17.9949C11.4717 19.992 10.0665 21.6605 8.19141 22.068C8.54385 22.1308 8.89922 22.1639 9.25527 22.1639H10.0757C12.3369 22.1639 14.2873 20.3158 14.319 18.0548C14.3351 16.91 13.8901 15.8699 13.1578 15.1075C12.9786 14.921 12.9793 14.6246 13.1584 14.4381C13.8774 13.6891 14.3193 12.6723 14.3193 11.5523Z" fill="#1F5FFF"/>
<path d="M33.8504 36.9577C33.475 34.5642 29.8879 33.0105 25 33.0105C20.1121 33.0105 16.525 34.5642 16.1496 36.9577C15.7716 39.3671 18.7685 43.0881 22.6028 44.2679C23.0244 44.3976 23.3095 44.7906 23.3095 45.2317V47.3222C23.3095 48.2325 24.009 49.0157 24.9182 49.0584C25.8889 49.1041 26.6904 48.3306 26.6904 47.37V45.2317C26.6904 44.7906 26.9755 44.3977 27.3971 44.2679C31.2314 43.0881 34.2283 39.3671 33.8504 36.9577Z" fill="#04CE78"/>
<path d="M33.8504 36.9577C33.5302 34.917 30.8744 33.4876 27.0689 33.1104C29.7732 33.8479 31.5729 35.3008 31.8328 36.9577C32.2107 39.3672 29.2138 42.2579 25.3796 43.4377C24.958 43.5674 24.6728 43.9604 24.6728 44.4015V47.3699C24.6728 47.9223 24.4071 48.4117 23.9974 48.7201C24.2559 48.9177 24.5717 49.0421 24.9182 49.0584C25.8889 49.1041 26.6904 48.3306 26.6904 47.3699V45.2316C26.6904 44.7905 26.9756 44.3976 27.3971 44.2679C31.2314 43.0882 34.2283 39.3672 33.8504 36.9577Z" fill="#1F5FFF"/>
<path d="M47.1861 3.58101C45.4089 1.43696 43.0611 0.207275 40.7449 0.207275H39.9246C37.2186 0.207275 34.9864 2.37437 34.9488 5.03823C34.9316 6.25874 35.3586 7.4189 36.1557 8.33052C35.7967 8.74136 35.5135 9.20386 35.3112 9.69936C32.3898 10.6532 29.9799 12.9566 28.8197 15.9291C28.6726 16.3058 28.8588 16.7305 29.2357 16.8776C29.3232 16.9118 29.4132 16.928 29.5019 16.928C29.7948 16.928 30.0714 16.7509 30.1843 16.4617C31.0751 14.1793 32.8134 12.3562 34.9517 11.4051C34.9339 12.0094 35.0228 12.5777 35.2038 13.1164C32.556 14.5167 30.8967 17.5644 31.2776 20.5054C31.4715 22.0021 32.1163 23.3977 32.799 24.8753C33.3521 26.0724 33.9239 27.3101 34.2564 28.6355C34.784 30.7374 34.6276 33.0561 33.8407 35.189C33.4998 34.75 33.0527 34.3526 32.5102 34.0027C33.5861 30.4745 32.4085 27.9386 31.2661 25.4829C30.5805 24.0089 29.8716 22.4849 29.6424 20.7181C29.5924 20.3303 29.5697 19.9385 29.5751 19.5533C29.5808 19.1488 29.2573 18.8164 28.8528 18.8108C28.8494 18.8107 28.846 18.8107 28.8426 18.8107C28.4428 18.8107 28.116 19.132 28.1105 19.533C28.1042 19.9873 28.1308 20.449 28.1897 20.9059C28.448 22.8976 29.2055 24.5258 29.938 26.1005C31.021 28.4286 31.9666 30.4653 31.1836 33.3194C29.5663 32.6515 27.4526 32.2782 25.0001 32.2782C22.5475 32.2782 20.4337 32.6516 18.8163 33.3196C18.5564 32.3703 18.4736 31.4584 18.5647 30.5519C18.6052 30.1495 18.3117 29.7904 17.9093 29.7499C17.5073 29.7102 17.1478 30.003 17.1073 30.4054C16.9882 31.591 17.1135 32.7735 17.4892 34.0032C16.947 34.353 16.5002 34.7502 16.1595 35.1891C15.3727 33.0561 15.2163 30.7375 15.7438 28.6355C16.0763 27.3102 16.6481 26.0724 17.2012 24.8754C17.8839 23.3978 18.5287 22.0021 18.7227 20.5054C19.1037 17.5645 17.4443 14.5167 14.7965 13.1164C14.9803 12.5697 15.0663 12.0006 15.0486 11.4041C18.581 12.9729 20.8593 16.8457 20.3578 20.7174C20.1281 22.4857 19.4189 24.0103 18.7331 25.4846C18.5223 25.9378 18.3043 26.4064 18.1042 26.874C17.945 27.2458 18.1174 27.6764 18.4892 27.8356C18.8611 27.9948 19.2915 27.8224 19.4508 27.4506C19.6421 27.0039 19.8457 26.5661 20.0613 26.1025C20.794 24.5274 21.5517 22.8987 21.8105 20.9058C22.438 16.0607 19.3298 11.2153 14.689 9.69936C14.4867 9.20405 14.2036 8.74155 13.8446 8.33071C14.6417 7.4189 15.0687 6.25874 15.0515 5.03853C15.014 2.37476 12.7818 0.207471 10.0758 0.207471H9.25547C6.93926 0.207471 4.5915 1.43716 2.81426 3.5812C0.999317 5.77017 0 8.60103 0 11.5522C0 14.5034 0.999316 17.334 2.81396 19.523C4.59121 21.6667 6.93887 22.8962 9.25518 22.8962H10.0755C12.7815 22.8962 15.0137 20.7291 15.0512 18.0652C15.0685 16.845 14.6415 15.6849 13.8443 14.7729C13.9443 14.6584 14.0384 14.5399 14.1267 14.4178C16.2454 15.5405 17.5733 17.9726 17.2696 20.3168C17.1046 21.5911 16.5055 22.8878 15.8712 24.2607C15.2898 25.5191 14.6887 26.8202 14.3228 28.2788C13.6056 31.1366 13.998 34.3373 15.3967 37.0976C15.2901 38.4398 15.9515 40.0457 17.2404 41.5502C18.5961 43.1328 20.4722 44.3785 22.3875 44.9678C22.4992 45.0022 22.5771 45.1106 22.5771 45.2315V47.3219C22.5771 48.6449 23.5903 49.7289 24.8839 49.7898C26.2902 49.8577 27.4229 48.7282 27.4229 47.3698V45.2315C27.4229 45.1106 27.5009 45.0021 27.6126 44.9677C29.5278 44.3785 31.4039 43.1329 32.7596 41.5502C34.0485 40.0457 34.7098 38.4398 34.6033 37.0976C36.002 34.3372 36.3943 31.1365 35.6772 28.2787C34.9049 25.2003 33.0432 22.7325 32.7302 20.3168C32.4266 17.9726 33.7546 15.5405 35.8732 14.4178C35.9615 14.5399 36.0556 14.6584 36.1556 14.773C35.3585 15.6848 34.9315 16.8449 34.9487 18.0652C34.9863 20.7291 37.2184 22.8962 39.9244 22.8962H40.7448C43.0611 22.8962 45.4088 21.6667 47.1859 19.523C49.0007 17.334 50 14.5034 50 11.5522C50 8.60103 49.0007 5.77017 47.1861 3.58101ZM12.6295 15.6148C13.2596 16.2708 13.5994 17.1337 13.5866 18.0447C13.5603 19.9122 11.9853 21.4315 10.0756 21.4315H9.25527C7.37646 21.4315 5.43984 20.3952 3.9418 18.5882C2.34443 16.6615 1.46484 14.1627 1.46484 11.5522C1.46484 8.94165 2.34443 6.44282 3.9417 4.51587C5.43975 2.70854 7.37637 1.67212 9.25518 1.67212H10.0755C11.9852 1.67212 13.5603 3.19146 13.5865 5.05894C13.5993 5.96987 13.2595 6.83276 12.6295 7.48872C12.1761 7.96069 12.1763 8.70044 12.63 9.1728C13.9062 10.502 13.9063 12.6012 12.63 13.9308C12.1765 14.4033 12.1763 15.143 12.6295 15.6148ZM31.6471 40.5973C30.4668 41.975 28.8393 43.0578 27.1817 43.5677C26.4497 43.793 25.9579 44.4616 25.9579 45.2316V47.3699C25.9579 47.9134 25.5076 48.3511 24.9527 48.3268C24.4505 48.3031 24.042 47.8525 24.042 47.3221V45.2317C24.042 44.4617 23.5502 43.7931 22.8182 43.5679C21.1606 43.0579 19.5331 41.9751 18.3528 40.5974C17.293 39.3603 16.7261 38.0091 16.8732 37.0712C17.1806 35.1117 20.5225 33.743 25 33.743C29.4775 33.743 32.8194 35.1117 33.1269 37.0712C33.2739 38.009 32.7069 39.3602 31.6471 40.5973ZM46.0583 18.5881C44.5604 20.3951 42.6236 21.4314 40.7449 21.4314H39.9245C38.0148 21.4314 36.4398 19.9121 36.4135 18.0446C36.4007 17.1335 36.7406 16.2707 37.3708 15.6146C37.8238 15.1427 37.8236 14.4032 37.37 13.9306C36.0915 12.5993 36.0961 10.4995 37.3701 9.1727C37.8236 8.70034 37.8238 7.96069 37.3706 7.48853C36.7406 6.83276 36.4007 5.96987 36.4135 5.05874C36.4399 3.19136 38.0148 1.67202 39.9246 1.67202H40.7449C42.6236 1.67202 44.5603 2.70845 46.0583 4.51577C47.6555 6.44282 48.5352 8.94165 48.5352 11.5522C48.5352 14.1627 47.6555 16.6615 46.0583 18.5881Z" fill="#000D44"/>
</g>
<defs>
<clipPath id="clip0_124_6566">
<rect width="50" height="50" fill="white"/>
</clipPath>
</defs>
</svg>
