<svg width="41" height="40" viewBox="0 0 41 40" fill="none" xmlns="http://www.w3.org/2000/svg">
<path d="M24.8056 29.9284C24.0936 29.9284 23.4107 30.2112 22.9072 30.7147C22.4037 31.2182 22.1209 31.9011 22.1209 32.6131H19.4361V27.2436C19.4354 26.5904 19.244 25.9516 18.8855 25.4055C18.527 24.8595 18.0169 24.4299 17.4178 24.1696L21.5329 20.0545C21.9234 20.2526 22.3667 20.3215 22.7989 20.2514C23.2311 20.1813 23.6299 19.9758 23.9378 19.6645L25.203 18.3993L27.7871 17.0979C27.8524 17.0685 27.9125 17.0286 27.9649 16.9798L35.5447 9.40003L36.4125 10.2679L37.3616 9.31882L35.8225 7.7791L36.7622 6.83944L36.8132 6.89448C36.9946 7.09329 37.2155 7.25209 37.4617 7.36074C37.7079 7.4694 37.9741 7.52552 38.2432 7.52552C38.5123 7.52552 38.7785 7.4694 39.0247 7.36074C39.2709 7.25209 39.4918 7.09329 39.6732 6.89448C40.0364 6.49343 40.2375 5.97168 40.2375 5.43061C40.2375 4.88954 40.0364 4.36779 39.6732 3.96674L36.5427 0.610795C36.3581 0.417766 36.1362 0.264141 35.8906 0.159186C35.6449 0.0542313 35.3806 0.00012207 35.1134 0.00012207C34.8463 0.00012207 34.5819 0.0542313 34.3363 0.159186C34.0906 0.264141 33.8688 0.417766 33.6841 0.610795L33.6727 0.623547C33.3139 1.02507 33.1164 1.54517 33.1183 2.08364C33.1202 2.6221 33.3212 3.14083 33.6828 3.53987L33.9023 3.77479L32.8599 4.81714L31.3209 3.2781L30.3718 4.22717L31.2397 5.09434L23.6599 12.6748C23.6111 12.7272 23.5712 12.7873 23.5418 12.8526L22.2403 15.4367L20.9751 16.7019C20.6677 17.0115 20.4649 17.4095 20.3951 17.8402C20.3253 18.2709 20.392 18.7126 20.5859 19.1034L18.1937 21.4955L15.8016 23.8877H3.99874C3.10901 23.8887 2.25603 24.2426 1.6269 24.8718C0.997767 25.5009 0.643852 26.3539 0.642787 27.2436V37.1974C0.626941 37.9008 0.881854 38.5834 1.35488 39.1043C1.8279 39.6251 2.4829 39.9444 3.18458 39.9962C3.73399 40.0259 4.27921 39.8857 4.7462 39.5947C5.21318 39.3038 5.57931 38.8762 5.79484 38.3699L8.51115 39.9962H11.5677L14.3116 38.3498C14.5023 38.8115 14.8185 39.2105 15.2245 39.5015C15.6305 39.7925 16.1099 39.9639 16.6084 39.9962C16.6567 39.9962 16.705 39.9996 16.7527 39.9996C17.347 40.002 17.925 39.8049 18.394 39.4398C18.863 39.0747 19.1959 38.5628 19.3395 37.986H26.8192C26.9972 37.986 27.1679 37.9153 27.2938 37.7894C27.4197 37.6636 27.4904 37.4928 27.4904 37.3148V32.6131C27.4904 31.9011 27.2075 31.2182 26.704 30.7147C26.2006 30.2112 25.5177 29.9284 24.8056 29.9284ZM34.6654 1.52697L34.6735 1.51824C34.7305 1.45739 34.7996 1.40903 34.8763 1.37619C34.953 1.34336 35.0357 1.32676 35.1191 1.32746C35.2025 1.32815 35.2849 1.34612 35.361 1.38022C35.4371 1.41433 35.5054 1.46384 35.5615 1.52563L38.6919 4.88158C38.8262 5.0329 38.9005 5.22824 38.9005 5.43061C38.9005 5.63298 38.8262 5.82832 38.6919 5.97964C38.6353 6.04215 38.5662 6.09211 38.4891 6.1263C38.412 6.16049 38.3285 6.17815 38.2442 6.17815C38.1599 6.17815 38.0764 6.16049 37.9993 6.1263C37.9222 6.09211 37.8531 6.04215 37.7965 5.97964L34.6661 2.62369C34.532 2.47254 34.4579 2.27752 34.4578 2.07546C34.4576 1.8734 34.5315 1.67829 34.6654 1.52697ZM34.8191 4.75875L35.8467 5.86017L34.8735 6.83071L33.809 5.76553L34.8191 4.75875ZM32.1887 6.04408L34.5956 8.45029L33.1955 9.85107L31.9921 8.64762L31.043 9.59669L32.2464 10.7995L31.5175 11.529L30.6497 10.6612L29.7006 11.6103L30.5685 12.4774L29.8396 13.207L28.6361 12.0036L27.687 12.9526L28.8905 14.1554L27.4904 15.5562L25.0835 13.1486L32.1887 6.04408ZM24.3183 14.2823L26.3574 16.3213L24.9399 17.0308L23.6109 15.7018L24.3183 14.2823ZM21.9242 17.651L22.7921 16.7831L23.8566 17.847L22.9887 18.7148C22.8456 18.8522 22.6549 18.929 22.4565 18.929C22.2581 18.929 22.0673 18.8522 21.9242 18.7148C21.8544 18.645 21.799 18.5621 21.7612 18.4709C21.7235 18.3797 21.704 18.2819 21.704 18.1832C21.704 18.0845 21.7235 17.9867 21.7612 17.8955C21.799 17.8043 21.8544 17.7208 21.9242 17.651ZM14.0666 36.9316L11.1959 38.6538H8.88299L6.01231 36.9316V34.6267H14.0666V36.9316ZM18.0937 37.3115C18.094 37.4941 18.057 37.6748 17.985 37.8427C17.913 38.0105 17.8076 38.1618 17.6751 38.2875C17.5425 38.4132 17.3858 38.5105 17.2144 38.5735C17.043 38.6364 16.8605 38.6638 16.6782 38.6538C16.3221 38.6156 15.9935 38.4444 15.7582 38.1743C15.5228 37.9043 15.3981 37.5554 15.409 37.1974V27.9148H14.0666V33.2843H6.01231V27.9148H4.66993V37.3115C4.6702 37.4941 4.63321 37.6748 4.56122 37.8427C4.48923 38.0105 4.38376 38.1618 4.25125 38.2875C4.11874 38.4132 3.96199 38.5105 3.79059 38.5735C3.61918 38.6364 3.43673 38.6638 3.25439 38.6538C2.89825 38.6156 2.56967 38.4444 2.33435 38.1743C2.09904 37.9043 1.97433 37.5554 1.98517 37.1974V27.2436C1.98517 26.7096 2.19731 26.1974 2.57493 25.8198C2.95255 25.4422 3.46471 25.23 3.99874 25.23H14.4592L12.9202 26.7691L13.8699 27.7181L16.3319 25.2556C16.8171 25.3158 17.2638 25.551 17.5881 25.9169C17.9125 26.2829 18.0922 26.7546 18.0937 27.2436V37.3115ZM26.148 36.6403H19.4361V33.9555H22.7921C22.9701 33.9555 23.1408 33.8848 23.2667 33.7589C23.3925 33.6331 23.4633 33.4623 23.4633 33.2843V32.6131C23.4633 32.2571 23.6047 31.9157 23.8564 31.6639C24.1082 31.4122 24.4496 31.2708 24.8056 31.2708C25.1617 31.2708 25.5031 31.4122 25.7548 31.6639C26.0066 31.9157 26.148 32.2571 26.148 32.6131V36.6403Z" fill="#1F5FFF"/>
<path d="M10.7101 30.5996H9.36768V31.942H10.7101V30.5996Z" fill="#04CE78"/>
<path d="M10.0397 19.1893C9.68372 19.1893 9.34228 19.0479 9.09053 18.7961C8.83879 18.5444 8.69736 18.2029 8.69736 17.8469H7.35498C7.35498 18.559 7.63784 19.2418 8.14133 19.7453C8.64482 20.2488 9.3277 20.5317 10.0397 20.5317C10.7518 20.5317 11.4347 20.2488 11.9382 19.7453C12.4416 19.2418 12.7245 18.559 12.7245 17.8469H11.3821C11.3821 18.2029 11.2407 18.5444 10.9889 18.7961C10.7372 19.0479 10.3958 19.1893 10.0397 19.1893Z" fill="#04CE78"/>
<path d="M9.36826 15.1622H8.02588V16.5046H9.36826V15.1622Z" fill="#04CE78"/>
<path d="M12.0528 15.1622H10.7104V16.5046H12.0528V15.1622Z" fill="#04CE78"/>
<path d="M17.9887 17.1154C18.6365 16.9756 19.2098 16.6011 19.5981 16.064C19.9864 15.5269 20.1623 14.8652 20.092 14.2062C20.0217 13.5471 19.7101 12.9374 19.2172 12.4944C18.7243 12.0513 18.085 11.8062 17.4222 11.8062H17.0081C16.3025 10.582 15.2869 9.56529 14.0635 8.85833C12.8401 8.15138 11.4521 7.77917 10.0391 7.77917C8.62615 7.77917 7.23811 8.15138 6.0147 8.85833C4.7913 9.56529 3.77571 10.582 3.07015 11.8062H2.65603C1.99842 11.8133 1.36626 12.0614 0.879484 12.5037C0.392709 12.9459 0.0851783 13.5514 0.0152335 14.2053C-0.0547113 14.8592 0.117795 15.5161 0.500027 16.0512C0.882259 16.5864 1.44763 16.9627 2.08887 17.1086C2.39514 18.9961 3.36289 20.7129 4.81903 21.9522C6.27516 23.1915 8.12469 23.8723 10.0368 23.8729C11.9489 23.8734 13.7988 23.1937 15.2557 21.9553C16.7125 20.7169 17.6813 19.0006 17.9887 17.1133V17.1154ZM10.0391 22.5453C8.36271 22.5535 6.74464 21.9304 5.50672 20.7999C4.2688 19.6694 3.50174 18.1144 3.3581 16.4442C3.33554 16.2743 3.25176 16.1185 3.1225 16.0061C2.99323 15.8936 2.82736 15.8322 2.65603 15.8334C2.30001 15.8334 1.95857 15.692 1.70682 15.4402C1.45508 15.1885 1.31365 14.847 1.31365 14.491C1.31365 14.135 1.45508 13.7935 1.70682 13.5418C1.95857 13.2901 2.30001 13.1486 2.65603 13.1486H3.46817C3.59181 13.1487 3.71309 13.1147 3.81861 13.0503C3.92414 12.9859 4.00982 12.8935 4.0662 12.7835C4.82004 11.3088 6.09434 10.1662 7.6423 9.57722C6.67105 10.5217 6.0893 11.7961 6.01198 13.1486H7.35436C7.35436 11.7546 8.48733 10.5249 9.36793 9.77925V13.1486H10.7103V9.77925C11.5909 10.5249 12.7239 11.7546 12.7239 13.1486H14.0663C13.9889 11.7961 13.4072 10.5217 12.4359 9.57722C13.9842 10.1661 15.2587 11.3086 16.0127 12.7835C16.069 12.8934 16.1546 12.9857 16.26 13.0501C16.3654 13.1145 16.4865 13.1486 16.6101 13.1486H17.4222C17.5985 13.1508 17.7726 13.1877 17.9346 13.2572C18.0967 13.3267 18.2434 13.4275 18.3665 13.5537C18.4896 13.6799 18.5866 13.8291 18.6521 13.9928C18.7175 14.1565 18.75 14.3315 18.7478 14.5078C18.7456 14.6841 18.7087 14.8582 18.6392 15.0202C18.5697 15.1822 18.469 15.329 18.3428 15.4521C18.2166 15.5752 18.0673 15.6722 17.9036 15.7376C17.7399 15.803 17.5649 15.8356 17.3887 15.8334C17.2206 15.8327 17.0585 15.8951 16.9342 16.0082C16.8099 16.1212 16.7326 16.2768 16.7175 16.4442C16.5739 18.114 15.8072 19.6686 14.5698 20.799C13.3325 21.9294 11.7151 22.5528 10.0391 22.5453Z" fill="#04CE78"/>
<path d="M35.5446 17.8468H31.5175V19.8604H29.5039V23.8875H31.5175V25.9011H35.5446V23.8875H37.5582V19.8604H35.5446V17.8468ZM36.2158 21.2028V22.5451H34.2022V24.5587H32.8599V22.5451H30.8463V21.2028H32.8599V19.1892H34.2022V21.2028H36.2158Z" fill="#04CE78"/>
<path d="M33.5311 15.1622C32.2437 15.161 30.9833 15.5304 29.9002 16.2261C28.8171 16.9219 27.9572 17.9148 27.4232 19.0861C26.8891 20.2574 26.7035 21.5577 26.8884 22.8316C27.0734 24.1056 27.6211 25.2994 28.4663 26.2704L28.1615 29.872C28.1503 30 28.176 30.1284 28.2356 30.2422C28.2952 30.356 28.3862 30.4502 28.4978 30.5138C28.6094 30.5774 28.7368 30.6077 28.8651 30.601C28.9933 30.5943 29.117 30.551 29.2213 30.4761L32.0873 28.4263C32.5613 28.5322 33.0454 28.5858 33.5311 28.586C35.3112 28.586 37.0184 27.8789 38.2771 26.6202C39.5358 25.3614 40.243 23.6542 40.243 21.8741C40.243 20.094 39.5358 18.3868 38.2771 17.1281C37.0184 15.8694 35.3112 15.1622 33.5311 15.1622ZM33.5311 27.2437C33.0561 27.2416 32.5835 27.1768 32.1256 27.051C32.0296 27.0249 31.9289 27.0204 31.8309 27.0379C31.733 27.0554 31.6401 27.0945 31.5591 27.1524L29.6227 28.5384L29.8281 26.0912C29.836 25.9968 29.8239 25.9017 29.7924 25.8122C29.7609 25.7228 29.7109 25.6411 29.6455 25.5724C28.7951 24.6765 28.28 23.5145 28.1872 22.2828C28.0943 21.051 28.4294 19.825 29.1358 18.8117C29.8423 17.7984 30.8768 17.06 32.0647 16.7211C33.2525 16.3823 34.5209 16.4638 35.6556 16.9519C36.7904 17.4399 37.7219 18.3047 38.2928 19.4C38.8638 20.4954 39.0392 21.7543 38.7895 22.964C38.5398 24.1737 37.8802 25.2602 36.9221 26.0399C35.9641 26.8196 34.7663 27.2448 33.5311 27.2437Z" fill="#1F5FFF"/>
</svg>
