<svg width="50" height="50" viewBox="0 0 50 50" fill="none" xmlns="http://www.w3.org/2000/svg">
<g clip-path="url(#clip0_1383_4971)">
<path d="M44.1336 10.2555L39.118 7.74766C38.1797 7.27891 37.1297 7.03125 36.082 7.03125C34.2687 7.03125 32.5641 7.7375 31.282 9.01953L29.3641 10.9375H28.9062L30.5109 12.5422C30.9844 13.0156 31.25 13.657 31.25 14.3258C31.25 14.6672 31.1805 15.0055 31.0461 15.3195L29.0828 19.9008C31.3203 21.275 32.8125 23.7445 32.8125 26.5625C32.8125 30.8773 29.3148 34.375 25 34.375C20.6852 34.375 17.1875 30.8773 17.1875 26.5625C17.1875 23.7445 18.6797 21.275 20.9172 19.9008L18.9539 15.3195C18.8195 15.0055 18.75 14.668 18.75 14.3258C18.75 13.657 19.0156 13.0156 19.4891 12.5422L21.0938 10.9375H20.6359L18.718 9.01953C17.4359 7.7375 15.7313 7.03125 13.918 7.03125C12.8703 7.03125 11.8203 7.27891 10.882 7.74766L5.86641 10.2555C2.72969 11.8242 0.78125 14.9773 0.78125 18.4844C0.78125 21.8234 2.59453 24.9047 5.51328 26.5258L13.7836 31.1203C14.4375 31.4844 14.8438 32.1742 14.8438 32.9227C14.8438 33.2414 14.7688 33.5594 14.6258 33.8445L14.1023 34.8922C13.5648 35.9672 13.2812 37.1695 13.2812 38.3695C13.2812 41.7672 16.0453 44.5312 19.443 44.5312H19.5312C21.8813 44.5312 23.9328 43.2273 25 41.3047C26.0672 43.2273 28.1187 44.5312 30.4688 44.5312H30.557C33.9547 44.5312 36.7188 41.7672 36.7188 38.3695C36.7188 37.1687 36.4352 35.9664 35.8977 34.893L35.3734 33.8438C35.2313 33.5602 35.1562 33.2414 35.1562 32.9227C35.1562 32.1742 35.5625 31.4844 36.2164 31.1203L44.4867 26.5258C47.4055 24.9047 49.2188 21.8234 49.2188 18.4844C49.2188 14.9773 47.2703 11.8242 44.1336 10.2555ZM19.5312 40.625C18.2367 40.625 17.1875 39.5758 17.1875 38.2812C17.1875 37.85 17.5375 37.5 17.9688 37.5H21.0938C21.525 37.5 21.875 37.85 21.875 38.2812C21.875 39.5758 20.8258 40.625 19.5312 40.625ZM30.4688 40.625C29.1742 40.625 28.125 39.5758 28.125 38.2812C28.125 37.85 28.475 37.5 28.9062 37.5H32.0312C32.4625 37.5 32.8125 37.85 32.8125 38.2812C32.8125 39.5758 31.7633 40.625 30.4688 40.625Z" fill="white"/>
<path d="M44.1336 10.2555L39.118 7.74766C38.1797 7.27891 37.1297 7.03125 36.082 7.03125C34.2687 7.03125 32.5641 7.7375 31.282 9.01953L29.3641 10.9375H28.9062L30.5109 12.5422C30.9844 13.0156 31.25 13.657 31.25 14.3258C31.25 14.6672 31.1805 15.0055 31.0461 15.3195L29.0828 19.9008C31.3203 21.275 32.8125 23.7445 32.8125 26.5625C32.8125 30.8773 29.3148 34.375 25 34.375C20.6852 34.375 17.1875 30.8773 17.1875 26.5625C17.1875 23.7445 18.6797 21.275 20.9172 19.9008L18.9539 15.3195C18.8195 15.0055 18.75 14.668 18.75 14.3258C18.75 13.657 19.0156 13.0156 19.4891 12.5422L21.0938 10.9375H20.6359L18.718 9.01953C17.4359 7.7375 15.7313 7.03125 13.918 7.03125C12.8703 7.03125 11.8203 7.27891 10.882 7.74766L5.86641 10.2555C2.72969 11.8242 0.78125 14.9773 0.78125 18.4844C0.78125 21.8234 2.59453 24.9047 5.51328 26.5258L13.7836 31.1203C14.4375 31.4844 14.8438 32.1742 14.8438 32.9227C14.8438 33.2414 14.7688 33.5594 14.6258 33.8445L14.1023 34.8922C13.5648 35.9672 13.2812 37.1695 13.2812 38.3695C13.2812 41.7672 16.0453 44.5312 19.443 44.5312H19.5312C21.8813 44.5312 23.9328 43.2273 25 41.3047C26.0672 43.2273 28.1187 44.5312 30.4688 44.5312H30.557C33.9547 44.5312 36.7188 41.7672 36.7188 38.3695C36.7188 37.1687 36.4352 35.9664 35.8977 34.893L35.3734 33.8438C35.2313 33.5602 35.1562 33.2414 35.1562 32.9227C35.1562 32.1742 35.5625 31.4844 36.2164 31.1203L44.4867 26.5258C47.4055 24.9047 49.2188 21.8234 49.2188 18.4844C49.2188 14.9773 47.2703 11.8242 44.1336 10.2555ZM19.5312 40.625C18.2367 40.625 17.1875 39.5758 17.1875 38.2812C17.1875 37.85 17.5375 37.5 17.9688 37.5H21.0938C21.525 37.5 21.875 37.85 21.875 38.2812C21.875 39.5758 20.8258 40.625 19.5312 40.625ZM30.4688 40.625C29.1742 40.625 28.125 39.5758 28.125 38.2812C28.125 37.85 28.475 37.5 28.9062 37.5H32.0312C32.4625 37.5 32.8125 37.85 32.8125 38.2812C32.8125 39.5758 31.7633 40.625 30.4688 40.625Z" fill="#04CE78"/>
<path d="M10.207 31.168C10.1734 31.1008 10.1562 31.0258 10.1562 30.9516C10.1562 30.6852 10.3727 30.4688 10.6391 30.4688H12.6102L10 29.0188C9.18594 29.2891 8.59375 30.0485 8.59375 30.9516C8.59375 31.2672 8.66875 31.5836 8.80937 31.8665L8.86562 31.9797C8.25547 31.8727 7.69219 31.5883 7.24531 31.1407C6.8125 30.7079 6.23594 30.4688 5.62266 30.4688C4.74766 30.4688 3.96172 30.9547 3.57031 31.7375L1.19375 36.4907C0.924219 37.0305 0.78125 37.6344 0.78125 38.2375V49.2188H11.7188V39.0625C11.7188 38.6321 12.0695 38.2813 12.5 38.2813H13.2867C13.293 37.7563 13.3547 37.2329 13.4672 36.7188H12.9836L10.207 31.168ZM2.34375 38.2375C2.34375 37.8758 2.42891 37.5133 2.59141 37.1891L3.16172 36.0477L5.03672 36.9852C5.30312 37.1188 5.46875 37.3868 5.46875 37.6844V38.2813H3.90625V39.8438H5.46875V41.4063H3.90625V42.9688H5.46875V44.5313H3.90625V46.0938H5.46875V47.6563H2.34375V38.2375ZM7.03125 41.4063V39.8438H10.1562V41.4063H7.03125ZM10.1562 42.9688V44.5313H7.03125V42.9688H10.1562ZM7.03125 47.6563V46.0938H10.1562V47.6563H7.03125ZM10.2977 38.2813H7.03125V37.6844C7.03125 36.7915 6.53516 35.9883 5.73594 35.5883L3.86094 34.6508L4.96797 32.4368C5.17969 32.0125 5.80391 31.911 6.14062 32.2461C7.01016 33.1149 8.16563 33.5938 9.39531 33.5938H9.67344L11.3836 37.0149C10.8828 37.2891 10.4937 37.7391 10.2977 38.2813Z" fill="#000D44"/>
<path d="M32.0312 2.34375H29.5844L29.2383 1.825C28.8031 1.17187 28.0742 0.78125 27.2891 0.78125H22.7109C21.9258 0.78125 21.1969 1.17187 20.7609 1.825L20.4156 2.34375H17.9688C17.107 2.34375 16.4062 3.04453 16.4062 3.90625V5.46875C16.4062 6.33047 17.107 7.03125 17.9688 7.03125H20.4156L21.0938 8.04922V9.375C21.0938 9.51719 21.1117 9.65547 21.1359 9.79062L18.9367 11.9898C18.3125 12.6141 17.9688 13.4438 17.9688 14.3258C17.9688 14.7758 18.0586 15.2133 18.2359 15.6273L19.95 19.6281C17.7266 21.2437 16.4062 23.7812 16.4062 26.5625C16.4062 31.3008 20.2617 35.1562 25 35.1562C29.7383 35.1562 33.5938 31.3008 33.5938 26.5625C33.5938 23.7812 32.2734 21.2437 30.0492 19.6281L31.7633 15.6273C31.9414 15.2141 32.0312 14.7758 32.0312 14.3258C32.0312 13.4438 31.6875 12.6141 31.0633 11.9898L28.8641 9.79062C28.8883 9.65547 28.9062 9.51719 28.9062 9.375V8.04922L29.5844 7.03125H32.0312C32.893 7.03125 33.5938 6.33047 33.5938 5.46875V3.90625C33.5938 3.04453 32.893 2.34375 32.0312 2.34375ZM17.9688 3.90625H19.632C19.5711 4.16094 19.5312 4.42188 19.5312 4.6875C19.5312 4.95312 19.5711 5.21406 19.632 5.46875H17.9688V3.90625ZM22.6562 8.59375H27.3438V9.375C27.3438 9.80547 26.993 10.1562 26.5625 10.1562H23.4375C23.007 10.1562 22.6562 9.80547 22.6562 9.375V8.59375ZM28.5703 21.0938C28.7844 21.3391 28.9062 21.6461 28.9062 21.9742C28.9062 22.2563 28.8195 22.5273 28.6562 22.7563L25.5992 27.0352C25.3234 27.4211 24.6766 27.4219 24.4 27.0352L21.3438 22.757C21.1805 22.5273 21.0938 22.257 21.0938 21.9742C21.0938 21.6461 21.2156 21.3383 21.4297 21.0938H28.5703ZM32.0312 26.5625C32.0312 30.4391 28.8766 33.5938 25 33.5938C21.1234 33.5938 17.9688 30.4391 17.9688 26.5625C17.9688 24.9133 18.5414 23.3719 19.5438 22.1398C19.575 22.6891 19.7508 23.2141 20.0727 23.6648L23.1289 27.943C23.5594 28.5461 24.2594 28.9062 25 28.9062C25.7406 28.9062 26.4406 28.5461 26.8711 27.943L29.9281 23.6648C30.25 23.2141 30.4258 22.6891 30.457 22.1398C31.4586 23.3719 32.0312 24.9133 32.0312 26.5625ZM30.4688 14.3258C30.4688 14.5625 30.4211 14.7938 30.3281 15.0109L28.3906 19.5312H21.6094L19.6727 15.0117C19.5789 14.7937 19.532 14.5633 19.532 14.3266C19.532 13.8617 19.7133 13.4242 20.0422 13.0953L21.9594 11.1781C22.3633 11.5109 22.8734 11.7188 23.4375 11.7188H26.5625C27.1266 11.7188 27.6367 11.5109 28.0422 11.1781L29.9594 13.0953C30.2875 13.4234 30.4688 13.8609 30.4688 14.3258ZM28.6039 5.68516L27.707 7.03125H22.293L21.3961 5.68516C21.1984 5.38906 21.0938 5.04453 21.0938 4.6875C21.0938 4.33047 21.1984 3.98594 21.3961 3.68984L22.0617 2.69219C22.2063 2.47422 22.4492 2.34375 22.7109 2.34375H27.2883C27.55 2.34375 27.793 2.47422 27.9383 2.69141L28.6039 3.68906C28.8016 3.98594 28.9062 4.33047 28.9062 4.6875C28.9062 5.04453 28.8016 5.38906 28.6039 5.68516ZM32.0312 5.46875H30.368C30.4289 5.21406 30.4688 4.95312 30.4688 4.6875C30.4688 4.42188 30.4289 4.16094 30.368 3.90625H32.0312V5.46875Z" fill="#000D44"/>
<path d="M46.1955 34.7242L44.9627 34.1078C44.6971 33.975 44.5314 33.707 44.5314 33.4094V30.3773C44.5314 29.1602 43.965 28.05 43.0502 27.3242L41.4744 28.2C42.3713 28.5492 42.9689 29.407 42.9689 30.3773V33.4094C42.9689 34.3023 43.465 35.1055 44.2643 35.5055L45.4971 36.1219C46.8291 36.7875 47.6564 38.1266 47.6564 39.6156V47.6563H41.4064V42.0055C41.4064 41.6156 41.2947 41.2547 41.1135 40.9383C41.49 40.7453 41.8463 40.5094 42.1533 40.2016L42.74 39.6148L41.6354 38.5102L41.0486 39.0969C40.5666 39.5789 39.926 39.8438 39.2447 39.8438C38.4088 39.8438 37.6244 39.4336 37.1479 38.7461L36.7025 38.1039C36.7057 38.193 36.7182 38.2812 36.7182 38.3703C36.7182 39.0336 36.6096 39.6711 36.415 40.2703C37.1729 40.9891 38.1807 41.4063 39.2447 41.4063C39.5752 41.4063 39.8439 41.675 39.8439 42.0055V49.2188H49.2189V39.6156C49.2189 37.5313 48.0604 35.657 46.1955 34.7242Z" fill="#000D44"/>
<path d="M7.03047 23.7946L11.8359 26.4641L12.5953 25.0985L7.78984 22.429C6.35781 21.6329 5.46875 20.1219 5.46875 18.4844C5.46875 16.7641 6.425 15.2172 7.96016 14.45L12.0648 12.4196L11.3719 11.0188L7.26406 13.0508C5.19297 14.086 3.90625 16.168 3.90625 18.4844C3.90625 20.6883 5.10312 22.7235 7.03047 23.7946Z" fill="#000D44"/>
<path d="M21.0938 36.7188H17.9688C17.107 36.7188 16.4062 37.4195 16.4062 38.2812C16.4062 40.0047 17.8078 41.4062 19.5312 41.4062C21.2547 41.4062 22.6562 40.0047 22.6562 38.2812C22.6562 37.4195 21.9555 36.7188 21.0938 36.7188ZM19.5312 39.8438C18.6695 39.8438 17.9688 39.143 17.9688 38.2812H21.0938C21.0938 39.143 20.393 39.8438 19.5312 39.8438Z" fill="#000D44"/>
<path d="M32.0312 36.7188H28.9062C28.0445 36.7188 27.3438 37.4195 27.3438 38.2812C27.3438 40.0047 28.7453 41.4062 30.4688 41.4062C32.1922 41.4062 33.5938 40.0047 33.5938 38.2812C33.5938 37.4195 32.893 36.7188 32.0312 36.7188ZM30.4688 39.8438C29.607 39.8438 28.9062 39.143 28.9062 38.2812H32.0312C32.0312 39.143 31.3305 39.8438 30.4688 39.8438Z" fill="#000D44"/>
<path d="M42.2103 22.4282L37.4048 25.0977L38.1642 26.4633L42.9696 23.7938C44.897 22.7235 46.0938 20.6883 46.0938 18.4844C46.0938 16.1688 44.8071 14.0868 42.7329 13.0493L38.6282 11.0188L37.9353 12.4196L42.0368 14.4485C43.5751 15.2172 44.5313 16.7641 44.5313 18.4844C44.5313 20.1219 43.6423 21.6329 42.2103 22.4282Z" fill="#000D44"/>
</g>
<defs>
<clipPath id="clip0_1383_4971">
<rect width="50" height="50" fill="white"/>
</clipPath>
</defs>
</svg>
