<svg width="30" height="30" viewBox="0 0 30 30" fill="none" xmlns="http://www.w3.org/2000/svg">
<g clip-path="url(#clip0_1242_2283)">
<path d="M14.8261 8.4375C13.0252 8.4375 11.2584 8.81812 9.63281 9.53531C8.57062 10.7953 7.96875 12.3928 7.96875 14.0625C7.96875 17.9395 11.123 21.0938 15 21.0938C18.877 21.0938 22.0312 17.9395 22.0312 14.0625C22.0312 12.4964 21.5184 11.0198 20.5842 9.80203C18.8128 8.91516 16.8445 8.4375 14.8261 8.4375Z" fill="#04CE78"/>
<path d="M19.2188 14.0625C19.2188 11.7366 17.3259 9.84375 15 9.84375C12.6741 9.84375 10.7812 11.7366 10.7812 14.0625C10.7812 16.3884 12.6741 18.2812 15 18.2812C17.3259 18.2812 19.2188 16.3884 19.2188 14.0625ZM16.3908 17.0302C16.3964 16.9786 16.4062 16.928 16.4062 16.875C16.4062 16.5825 16.3162 16.3106 16.1625 16.0852C16.2047 16.0608 16.2502 16.0425 16.2905 16.0158L16.9612 16.6866C16.7841 16.8197 16.5933 16.935 16.3908 17.0302ZM17.6241 16.0237L16.9533 15.353C17.1164 15.1073 17.2355 14.8298 17.2964 14.5312H18.2437C18.1641 15.0858 17.9456 15.5948 17.6241 16.0237ZM18.2437 13.5938H17.2955C17.2772 13.5033 17.2425 13.417 17.2134 13.3294C17.295 13.1198 17.3438 12.8944 17.3438 12.6562C17.3438 12.1125 17.107 11.6259 16.7358 11.2833C17.5359 11.7848 18.1036 12.6202 18.2437 13.5938ZM16.4062 12.6562C16.4062 13.1733 15.9858 13.5938 15.4688 13.5938C14.9517 13.5938 14.5312 13.1733 14.5312 12.6562C14.5312 12.1392 14.9517 11.7188 15.4688 11.7188C15.9858 11.7188 16.4062 12.1392 16.4062 12.6562ZM15 10.7812C15.1055 10.7812 15.2095 10.7873 15.3122 10.7972C14.5467 10.8619 13.9167 11.3827 13.6903 12.0905L13.0383 11.4384C13.5867 11.0278 14.2641 10.7812 15 10.7812ZM12.3759 12.1012L13.0491 12.7744C12.8855 13.0223 12.7697 13.2998 12.7092 13.5942H11.7562C11.8359 13.0392 12.0544 12.5302 12.3759 12.1012ZM11.7562 14.5312H12.7036C12.7645 14.8298 12.8836 15.1073 13.0467 15.353L12.3759 16.0237C12.0544 15.5948 11.8359 15.0858 11.7562 14.5312ZM13.6092 17.0302C13.4067 16.935 13.2159 16.8197 13.0383 16.6866L13.7091 16.0158C13.7494 16.0425 13.7948 16.0612 13.837 16.0852C13.6837 16.3106 13.5938 16.5825 13.5938 16.875C13.5938 16.928 13.6036 16.9786 13.6092 17.0302ZM13.5938 14.0625C13.5938 13.8333 13.6566 13.6148 13.7592 13.418C14.0517 14.0723 14.7066 14.5312 15.4688 14.5312C15.803 14.5312 16.1119 14.4361 16.3842 14.2823C16.2773 14.9531 15.7003 15.4688 15 15.4688C14.2247 15.4688 13.5938 14.8378 13.5938 14.0625ZM14.5312 16.875C14.5312 16.6167 14.7417 16.4062 15 16.4062C15.2583 16.4062 15.4688 16.6167 15.4688 16.875C15.4688 17.1333 15.2583 17.3438 15 17.3438C14.7417 17.3438 14.5312 17.1333 14.5312 16.875Z" fill="#000D44"/>
<path d="M4.26303 16.5056L3.66256 15.6652L2.8999 16.2098L3.4999 17.0503C6.1474 20.7563 10.4463 22.9688 15.0002 22.9688C19.3488 22.9688 23.516 21.3577 26.734 18.4322L27.0344 18.1589L26.4035 17.4656L26.103 17.7389C23.058 20.5069 19.1149 22.0313 15.0002 22.0313C10.7487 22.0313 6.73475 19.9655 4.26303 16.5056Z" fill="#000D44"/>
<path d="M2.70389 19.0842L1.98389 19.6847C2.56982 20.3874 3.21904 21.0478 3.91232 21.6469L4.52545 20.9372C3.87014 20.3714 3.25748 19.748 2.70389 19.0842Z" fill="#000D44"/>
<path d="M4.85815 22.4072C5.47503 22.8675 6.12987 23.2898 6.8044 23.6625L7.25815 22.8422C6.62065 22.4902 6.0019 22.0908 5.41925 21.6562L4.85815 22.4072Z" fill="#000D44"/>
<path d="M7.7688 24.1561C8.39317 24.4509 9.04192 24.7102 9.69724 24.9267L9.99114 24.0366C9.37192 23.8322 8.75927 23.5875 8.16958 23.3086L7.7688 24.1561Z" fill="#000D44"/>
<path d="M10.6609 25.2136C11.2946 25.3819 11.9429 25.5145 12.5893 25.6078L12.7234 24.6802C12.1131 24.592 11.5004 24.4664 10.9018 24.308L10.6609 25.2136Z" fill="#000D44"/>
<path d="M13.6341 24.7852L13.5535 25.7189C14.033 25.7606 14.5196 25.7812 15 25.7812C15.1603 25.7812 15.3202 25.7794 15.4796 25.7756L15.4575 24.8386C14.8533 24.8522 14.2392 24.8372 13.6341 24.7852Z" fill="#000D44"/>
<path d="M16.373 24.795L16.4396 25.7302C17.0799 25.6847 17.7259 25.6078 18.3587 25.5019L18.204 24.577C17.5998 24.6787 16.9838 24.7519 16.373 24.795Z" fill="#000D44"/>
<path d="M19.1189 24.4017L19.3186 25.3176C19.9631 25.1775 20.6091 25.0031 21.2381 24.8001L20.9498 23.9081C20.3498 24.1017 19.7339 24.2676 19.1189 24.4017Z" fill="#000D44"/>
<path d="M21.865 23.586L22.1978 24.4621C22.8494 24.2146 23.4953 23.9301 24.1173 23.616L23.6955 22.7793C23.102 23.0784 22.4861 23.3498 21.865 23.586Z" fill="#000D44"/>
<path d="M28.6261 20.5129L28.9092 20.2555L28.2783 19.5623L27.9952 19.8196C26.9578 20.7623 25.8188 21.5924 24.6099 22.2862L25.0767 23.099C26.3447 22.3715 27.5386 21.5015 28.6261 20.5129Z" fill="#000D44"/>
<path d="M7.08068 11.6231C9.27115 9.87141 12.0218 8.90625 14.8263 8.90625C18.138 8.90625 21.2519 10.1958 23.5938 12.5377L25.4894 14.4333C26.4438 15.3877 27.6396 16.0645 28.9488 16.3922L29.1762 15.4828C28.0319 15.1969 26.9862 14.6048 26.1522 13.7709L24.2566 11.8753C21.738 9.35578 18.3888 7.96875 14.8263 7.96875C14.1321 7.96875 13.4421 8.03016 12.7605 8.1375C12.1465 7.70906 11.6538 7.15219 11.3154 6.51047C12.4615 6.23766 13.6394 6.09375 14.8263 6.09375C18.8233 6.09375 22.5972 7.63078 25.4538 10.4217L26.1087 9.75094C23.0763 6.78797 19.0699 5.15625 14.8263 5.15625C13.5199 5.15625 12.2238 5.31984 10.9657 5.63063C10.8485 5.22141 10.7815 4.79437 10.7815 4.35562V4.21875H9.84396V4.35562C9.84396 4.88016 9.92365 5.39016 10.0624 5.88C9.41553 6.08016 8.78178 6.32016 8.1649 6.59906C8.04115 6.17953 7.96896 5.74172 7.96896 5.29312V5.15625H7.03146V5.29312C7.03146 5.8875 7.13553 6.46594 7.31506 7.01625C6.70428 7.33688 6.11318 7.69641 5.54646 8.09391C5.29334 7.51828 5.15646 6.88641 5.15646 6.23062V6.09375H4.21896V6.23062C4.21896 7.09312 4.41818 7.92047 4.77912 8.66391C4.76553 8.67469 4.75193 8.68453 4.73834 8.69531L3.19521 9.93C3.09256 10.012 2.98381 10.087 2.87881 10.1662C2.53896 9.49875 2.34396 8.75297 2.34396 7.96875H1.40646C1.40646 9.95016 2.39881 11.7487 4.03193 12.8081C3.01475 13.5117 1.92256 14.1014 0.76709 14.5636L1.121 15.4317C2.71287 14.7952 4.19834 13.9294 5.53709 12.8583L7.08068 11.6231ZM10.3976 6.75609C10.6872 7.36078 11.0857 7.90875 11.5793 8.37656C10.9727 8.52938 10.3807 8.73141 9.80178 8.96672C9.26459 8.55937 8.82537 8.05031 8.51506 7.47C9.12631 7.19156 9.7549 6.95203 10.3976 6.75609ZM7.67318 7.88625C7.97131 8.45109 8.37068 8.96156 8.85021 9.39797C8.36646 9.64031 7.89256 9.90281 7.44068 10.2033C6.87022 9.86859 6.39115 9.42656 6.0199 8.90625C6.54959 8.53078 7.10225 8.19047 7.67318 7.88625ZM4.85272 12.1997C4.27287 11.8805 3.77553 11.46 3.38131 10.9598C3.5149 10.8605 3.65131 10.7653 3.78068 10.6617L5.2624 9.47672C5.63037 9.98719 6.08646 10.4367 6.61756 10.8023C6.57771 10.8333 6.53506 10.86 6.49521 10.8919L4.95209 12.1266C4.91975 12.1519 4.88506 12.1739 4.85272 12.1997Z" fill="#000D44"/>
<path d="M28.7312 26.8561L27.6564 27.9309V22.9688H26.7189V27.9309L25.644 26.8561L24.9812 27.5189L27.1876 29.7253L29.394 27.5189L28.7312 26.8561Z" fill="#000D44"/>
<path d="M2.34386 2.06903V7.03122H3.28136V2.06903L4.3562 3.14388L5.01901 2.48106L2.81261 0.274658L0.606201 2.48106L1.26901 3.14388L2.34386 2.06903Z" fill="#000D44"/>
</g>
<defs>
<clipPath id="clip0_1242_2283">
<rect width="30" height="30" fill="white"/>
</clipPath>
</defs>
</svg>
