<svg width="50" height="50" viewBox="0 0 50 50" fill="none" xmlns="http://www.w3.org/2000/svg">
<g clip-path="url(#clip0_126_7080)">
<path fill-rule="evenodd" clip-rule="evenodd" d="M14.8213 38.7229H13.3861V40.1581C13.3861 41.6227 11.1599 41.6227 11.1599 40.1581V38.7229H9.72466C8.23082 38.7229 8.23082 36.4967 9.72466 36.4967H11.1599V35.0322C11.1599 33.5676 13.3861 33.5676 13.3861 35.0322V36.4967H14.8213C16.2859 36.4967 16.2859 38.7229 14.8213 38.7229ZM43.8489 50H26.0691C25.454 50 24.9854 49.502 24.9561 48.9162C24.1652 31.2536 17.8676 26.4499 17.0767 25.9226C4.15935 21.9683 6.03398 5.8582 6.06327 5.68245C6.12185 5.24308 6.44406 4.8623 6.88342 4.74513L24.4581 0.0292573C24.6924 -0.029325 24.9561 -3.38759e-05 25.1904 0.0878396C44.4933 8.87519 44.9619 22.5834 44.9619 23.1693V48.8576C44.9619 49.4727 44.464 50 43.8489 50ZM27.1236 47.7445H33.2162L30.4921 30.1991C27.0064 30.7557 24.3702 27.0064 26.157 23.9015C27.2115 22.0562 29.4669 21.2946 31.4001 22.0855C33.5384 19.3614 37.932 20.2402 38.8401 23.6086C39.4259 25.8055 38.1664 28.0902 35.9988 28.7639L38.9572 47.7445H42.7358V23.1986C42.7065 22.7006 42.2378 10.4569 24.6339 2.31397L20.7381 3.33916L25.7469 10.8377C28.676 8.84589 32.6303 11.1599 32.3081 14.7041C32.1324 16.8424 30.4335 18.4534 28.3245 18.5706C27.5337 21.9683 23.1986 22.9935 20.9725 20.328C19.5079 18.5706 19.6837 15.9636 21.3533 14.4698L14.9678 4.89159L8.20152 6.70764C7.99649 9.72463 7.9379 20.8846 17.8676 23.8137C18.4241 23.9601 26.0105 28.471 27.1236 47.7445ZM35.5009 47.7445H36.7018L33.6262 28.0023C33.5091 27.3286 34.0363 26.7135 34.7393 26.7135C36.0281 26.7135 36.9947 25.454 36.6725 24.1945C36.1746 22.3198 33.5384 22.2027 32.8647 24.0187C32.6011 24.7217 31.693 24.956 31.1072 24.4874C29.6134 23.2571 27.3872 24.6631 27.9145 26.5378C28.2367 27.8266 29.7012 28.4124 30.8436 27.7387C31.5173 27.3579 32.396 27.768 32.5132 28.5295L35.5009 47.7445ZM18.4534 3.95427L17.2525 4.27647L23.843 14.1476C24.2238 14.7041 23.9895 15.495 23.3743 15.7879C21.529 16.6373 21.9977 19.42 24.0187 19.5957C25.249 19.6836 26.3035 18.6584 26.2156 17.4575C26.157 16.6959 26.86 16.0808 27.5923 16.2858C29.4669 16.7545 30.8729 14.5577 29.6426 13.0638C28.7932 12.0386 27.2115 12.1265 26.4499 13.2103C26.0105 13.8547 25.0439 13.8254 24.6046 13.181L18.4534 3.95427ZM12.273 44.8447C8.26011 44.8447 5.00879 41.5934 5.00879 37.6098C5.00879 33.5969 8.26011 30.3456 12.273 30.3456C16.2566 30.3456 19.5079 33.5969 19.5079 37.6098C19.5079 41.5934 16.2566 44.8447 12.273 44.8447ZM12.273 32.601C9.51963 32.601 7.26421 34.8271 7.26421 37.6098C7.26421 40.3632 9.51963 42.6186 12.273 42.6186C15.0264 42.6186 17.2818 40.3632 17.2818 37.6098C17.2818 34.8271 15.0264 32.601 12.273 32.601Z" fill="#000D44"/>
<path fill-rule="evenodd" clip-rule="evenodd" d="M23.3744 15.7879C21.529 16.6373 21.9977 19.42 24.0188 19.5957C25.249 19.6836 26.3035 18.6584 26.2156 17.4574C26.157 16.6959 26.86 16.0808 27.5923 16.2858C29.4669 16.7545 30.8729 14.5576 29.6427 13.0638C28.7932 12.0386 27.2115 12.1265 26.4499 13.2102C26.0106 13.8546 25.0439 13.8253 24.6046 13.1809L18.4534 3.95422L17.2525 4.27643L23.843 14.1475C24.2238 14.7041 23.9895 15.4949 23.3744 15.7879Z" fill="white"/>
<path fill-rule="evenodd" clip-rule="evenodd" d="M31.1072 24.4874C29.6134 23.2572 27.3872 24.6632 27.9145 26.5378C28.2367 27.8266 29.7012 28.4124 30.8436 27.7387C31.5173 27.358 32.396 27.768 32.5132 28.5296L35.5009 47.7446H36.7018L33.6263 28.0024C33.5091 27.3287 34.0363 26.7136 34.7393 26.7136C36.0281 26.7136 36.9947 25.454 36.6725 24.1945C36.1746 22.3199 33.5384 22.2027 32.8647 24.0188C32.6011 24.7218 31.693 24.9561 31.1072 24.4874Z" fill="white"/>
<path fill-rule="evenodd" clip-rule="evenodd" d="M26.157 23.9015C27.2115 22.0562 29.4669 21.2946 31.4001 22.0855C33.5384 19.3614 37.9321 20.2402 38.8401 23.6086C39.4259 25.8055 38.1664 28.0902 35.9989 28.7639L38.9573 47.7445H42.7358V23.1986C42.7065 22.7006 42.2379 10.4569 24.6339 2.31396L20.7382 3.33916L25.747 10.8377C28.6761 8.84589 32.6304 11.1599 32.3082 14.7041C32.1324 16.8424 30.4335 18.4534 28.3246 18.5706C27.5337 21.9683 23.1986 22.9935 20.9725 20.328C19.5079 18.5706 19.6837 15.9636 21.3533 14.4698L14.9678 4.89159L8.20155 6.70764C7.99651 9.72463 7.93793 20.8846 17.8676 23.8137C18.4242 23.9601 26.0106 28.471 27.1236 47.7445H33.2162L30.4921 30.1991C27.0065 30.7557 24.3703 27.0064 26.157 23.9015Z" fill="#04CE78"/>
<path fill-rule="evenodd" clip-rule="evenodd" d="M17.2818 37.6099C17.2818 34.8272 15.0264 32.6011 12.273 32.6011C9.51964 32.6011 7.26422 34.8272 7.26422 37.6099C7.26422 40.3632 9.51964 42.6186 12.273 42.6186C15.0264 42.6186 17.2818 40.3632 17.2818 37.6099ZM14.8213 36.4968C16.2859 36.4968 16.2859 38.7229 14.8213 38.7229H13.3861V40.1582C13.3861 41.6227 11.1599 41.6227 11.1599 40.1582V38.7229H9.72468C8.23083 38.7229 8.23083 36.4968 9.72468 36.4968H11.1599V35.0322C11.1599 33.5677 13.3861 33.5677 13.3861 35.0322V36.4968H14.8213Z" fill="#1F5FFF"/>
</g>
<defs>
<clipPath id="clip0_126_7080">
<rect width="50" height="50" fill="white"/>
</clipPath>
</defs>
</svg>
