<svg width="50" height="50" viewBox="0 0 50 50" fill="none" xmlns="http://www.w3.org/2000/svg">
<path d="M20.4665 20.8696C20.771 20.8696 21.018 20.6226 21.018 20.3182V19.2246C21.018 18.9201 20.771 18.6731 20.4665 18.6731C20.1621 18.6731 19.915 18.9201 19.915 19.2246V20.3182C19.915 20.6226 20.1621 20.8696 20.4665 20.8696Z" fill="#04CE78"/>
<path d="M37 47.5L11.5 48H5L4.5 47.5V41C5.3 35 10.8333 32.5 13.5 32H24.5C26.1 31.2 29.8333 32.3333 31.5 33C30.3 35.4 31.6667 39.3333 32.5 41L36.5 44.5L37 47.5Z" fill="#04CE78"/>
<path d="M21.8928 22.6253C21.1051 23.413 19.8248 23.4123 19.0385 22.6253C18.8231 22.4099 18.4742 22.4099 18.2587 22.6253C18.0433 22.8407 18.0433 23.1897 18.2587 23.4051C18.8669 24.0133 19.6661 24.3178 20.466 24.3178C21.2652 24.3178 22.0645 24.0133 22.6727 23.4051C22.8881 23.1897 22.8881 22.8407 22.6727 22.6253C22.4572 22.4099 22.1083 22.4099 21.8928 22.6253Z" fill="#04CE78"/>
<path d="M16.7631 7.54463C17.0346 7.66767 17.365 7.54859 17.4916 7.26674C17.5483 7.14035 17.6007 7.01326 17.6503 6.88257C17.7573 6.5975 17.6136 6.2794 17.3286 6.17169C17.0449 6.06757 16.7254 6.20831 16.618 6.49338C16.5768 6.60253 16.5322 6.70952 16.4849 6.81579C16.3603 7.09368 16.4849 7.4204 16.7631 7.54463Z" fill="#000D44"/>
<path d="M12.8259 11.206C14.1008 10.8778 15.2569 10.1964 16.1689 9.23632C16.3785 9.01516 16.3696 8.66618 16.1488 8.4565C15.9272 8.24683 15.5779 8.25544 15.3689 8.4766C14.5999 9.28658 13.6255 9.86102 12.5509 10.1375C12.2561 10.2136 12.0784 10.5145 12.1542 10.8089C12.2279 11.0946 12.5184 11.2822 12.8259 11.206Z" fill="#000D44"/>
<path d="M10.3859 37.5465C10.4889 37.8297 10.8017 37.981 11.0925 37.8768C11.379 37.7727 11.5265 37.4568 11.4228 37.1703L11.259 36.7193C11.1553 36.4335 10.8393 36.2863 10.5525 36.389C10.266 36.4931 10.1184 36.8091 10.2222 37.0956L10.3859 37.5465Z" fill="#000D44"/>
<path d="M11.1265 39.5852L12.9022 44.4744C13.0052 44.7576 13.3181 44.9089 13.6088 44.8047C13.8953 44.7006 14.0429 44.3847 13.9391 44.0982L12.1633 39.2089C12.0596 38.9231 11.7429 38.7766 11.4568 38.8786C11.1703 38.9827 11.0227 39.2994 11.1265 39.5852Z" fill="#000D44"/>
<path d="M16.2077 14.6936C15.0459 14.6936 14.1006 15.6393 14.1006 16.8011C14.1006 17.9629 15.0459 18.9086 16.2077 18.9086C17.3699 18.9086 18.3149 17.9629 18.3149 16.8011C18.3149 15.6393 17.3699 14.6936 16.2077 14.6936ZM16.2077 17.8057C15.6541 17.8057 15.2035 17.3547 15.2035 16.8011C15.2035 16.2475 15.6541 15.7965 16.2077 15.7965C16.7614 15.7965 17.2119 16.2475 17.2119 16.8011C17.2119 17.3547 16.7614 17.8057 16.2077 17.8057Z" fill="#04CE78"/>
<path d="M24.7242 14.6936C23.5624 14.6936 22.6167 15.6393 22.6167 16.8011C22.6167 17.9629 23.5624 18.9086 24.7242 18.9086C25.886 18.9086 26.831 17.9629 26.831 16.8011C26.831 15.6393 25.886 14.6936 24.7242 14.6936ZM24.7242 17.8057C24.1706 17.8057 23.7196 17.3547 23.7196 16.8011C23.7196 16.2475 24.1706 15.7965 24.7242 15.7965C25.2778 15.7965 25.7281 16.2475 25.7281 16.8011C25.7281 17.3547 25.2778 17.8057 24.7242 17.8057Z" fill="#04CE78"/>
<path d="M42.7183 24.704C42.4239 24.6222 42.1208 24.7938 42.039 25.0875C41.9571 25.3804 42.1287 25.6849 42.4224 25.7667C44.3483 26.3038 46.0903 27.3687 47.4603 28.8479C47.6674 29.0714 48.0155 29.0846 48.2394 28.8774C48.4627 28.6706 48.4764 28.3216 48.2689 28.0983C46.7609 26.4697 44.8416 25.2957 42.7183 24.704Z" fill="#000D44"/>
<path d="M40.0012 24.2775C39.8404 24.2703 39.6774 24.2675 39.5144 24.2675C39.2099 24.2675 38.9629 24.5145 38.9629 24.8189C38.9629 25.1234 39.2099 25.3704 39.5144 25.3704C39.6616 25.3704 39.8088 25.3733 39.9553 25.379C39.9631 25.3797 39.971 25.3797 39.9789 25.3797C40.2726 25.3797 40.5168 25.1478 40.529 24.8512C40.5419 24.5468 40.3057 24.2904 40.0012 24.2775Z" fill="#000D44"/>
<path d="M39.5143 27.1821C35.9607 27.1821 32.8902 29.2563 31.4258 32.253C30.9829 32.047 30.527 31.8601 30.051 31.7166C29.083 31.4201 28.0655 31.2693 27.0258 31.2693H26.6774C26.6762 31.2693 26.6751 31.2686 26.6739 31.2686H24.5628V31.0481H26.3443C31.0641 31.0481 34.9043 27.2051 34.9043 22.4809V12.3678C34.9043 6.40071 30.0502 1.5459 24.0831 1.5459H16.8544C10.8874 1.5459 6.03289 6.40071 6.03289 12.3678V22.481C6.03289 27.2051 9.87273 31.0481 14.5929 31.0481H16.3816V31.2686C16.3061 31.2686 13.841 31.2693 13.9165 31.2693C8.28409 31.2693 3.50568 35.7737 3.50568 41.6726V47.3503H2.02217C1.71772 47.3503 1.4707 47.5973 1.4707 47.9017C1.4707 48.2062 1.71772 48.4532 2.02217 48.4532C49.2898 48.4552 33.0118 48.4532 39.5186 48.4532C39.823 48.4532 40.0701 48.2062 40.0701 47.9017C40.0701 47.5973 39.823 47.3503 39.5186 47.3503H37.4362V44.9521C38.1046 45.111 38.7981 45.204 39.5143 45.204C44.4854 45.204 48.5295 41.1599 48.5295 36.1894C48.5295 31.2226 44.4854 27.1821 39.5143 27.1821ZM11.6277 18.9574V14.3259C15.7253 14.1005 19.1695 11.3833 20.4663 7.66737C21.7631 11.3833 25.2069 14.1005 29.3042 14.3259V18.6781C29.3042 23.4614 25.4514 27.7623 20.4708 27.789C15.6705 27.8147 11.6277 23.9122 11.6277 18.9574ZM14.5929 29.9452C10.4809 29.9452 7.13584 26.5969 7.13584 22.4809V12.3678C7.13584 7.00891 11.4955 2.64884 16.8544 2.64884H24.0832C29.442 2.64884 33.8014 7.00891 33.8014 12.3678V22.481C33.8014 26.5969 30.4559 29.9452 26.3443 29.9452H24.5628V27.9548C27.6275 26.4905 29.6346 23.6505 30.2235 20.5502C32.0247 20.3408 33.4395 18.8121 33.4395 16.9627C33.4395 15.1139 32.021 13.5866 30.2175 13.3808C30.1202 13.2947 29.9957 13.2381 29.8556 13.2381C24.9822 13.2381 21.0178 9.27367 21.0178 4.40019C21.0178 4.09574 20.7707 3.84872 20.4663 3.84872C20.1618 3.84872 19.9148 4.09574 19.9148 4.40019C19.9148 9.27367 15.9497 13.2381 11.0762 13.2381C10.9361 13.2381 10.8116 13.2947 10.7143 13.3808C8.91057 13.5866 7.49236 15.1139 7.49236 16.9627C7.49236 18.7961 8.88311 20.3143 10.6617 20.5448C11.1753 23.7524 13.2225 26.5889 16.3816 28.0143V29.9452L14.5929 29.9452ZM30.4078 19.417V14.5141C31.5115 14.7841 32.3365 15.7843 32.3365 16.9627C32.3365 18.1431 31.5115 19.1463 30.4078 19.417ZM10.524 14.5141V19.417C9.42071 19.1463 8.5953 18.1431 8.5953 16.9627C8.5953 15.7843 9.42071 14.7841 10.524 14.5141ZM16.9331 32.3715C17.2379 32.3715 17.4842 32.1245 17.4842 31.8201C17.4842 31.6489 17.4842 28.4052 17.4842 28.4868C18.4467 28.756 19.4635 28.8854 20.4686 28.8854C21.502 28.8854 22.523 28.7488 23.4599 28.4868C23.4599 29.7466 23.4599 31.9513 23.4599 31.8201C23.4599 32.1245 23.7069 32.3715 24.0114 32.3715H26.0452C26.0433 32.3813 26.0431 32.3913 26.0411 32.401C25.5162 35.1004 22.7111 37.7133 20.4745 39.2015C18.1776 37.6784 15.405 35.0726 14.8963 32.3715H16.9331ZM13.7729 32.373C14.2495 35.4623 17.5233 38.7231 20.1898 40.3298C20.365 40.4361 20.5855 40.4361 20.7607 40.3298C23.4368 38.7032 26.6753 35.5457 27.1687 32.373C28.049 32.3866 28.9092 32.5202 29.73 32.7715C30.1687 32.9036 30.5938 33.0666 30.9988 33.2569C30.7073 34.1049 30.5076 35.2688 30.5076 36.1894C30.5076 38.1165 31.0175 39.1828 31.5817 40.4524L29.0784 47.3503H11.8658L7.39003 35.0278C9.08365 33.3744 11.3884 32.4098 13.7729 32.373ZM4.60863 41.6726C4.60863 39.5379 5.32378 37.5542 6.55776 35.9674L10.6923 47.3503H4.60864L4.60863 41.6726ZM36.3333 44.6281V47.3503H30.2519L32.3303 41.6233C33.3916 43.0322 34.8242 44.0584 36.3333 44.6281ZM39.5143 44.101C35.1612 44.101 31.6142 40.558 31.6142 36.1859C31.6142 31.9375 35.0757 28.285 39.5143 28.285C43.8772 28.285 47.4266 31.8308 47.4266 36.1894C47.4266 40.5517 43.8772 44.101 39.5143 44.101Z" fill="#000D44"/>
<path d="M38.0536 32.8771C36.9025 34.0269 36.7141 35.8563 37.7018 37.2313L36.6189 38.3139L36.257 37.9523C36.0416 37.7362 35.6926 37.7376 35.4772 37.9523C35.2618 38.1677 35.2618 38.5167 35.4772 38.7321L35.8389 39.0936L35.3788 39.5536C35.1634 39.769 35.1634 40.118 35.3788 40.3334C35.5951 40.5497 35.9441 40.548 36.1587 40.3334L36.6189 39.8733L36.9809 40.235C37.1964 40.4505 37.5452 40.4504 37.7607 40.235C37.9761 40.0196 37.9761 39.6706 37.7607 39.4552L37.3988 39.0936L38.4829 38.0097C39.8607 38.9947 41.6845 38.8021 42.8316 37.655C44.1471 36.3381 44.1471 34.1968 42.8316 32.8814C41.5158 31.5641 39.3704 31.5588 38.0536 32.8771ZM42.0518 36.8752C41.1628 37.7627 39.7195 37.7656 38.8335 36.8795C37.945 35.9911 37.9416 34.5487 38.8335 33.6569C39.7063 32.784 41.1512 32.7605 42.0518 33.6612C42.9379 34.5473 42.9372 35.9891 42.0518 36.8752Z" fill="#000D44"/>
</svg>
