<svg width="50" height="50" viewBox="0 0 50 50" fill="none" xmlns="http://www.w3.org/2000/svg">
<circle cx="21.4995" cy="27.5" r="15.5" fill="#04CE78"/>
<path d="M35.8998 33.7C35.2998 35.1 34.4998 36.4 33.4998 37.7C27.9998 44.3 18.2998 45.2 11.6998 39.7C5.09984 34.2 4.29984 24.5 9.69984 18C12.3998 14.8 16.0998 12.9 19.9998 12.5" stroke="#000D44" stroke-miterlimit="10"/>
<path d="M40.7 23.4001C42 29.2001 40.7 35.4001 36.7 40.3001C29.8 48.6001 17.4 49.8001 9.09995 42.8001C0.799952 35.9001 -0.400048 23.5001 6.59995 15.2001C10.9 10.0001 17.4 7.60006 23.7 8.20006" stroke="#000D44" stroke-width="2" stroke-miterlimit="10"/>
<path d="M19.9856 20.2991C18.2868 18.8852 15.4769 19.4605 13.7096 21.5841C11.9423 23.7076 11.8868 26.5752 13.5856 27.9891C15.2844 29.4029 18.0943 28.8276 19.8616 26.7041C21.6289 24.5805 21.6845 21.7129 19.9856 20.2991Z" stroke="white" stroke-width="2" stroke-miterlimit="10"/>
<path d="M34.6999 2.59997C32.1999 2.29997 30.2999 4.69997 30.9999 6.99997C31.6999 9.39997 29.7999 11.7 27.2999 11.4C24.7999 11.1 22.8999 13.5 23.5999 15.8C24.2999 18.2 22.3999 20.5 19.8999 20.2" stroke="#000D44" stroke-width="2" stroke-miterlimit="10"/>
<path d="M33.2268 24.4724C31.528 23.0586 28.7181 23.6339 26.9508 25.7574C25.1835 27.8809 25.128 30.7486 26.8268 32.1624C28.5257 33.5763 31.3355 33.0009 33.1028 30.8774C34.8701 28.7539 34.9257 25.8863 33.2268 24.4724Z" stroke="white" stroke-width="2" stroke-miterlimit="10"/>
<path d="M48.0002 6.90001C45.5002 6.60001 43.6002 9.00001 44.3002 11.3C45.0002 13.7 43.1002 16 40.6002 15.7C38.1002 15.4 36.2002 17.8 36.9002 20.1C37.6002 22.5 35.7002 24.8 33.2002 24.5" stroke="#000D44" stroke-width="2" stroke-miterlimit="10"/>
<path d="M27.7998 18.9C28.0759 18.9 28.2998 18.6762 28.2998 18.4C28.2998 18.1239 28.0759 17.9 27.7998 17.9C27.5237 17.9 27.2998 18.1239 27.2998 18.4C27.2998 18.6762 27.5237 18.9 27.7998 18.9Z" fill="white"/>
<path d="M19.2999 36.6C19.797 36.6 20.1999 36.1971 20.1999 35.7001C20.1999 35.203 19.797 34.8 19.2999 34.8C18.8028 34.8 18.3999 35.203 18.3999 35.7001C18.3999 36.1971 18.8028 36.6 19.2999 36.6Z" fill="white"/>
<path d="M27.3999 37.1C27.676 37.1 27.8999 36.8761 27.8999 36.6C27.8999 36.3238 27.676 36.1 27.3999 36.1C27.1238 36.1 26.8999 36.3238 26.8999 36.6C26.8999 36.8761 27.1238 37.1 27.3999 37.1Z" fill="white"/>
<path d="M11.4 34C11.8971 34 12.3 33.597 12.3 33.0999C12.3 32.6029 11.8971 32.2 11.4 32.2C10.9029 32.2 10.5 32.6029 10.5 33.0999C10.5 33.597 10.9029 34 11.4 34Z" fill="white"/>
<path d="M16.5 16C16.7761 16 17 15.7761 17 15.5C17 15.2239 16.7761 15 16.5 15C16.2239 15 16 15.2239 16 15.5C16 15.7761 16.2239 16 16.5 16Z" fill="white"/>
<path d="M9.2001 24C9.53147 24 9.8001 23.7314 9.8001 23.4C9.8001 23.0687 9.53147 22.8 9.2001 22.8C8.86873 22.8 8.6001 23.0687 8.6001 23.4C8.6001 23.7314 8.86873 24 9.2001 24Z" fill="white"/>
<path d="M21.1001 31.3C21.3762 31.3 21.6001 31.0762 21.6001 30.8C21.6001 30.5239 21.3762 30.3 21.1001 30.3C20.824 30.3 20.6001 30.5239 20.6001 30.8C20.6001 31.0762 20.824 31.3 21.1001 31.3Z" fill="white"/>
<path d="M16.3997 39.0999C16.7863 39.0999 17.0997 38.7866 17.0997 38.4C17.0997 38.0134 16.7863 37.7 16.3997 37.7C16.0131 37.7 15.6997 38.0134 15.6997 38.4C15.6997 38.7866 16.0131 39.0999 16.3997 39.0999Z" fill="white"/>
<path d="M23.9 39.5C24.1209 39.5 24.3 39.3209 24.3 39.0999C24.3 38.879 24.1209 38.7 23.9 38.7C23.6791 38.7 23.5 38.879 23.5 39.0999C23.5 39.3209 23.6791 39.5 23.9 39.5Z" fill="white"/>
<path d="M30.8999 35.8C31.176 35.8 31.3999 35.5762 31.3999 35.3C31.3999 35.0239 31.176 34.8 30.8999 34.8C30.6238 34.8 30.3999 35.0239 30.3999 35.3C30.3999 35.5762 30.6238 35.8 30.8999 35.8Z" fill="white"/>
<path d="M25.0997 22.1C25.5968 22.1 25.9997 21.6971 25.9997 21.2001C25.9997 20.703 25.5968 20.3 25.0997 20.3C24.6027 20.3 24.1997 20.703 24.1997 21.2001C24.1997 21.6971 24.6027 22.1 25.0997 22.1Z" fill="white"/>
<path d="M19.5999 40.4C19.9865 40.4 20.2999 40.0866 20.2999 39.7C20.2999 39.3134 19.9865 39 19.5999 39C19.2133 39 18.8999 39.3134 18.8999 39.7C18.8999 40.0866 19.2133 40.4 19.5999 40.4Z" fill="white"/>
<path d="M8.5999 28.8C8.9865 28.8 9.2999 28.4866 9.2999 28.1C9.2999 27.7134 8.9865 27.4 8.5999 27.4C8.2133 27.4 7.8999 27.7134 7.8999 28.1C7.8999 28.4866 8.2133 28.8 8.5999 28.8Z" fill="white"/>
<path d="M19.1999 17.1C19.6417 17.1 19.9999 16.7418 19.9999 16.3C19.9999 15.8582 19.6417 15.5 19.1999 15.5C18.7581 15.5 18.3999 15.8582 18.3999 16.3C18.3999 16.7418 18.7581 17.1 19.1999 17.1Z" fill="white"/>
<path d="M31.6999 20.5C31.8656 20.5 31.9999 20.3657 31.9999 20.2C31.9999 20.0343 31.8656 19.9 31.6999 19.9C31.5342 19.9 31.3999 20.0343 31.3999 20.2C31.3999 20.3657 31.5342 20.5 31.6999 20.5Z" fill="white"/>
<path d="M33.6998 33.7C33.9207 33.7 34.0998 33.5209 34.0998 33.3C34.0998 33.0791 33.9207 32.9 33.6998 32.9C33.4789 32.9 33.2998 33.0791 33.2998 33.3C33.2998 33.5209 33.4789 33.7 33.6998 33.7Z" fill="white"/>
<path d="M12.4999 36.9C12.8313 36.9 13.0999 36.6313 13.0999 36.2999C13.0999 35.9686 12.8313 35.7 12.4999 35.7C12.1685 35.7 11.8999 35.9686 11.8999 36.2999C11.8999 36.6313 12.1685 36.9 12.4999 36.9Z" fill="white"/>
<path d="M12.4999 19.1C12.8313 19.1 13.0999 18.8314 13.0999 18.5C13.0999 18.1687 12.8313 17.9 12.4999 17.9C12.1685 17.9 11.8999 18.1687 11.8999 18.5C11.8999 18.8314 12.1685 19.1 12.4999 19.1Z" fill="white"/>
<path d="M23.6997 25.6C23.9758 25.6 24.1997 25.3761 24.1997 25.1C24.1997 24.8238 23.9758 24.6 23.6997 24.6C23.4236 24.6 23.1997 24.8238 23.1997 25.1C23.1997 25.3761 23.4236 25.6 23.6997 25.6Z" fill="white"/>
<path d="M22.7999 34.4C23.0208 34.4 23.1999 34.2209 23.1999 34C23.1999 33.7791 23.0208 33.6 22.7999 33.6C22.579 33.6 22.3999 33.7791 22.3999 34C22.3999 34.2209 22.579 34.4 22.7999 34.4Z" fill="white"/>
<path d="M27.5999 40.5C27.9865 40.5 28.2999 40.1866 28.2999 39.8C28.2999 39.4134 27.9865 39.1 27.5999 39.1C27.2133 39.1 26.8999 39.4134 26.8999 39.8C26.8999 40.1866 27.2133 40.5 27.5999 40.5Z" fill="white"/>
</svg>
