<svg width="40" height="40" viewBox="0 0 40 40" fill="none" xmlns="http://www.w3.org/2000/svg">
<path d="M17.5452 32.2182C17.3481 32.4744 17.3961 32.8418 17.6524 33.0388C17.7587 33.1205 17.8842 33.1601 18.0086 33.1601C18.1841 33.1601 18.3577 33.0815 18.4729 32.9316C18.9751 32.2785 19.4178 32.0121 20.0007 32.0121C20.5697 32.0121 21.0167 32.2759 21.5434 32.9224C21.7474 33.173 22.116 33.2106 22.3667 33.0066C22.6172 32.8024 22.6549 32.4338 22.4508 32.1833C21.942 31.5587 21.2038 30.8418 20.0008 30.8418C18.7484 30.8418 17.9995 31.6273 17.5452 32.2182Z" fill="white"/>
<path d="M25.2629 28.2133C25.5861 28.2133 25.848 27.9513 25.848 27.6281C25.848 27.305 25.5861 27.043 25.2629 27.043C24.9397 27.043 24.6777 27.305 24.6777 27.6281C24.6777 27.9513 24.9397 28.2133 25.2629 28.2133Z" fill="white"/>
<path d="M27.4611 29.7353C27.7801 29.6836 27.9967 29.3831 27.945 29.0641C27.8933 28.7452 27.5928 28.5285 27.2738 28.5802C26.9549 28.6319 26.7382 28.9324 26.7899 29.2514C26.8416 29.5703 27.1421 29.787 27.4611 29.7353Z" fill="white"/>
<path d="M24.6779 30.8207C25.0011 30.8207 25.2631 30.5587 25.2631 30.2355C25.2631 29.9124 25.0011 29.6504 24.6779 29.6504C24.3548 29.6504 24.0928 29.9124 24.0928 30.2355C24.0928 30.5587 24.3548 30.8207 24.6779 30.8207Z" fill="white"/>
<path d="M14.7385 28.2133C15.0616 28.2133 15.3236 27.9513 15.3236 27.6281C15.3236 27.305 15.0616 27.043 14.7385 27.043C14.4153 27.043 14.1533 27.305 14.1533 27.6281C14.1533 27.9513 14.4153 28.2133 14.7385 28.2133Z" fill="white"/>
<path d="M12.6262 29.7401C12.9493 29.7401 13.2113 29.4782 13.2113 29.155C13.2113 28.8318 12.9493 28.5698 12.6262 28.5698C12.303 28.5698 12.041 28.8318 12.041 29.155C12.041 29.4782 12.303 29.7401 12.6262 29.7401Z" fill="white"/>
<path d="M15.3234 30.8207C15.6466 30.8207 15.9086 30.5587 15.9086 30.2355C15.9086 29.9124 15.6466 29.6504 15.3234 29.6504C15.0003 29.6504 14.7383 29.9124 14.7383 30.2355C14.7383 30.5587 15.0003 30.8207 15.3234 30.8207Z" fill="white"/>
<path d="M16.4247 22.8662C15.9532 23.3376 15.3263 23.5973 14.6596 23.5973C13.9928 23.5973 13.366 23.3376 12.8945 22.8662C12.666 22.6377 12.2954 22.6377 12.0669 22.8662C11.8384 23.0947 11.8384 23.4653 12.0669 23.6938C12.2036 23.8305 12.3495 23.9545 12.5026 24.0664L12.1455 24.7308C11.9924 25.0155 12.0992 25.3703 12.3838 25.5232C12.6646 25.6742 13.0253 25.5659 13.1763 25.2849L13.5467 24.5957C13.7185 24.6503 13.8948 24.6921 14.0744 24.7207V25.4018C14.0744 25.725 14.3364 25.987 14.6596 25.987C14.9827 25.987 15.2447 25.725 15.2447 25.4018V24.7207C15.4243 24.6921 15.6006 24.6503 15.7724 24.5957C15.7724 24.5957 16.1423 25.2839 16.1428 25.2849C16.29 25.5589 16.6627 25.6698 16.9352 25.5232C17.2199 25.3703 17.3266 25.0154 17.1735 24.7308L16.8164 24.0664C16.9696 23.9546 17.1154 23.8305 17.2521 23.6938C17.4806 23.4653 17.4806 23.0947 17.2521 22.8662C17.0238 22.6377 16.6532 22.6377 16.4247 22.8662Z" fill="white"/>
<path d="M11.8705 7.20707C12.1907 7.2498 12.485 7.02433 12.5275 6.70402C12.7825 4.7834 14.1901 2.84793 15.9508 1.99746C18.4555 0.787301 21.5615 0.909723 24.259 2.32519C25.8693 3.17019 27.1001 4.24551 27.8184 5.4348C28.1074 5.91332 28.3304 6.56097 28.4814 7.3598C28.5344 7.64066 28.78 7.83644 29.0558 7.83644C29.0918 7.83644 29.1283 7.83308 29.165 7.82613C29.4826 7.76613 29.6914 7.46004 29.6314 7.14254C29.4544 6.20613 29.1815 5.42801 28.8202 4.82972C27.9797 3.43793 26.628 2.2466 24.8028 1.28886C21.7786 -0.298089 18.279 -0.427074 15.4417 0.94363C13.3134 1.97183 11.6761 4.22488 11.3675 6.55004C11.3249 6.87035 11.5502 7.16457 11.8705 7.20707Z" fill="white"/>
<path d="M31.1497 11.1222C29.4044 8.32519 26.4703 6.70058 23.7524 5.00089C21.9902 3.89878 19.9928 2.64949 17.7798 2.91699C16.5989 3.05956 15.5526 3.66511 14.8337 4.62222C14.3895 5.21331 14.1096 5.88863 14.0049 6.59683C14.0005 6.62644 13.8012 6.7123 13.7697 6.73058C12.4994 7.46503 11.3121 8.35964 10.2749 9.40152C7.27147 12.4183 6.49116 17.0399 8.33319 20.9016L8.69545 21.6611L8.65834 22.0659C8.40631 24.7236 8.22686 27.7892 9.2935 30.5365C10.6203 33.9538 13.6528 36.556 15.3424 37.8029C15.6023 37.9946 15.9687 37.9396 16.1608 37.6796C16.3526 37.4196 16.2975 37.0532 16.0374 36.8613C13.3359 34.8675 11.2756 32.4078 10.3846 30.113C9.41038 27.6039 9.5842 24.7007 9.82366 22.1746C9.82366 22.1746 9.86725 21.6996 9.86725 21.6994C10.2317 20.8174 10.4119 19.667 11.1534 19.0057C12.1591 18.1087 13.4417 17.4917 14.6821 16.895C16.4858 16.0273 18.3127 15.0965 19.9358 13.8905C21.0048 14.5649 22.0213 15.164 23.0287 15.7142C23.3123 15.8689 23.6678 15.7647 23.8227 15.481C23.9776 15.1975 23.8733 14.8419 23.5896 14.687C21.7702 13.6933 19.9177 12.5361 17.7598 11.0452C16.2603 10.0093 15.4037 9.17847 15.1715 7.75714C14.8837 5.99652 16.1357 4.29441 17.9201 4.07878C19.7227 3.86105 21.534 4.99378 23.1322 5.99316C25.6981 7.59785 28.506 9.09597 30.1569 11.7417C31.6719 14.1695 31.9086 17.3814 30.7937 20.0346C30.5405 19.3388 30.2326 18.6551 29.6462 18.1321C28.5191 17.1269 27.157 16.4713 25.9553 15.8928C25.664 15.7526 25.3144 15.8751 25.1742 16.1663C25.034 16.4575 25.1565 16.8072 25.4476 16.9474C26.5798 17.4923 27.863 18.11 28.8671 19.0055C29.3516 19.4377 29.5912 20.1306 29.8449 20.8641C29.9335 21.1203 30.0254 21.3834 30.1294 21.6413C30.388 24.4493 30.6634 27.4186 29.6173 30.1128C28.3722 33.3196 25.1779 36.1799 22.6036 37.7873C21.909 38.2211 20.6484 38.8294 20.0117 38.8294C20.008 38.8294 20.0044 38.8293 20.0009 38.8294C19.9975 38.8294 19.994 38.8294 19.9905 38.8294C19.632 38.8294 19.0125 38.6278 18.2887 38.2755C17.9982 38.1342 17.648 38.255 17.5065 38.5455C17.365 38.8361 17.4859 39.1864 17.7765 39.3278C18.4075 39.635 19.3022 39.9997 19.9916 39.9997H20.0103C21.2558 39.9996 23.1433 38.83 23.2233 38.78C26.7644 36.5689 29.5625 33.4871 30.7083 30.5364C31.775 27.789 31.5955 24.7235 31.3436 22.0675L31.3093 21.6936L31.6872 20.9014C33.1518 17.8312 32.9408 13.9926 31.1497 11.1222ZM17.0944 12.0081C17.7116 12.4345 18.3038 12.8333 18.8785 13.2102C17.4081 14.2464 15.7803 15.0678 14.1746 15.8403C12.8612 16.4721 11.503 17.1254 10.3743 18.1322C9.78748 18.6555 9.47959 19.3394 9.22631 20.0356C7.81053 16.6963 8.5421 12.8007 11.1041 10.2272C11.868 9.45988 12.7441 8.7655 13.6385 8.18824C13.6759 8.1641 14.0211 7.97503 14.0172 7.95097C14.3479 9.96113 15.7186 11.0575 17.0944 12.0081Z" fill="white"/>
<path d="M27.9398 22.8663C27.7112 22.6377 27.3407 22.6377 27.1122 22.8663C26.6407 23.3377 26.0138 23.5974 25.3471 23.5974C24.6803 23.5974 24.0534 23.3377 23.5819 22.8662C23.3533 22.6377 22.983 22.6377 22.7544 22.8662C22.5258 23.0947 22.5259 23.4652 22.7544 23.6938C22.8911 23.8304 23.0369 23.9545 23.1901 24.0663L22.833 24.7307C22.6799 25.0153 22.7866 25.3702 23.0713 25.5231C23.3458 25.6707 23.7144 25.5629 23.8638 25.2848L24.2343 24.5956C24.4061 24.6502 24.5823 24.692 24.7619 24.7206V25.4017C24.7619 25.7249 25.024 25.9869 25.3471 25.9869C25.6702 25.9869 25.9323 25.7249 25.9323 25.4017V24.7206C26.1119 24.692 26.2881 24.6502 26.4599 24.5956C26.4599 24.5956 26.8302 25.2845 26.8304 25.2848C26.9821 25.567 27.3395 25.6755 27.6229 25.5231C27.9075 25.37 28.0142 25.0152 27.8612 24.7306L27.5041 24.0662C27.6572 23.9543 27.803 23.8302 27.9398 23.6936C28.1683 23.4653 28.1683 23.0948 27.9398 22.8663Z" fill="white"/>
<path d="M19.6186 18.2102C19.6186 17.887 19.3566 17.625 19.0334 17.625C18.7102 17.625 18.4482 17.887 18.4482 18.2102C18.4482 18.5333 18.7102 18.7953 19.0334 18.7953C19.3566 18.7953 19.6186 18.5333 19.6186 18.2102Z" fill="white"/>
<path d="M20.968 20.7299C21.2911 20.7299 21.5531 20.4679 21.5531 20.1447C21.5531 19.8216 21.2911 19.5596 20.968 19.5596C20.6448 19.5596 20.3828 19.8216 20.3828 20.1447C20.3828 20.4679 20.6448 20.7299 20.968 20.7299Z" fill="white"/>
</svg>
