<svg width="40" height="40" viewBox="0 0 40 40" fill="none" xmlns="http://www.w3.org/2000/svg">
<path d="M24.0003 18.6061L18.97 18.1819L18.7275 21.2122L23.1518 21.5758C22.7881 21.1516 22.6063 20.6061 22.7275 20.0607C22.7881 19.3334 23.3336 18.7879 24.0003 18.6061Z" fill="#04CE78"/>
<path d="M14.1209 27.7576L10.7269 27.091C10.7875 26.7879 10.8481 25.5758 10.9694 23.697C9.02997 23.5152 7.45421 23.2122 7.15118 23.1516C6.18148 22.9697 5.51482 22.0001 5.69663 21.0304C5.87845 20.0607 6.84815 19.394 7.81785 19.5758C8.42391 19.697 9.3936 19.8182 10.6057 19.9394C10.0603 19.0304 9.09057 18.3637 7.87845 18.2425C5.87845 18 4.06027 19.4546 3.87845 21.4546C3.69663 23.091 3.51482 25.2122 3.51482 26.0001V26.2425C3.45421 27.394 3.93906 28.6061 4.96936 29.394C5.09057 29.394 10.3027 29.394 9.93906 29.394C10.4845 29.394 10.9694 29.9394 10.9694 30.6061V30.7879L11.7572 30.9091L10.7875 36.1213C10.6057 37.091 11.2724 38.0607 12.2421 38.2425C13.1512 38.4243 14.1815 37.8182 14.3633 36.7879L15.6966 29.8182C15.7572 29.3334 15.6966 28.8485 15.3936 28.4243C15.0906 28.0001 14.6057 27.8788 14.1209 27.7576Z" fill="#000D44"/>
<path d="M16.121 20.5455C13.9392 21.1516 9.75741 20.7274 7.6968 20.3031C7.03014 20.1819 6.42408 20.6061 6.30286 21.2728C6.18165 21.9395 6.6059 22.5455 7.27256 22.6667C9.87862 23.1516 14.121 23.6364 16.7877 22.9092C17.4544 22.7274 17.818 22.0607 17.6362 21.394C17.4544 20.7274 16.7877 20.3637 16.121 20.5455Z" fill="#000D44"/>
<path d="M33.2123 15.3941C35.0867 15.3941 36.6062 13.8746 36.6062 12.0001C36.6062 10.1257 35.0867 8.6062 33.2123 8.6062C31.3379 8.6062 29.8184 10.1257 29.8184 12.0001C29.8184 13.8746 31.3379 15.3941 33.2123 15.3941Z" fill="#000D44"/>
<path d="M8.12148 17.7576C9.9959 17.7576 11.5154 16.2381 11.5154 14.3637C11.5154 12.4892 9.9959 10.9697 8.12148 10.9697C6.24706 10.9697 4.72754 12.4892 4.72754 14.3637C4.72754 16.2381 6.24706 17.7576 8.12148 17.7576Z" fill="#000D44"/>
<path d="M29.7573 30.485V28.3032H35.2118C36.1209 28.3032 36.4239 27.5759 36.3027 26.7274C36.3027 25.1517 36.2421 18.9699 36.6663 17.3941C35.9997 16.4244 34.9088 15.8184 33.636 15.8184C31.8179 15.8184 30.3633 17.0911 30.0603 18.8487C31.7573 18.6062 32.3633 18.0002 32.4845 17.879C33.03 17.0305 34.1209 16.7881 34.9088 17.3335C35.7573 17.879 36.0603 18.9699 35.5148 19.8184C35.2724 20.2426 33.9391 22.1214 29.9391 22.5456V25.6365C29.9391 25.879 29.9391 26.1214 29.9997 26.3638L28.3633 26.8487C27.9391 26.9699 27.5148 27.2729 27.333 27.6365V35.5153C27.8179 35.3335 28.2421 34.9699 28.4239 34.485L30.0603 30.485H29.7573Z" fill="#000D44"/>
<path d="M24.6665 19.2122C23.9999 19.091 23.3938 19.5152 23.2726 20.1819C23.1514 20.8485 23.5756 21.4546 24.2423 21.5758C27.5756 22.1213 33.3332 22.3637 35.0302 19.4546C35.3938 18.9091 35.212 18.1213 34.6059 17.7576C33.9999 17.394 33.3332 17.5758 32.9696 18.1819C31.212 20 27.1514 19.6364 24.6665 19.2122Z" fill="#000D44"/>
<path d="M27.6973 25.0909C27.6973 24.7879 27.4548 24.4849 27.0912 24.4849H14.3033C14.0003 24.4849 13.6973 24.7273 13.6973 25.0909C13.6973 25.394 13.9397 25.697 14.3033 25.697H16.4245V38.7879H26.7882C26.7882 34.0606 26.7882 29.5152 26.7882 25.697H27.0912C27.4548 25.697 27.6973 25.4546 27.6973 25.0909Z" fill="#000D44"/>
<path d="M38.6665 37.1515V36.0606C38.6665 35.5152 38.2423 35.0303 37.6362 35.0303H34.7271C34.7271 34.8485 34.7271 29.5758 34.7271 29.8788H36.6059C37.5756 29.8788 37.9999 28 37.8786 26.9091L37.5756 16.4849C37.5756 16.4849 37.212 16.9697 37.0302 18.2424L36.9696 19.7576C36.9696 19.8182 36.9089 27.2727 36.9089 27.3333C36.8483 28 36.4847 28.9091 35.212 28.9091C35.1514 28.9091 32.1817 28.9091 32.1211 28.9091H30.3029V29.9394H30.9089H33.515C33.515 30.0606 33.515 35.2121 33.515 35.0909H30.6059C30.0605 35.0909 29.5756 35.5152 29.5756 36.1212V37.2121C29.3332 37.394 29.1514 37.6364 29.1514 38C29.1514 38.4849 29.5756 38.9091 30.0605 38.9091C30.5453 38.9091 30.9695 38.4849 30.9695 38C30.9695 37.697 30.7877 37.394 30.5453 37.2121V36.1212C30.5453 36.0606 30.6059 36 30.6665 36H33.5756V37.2727C33.3938 37.4546 33.2726 37.697 33.2726 37.9394C33.2726 38.4243 33.6968 38.8485 34.1817 38.8485C34.6665 38.8485 35.0908 38.4243 35.0908 37.9394C35.0908 37.697 34.9696 37.4546 34.7877 37.2727V35.9394H37.6968C37.7574 35.9394 37.818 36 37.818 36.0606V37.1515C37.5756 37.3333 37.3938 37.5758 37.3938 37.9394C37.3938 38.4243 37.818 38.8485 38.3029 38.8485C38.7877 38.8485 39.212 38.4243 39.212 37.9394C39.0908 37.5758 38.9089 37.2727 38.6665 37.1515Z" fill="#000D44"/>
<path d="M9.87867 30.0607C7.69686 30.0607 5.75746 30.0607 3.21201 30.0607C3.0908 27.697 2.42413 19.394 0.908977 20.2425C1.09079 22.1819 0.363522 15.0304 1.99989 30.7273C1.99989 31.091 2.1817 31.394 2.42413 31.394H3.45443L2.84837 38.7879H3.75746L4.36352 31.3334H7.99989L8.60595 38.7879H9.51504L8.90898 31.3334H9.93928C10.1817 31.3334 10.3635 31.091 10.3635 30.7273V30.6667C10.3029 30.3637 10.1211 30.0607 9.87867 30.0607Z" fill="#000D44"/>
<path d="M13.1513 11.394H22.4847C22.9089 12.1213 24.4241 13.394 25.515 14.2425C25.818 14.4849 26.2422 14.1213 26.121 13.7577L24.9695 11.394H26.2422C26.7877 11.394 27.2119 10.9698 27.2119 10.4243V2.12131C27.2119 1.57585 26.7877 1.15161 26.2422 1.15161H13.1513C12.6059 1.15161 12.1816 1.57585 12.1816 2.12131V10.4243C12.1816 10.9698 12.6059 11.394 13.1513 11.394ZM22.4241 4.36373C22.4241 3.63646 23.0301 3.0304 23.7574 3.0304C24.4847 3.0304 25.0907 3.63646 25.0907 4.36373V5.63646H22.4241V4.36373ZM22.4241 6.36373H25.0907V7.87888C25.0907 8.60616 24.4847 9.21222 23.7574 9.21222C23.0301 9.21222 22.4241 8.60616 22.4241 7.87888V6.36373ZM15.3332 8.12131L18.6059 4.84858C20.0604 6.90919 17.515 9.51525 15.3332 8.12131ZM18.2422 4.36373L14.9695 7.69707C12.9089 5.57585 15.9998 2.36373 18.2422 4.36373Z" fill="#04CE78"/>
</svg>
