<svg width="40" height="40" viewBox="0 0 40 40" fill="none" xmlns="http://www.w3.org/2000/svg">
<path d="M38.9372 36.0125L32.4997 19.8812V15C32.997 15 33.4739 14.8025 33.8256 14.4508C34.1772 14.0992 34.3747 13.6223 34.3747 13.125C34.3747 12.6277 34.1772 12.1508 33.8256 11.7992C33.4739 11.4475 32.997 11.25 32.4997 11.25H26.2497C25.7525 11.25 25.2755 11.4475 24.9239 11.7992C24.5723 12.1508 24.3747 12.6277 24.3747 13.125C24.3747 13.6223 24.5723 14.0992 24.9239 14.4508C25.2755 14.8025 25.7525 15 26.2497 15V19.8812L19.8122 36.0125C19.6651 36.2987 19.594 36.6179 19.6057 36.9396C19.6174 37.2612 19.7115 37.5744 19.8791 37.8491C20.0466 38.1239 20.2818 38.3511 20.5623 38.5088C20.8429 38.6666 21.1592 38.7496 21.481 38.75H37.2685C37.5903 38.7496 37.9066 38.6666 38.1871 38.5088C38.4676 38.3511 38.7029 38.1239 38.8704 37.8491C39.0379 37.5744 39.132 37.2612 39.1437 36.9396C39.1554 36.6179 39.0843 36.2987 38.9372 36.0125ZM25.6247 13.125C25.6247 12.9592 25.6906 12.8003 25.8078 12.6831C25.925 12.5658 26.084 12.5 26.2497 12.5H32.4997C32.6655 12.5 32.8245 12.5658 32.9417 12.6831C33.0589 12.8003 33.1247 12.9592 33.1247 13.125C33.1247 13.2908 33.0589 13.4497 32.9417 13.5669C32.8245 13.6842 32.6655 13.75 32.4997 13.75H26.2497C26.084 13.75 25.925 13.6842 25.8078 13.5669C25.6906 13.4497 25.6247 13.2908 25.6247 13.125ZM27.456 20.2312C27.4861 20.1579 27.501 20.0792 27.4997 20V15H31.2497V20C31.2485 20.0792 31.2634 20.1579 31.2935 20.2312L33.981 26.975C33.7158 27.1894 33.4633 27.4189 33.2247 27.6625C32.6247 28.2437 32.106 28.75 31.2497 28.75C30.4747 28.75 30.106 28.375 29.531 27.7125C29.2356 27.2759 28.8407 26.9157 28.379 26.6614C27.9172 26.4072 27.4016 26.2662 26.8747 26.25C26.4546 26.25 26.0393 26.3398 25.6566 26.5133C25.274 26.6869 24.9328 26.9402 24.656 27.2563L27.456 20.2312ZM37.806 37.1937C37.7512 37.2876 37.6727 37.3653 37.5784 37.419C37.484 37.4728 37.3771 37.5007 37.2685 37.5H21.481C21.3723 37.5003 21.2655 37.4723 21.171 37.4187C21.0765 37.3651 20.9976 37.2878 20.9421 37.1944C20.8865 37.101 20.8563 36.9948 20.8544 36.8862C20.8524 36.7776 20.8788 36.6703 20.931 36.575C20.9451 36.554 20.9557 36.5307 20.9622 36.5063L23.6247 29.8375C24.2194 29.5388 24.7386 29.1093 25.1435 28.5812C25.7185 27.9125 26.106 27.5 26.8747 27.5C27.6435 27.5 28.0185 27.875 28.5935 28.5375C28.8889 28.9741 29.2837 29.3343 29.7455 29.5886C30.2073 29.8428 30.7228 29.9838 31.2497 30C32.6122 30 33.3997 29.2312 34.0935 28.5562L34.4685 28.2L37.7872 36.5063C37.7938 36.5307 37.8044 36.554 37.8185 36.575C37.8707 36.6702 37.897 36.7775 37.8948 36.886C37.8926 36.9946 37.862 37.1007 37.806 37.1937Z" fill="white"/>
<path d="M25.625 33.125H26.875V34.375H25.625V33.125Z" fill="white"/>
<path d="M28.75 35H30V36.25H28.75V35Z" fill="white"/>
<path d="M31.875 33.125H33.125V34.375H31.875V33.125Z" fill="white"/>
<path d="M23.125 35H24.375V36.25H23.125V35Z" fill="white"/>
<path d="M34.375 35H35.625V36.25H34.375V35Z" fill="white"/>
<path d="M28.75 31.25H30V32.5H28.75V31.25Z" fill="white"/>
<path d="M25 30H26.25V31.25H25V30Z" fill="white"/>
<path d="M33.125 30.625H34.375V31.875H33.125V30.625Z" fill="white"/>
<path d="M14.375 21.25H11.875C11.2924 21.2496 10.7156 21.3662 10.1789 21.5927C9.64211 21.8192 9.15623 22.1511 8.75 22.5687V18.75H10.625C11.7849 18.7486 12.8969 18.2873 13.7171 17.4671C14.5373 16.6469 14.9987 15.5349 15 14.375C15 14.2092 14.9342 14.0502 14.8169 13.933C14.6997 13.8158 14.5408 13.75 14.375 13.75H11.875C11.2924 13.7496 10.7156 13.8662 10.1789 14.0927C9.64211 14.3192 9.15623 14.6511 8.75 15.0687V9.91247C10.1938 9.51872 11.25 7.77497 11.25 5.62497C11.25 3.24997 8.5875 1.43122 8.475 1.35622C8.37165 1.28636 8.24975 1.24902 8.125 1.24902C8.00025 1.24902 7.87835 1.28636 7.775 1.35622C7.6625 1.43122 5 3.24997 5 5.62497C5 7.77497 6.05625 9.51872 7.5 9.91247V11.3187C7.09377 10.9011 6.60789 10.5692 6.07112 10.3427C5.53435 10.1162 4.9576 9.99964 4.375 9.99997H1.875C1.70924 9.99997 1.55027 10.0658 1.43306 10.183C1.31585 10.3002 1.25 10.4592 1.25 10.625C1.25132 11.7849 1.71268 12.8969 2.53287 13.7171C3.35305 14.5373 4.46508 14.9986 5.625 15H7.5V18.8187C7.09377 18.4011 6.60789 18.0692 6.07112 17.8427C5.53435 17.6162 4.9576 17.4996 4.375 17.5H1.875C1.70924 17.5 1.55027 17.5658 1.43306 17.683C1.31585 17.8002 1.25 17.9592 1.25 18.125C1.25132 19.2849 1.71268 20.3969 2.53287 21.2171C3.35305 22.0373 4.46508 22.4986 5.625 22.5H7.5V26.3187C7.09377 25.9011 6.60789 25.5692 6.07112 25.3427C5.53435 25.1162 4.9576 24.9996 4.375 25H1.875C1.70924 25 1.55027 25.0658 1.43306 25.183C1.31585 25.3002 1.25 25.4592 1.25 25.625C1.25132 26.7849 1.71268 27.8969 2.53287 28.7171C3.35305 29.5373 4.46508 29.9986 5.625 30H7.5V32.5H4.375C4.28007 32.4995 4.18626 32.5206 4.10071 32.5617C4.01516 32.6029 3.94011 32.663 3.88125 32.7375C3.82371 32.8131 3.78375 32.9005 3.76429 32.9935C3.74483 33.0865 3.74635 33.1826 3.76875 33.275L5.01875 38.275C5.05225 38.4105 5.13014 38.5309 5.24002 38.6169C5.34989 38.703 5.48542 38.7499 5.625 38.75H10.625C10.7646 38.7499 10.9001 38.703 11.01 38.6169C11.1199 38.5309 11.1978 38.4105 11.2312 38.275L12.4812 33.275C12.5036 33.1826 12.5052 33.0865 12.4857 32.9935C12.4662 32.9005 12.4263 32.8131 12.3688 32.7375C12.3099 32.663 12.2348 32.6029 12.1493 32.5617C12.0637 32.5206 11.9699 32.4995 11.875 32.5H8.75V26.25H10.625C11.7849 26.2486 12.8969 25.7873 13.7171 24.9671C14.5373 24.1469 14.9987 23.0349 15 21.875C15 21.7092 14.9342 21.5502 14.8169 21.433C14.6997 21.3158 14.5408 21.25 14.375 21.25ZM11.875 15H13.6875C13.5424 15.7053 13.1586 16.3391 12.6008 16.7945C12.0429 17.2499 11.3451 17.4991 10.625 17.5H8.8125C8.95756 16.7946 9.34136 16.1608 9.89922 15.7054C10.4571 15.25 11.1549 15.0009 11.875 15ZM5.625 13.75C4.90487 13.7491 4.20707 13.4999 3.64922 13.0445C3.09136 12.5891 2.70756 11.9553 2.5625 11.25H4.375C5.09513 11.2509 5.79293 11.5 6.35078 11.9554C6.90864 12.4108 7.29244 13.0446 7.4375 13.75H5.625ZM5.625 21.25C4.90487 21.2491 4.20707 20.9999 3.64922 20.5445C3.09136 20.0891 2.70756 19.4553 2.5625 18.75H4.375C5.09513 18.7509 5.79293 19 6.35078 19.4554C6.90864 19.9108 7.29244 20.5446 7.4375 21.25H5.625ZM5.625 28.75C4.90487 28.7491 4.20707 28.4999 3.64922 28.0445C3.09136 27.5891 2.70756 26.9553 2.5625 26.25H4.375C5.09513 26.2509 5.79293 26.5 6.35078 26.9554C6.90864 27.4108 7.29244 28.0446 7.4375 28.75H5.625ZM11.075 33.75L10.1375 37.5H6.1125L5.175 33.75H11.075ZM8.125 8.74997C7.10625 8.74997 6.25 7.31872 6.25 5.62497C6.25 4.33747 7.5 3.16247 8.125 2.65622C8.75 3.16247 10 4.33747 10 5.62497C10 7.31872 9.14375 8.74997 8.125 8.74997ZM10.625 25H8.8125C8.95756 24.2946 9.34136 23.6608 9.89922 23.2054C10.4571 22.75 11.1549 22.5009 11.875 22.5H13.6875C13.5424 23.2053 13.1586 23.8391 12.6008 24.2945C12.0429 24.7499 11.3451 24.9991 10.625 25Z" fill="white"/>
<path d="M20 5H16.875C16.7405 4.99999 16.6097 5.04334 16.5018 5.12362C16.3939 5.2039 16.3148 5.31682 16.2762 5.44563L14.535 11.25H10V12.5H15C15.1345 12.5 15.2653 12.4567 15.3732 12.3764C15.4811 12.2961 15.5602 12.1832 15.5988 12.0544L17.34 6.25H20V5Z" fill="white"/>
<path d="M23.125 10H36.875C37.3723 10 37.8492 9.80246 38.2008 9.45083C38.5525 9.09919 38.75 8.62228 38.75 8.125V3.125C38.75 2.62772 38.5525 2.15081 38.2008 1.79917C37.8492 1.44754 37.3723 1.25 36.875 1.25H23.125C22.6277 1.25 22.1508 1.44754 21.7992 1.79917C21.4475 2.15081 21.25 2.62772 21.25 3.125V8.125C21.25 8.62228 21.4475 9.09919 21.7992 9.45083C22.1508 9.80246 22.6277 10 23.125 10ZM22.5 3.125C22.5 2.95924 22.5658 2.80027 22.6831 2.68306C22.8003 2.56585 22.9592 2.5 23.125 2.5H36.875C37.0408 2.5 37.1997 2.56585 37.3169 2.68306C37.4342 2.80027 37.5 2.95924 37.5 3.125V8.125C37.5 8.29076 37.4342 8.44973 37.3169 8.56694C37.1997 8.68415 37.0408 8.75 36.875 8.75H23.125C22.9592 8.75 22.8003 8.68415 22.6831 8.56694C22.5658 8.44973 22.5 8.29076 22.5 8.125V3.125Z" fill="white"/>
<path d="M26.25 3.75H36.25V5H26.25V3.75Z" fill="white"/>
<path d="M23.75 6.25H36.25V7.5H23.75V6.25Z" fill="white"/>
<path d="M23.75 3.75H25V5H23.75V3.75Z" fill="white"/>
</svg>
