<svg width="40" height="40" viewBox="0 0 40 40" fill="none" xmlns="http://www.w3.org/2000/svg">
<path d="M24.5 31.5H20H16L12 30.5V27.5L12.5 24.5L13.5 22.5L15 22L17 21L20 25H20.5L23 21L25.5 22L27.5 24L28 30L27.5 31L24.5 31.5Z" fill="#04CE78"/>
<path d="M15.9647 10.3025C15.8879 10.4225 15.8285 10.55 15.7822 10.7019C15.8466 10.5919 15.9029 10.4962 15.9585 10.4012C15.9635 10.4037 15.9679 10.4062 15.9722 10.4081C15.9666 10.4337 15.961 10.46 15.9554 10.4856C15.9541 10.4906 15.9529 10.4956 15.9522 10.5006C15.7941 11.1975 15.7535 11.9169 15.8229 12.6281L15.9685 14.1288C15.9829 14.2763 15.9916 14.4238 16.0016 14.5719C16.0504 15.3025 16.3597 15.9919 16.9385 16.6681C16.9547 16.6875 16.9704 16.7144 16.9772 16.7375C17.181 17.3781 17.4791 17.8956 17.891 18.3187C18.5097 18.955 19.2447 19.2912 20.0172 19.2912H20.0185C20.7872 19.2912 21.5191 18.9575 22.1354 18.3263C22.5297 17.9219 22.8222 17.4275 23.0291 16.815C23.0522 16.7469 23.0954 16.6719 23.1472 16.6081C23.7472 15.88 24.0404 15.1387 24.0397 14.3519C24.0397 14.2975 24.0397 14.2425 24.0404 14.1881L24.0516 11.4625C24.0379 11.3719 24.0247 11.2806 24.0116 11.1875C24.026 11.2244 24.0397 11.26 24.0535 11.295C24.0785 11.3581 24.1016 11.4181 24.1235 11.4787C24.1566 11.5719 24.1854 11.6656 24.216 11.7594C24.2185 11.7413 24.2154 11.7256 24.2122 11.7094C24.151 11.4144 24.0785 11.1231 23.9491 10.8494C23.9391 10.8281 23.9291 10.8063 23.9197 10.785C23.9191 10.7844 23.9191 10.7844 23.9191 10.7844C23.901 10.7444 23.8847 10.7038 23.8697 10.6631C23.8266 10.5463 23.7841 10.4294 23.741 10.3125C23.7085 10.2237 23.6766 10.1344 23.6441 10.0456C23.6379 10.0294 23.6322 10.0138 23.626 9.9975C23.6322 9.99375 23.6391 9.99062 23.6454 9.98688C23.7547 10.16 23.8647 10.3331 23.9747 10.5062C23.9579 10.4481 23.9372 10.39 23.9141 10.3338C23.8147 10.0925 23.686 9.87 23.4929 9.68938C23.4522 9.65188 23.4154 9.61 23.3847 9.56438C23.1891 9.27375 22.9547 9.02625 22.6335 8.87625C22.6241 8.87125 22.6147 8.86687 22.6054 8.86312C22.4579 8.7975 22.3085 8.73562 22.1604 8.67187C22.1229 8.65625 22.086 8.64 22.0491 8.62375C22.1247 8.63 22.1985 8.63812 22.2722 8.64937C22.6922 8.71187 23.0891 8.85313 23.4735 9.035C23.4585 9.01938 23.4416 9.00813 23.4254 8.99688C22.9635 8.685 22.4472 8.52812 21.8985 8.46375C21.8772 8.46125 21.856 8.45875 21.8347 8.45687C21.651 8.43875 21.4654 8.43312 21.2891 8.3625C21.2204 8.335 21.1466 8.32 21.0741 8.30125C20.991 8.28 20.9072 8.25937 20.8241 8.23875C20.8041 8.23375 20.7841 8.22875 20.7641 8.22375C20.7654 8.21312 20.7647 8.21687 20.766 8.20625H21.7147C21.7079 8.1875 21.6991 8.18187 21.6897 8.18062C21.2772 8.12125 20.8635 8.07687 20.446 8.11437C20.3029 8.12687 20.1616 8.13375 20.0197 8.11375C19.9572 8.105 19.8935 8.1025 19.8297 8.0975C19.8291 8.08688 19.8291 8.09 19.8291 8.07937C20.1391 8.02125 20.4485 7.96375 20.776 7.9025C20.4472 7.91062 20.1379 7.93188 19.8316 7.98688C19.661 8.01688 19.4935 8.07188 19.3216 8.09438C19.0766 8.12625 18.8285 8.13937 18.5797 8.16C19.0704 7.92625 19.5954 7.825 20.1304 7.76562C20.0297 7.76813 19.9291 7.76375 19.8291 7.76937C19.4585 7.78875 19.091 7.8325 18.7316 7.93062C18.4341 8.01187 18.1516 8.12563 17.9085 8.32313C17.8622 8.36063 17.8066 8.38625 17.7554 8.4175C17.7504 8.41 17.7447 8.40188 17.7397 8.39375C17.8516 8.31313 17.9591 8.22562 18.076 8.1525C18.1954 8.07812 18.3204 8.01313 18.4472 7.95313C18.5697 7.895 18.6979 7.84938 18.8241 7.79813C18.5747 7.86125 18.3347 7.94937 18.1035 8.0625C17.6447 8.2875 17.3004 8.66313 16.9041 8.97C16.9035 8.97063 16.9029 8.97187 16.9016 8.9725C16.876 9.01375 16.8479 9.05437 16.8254 9.0975C16.7922 9.16125 16.7666 9.23 16.7285 9.29062C16.7116 9.31812 16.6741 9.3375 16.6422 9.35063C16.5772 9.3775 16.5079 9.3925 16.4435 9.42125C16.1022 9.57438 15.901 9.84187 15.8154 10.2019C15.8972 10.0381 16.001 9.89188 16.1522 9.75875C16.111 9.89937 16.0772 10.025 16.0372 10.1481C16.021 10.2031 15.9954 10.2544 15.9647 10.3025ZM16.7922 14.1581L16.796 14.1131C16.7991 14.075 16.8029 14.0219 16.8091 13.9875C17.0004 13.9237 17.1129 13.7413 17.1191 13.4831C17.1235 13.2994 17.1247 13.1137 17.1266 12.9344C17.1285 12.7344 17.1304 12.53 17.136 12.3269C17.136 11.9856 17.4129 11.7113 17.7516 11.7113C17.7579 11.7113 17.7635 11.7113 17.7697 11.7119L18.0791 11.7212C18.3335 11.7006 18.591 11.7031 18.8466 11.7C19.0754 11.6969 19.3054 11.6994 19.5341 11.6994H20.2097C20.4553 11.6994 20.7016 11.7 20.9472 11.6988C21.1291 11.6981 21.3104 11.695 21.4922 11.6944C21.6491 11.6931 21.8066 11.6937 21.9635 11.6937C22.116 11.6931 22.2672 11.6906 22.4172 11.7362C22.591 11.7887 22.7204 11.8912 22.7947 12.0512C22.8429 12.1537 22.8647 12.2687 22.8979 12.375C22.8997 12.3731 22.9016 12.3706 22.9035 12.3688C22.9085 12.5431 22.9085 12.7212 22.9079 12.9044C22.9072 13.0637 22.9072 13.2287 22.9104 13.3925C22.9116 13.4362 22.911 13.48 22.911 13.5275V13.6194C22.911 13.8031 23.0422 13.9606 23.2229 13.9931C23.2297 14.0269 23.2347 14.0744 23.2372 14.0937C23.3116 14.7969 23.0897 15.4362 22.5385 16.1056C22.4247 16.2437 22.336 16.4012 22.2816 16.5612C22.1129 17.0594 21.8804 17.4563 21.5704 17.7744C21.1066 18.25 20.5704 18.5012 20.0191 18.5012H20.0179C19.4635 18.5006 18.9241 18.2469 18.4572 17.7669C18.1335 17.4337 17.8954 17.0187 17.7304 16.4981C17.6916 16.3744 17.6229 16.2525 17.5385 16.1531C16.9704 15.4925 16.7335 14.8581 16.7922 14.1581Z" fill="#000D44"/>
<path d="M28.637 30.2987L28.2133 25.2069L28.212 25.1962C27.9245 22.82 26.5402 21.36 24.0977 20.8562C23.9614 20.8275 23.7583 20.6844 23.5533 20.4787C23.3577 20.2825 23.1595 20.0288 23.0177 19.7656L22.4564 20.49L20.6377 23.3319L20.5377 22.1163V22.1156L20.517 21.97L20.8952 21.5919L20.9608 21.5263C21.1508 21.3363 21.1839 21.035 21.0295 20.8144C20.8752 20.5938 20.6189 20.45 20.3295 20.45H19.6727C19.3833 20.45 19.1277 20.5938 18.9733 20.8144C18.8183 21.035 18.8514 21.3363 19.0414 21.5263L19.4852 21.97L19.4727 22.0619L19.3658 23.335L17.5458 20.49L16.9845 19.7656C16.842 20.0294 16.6439 20.2831 16.4483 20.4787C16.2439 20.685 16.0408 20.8281 15.9046 20.8562C15.5239 20.935 15.1689 21.0363 14.8402 21.1619C14.6202 21.2456 14.4114 21.3387 14.2158 21.4425C12.8171 22.1812 12.0033 23.4375 11.7908 25.1962L11.3621 30.3656L11.3608 30.3844C11.3377 30.8356 11.4789 31.0531 11.9002 31.2156C12.0014 31.255 12.1358 31.3056 12.2745 31.3506C13.297 31.6862 14.4202 31.9019 15.7064 32.0081C16.7614 32.0969 17.8202 32.1531 18.5933 32.1944C18.8658 32.2088 19.1033 32.2212 19.2939 32.2325L19.3089 32.2338H19.3233C21.7027 32.2131 23.5495 32.1456 25.3989 31.8744C26.4852 31.7156 27.3002 31.5194 28.0427 31.24C28.5371 31.0538 28.6752 30.8338 28.637 30.2987ZM27.7383 30.4338C27.0558 30.6906 26.2958 30.8725 25.2727 31.0225C23.4758 31.2863 21.6652 31.3525 19.3295 31.3725C19.1402 31.3612 18.9058 31.3488 18.637 31.335C17.8695 31.2938 16.8189 31.2381 15.7764 31.1506C14.5577 31.0494 13.4995 30.8475 12.5408 30.5319C12.4258 30.495 12.3108 30.4519 12.2208 30.4169L12.6446 25.2944C12.8102 23.9388 13.3827 22.9612 14.3827 22.3406C14.4202 22.5181 14.4552 22.6606 14.4758 22.735C14.5052 22.835 14.5395 22.9406 14.5752 23.0519L14.5777 23.06C14.6364 23.2413 14.7089 23.4625 14.7758 23.7175C13.9195 24.1169 13.417 24.92 13.4877 25.2981C13.1189 25.82 12.9564 26.4562 13.0177 27.1406C13.0314 27.295 13.1114 27.4331 13.2358 27.5194C13.247 27.5894 13.2595 27.6556 13.2733 27.7213C13.4189 28.39 13.7277 28.9894 14.1433 29.4069C14.3708 29.635 14.6214 29.7981 14.8902 29.8938C14.9545 30.1638 15.2145 30.3363 15.4758 30.28C15.7389 30.2225 16.0983 29.9194 16.0364 29.635C15.9746 29.3494 15.522 29.2231 15.2589 29.2806C15.1877 29.2956 15.1214 29.3275 15.0633 29.3738C14.4058 29.1431 13.9552 28.3288 13.7983 27.6069C13.792 27.5769 13.7864 27.5481 13.7808 27.5187C13.9208 27.4181 14.0008 27.2437 13.9839 27.0637C13.8952 26.0756 14.482 25.3675 15.6364 25.0706L15.6414 25.0694L15.6464 25.0688C16.8977 24.7875 17.812 25.1844 18.1558 26.1606C18.2158 26.3312 18.362 26.4569 18.5302 26.49C18.5377 26.5194 18.5445 26.5481 18.5508 26.5775C18.7077 27.2994 18.637 28.2275 18.1333 28.7106C18.0627 28.6919 17.9889 28.6906 17.917 28.7063C17.6533 28.7638 17.2945 29.0669 17.3558 29.3513C17.4183 29.6369 17.8702 29.7625 18.1339 29.7056C18.3945 29.6494 18.5589 29.3844 18.5058 29.1119C18.7114 28.9131 18.8714 28.66 18.9833 28.3581C19.1877 27.8056 19.2202 27.1331 19.0745 26.4637C19.0608 26.3987 19.0439 26.3319 19.0258 26.2637C19.0414 26.2369 19.0552 26.2075 19.0664 26.1775C19.1064 26.0662 19.1064 25.9425 19.0664 25.8294C18.8308 25.1612 18.4008 24.6381 17.8227 24.3187C17.7964 24.3044 17.7689 24.29 17.7433 24.2775C17.7364 24.2738 17.7295 24.2694 17.722 24.2663C17.5789 24.005 17.1183 23.6687 16.5002 23.5294C16.2239 23.4819 15.8027 23.4519 15.4577 23.5056C15.387 23.2388 15.312 23.0087 15.257 22.8394C15.227 22.7487 15.1983 22.6675 15.172 22.5956C15.162 22.5662 15.1014 22.3056 15.0333 22.0112C15.3495 21.8819 15.697 21.7781 16.0764 21.7C16.3845 21.6369 16.697 21.4275 16.9758 21.1625L19.2552 24.6081L19.252 24.6325H19.2714L19.6508 25.2063C19.8164 25.4569 20.1833 25.4569 20.3489 25.2063L20.7283 24.6325H20.747V24.6163H20.7452L20.7439 24.6088L23.0239 21.1625C23.3027 21.4275 23.6152 21.6369 23.9233 21.7C24.0508 21.7263 24.1752 21.7556 24.2952 21.7875C24.3277 21.8406 24.3614 21.8981 24.3977 21.9625C24.4895 22.1244 24.5445 22.3375 24.562 22.5944C24.5933 23.0388 24.5052 23.6288 24.3208 24.23C23.3158 23.9706 22.2727 24.5469 21.9652 25.5475C21.6489 26.5775 22.2289 27.6725 23.2583 27.9894C24.2877 28.3056 25.3833 27.7256 25.7002 26.6956C25.9452 25.8981 25.6452 25.0212 24.9708 24.5362C25.107 24.0981 25.1989 23.5175 25.2133 22.9988C25.2202 22.7244 25.2083 22.4 25.147 22.0894C26.4402 22.6812 27.1664 23.7394 27.3558 25.295L27.7777 30.3662C27.7789 30.3862 27.7796 30.4031 27.7808 30.4181C27.7696 30.4225 27.7545 30.4281 27.7383 30.4338ZM25.1908 26.5381C24.9608 27.2869 24.1645 27.7094 23.4158 27.4794C22.6677 27.2494 22.2452 26.4531 22.4758 25.7037C22.7058 24.9556 23.502 24.5331 24.2502 24.7631C24.9989 24.9931 25.4208 25.7894 25.1908 26.5381Z" fill="#000D44"/>
<path d="M24.6467 26.3732C24.7833 25.9288 24.5341 25.4578 24.09 25.3213C23.6459 25.1847 23.1752 25.4343 23.0385 25.8787C22.9018 26.3231 23.151 26.7941 23.5951 26.9306C24.0392 27.0672 24.51 26.8176 24.6467 26.3732Z" fill="#000D44"/>
<path d="M32.7531 10.3765H32.93C33.0762 10.3765 33.195 10.494 33.195 10.6408V11.0608H33.615C33.7606 11.0608 33.8793 11.179 33.8793 11.3252V11.5021C33.8793 11.6483 33.7612 11.7671 33.615 11.7671H33.195V12.1865C33.195 12.3327 33.0768 12.4515 32.93 12.4515H32.7531C32.6075 12.4515 32.4887 12.3333 32.4887 12.1865V11.7671H32.0687C31.9231 11.7671 31.8037 11.649 31.8037 11.5021V11.3252C31.8037 11.1977 31.8943 11.0908 32.0156 11.0665C32.0331 11.0627 32.05 11.0608 32.0687 11.0608H32.4887V10.6408C32.4887 10.5596 32.525 10.4865 32.5831 10.4383C32.6293 10.4002 32.6881 10.3765 32.7531 10.3765Z" fill="#000D44"/>
<path d="M37.3265 20.8626C36.8734 20.6982 36.5009 20.4307 36.2552 20.0082C36.1415 19.8138 36.064 19.6113 36.0127 19.4032H36.2334C36.4384 19.4138 36.5277 19.3263 36.6009 19.1507C36.9709 18.262 37.0665 17.3407 36.9484 16.3932C36.8084 15.272 36.4584 14.2382 35.7615 13.362C35.7421 13.3326 35.7215 13.3032 35.7002 13.2745C35.6577 13.217 35.6134 13.1607 35.5677 13.1076C35.4421 12.9588 35.3052 12.8282 35.1584 12.7113C35.1427 12.6963 35.1265 12.6813 35.1102 12.667C35.1396 12.6026 35.1646 12.5351 35.1859 12.4651C35.1952 12.4338 35.2052 12.3988 35.2171 12.362L35.219 12.3551C35.2221 12.3438 35.2259 12.332 35.2296 12.3201L35.2315 12.3126C35.3746 11.8282 35.6177 11.0076 35.6396 10.9363C35.769 10.5457 35.7065 10.1045 35.4765 9.78385C35.2684 9.49385 34.9534 9.33447 34.5902 9.33447H31.0927C30.7296 9.33447 30.4152 9.49385 30.2071 9.78322C29.9765 10.1038 29.914 10.5451 30.0434 10.9357L30.4971 12.4657C30.5052 12.4926 30.514 12.5195 30.5234 12.5457C30.5396 12.5913 30.5584 12.6351 30.5784 12.6782C30.5715 12.6838 30.5652 12.6895 30.559 12.6951C30.3952 12.8182 30.2465 12.9563 30.1171 13.1107C30.0665 13.1707 30.019 13.2332 29.974 13.2982C29.2371 14.1945 28.8727 15.2582 28.7327 16.4145C28.6165 17.372 28.7109 18.3051 29.1102 19.1926C29.1484 19.2763 29.2565 19.3895 29.3302 19.3888H29.6952C29.504 20.0845 29.084 20.5976 28.3634 20.8701C28.3434 20.8776 28.3234 20.8895 28.2715 20.9145C28.7821 21.0732 29.2809 21.192 29.7627 21.1995L29.9946 21.1401C30.4159 21.0501 30.824 20.8595 31.214 20.5276C31.5221 20.702 31.809 20.8757 32.1065 21.0301C32.1084 21.0313 32.1102 21.032 32.1121 21.0332C32.3302 21.1451 32.574 21.1976 32.819 21.1976H32.8546C33.094 21.1976 33.3321 21.1476 33.5465 21.0407C33.5477 21.0395 33.5496 21.0395 33.5509 21.0382C33.8209 20.9026 34.0815 20.7507 34.3502 20.6032C34.7696 20.9495 35.2802 21.1207 35.8052 21.1782L35.9371 21.1951C36.4802 21.1782 37.0077 21.0488 37.409 20.8976C37.3771 20.8832 37.3521 20.8713 37.3265 20.8626ZM30.7096 10.1445C30.8009 10.0176 30.9296 9.95322 31.0927 9.95322H34.5902C34.7534 9.95322 34.8821 10.0176 34.9734 10.1445C35.089 10.3051 35.1196 10.5407 35.0509 10.7445L35.0471 10.7551C35.0471 10.7551 34.7877 11.6301 34.6384 12.137C34.634 12.152 34.629 12.1663 34.6252 12.1807C34.6134 12.2188 34.6027 12.2557 34.5927 12.2882C34.589 12.3013 34.5852 12.3132 34.5809 12.3257C34.5659 12.3688 34.549 12.4095 34.5284 12.4482C34.3884 12.7182 34.1284 12.8651 33.7721 12.8738C33.7621 12.8745 33.7527 12.8738 33.7421 12.8738H31.9409C31.839 12.8738 31.7421 12.8626 31.6552 12.8401C31.3209 12.7532 31.1734 12.5201 31.1084 12.3395C31.1077 12.3382 31.1077 12.3382 31.1071 12.337C31.1015 12.3207 31.0959 12.3032 31.0909 12.2876L30.6359 10.7545L30.6327 10.7438C30.564 10.5407 30.594 10.3051 30.7096 10.1445ZM35.8177 16.6438C35.8196 16.727 35.7771 16.9876 35.724 17.2763C35.4952 18.5182 34.8059 19.6363 33.7771 20.3688C33.744 20.3926 33.7102 20.4163 33.6759 20.4395C33.0984 20.8326 32.6084 20.7476 31.999 20.4263C29.5352 19.1288 30.2552 15.452 30.2552 15.452C30.2859 15.1795 30.3365 14.9226 30.4009 14.6826C30.4465 14.5157 30.5971 14.3951 30.7702 14.402C30.7715 14.4026 30.7721 14.4026 30.774 14.4026C31.3715 14.4282 31.9665 14.3895 32.5515 14.2563C32.7465 14.212 32.9334 14.157 33.1134 14.0895C33.2359 14.182 33.3634 14.2707 33.494 14.357C33.8334 14.582 34.1796 14.8051 34.4802 15.0751C34.784 15.347 35.0352 15.6763 35.3102 15.982C35.4127 15.3938 34.9134 15.0782 34.6546 14.6482C35.0196 14.8788 35.3215 15.1488 35.5259 15.4826L35.6034 15.6213C35.7227 15.8576 35.7965 16.1238 35.814 16.4282C35.8177 16.5001 35.8196 16.5726 35.8177 16.6438Z" fill="#000D44"/>
<path d="M33.0811 29.342L33.8649 24.5883C33.5424 24.647 33.1986 24.6789 32.8411 24.6789C32.4836 24.6789 32.1405 24.6458 31.8174 24.5864L32.6011 29.342H33.0811Z" fill="#000D44"/>
<path d="M35.9912 26.0869H37.7187V26.5413H35.9912V26.0869Z" fill="#000D44"/>
<path d="M36.7235 22.3975H36.6429C35.9179 22.3975 35.4691 22.2407 35.2704 21.9175L34.8397 21.2175L33.4385 29.7175H32.246L30.8447 21.2175L30.4141 21.9175C30.2154 22.2407 29.7666 22.3975 29.0416 22.3975H28.961C28.6135 22.3975 28.2797 22.4582 27.9697 22.5688C28.0829 22.7419 28.186 22.9232 28.2791 23.1132C28.4947 23.0475 28.7241 23.0119 28.961 23.0119H29.0416C29.6497 23.0119 30.1216 22.9094 30.4672 22.7013L31.6235 29.7175H29.2354L29.2797 30.2525C29.2816 30.2794 29.2822 30.3057 29.2835 30.3319H31.6235H32.3472H33.3372H34.061H38.6566C39.2254 30.3319 39.6885 29.8688 39.6885 29.3V25.3619C39.6879 23.7275 38.3579 22.3975 36.7235 22.3975ZM39.0735 29.3C39.0735 29.53 38.886 29.7175 38.656 29.7175H34.0604L35.2172 22.7013C35.5629 22.9094 36.0347 23.0119 36.6429 23.0119H36.7235C38.0197 23.0119 39.0735 24.0663 39.0735 25.3619V29.3Z" fill="#000D44"/>
<path d="M6.99688 16.8275L5.62438 17.3975C5.53063 17.4369 5.46875 17.5281 5.46875 17.63V19.4225C5.46875 19.4862 5.49313 19.5469 5.53625 19.5937C5.83313 19.9169 7.0825 21.0694 8.63812 19.5944C8.68875 19.5462 8.71813 19.48 8.71813 19.41V17.6306C8.71813 17.5287 8.65688 17.4369 8.5625 17.3981L7.19 16.8281C7.12875 16.8019 7.05875 16.8019 6.99688 16.8275Z" fill="#000D44"/>
<path d="M10.2625 14.5137V13.7312C10.2625 12.3975 9.18129 11.6775 7.84754 11.6775H6.23629C4.90254 11.6775 3.82129 12.3975 3.82129 13.7312V14.5137C3.82129 14.5137 6.83566 15.1119 10.2625 14.5137Z" fill="#000D44"/>
<path d="M4.95318 19.4226V18.1869C4.67318 17.7738 4.55943 17.3657 4.5963 16.9238L4.59943 16.8888C4.60193 16.8588 4.60505 16.8176 4.60943 16.7913C4.75818 16.7419 4.84568 16.5994 4.85068 16.3988C4.8538 16.2557 4.85505 16.1113 4.8563 15.9719C4.85755 15.8163 4.85943 15.6569 4.8638 15.4988C4.8638 15.3826 4.90505 15.2763 4.9738 15.1938C4.40255 15.1363 3.99755 15.0701 3.81943 15.0388C3.81193 15.2701 3.81818 15.5026 3.84068 15.7338L3.95443 16.9026C3.96568 17.0176 3.97255 17.1326 3.98005 17.2476C4.01818 17.8163 4.2588 18.3532 4.70943 18.8794C4.72255 18.8944 4.73443 18.9157 4.74005 18.9338C4.80068 19.1244 4.87193 19.3007 4.95505 19.4638C4.9538 19.4494 4.95318 19.4357 4.95318 19.4226Z" fill="#000D44"/>
<path d="M9.26848 15.2838C9.30598 15.3638 9.32348 15.4532 9.3491 15.5357C9.35035 15.5338 9.35223 15.5326 9.35348 15.5307C9.35723 15.6663 9.35723 15.8051 9.3566 15.9476C9.3566 16.072 9.35598 16.2001 9.35848 16.3276C9.3591 16.3613 9.3591 16.3957 9.35848 16.4326V16.5045C9.35848 16.6476 9.46098 16.7701 9.6016 16.7957C9.60723 16.822 9.61098 16.8588 9.61285 16.8738C9.66285 17.3451 9.54098 17.7795 9.23285 18.2238V19.4088C9.23285 19.447 9.2291 19.4851 9.22348 19.5226C9.31035 19.3595 9.3866 19.1832 9.4516 18.9913C9.4691 18.9382 9.50348 18.8801 9.54348 18.8301C10.0104 18.2632 10.2391 17.6863 10.2385 17.0732C10.2385 17.0307 10.2385 16.9882 10.2391 16.9457L10.2472 15.0376C9.89348 15.097 9.54535 15.1445 9.2041 15.1813C9.2291 15.2126 9.25098 15.2457 9.26848 15.2838Z" fill="#000D44"/>
<path d="M10.7866 29.5061C9.50287 29.6705 8.18224 29.7155 6.51974 29.7293C6.37224 29.7205 6.18974 29.7105 5.98099 29.6999C5.38349 29.668 4.56537 29.6249 3.75349 29.5568C2.80474 29.478 1.98099 29.3205 1.23412 29.0749C1.14412 29.0461 1.05537 29.0124 0.984744 28.9849L1.31474 24.9968C1.50412 23.4455 2.37787 22.5299 3.98724 22.198C4.22724 22.1493 4.47037 21.9861 4.68787 21.7799L7.04224 25.3393L9.39662 21.7799C9.61349 21.9861 9.85724 22.1493 10.0972 22.198C10.8004 22.343 11.3629 22.5993 11.7897 22.9718C11.8966 22.7686 12.016 22.5755 12.1472 22.3924C11.6479 21.9861 11.0091 21.7018 10.2329 21.5418C10.1266 21.5199 9.96912 21.408 9.80912 21.248C9.65724 21.0955 9.50287 20.898 9.39162 20.6924L8.95474 21.2568L7.04287 24.2436L5.13099 21.2568L4.69412 20.6924C4.58349 20.8974 4.42912 21.0949 4.27662 21.248C4.11724 21.4086 3.95974 21.5199 3.85349 21.5418C1.95224 21.9343 0.874119 23.0711 0.650369 24.9205L0.316619 28.9449L0.315369 28.9593C0.297244 29.3105 0.407244 29.4799 0.735369 29.6068C0.814119 29.6374 0.919119 29.6768 1.02662 29.7118C1.82287 29.973 2.69724 30.1411 3.69849 30.2236C4.51974 30.293 5.34412 30.3368 5.94599 30.3686C6.15787 30.3799 6.34287 30.3899 6.49162 30.3986L6.50349 30.3999H6.51474C8.14662 30.3855 9.45724 30.343 10.7304 30.1886L10.7866 29.5061Z" fill="#000D44"/>
<path d="M11.1293 25.3686V25.0461H9.06934V25.6349H11.1075L11.1293 25.3686Z" fill="#000D44"/>
</svg>
