<svg width="78" height="77" viewBox="0 0 78 77" fill="none" xmlns="http://www.w3.org/2000/svg">
<path fill-rule="evenodd" clip-rule="evenodd" d="M39.1383 9.20767C40.3192 9.20774 41.4887 9.44031 42.5797 9.8921C43.6707 10.3439 44.662 11.0061 45.497 11.8408C46.332 12.6756 46.9943 13.6665 47.4461 14.7571C47.898 15.8477 48.1305 17.0166 48.1303 18.197V29.5188H59.4595C60.6405 29.5189 61.8099 29.7515 62.901 30.2033C63.992 30.655 64.9834 31.3172 65.8184 32.152C66.6534 32.9867 67.3157 33.9777 67.7675 35.0683C68.2193 36.1588 68.4519 37.3277 68.4517 38.5081C68.4519 39.6885 68.2193 40.8574 67.7675 41.948C67.3157 43.0386 66.6534 44.0295 65.8184 44.8643C64.9834 45.699 63.992 46.3612 62.901 46.813C61.8099 47.2648 60.6405 47.4974 59.4595 47.4974H48.1303V58.8198C48.1305 60.0002 47.898 61.169 47.4461 62.2596C46.9943 63.3502 46.332 64.3412 45.497 65.1759C44.662 66.0107 43.6707 66.6728 42.5797 67.1246C41.4887 67.5764 40.3192 67.809 39.1383 67.8091C37.9573 67.8091 36.788 67.5766 35.697 67.1248C34.6059 66.6731 33.6145 66.0109 32.7795 65.1762C31.9445 64.3415 31.2822 63.3506 30.8304 62.26C30.3786 61.1695 30.1461 60.0006 30.1462 58.8203V47.4979H18.817C16.4318 47.4979 14.1442 46.5508 12.4576 44.865C10.7709 43.1792 9.82338 40.8927 9.82338 38.5086C9.82338 36.1245 10.7709 33.838 12.4576 32.1522C14.1442 30.4664 16.4318 29.5193 18.817 29.5193H30.1462V18.197C30.1461 17.0166 30.3786 15.8477 30.8304 14.7571C31.2822 13.6665 31.9445 12.6756 32.7795 11.8408C33.6145 11.0061 34.6058 10.3439 35.6968 9.8921C36.7879 9.44031 37.9573 9.20774 39.1383 9.20767ZM39.1383 0.224712C34.3713 0.230262 29.8012 2.12559 26.4305 5.49488C23.0599 8.86418 21.164 13.4323 21.1589 18.197V20.5378H18.817C14.0645 20.5626 9.51507 22.4669 6.16325 25.8347C2.81143 29.2024 0.92981 33.7595 0.92981 38.5098C0.92981 43.2602 2.81143 47.8173 6.16325 51.185C9.51507 54.5527 14.0645 56.4571 18.817 56.4818H21.1589V58.8227C21.1589 63.5888 23.0532 68.1598 26.4249 71.53C29.7967 74.9001 34.3698 76.7935 39.1383 76.7935C43.9067 76.7935 48.4798 74.9001 51.8516 71.53C55.2234 68.1598 57.1177 63.5888 57.1177 58.8227V56.4818H59.4595C64.2283 56.4818 68.8019 54.5883 72.1739 51.2179C75.546 47.8474 77.4403 43.2761 77.4403 38.5096C77.4403 33.743 75.546 29.1717 72.1739 25.8013C68.8019 22.4308 64.2283 20.5373 59.4595 20.5373H57.1177V18.1965C57.1125 13.4318 55.2166 8.86369 51.846 5.4944C48.4754 2.12511 43.9052 0.230262 39.1383 0.224712Z" fill="#04CE78"/>
</svg>
