<svg width="105" height="106" viewBox="0 0 105 106" fill="none" xmlns="http://www.w3.org/2000/svg">
<path fill-rule="evenodd" clip-rule="evenodd" d="M52.357 13.175C55.6077 13.1756 58.7252 14.4668 61.0236 16.7646C63.322 19.0624 64.6132 22.1786 64.6132 25.4278V40.8607H80.0554C83.3062 40.8614 86.4235 42.1526 88.722 44.4504C91.0204 46.7482 92.3116 49.8643 92.3116 53.1136C92.3116 56.3628 91.0204 59.479 88.722 61.7768C86.4235 64.0746 83.3062 65.3657 80.0554 65.3664H64.6132V80.7993C64.6134 84.0486 63.3222 87.1648 61.0237 89.4626C58.7253 91.7605 55.6078 93.0516 52.357 93.0522C50.747 93.0524 49.1527 92.7355 47.6652 92.1199C46.1777 91.5042 44.826 90.6017 43.6875 89.464C42.5489 88.3262 41.6457 86.9754 41.0295 85.4887C40.4132 84.002 40.0961 82.4086 40.0959 80.7993V65.3644H24.6536C21.4158 65.344 18.3176 64.0441 16.0352 61.7484C13.7529 59.4527 12.4718 56.3478 12.4718 53.1114C12.4718 49.875 13.7529 46.77 16.0352 44.4744C18.3176 42.1787 21.4158 40.8787 24.6536 40.8583H40.0959V25.4254C40.0963 22.1754 41.3883 19.0587 43.6877 16.7609C45.9871 14.4631 49.1055 13.1723 52.357 13.1725M52.357 0.928513C45.8589 0.936254 39.6292 3.51953 35.034 8.1118C30.4389 12.7041 27.8533 18.9304 27.8446 25.4254V28.6143H24.6536C18.1725 28.6432 11.9666 31.2369 7.39395 35.8278C2.82125 40.4188 0.254028 46.6332 0.254028 53.1114C0.254028 59.5896 2.82125 65.804 7.39395 70.3949C11.9666 74.9859 18.1725 77.5796 24.6536 77.6085H27.8446V80.7974C27.8446 84.0145 28.4786 87.2002 29.7103 90.1725C30.942 93.1448 32.7474 95.8454 35.0233 98.1203C37.2993 100.395 40.0013 102.2 42.975 103.431C45.9487 104.662 49.1359 105.296 52.3546 105.296C55.5733 105.296 58.7604 104.662 61.734 103.431C64.7077 102.2 67.4098 100.395 69.6858 98.1203C71.9617 95.8454 73.767 93.1448 74.9988 90.1725C76.2305 87.2002 76.8645 84.0145 76.8645 80.7974V77.608H80.0554C86.5366 77.5791 92.7424 74.9854 97.3151 70.3944C101.888 65.8035 104.455 59.589 104.455 53.1109C104.455 46.6327 101.888 40.4183 97.3151 35.8273C92.7424 31.2364 86.5366 28.6427 80.0554 28.6138H76.8645V25.4254C76.8566 18.931 74.2721 12.7049 69.6778 8.11254C65.0835 3.52022 58.8545 0.936643 52.357 0.928513Z" fill="#1F5FFF"/>
</svg>
