<svg width="85" height="68" viewBox="0 0 85 68" fill="none" xmlns="http://www.w3.org/2000/svg">
<path d="M27.6071 61.225C27.1174 62.834 26.1615 64.2617 24.8603 65.3275C23.5592 66.3933 21.9711 67.0493 20.2971 67.2125C18.6231 67.3757 16.9383 67.0387 15.4558 66.2443C13.9733 65.4499 12.7596 64.2336 11.9684 62.7493C11.1772 61.2651 10.8439 59.5796 11.0107 57.9059C11.1775 56.2323 11.8369 54.6457 12.9055 53.3468C13.974 52.0479 15.4038 51.0951 17.014 50.6089C18.6241 50.1227 20.3423 50.1249 21.9512 50.6153C24.1079 51.2726 25.9153 52.7595 26.9759 54.7491C28.0365 56.7387 28.2636 59.068 27.6071 61.225Z" fill="#29ABE2"/>
<path d="M23.7078 55.802C23.2675 55.8008 22.8359 55.6794 22.4596 55.451C22.2064 55.2889 21.9881 55.0781 21.8174 54.8307C21.6467 54.5834 21.527 54.3045 21.4652 54.0103C21.4035 53.7162 21.401 53.4127 21.4579 53.1176C21.5147 52.8224 21.6298 52.5416 21.7965 52.2915L29.0906 41.0967C29.2545 40.8405 29.4673 40.6192 29.7167 40.4454C29.9662 40.2715 30.2475 40.1484 30.5445 40.0832C30.8415 40.018 31.1484 40.012 31.4478 40.0654C31.7471 40.1188 32.033 40.2307 32.2891 40.3946C32.5453 40.5585 32.7666 40.7713 32.9405 41.0207C33.1144 41.2702 33.2374 41.5514 33.3026 41.8484C33.3678 42.1455 33.3738 42.4524 33.3204 42.7517C33.267 43.0511 33.1551 43.3369 32.9912 43.5931L25.6971 54.7879C25.4815 55.1146 25.1849 55.3797 24.8363 55.5575C24.4876 55.7352 24.0988 55.8195 23.7078 55.802Z" fill="white"/>
<path d="M31.0129 36.6598C30.6967 36.6627 30.3835 36.5981 30.0943 36.4703C29.805 36.3425 29.5464 36.1544 29.3356 35.9187L10.3396 15.2064C9.92236 14.7708 9.68945 14.1909 9.68945 13.5877C9.68945 12.9845 9.92236 12.4045 10.3396 11.9689C10.7705 11.5425 11.3522 11.3034 11.9584 11.3034C12.5645 11.3034 13.1462 11.5425 13.5771 11.9689L32.5341 32.6812C32.9605 33.1121 33.1997 33.6938 33.1997 34.3C33.1997 34.9062 32.9605 35.4878 32.5341 35.9187C32.1372 36.3468 31.5947 36.6112 31.0129 36.6598Z" fill="white"/>
<path d="M42.9362 40.1614C42.4465 41.7705 41.4906 43.1982 40.1894 44.264C38.8882 45.3298 37.3002 45.9857 35.6262 46.1489C33.9522 46.3121 32.2673 45.9751 30.7848 45.1807C29.3023 44.3863 28.0887 43.17 27.2975 41.6858C26.5063 40.2016 26.173 38.5161 26.3398 36.8424C26.5066 35.1687 27.166 33.5821 28.2346 32.2833C29.3031 30.9844 30.7329 30.0316 32.3431 29.5453C33.9532 29.0591 35.6714 29.0614 37.2803 29.5517C39.437 30.209 41.2443 31.696 42.3049 33.6855C43.3655 35.6751 43.5926 38.0045 42.9362 40.1614Z" fill="#29ABE2"/>
<path d="M72.4658 51.3949C72.2466 51.4352 72.0218 51.4352 71.8026 51.3949L37.5162 41.0193C37.0055 40.79 36.5958 40.3824 36.3639 39.8729C36.1321 39.3634 36.0938 38.7868 36.2565 38.2512C36.4191 37.7155 36.7713 37.2575 37.2473 36.9629C37.7233 36.6682 38.2904 36.5572 38.8424 36.6505L73.1289 47.0262C73.6434 47.1962 74.0814 47.5424 74.3657 48.0037C74.6501 48.4649 74.7625 49.0118 74.6833 49.5478C74.604 50.0839 74.3381 50.5748 73.9325 50.9341C73.5268 51.2934 73.0075 51.498 72.4658 51.5119V51.3949Z" fill="white"/>
<path d="M84.0097 52.6036C83.318 54.8951 81.9617 56.9297 80.1127 58.4498C78.2637 59.9699 76.0051 60.907 73.6231 61.1424C71.2411 61.3779 68.8429 60.9011 66.7321 59.7724C64.6212 58.6438 62.8929 56.914 61.7659 54.8023C60.639 52.6906 60.1641 50.2919 60.4014 47.9101C60.6387 45.5283 61.5776 43.2705 63.0991 41.4227C64.6207 39.575 66.6564 38.2203 68.9485 37.5304C71.2405 36.8405 73.6857 36.8463 75.9744 37.5472C79.0328 38.4838 81.5956 40.5941 83.1016 43.416C84.6075 46.2379 84.9341 49.5415 84.0097 52.6036Z" fill="#29ABE2"/>
<path d="M23.6679 15.5864C22.9762 17.8779 21.6199 19.9125 19.7709 21.4326C17.9219 22.9527 15.6634 23.8898 13.2814 24.1252C10.8994 24.3607 8.50107 23.8839 6.39026 22.7552C4.27944 21.6266 2.5511 19.8968 1.42413 17.7851C0.297154 15.6734 -0.177747 13.2748 0.0596012 10.8929C0.296949 8.51112 1.23587 6.2533 2.75741 4.40551C4.27895 2.55773 6.31464 1.20308 8.60668 0.513163C10.8987 -0.17675 13.3439 -0.170881 15.6326 0.530007C17.1499 0.989313 18.5617 1.74342 19.7872 2.74916C21.0126 3.75491 22.0276 4.99258 22.774 6.39118C23.5204 7.78978 23.9836 9.32185 24.137 10.8997C24.2904 12.4776 24.1309 14.0702 23.6679 15.5864Z" fill="#29ABE2"/>
</svg>
