<svg width="52" height="51" viewBox="0 0 52 51" fill="none" xmlns="http://www.w3.org/2000/svg">
<path fill-rule="evenodd" clip-rule="evenodd" d="M33.7304 32.8159H43.4397C44.452 32.8159 45.4545 32.6166 46.3898 32.2294C47.3251 31.8422 48.1749 31.2746 48.8908 30.5591C49.6066 29.8436 50.1745 28.9942 50.5619 28.0594C50.9493 27.1245 51.1486 26.1226 51.1486 25.1107C51.1486 24.0988 50.9493 23.0969 50.5619 22.162C50.1745 21.2272 49.6066 20.3778 48.8908 19.6623C48.1749 18.9468 47.3251 18.3792 46.3898 17.992C45.4545 17.6047 44.452 17.4054 43.4397 17.4054H33.7304V7.70072C33.7304 5.65716 32.9182 3.69729 31.4725 2.25227C30.0268 0.807256 28.066 -0.0045318 26.0215 -0.0045318C25.0093 -0.00466025 24.0071 0.194604 23.072 0.581844C22.1369 0.969084 21.2873 1.53671 20.5718 2.2523C19.8564 2.96789 19.289 3.81738 18.9022 4.75226C18.5153 5.68713 18.3166 6.68904 18.3174 7.70072L18.3125 17.4054H8.60811C6.56358 17.4054 4.60275 18.2172 3.15705 19.6623C1.71134 21.1073 0.89917 23.0671 0.89917 25.1107C0.89917 27.1543 1.71134 29.1141 3.15705 30.5591C4.60275 32.0042 6.56358 32.8159 8.60811 32.8159H18.3174V42.5207C18.2915 43.5485 18.4717 44.5712 18.8474 45.5283C19.223 46.4855 19.7866 47.3579 20.5048 48.094C21.2229 48.8301 22.0812 49.4151 23.0291 49.8145C23.977 50.214 24.9953 50.4198 26.024 50.4198C27.0526 50.4198 28.0708 50.214 29.0187 49.8145C29.9666 49.4151 30.8249 48.8301 31.5431 48.094C32.2612 47.3579 32.8248 46.4855 33.2005 45.5283C33.5761 44.5712 33.7563 43.5485 33.7304 42.5207V32.8159Z" fill="#1F5FFF"/>
</svg>
