<svg width="45" height="44" viewBox="0 0 45 44" fill="none" xmlns="http://www.w3.org/2000/svg">
<path d="M32.3597 14.2802L29.3812 14.7694L28.9068 17.9251L22.6839 13.5575L24.2051 20.4766L20.2946 19.2442L22.4052 26.5947L17.6845 23.4547L15.9606 25.4733L11.1214 23.2505L11.4619 28.6627L9.73702 29.8462C7.70285 28.8407 6.05236 27.1989 5.03616 25.1701C4.01996 23.1412 3.69358 20.8362 4.10657 18.605C5.03663 13.6556 10.0521 11.2408 14.9246 11.1825C16.7361 6.68412 20.8038 2.86666 25.7427 3.75996C27.9723 4.17978 30.004 5.31557 31.5294 6.99494C33.0548 8.67431 33.9907 10.8055 34.1949 13.0651L32.3597 14.2802Z" fill="#008CB4"/>
<path d="M12.5739 29.1311L12.3262 24.9017L16.3083 26.7301L17.9262 24.8135L24.2744 29.0219L21.8639 20.8066L25.6162 22.0009L24.2811 15.9513L29.6812 19.7397L30.2978 15.6798L32.7643 15.278L34.2699 14.245C34.2504 14.7769 34.1925 15.3068 34.0965 15.8304L31.1935 34.7889L12.5039 30.6749C11.9809 30.576 11.4657 30.4394 10.9624 30.2661L12.5739 29.1311Z" fill="#008CB4"/>
</svg>
