<svg width="122" height="108" viewBox="0 0 122 108" fill="none" xmlns="http://www.w3.org/2000/svg">
<path d="M84.4381 29.0588C84.1169 28.5833 83.6987 28.1813 83.2109 27.8792L68.5465 18.2646C68.0825 17.9479 67.5578 17.7308 67.0057 17.6271C66.4535 17.5234 65.8858 17.5355 65.3386 17.6624C64.7843 17.7556 64.256 17.9645 63.7879 18.2756C63.3198 18.5866 62.9226 18.9928 62.622 19.4676L30.9213 67.7236C30.3194 68.6746 30.1136 69.8235 30.348 70.9244C30.5824 72.0253 31.2384 72.9907 32.1755 73.6141L46.6689 83.4161C47.1329 83.7329 47.6576 83.95 48.2098 84.0537C48.7619 84.1573 49.3296 84.1453 49.8769 84.0184C50.4311 83.9252 50.9595 83.7163 51.4276 83.4053C51.8956 83.0942 52.2929 82.6881 52.5935 82.2132L84.2941 33.9572C84.813 33.2521 85.1047 32.4055 85.1305 31.5304C85.1562 30.6553 84.9147 29.7932 84.4381 29.0588ZM81.8766 29.8742C82.0859 30.0009 82.2646 30.1723 82.4 30.3761C82.5355 30.5798 82.6242 30.8111 82.6599 31.0531C82.7178 31.3017 82.7215 31.5598 82.6711 31.81C82.6207 32.0602 82.5172 32.2967 82.3676 32.5035L50.701 80.8108C50.5657 81.0125 50.392 81.1855 50.1897 81.3199C49.9874 81.4544 49.7605 81.5475 49.5221 81.5941C49.0364 81.689 48.5328 81.6033 48.1058 81.353L33.4927 71.7044C33.2837 71.5723 33.1033 71.3994 32.9624 71.1962C32.8214 70.993 32.7228 70.7636 32.6722 70.5216C32.6216 70.2795 32.6202 70.0298 32.6679 69.7871C32.7157 69.5445 32.8118 69.3139 32.9504 69.1091L64.3094 21.0063C64.4447 20.8046 64.6185 20.6316 64.8208 20.4971C65.0231 20.3627 65.2499 20.2695 65.4883 20.2229C65.9741 20.1484 66.4709 20.2329 66.9046 20.464L81.8766 29.8742Z" fill="#0071BC"/>
<path d="M69.1429 50.5205L81.8369 31.1499L65.7231 20.5773L53.0291 39.9479C56.6481 39.612 58.4536 42.1067 62.4767 45.4923C64.5879 47.3105 66.8146 48.9901 69.1429 50.5205Z" fill="#0071BC"/>
<path d="M33.8612 95.2997L26.1934 90.2712L36.1491 75.0899L43.8169 80.1183L33.8612 95.2997Z" fill="#0071BC"/>
<path d="M69.235 21.412L79.9392 28.4316L81.8966 25.4468C82.183 25.01 82.2842 24.4774 82.1779 23.966C82.0716 23.4547 81.7666 23.0065 81.3298 22.7201L73.8678 17.8266C73.431 17.5402 72.8983 17.4389 72.3869 17.5452C71.8756 17.6515 71.4274 17.9567 71.141 18.3934L69.1836 21.3782L69.235 21.412Z" fill="#0071BC"/>
<path d="M90.918 -1.47776e-05L74.2786 21.1057L78.2005 23.6719L90.918 -1.47776e-05Z" fill="#0071BC"/>
<path d="M39.7863 97.5209L21.8309 85.7336C21.596 85.5731 21.3309 85.4621 21.0516 85.4076C20.7724 85.353 20.4849 85.3559 20.2069 85.4162C19.9288 85.4765 19.6659 85.5928 19.4343 85.7582C19.2028 85.9235 19.0074 86.1344 18.8601 86.3778C18.7001 86.6135 18.5886 86.8786 18.5318 87.1578C18.475 87.4369 18.4742 87.7245 18.5293 88.004C18.5844 88.2835 18.6945 88.5492 18.853 88.7859C19.0115 89.0225 19.2154 89.2254 19.4529 89.3827L37.4083 101.17C37.8891 101.477 38.4699 101.587 39.0297 101.476C39.5894 101.366 40.0851 101.044 40.4132 100.577C40.5798 100.338 40.6959 100.067 40.7546 99.7809C40.8133 99.4951 40.8134 99.2005 40.7548 98.9147C40.6962 98.6289 40.58 98.3579 40.4136 98.1183C40.2471 97.8788 40.0337 97.6755 39.7863 97.5209Z" fill="#0071BC"/>
<path d="M65.597 56.1019L49.4893 45.5387L52.1891 41.4217L68.2969 51.985L65.597 56.1019Z" fill="#0071BC"/>
<path d="M36.037 79.331L55.8135 49.1741L59.9305 51.8739L40.154 82.0309L36.037 79.331Z" fill="#0071BC"/>
</svg>
