<svg width="56" height="39" viewBox="0 0 56 39" fill="none" xmlns="http://www.w3.org/2000/svg">
<path d="M16.448 38.7125C13.7705 39.2471 10.9937 38.9547 8.4862 37.8744C5.97634 36.8457 3.82925 35.0935 2.31809 32.8409C0.806929 30.5884 0 27.9372 0 25.2246C0 22.5121 0.806929 19.8609 2.31809 17.6083C3.82925 15.3557 5.97634 13.6036 8.4862 12.5748L36.5096 1.05117C39.0131 0.00832243 41.7702 -0.266389 44.4302 0.261978C47.0902 0.790346 49.5329 2.09794 51.4478 4.01841C53.3626 5.93888 54.6631 8.38546 55.1837 11.047C55.7042 13.7086 55.4215 16.4648 54.3713 18.9652C53.6936 20.6342 52.6852 22.1489 51.407 23.4181C50.1288 24.6874 48.607 25.6849 46.9332 26.3508L18.9099 37.9268C18.1071 38.2415 17.2847 38.504 16.448 38.7125ZM39.4953 2.0464C38.7661 2.20739 38.0487 2.41741 37.3477 2.67498L9.32431 14.251C6.47714 15.4327 4.21568 17.6965 3.03702 20.545C1.85836 23.3934 1.85898 26.5933 3.0387 29.4413C3.61364 30.8494 4.46662 32.1271 5.54661 33.1981C6.6266 34.2691 7.91141 35.1113 9.32431 35.6745C10.727 36.258 12.2312 36.5584 13.7504 36.5584C15.2697 36.5584 16.7739 36.258 18.1766 35.6745L46.1999 24.0985C48.6301 22.8584 50.5442 20.7998 51.6044 18.286C52.6647 15.7721 52.803 12.9646 51.9949 10.3587C51.1869 7.75286 49.4843 5.51614 47.1878 4.04323C44.8913 2.57032 42.1483 1.95588 39.4429 2.30832L39.4953 2.0464Z" fill="#0071BC"/>
<path d="M25.248 9.01358L37.2955 4.08983C39.9567 2.99481 42.9431 2.99712 45.6027 4.09626C48.2622 5.1954 50.3789 7.30212 51.4906 9.95642C52.5845 12.6316 52.5761 15.6309 51.4673 18.2999C50.3585 20.969 48.2391 23.0913 45.5716 24.2038L33.5241 29.1275L25.248 9.01358Z" fill="#0071BC"/>
<path d="M5.81692 29.5469C5.33855 29.6552 4.83716 29.5878 4.40439 29.357C3.97161 29.1262 3.63636 28.7474 3.45982 28.2898C2.46734 25.8996 2.4611 23.2137 3.44256 20.819C4.42402 18.4242 6.31338 16.5152 8.69784 15.509L21.4262 10.271C21.9402 10.0557 22.5187 10.0534 23.0345 10.2646C23.5502 10.4758 23.9609 10.8832 24.1762 11.3972C24.3915 11.9112 24.3938 12.4897 24.1826 13.0054C23.9714 13.5211 23.564 13.9318 23.05 14.1471L10.3216 19.3851C9.63994 19.6663 9.02048 20.0792 8.49867 20.6002C7.97685 21.1212 7.56298 21.74 7.28076 22.4213C6.99853 23.1025 6.85347 23.8327 6.85395 24.5701C6.85444 25.3075 7.00043 26.0375 7.28355 26.7184C7.47705 27.2336 7.46538 27.8034 7.25094 28.3102C7.03651 28.817 6.63568 29.2223 6.13118 29.4422L5.81692 29.5469Z" fill="#0071BC"/>
</svg>
