<svg width="51" height="51" viewBox="0 0 51 51" fill="none" xmlns="http://www.w3.org/2000/svg">
<path fill-rule="evenodd" clip-rule="evenodd" d="M32.9144 32.9876H42.6237C44.6682 32.9876 46.629 32.1758 48.0747 30.7308C49.5204 29.2857 50.3326 27.3259 50.3326 25.2823C50.3326 23.2388 49.5204 21.2789 48.0747 19.8339C46.629 18.3889 44.6682 17.5771 42.6237 17.5771H32.9144V7.87239C32.9144 5.82883 32.1022 3.86893 30.6565 2.42392C29.2108 0.978902 27.25 0.167115 25.2054 0.167115C24.1932 0.166858 23.191 0.365999 22.2558 0.753193C21.3207 1.14039 20.4711 1.70807 19.7555 2.42368C19.04 3.13929 18.4727 3.98885 18.0859 4.92378C17.6991 5.85872 17.5005 6.86068 17.5014 7.87239L17.4965 17.5771H7.79207C5.74754 17.5771 3.78671 18.3889 2.34101 19.8339C0.895304 21.2789 0.0831299 23.2388 0.0831299 25.2823C0.0831299 27.3259 0.895304 29.2857 2.34101 30.7308C3.78671 32.1758 5.74754 32.9876 7.79207 32.9876H17.5014V42.6923C17.4755 43.7201 17.6557 44.7428 18.0313 45.7C18.407 46.6571 18.9706 47.5295 19.6887 48.2656C20.4069 49.0017 21.2652 49.5868 22.2131 49.9862C23.1609 50.3856 24.1793 50.5914 25.2079 50.5914C26.2366 50.5914 27.2548 50.3856 28.2027 49.9862C29.1505 49.5868 30.0088 49.0017 30.727 48.2656C31.4452 47.5295 32.0088 46.6571 32.3844 45.7C32.7601 44.7428 32.9402 43.7201 32.9144 42.6923V32.9876Z" fill="#04CE78"/>
</svg>
