<svg width="78" height="78" viewBox="0 0 78 78" fill="none" xmlns="http://www.w3.org/2000/svg">
<path fill-rule="evenodd" clip-rule="evenodd" d="M39.192 9.55357C40.373 9.55364 41.5424 9.78621 42.6334 10.238C43.7245 10.6898 44.7157 11.352 45.5508 12.1867C46.3858 13.0215 47.048 14.0124 47.4999 15.103C47.9517 16.1936 48.1842 17.3625 48.1841 18.5429V29.8647H59.5133C60.6942 29.8648 61.8637 30.0974 62.9547 30.5492C64.0457 31.0009 65.0371 31.6631 65.8721 32.4979C66.7071 33.3326 67.3694 34.3236 67.8213 35.4142C68.2731 36.5047 68.5056 37.6736 68.5055 38.854C68.5056 40.0344 68.2731 41.2033 67.8213 42.2939C67.3694 43.3845 66.7071 44.3754 65.8721 45.2102C65.0371 46.0449 64.0457 46.7071 62.9547 47.1589C61.8637 47.6107 60.6942 47.8433 59.5133 47.8433H48.1841V59.1657C48.1842 60.3461 47.9517 61.5149 47.4999 62.6055C47.048 63.6961 46.3858 64.6871 45.5508 65.5218C44.7157 66.3566 43.7245 67.0187 42.6334 67.4705C41.5424 67.9223 40.373 68.1549 39.192 68.155C38.0111 68.155 36.8417 67.9225 35.7507 67.4707C34.6597 67.019 33.6683 66.3568 32.8333 65.5221C31.9983 64.6874 31.336 63.6965 30.8841 62.6059C30.4323 61.5154 30.1998 60.3465 30.1999 59.1662V47.8438H18.8708C16.4855 47.8438 14.1979 46.8967 12.5113 45.2109C10.8247 43.5251 9.87712 41.2386 9.87712 38.8545C9.87712 36.4704 10.8247 34.1839 12.5113 32.4981C14.1979 30.8123 16.4855 29.8652 18.8708 29.8652H30.1999V18.5429C30.1998 17.3625 30.4323 16.1936 30.8841 15.103C31.336 14.0124 31.9983 13.0215 32.8333 12.1867C33.6683 11.352 34.6595 10.6898 35.7506 10.238C36.8416 9.78621 38.011 9.55364 39.192 9.55357ZM39.192 0.570613C34.425 0.576164 29.8549 2.47149 26.4843 5.84079C23.1137 9.21008 21.2178 13.7782 21.2126 18.5429V20.8837H18.8708C14.1182 20.9085 9.56881 22.8128 6.21699 26.1806C2.86517 29.5483 0.983551 34.1054 0.983551 38.8557C0.983551 43.6061 2.86517 48.1632 6.21699 51.5309C9.56881 54.8986 14.1182 56.803 18.8708 56.8277H21.2126V59.1686C21.2126 63.9347 23.1069 68.5057 26.4787 71.8759C29.8505 75.246 34.4236 77.1394 39.192 77.1394C43.9604 77.1394 48.5335 75.246 51.9053 71.8759C55.2771 68.5057 57.1714 63.9347 57.1714 59.1686V56.8277H59.5133C64.2821 56.8277 68.8556 54.9342 72.2277 51.5638C75.5997 48.1933 77.4941 43.622 77.4941 38.8555C77.4941 34.0889 75.5997 29.5176 72.2277 26.1472C68.8556 22.7767 64.2821 20.8832 59.5133 20.8832H57.1714V18.5424C57.1662 13.7777 55.2704 9.20959 51.8997 5.8403C48.5291 2.47101 43.959 0.576164 39.192 0.570613Z" fill="#04CE78"/>
</svg>
