<svg width="60" height="60" viewBox="0 0 60 60" fill="none" xmlns="http://www.w3.org/2000/svg">
<g clip-path="url(#clip0_1507_1495)">
<path fill-rule="evenodd" clip-rule="evenodd" d="M30 41.4844C28.4765 41.4844 26.8359 41.4844 25.4296 41.3672C24.8437 44.5313 25.7812 54.7266 24.7265 56.3672C24.0234 57.6563 23.0859 58.2422 22.0312 58.2422C19.4531 58.2422 17.1093 54.4922 15.2343 51.2109C12.7734 46.9922 11.7187 42.1875 11.4843 39.0234C-2.46099 35.0391 -4.45317 26.4844 9.37495 21.5625C8.32026 19.4531 7.49995 17.2266 7.61714 13.125C7.61714 8.08594 9.60933 4.68751 14.0625 2.57813C17.4609 0.820318 20.8593 2.22657 23.9062 3.39844C28.9453 5.27344 30.8203 5.27344 35.3906 3.51563C36.6796 2.92969 38.0859 2.46094 39.7265 2.10938C51.0937 -0.23437 54.6093 11.8359 50.7421 21.0938C50.7421 21.2109 50.625 21.4453 50.625 21.5625C62.9296 26.0156 63.2812 33.75 50.8593 38.3203C50.039 38.5547 49.2187 38.9063 48.2812 39.1406C47.4609 46.1719 44.5312 53.4375 40.8984 56.7188C38.4375 59.0625 35.5078 58.4766 34.8046 54.8438C34.2187 51.6797 35.5078 46.9922 34.5703 41.3672C33.0468 41.4844 31.5234 41.4844 30 41.4844ZM23.789 41.25C19.9218 40.8984 16.289 40.3125 13.125 39.4922C13.4765 42.4219 14.5312 46.6406 16.7578 50.3906C17.5781 51.9141 20.1562 56.6016 22.0312 56.6016C22.1484 56.6016 22.7343 56.6016 23.3203 55.6641C23.9062 54.6094 23.3203 44.0625 23.789 41.25ZM11.1328 21.4453C11.3671 21.5625 12.7734 24.2578 12.8906 24.4922C13.9453 26.3672 13.7109 28.5938 13.3593 31.4063C13.125 33.1641 12.8906 35.3906 13.0078 37.8516C16.1718 38.6719 19.9218 39.375 24.1406 39.6094C26.25 31.9922 33.5156 30.9375 35.8593 39.6094C39.7265 39.375 43.4765 38.6719 46.7578 37.8516C46.9921 35.8594 46.9921 33.9844 46.7578 32.3438C45.5859 23.0859 46.5234 26.8359 49.3359 20.3906C52.6171 12.4219 49.8046 1.64063 40.0781 3.75001C34.9218 4.80469 33.2812 7.38282 26.8359 6.09376C23.6718 5.50782 18.9843 1.99219 14.7656 3.98438C10.8984 5.97657 9.25776 8.67188 9.25776 13.125C9.14058 17.2266 9.96089 19.2188 11.1328 21.4453ZM10.1953 23.0859C-1.99224 27.3047 -0.703173 33.5156 11.3671 37.3828C11.25 35.0391 11.4843 32.9297 11.7187 31.1719C12.3046 26.4844 12.0703 26.3672 10.1953 23.0859ZM25.7812 39.7266C28.4765 39.8438 31.4062 39.8438 34.1015 39.7266C32.2265 32.6953 27.4218 34.5703 25.7812 39.7266ZM48.5156 37.3828C53.3203 35.8594 58.3593 33.1641 58.3593 30C58.3593 27.4219 55.3125 24.9609 49.9218 23.0859C47.8125 27.0703 47.4609 24.4922 48.3984 32.1094C48.6328 33.75 48.6328 35.5078 48.5156 37.3828ZM46.6406 39.6094C43.4765 40.4297 39.8437 40.8984 36.2109 41.25C36.5625 43.3594 36.6796 46.5234 36.4453 49.2188C36.3281 50.8594 35.7421 55.7813 37.5 56.3672C38.0859 56.6016 39.0234 56.25 39.8437 55.5469C43.125 52.6172 45.7031 45.9375 46.6406 39.6094ZM42.6562 24.1406C42.0703 24.1406 41.6015 23.5547 41.9531 22.9688C42.539 21.6797 44.2968 19.5703 44.5312 18.3984C45.7031 15.7031 46.0546 10.8984 44.0625 9.14063C43.7109 9.02344 43.2421 8.32032 41.0156 8.78907C39.7265 9.02344 36.7968 10.4297 36.3281 10.5469C32.5781 11.7188 29.2968 11.9531 25.5468 11.1328C23.9062 10.8984 18.3984 8.08594 17.1093 8.67188C15 9.72657 14.414 10.6641 14.414 13.2422C14.414 17.5781 15.8203 18.8672 17.5781 22.1484C18.0468 23.0859 16.6406 23.7891 16.1718 22.8516C14.2968 19.4531 12.7734 18.0469 12.7734 13.2422C12.7734 10.0781 13.7109 8.55469 16.4062 7.26563C17.8125 6.56251 19.8046 7.26563 20.7421 7.61719C22.5 8.32032 24.1406 9.02344 26.0156 9.49219C29.2968 10.3125 32.3437 10.0781 35.8593 8.90626C37.1484 8.43751 39.4921 7.26563 40.7812 7.14844C42.6562 6.79688 44.0625 7.03126 45.1171 7.85157C47.9296 10.3125 47.3437 15.9375 46.0546 18.9844C45.2343 20.9766 44.2968 22.0313 43.3593 23.6719C43.2421 24.0234 43.0078 24.1406 42.6562 24.1406Z" fill="#F5F8FD"/>
<path fill-rule="evenodd" clip-rule="evenodd" d="M24.141 39.6094C26.2504 31.9922 33.516 30.9375 35.8598 39.6094C39.727 39.375 43.477 38.6719 46.7582 37.8516C46.9926 35.8594 46.9926 33.9844 46.7582 32.3438C45.5863 23.0859 46.5238 26.8359 49.3363 20.3906C52.6176 12.4219 49.8051 1.64063 40.0785 3.75C34.9223 4.80469 33.2816 7.38281 26.8363 6.09375C23.6723 5.50781 18.9848 1.99219 14.766 3.98438C10.8988 5.97656 9.2582 8.67188 9.2582 13.125C9.14102 17.2266 9.96133 19.2188 11.1332 21.4453C11.3676 21.5625 12.7738 24.2578 12.891 24.4922C13.9457 26.3672 13.7113 28.5938 13.3598 31.4063C13.1254 33.1641 12.891 35.3906 13.0082 37.8516C16.1723 38.6719 19.9223 39.375 24.141 39.6094ZM42.6566 24.1406C42.0707 24.1406 41.602 23.5547 41.9535 22.9688C42.5395 21.6797 44.2973 19.5703 44.5316 18.3984C45.7035 15.7031 46.0551 10.8984 44.0629 9.14063C43.7113 9.02344 43.2426 8.32031 41.016 8.78906C39.727 9.02344 36.7973 10.4297 36.3285 10.5469C32.5785 11.7188 29.2973 11.9531 25.5473 11.1328C23.9066 10.8984 18.3988 8.08594 17.1098 8.67188C15.0004 9.72656 14.4145 10.6641 14.4145 13.2422C14.4145 17.5781 15.8207 18.8672 17.5785 22.1484C18.0473 23.0859 16.641 23.7891 16.1723 22.8516C14.2973 19.4531 12.7738 18.0469 12.7738 13.2422C12.7738 10.0781 13.7113 8.55469 16.4066 7.26563C17.8129 6.5625 19.8051 7.26563 20.7426 7.61719C22.5004 8.32031 24.141 9.02344 26.016 9.49219C29.2973 10.3125 32.3441 10.0781 35.8598 8.90625C37.1488 8.4375 39.4926 7.26563 40.7816 7.14844C42.6566 6.79688 44.0629 7.03125 45.1176 7.85156C47.9301 10.3125 47.3441 15.9375 46.0551 18.9844C45.2348 20.9766 44.2973 22.0313 43.3598 23.6719C43.2426 24.0234 43.0082 24.1406 42.6566 24.1406Z" fill="#04CE78"/>
<path fill-rule="evenodd" clip-rule="evenodd" d="M46.6406 39.6094C43.4766 40.4297 39.8438 40.8984 36.2109 41.25C36.5625 43.3594 36.6797 46.5234 36.4453 49.2188C36.3281 50.8594 35.7422 55.7813 37.5 56.3672C38.0859 56.6016 39.0234 56.25 39.8438 55.5469C43.125 52.6172 45.7031 45.9375 46.6406 39.6094Z" fill="#04CE78"/>
<path fill-rule="evenodd" clip-rule="evenodd" d="M23.3203 55.6641C23.9062 54.6094 23.3203 44.0625 23.7891 41.25C19.9219 40.8984 16.2891 40.3125 13.125 39.4922C13.4766 42.4219 14.5312 46.6406 16.7578 50.3906C17.5781 51.9141 20.1562 56.6016 22.0312 56.6016C22.1484 56.6016 22.7344 56.6016 23.3203 55.6641Z" fill="#04CE78"/>
<path fill-rule="evenodd" clip-rule="evenodd" d="M48.398 32.1094C48.6324 33.75 48.6324 35.5078 48.5152 37.3828C53.3199 35.8594 58.359 33.1641 58.359 30C58.359 27.4219 55.3121 24.9609 49.9215 23.0859C47.8121 27.0703 47.4605 24.4922 48.398 32.1094Z" fill="#1F5FFF"/>
<path fill-rule="evenodd" clip-rule="evenodd" d="M11.7187 31.1719C12.3046 26.4844 12.0702 26.3672 10.1952 23.0859C-1.99226 27.3047 -0.703201 33.5156 11.3671 37.3828C11.2499 35.0391 11.4843 32.9297 11.7187 31.1719Z" fill="#1F5FFF"/>
<path fill-rule="evenodd" clip-rule="evenodd" d="M34.1016 39.7266C32.2266 32.6953 27.4219 34.5703 25.7812 39.7266C28.4766 39.8437 31.4062 39.8437 34.1016 39.7266Z" fill="#1F5FFF"/>
</g>
<defs>
<clipPath id="clip0_1507_1495">
<rect width="60" height="60" fill="white"/>
</clipPath>
</defs>
</svg>
