<svg width="56" height="64" viewBox="0 0 56 64" fill="none" xmlns="http://www.w3.org/2000/svg">
<path d="M45.63 25.9555L28.2806 13.1087L25.2095 15.3682C24.9015 15.5864 24.6902 15.9155 24.62 16.2863C24.5498 16.6571 24.6261 17.0407 24.833 17.3563L26.2738 19.5944L7.98831 44.2886C6.61128 46.1617 6.03086 48.5034 6.37372 50.8027C6.71658 53.1021 7.95486 55.1725 9.81842 56.5624C11.6887 57.9474 14.0326 58.5326 16.3344 58.1894C18.6362 57.8462 20.7074 56.6026 22.0923 54.7323L40.3778 30.0381L42.5855 30.5772C42.9463 30.6605 43.325 30.609 43.6505 30.4326C43.976 30.2561 44.2258 29.9668 44.3529 29.6191L45.63 25.9555Z" fill="#29ABE2"/>
<path d="M20.9103 30.2067C22.8136 33.7573 25.094 37.0926 27.7119 40.1546L22.9356 31.7064C26.3704 33.006 29.3774 35.2326 31.6225 38.1388L20.5103 53.1456C19.4592 54.5652 17.8886 55.5107 16.1422 55.7751C14.3957 56.0396 12.6156 55.6016 11.1913 54.5569C9.76751 53.5026 8.82087 51.926 8.55959 50.1737C8.29832 48.4215 8.74385 46.6373 9.79812 45.2135L20.9103 30.2067Z" fill="white"/>
<path d="M42.3294 17.5037C42.8281 17.8729 43.5316 17.768 43.9008 17.2694C44.27 16.7707 44.1651 16.0672 43.6665 15.698C43.1679 15.3288 42.4644 15.4337 42.0951 15.9323C41.7259 16.4309 41.8308 17.1345 42.3294 17.5037Z" fill="white"/>
<path d="M29.971 34.1938C30.4697 34.563 31.1732 34.4581 31.5424 33.9595C31.9116 33.4609 31.8067 32.7573 31.3081 32.3881C30.8095 32.0189 30.1059 32.1238 29.7367 32.6224C29.3675 33.1211 29.4724 33.8246 29.971 34.1938Z" fill="white"/>
<path d="M44.1287 8.74732C43.8356 9.14307 43.4318 9.44299 42.9682 9.60923C42.5047 9.77548 42.0023 9.80054 41.5245 9.68125C41.0468 9.56196 40.6152 9.30371 40.2842 8.9391C39.9532 8.57448 39.7378 8.1199 39.6652 7.63285C39.5926 7.14581 39.666 6.64815 39.8762 6.20284C40.0864 5.75754 40.4239 5.38457 40.8461 5.13109C41.2682 4.87761 41.7561 4.75505 42.248 4.77884C42.7399 4.80263 43.2136 4.97173 43.6094 5.26477C44.14 5.65772 44.4929 6.2454 44.5903 6.89851C44.6877 7.55161 44.5216 8.21665 44.1287 8.74732Z" fill="white"/>
<path d="M39.2318 15.3606C39.0353 15.6259 38.7415 15.8024 38.4149 15.8511C38.0884 15.8998 37.7558 15.8167 37.4905 15.6202C37.2252 15.4238 37.0487 15.1299 37 14.8034C36.9514 14.4768 37.0344 14.1443 37.2309 13.879C37.4273 13.6136 37.7212 13.4372 38.0477 13.3885C38.3743 13.3398 38.7068 13.4228 38.9721 13.6193C39.2375 13.8158 39.4139 14.1096 39.4626 14.4362C39.5113 14.7627 39.4283 15.0953 39.2318 15.3606Z" fill="white"/>
<path d="M31.6615 25.5853C31.465 25.8506 31.1712 26.027 30.8446 26.0757C30.5181 26.1244 30.1855 26.0414 29.9202 25.8449C29.6549 25.6484 29.4784 25.3546 29.4297 25.028C29.381 24.7015 29.4641 24.369 29.6605 24.1036C29.857 23.8383 30.1509 23.6619 30.4774 23.6132C30.804 23.5645 31.1365 23.6475 31.4018 23.844C31.6672 24.0405 31.8436 24.3343 31.8923 24.6609C31.941 24.9874 31.858 25.3199 31.6615 25.5853Z" fill="white"/>
</svg>
