<svg width="60" height="51" viewBox="0 0 60 51" fill="none" xmlns="http://www.w3.org/2000/svg">
<path d="M16.3592 50.3706L11.5437 44.5018L7.16764 48.0719L8.12755 49.2263C8.18298 49.2936 8.22454 49.3711 8.2498 49.4544C8.27506 49.5377 8.28352 49.6252 8.27474 49.7118C8.26595 49.7985 8.24006 49.8825 8.19857 49.9592C8.15709 50.0358 8.10083 50.1035 8.03302 50.1584C7.8934 50.2719 7.71468 50.3262 7.53542 50.3094C7.35616 50.2927 7.19075 50.2061 7.07492 50.0687L0.211112 41.7141C0.155683 41.6469 0.114123 41.5693 0.0888618 41.486C0.0636002 41.4027 0.0551411 41.3152 0.063929 41.2286C0.0727173 41.142 0.098585 41.0579 0.140072 40.9813C0.181559 40.9046 0.237839 40.8369 0.305649 40.7821C0.442011 40.6668 0.617989 40.6092 0.796178 40.6214C0.974367 40.6337 1.1407 40.7149 1.25976 40.8476L2.1995 42.0302L6.57555 38.4601L1.76004 32.5914C1.70461 32.5241 1.66308 32.4467 1.63782 32.3633C1.61256 32.28 1.60407 32.1925 1.61286 32.1059C1.62164 32.0192 1.64753 31.9351 1.68902 31.8585C1.7305 31.7819 1.78677 31.7142 1.85458 31.6593C1.92048 31.6007 1.99789 31.5564 2.08186 31.5292C2.16583 31.5019 2.25452 31.4924 2.34233 31.5012C2.43015 31.51 2.51518 31.5369 2.59198 31.5803C2.66879 31.6236 2.73572 31.6825 2.78852 31.753L4.15009 33.3861L32.0804 10.5256L46.5522 10.071L58.9376 0.275916C59.22 0.0312018 59.5543 -0.0487 59.6626 0.156363C59.7709 0.361426 59.6054 0.562073 59.323 0.806787L47.2588 11.0444L43.9924 25.1068L16.0622 47.9674L17.4238 49.6005C17.5136 49.7412 17.5488 49.9098 17.5228 50.0746C17.4968 50.2394 17.4113 50.3891 17.2825 50.4956C17.1537 50.602 16.9904 50.6578 16.8233 50.6526C16.6562 50.6473 16.4968 50.5813 16.3751 50.467L16.3592 50.3706ZM31.7145 12.2207L5.8855 33.3725L16.4122 46.1759L18.3119 44.5994L13.404 38.6221L14.2792 37.908L19.1871 43.8853L20.9617 42.4533L18.6283 39.5934L19.5035 38.8794L21.8369 41.7393L23.6075 40.2832L18.6754 34.3098L19.5748 33.5919L24.4827 39.5692L26.2533 38.1131L23.8997 35.2813L24.7749 34.5672L27.1285 37.399L28.8789 35.971L23.9671 29.9696L24.8423 29.2555L29.7704 35.2048L31.5208 33.7768L29.1874 30.9169L30.0626 30.2028L32.392 33.0386L34.1666 31.6066L29.2587 25.6293L30.134 24.9153L35.0418 30.8926L36.8125 29.4365L34.4589 26.6047L35.3582 25.8866L37.6876 28.7225L39.4381 27.2945L34.5262 21.293L35.4014 20.579L40.3335 26.5523L42.2371 25L31.7145 12.2207Z" fill="#008CB4"/>
</svg>
