<svg width="60" height="60" viewBox="0 0 60 60" fill="none" xmlns="http://www.w3.org/2000/svg">
<path d="M52.5 19.7137C52.5 23.9813 51.2728 28.1588 48.9656 31.7484C45.7641 36.7275 44.0625 42.5222 44.0625 48.4416C44.0625 52.7541 40.5666 56.25 36.2541 56.25H34.6875V45.9375C34.6875 43.3491 32.5884 41.25 30 41.25C27.4116 41.25 25.3125 43.3491 25.3125 45.9375V56.25H23.7459C19.4334 56.25 15.9375 52.7541 15.9375 48.4416C15.9375 42.5222 14.2359 36.7275 11.0344 31.7484C8.72719 28.1588 7.5 23.9813 7.5 19.7137C7.5 12.9684 12.9684 7.5 19.7137 7.5C23.7975 7.5 27.6112 9.54094 29.8762 12.9384L30 13.125L30.1238 12.9384C32.3897 9.54094 36.2025 7.5 40.2863 7.5C47.0316 7.5 52.5 12.9684 52.5 19.7137Z" fill="#04CE78"/>
<path d="M7.5 53.4375H6.5625V52.5C6.5625 51.465 5.7225 50.625 4.6875 50.625C3.6525 50.625 2.8125 51.465 2.8125 52.5V53.4375H1.875C0.84 53.4375 0 54.2775 0 55.3125C0 56.3475 0.84 57.1875 1.875 57.1875H2.8125V58.125C2.8125 59.16 3.6525 60 4.6875 60C5.7225 60 6.5625 59.16 6.5625 58.125V57.1875H7.5C8.535 57.1875 9.375 56.3475 9.375 55.3125C9.375 54.2775 8.535 53.4375 7.5 53.4375Z" fill="white"/>
<path d="M52.5 6.5625H53.4375V7.5C53.4375 8.535 54.2775 9.375 55.3125 9.375C56.3475 9.375 57.1875 8.535 57.1875 7.5V6.5625H58.125C59.16 6.5625 60 5.7225 60 4.6875C60 3.6525 59.16 2.8125 58.125 2.8125H57.1875V1.875C57.1875 0.84 56.3475 0 55.3125 0C54.2775 0 53.4375 0.84 53.4375 1.875V2.8125H52.5C51.465 2.8125 50.625 3.6525 50.625 4.6875C50.625 5.7225 51.465 6.5625 52.5 6.5625Z" fill="white"/>
<path d="M30.0004 22.47C31.8238 22.47 33.6491 22.1231 35.3835 21.4284C36.3454 21.0441 36.8132 19.9528 36.4288 18.9909C36.0435 18.0291 34.9541 17.5603 33.9913 17.9466C31.4169 18.9759 28.5819 18.9759 26.0085 17.9466C25.0494 17.5622 23.9563 18.0291 23.571 18.9909C23.1866 19.9519 23.6544 21.0431 24.6154 21.4284C26.3526 22.1231 28.176 22.47 30.0004 22.47Z" fill="#F5F8FD"/>
<path d="M54.5878 17.8969L54.2325 17.8153C53.2997 10.9444 47.4103 5.625 40.2872 5.625C36.3459 5.625 32.64 7.25906 30 10.0847C27.36 7.26 23.6541 5.625 19.7137 5.625C17.2031 5.625 14.85 6.2925 12.8062 7.44844C11.2322 6.03938 10.3125 4.03125 10.3125 1.875C10.3125 0.84 9.4725 0 8.4375 0C7.4025 0 6.5625 0.84 6.5625 1.875C6.5625 4.86188 7.74281 7.65656 9.78188 9.73312C7.21594 12.2859 5.625 15.8175 5.625 19.7137C5.625 23.19 6.39656 26.6953 7.85719 29.85C8.29125 30.7884 9.40406 31.1981 10.3463 30.7641C11.2856 30.3291 11.6944 29.2144 11.2603 28.275C10.0266 25.6106 9.375 22.65 9.375 19.7137C9.375 14.0128 14.0128 9.375 19.7137 9.375C23.1778 9.375 26.3934 11.0962 28.3153 13.9781L28.4391 14.1647C28.7869 14.6869 29.3728 15 30 15C30.6272 15 31.2131 14.6869 31.5609 14.1637L31.6847 13.9781C33.6066 11.0953 36.8222 9.37406 40.2872 9.37406C45.9872 9.375 50.625 14.0128 50.625 19.7137C50.625 22.7737 49.9172 25.8216 48.5869 28.5769L11.3963 34.0894C8.05219 34.5862 5.625 37.3969 5.625 40.7719C5.625 42.3872 6.20906 43.9556 7.26844 45.1903C8.32219 46.4166 9.79125 47.2238 11.4103 47.4647L14.0484 47.85C14.0522 48.0469 14.0625 48.2438 14.0625 48.4416C14.0625 53.7806 18.4069 58.125 23.7459 58.125H25.3125C26.3475 58.125 27.1875 57.285 27.1875 56.25V49.7653L32.8125 50.5866V56.25C32.8125 57.285 33.6525 58.125 34.6875 58.125H36.2541C40.1906 58.125 43.5806 55.7597 45.0928 52.3781L45.7331 52.4709C48.5222 52.8778 50.625 55.3078 50.625 58.125C50.625 59.16 51.465 60 52.5 60C53.535 60 54.375 59.16 54.375 58.125C54.375 53.4591 50.8922 49.4334 46.2722 48.7603L45.9234 48.7097C45.9263 48.6197 45.9375 48.5316 45.9375 48.4416C45.9375 44.9184 46.5712 41.4609 47.82 38.1647C48.1875 37.1962 47.6991 36.1134 46.7316 35.7469C45.7669 35.3813 44.6803 35.8659 44.3138 36.8362C42.9028 40.5581 42.1875 44.4628 42.1875 48.4416C42.1875 51.6094 39.6919 54.2063 36.5625 54.3675V45.9375C36.5625 42.3188 33.6178 39.375 30 39.375C26.3813 39.375 23.4375 42.3188 23.4375 45.9375V54.3675C20.3091 54.2063 17.8125 51.6103 17.8125 48.4416C17.8125 47.6738 17.7769 46.9106 17.7234 46.1503C17.7225 46.1175 17.7187 46.0847 17.7159 46.0519C17.4975 43.0313 16.8694 40.0744 15.8278 37.2225L54.0741 31.5534C55.7325 31.3013 57.2381 30.4697 58.2984 29.2275C59.3953 27.9722 60 26.3587 60 24.6844C60 21.4106 57.7725 18.6197 54.5878 17.8969ZM30 43.125C31.5506 43.125 32.8125 44.3869 32.8125 45.9375V46.7972L27.1875 45.9759V45.9375C27.1875 44.3869 28.4494 43.125 30 43.125ZM13.7212 44.0119L11.9559 43.7541C11.2331 43.6472 10.5787 43.2891 10.1128 42.7463C9.6375 42.1931 9.375 41.4909 9.375 40.7719C9.375 39.27 10.4569 38.0194 11.9466 37.7981L12.0253 37.7869C12.8241 39.8062 13.3941 41.8866 13.7212 44.0119ZM55.4606 26.7769C54.9713 27.3506 54.2794 27.7303 53.5172 27.8466L52.9219 27.9347C53.6447 25.935 54.1012 23.8416 54.2794 21.7219C55.4625 22.2103 56.25 23.3616 56.25 24.6844C56.25 25.4512 55.9753 26.1881 55.4606 26.7769Z" fill="#F5F8FD"/>
</svg>
