<svg width="29" height="24" viewBox="0 0 29 24" fill="none" xmlns="http://www.w3.org/2000/svg">
<path d="M18.2928 13.4822H15.9518V15.8232C15.9533 15.8973 15.94 15.971 15.9126 16.0399C15.8853 16.1088 15.8444 16.1716 15.7925 16.2245C15.7406 16.2775 15.6787 16.3195 15.6103 16.3482C15.542 16.3769 15.4686 16.3917 15.3944 16.3917H13.6666C13.5158 16.3917 13.3712 16.3318 13.2645 16.2252C13.1579 16.1186 13.098 15.974 13.098 15.8232V13.4822H10.7682C10.694 13.4837 10.6204 13.4703 10.5515 13.443C10.4826 13.4157 10.4198 13.3748 10.3669 13.3229C10.3139 13.271 10.2718 13.2091 10.2431 13.1407C10.2144 13.0724 10.1997 12.999 10.1997 12.9248V11.1635C10.1997 11.0127 10.2596 10.8681 10.3662 10.7615C10.4728 10.6549 10.6174 10.595 10.7682 10.595H13.098V8.26513C13.098 8.11434 13.1579 7.96975 13.2645 7.86313C13.3712 7.75651 13.5158 7.69661 13.6666 7.69661H15.3944C15.4686 7.69659 15.542 7.71138 15.6103 7.74008C15.6787 7.76879 15.7406 7.81083 15.7925 7.86378C15.8444 7.91672 15.8853 7.97949 15.9126 8.0484C15.94 8.11732 15.9533 8.191 15.9518 8.26513V10.595H18.2928C18.4436 10.595 18.5882 10.6549 18.6948 10.7615C18.8014 10.8681 18.8613 11.0127 18.8613 11.1635V12.8914C18.866 12.9683 18.8546 13.0453 18.828 13.1176C18.8013 13.1899 18.76 13.2559 18.7066 13.3114C18.6532 13.3669 18.5888 13.4108 18.5176 13.4402C18.4464 13.4696 18.3698 13.4839 18.2928 13.4822Z" fill="#008CB4"/>
<path d="M22.7514 23.426H6.3087C5.57207 23.4333 4.84128 23.2946 4.15859 23.0178C3.4759 22.741 2.85489 22.3316 2.3314 21.8133C1.80791 21.295 1.39232 20.678 1.10873 19.9981C0.825144 19.3182 0.679162 18.5889 0.679199 17.8522V6.42594C0.679196 4.93188 1.27196 3.49883 2.32738 2.44132C3.3828 1.38381 4.81464 0.788233 6.3087 0.78528H22.7514C24.2357 0.802881 25.6533 1.40492 26.6968 2.46085C27.7402 3.51678 28.3252 4.94146 28.3251 6.42594V17.7742C28.3355 18.5127 28.199 19.2458 27.9235 19.9311C27.648 20.6164 27.2391 21.2401 26.7205 21.766C26.2019 22.2918 25.5839 22.7094 24.9026 22.9944C24.2212 23.2793 23.4899 23.426 22.7514 23.426ZM14.5245 5.36693C13.2016 5.36693 11.9085 5.75921 10.8086 6.49415C9.70863 7.2291 8.85129 8.27371 8.34505 9.49588C7.83881 10.718 7.70636 12.0629 7.96444 13.3603C8.22252 14.6578 8.85956 15.8496 9.79497 16.785C10.7304 17.7204 11.9221 18.3574 13.2196 18.6155C14.517 18.8736 15.8619 18.7411 17.0841 18.2349C18.3063 17.7286 19.3508 16.8713 20.0858 15.7714C20.8207 14.6715 21.213 13.3783 21.213 12.0555C21.2159 11.1752 21.0451 10.3031 20.7103 9.48902C20.3755 8.67496 19.8833 7.93498 19.2619 7.31153C18.6405 6.68807 17.9022 6.19342 17.0893 5.85589C16.2763 5.51837 15.4047 5.34462 14.5245 5.34463V5.36693Z" fill="#008CB4"/>
</svg>
