<svg width="30" height="30" viewBox="0 0 30 30" fill="none" xmlns="http://www.w3.org/2000/svg">
<g clip-path="url(#clip0_1232_11463)">
<path d="M7.88013 17.4348C6.42624 17.4348 5.24341 18.6167 5.24341 20.0692C5.24341 21.5218 6.42624 22.7036 7.88013 22.7036C9.33401 22.7036 10.5168 21.5218 10.5168 20.0692C10.5168 18.6167 9.33401 17.4348 7.88013 17.4348ZM7.88013 20.9481C7.3955 20.9481 7.00122 20.5538 7.00122 20.0693C7.00122 19.5847 7.3955 19.1905 7.88013 19.1905C8.36476 19.1905 8.75903 19.5847 8.75903 20.0693C8.75903 20.5538 8.36476 20.9481 7.88013 20.9481Z" fill="#04CE78"/>
<path d="M5.98462 24.4789H7.74243V26.2345H5.98462V24.4789Z" fill="#000D44"/>
<path d="M22.1199 17.4348C20.666 17.4348 19.4832 18.6167 19.4832 20.0692C19.4832 21.5218 20.666 22.7036 22.1199 22.7036C23.5738 22.7036 24.7566 21.5218 24.7566 20.0692C24.7566 18.6167 23.5738 17.4348 22.1199 17.4348ZM22.1199 20.9481C21.6352 20.9481 21.241 20.5538 21.241 20.0693C21.241 19.5847 21.6352 19.1905 22.1199 19.1905C22.6045 19.1905 22.9988 19.5847 22.9988 20.0693C22.9988 20.5538 22.6045 20.9481 22.1199 20.9481Z" fill="#04CE78"/>
<path d="M30 14.7773C30 13.3247 28.8172 12.143 27.3633 12.143C26.2174 12.143 25.2403 12.8773 24.8776 13.8996H19.0311V9.84645H20.6023V8.09086H17.6726V5.86207H19.4016L20.5734 1.75553H23.7972V0H10.6305V5.86207H12.3991V8.09086H9.46945V9.84645H11.0406V13.8996H5.12238C4.75963 12.8773 3.78264 12.143 2.63672 12.143C1.18283 12.143 0 13.3247 0 14.7773C0 15.9221 0.734824 16.8982 1.75781 17.2607V30H6.56502C10.6781 30 14.0242 26.658 14.0242 22.5502V18.6394C14.3475 18.724 14.6864 18.7694 15.0359 18.7694C15.3596 18.7694 15.6741 18.7297 15.9757 18.6568V22.5502C15.9757 26.658 19.3219 30 23.435 30H28.2422V17.2607C29.2652 16.8983 30 15.9221 30 14.7773ZM12.3883 1.75559H18.7457L18.0748 4.10654H12.3884L12.3883 1.75559ZM14.157 5.86207H15.9148V8.09086H14.157V5.86207ZM2.63672 13.8986C3.12135 13.8986 3.51562 14.2928 3.51562 14.7773C3.51562 15.262 3.12135 15.6562 2.63672 15.6562C2.15209 15.6562 1.75781 15.2619 1.75781 14.7773C1.75781 14.2928 2.15209 13.8986 2.63672 13.8986ZM12.2665 22.5502C12.2665 25.69 9.70881 28.2444 6.56502 28.2444H3.51562V17.2607C4.26363 16.9956 4.85719 16.4025 5.12238 15.6551H11.1392C11.3137 16.4291 11.7136 17.1183 12.2665 17.6506L12.2665 22.5502ZM12.7985 14.7773V9.84645H17.2733V14.7773C17.2733 16.0105 16.2696 17.0138 15.0359 17.0138C13.8021 17.0138 12.7985 16.0106 12.7985 14.7773ZM23.435 28.2444C20.2912 28.2444 17.7335 25.69 17.7335 22.5502V17.7189C18.3238 17.178 18.7505 16.4624 18.9326 15.6551H24.8776C25.1428 16.4026 25.7364 16.9957 26.4844 17.2607V28.2444H23.435ZM27.3633 15.6563C26.8787 15.6563 26.4844 15.262 26.4844 14.7774C26.4844 14.2928 26.8787 13.8986 27.3633 13.8986C27.8479 13.8986 28.2422 14.2929 28.2422 14.7774C28.2422 15.262 27.8479 15.6563 27.3633 15.6563Z" fill="#000D44"/>
<path d="M22.3323 24.4789H24.0901V26.2345H22.3323V24.4789Z" fill="#000D44"/>
</g>
<defs>
<clipPath id="clip0_1232_11463">
<rect width="30" height="30" fill="white"/>
</clipPath>
</defs>
</svg>
