<svg width="30" height="30" viewBox="0 0 30 30" fill="none" xmlns="http://www.w3.org/2000/svg">
<path d="M28.7846 1.10446C28.7041 1.04446 28.4186 0.872956 28.1476 1.16546L16.2431 13.9165C16.0861 14.0845 15.8351 14.123 15.6351 14.0125L8.72865 10.1895C8.41515 10.0165 8.19515 10.2265 8.13465 10.295C8.00265 10.4455 7.92615 10.694 8.10765 10.9395C8.28915 11.185 16.0146 21.6375 16.0146 21.6375C16.1971 21.884 16.4801 22.02 16.7751 21.999C17.0781 21.982 17.3406 21.819 17.4946 21.5515L28.9206 1.77246C29.1396 1.39396 28.8456 1.14996 28.7846 1.10446Z" fill="#04CE78"/>
<path d="M28.0726 10.473C27.9346 10.414 27.7786 10.4195 27.6456 10.486C27.4251 10.5965 27.3181 10.8445 27.3921 11.075C27.8956 12.6445 28.0886 14.294 27.9646 15.9795C27.4826 22.546 21.9396 27.8235 15.3466 27.9955C11.6566 28.091 8.06462 26.597 5.52512 23.894C2.98912 21.193 1.72312 17.519 2.05362 13.814C2.61162 7.54652 7.76662 2.48202 14.0446 2.03402C16.3596 1.86952 18.6571 2.31302 20.6961 3.31702C20.9361 3.43552 21.2241 3.34752 21.3536 3.11952C21.4261 2.99302 21.4416 2.85002 21.4001 2.71352C21.3596 2.58252 21.2706 2.47802 21.1501 2.41852C19.2291 1.47652 17.1601 0.999023 15.0001 0.999023C11.0946 0.999023 7.47112 2.56652 4.79662 5.41152C2.12362 8.25652 0.785116 11.978 1.02812 15.893C1.46312 22.9145 7.08562 28.537 14.1066 28.972C18.0191 29.214 21.7431 27.877 24.5876 25.2035C27.4326 22.5285 29.0001 18.905 29.0001 15C29.0001 13.556 28.7811 12.1345 28.3476 10.773C28.2891 10.589 28.1501 10.506 28.0726 10.473Z" fill="#04CE78"/>
</svg>
