<svg width="34" height="31" viewBox="0 0 34 31" fill="none" xmlns="http://www.w3.org/2000/svg">
<path d="M32.7482 28.821C27.7674 30.1049 19.1578 31.4747 8.52512 29.7045C7.66158 29.5607 7.2243 28.5755 7.69459 27.8371C10.5105 23.4161 15.1826 17.7042 19.5329 19.7871C19.5329 19.7871 26.7732 16.9257 30.7772 21.3747C32.4027 23.1794 33.2369 25.3626 33.6464 27.3895C33.7757 28.0297 33.3807 28.6579 32.7482 28.821Z" fill="white"/>
<path d="M18.683 30.7028C15.5612 30.7028 12.1498 30.4604 8.50028 29.8528C8.04533 29.777 7.66117 29.4792 7.47261 29.056C7.28376 28.6321 7.3193 28.1461 7.56777 27.7563C10.6411 22.9311 15.2061 17.615 19.5397 19.624C20.2607 19.3591 27.0591 17.0191 30.889 21.274C32.3219 22.865 33.2994 24.9124 33.7937 27.3598C33.9388 28.0776 33.4962 28.7837 32.7857 28.9667C29.3329 29.8566 24.515 30.7028 18.683 30.7028ZM17.6365 19.5024C13.8131 19.5024 9.95293 24.5711 7.82153 27.9179C7.62739 28.2224 7.59979 28.6022 7.74752 28.9335C7.89466 29.2642 8.19453 29.4968 8.54962 29.5561C18.9664 31.2896 27.438 30.0343 32.7105 28.6753C33.2662 28.5323 33.6125 27.9804 33.4988 27.4194C33.0154 25.0255 32.062 23.0256 30.6655 21.4755C26.778 17.1563 19.6595 19.8983 19.5882 19.9268C19.5494 19.9421 19.5056 19.9403 19.468 19.9227C18.8636 19.6334 18.2503 19.5024 17.6365 19.5024Z" fill="#04CE78"/>
<path d="M21.2544 23.6035L22.1466 22.7636L20.3915 21.3843L18.7676 22.8078L19.5633 23.6035H21.2544Z" fill="white"/>
<path d="M21.2544 23.754H19.5636C19.5236 23.754 19.4854 23.7381 19.4572 23.7099L18.6613 22.9143C18.6319 22.8849 18.6161 22.8447 18.6172 22.8029C18.6187 22.7615 18.6372 22.7222 18.6686 22.6949L20.2928 21.2713C20.3469 21.2237 20.4276 21.2211 20.4846 21.266L22.2395 22.6455C22.2741 22.6728 22.295 22.7134 22.2968 22.7571C22.2988 22.8009 22.2815 22.8435 22.2498 22.8734L21.3575 23.7131C21.3296 23.7393 21.2926 23.754 21.2544 23.754ZM19.6258 23.4532H21.1948L21.9164 22.7742L20.3971 21.5797L18.9876 22.8153L19.6258 23.4532Z" fill="#04CE78"/>
<path d="M22.0983 30.4467C21.0402 30.5097 19.9361 30.5442 18.7891 30.547L19.5633 23.6045H21.2552L22.0983 30.4467Z" fill="white"/>
<path d="M18.7891 30.6974C18.7465 30.6974 18.7057 30.6792 18.6772 30.6475C18.6484 30.6155 18.6349 30.5729 18.6396 30.5303L19.4138 23.5877C19.4223 23.5117 19.4866 23.4541 19.5633 23.4541H21.255C21.3311 23.4541 21.3951 23.5108 21.4042 23.586L22.2474 30.4281C22.2524 30.4695 22.2404 30.5109 22.2137 30.5429C22.1872 30.5746 22.1488 30.5943 22.107 30.5967C21.0359 30.6607 19.9193 30.6945 18.7891 30.6974ZM19.6978 23.7549L18.9574 30.3961C19.968 30.3905 20.9663 30.3602 21.9294 30.3059L21.122 23.7549H19.6978Z" fill="#04CE78"/>
<path d="M23.7442 18.9028L25.823 18.9525L23.1777 22.988C23.022 23.2254 22.6948 23.2754 22.4754 23.0952L20.3916 21.3846L23.7442 18.9028Z" fill="#04CE78"/>
<path d="M22.7786 23.354C22.6344 23.354 22.4928 23.3041 22.3797 23.2116L20.2962 21.5007C20.2604 21.4714 20.2401 21.427 20.2413 21.3806C20.2424 21.3342 20.265 21.291 20.3021 21.2634L23.6544 18.7816C23.6814 18.762 23.7164 18.7479 23.7475 18.7523L25.8263 18.8019C25.8809 18.8034 25.9306 18.8339 25.9558 18.8824C25.9814 18.9308 25.9785 18.989 25.9485 19.0348L23.3034 23.0703C23.2059 23.2189 23.0494 23.3197 22.8734 23.3467C22.8417 23.3517 22.81 23.354 22.7786 23.354ZM20.636 21.3906L22.5706 22.979C22.6435 23.0389 22.7357 23.0635 22.8279 23.0494C22.9207 23.0353 23.0003 22.9839 23.052 22.9052L25.5488 19.0962L23.7918 19.0542L20.636 21.3906Z" fill="#04CE78"/>
<path d="M18.3462 19.4069L20.3915 21.3845L18.918 23.0071C18.7172 23.2282 18.3649 23.2127 18.1842 22.9748L15.7144 19.7219C16.499 19.3809 17.3809 19.2876 18.3462 19.4069Z" fill="#04CE78"/>
<path d="M18.5647 23.3139C18.5556 23.3139 18.5462 23.3136 18.5368 23.3133C18.3497 23.3051 18.1776 23.2146 18.0642 23.0657L15.5945 19.8127C15.5666 19.7756 15.5572 19.7284 15.5689 19.6837C15.5804 19.6388 15.6121 19.6021 15.6544 19.5836C16.4406 19.2423 17.352 19.1324 18.3647 19.2576C18.397 19.2617 18.4272 19.2761 18.4507 19.2987L20.4961 21.2762C20.5545 21.3326 20.5575 21.4251 20.5028 21.4853L19.0293 23.108C18.9098 23.2399 18.7418 23.3139 18.5647 23.3139ZM15.9528 19.7871L18.3039 22.8836C18.3629 22.9614 18.4525 23.0084 18.55 23.0128C18.6487 23.0158 18.7409 22.9782 18.8067 22.9059L20.1821 21.391L18.278 19.5501C17.4166 19.4499 16.6351 19.5295 15.9528 19.7871Z" fill="#04CE78"/>
<path d="M13.9326 5.62365C13.9326 5.62365 12.8118 8.23694 14.7382 10.8247L17.3733 8.49818L17.0385 5.19336L13.9326 5.62365Z" fill="#04CE78"/>
<path d="M26.5719 12.6358C26.1138 13.1125 25.5588 13.4031 25.0634 13.4701C24.9729 13.6918 24.8713 13.9051 24.7597 14.1097C23.9622 15.5709 23.6351 17.2419 23.744 18.903L20.3915 21.3848L18.3462 19.4071C18.3462 19.4071 18.873 17.7982 18.9102 17.2246C18.9363 17.2284 18.9624 17.2284 18.9884 17.2284C15.9044 16.9788 14.8615 14.0214 14.7386 10.1365C14.5486 4.18819 16.0012 2.54932 19.4205 2.54932C22.6796 2.54932 25.3502 6.12131 25.5961 9.9652C26.1548 9.75289 26.7023 9.7864 27.0412 10.1142C27.6037 10.6543 27.3914 11.7829 26.5719 12.6358Z" fill="white"/>
<path d="M20.3916 21.5351C20.3537 21.5351 20.3161 21.5208 20.2871 21.4929L18.2417 19.5153C18.2003 19.4754 18.1853 19.4152 18.2032 19.3606C18.2082 19.3459 18.6503 17.9907 18.7445 17.3543C16.0915 17.0171 14.7311 14.6543 14.5884 10.1412C14.4782 6.69169 14.9135 4.6531 15.9999 3.53144C16.7482 2.75871 17.8352 2.39893 19.4206 2.39893C22.5374 2.39893 25.3925 5.75066 25.7317 9.76147C26.2971 9.59847 26.8152 9.68628 27.1459 10.0061C27.4552 10.3031 27.5712 10.7574 27.4728 11.2855C27.3785 11.7898 27.0972 12.3064 26.6804 12.7402C26.2393 13.1993 25.6936 13.5109 25.1702 13.6055C25.0862 13.8031 24.9928 13.9967 24.8915 14.1817C24.1284 15.58 23.7836 17.2092 23.894 18.893C23.8973 18.9441 23.8747 18.9934 23.8335 19.024L20.4812 21.5058C20.4545 21.5255 20.4231 21.5351 20.3916 21.5351ZM18.5181 19.3644L20.4046 21.188L23.5889 18.8307C23.4911 17.119 23.8497 15.4634 24.6277 14.0378C24.7367 13.8378 24.8365 13.6278 24.9243 13.4131C24.9446 13.3634 24.9901 13.3282 25.0433 13.3212C25.5267 13.2557 26.0442 12.9681 26.4636 12.5317C26.8402 12.1399 27.0936 11.6776 27.177 11.2303C27.2563 10.8053 27.1712 10.4476 26.9371 10.2226C26.6554 9.95062 26.1741 9.90656 25.6495 10.106C25.6043 10.1227 25.5549 10.1171 25.5147 10.0919C25.4745 10.066 25.4489 10.0226 25.446 9.97499C25.1937 6.03144 22.4346 2.69968 19.4206 2.69968C17.9222 2.69968 16.9039 3.03039 16.2161 3.74056C15.191 4.79907 14.7816 6.77011 14.8891 10.1318C15.0301 14.5938 16.3749 16.8661 19.0007 17.0785C19.0811 17.085 19.1422 17.1537 19.139 17.2345C19.1363 17.2947 19.0987 17.3455 19.0462 17.3672C18.9669 17.939 18.6221 19.0401 18.5181 19.3644Z" fill="#04CE78"/>
<path d="M19.4199 17.3968C18.3089 17.3968 17.3766 17.0772 16.6491 16.4472C16.5863 16.3929 16.5795 16.298 16.6339 16.2352C16.6882 16.172 16.7831 16.1656 16.8459 16.2199C17.5173 16.8011 18.3835 17.096 19.4199 17.096C20.1709 17.096 20.8955 16.9668 21.5734 16.7119C21.6506 16.6822 21.7378 16.7215 21.7669 16.7997C21.7963 16.8772 21.7569 16.9641 21.6791 16.9932C20.9675 17.2611 20.2073 17.3968 19.4199 17.3968Z" fill="#000D44"/>
<path d="M20.7983 10.6681C20.7269 11.1156 20.4444 11.4405 20.1651 11.3959C19.8858 11.3513 19.7164 10.9543 19.7878 10.5068C19.8592 10.0594 20.1441 9.73245 20.4234 9.77702C20.7027 9.82158 20.8698 10.2206 20.7983 10.6681Z" fill="#04CE78"/>
<path d="M17.2596 10.7003C17.2596 11.1534 17.0318 11.5187 16.749 11.5187C16.4661 11.5187 16.2363 11.1534 16.2363 10.7003C16.2363 10.2471 16.4661 9.87939 16.749 9.87939C17.0318 9.87939 17.2596 10.2471 17.2596 10.7003Z" fill="#04CE78"/>
<path d="M18.3304 11.8174C18.2811 11.8174 18.2294 11.8109 18.1774 11.7942C18.0285 11.7466 17.9192 11.6168 17.9063 11.4711C17.8957 11.3568 17.9424 11.2623 17.98 11.1862C18.2121 10.7154 18.356 10.1947 18.4955 9.69125C18.5172 9.61166 18.5992 9.56408 18.6805 9.58669C18.7604 9.60872 18.8074 9.69154 18.7851 9.77172C18.642 10.2883 18.4943 10.8226 18.2514 11.3157C18.2267 11.3656 18.2029 11.4138 18.2059 11.4441C18.2079 11.469 18.2364 11.4975 18.2693 11.5078C18.3116 11.5219 18.3665 11.5187 18.4488 11.4996C18.5495 11.4755 18.6482 11.4385 18.7416 11.3891C18.8147 11.351 18.9061 11.3783 18.9448 11.452C18.9836 11.5257 18.9554 11.6165 18.882 11.6552C18.766 11.7163 18.6438 11.7624 18.5181 11.7921C18.4638 11.805 18.3994 11.8174 18.3304 11.8174Z" fill="#04CE78"/>
<path d="M25.4308 12.2916C25.3591 12.2916 25.2957 12.2402 25.2831 12.167C25.2687 12.0854 25.3233 12.0073 25.4052 11.9932C25.6006 11.9588 25.8091 11.7876 25.9366 11.5564C26.0455 11.3588 26.0878 11.1426 26.0523 10.9637C26.0361 10.8821 26.089 10.8031 26.1703 10.7869C26.252 10.7696 26.3313 10.8236 26.3471 10.905C26.3962 11.1526 26.3424 11.4431 26.1997 11.7015C26.0276 12.014 25.743 12.2393 25.4569 12.2892C25.4481 12.291 25.4396 12.2916 25.4308 12.2916Z" fill="#04CE78"/>
<path d="M21.4607 9.53773C21.4169 9.53773 21.3738 9.51864 21.3438 9.48192C20.7681 8.77204 19.8794 9.21318 19.8421 9.23286C19.7687 9.27046 19.6779 9.24167 19.6397 9.16737C19.6018 9.09365 19.6306 9.00319 19.7043 8.9653C20.0967 8.76353 20.9922 8.57086 21.5776 9.29278C21.6299 9.3571 21.6199 9.45197 21.5553 9.50424C21.5277 9.52686 21.4942 9.53773 21.4607 9.53773Z" fill="#04CE78"/>
<path d="M17.691 9.3949C17.6472 9.3949 17.6038 9.37581 17.5741 9.33909C16.9958 8.62598 16.0818 9.08475 16.073 9.08974C15.9996 9.12821 15.9088 9.09884 15.8703 9.02512C15.8321 8.95111 15.8612 8.86065 15.9349 8.82247C16.327 8.62011 17.2225 8.42803 17.8079 9.14995C17.8602 9.21427 17.8502 9.30913 17.7856 9.36141C17.758 9.38403 17.7245 9.3949 17.691 9.3949Z" fill="#04CE78"/>
<path d="M26.1043 9.31829C25.9839 9.51903 25.9322 9.7599 25.7717 9.90615C24.4382 11.1192 24.4726 12.5071 25.0146 13.5796C24.9372 13.7631 23.8675 17.795 18.9954 17.5111L18.9582 17.5082C17.2089 17.3534 15.9357 16.2694 15.2647 14.6177C14.8058 13.4964 14.6223 12.1114 14.7571 10.58C14.8345 11.968 14.9524 13.5112 15.8382 13.6111C16.1143 13.6423 16.5887 12.9206 16.8477 12.8202C17.6768 12.4986 19.3679 12.4092 20.2945 13.2355C20.5786 13.4889 21.011 14.2237 21.3842 14.2994C22.3319 14.4915 23.0187 13.4448 23.3743 12.9487C24.897 10.8123 24.6303 9.90041 25.3644 9.48747C25.7 9.30108 26.1043 9.31829 26.1043 9.31829Z" fill="#04CE78"/>
<path d="M18.1622 14.2353C17.8626 14.2353 17.5769 14.1111 17.2937 13.8623C17.2315 13.8074 17.2253 13.7122 17.2799 13.65C17.3351 13.5877 17.43 13.5815 17.4923 13.6362C17.8271 13.9304 18.2321 14.1319 18.9226 13.6279C18.989 13.5786 19.0836 13.593 19.1326 13.6605C19.1817 13.7275 19.167 13.8218 19.1 13.8705C18.7672 14.1137 18.458 14.2353 18.1622 14.2353Z" fill="white"/>
<path d="M14.8851 6.60277C14.8851 6.60277 11.4672 4.9462 13.975 2.1333C17.8205 -2.18009 30.0378 -0.206348 27.2372 10.3868C26.6455 9.51226 24.8129 10.2021 24.8129 10.2021C24.8129 10.2021 22.9519 8.91846 24.0711 6.82279C20.568 7.31979 17.5636 7.17192 14.8851 6.60277Z" fill="#04CE78"/>
<path d="M28.1299 22.9496C28.1173 22.9496 28.1044 22.9481 28.0917 22.9446C28.0113 22.9234 27.9634 22.8412 27.9845 22.761C28.3702 21.2945 28.2289 20.1353 27.5651 19.3153C26.3563 17.8227 23.7972 17.9272 23.7726 17.9278C23.6927 17.941 23.6195 17.8679 23.6154 17.7848C23.6113 17.702 23.6753 17.6315 23.7585 17.6277C23.868 17.6209 26.4952 17.5161 27.7989 19.1261C28.5264 20.0246 28.6868 21.2734 28.2753 22.8374C28.2577 22.9049 28.1966 22.9496 28.1299 22.9496Z" fill="#04CE78"/>
<path d="M28.0033 23.923C27.9628 23.923 27.9214 23.9177 27.8802 23.9059C27.6406 23.8381 27.5011 23.589 27.5689 23.3491C27.7986 22.5358 27.9824 21.8212 27.9017 21.3116C27.8626 21.0658 28.0306 20.8347 28.2767 20.7956C28.522 20.7568 28.7537 20.9245 28.7928 21.1707C28.9023 21.8612 28.6964 22.6771 28.4371 23.5946C28.381 23.7931 28.2001 23.923 28.0033 23.923Z" fill="#04CE78"/>
<path d="M28.8638 28.4715C28.8197 28.4715 28.7757 28.4662 28.7325 28.4559L28.0634 28.2947C27.9827 28.275 27.933 28.1939 27.9524 28.1132C27.9721 28.0324 28.0523 27.9839 28.1339 28.0021L28.803 28.1634C28.8732 28.1804 28.9463 28.1681 29.008 28.1281C29.0688 28.0888 29.109 28.0283 29.122 27.9578C29.5276 25.7585 28.8888 23.8051 27.6675 23.5108C26.4478 23.2142 24.9875 24.6648 24.3472 26.8076C24.3267 26.8761 24.3352 26.948 24.371 27.0106C24.4077 27.0743 24.4668 27.1187 24.5378 27.1357L25.2066 27.2967C25.2874 27.316 25.337 27.3974 25.3176 27.4782C25.2979 27.5584 25.2175 27.6074 25.1361 27.5892L24.4673 27.4282C24.3176 27.3921 24.1874 27.2946 24.1102 27.1607C24.0327 27.0256 24.0145 26.8696 24.0591 26.7213C24.7563 24.3872 26.3362 22.8797 27.738 23.2183C29.1372 23.5558 29.8594 25.6167 29.418 28.0124C29.3898 28.1648 29.3026 28.2955 29.1719 28.3804C29.08 28.44 28.9722 28.4715 28.8638 28.4715Z" fill="#04CE78"/>
<path d="M29.0962 25.2686C28.9132 25.2686 28.7411 25.1567 28.6736 24.9752C28.4325 24.3287 28.0501 23.9125 27.5972 23.8033C27.1431 23.6937 26.6138 23.8902 26.1049 24.356C25.921 24.524 25.6355 24.5117 25.4675 24.3278C25.2992 24.144 25.3119 23.8585 25.4957 23.6905C26.2332 23.0159 27.0532 22.743 27.8086 22.9263C28.5623 23.1078 29.1696 23.7237 29.5189 24.6597C29.6061 24.8932 29.4874 25.1531 29.2539 25.2401C29.202 25.2595 29.1488 25.2686 29.0962 25.2686Z" fill="#04CE78"/>
<path d="M26.0247 27.6162C25.9633 27.871 25.5172 27.9839 25.2624 27.9225C25.0051 27.8605 24.9696 27.6316 25.031 27.3768C25.0924 27.1219 25.2282 26.9343 25.4855 26.9963C25.7404 27.0577 26.0861 27.3614 26.0247 27.6162Z" fill="#04CE78"/>
<path d="M27.3025 27.9365C27.248 28.1929 27.6017 28.4871 27.8581 28.5417C28.117 28.5967 28.2477 28.4055 28.3023 28.1491C28.3568 27.8927 28.3152 27.6648 28.0563 27.6098C27.7999 27.5552 27.357 27.6801 27.3025 27.9365Z" fill="#04CE78"/>
<path d="M15.6193 25.6281C15.5597 25.6281 15.503 25.5923 15.4795 25.5332C14.4839 23.0273 14.4284 21.0945 15.3148 19.789C16.1186 18.6042 17.5754 18.1821 18.6703 18.1821C18.7534 18.1821 18.8207 18.2494 18.8207 18.3325C18.8207 18.4156 18.7534 18.4829 18.6703 18.4829C18.3188 18.4829 16.5163 18.554 15.5635 19.9579C14.7368 21.1758 14.8025 23.0144 15.7591 25.4222C15.7897 25.4994 15.7521 25.5867 15.6748 25.6175C15.6566 25.6246 15.6378 25.6281 15.6193 25.6281Z" fill="#04CE78"/>
<path d="M15.9754 27.4501C15.8403 27.4501 15.7047 27.4327 15.571 27.3972C15.1642 27.2897 14.823 27.0289 14.6103 26.6629C14.3986 26.2988 14.341 25.8738 14.4482 25.4667C14.5557 25.0587 14.8162 24.7172 15.1819 24.5045C15.5458 24.2931 15.9716 24.2361 16.379 24.3436C16.7872 24.4517 17.1285 24.7116 17.3403 25.0758C17.5526 25.4411 17.6099 25.867 17.5018 26.2747C17.3934 26.6817 17.1332 27.0224 16.7687 27.2345C16.5235 27.3772 16.2509 27.4501 15.9754 27.4501ZM15.9722 24.5912C15.7496 24.5912 15.5302 24.6499 15.3331 24.7647C15.0371 24.9366 14.8262 25.2132 14.739 25.5433C14.6523 25.8729 14.6987 26.2168 14.8705 26.512C15.0426 26.8083 15.3187 27.0195 15.648 27.1064C15.9769 27.1943 16.3214 27.1467 16.6178 26.9743C16.9127 26.8027 17.1235 26.527 17.2111 26.1974C17.2986 25.8676 17.2522 25.5228 17.0801 25.2267C16.9088 24.9322 16.6325 24.7219 16.302 24.6343C16.1928 24.6056 16.0821 24.5912 15.9722 24.5912Z" fill="#04CE78"/>
<path d="M15.9753 26.5038C16.3254 26.5038 16.6093 26.22 16.6093 25.8698C16.6093 25.5197 16.3254 25.2358 15.9753 25.2358C15.6252 25.2358 15.3413 25.5197 15.3413 25.8698C15.3413 26.22 15.6252 26.5038 15.9753 26.5038Z" fill="#04CE78"/>
<path d="M5.37506 18.45C2.4113 18.45 0 16.039 0 13.0752V6.43341C0 5.84923 0.475505 5.37402 1.05968 5.37402H9.69014C10.2743 5.37402 10.7498 5.84923 10.7498 6.43341V13.0752C10.7498 16.039 8.33882 18.45 5.37506 18.45ZM1.05968 5.67478C0.641154 5.67478 0.300752 6.01518 0.300752 6.43341V13.0752C0.300752 15.873 2.57695 18.1492 5.37476 18.1492C8.17287 18.1492 10.4491 15.873 10.4491 13.0752V6.43341C10.4491 6.01518 10.1087 5.67478 9.69014 5.67478H1.05968Z" fill="#04CE78"/>
<path d="M9.55155 10.4745V13.0738C9.55155 15.38 7.67911 17.2525 5.37592 17.2525C3.07272 17.2525 1.19727 15.38 1.19727 13.0738V10.4745C1.19727 10.4087 1.24214 10.3489 1.30496 10.331C1.37076 10.31 1.43955 10.3399 1.47246 10.3967C2.53432 12.1077 3.63207 11.65 5.14858 11.0189C6.36 10.5134 7.73294 9.9421 9.43491 10.328C9.5037 10.3429 9.55155 10.4057 9.55155 10.4745Z" fill="#04CE78"/>
<path d="M6.38286 5.67486C6.29974 5.67486 6.23248 5.6076 6.23248 5.52448C6.23248 5.05103 5.84714 4.66599 5.37369 4.66599C4.90171 4.66599 4.51755 5.05103 4.51755 5.52448C4.51755 5.6076 4.45029 5.67486 4.36717 5.67486C4.28405 5.67486 4.2168 5.6076 4.2168 5.52448C4.2168 4.88538 4.73577 4.36523 5.37369 4.36523C6.01308 4.36523 6.53323 4.88538 6.53323 5.52448C6.53323 5.6076 6.46597 5.67486 6.38286 5.67486Z" fill="#04CE78"/>
<path d="M5.37352 4.66576C5.2904 4.66576 5.22314 4.5985 5.22314 4.51538V2.94789C5.22314 2.44477 5.63227 2.03564 6.13539 2.03564C6.6385 2.03564 7.04763 2.44477 7.04763 2.94789V3.08681C7.04763 3.16993 6.98037 3.23718 6.89725 3.23718C6.81413 3.23718 6.74688 3.16993 6.74688 3.08681V2.94789C6.74688 2.61072 6.47256 2.3364 6.13539 2.3364C5.79821 2.3364 5.5239 2.61072 5.5239 2.94789V4.51538C5.5239 4.5985 5.45664 4.66576 5.37352 4.66576Z" fill="#04CE78"/>
<path d="M4.57427 18.2397V18.9875C4.57427 19.4152 4.23028 19.7622 3.80255 19.7622C3.59017 19.7622 3.39576 19.6755 3.25516 19.5349C3.11459 19.3943 3.02783 19.1999 3.02783 18.9875V17.7432C3.50343 17.9854 4.02389 18.153 4.57427 18.2397Z" fill="#04CE78"/>
<path d="M3.80261 19.9126C3.5559 19.9126 3.32387 19.8163 3.14882 19.6412C2.97378 19.4659 2.87744 19.2335 2.87744 18.9874V17.7433C2.87744 17.691 2.90476 17.6426 2.9491 17.615C2.99404 17.5876 3.04955 17.5853 3.09596 17.6094C3.55883 17.8449 4.0643 18.007 4.59795 18.091C4.67109 18.1025 4.72483 18.1656 4.72483 18.2397V18.9874C4.72483 19.4976 4.31101 19.9126 3.80261 19.9126ZM3.17819 17.9821V18.9874C3.17819 19.1534 3.2434 19.3102 3.36146 19.4286C3.47953 19.5466 3.63637 19.6118 3.80261 19.6118C4.14536 19.6118 4.42408 19.3316 4.42408 18.9874V18.3668C3.98793 18.2878 3.57029 18.1589 3.17819 17.9821Z" fill="#04CE78"/>
<path d="M7.72123 17.7432V18.9875C7.72123 19.4152 7.37426 19.7622 6.94653 19.7622C6.73415 19.7622 6.53974 19.6755 6.40214 19.5349C6.26154 19.3943 6.1748 19.1999 6.1748 18.9875V18.2397C6.72219 18.1559 7.24265 17.9854 7.72123 17.7432Z" fill="#04CE78"/>
<path d="M6.94664 19.9126C6.70199 19.9126 6.46409 19.8133 6.29462 19.6401C6.12075 19.4659 6.02441 19.2336 6.02441 18.9874V18.2397C6.02441 18.1654 6.07875 18.1022 6.15217 18.0911C6.67438 18.0112 7.17955 17.8491 7.65358 17.6091C7.69999 17.5853 7.7555 17.5877 7.80014 17.6153C7.84479 17.6426 7.87181 17.691 7.87181 17.7433V18.9874C7.87181 19.4976 7.4568 19.9126 6.94664 19.9126ZM6.32517 18.3671V18.9874C6.32517 19.1534 6.39037 19.3102 6.50844 19.4286C6.62298 19.5455 6.78217 19.6119 6.94664 19.6119C7.29086 19.6119 7.57105 19.3317 7.57105 18.9874V17.9818C7.17221 18.1616 6.75456 18.2908 6.32517 18.3671Z" fill="#04CE78"/>
<path d="M4.42016 7.86014V8.28805C4.42016 8.35656 4.36462 8.4121 4.29612 8.4121H3.50487V9.20334C3.50487 9.27185 3.44933 9.32739 3.38083 9.32739H2.95291C2.8844 9.32739 2.82887 9.27185 2.82887 9.20334V8.4121H2.03762C1.96911 8.4121 1.91357 8.35656 1.91357 8.28805V7.86014C1.91357 7.79163 1.96911 7.73609 2.03762 7.73609H2.82887V6.94485C2.82887 6.87634 2.8844 6.8208 2.95291 6.8208H3.38083C3.44933 6.8208 3.50487 6.87634 3.50487 6.94485V7.73609H4.29612C4.36462 7.73609 4.42016 7.79163 4.42016 7.86014Z" fill="#04CE78"/>
<path d="M9.49833 7.34079H6.29344C6.21032 7.34079 6.14307 7.27353 6.14307 7.19041C6.14307 7.1073 6.21032 7.04004 6.29344 7.04004H9.49833C9.58145 7.04004 9.64871 7.1073 9.64871 7.19041C9.64871 7.27353 9.58145 7.34079 9.49833 7.34079Z" fill="#04CE78"/>
<path d="M9.49852 8.22458H7.46874C7.38562 8.22458 7.31836 8.15732 7.31836 8.0742C7.31836 7.99109 7.38562 7.92383 7.46874 7.92383H9.49852C9.58163 7.92383 9.64889 7.99109 9.64889 8.0742C9.64889 8.15732 9.58163 8.22458 9.49852 8.22458Z" fill="#04CE78"/>
<path d="M9.49832 9.10837H7.70409C7.62097 9.10837 7.55371 9.04111 7.55371 8.95799C7.55371 8.87488 7.62097 8.80762 7.70409 8.80762H9.49832C9.58144 8.80762 9.64869 8.87488 9.64869 8.95799C9.64869 9.04111 9.58144 9.10837 9.49832 9.10837Z" fill="#04CE78"/>
<path d="M0.522446 26.5899C0.439328 26.5899 0.37207 26.5226 0.37207 26.4395V23.8071C0.37207 22.8199 1.17535 22.0167 2.16248 22.0167C2.98397 22.0167 3.65215 21.3485 3.65215 20.527V19.7622C3.65215 19.6791 3.7194 19.6118 3.80252 19.6118C3.88564 19.6118 3.9529 19.6791 3.9529 19.7622V20.527C3.9529 21.5141 3.14962 22.3174 2.16248 22.3174C1.341 22.3174 0.672822 22.9856 0.672822 23.8071V26.4395C0.672822 26.5226 0.605564 26.5899 0.522446 26.5899Z" fill="#04CE78"/>
<path d="M8.47911 24.5058C8.39599 24.5058 8.32873 24.4385 8.32873 24.3554V22.9374C8.32873 22.5979 8.05236 22.3215 7.71255 22.3215C7.20708 22.3215 6.7959 21.91 6.7959 21.4046V19.7622C6.7959 19.6791 6.86316 19.6118 6.94627 19.6118C7.02939 19.6118 7.09665 19.6791 7.09665 19.7622V21.4046C7.09665 21.7444 7.37302 22.0208 7.71255 22.0208C8.21801 22.0208 8.62949 22.432 8.62949 22.9374V24.3554C8.62949 24.4385 8.56223 24.5058 8.47911 24.5058Z" fill="#04CE78"/>
</svg>
