<svg width="24" height="24" viewBox="0 0 24 24" fill="none" xmlns="http://www.w3.org/2000/svg">
<g clip-path="url(#clip0_1258_1108)">
<path d="M8.88768 7.3125C7.50018 5.5875 7.57518 4.95 7.65018 4.8C7.72518 4.65 7.87518 4.6125 7.91268 4.6125C8.13768 4.575 8.28768 4.3875 8.28768 4.1625C8.21268 2.55 8.81268 1.3125 9.93768 0.6C10.6127 0.1875 11.4752 0 12.2627 0C13.0127 0 13.6877 0.15 14.1752 0.4125C14.5127 0.6 14.7002 0.825 14.7002 1.05C14.7002 1.2 14.8127 1.35 14.9252 1.3875C15.0002 1.425 16.3502 1.9875 15.7502 4.125C15.7127 4.2375 15.7502 4.35 15.7877 4.4625C15.8627 4.5375 15.9752 4.6125 16.0877 4.6125C16.0877 4.6125 16.2752 4.65 16.3502 4.8C16.4252 4.95 16.5377 5.5875 15.1127 7.35C15.0752 7.3875 15.0377 7.425 15.0377 7.5C15.0377 7.5375 14.2877 10.3125 12.0002 10.575C9.67518 10.3125 8.96268 7.5 8.96268 7.5C8.92518 7.425 8.92518 7.35 8.88768 7.3125Z" fill="#000D44"/>
<path d="M21.7875 22.3501C21.4875 22.6876 19.65 24.1126 12.525 24.0001C5.43748 24.1126 2.81248 22.6876 2.24998 22.3126C2.17498 18.8626 3.86248 15.0751 4.79998 13.8001C5.17498 13.2751 5.66248 12.9001 6.22498 12.6751L6.56248 12.5626L6.14998 14.3251C5.24998 14.6251 4.68748 15.5251 4.91248 16.4626L5.28748 18.3001C5.32498 18.4876 5.47498 18.6001 5.66248 18.6001H5.73748L6.44998 18.4876C6.67498 18.4501 6.78748 18.2626 6.74998 18.0376C6.71248 17.8501 6.52498 17.7001 6.29998 17.7376L5.96248 17.8126L5.62498 16.3501C5.51248 15.7501 5.88748 15.1501 6.48748 15.0001H6.52498L6.78748 14.9626C7.38748 14.8501 7.94998 15.2251 8.09998 15.8251L8.39998 17.3251L8.17498 17.3626C7.98748 17.4001 7.83748 17.6251 7.91248 17.8126C7.94998 18.0001 8.17498 18.1501 8.36248 18.0751L8.92498 17.9251C9.11248 17.8876 9.26248 17.6626 9.22498 17.4751L8.84998 15.6376C8.66248 14.7376 7.87498 14.1001 6.97498 14.1376L7.38748 12.3001C7.68748 12.2251 7.94998 12.1501 8.17498 12.0376C8.62498 14.5501 9.59998 16.2376 11.25 17.3251C11.1375 17.2501 11.1 17.1001 11.1 16.9876L11.175 16.3501L11.5125 13.6126C11.175 13.3501 10.95 12.9001 11.1 12.3751C11.2125 12.0376 11.475 11.7751 11.8125 11.6626C12.5625 11.4376 13.275 12.0001 13.275 12.7126C13.275 13.0501 13.125 13.3876 12.8625 13.5751L13.1625 16.2001L13.2375 16.8751C13.275 17.0251 13.2 17.1376 13.0875 17.2126C14.175 16.4251 15.5625 14.8876 16.0875 12.1126C16.3125 12.1876 16.5375 12.2251 16.7625 12.3001C17.1 12.3751 17.4375 12.4876 17.625 12.5626C17.8125 12.6376 17.9625 12.7126 18.15 12.8251C18.2625 13.5376 18.6 16.5751 16.9875 18.6001C16.8375 18.5251 16.6875 18.4876 16.5 18.4876C15.8625 18.4876 15.2625 18.9751 15.15 19.6126C15 20.4751 15.675 21.2251 16.5 21.2251C17.25 21.2251 17.85 20.6251 17.85 19.8751C17.85 19.5751 17.7375 19.3126 17.5875 19.0876C19.0125 17.2876 19.0875 14.8876 18.975 13.5376C19.125 13.6876 19.2375 13.8376 19.35 13.9876C20.4375 15.5251 21.825 19.2751 21.7875 22.3501Z" fill="#04CE78"/>
</g>
<defs>
<clipPath id="clip0_1258_1108">
<rect width="24" height="24" fill="white"/>
</clipPath>
</defs>
</svg>
