<svg width="24" height="24" viewBox="0 0 24 24" fill="none" xmlns="http://www.w3.org/2000/svg">
<g clip-path="url(#clip0_1258_1246)">
<path d="M13.4337 5.69345V0.956922C13.4337 0.647406 13.1833 0.396484 12.8744 0.396484H11.1223C10.8134 0.396484 10.563 0.647406 10.563 0.956922V5.6935C10.9845 5.44459 11.4749 5.30111 11.9984 5.30111C12.5218 5.30111 13.0122 5.44455 13.4337 5.69345Z" fill="#000D44"/>
<path d="M6.88176 15.8916C6.49762 15.8916 6.18506 16.2058 6.18506 16.5919C6.18506 16.9781 6.49762 17.2922 6.88176 17.2922C7.2659 17.2922 7.57846 16.9781 7.57846 16.5919C7.57851 16.2058 7.26595 15.8916 6.88176 15.8916Z" fill="#000D44"/>
<path d="M13.4338 8.14921C13.4338 7.35425 12.7898 6.70752 11.9984 6.70752C11.2069 6.70752 10.563 7.35425 10.563 8.14921C10.563 8.94416 11.2069 9.59089 11.9984 9.59089C12.7898 9.59085 13.4338 8.94416 13.4338 8.14921Z" fill="#000D44"/>
<path d="M22.8346 11.7939C22.8346 11.0118 22.201 10.3755 21.4224 10.3755C20.6437 10.3755 20.0103 11.0118 20.0103 11.7939C20.0103 12.576 20.6437 13.2123 21.4224 13.2123C22.201 13.2123 22.8346 12.576 22.8346 11.7939Z" fill="#000D44"/>
<path d="M17.1147 15.8916C16.7305 15.8916 16.418 16.2058 16.418 16.5919C16.418 16.9781 16.7305 17.2922 17.1147 17.2922C17.4988 17.2922 17.8113 16.9781 17.8113 16.5919C17.8113 16.2058 17.4988 15.8916 17.1147 15.8916Z" fill="#000D44"/>
<path d="M22.5368 14.3872C22.4087 14.4428 22.2757 14.4893 22.1387 14.5255V20.8123C22.5511 20.5475 22.9175 20.2082 23.2113 19.8137C23.7274 19.1206 24.0002 18.3008 24.0002 17.4431C24.0002 16.2698 23.4597 15.1546 22.5368 14.3872Z" fill="#000D44"/>
<path d="M19.2299 10.0247C19.5415 9.63669 19.9529 9.33285 20.4248 9.15275C19.993 8.14982 18.9982 7.4458 17.8418 7.4458H14.8373V8.14893C14.8373 8.3915 14.8067 8.62705 14.7495 8.85205H17.8418C18.5364 8.8521 19.1149 9.35957 19.2299 10.0247Z" fill="#000D44"/>
<path d="M0 17.4431C0 18.3008 0.272813 19.1206 0.789 19.8137C1.08277 20.2082 1.44919 20.5475 1.86159 20.8123V14.5255C1.72448 14.4893 1.59155 14.4428 1.46344 14.3872C0.540516 15.1546 0 16.2698 0 17.4431Z" fill="#000D44"/>
<path d="M4.76667 10.0246C4.8817 9.35952 5.46009 8.85205 6.15473 8.85205H9.24745C9.19031 8.62705 9.1597 8.3915 9.1597 8.14893V7.4458H6.15468C4.99837 7.4458 4.00345 8.14982 3.57178 9.15275C4.04371 9.3328 4.45509 9.63664 4.76667 10.0246Z" fill="#000D44"/>
<path d="M3.98647 11.7939C3.98647 11.0118 3.353 10.3755 2.57431 10.3755C1.79563 10.3755 1.16211 11.0118 1.16211 11.7939C1.16211 12.576 1.79567 13.2123 2.57431 13.2123C3.35295 13.2123 3.98647 12.576 3.98647 11.7939Z" fill="#000D44"/>
<path d="M5.62019 12.2134H5.35825C5.191 13.335 4.36413 14.243 3.2876 14.5261L3.30982 22.9739C3.31071 23.3216 3.59224 23.6029 3.93921 23.6029H5.62019C8.74839 23.6029 11.2933 21.0482 11.2933 17.9082C11.2934 14.7681 8.74839 12.2134 5.62019 12.2134ZM5.73349 21.8358C5.34597 21.8358 5.03182 21.521 5.03182 21.1327C5.03182 20.7444 5.34597 20.4296 5.73349 20.4296C6.121 20.4296 6.43516 20.7444 6.43516 21.1327C6.43521 21.521 6.12105 21.8358 5.73349 21.8358ZM6.88146 18.6983C5.72341 18.6983 4.78136 17.7533 4.78136 16.5917C4.78136 15.4302 5.72346 14.4852 6.88146 14.4852C8.03946 14.4852 8.98155 15.4302 8.98155 16.5917C8.98155 17.7533 8.0395 18.6983 6.88146 18.6983Z" fill="#04CE78"/>
<path d="M18.6377 12.2134H18.3757C15.2476 12.2134 12.7026 14.7681 12.7026 17.9082C12.7026 21.0483 15.2476 23.6029 18.3757 23.6029H20.0568C20.4037 23.6029 20.6852 23.3216 20.6862 22.9739L20.7084 14.5261C19.6318 14.243 18.805 13.335 18.6377 12.2134ZM18.2698 21.8358C17.8822 21.8358 17.5681 21.521 17.5681 21.1327C17.5681 20.7444 17.8823 20.4296 18.2698 20.4296C18.6573 20.4296 18.9715 20.7444 18.9715 21.1327C18.9715 21.521 18.6573 21.8358 18.2698 21.8358ZM17.1145 18.6983C15.9565 18.6983 15.0144 17.7533 15.0144 16.5917C15.0144 15.4302 15.9565 14.4852 17.1145 14.4852C18.2725 14.4852 19.2146 15.4302 19.2146 16.5917C19.2146 17.7533 18.2725 18.6983 17.1145 18.6983Z" fill="#04CE78"/>
</g>
<defs>
<clipPath id="clip0_1258_1246">
<rect width="24" height="24" fill="white"/>
</clipPath>
</defs>
</svg>
