<svg width="60" height="60" viewBox="0 0 60 60" fill="none" xmlns="http://www.w3.org/2000/svg">
<g clip-path="url(#clip0_1570_1665)">
<path d="M55.0151 40.8953H54.7247C56.3823 40.4114 57.7979 39.1531 58.7417 37.4713C60.242 34.8094 60.1573 31.6031 58.5118 29.0986C58.0762 28.4332 57.5076 27.8403 56.8542 27.3926V26.4731C56.8542 24.9607 55.8863 23.6419 54.507 23.2668L50.9861 22.2989C50.3327 22.1174 49.6431 22.1174 48.9897 22.2989L45.5051 23.2668C44.15 23.6298 43.1942 24.9486 43.1942 26.461V27.3563C42.5166 27.8282 41.9359 28.4211 41.4882 29.1107C39.8427 31.6273 39.758 34.8094 41.2583 37.4834C42.2021 39.1652 43.6298 40.4235 45.2753 40.9074H43.5935C42.1537 39.2983 40.1089 38.3787 37.9552 38.3666H34.2408V37.4229C37.6407 35.8137 39.9516 32.5469 40.3146 28.7961C41.8391 28.7114 43.0369 27.441 43.0248 25.9165C43.0006 24.4404 41.8875 23.2063 40.4114 23.049V18.6207C40.4114 17.4592 40.1573 16.3218 39.637 15.2813C38.3908 12.7405 35.7895 11.1313 32.9583 11.1434H26.2553C24.7429 11.1434 23.3394 11.954 22.5892 13.2728C19.758 14.7126 19.2619 17.9915 19.2498 18.1367C19.2378 18.1851 19.2378 18.2214 19.2378 18.2698V23.0611C18.5481 23.0974 17.8947 23.3999 17.4108 23.8959C16.8663 24.4404 16.5638 25.1664 16.5638 25.9286C16.5638 27.4652 17.7616 28.7235 19.2982 28.8082C19.516 31.2644 20.605 33.5632 22.3472 35.3055C23.3394 36.2734 24.5009 37.0357 25.7713 37.5802V38.3666H22.0448C19.3829 38.3908 16.9268 39.8064 15.5959 42.1174H12.9462V41.9722L14.5191 40.9437C14.5675 40.9074 14.6279 40.859 14.6642 40.8106C15.729 39.7459 16.4065 38.3666 16.6122 36.8784C17.6165 36.6727 18.3303 35.8016 18.3424 34.7731C18.3545 33.781 17.677 32.9099 16.709 32.6921V28.4453C16.709 27.0054 15.729 25.7471 14.3255 25.3963L10.7683 24.4888C10.4779 24.4162 10.1754 24.3799 9.87296 24.3678C9.50998 24.3557 9.15911 24.4041 8.80823 24.4767C8.79613 24.4767 8.79613 24.4767 8.78403 24.4767L5.27526 25.3842C3.88385 25.7471 2.90381 27.0054 2.90381 28.4453V29.8367C2.90381 29.9093 2.86751 29.9819 2.86751 30.0544C2.86751 30.1512 2.90381 30.2359 2.90381 30.3206V32.68C1.93587 32.8978 1.25832 33.7689 1.27042 34.761C1.27042 35.7895 1.98427 36.6606 2.98851 36.8784C3.29099 39.1168 4.6824 41.0042 6.70296 42.0932H5.02117C2.26255 42.0932 0 44.2952 0 47.0538V49.4979C0.0120992 50.0303 0.45977 50.4537 1.00423 50.4416H14.5191V53.0067C14.5312 53.539 14.9667 53.9625 15.4991 53.9504H44.5009C45.0333 53.9625 45.4688 53.539 45.4809 53.0067V50.4537H58.9958C59.5281 50.4658 59.9758 50.0545 60 49.51V46.2432C60.0121 43.3152 57.7495 40.8953 55.0151 40.8953ZM57.3866 31.0466C57.2172 30.9619 57.0478 30.8893 56.8663 30.8288V30.0786C56.8663 30.1028 56.9026 30.1391 56.9147 30.1633C57.0962 30.4416 57.2535 30.7441 57.3866 31.0466ZM56.7937 35.1966C57.1567 35.1119 57.4955 34.9304 57.7616 34.6763C57.6286 35.3297 57.3987 35.9589 57.072 36.5396C56.7574 37.1083 56.3581 37.6165 55.8742 38.0399C56.3581 37.1688 56.6727 36.1887 56.7937 35.1966ZM40.4114 25.0091C40.9074 25.1543 41.1978 25.6866 41.0526 26.1827C40.9558 26.5094 40.7018 26.7514 40.3751 26.8361L40.4114 25.0091ZM19.2378 26.8482C18.8143 26.7272 18.5239 26.3521 18.4997 25.9165C18.4997 25.6624 18.5965 25.4205 18.778 25.2511C18.9111 25.1301 19.0684 25.0454 19.2378 24.997V26.8482ZM10.9377 27.3442H10.7683V27.1264C10.7683 26.8482 10.6594 26.5941 10.4537 26.4126L13.8415 27.2716C14.386 27.4047 14.761 27.8887 14.7731 28.4453V31.5185C13.5632 31.9903 12.3533 31.8935 11.2644 31.2402C10.8409 30.9861 10.4537 30.6715 10.1149 30.3085C10.5142 30.1754 10.7683 29.8004 10.7683 29.389V29.2801H10.9377C11.4701 29.2801 11.9056 28.8445 11.9056 28.3122C11.9056 27.7798 11.4701 27.3442 10.9377 27.3442ZM4.83969 30.0544V28.4453C4.83969 27.8887 5.22686 27.4047 5.75923 27.2716L9.1591 26.4005C8.95342 26.582 8.83243 26.8482 8.83243 27.1264V27.3442H8.66304C8.13067 27.3442 7.6951 27.7798 7.6951 28.3122C7.6951 28.8445 8.13067 29.2801 8.66304 29.2801H8.83243V29.3285C8.71143 29.3164 8.54205 29.3164 8.38476 29.3164C7.00545 29.3164 5.80762 29.8609 4.83969 30.4295V30.0544ZM4.83969 35.9468V32.8494C5.44465 32.3533 6.79976 31.2765 8.33636 31.2523C8.85662 31.8814 9.46159 32.4259 10.1512 32.8615C11.0708 33.4422 12.1355 33.7447 13.2244 33.7568C13.7447 33.7568 14.2529 33.6842 14.761 33.5511V35.9468C14.761 37.2293 14.2529 38.4513 13.3696 39.3587L11.4459 40.5929C10.9135 40.7865 10.3569 40.8711 9.80036 40.8711C9.268 40.8711 8.73563 40.7865 8.22747 40.6171C6.2069 39.9516 4.83969 38.0641 4.83969 35.9468ZM1.93587 48.5179V47.0659C1.93587 45.3842 3.33938 44.0411 5.02117 44.0411H7.50151L8.82033 45.3237V48.5179H1.93587ZM9.00182 42.7586C9.63097 42.8312 10.2601 42.8191 10.8772 42.7223L9.92136 43.6782L9.00182 42.7586ZM14.5191 45.8923V48.5179H10.7683V45.5777L12.3291 44.0411H14.7852C14.6159 44.6461 14.5191 45.2753 14.5191 45.8923ZM38.0641 45.6019C38.778 45.6019 39.3587 46.1827 39.3587 46.8966C39.3587 47.6104 38.778 48.1912 38.0641 48.1912C37.7253 48.1912 37.3866 48.0581 37.1567 47.8161C36.6485 47.3079 36.6485 46.4852 37.1567 45.977C37.3987 45.7471 37.7253 45.6019 38.0641 45.6019ZM24.1863 14.4102C24.5614 13.5874 25.3721 13.0672 26.2674 13.0672H32.9704C35.0756 13.0672 36.9873 14.2529 37.9189 16.1404C38.294 16.9147 38.4876 17.7616 38.4876 18.6207V22.0811C36.5517 21.0768 34.8336 19.6854 33.4422 18.0036C33.2607 17.7858 32.9946 17.6528 32.7163 17.6528H26.2795C25.0091 17.6528 23.9927 16.6243 23.9927 15.3539C23.9685 15.0393 24.0411 14.7126 24.1863 14.4102ZM21.1736 18.3303C21.2946 18.0883 21.4398 17.072 22.1053 16.1646C22.444 17.931 23.8717 19.2861 25.6503 19.5523C24.3678 20.5566 22.7949 21.1252 21.1736 21.1978V18.3303ZM21.1736 23.1216C22.7465 23.0853 25.8197 22.5045 28.4332 19.6007H32.2444C33.3091 20.8106 34.9183 22.2626 37.1567 23.5935H21.343C21.2946 23.5935 21.2946 23.5572 21.1736 23.5693V23.1216ZM37.2898 25.5293C37.2293 26.9329 36.0436 28.0218 34.64 27.9613C33.66 27.9129 32.801 27.32 32.4138 26.4126C32.3049 26.1343 32.2323 25.8318 32.2202 25.5293H37.2898ZM30.2964 25.7713H29.3164C29.3285 25.6503 29.3285 25.6503 29.3285 25.5293H30.2722C30.2843 25.6503 30.2843 25.6503 30.2964 25.7713ZM23.8717 27.7677C22.9643 27.3926 22.3472 26.5215 22.3109 25.5293H27.3926C27.3684 25.8318 27.3079 26.1222 27.199 26.4005V26.3884C26.6546 27.6951 25.1664 28.3122 23.8717 27.7677ZM23.7145 33.9262C22.1295 32.3533 21.222 30.2238 21.1978 27.9855C22.6376 29.994 25.4325 30.4658 27.4531 29.026C27.9492 28.6751 28.3606 28.2275 28.6751 27.7193H30.9498C32.2323 29.8246 34.9788 30.5021 37.0841 29.2196C37.6044 28.905 38.052 28.4816 38.415 27.9855C38.3424 32.68 34.507 36.4549 29.8125 36.4549C28.8808 36.4549 27.9613 36.3097 27.0901 36.0194C25.8197 35.5717 24.6582 34.8578 23.7145 33.9262ZM28.7961 52.0266H16.4549V45.8923C16.467 45.0575 16.6606 44.2347 17.0357 43.4967C17.8947 41.7423 19.5886 40.5445 21.5366 40.3509V40.9679C20.859 41.1252 20.2541 41.4761 19.7822 41.9843C19.0442 42.7102 18.6328 43.7145 18.6328 44.7429V48.8566C18.6328 49.389 19.0079 49.8488 19.5523 49.8488H20.7139C21.2462 49.8488 21.6818 49.4132 21.6818 48.8808C21.6818 48.3485 21.2462 47.9129 20.7139 47.9129H20.5687V44.7429C20.5566 44.2347 20.7502 43.7387 21.1131 43.3757C21.464 43.0248 21.948 42.8191 22.444 42.8312H22.4803C23.5693 42.8312 24.4404 43.654 24.4404 44.7429V47.9129H23.9443C23.412 47.9129 22.9764 48.3485 22.9764 48.8808C22.9764 49.4132 23.412 49.8488 23.9443 49.8488H25.4083C25.9528 49.8367 26.3763 49.389 26.3763 48.8566V44.7429C26.4005 42.9643 25.2027 41.3914 23.4725 40.9558V40.2904H26.34L28.7961 42.8312V52.0266ZM27.7072 38.9595V38.173C29.2317 38.4755 30.7925 38.4513 32.3049 38.0883V38.9716L30.0182 41.2704L27.7072 38.9595ZM43.5572 52.0266H30.732V43.2305L33.6479 40.2904H37.1446V43.8113C35.7895 44.2226 34.8578 45.4809 34.8578 46.8966C34.8699 48.6751 36.3218 50.1149 38.1004 50.1028C39.879 50.0908 41.3188 48.6388 41.3067 46.8603C41.2946 45.4688 40.3993 44.2468 39.0805 43.8113V40.4235C41.6939 40.9316 43.5693 43.2305 43.5572 45.8923V52.0266ZM51.1434 25.2874H50.9377V25.0333C50.9498 24.5977 50.6594 24.2105 50.2359 24.1016C50.3085 24.1137 50.3932 24.1258 50.4658 24.15L53.9988 25.118C54.5433 25.2632 54.9304 25.8197 54.9304 26.461V30.0061C52.1476 30.4537 50.5505 29.0139 50.0303 28.4574C50.5505 28.4453 50.9498 28.0097 50.9377 27.4894V27.2232H51.1434C51.6757 27.2232 52.1113 26.7877 52.1113 26.2553C52.1113 25.7229 51.6878 25.2874 51.1434 25.2874ZM45.1301 26.461C45.1301 25.8197 45.5051 25.2632 46.0496 25.118L49.5342 24.15C49.6189 24.1258 49.7036 24.1016 49.8004 24.1016C49.3527 24.1984 49.026 24.5856 49.0139 25.0454V25.2874H48.9171C48.3848 25.2874 47.9492 25.7229 47.9492 26.2553C47.9492 26.7877 48.3848 27.2232 48.9171 27.2232H49.0139V27.4773C49.026 27.5983 49.0502 27.7193 49.1107 27.8282C49.0986 27.8282 49.0865 27.8282 49.0744 27.8282C48.7598 27.8282 48.4695 27.9855 48.288 28.2517C47.199 29.8246 45.9891 30.1633 45.1422 30.1996V27.925H45.1301V26.461ZM43.0974 30.1633C43.1337 30.1149 43.1942 30.0665 43.1942 30.0182V30.8288C42.9885 30.8772 42.7828 30.9619 42.6134 31.0829C42.7465 30.7562 42.9159 30.4537 43.0974 30.1633ZM42.9401 36.5396C42.6013 35.9468 42.3593 35.2934 42.2384 34.628C42.5166 34.9062 42.8675 35.0998 43.2547 35.1845C43.3757 36.2129 43.6903 37.2051 44.1984 38.1004C43.7024 37.6528 43.2668 37.1325 42.9401 36.5396ZM45.1301 34.2771V32.1355C46.219 32.1113 47.7435 31.7604 49.1591 30.2601C50.7441 31.6394 52.8494 32.2565 54.9304 31.954V34.265C54.9425 35.6443 54.4465 36.9873 53.5269 38.0278L51.6999 39.2982L49.9335 39.6491C49.4495 39.637 48.9655 39.5523 48.5057 39.3829L48.4574 39.3708C48.409 39.3587 48.3606 39.3345 48.3243 39.3103C48.3122 39.3103 48.3001 39.2982 48.288 39.2982C46.4005 38.5239 45.1301 36.4912 45.1301 34.2771ZM45.493 48.5179V45.8923C45.4809 44.8397 45.2632 43.7992 44.8397 42.8312H47.7556C48.1186 43.1579 48.542 43.4241 49.0018 43.6056V48.5179H45.493ZM49.1833 41.5366C49.4616 41.5729 49.752 41.5971 50.0303 41.5971C50.0907 41.5971 50.1633 41.585 50.2238 41.5729L51.1797 41.3793V41.4882C50.8651 41.7302 50.4779 41.8512 50.0786 41.8391C49.752 41.827 49.4495 41.7181 49.1833 41.5366ZM50.9377 48.5179V43.6661C51.5427 43.533 52.075 43.3152 52.5227 42.8312H55.0151C56.6848 42.8312 58.0762 44.392 58.0762 46.2432V48.5179H50.9377Z" fill="#04CE78"/>
<path d="M48.5181 32.1718C47.9857 32.1718 47.5501 32.6074 47.5501 33.1398C47.5501 32.6074 47.1146 32.1718 46.5822 32.1718C46.0498 32.1718 45.6143 32.6074 45.6143 33.1398V33.4059C45.6143 34.5433 46.4612 35.4628 47.5501 35.4628C48.6391 35.4628 49.486 34.5312 49.486 33.4059V33.1398C49.486 32.6074 49.0504 32.1718 48.5181 32.1718ZM47.5501 33.5027C47.538 33.4906 47.5501 33.4543 47.5501 33.4059C47.5501 33.4543 47.5622 33.4906 47.5501 33.5027Z" fill="#04CE78"/>
<path d="M53.4785 32.1597C52.9462 32.1597 52.5106 32.5953 52.5106 33.1277C52.5106 32.5953 52.075 32.1597 51.5426 32.1597C51.0103 32.1597 50.5747 32.5953 50.5747 33.1277V33.3939C50.5747 34.5312 51.4217 35.4507 52.5106 35.4507C53.5995 35.4507 54.4465 34.5312 54.4465 33.3939V33.1277C54.4465 32.5953 54.0109 32.1597 53.4785 32.1597ZM52.5106 33.5148C52.4985 33.4906 52.5106 33.4543 52.5106 33.406C52.5106 33.4543 52.5227 33.4906 52.5106 33.5148Z" fill="#04CE78"/>
<path d="M8.34853 33.7931C7.81617 33.7931 7.3806 34.2287 7.3806 34.761V35.0151C7.3806 35.0393 7.3443 35.0514 7.3201 35.0514C7.2959 35.0514 7.2596 35.0393 7.2596 35.0151V34.761C7.2596 34.2287 6.82403 33.7931 6.29167 33.7931C5.7593 33.7931 5.32373 34.2287 5.32373 34.761V35.0151C5.32373 36.1161 6.21907 37.0115 7.3201 37.0115C8.42113 37.0115 9.31647 36.1161 9.31647 35.0151V34.761C9.31647 34.2287 8.8809 33.7931 8.34853 33.7931Z" fill="#04CE78"/>
<path d="M13.309 33.7931C12.7766 33.7931 12.341 34.2287 12.341 34.761V35.0151C12.341 35.0393 12.3047 35.0514 12.2806 35.0514C12.2564 35.0514 12.2201 35.0393 12.2201 35.0151V34.761C12.2201 34.2287 11.7845 33.7931 11.2521 33.7931C10.7198 33.7931 10.2842 34.2287 10.2842 34.761V35.0151C10.2963 36.1161 11.1916 36.9873 12.2806 36.9873C13.3695 36.9873 14.2648 36.104 14.2769 35.0151V34.761C14.2769 34.2287 13.8413 33.7931 13.309 33.7931Z" fill="#04CE78"/>
<path d="M33.4783 44.5251H32.6676C32.1353 44.5251 31.6997 44.9607 31.6997 45.493C31.6997 46.0254 32.1353 46.461 32.6676 46.461H33.4783C34.0107 46.461 34.4462 46.0254 34.4462 45.493C34.4462 44.9607 34.0107 44.5251 33.4783 44.5251Z" fill="#04CE78"/>
<path d="M33.4783 46.9449H32.6676C32.1353 46.9449 31.6997 47.3805 31.6997 47.9129C31.6997 48.4452 32.1353 48.8808 32.6676 48.8808H33.4783C34.0107 48.8808 34.4462 48.4452 34.4462 47.9129C34.4462 47.3805 34.0107 46.9449 33.4783 46.9449Z" fill="#04CE78"/>
<path d="M16.7454 10.8893C16.7333 10.8893 16.7333 10.8893 16.7212 10.8893H12.8253V6.99337C12.8253 6.4731 12.4139 6.04963 11.9057 6.04963C11.8936 6.04963 11.8936 6.04963 11.8815 6.04963H8.85672C8.32436 6.03753 7.87669 6.461 7.86459 6.99337V10.8893H4.01704C3.48467 10.8772 3.037 11.2886 3.0249 11.8331V14.8579C3.037 15.4023 3.47257 15.8379 4.01704 15.85H7.86459V19.6854C7.86459 20.2299 8.30016 20.6776 8.85672 20.6897H11.8815C12.4139 20.6776 12.8374 20.2299 12.8374 19.6854V15.85H16.7212C17.2536 15.8379 17.6891 15.3902 17.6771 14.8579V11.8331C17.6771 11.3128 17.2657 10.9014 16.7454 10.8893ZM15.7291 13.9141H11.8694C11.3371 13.902 10.9015 14.3134 10.8894 14.8458C10.8894 14.8458 10.8894 14.8458 10.8894 14.8579V18.7538H9.80046V14.8579C9.81256 14.3497 9.40119 13.9262 8.88092 13.9141C8.86882 13.9141 8.85672 13.9141 8.84462 13.9141H4.96078V12.8252H8.85672C9.38909 12.8131 9.81256 12.3654 9.80046 11.8331V7.9855H10.8894V11.8331C10.8894 12.3775 11.325 12.8131 11.8694 12.8252H15.7291V13.9141Z" fill="#04CE78"/>
</g>
<defs>
<clipPath id="clip0_1570_1665">
<rect width="60" height="60" fill="white"/>
</clipPath>
</defs>
</svg>
