<svg width="156" height="156" viewBox="0 0 156 156" fill="none" xmlns="http://www.w3.org/2000/svg">
<path d="M117.124 15.1278C126.276 15.1378 135.049 18.7775 141.52 25.2484C147.991 31.7192 151.63 40.4927 151.64 49.6438C151.64 49.7007 151.64 49.7598 151.64 49.8167C151.64 49.9305 151.655 50.1013 151.668 50.3269C152.376 62.8617 150.327 96.7052 116.085 140.071C115.777 140.461 115.341 140.729 114.854 140.828C114.367 140.927 113.861 140.852 113.425 140.614C112.988 140.377 112.65 139.993 112.469 139.53C112.288 139.067 112.276 138.556 112.436 138.085C112.533 137.799 121.891 109.767 115.497 84.1177C106.491 83.6951 98.0083 79.7656 91.8622 73.1696C85.7161 66.5735 82.3948 57.8346 82.6085 48.8214C82.8222 39.8083 86.554 31.2366 93.0058 24.9392C99.4576 18.6419 108.117 15.1189 117.133 15.1236L117.124 15.1278ZM147.424 49.5237C147.401 43.536 145.604 37.6895 142.261 32.7223C138.917 27.755 134.177 23.8898 128.638 21.6146C123.1 19.3394 117.011 18.7561 111.141 19.9386C105.271 21.121 99.8835 24.016 95.6578 28.2582C91.4321 32.5004 88.558 37.8995 87.3984 43.7738C86.2388 49.6481 86.8457 55.7344 89.1425 61.2641C91.4392 66.7938 95.3229 71.519 100.303 74.8432C105.283 78.1674 111.137 79.9415 117.124 79.9416C117.586 79.9417 118.035 80.0933 118.402 80.3732C118.769 80.6532 119.034 81.0458 119.157 81.491C124.005 99.1359 121.627 117.645 119.218 128.877C146.379 90.8299 148.084 61.7886 147.45 50.563C147.421 50.2173 147.412 49.8703 147.424 49.5237Z" fill="#F5F7FA"/>
<path d="M38.7323 15.1278C47.8835 15.1378 56.6569 18.7775 63.1278 25.2484C69.5986 31.7192 73.2383 40.4927 73.2484 49.6438C73.2484 49.7007 73.2484 49.7598 73.2484 49.8167C73.2484 49.9305 73.2631 50.1013 73.2758 50.3269C73.9841 62.8617 71.935 96.7052 37.693 140.071C37.3846 140.461 36.9486 140.729 36.4619 140.828C35.9751 140.927 35.4689 140.852 35.0326 140.614C34.5962 140.377 34.2578 139.993 34.0769 139.53C33.896 139.067 33.8843 138.556 34.0439 138.085C34.1409 137.799 43.4988 109.767 37.1049 84.1177C28.0991 83.6951 19.6162 79.7656 13.4701 73.1696C7.32405 66.5735 4.00274 57.8346 4.21645 48.8214C4.43015 39.8083 8.16191 31.2366 14.6137 24.9392C21.0655 18.6419 29.7251 15.1189 38.7407 15.1236L38.7323 15.1278ZM69.0322 49.5237C69.0088 43.536 67.212 37.6895 63.8684 32.7223C60.5249 27.755 55.7846 23.8898 50.246 21.6146C44.7074 19.3394 38.6189 18.7561 32.7491 19.9386C26.8793 21.121 21.4914 24.016 17.2657 28.2582C13.04 32.5004 10.1659 37.8995 9.00634 43.7738C7.84675 49.6481 8.45363 55.7344 10.7504 61.2641C13.0471 66.7938 16.9308 71.519 21.911 74.8432C26.8912 78.1674 32.7446 79.9415 38.7323 79.9416C39.194 79.9417 39.6429 80.0933 40.01 80.3732C40.3771 80.6532 40.6422 81.0458 40.7645 81.491C45.6132 99.1359 43.2352 117.645 40.8257 128.877C67.9865 90.8299 69.6941 61.7886 69.0596 50.563C69.0302 50.2174 69.0211 49.8703 69.0322 49.5237Z" fill="#F5F7FA"/>
</svg>
