<svg width="50" height="50" viewBox="0 0 50 50" fill="none" xmlns="http://www.w3.org/2000/svg">
<path d="M21.875 39.8438C14.5516 39.8438 8.59375 33.8859 8.59375 26.5625C8.59375 19.2391 14.5516 13.2812 21.875 13.2812C25.4508 13.2812 28.8227 14.7141 31.3109 17.2328C31.5352 16.7398 31.7938 16.2664 32.0961 15.8234C29.3266 13.1812 25.7297 11.7188 21.875 11.7188C13.6898 11.7188 7.03125 18.3773 7.03125 26.5625C7.03125 34.7477 13.6898 41.4062 21.875 41.4062C26.9734 41.4062 31.6281 38.8492 34.375 34.5617V31.05C32.5031 36.2844 27.5312 39.8438 21.875 39.8438Z" fill="#000D44"/>
<path d="M21.875 21.0938C20.1516 21.0938 18.75 22.4953 18.75 24.2188V28.9062C18.75 30.6297 20.1516 32.0312 21.875 32.0312C23.5984 32.0312 25 30.6297 25 28.9062V24.2188C25 22.4953 23.5984 21.0938 21.875 21.0938ZM20.5414 30.2398L19.7602 29.4586L20.8648 28.3539L21.6461 29.1352L20.5414 30.2398ZM20.8648 26.3336L19.7602 25.2289L20.5414 24.4477L21.6461 25.5523L20.8648 26.3336ZM21.3227 23.9898L22.4273 22.8852L23.2086 23.6664L22.1039 24.7711L21.3227 23.9898ZM23.2086 29.4586L22.1039 28.3539L22.8852 27.5727L23.9898 28.6773L23.2086 29.4586ZM23.9898 26.3336L22.8852 25.2289L23.6664 24.4477L24.7711 25.5523L23.9898 26.3336Z" fill="#04CE78"/>
<path d="M3.19922 43.3858C2.65469 43.8476 2.34375 44.5202 2.34375 45.2327C2.34375 46.5687 3.43125 47.6562 4.76719 47.6562C5.47969 47.6562 6.15156 47.3452 6.61172 46.8038L12.4281 39.953C11.5016 39.2968 10.65 38.546 9.87813 37.7163L3.19922 43.3858ZM4.6875 46.0937C4.25625 46.0937 3.90625 45.7437 3.90625 45.3124C3.90625 44.8812 4.25625 44.5312 4.6875 44.5312C5.11875 44.5312 5.46875 44.8812 5.46875 45.3124C5.46875 45.7437 5.11875 46.0937 4.6875 46.0937Z" fill="#000D44"/>
<path d="M30.7359 18.9109C28.5039 16.3281 25.2953 14.8438 21.875 14.8438C15.4133 14.8438 10.1562 20.1008 10.1562 26.5625C10.1562 33.0242 15.4133 38.2812 21.875 38.2812C26.9773 38.2812 31.4461 34.9969 33.0086 30.2086C31.5297 29.6523 30.4688 28.2336 30.4688 26.5625V21.0938C30.4688 20.3414 30.5672 19.6125 30.7359 18.9109ZM29.6875 27.3438H26.5625V28.9062C26.5625 29.025 26.5531 29.1422 26.5445 29.2586L29.4992 30.9641L28.718 32.3172L26.1445 30.8313C25.9187 31.3297 25.6102 31.782 25.2336 32.1687L26.8492 34.9664L25.4961 35.7477L23.9648 33.0953C23.5586 33.2984 23.1195 33.4438 22.657 33.5219V36.7188H21.0945V33.5234C20.632 33.4453 20.193 33.3 19.7867 33.0969L18.2555 35.7492L16.9023 34.968L18.518 32.1703C18.1414 31.7828 17.8328 31.3305 17.607 30.8328L15.0336 32.3188L14.2523 30.9656L17.207 29.2602C17.1969 29.1422 17.1875 29.025 17.1875 28.9062V27.3438H14.0625V25.7812H17.1875V24.2188C17.1875 24.1 17.1969 23.9828 17.2055 23.8664L14.2508 22.1609L15.032 20.8078L17.6055 22.2937C17.8312 21.7953 18.1398 21.343 18.5164 20.9562L16.9008 18.1586L18.2539 17.3773L19.7852 20.0297C20.1914 19.8266 20.6305 19.6812 21.093 19.6031V16.4062H22.6555V19.6016C23.118 19.6797 23.557 19.825 23.9633 20.0281L25.4945 17.3758L26.8477 18.157L25.232 20.9547C25.6086 21.3422 25.9172 21.7945 26.143 22.2922L28.7164 20.8063L29.4977 22.1594L26.543 23.8648C26.5531 23.9828 26.5625 24.1 26.5625 24.2188V25.7812H29.6875V27.3438Z" fill="#04CE78"/>
<path d="M39.8438 11.7188C42.4326 11.7188 44.5312 9.62008 44.5312 7.03125C44.5312 4.44242 42.4326 2.34375 39.8438 2.34375C37.2549 2.34375 35.1562 4.44242 35.1562 7.03125C35.1562 9.62008 37.2549 11.7188 39.8438 11.7188Z" fill="#000D44"/>
<path d="M42.8688 13.8914C42.418 15.2617 40.5742 16.1539 40.1625 16.3382L39.8438 16.4812L39.525 16.3382C39.1141 16.1546 37.2703 15.2617 36.8187 13.8914C34.0094 15.0757 32.0312 17.8578 32.0312 21.0937V26.5625C32.0312 27.8546 33.0828 28.9062 34.375 28.9062V18.75H35.9375V25H43.75V18.75H45.3125V28.9062C46.6047 28.9062 47.6562 27.8546 47.6562 26.5625V21.0937C47.6562 17.8578 45.6781 15.0757 42.8688 13.8914ZM40.625 23.4375H39.0625V21.875H40.625V23.4375ZM40.625 20.3125H39.0625V18.75H40.625V20.3125Z" fill="#000D44"/>
<path d="M35.9375 46.0938C35.9375 46.9555 36.6383 47.6562 37.5 47.6562C38.3617 47.6562 39.0625 46.9555 39.0625 46.0938V31.25H37.5V29.6875H42.1875V31.25H40.625V46.0938C40.625 46.9555 41.3258 47.6562 42.1875 47.6562C43.0492 47.6562 43.75 46.9555 43.75 46.0938V26.5625H35.9375V46.0938Z" fill="#000D44"/>
<path d="M38.314 13.4336C38.4671 13.8609 39.1991 14.4094 39.8437 14.7547C40.5437 14.382 41.2233 13.8359 41.3733 13.4336C40.8788 13.3352 40.3671 13.2812 39.8437 13.2812C39.3202 13.2812 38.8093 13.3352 38.314 13.4336Z" fill="#000D44"/>
</svg>
