<svg width="50" height="50" viewBox="0 0 50 50" fill="none" xmlns="http://www.w3.org/2000/svg">
<g clip-path="url(#clip0_302_8446)">
<path d="M21.4545 20.8382C18.2727 17.1719 18.1468 12.7762 18.4303 10.2074C18.5863 8.79291 18.0026 7.39864 16.8777 6.52699C15.3846 5.36999 13.2865 5.38334 11.8225 6.57658C8.80541 9.03629 4.16103 14.5176 2.01451 25.8518C-1.30656 43.3891 1.94508 48.7384 10.2313 48.7384C18.5176 48.7384 22.6081 49.1386 22.6081 36.5711C22.6081 24.004 20.1957 23.9849 21.4545 20.8382Z" fill="#04CE78"/>
<path d="M4.94457 25.8518C7.09109 14.5176 11.7355 9.03626 14.7521 6.57655C15.0874 6.30342 15.4559 6.09285 15.8428 5.94331C14.5114 5.43062 12.9714 5.64005 11.8225 6.57655C8.80542 9.03626 4.16103 14.5176 2.01451 25.8518C-1.30656 43.389 1.94508 48.7384 10.2313 48.7384C11.1473 48.7384 12.0117 48.7433 12.8253 48.735C4.78779 48.5896 1.6689 43.1499 4.94457 25.8518Z" fill="#1F5FFF"/>
<path d="M28.5455 20.8382C31.7274 17.1719 31.8529 12.7762 31.5694 10.2074C31.4134 8.79291 31.9971 7.39864 33.122 6.52699C34.6151 5.36999 36.7132 5.38334 38.1772 6.57658C41.1939 9.03629 45.8383 14.5176 47.9852 25.8518C51.3063 43.3891 48.0546 48.7384 39.7684 48.7384C31.4821 48.7384 27.3916 49.1386 27.3916 36.5711C27.3916 24.004 29.804 23.9849 28.5455 20.8382Z" fill="#04CE78"/>
<path d="M30.3217 36.5714C30.3217 24.0039 32.7341 25.938 31.4752 22.7913C34.6571 19.1253 34.7826 12.7762 34.4991 10.2074C34.3431 8.79287 34.9271 7.39861 36.0517 6.52695C36.3729 6.27823 36.7219 6.08368 37.0866 5.9433C35.7839 5.439 34.2733 5.63469 33.122 6.52695C31.9971 7.39861 31.413 8.79287 31.5694 10.2074C31.8529 12.7762 31.727 17.1718 28.5452 20.8381C29.804 23.9849 27.3916 24.0039 27.3916 36.5714C27.3916 49.1385 31.4821 48.7384 39.7684 48.7384C39.8817 48.7384 39.993 48.7369 40.1044 48.7349C33.558 48.6686 30.3217 47.7492 30.3217 36.5714Z" fill="#1F5FFF"/>
<path d="M43.1855 40.6585C42.9074 37.7067 41.7306 30.6743 36.7684 26.6067C32.3919 23.0194 29.9005 19.9226 28.7629 18.3242C28.2682 17.6288 28.0012 16.798 28.0012 15.9446V2.50244C28.0012 1.79481 27.4274 1.2207 26.7194 1.2207H23.2809C22.5728 1.2207 21.9991 1.79481 21.9991 2.50244V15.9446C21.9991 16.798 21.7317 17.6288 21.2373 18.3242C20.0998 19.923 17.6084 23.0194 13.2318 26.6071C8.26968 30.6743 7.09285 37.7067 6.81476 40.6589C6.75029 41.3402 7.24238 41.9673 7.92445 42.0215C8.54014 42.0707 9.08717 41.6568 9.21343 41.0632C9.6876 38.8362 11.2531 33.2305 15.5393 29.4387C19.8129 25.6584 22.4237 24.7238 23.5025 22.7897C23.7966 22.2629 24.3452 21.9291 24.9486 21.9291H25.0516C25.6551 21.9291 26.2037 22.2629 26.4978 22.7897C27.5766 24.7238 30.1873 25.6584 34.4609 29.4387C38.7471 33.2305 40.3131 38.8362 40.7868 41.0632C40.9131 41.6568 41.4601 42.0707 42.0758 42.0215C42.7579 41.9673 43.25 41.3398 43.1855 40.6585Z" fill="#1F5FFF"/>
<path d="M1.5392 43.3173C1.92907 43.2101 2.15833 42.8069 2.05075 42.4167C1.08182 38.8972 1.3046 33.5235 2.73168 25.9883C3.66933 21.0372 5.17994 16.7533 7.22194 13.2553C8.68946 10.7414 10.3919 8.68566 12.2825 7.14453C13.4857 6.16339 15.1897 6.14737 16.4264 7.106C17.353 7.82393 17.8291 8.95345 17.6994 10.1269C17.4331 12.5427 17.5449 16.0644 19.5041 19.3824C19.2386 19.7097 18.9418 20.0626 18.6107 20.4406C18.6099 20.4414 18.6092 20.4425 18.6084 20.4433C17.8924 21.2665 17.1321 22.0462 16.3608 22.8176C16.172 23.0064 13.9343 25.1575 13.879 25.1022C13.3453 24.562 12.722 23.8746 12.107 23.0674C12.1158 22.3716 12.1837 20.293 12.6625 18.9098C12.7948 18.5276 12.5919 18.1102 12.2096 17.9782C11.8274 17.8459 11.4105 18.0484 11.2781 18.4307C11.0042 19.2214 10.8478 20.1721 10.7585 21.0239C10.2493 20.1141 9.81326 19.1192 9.53136 18.0618C9.42683 17.6712 9.02553 17.4385 8.6349 17.543C8.2439 17.6471 8.01158 18.0484 8.11573 18.4394C8.48728 19.8333 9.09457 21.1215 9.78885 22.2652C8.83212 22.1713 7.63202 22.1958 6.53492 22.6325C6.15917 22.7821 5.97569 23.2082 6.1256 23.5839C6.27209 23.9528 6.70849 24.1405 7.07699 23.9936C8.52924 23.4153 10.3385 23.7972 10.942 23.9528C11.5699 24.7775 12.2035 25.484 12.7548 26.0486C12.4767 26.2771 12.2058 26.517 11.943 26.7688C10.8802 27.7873 9.94563 28.9947 9.14569 30.3813C8.1203 29.5234 6.82484 28.2016 6.32626 26.6822C6.19999 26.2981 5.7861 26.0886 5.40158 26.2149C5.01744 26.3412 4.80801 26.7551 4.93428 27.1392C5.14408 27.7782 5.45689 28.3794 5.82958 28.9375C5.19711 29.0271 4.43455 29.206 3.68687 29.5581C3.32066 29.7302 3.1635 30.1666 3.33592 30.5324C3.50529 30.8929 3.95009 31.0531 4.31057 30.8833C5.33749 30.4004 6.43383 30.3249 6.93699 30.318C7.43137 30.8437 7.95475 31.309 8.45104 31.7069C8.13213 32.3714 7.83878 33.0691 7.5748 33.8027C7.21737 34.7953 6.94004 35.7669 6.72451 36.6805C6.48304 36.608 6.22936 36.5401 5.96653 36.4802C5.75825 36.1091 5.38212 35.3355 5.29782 34.4569C5.25929 34.0545 4.90185 33.7588 4.49902 33.7978C4.09619 33.8363 3.80093 34.1941 3.83946 34.5965C3.89859 35.2141 4.06186 35.7814 4.24305 36.2506C3.7399 36.2357 3.2314 36.2708 2.73663 36.3803C2.34143 36.468 2.09233 36.859 2.17969 37.2539C2.26743 37.6491 2.65843 37.8982 3.05325 37.8108C4.16371 37.5648 5.4195 37.8051 6.42467 38.1206C6.2534 39.0613 6.14697 39.9032 6.0825 40.5898C5.98141 41.6594 6.7844 42.6665 7.86357 42.752C8.81229 42.8271 9.72858 42.1477 9.92694 41.2154C9.98569 40.9396 10.062 40.6104 10.1581 40.2389C10.9371 40.935 11.8114 41.9085 12.1711 43.0037C12.2951 43.3822 12.7178 43.5954 13.0954 43.4714C13.4799 43.3452 13.689 42.9313 13.5627 42.5467C13.4048 42.0661 13.1786 41.611 12.9093 41.1841C13.4044 41.101 13.9743 40.9518 14.5343 40.6882C14.9005 40.5162 15.0573 40.0798 14.8853 39.7136C14.7128 39.3474 14.2764 39.1906 13.9106 39.3626C13.113 39.7384 12.2604 39.8097 11.8331 39.8196C11.4322 39.3977 11.0107 39.0231 10.6098 38.7012C11.2438 36.769 12.3077 34.3131 14.0376 32.1052C14.2669 32.455 14.529 32.8204 14.825 33.1905C14.7235 34.0186 14.5419 36.2098 15.1737 37.9619C15.3087 38.3365 15.7375 38.5371 16.1113 38.4025C16.4916 38.2651 16.6892 37.8455 16.5519 37.4652C16.2334 36.5813 16.1704 35.5163 16.1891 34.6583C16.7262 35.1543 17.3332 35.6292 18.0187 36.0526C18.3524 36.2586 18.8148 36.1575 19.0269 35.8138C19.2394 35.4697 19.1325 35.0185 18.7881 34.806C16.9864 33.6936 15.7821 32.1662 15.0363 30.9444C15.3476 30.6152 15.6745 30.2947 16.0217 29.9876C17.8848 28.3393 19.4297 27.2388 20.671 26.3542C20.7874 26.2714 20.9007 26.1905 21.0124 26.1104C21.3969 27.9651 21.873 31.0485 21.873 36.571C21.873 41.7666 21.1841 44.7711 19.6399 46.313C17.9336 48.017 15.0142 48.0124 10.9741 48.0067C7.99556 48.0067 4.8473 47.6153 3.10704 44.8863C2.8896 44.5453 2.4368 44.4449 2.09577 44.6624C1.75473 44.8798 1.65441 45.333 1.87185 45.674C3.5011 48.2287 6.2347 49.4708 10.2287 49.4708C10.7124 49.4708 11.1961 49.4723 11.6798 49.4723C15.7077 49.4723 18.6553 49.3663 20.6752 47.3498C22.5166 45.5107 23.3382 42.1866 23.3382 36.571C23.3382 30.199 22.7142 26.9725 22.3033 25.1518C23.0991 24.5201 23.714 23.9089 24.1393 23.1464C24.3064 22.8473 24.6154 22.6615 24.9457 22.6615H25.0487C25.3795 22.6615 25.6885 22.8473 25.8552 23.1464C26.2805 23.9089 26.8954 24.5201 27.6912 25.1518C27.2807 26.9725 26.6566 30.199 26.6566 36.571C26.6566 42.1866 27.4779 45.5107 29.3197 47.3498C31.3392 49.3666 34.2864 49.4723 38.3147 49.4723C38.7984 49.4723 39.2821 49.4708 39.7658 49.4708C43.3287 49.4708 45.8712 48.4927 47.5378 46.4804C48.976 44.7448 49.7668 42.2515 49.9552 38.8579C50.1444 35.4644 49.7343 31.1652 48.7021 25.7156C47.7149 20.502 46.1043 15.9919 43.9158 12.3104C43.709 11.9625 43.2593 11.8484 42.9118 12.0552C42.5639 12.2619 42.4498 12.7113 42.6562 13.0592C44.7577 16.5935 46.3072 20.9434 47.2628 25.9879C49.2114 36.2765 48.9401 42.4914 46.4098 45.5462C44.5925 47.7397 41.6739 48.0025 39.0208 48.0067C34.9807 48.0124 32.0609 48.017 30.3546 46.313C28.8104 44.7711 28.1219 41.7666 28.1219 36.571C28.1219 31.0485 28.5979 27.9651 28.9824 26.1104C29.0942 26.1905 29.2075 26.2714 29.3239 26.3542C30.926 27.4959 32.4984 28.683 33.9728 29.9876C34.32 30.2947 34.6473 30.6152 34.9582 30.9444C34.2128 32.1658 33.0085 33.6936 31.2064 34.806C30.8623 35.0185 30.7555 35.4697 30.968 35.8138C31.1774 36.1533 31.6367 36.262 31.9758 36.0526C32.6621 35.6292 33.269 35.1535 33.8069 34.6572C33.8256 35.5136 33.7626 36.5779 33.443 37.4648C33.2744 37.9325 33.6356 38.4459 34.1319 38.4459C34.4321 38.4459 34.7133 38.2602 34.8212 37.9619C35.4525 36.2098 35.2713 34.0186 35.1699 33.1905C35.4659 32.82 35.728 32.4546 35.9568 32.1052C37.6872 34.3131 38.7511 36.769 39.3851 38.7012C38.9842 39.0231 38.5627 39.3977 38.1617 39.8196C37.7345 39.8097 36.8823 39.7384 36.0843 39.3626C35.718 39.1906 35.282 39.3477 35.1096 39.7136C34.9376 40.0798 35.0943 40.5162 35.4605 40.6882C36.0205 40.9518 36.5908 41.101 37.0856 41.1841C36.8163 41.611 36.5901 42.0661 36.4322 42.5467C36.3059 42.9313 36.5149 43.3452 36.8994 43.4714C37.2714 43.5935 37.6979 43.3875 37.8237 43.0037C38.1835 41.9085 39.0578 40.935 39.8368 40.2389C39.9329 40.6104 40.0092 40.9396 40.0679 41.2154C40.0679 41.2166 40.0683 41.2173 40.0687 41.2185C40.2671 42.1451 41.1864 42.8264 42.1313 42.752C43.262 42.6627 44.0104 41.5896 43.904 40.5066C43.8387 39.8353 43.7346 39.0243 43.5702 38.1206C44.575 37.8051 45.8312 37.5648 46.9416 37.8108C47.3364 37.8982 47.7274 37.6487 47.8148 37.2539C47.9025 36.859 47.6531 36.468 47.2582 36.3803C46.7635 36.2708 46.255 36.2357 45.7518 36.2506C45.933 35.7814 46.0963 35.2141 46.1554 34.5965C46.1939 34.1941 45.8987 33.8363 45.4958 33.7978C45.0926 33.7588 44.7356 34.0545 44.6971 34.4569C44.6127 35.3374 44.2374 36.1087 44.0283 36.4802C43.7655 36.5401 43.5118 36.608 43.2704 36.6801C43.0548 35.7669 42.7775 34.7949 42.4201 33.8027C42.3533 33.6173 41.5183 31.7271 41.5438 31.7069C42.0405 31.3087 42.5639 30.8429 43.0586 30.3172C43.5588 30.3222 44.6482 30.3962 45.6843 30.8833C46.0383 31.05 46.4869 30.8982 46.6589 30.5324C46.831 30.1666 46.6742 29.7302 46.308 29.5577C45.5603 29.206 44.7978 29.0271 44.1653 28.9375C44.538 28.3794 44.8508 27.7782 45.0602 27.1392C45.1865 26.7551 44.9774 26.3412 44.5929 26.2149C44.2088 26.0886 43.7949 26.2977 43.6686 26.6822C43.1697 28.2016 41.8746 29.5234 40.8488 30.3817C39.8513 28.6517 38.6439 27.2018 37.2397 26.0486C37.7913 25.484 38.4253 24.7772 39.0532 23.952C39.6559 23.7949 41.4569 23.4119 42.9179 23.9936C43.2887 24.1413 43.7216 23.9551 43.8693 23.5839C44.0188 23.2082 43.8357 22.7821 43.4596 22.6325C42.3625 22.1958 41.1627 22.1713 40.206 22.2652C40.9003 21.1219 41.5072 19.8333 41.8791 18.4394C41.9833 18.0488 41.751 17.6471 41.36 17.543C40.9693 17.4388 40.5677 17.6712 40.4635 18.0622C40.1816 19.1192 39.7456 20.1145 39.2363 21.0239C39.1471 20.1721 38.9907 19.2214 38.7168 18.4307C38.5844 18.0484 38.1675 17.8459 37.7848 17.9782C37.4026 18.1106 37.2 18.5276 37.3324 18.9102C37.8112 20.2934 37.8787 22.3716 37.8878 23.0674C37.2729 23.8746 36.6496 24.562 36.1155 25.1026C36.0991 25.0881 36.082 25.0736 36.0656 25.0594C34.6499 23.8357 33.3701 22.5021 32.0498 21.1814C31.4406 20.5196 30.9237 19.9157 30.4908 19.3828C32.45 16.064 32.5618 12.5427 32.2951 10.1269C32.1658 8.95345 32.6419 7.82393 33.5685 7.106C34.8052 6.14737 36.5088 6.16339 37.7124 7.14453C38.9281 8.13559 40.0832 9.36125 41.146 10.7876C41.3874 11.1118 41.8463 11.1789 42.1706 10.9371C42.4952 10.6956 42.5624 10.2367 42.3205 9.91209C41.186 8.38964 39.947 7.07625 38.6382 6.0089C36.9033 4.59479 34.4497 4.56962 32.6709 5.94786C31.338 6.98088 30.6533 8.60327 30.8391 10.2875C31.0668 12.3516 30.9936 15.2992 29.5165 18.1201C29.4608 18.0439 29.407 17.9695 29.3574 17.8997C28.9477 17.3236 28.7311 16.6477 28.7311 15.9446V2.50244C28.7311 1.39198 27.8274 0.488281 26.7169 0.488281H23.2783C22.1679 0.488281 21.2642 1.39198 21.2642 2.50244V15.9446C21.2642 16.6477 21.0475 17.3236 20.6378 17.8997C20.5882 17.9695 20.5344 18.0439 20.4787 18.1201C19.0021 15.2992 18.9285 12.3516 19.1562 10.2875C19.342 8.60327 18.6572 6.98088 17.3244 5.94786C15.5456 4.56962 13.092 4.59479 11.3574 6.0089C9.33032 7.66142 7.51377 9.85067 5.95738 12.5168C3.83069 16.1594 2.26132 20.6001 1.29278 25.7156C-0.177405 33.4754 -0.391027 39.0658 0.638557 42.8058C0.745749 43.1956 1.14896 43.4249 1.5392 43.3173ZM21.8311 18.7488C22.4185 17.9237 22.7286 16.954 22.7286 15.9446V2.50244C22.7286 2.19955 22.9751 1.9535 23.278 1.9535H26.7165C27.0194 1.9535 27.2658 2.19955 27.2658 2.50244V15.9446C27.2658 16.954 27.576 17.9237 28.1631 18.7488C29.4021 20.4902 30.8352 22.0935 32.3451 23.603C33.8725 25.1304 35.6128 26.4247 37.1531 27.9392C41.1986 31.9175 42.2045 38.1049 42.4521 40.713C42.4525 40.7176 42.4529 40.7226 42.4533 40.7271C42.4784 40.993 42.2907 41.2692 42.0146 41.2913C42.0096 41.2917 42.0046 41.2909 41.9997 41.2913C41.7636 41.3028 41.5496 41.1422 41.5003 40.9106C41.3447 40.1786 41.178 39.4237 40.9259 38.7179C39.8925 35.8646 38.7477 33.1737 36.7919 30.8078C34.9315 28.5575 32.5343 26.8432 30.1734 25.1609C29.1011 24.3965 27.7946 23.6164 27.1342 22.433C26.2294 20.8103 23.7662 20.8076 22.8599 22.4327C22.1984 23.6186 20.8972 24.3934 19.8207 25.1609C18.5516 26.065 16.9723 27.1907 15.0512 28.8902C12.3588 31.272 10.5171 34.4936 9.34787 37.8619C9.00188 38.8587 8.71387 39.8784 8.49414 40.9106C8.44379 41.1471 8.22292 41.3108 7.97954 41.2913C7.7026 41.2692 7.51568 40.9923 7.54085 40.7271C7.63736 39.7033 7.85175 38.1206 8.32286 36.3349C8.90422 34.1319 9.77397 31.9804 11.0584 30.0899C11.7816 29.0252 12.6502 28.0284 13.6932 27.1732C15.0623 26.0509 16.3814 24.8664 17.6353 23.6167C19.1516 22.1057 20.589 20.4944 21.8311 18.7488Z" fill="#000D44"/>
</g>
<defs>
<clipPath id="clip0_302_8446">
<rect width="50" height="50" fill="white"/>
</clipPath>
</defs>
</svg>
