<svg width="30" height="30" viewBox="0 0 30 30" fill="none" xmlns="http://www.w3.org/2000/svg">
<path d="M12.7247 21.0938H12.5878C11.0747 21.0938 9.84375 19.8628 9.84375 18.3497C9.84375 17.9255 9.94406 17.5008 10.1339 17.122L10.4114 16.5661C10.6533 16.0828 10.7812 15.5409 10.7812 15C10.7812 14.4591 10.6533 13.9172 10.4114 13.4334L10.1334 12.8775C9.94406 12.4992 9.84375 12.0745 9.84375 11.6503C9.84375 10.1372 11.0747 8.90625 12.5878 8.90625H12.7247C14.2378 8.90625 15.4688 10.1372 15.4688 11.6503C15.4688 12.0745 15.3684 12.4992 15.1786 12.878L14.9011 13.4339C14.6592 13.9172 14.5312 14.4591 14.5312 15C14.5312 15.5409 14.6592 16.0828 14.9011 16.5666L15.1791 17.1225C15.3684 17.5008 15.4688 17.9255 15.4688 18.3497C15.4688 19.8628 14.2378 21.0938 12.7247 21.0938Z" fill="#04CE78"/>
<path d="M9.375 22.0312C5.49797 22.0312 2.34375 18.877 2.34375 15C2.34375 11.123 5.49797 7.96875 9.375 7.96875C10.4184 7.96875 11.3409 8.63344 11.6705 9.62344L11.7656 9.90797L10.6003 11.7239L10.3383 11.7188C8.50313 11.7188 7.03125 13.1906 7.03125 15C7.03125 16.8094 8.50313 18.2812 10.3125 18.2812H10.5684L10.7419 18.4964L11.7656 20.0916L11.6705 20.3766C11.3409 21.3666 10.4184 22.0312 9.375 22.0312Z" fill="#04CE78"/>
<path d="M29.5312 11.7188H23.4347C21.9989 6.83906 17.4412 3.28125 12.1875 3.28125C5.72578 3.28125 0.46875 8.53828 0.46875 15C0.46875 21.4617 5.72578 26.7188 12.1875 26.7188C17.4412 26.7188 21.9989 23.1609 23.4347 18.2812H29.5312V11.7188ZM28.5938 12.6562V13.5938H23.82C23.782 13.2769 23.73 12.9647 23.6667 12.6562H28.5938ZM13.5938 25.6767V20.9503C13.3205 21.0422 13.0284 21.0938 12.7247 21.0938H12.6562V25.7587C12.4997 25.7653 12.3455 25.7812 12.1875 25.7812C6.24281 25.7812 1.40625 20.9447 1.40625 15C1.40625 9.05531 6.24281 4.21875 12.1875 4.21875C12.3455 4.21875 12.4997 4.23469 12.6562 4.24125V8.90625H12.7247C13.0284 8.90625 13.3205 8.95781 13.5938 9.04969V4.32328C18.3619 4.95984 22.2333 8.76703 22.867 13.5938H22.7883C21.6619 13.5938 20.647 12.9248 20.2031 11.8889L19.8113 10.9744C20.3189 10.605 20.625 10.0186 20.625 9.375H19.6875C19.6875 9.71672 19.5183 10.0219 19.2473 10.2169L18.9769 10.0144C18.7627 9.85359 18.5564 9.68437 18.3577 9.50719L18.7406 7.59234L17.8214 7.40812L17.5636 8.69578C17.2889 8.38313 17.0283 8.05734 16.7958 7.70859L16.0158 8.22844C16.6669 9.20484 17.4731 10.0575 18.412 10.762L18.075 10.98C17.6334 11.2744 17.333 11.723 17.2294 12.2428L17.0208 13.2839L16.1967 12.7345L15.6769 13.5145L16.6073 14.1347L16.0744 14.6681L16.7372 15.3309L17.775 14.2931L18.1481 12.4261C18.203 12.1519 18.3614 11.9152 18.5944 11.7595L19.0087 11.4834L19.3406 12.2578C19.9336 13.6392 21.2864 14.5312 22.7887 14.5312H28.5938V15.4688H21.8077C20.9592 15.4688 20.1333 15.6384 19.3528 15.9727C17.8228 16.628 16.6402 17.8402 16.0219 19.3856L15.9708 19.5131L16.8408 19.8614L16.8919 19.7339C17.3442 18.6023 18.1547 17.6831 19.2014 17.0939C19.6073 17.5842 19.9294 18.1472 20.1305 18.7495L20.1797 18.8981L21.0689 18.6019L21.0197 18.4533C20.8102 17.8242 20.4933 17.2275 20.0916 16.6973C20.6447 16.5075 21.2189 16.4062 21.8077 16.4062H22.867C22.2333 21.233 18.3619 25.0402 13.5938 25.6767ZM23.6672 17.3438C23.7305 17.0353 23.782 16.7231 23.8205 16.4062H28.5938V17.3438H23.6672Z" fill="#000D44"/>
</svg>
