<svg width="50" height="50" viewBox="0 0 50 50" fill="none" xmlns="http://www.w3.org/2000/svg">
<path d="M31.1728 9.93015C31.4669 7.41913 31.9595 3.21324 27.0882 1.7978C22.8456 0.562508 21.1286 3.06618 19.9926 4.7206C19.8566 4.91545 19.7316 5.09927 19.6103 5.26471C19.1397 5.90442 18.7941 5.86398 18.272 5.80148C17.75 5.73898 17.0956 5.6581 16.3934 6.36398C16.0147 6.74265 15.7573 7.35663 15.5073 7.95221C15.2095 8.6581 14.875 9.46324 14.4375 9.51471C14.1691 9.55148 13.5478 9.35295 12.3088 7.70221C8.81615 3.0478 3.67277 3.23898 3.47791 3.24633L3.46688 3.61398L3.49262 3.98163C3.54409 3.97795 8.47056 3.80883 11.7206 8.14339C12.886 9.69486 13.7536 10.3419 14.5257 10.2463C15.3897 10.1397 15.7941 9.1728 16.1875 8.2353C16.4081 7.70589 16.636 7.1581 16.9117 6.88236C17.3639 6.43383 17.7095 6.47427 18.1838 6.5331C18.761 6.59927 19.4779 6.68751 20.2022 5.70221C20.3272 5.52942 20.4595 5.33824 20.5992 5.13604C21.6764 3.56618 23.1507 1.41545 26.8823 2.50368C30.8309 3.65074 30.8198 6.63236 30.4448 9.8456C30.2206 11.7243 30.3676 13.9449 30.4926 15.2243L29.4411 14.1728C29.3272 14.0588 29.1544 14.0331 29.011 14.1066L27.8676 14.7059L27.9191 13.5515C27.9264 13.3787 27.8125 13.2206 27.6397 13.1802L26.3676 12.8603L26.5772 12.6765C26.6654 12.5956 26.7095 12.4816 26.6985 12.364C26.6875 12.2463 26.6213 12.1434 26.5184 12.0846L26.2279 11.9118C27.022 11.8456 27.7316 11.5184 28.0551 10.7537L28.1581 10.5074C28.8014 9.00368 29.7757 6.73163 27.4154 5.33089C26.1029 4.55516 24.8125 4.37868 23.772 4.83457C23.1103 5.12501 22.2536 5.81251 21.9044 7.44118C21.6397 8.69486 20.7831 8.66913 19.5036 8.4853C18.7867 8.38604 18.0441 8.27942 17.7794 8.88236C17.7353 8.98163 17.6875 9.1103 17.6323 9.26104C17.3639 9.99633 16.9117 11.2279 15.8639 11.5956C15.0772 11.8713 14.0367 11.6287 12.7757 10.864C12.6507 10.7904 12.4926 10.7941 12.375 10.8787C12.2536 10.9632 12.1985 11.1103 12.2242 11.2537C12.2279 11.2684 12.5257 12.7831 12.1654 13.6434C12.1029 13.7978 12.1507 13.9779 12.2867 14.0809C12.3897 14.1544 14.3603 15.5846 16.9926 15.5846C17.3161 15.5846 17.6544 15.5588 17.9963 15.511C17.7536 15.9375 17.6434 16.3419 17.6544 16.7206C16.0698 16.7132 12.897 16.5074 11.9485 15.5552C11.8566 15.4632 11.7242 15.4265 11.5992 15.4596C11.4706 15.4927 11.3713 15.5882 11.3345 15.7132C11.3272 15.75 10.2757 19.3125 8.17644 21.4154C8.09188 21.5037 8.05144 21.6287 8.07718 21.75C8.08821 21.8052 9.261 27.636 8.00732 31.3199C7.50365 32.8015 7.31615 34.9154 7.1985 36.7904L6.83821 42.5404L6.79409 43.0331C6.65438 44.489 6.43012 46.8566 6.08453 47.7941H5.62497C5.65806 46.6544 5.761 43.2022 5.80512 41.1581C6.06247 38.3934 6.68012 29.0184 6.68747 28.9265C6.6985 28.7684 6.60659 28.625 6.46321 28.5662C6.31982 28.5037 6.15071 28.5441 6.04409 28.6581C5.96688 28.7427 5.66909 28.9963 5.16541 28.6103C4.58821 28.1654 4.04041 24.4338 4.04041 20.9375C4.04041 19.5257 4.76468 18.2206 5.53306 16.8419C6.29041 15.4816 7.0735 14.0772 7.31247 12.3787C7.73894 9.37501 10.3198 9.40074 10.4301 9.4081C10.6176 9.41177 10.772 9.2831 10.8051 9.09927C10.8345 8.91913 10.7279 8.74265 10.5514 8.68751C7.27938 7.66913 3.59188 7.97795 3.45585 7.98898C3.25365 7.98898 3.08821 8.15442 3.08821 8.35663C3.08821 8.55883 3.25365 8.72427 3.45585 8.72427C3.46688 8.72427 3.48894 8.72427 3.49997 8.7206C3.62497 8.70957 6.18012 8.49633 8.86394 9.02207C7.91909 9.43383 6.86027 10.3309 6.58453 12.2757C6.36394 13.8382 5.61394 15.1838 4.88968 16.4853C4.07718 17.9522 3.30512 19.3346 3.30512 20.9375C3.30512 22.7978 3.56615 28.3015 4.71688 29.1912C5.16541 29.5368 5.57718 29.5993 5.91174 29.5331C5.76468 31.7243 5.29041 38.7978 5.06982 41.1066C5.06982 41.114 5.0735 41.1177 5.0735 41.1213C5.0735 41.125 5.06982 41.1287 5.06982 41.136C5.02571 43.1875 4.92277 46.6765 4.886 47.7941H3.31247C3.11027 47.7941 2.94482 47.9596 2.94482 48.1618C2.94482 48.364 3.11027 48.5294 3.31247 48.5294H6.3235C6.45953 48.5294 6.58821 48.4522 6.65071 48.3309C7.07718 47.5221 7.30512 45.3971 7.52571 43.1029L7.93379 36.8382C8.04777 35.011 8.22791 32.9559 8.70218 31.5552C9.90438 28.0257 9.03674 22.8677 8.83453 21.7941C10.5184 20.0257 11.511 17.4963 11.8786 16.4228C13.5 17.4154 16.8786 17.4632 17.8639 17.4559C18.3823 18.2757 20.3603 19.4816 22.9191 20.1507C23.3492 20.2647 23.7794 20.3125 24.2095 20.3125C25.1066 20.3125 26 20.1066 26.9117 19.875C28.0367 19.5846 29.0772 18.7794 29.761 17.6728C30.0367 17.2279 30.2573 16.7316 30.4264 16.1949L30.7169 16.4853C30.7867 16.5552 30.8823 16.5919 30.9742 16.5919C31.0331 16.5919 31.0882 16.5772 31.1397 16.5515C31.2794 16.4816 31.3603 16.3309 31.3382 16.1728C31.3345 16.136 30.8566 12.6066 31.1728 9.93015ZM26.2978 15.364C26.2316 15.489 26.1066 15.5552 25.9779 15.5552C25.9154 15.5552 25.8566 15.5404 25.8014 15.511C25.5992 15.4007 25.4448 15.25 25.3088 15.1177C25.2206 15.0331 25.136 14.9522 25.0514 14.8934C24.8823 14.7684 24.6654 14.7059 24.4559 14.7059C24.3088 15.1654 23.8088 15.5074 23.2095 15.5074C22.4926 15.5074 21.9154 15.0257 21.9154 14.4338C21.9154 13.8382 22.4926 13.3566 23.2095 13.3566C23.7206 13.3566 24.1617 13.6066 24.3713 13.9706C24.7647 13.9522 25.1617 14.0662 25.4853 14.2978C25.6103 14.3897 25.7169 14.489 25.8161 14.5882C25.9338 14.6985 26.0404 14.8052 26.1544 14.8677C26.3272 14.9632 26.397 15.1875 26.2978 15.364ZM18.6911 14.5552C18.6691 14.5809 18.647 14.6066 18.6286 14.6287C15.9889 15.3346 13.6544 14.0772 12.9411 13.6324C13.1029 13.0515 13.0882 12.364 13.0441 11.8566C14.2242 12.4412 15.2536 12.5882 16.1066 12.2904C17.4816 11.8052 18.0257 10.3162 18.3198 9.51471C18.3676 9.37868 18.4117 9.26471 18.4485 9.17648C18.5441 9.0956 19.0772 9.16913 19.397 9.21324C20.4411 9.36398 22.1948 9.6103 22.6213 7.59192C22.8456 6.54413 23.3419 5.82354 24.0625 5.50736C24.8786 5.15074 25.9375 5.31251 27.0367 5.96324C28.7095 6.95589 28.25 8.41545 27.4779 10.2169L27.3713 10.4669C26.8823 11.6287 24.8786 11.0625 24.6507 10.9963C24.6397 10.9927 24.6323 10.9963 24.6213 10.9927C24.5882 10.9853 24.5551 10.9816 24.5184 10.9816C24.511 10.9853 24.5 10.9853 24.4889 10.9853C24.4522 10.9927 24.4154 11.0037 24.3823 11.0221C24.375 11.0257 24.3676 11.0294 24.3603 11.0331C24.3272 11.0515 24.3014 11.0735 24.272 11.1029C24.2684 11.1103 24.261 11.1177 24.2573 11.125C24.2426 11.1397 24.2279 11.1507 24.2206 11.1691C24.2095 11.1875 24.2095 11.2096 24.2022 11.2279C24.1985 11.2316 24.1948 11.2353 24.1948 11.2427C24.1911 11.2463 24.1948 11.2537 24.1911 11.2574C24.1838 11.2941 24.1801 11.3272 24.1838 11.364C24.1838 11.3677 24.1801 11.3677 24.1838 11.3713C23.6985 11.3713 23.2132 11.3971 22.7242 11.5147C20.9595 11.9449 19.6507 13.4559 18.6911 14.5552ZM24.0514 17.9265C24.011 18.0956 23.8603 18.2059 23.6948 18.2059C23.6654 18.2059 23.636 18.2022 23.6066 18.1949C23.4779 18.1618 23.3309 18.1654 23.1728 18.1654C23.0294 18.1691 22.8823 18.1728 22.7279 18.1507C22.3345 18.1029 21.9632 17.9154 21.6911 17.6324C21.5882 17.6618 21.4853 17.6838 21.375 17.6838C21.0514 17.6838 20.7022 17.5478 20.4228 17.2868C20.1838 17.0625 20.022 16.7757 19.9742 16.4816C19.9191 16.1544 20.0036 15.8382 20.2095 15.6177C20.6139 15.1838 21.3676 15.2279 21.8897 15.7132C22.1286 15.9375 22.2904 16.2243 22.3382 16.5221C22.3786 16.7463 22.3456 16.9669 22.2536 17.1544C22.4117 17.2978 22.6103 17.3971 22.8198 17.4228C22.9228 17.4375 23.0367 17.4338 23.1581 17.4302C23.3492 17.4302 23.5661 17.4265 23.7867 17.4816C23.9816 17.5294 24.1029 17.7316 24.0514 17.9265ZM26.7132 18.2647C26.6875 18.2647 26.6617 18.261 26.636 18.261C26.125 18.2353 25.6985 17.9632 25.5073 17.5919C25.1139 17.5919 24.7206 17.4596 24.4117 17.2096C24.2904 17.1103 24.1875 17.0037 24.0919 16.9007C23.9816 16.7868 23.8786 16.6765 23.7684 16.6066C23.5956 16.5 23.5441 16.2757 23.6507 16.1029C23.7573 15.9302 23.9816 15.875 24.1544 15.9816C24.3492 16.1029 24.4963 16.2574 24.6286 16.3971C24.7095 16.4853 24.7904 16.5699 24.8713 16.636C25.0367 16.7684 25.2463 16.8419 25.4559 16.8529C25.625 16.4007 26.1434 16.0809 26.7426 16.114C27.0698 16.1287 27.3786 16.2427 27.6066 16.4375C27.8603 16.6544 27.9963 16.9485 27.9816 17.25C27.9559 17.8199 27.3934 18.2647 26.7132 18.2647Z" fill="#000D44"/>
<path d="M42.6541 44.8751C42.6394 44.956 42.6211 45.0332 42.61 45.1141C42.5806 45.2905 42.4225 45.4192 42.2461 45.4192C42.2277 45.4192 42.2056 45.4192 42.1872 45.4155C41.985 45.3825 41.849 45.1913 41.8821 44.9927C41.8968 44.9045 41.9152 44.8163 41.9336 44.7317C41.9813 44.4891 42.0291 44.2575 41.9887 44.0626C41.9262 43.7758 41.6725 43.5332 41.4041 43.2722C41.3527 43.2207 41.2975 43.1692 41.2461 43.1177C40.8674 42.7427 40.6615 42.3714 40.6211 42.0148C40.4005 41.9817 40.1799 41.8861 39.9777 41.7354C39.6541 41.4854 39.4005 41.1067 39.2681 40.6692C39.1358 40.2317 39.1321 39.7758 39.2644 39.3898C39.4078 38.967 39.7056 38.6582 40.0806 38.5442C40.4519 38.4302 40.8711 38.5222 41.2277 38.7942C41.5512 39.0405 41.8049 39.4192 41.9372 39.8567C42.0733 40.2942 42.0733 40.7501 41.9409 41.1361C41.8269 41.4707 41.6174 41.728 41.3527 41.8788C41.3527 42.081 41.485 42.32 41.7681 42.5994L41.9152 42.7427C42.235 43.0516 42.599 43.4045 42.7056 43.9082C42.7791 44.2538 42.713 44.5847 42.6541 44.8751Z" fill="#04CE78"/>
<path d="M46.6876 13.6619H36.7611C36.5589 13.6619 36.3934 13.8236 36.3934 14.0295V19.092C36.3934 19.2942 36.5589 19.4597 36.7611 19.4597H37.4118V24.7501C34.8567 22.2538 31.4118 20.831 27.8162 20.831C20.2574 20.831 14.1104 26.9817 14.1104 34.5405C14.1104 42.0957 20.2574 48.2427 27.8162 48.2427C31.4118 48.2427 34.8567 46.8236 37.4118 44.32C37.4449 46.6472 39.342 48.5295 41.6765 48.5295H41.7758C44.1287 48.5295 46.0405 46.6178 46.0405 44.2648V19.4597H46.6876C46.8934 19.4597 47.0552 19.2942 47.0552 19.092V14.0295C47.0552 13.8236 46.8971 13.6619 46.6876 13.6619ZM37.4155 39.5442C35.5405 43.1361 31.8751 45.3641 27.8199 45.3641C21.853 45.3641 16.9964 40.5075 16.9964 34.5405C16.9964 28.57 21.853 23.7133 27.8199 23.7133C31.8751 23.7133 35.5405 25.9413 37.4155 29.5332V39.5442ZM45.3089 44.2648C45.3089 46.2097 43.728 47.7942 41.7795 47.7942H41.6802C39.7317 47.7942 38.1508 46.2097 38.1508 44.2648V26.3714H45.3089V44.2648ZM45.3089 25.6361H38.1508V19.4597H45.3089V25.6361Z" fill="#000D44"/>
<path d="M43.5626 37.8236C43.3678 37.9596 43.1362 38.0258 42.8899 38.0258C42.7281 38.0258 42.5626 37.9964 42.3935 37.9376C42.0075 37.8015 41.6546 37.5184 41.3935 37.1398C40.8788 36.4008 40.8715 35.5331 41.331 35.0368C41.2722 34.8456 41.07 34.6581 40.7207 34.478L40.5332 34.3861C40.1325 34.1876 39.6803 33.967 39.4229 33.5148C39.2465 33.2096 39.2097 32.8751 39.1803 32.5773C39.1693 32.5001 39.1619 32.4192 39.1509 32.342C39.1215 32.1398 39.2612 31.9523 39.4597 31.9229C39.6619 31.8934 39.8494 32.0331 39.8788 32.2354C39.8899 32.3199 39.9009 32.4081 39.9119 32.4964C39.9376 32.7464 39.9634 32.978 40.0627 33.1508C40.206 33.4045 40.5222 33.5626 40.8568 33.7243L41.0553 33.8236C41.5296 34.0699 41.8421 34.3567 41.9891 34.6839C42.57 34.592 43.2428 34.9081 43.6877 35.5515C44.2649 36.3824 44.206 37.3787 43.5626 37.8236Z" fill="#04CE78"/>
<path d="M44.1912 32.9633C44.2206 33.1655 44.0845 33.353 43.8823 33.3824C43.864 33.3861 43.8456 33.386 43.8272 33.386C43.6507 33.386 43.4926 33.2537 43.4669 33.0699C43.4522 32.9853 43.4412 32.8971 43.4338 32.8052C43.4044 32.5588 43.3787 32.3272 43.2794 32.1544C43.136 31.9008 42.8198 31.7463 42.4853 31.5809C42.4191 31.5478 42.3529 31.5147 42.2868 31.4816C41.8125 31.239 41.5037 30.9522 41.3566 30.625C41.2868 30.6361 41.2206 30.6434 41.1544 30.6434C40.625 30.6434 40.0515 30.3236 39.6544 29.7537C39.3934 29.375 39.2537 28.9412 39.261 28.5331C39.272 28.0883 39.4595 27.7022 39.7794 27.4816C40.0993 27.2574 40.5257 27.2169 40.9485 27.3677C41.3345 27.5037 41.6912 27.7868 41.9522 28.1655C42.4632 28.9044 42.4706 29.7758 42.011 30.2721C42.0735 30.4596 42.272 30.6471 42.625 30.8272L42.8088 30.9191C43.2095 31.1177 43.6618 31.3383 43.9191 31.7905C44.0956 32.0956 44.1323 32.4302 44.1618 32.728C44.1728 32.8052 44.1801 32.8861 44.1912 32.9633Z" fill="#04CE78"/>
<path d="M26.8126 39.9854C26.8126 40.5773 26.5883 41.0663 26.1729 41.3678C25.9192 41.5516 25.6141 41.6398 25.2905 41.6398C24.5994 41.6398 23.831 41.228 23.3016 40.5001C22.9413 40.0001 22.7427 39.4266 22.7391 38.8788C22.7391 38.3751 22.9045 37.945 23.206 37.6472C23.1324 37.3089 22.8016 36.9964 22.217 36.7133C22.1288 36.6692 22.0405 36.6288 21.9486 36.5883C21.4008 36.331 20.7758 36.0405 20.4229 35.4523C20.1839 35.0516 20.1251 34.6178 20.0699 34.195C20.0552 34.081 20.0405 33.967 20.0222 33.853C19.9891 33.6545 20.1214 33.4633 20.3236 33.4303C20.5222 33.3972 20.7133 33.5332 20.7464 33.7317C20.7685 33.853 20.7832 33.9744 20.7979 34.0994C20.8457 34.4633 20.8935 34.8053 21.0516 35.0736C21.2905 35.4707 21.7611 35.6876 22.2611 35.9192C22.353 35.9633 22.4486 36.0075 22.5405 36.0516C23.2354 36.3935 23.6766 36.8016 23.8604 37.2722C24.1729 37.1913 24.5258 37.206 24.8861 37.3273C25.4045 37.5001 25.8861 37.8678 26.2501 38.3678C26.6104 38.8641 26.8089 39.4413 26.8126 39.9854Z" fill="#04CE78"/>
<path d="M31.7316 42.5663C31.6948 42.6765 31.6617 42.7832 31.6286 42.8898C31.5809 43.0516 31.4338 43.1545 31.2757 43.1545C31.2426 43.1545 31.2059 43.1508 31.1728 43.1398C30.9779 43.0846 30.8639 42.8788 30.9228 42.6839C30.9559 42.5663 30.9963 42.4523 31.0331 42.3346C31.1507 41.9854 31.261 41.6545 31.2316 41.342C31.1911 40.8861 30.8639 40.4817 30.5147 40.0552C30.4522 39.9743 30.386 39.8971 30.3235 39.8163C29.8419 39.206 29.625 38.6435 29.6654 38.1398C29.3456 38.0773 29.0404 37.9118 28.7647 37.6435C28.375 37.2648 28.0992 36.7207 27.9926 36.1141C27.9595 35.9339 27.9448 35.7538 27.9448 35.5773C27.9448 34.5038 28.522 33.5957 29.3676 33.4486C30.3566 33.2721 31.3456 34.1839 31.5772 35.4817C31.7867 36.6802 31.2757 37.7905 30.4154 38.0883C30.3382 38.4229 30.5 38.8493 30.9007 39.3604C30.9595 39.4376 31.022 39.5148 31.0882 39.592C31.4706 40.0626 31.9044 40.5957 31.9632 41.2795C32.0073 41.7427 31.8713 42.1618 31.7316 42.5663Z" fill="#04CE78"/>
<path d="M29.1065 31.0772C29.0109 32.0036 28.0623 32.6544 26.8859 32.6544C26.7756 32.6544 26.6616 32.6507 26.544 32.636C25.9337 32.5735 25.3712 32.3382 24.9631 31.9742C24.5881 31.6397 24.3785 31.2316 24.3565 30.8014C24.0587 30.636 23.6028 30.6728 23.0035 30.9191C22.9116 30.9559 22.8197 30.9926 22.7278 31.0331C22.2719 31.2279 21.7609 31.4448 21.2241 31.4448C21.1065 31.4448 20.9851 31.4338 20.8638 31.4117C20.4079 31.3235 20.044 31.0735 19.691 30.8309C19.5991 30.7684 19.5035 30.7022 19.4079 30.6434C19.2351 30.5331 19.1837 30.3051 19.294 30.136C19.4042 29.9632 19.6285 29.9117 19.8013 30.022C19.9042 30.0882 20.0072 30.1544 20.1065 30.2242C20.4116 30.4338 20.6984 30.6287 21.0035 30.6875C21.4557 30.7757 21.9337 30.5735 22.441 30.3566C22.5366 30.3162 22.6285 30.2757 22.7241 30.2353C23.4447 29.9448 24.044 29.8897 24.5145 30.0661C24.6653 29.7794 24.9116 29.5294 25.2388 29.3419C25.7131 29.0698 26.3123 28.9559 26.9263 29.022C27.5366 29.0845 28.0991 29.3198 28.5072 29.6838C28.9484 30.0772 29.1579 30.5735 29.1065 31.0772Z" fill="#04CE78"/>
<path d="M35.6579 34.6471C35.4079 34.8199 35.1138 34.9081 34.7977 34.9081C34.5881 34.9081 34.3675 34.8677 34.1432 34.7868C33.6285 34.603 33.1543 34.2243 32.8013 33.7169C32.0991 32.7022 32.1065 31.511 32.7719 30.875C32.7057 30.5331 32.3822 30.2096 31.7977 29.9118C31.7094 29.8677 31.6212 29.8235 31.5329 29.7794C30.9888 29.511 30.3712 29.2059 30.0293 28.6103C29.7977 28.2059 29.7499 27.7684 29.7057 27.3456C29.691 27.2316 29.68 27.1177 29.6616 27.0074C29.6322 26.8052 29.7719 26.6177 29.9741 26.5883C30.1763 26.5552 30.3602 26.6985 30.3896 26.9008C30.4079 27.0184 30.4227 27.1434 30.4374 27.2647C30.4741 27.6287 30.5146 27.9743 30.669 28.2463C30.8969 28.6471 31.3638 28.875 31.8565 29.1177C31.9521 29.1655 32.044 29.2096 32.1322 29.2574C32.8234 29.6103 33.2572 30.0294 33.43 30.5074C34.2131 30.3272 35.18 30.7647 35.794 31.6471C36.555 32.75 36.4999 34.0662 35.6579 34.6471Z" fill="#04CE78"/>
</svg>
