<svg width="50" height="50" viewBox="0 0 50 50" fill="none" xmlns="http://www.w3.org/2000/svg">
<g clip-path="url(#clip0_127_7087)">
<path d="M29.6615 15.2839C29.961 15.2339 30.2685 15.208 30.582 15.208C33.6456 15.208 36.129 17.6914 36.129 20.7549C36.129 21.3325 36.0405 21.8894 35.8768 22.4132C35.8768 22.4132 34.6454 25.1022 34.2693 25.3871C33.8932 25.6721 28.841 26.7368 27.2236 24.8786C25.6065 23.0201 24.4537 19.8535 24.4537 19.8535L29.6615 15.2839Z" fill="#04CE78"/>
<path d="M19.8951 12.1937V18.0877L20.8652 18.1964L24.7425 10.8391L31.6158 8.10697C31.2316 7.29979 30.7704 6.5666 30.2471 5.92383C29.3682 5.48018 28.4168 5.23718 27.4234 5.23718C23.9967 5.23718 21.0682 8.12261 19.8951 12.1937Z" fill="#04CE78"/>
<path d="M36.5924 11.866C36.5924 11.2778 36.5924 10.6834 36.5924 10.1475C32.5324 10.3187 24.4102 11.6554 23.7865 19.5572L27.5783 21.2436C27.5783 21.2436 27.4612 11.5555 36.5924 11.866Z" fill="#1F5FFF"/>
<path d="M17.2085 16.6111V7.24869C17.2085 6.56242 16.6519 6.00586 15.9657 6.00586H15.2199C14.8285 6.21529 14.5623 6.62727 14.5623 7.1022V17.1856L17.2085 16.6111Z" fill="#1F5FFF"/>
<path d="M39.4821 27.1262C38.7276 25.4379 37.4359 24.1172 35.8803 23.3146C35.8303 23.3253 35.7811 23.3356 35.7308 23.347C35.7308 23.347 35.6312 23.2475 35.3981 23.0876C33.9607 22.4647 32.3342 22.2675 30.7141 22.6074C30.6294 22.6253 30.5439 22.644 30.4573 22.6634C30.4573 22.6634 28.7453 20.9514 22.8955 20.3094C21.6187 19.0914 20.3587 18.1667 19.1308 17.546C17.902 17.9153 16.7454 18.695 15.6846 19.905C12.2605 23.8105 13.2233 30.7662 14.8999 33.5483C15.828 36.0145 16.1164 37.7582 18.6497 40.7359C22.1138 44.8085 26.812 47.6405 32.0156 48.8688L32.367 48.952C33.7757 48.7693 35.1231 48.236 36.2797 47.391L36.94 46.9088C39.7965 44.8222 41.5894 41.5847 41.843 38.0565C42.0723 34.8628 41.5089 31.6619 40.2023 28.7387L39.4821 27.1262Z" fill="#04CE78"/>
<path d="M39.925 30.6328C39.9261 30.6351 39.9273 30.6373 39.928 30.6392C40.094 31.0108 40.4461 31.2286 40.8195 31.2286C40.953 31.2286 41.0892 31.2008 41.2204 31.1424C41.7202 30.9204 41.9361 30.3509 41.7125 29.8458C41.4894 29.3407 40.9225 29.1176 40.422 29.3377C39.9215 29.5582 39.7033 30.1269 39.925 30.6328Z" fill="#000D44"/>
<path d="M42.6192 33.4789C42.5353 32.9463 42.0352 32.5824 41.5023 32.6671C40.9698 32.751 40.6062 33.2511 40.6905 33.784C40.9095 35.1714 40.9698 36.5855 40.8691 37.9867C40.6356 41.2349 38.9938 44.1993 36.3643 46.1204L35.704 46.6025C34.4104 47.5474 32.8803 48.0468 31.2785 48.0468C30.6987 48.0468 30.1185 47.9793 29.5547 47.8461L26.9668 47.235C21.965 46.054 17.4026 43.2784 14.1201 39.4199C12.661 37.7044 12.0029 36.4566 11.4975 35.1714C11.5379 35.041 11.5524 34.9002 11.5333 34.7556C11.528 34.7137 11.0473 30.4958 16.9956 27.7881C21.075 25.9311 22.9835 22.7554 23.6476 21.3863C28.12 22.0035 29.6592 23.2624 29.7737 23.3612C30.0098 23.6114 30.3356 23.6923 30.6728 23.616C30.754 23.5977 30.8345 23.5801 30.9146 23.5633C34.0438 22.9064 37.2714 24.5731 38.5905 27.5245C38.8107 28.017 39.3882 28.2379 39.8807 28.0178C40.3731 27.7976 40.5936 27.2201 40.3739 26.7276C39.6266 25.0564 38.3701 23.6492 36.8057 22.7142C36.8064 22.7108 36.8079 22.7077 36.8091 22.7043C37.0059 22.0752 37.1055 21.4191 37.1055 20.7546C37.1055 20.6215 37.1001 20.4895 37.0925 20.3582H37.77C38.309 20.3582 38.7466 19.9211 38.7466 19.3817C38.7466 18.8423 38.309 18.4051 37.77 18.4051H36.666C36.415 17.7574 36.0645 17.1589 35.6315 16.6298L36.0736 16.1876C36.4551 15.8062 36.4551 15.1878 36.0736 14.8063C35.6921 14.4252 35.0742 14.4252 34.6927 14.8063L34.1815 15.3175C33.3896 14.7918 32.4767 14.4344 31.4941 14.2963C32.788 13.2614 34.4878 12.7712 36.5592 12.8418C36.8236 12.8517 37.0807 12.7517 37.2714 12.5679C37.4618 12.384 37.569 12.1307 37.569 11.866V8.14589C37.569 7.63777 37.1795 7.21472 36.6729 7.17276C36.5146 7.15979 34.6858 7.02056 32.3081 7.30666C31.245 5.24939 29.7485 3.72123 28.0273 2.87284L28.7185 1.84097C29.0187 1.39274 28.8986 0.786208 28.4503 0.486373C28.0025 0.186157 27.396 0.305938 27.0957 0.754164L26.1062 2.23159C25.6843 2.15377 25.2544 2.11219 24.8191 2.11219C24.5681 2.11219 24.3183 2.12631 24.0707 2.15263V0.976561C24.0707 0.437163 23.6335 0 23.0941 0C22.5547 0 22.1176 0.437163 22.1176 0.976561V2.64663C21.2013 3.01971 20.3334 3.58314 19.5407 4.32929C18.9476 4.88738 18.4139 5.53283 17.9458 6.24884C17.5796 5.52634 16.8296 5.02929 15.9656 5.02929H13.3148C12.091 5.02929 11.0954 6.02492 11.0954 7.24867V17.2313C10.6041 17.6132 10.1303 18.0606 9.6771 18.5775C7.5363 21.0193 7.1102 24.2191 7.12965 26.4732C7.15178 29.0229 7.76823 31.6223 8.7425 33.2889C8.88975 33.6833 9.02212 34.0637 9.15068 34.4325C9.80718 36.3147 10.4271 38.0927 12.6323 40.6852C16.1827 44.8588 21.1139 47.8599 26.5182 49.1359L29.1057 49.747C29.8168 49.9148 30.5477 49.9999 31.2785 49.9999C33.2973 49.9999 35.226 49.3705 36.8556 48.1799L37.5159 47.6977C40.6104 45.4371 42.5426 41.949 42.8172 38.1267C42.9286 36.5772 42.8619 35.0135 42.6192 33.4789ZM30.7021 21.6144C30.3085 21.3405 29.6375 20.9503 28.5888 20.5589C28.6697 19.6189 28.9424 17.8478 29.8595 16.2418C30.0971 16.2044 30.3398 16.1846 30.582 16.1846C33.102 16.1846 35.1524 18.235 35.1524 20.755C35.1524 21.1429 35.1032 21.5259 35.0078 21.8971C33.6215 21.4477 32.1369 21.3466 30.7021 21.6144ZM35.6158 9.08735V10.894C33.1966 10.9989 31.2007 11.8068 29.6726 13.3014C27.5264 15.4014 26.8791 18.3185 26.6849 19.976C25.7507 19.7429 24.6414 19.5327 23.3287 19.376C23.0319 19.1009 22.7363 18.8415 22.4418 18.5966C22.4433 18.573 22.4453 18.5497 22.4453 18.5257C22.4453 15.9027 23.2929 13.7909 24.9641 12.2494C28.1425 9.31776 33.501 9.06675 35.6158 9.08735ZM24.8191 4.06531C25.3086 4.06531 25.7907 4.13741 26.2599 4.27436C26.2603 4.27436 26.2611 4.27474 26.2615 4.27474C27.8179 4.72945 29.2278 5.91086 30.2635 7.64655C27.9933 8.13597 25.5371 9.06637 23.6457 10.8082C21.8448 12.4664 20.8087 14.6209 20.5547 17.2252C19.7555 16.7293 18.9647 16.3482 18.185 16.0839V10.437C18.2018 10.3977 18.2174 10.3576 18.2296 10.3157C19.3065 6.57729 21.9547 4.06531 24.8191 4.06531ZM13.0485 7.24867C13.0485 7.10181 13.1679 6.98241 13.3148 6.98241H15.9656C16.1125 6.98241 16.2319 7.10181 16.2319 7.24867V15.6635C15.9046 15.6349 15.58 15.6273 15.2572 15.6418C14.4931 15.6757 13.7562 15.8321 13.0485 16.1075V7.24867ZM11.1458 19.8654C12.408 18.4253 13.8206 17.6609 15.3442 17.593C17.287 17.506 19.5224 18.5619 21.828 20.6508C21.2318 21.8208 19.5728 24.4689 16.1865 26.0105C12.4492 27.7114 10.8539 30.0193 10.1734 31.6554C10.1619 31.6833 10.1513 31.7104 10.1398 31.7378C8.90539 29.0031 8.24163 23.1777 11.1458 19.8654Z" fill="#000D44"/>
<path d="M19.5137 39.2742C19.0987 38.9297 18.483 38.9873 18.1385 39.4023C17.7944 39.8174 17.8517 40.4331 18.2667 40.7772C20.9084 42.9691 24.0723 44.5445 27.4158 45.3342C27.4914 45.3521 27.5669 45.3605 27.6413 45.3605C28.0838 45.3605 28.4847 45.0576 28.5908 44.6083C28.7147 44.0834 28.3897 43.5573 27.8648 43.4333C24.8127 42.7127 21.925 41.2742 19.5137 39.2742Z" fill="#000D44"/>
<path d="M15.7097 36.7809C15.3019 37.1341 15.2557 37.7479 15.6086 38.1553C15.802 38.3872 16.0797 38.5066 16.3597 38.5066C16.5802 38.5066 16.8018 38.4326 16.9842 38.2804C17.3984 37.9352 17.4545 37.3195 17.1093 36.9052L17.0894 36.8819C16.7362 36.4742 16.1171 36.4276 15.7097 36.7809Z" fill="#000D44"/>
</g>
<defs>
<clipPath id="clip0_127_7087">
<rect width="50" height="50" fill="white"/>
</clipPath>
</defs>
</svg>
