<svg width="44" height="44" viewBox="0 0 44 44" fill="none" xmlns="http://www.w3.org/2000/svg">
<g clip-path="url(#clip0_302_8453)">
<path d="M42.3076 4.23154H39.7692V1.69312H36.3846V4.23154H33.8462V7.6161H36.3846V10.1545H39.7692V7.6161H42.3076V4.23154Z" fill="#04CE78"/>
<path d="M39.7691 11.0006H36.3846C35.9173 11.0006 35.5384 10.6218 35.5384 10.1545V8.46219H33.8461C33.3789 8.46219 33 8.08333 33 7.61605V4.23149C33 3.76421 33.3789 3.38535 33.8461 3.38535H35.5384V1.69306C35.5384 1.22579 35.9173 0.846924 36.3846 0.846924H39.7691C40.2364 0.846924 40.6153 1.22579 40.6153 1.69306V3.38535H42.3076C42.7748 3.38535 43.1537 3.76421 43.1537 4.23149V7.61605C43.1537 8.08333 42.7748 8.46219 42.3076 8.46219H40.6153V10.1545C40.6153 10.6218 40.2364 11.0006 39.7691 11.0006ZM37.2307 9.30833H38.923V7.61605C38.923 7.14877 39.3018 6.76991 39.7691 6.76991H41.4614V5.07763H39.7691C39.3018 5.07763 38.923 4.69877 38.923 4.23149V2.53921H37.2307V4.23149C37.2307 4.69877 36.8518 5.07763 36.3846 5.07763H34.6923V6.76991H36.3846C36.8518 6.76991 37.2307 7.14877 37.2307 7.61605V9.30833Z" fill="#000D44"/>
<path d="M7.08697 25.1735H0.84668V0.846924C4.61961 2.38138 7.08697 6.04896 7.08697 10.1222V25.1735Z" fill="#04CE78"/>
<path d="M7.08741 26.0197H0.847119C0.379841 26.0197 0.000977474 25.6408 0.000977474 25.1736V0.847005C0.000564319 0.565234 0.140624 0.301641 0.374469 0.144229C0.608315 -0.0131827 0.90496 -0.0437561 1.16607 0.0624246C5.26622 1.71752 7.94636 5.70075 7.9352 10.1223V25.1736C7.9352 25.3979 7.84596 25.6136 7.6869 25.7722C7.52783 25.9309 7.31217 26.0201 7.08741 26.0197ZM1.69326 24.3274H6.24127V10.1223C6.2516 6.85841 4.51717 3.83742 1.69326 2.2005V24.3274Z" fill="#000D44"/>
<path d="M0.84668 25.385H5.92353V43.154H0.84668V25.385Z" fill="#1F5FFF"/>
<path d="M5.92396 44.0002H0.847118C0.37984 44.0002 0.000976562 43.6213 0.000976562 43.154V25.3851C0.000976562 24.9178 0.37984 24.5389 0.847118 24.5389H5.92396C6.39124 24.5389 6.77011 24.9178 6.77011 25.3851V43.154C6.77011 43.6213 6.39124 44.0002 5.92396 44.0002ZM1.69326 42.3079H5.07782V26.2312H1.69326V42.3079Z" fill="#000D44"/>
<path d="M17.7695 38.5002C17.7695 41.0704 15.6859 43.154 13.1157 43.154C10.5455 43.154 8.46191 41.0704 8.46191 38.5002C8.46191 35.93 10.5455 33.8464 13.1157 33.8464C15.6859 33.8464 17.7695 35.93 17.7695 38.5002Z" fill="#1F5FFF"/>
<path d="M13.1161 44.0002C10.0786 44.0002 7.61621 41.5378 7.61621 38.5003C7.61621 35.4628 10.0786 33.0004 13.1161 33.0004C16.1536 33.0004 18.616 35.4628 18.616 38.5003C18.6123 41.5361 16.152 43.9965 13.1161 44.0002ZM13.1161 34.6926C11.0132 34.6926 9.30849 36.3973 9.30849 38.5003C9.30849 40.6028 11.0132 42.3079 13.1161 42.3079C15.2191 42.3079 16.9238 40.6028 16.9238 38.5003C16.9213 36.3982 15.2178 34.6947 13.1161 34.6926Z" fill="#000D44"/>
<path d="M17.7695 38.9233C17.3022 38.9233 16.9233 38.5444 16.9233 38.0771V6.76992C16.9233 6.54516 17.0126 6.33032 17.1712 6.17167L19.7097 3.63324C20.0414 3.31264 20.5694 3.31718 20.8958 3.64357C21.2222 3.96997 21.2268 4.49757 20.9062 4.82974L18.6156 7.11986V38.0771C18.6156 38.5444 18.2368 38.9233 17.7695 38.9233Z" fill="#000D44"/>
<path d="M32.1542 38.5002C32.1542 41.0704 30.0707 43.154 27.5005 43.154C24.9302 43.154 22.8467 41.0704 22.8467 38.5002C22.8467 35.93 24.9302 33.8464 27.5005 33.8464C30.0707 33.8464 32.1542 35.93 32.1542 38.5002Z" fill="#1F5FFF"/>
<path d="M27.5004 44.0002C24.4629 44.0002 22.0005 41.5378 22.0005 38.5003C22.0005 35.4628 24.4629 33.0004 27.5004 33.0004C30.5379 33.0004 33.0003 35.4628 33.0003 38.5003C32.9966 41.5361 30.5363 43.9965 27.5004 44.0002ZM27.5004 34.6926C25.3974 34.6926 23.6928 36.3973 23.6928 38.5003C23.6928 40.6028 25.3974 42.3079 27.5004 42.3079C29.6034 42.3079 31.308 40.6028 31.308 38.5003C31.3056 36.3982 29.6021 34.6947 27.5004 34.6926Z" fill="#000D44"/>
<path d="M22.8463 38.9233C22.3791 38.9233 22.0002 38.5444 22.0002 38.0771V7.11986L19.7097 4.82974C19.3891 4.49757 19.3936 3.96997 19.72 3.64357C20.0464 3.31718 20.574 3.31264 20.9062 3.63324L23.4446 6.17167C23.6032 6.33032 23.6925 6.54516 23.6925 6.76992V38.0771C23.6925 38.5444 23.3136 38.9233 22.8463 38.9233Z" fill="#000D44"/>
<path d="M30.4619 15.2313L43.154 22.0005V43.154H38.9233V24.5389L30.4619 15.2313Z" fill="#04CE78"/>
<path d="M43.154 44.0002H38.9233C38.456 44.0002 38.0771 43.6213 38.0771 43.1541V24.8662L29.8355 15.8007C29.5571 15.4962 29.5389 15.0356 29.7921 14.71C30.0454 14.384 30.497 14.289 30.8602 14.484L43.5523 21.2531C43.8283 21.4006 44.0001 21.6878 44.0001 22.0005V43.1541C44.0001 43.6213 43.6213 44.0002 43.154 44.0002ZM39.7694 42.3079H42.3078V22.5079L34.3736 18.2772L39.5492 23.9692C39.6909 24.125 39.7694 24.3282 39.7694 24.539V42.3079Z" fill="#000D44"/>
<path d="M22.8464 25.3851H17.7695V6.76999L20.308 4.23157L22.8464 6.76999V25.3851Z" fill="#04CE78"/>
<path d="M22.8463 26.2312H17.7695C17.3022 26.2312 16.9233 25.8523 16.9233 25.385V6.76994C16.9233 6.54518 17.0126 6.33034 17.1712 6.17169L19.7097 3.63327C20.0402 3.30275 20.5756 3.30275 20.9062 3.63327L23.4446 6.17169C23.6032 6.33034 23.6925 6.54518 23.6925 6.76994V25.385C23.6925 25.8523 23.3136 26.2312 22.8463 26.2312ZM18.6156 24.5389H22.0002V7.11988L20.3079 5.4276L18.6156 7.11988V24.5389Z" fill="#000D44"/>
</g>
<defs>
<clipPath id="clip0_302_8453">
<rect width="44" height="44" fill="white"/>
</clipPath>
</defs>
</svg>
