<svg width="50" height="50" viewBox="0 0 50 50" fill="none" xmlns="http://www.w3.org/2000/svg">
<path d="M2.50733 34.3927C3.09992 32.0298 4.29252 29.8112 5.44066 27.6631C5.44066 27.6631 8.21474 22.3187 8.65548 19.652C9.28141 15.8631 8.24437 12.0964 7.24437 8.45569C6.82215 6.91866 6.38511 5.32977 6.0777 3.7594C6.03696 3.5594 5.84066 3.42607 5.64437 3.46681C5.44437 3.50755 5.31103 3.70014 5.35178 3.90014C5.66289 5.49644 6.10363 7.10014 6.52955 8.65199C7.55177 12.3779 8.52215 15.9001 7.92215 19.5298C7.49992 22.0853 4.78511 27.3112 4.78511 27.3112C3.61474 29.4964 2.39992 31.7557 1.78511 34.2075C1.19622 36.5483 0.836961 39.8668 2.46289 42.4001C2.53326 42.5112 2.65178 42.5705 2.774 42.5705C2.84066 42.5705 2.91103 42.552 2.974 42.5112C3.14437 42.4001 3.19622 42.1705 3.08511 42.0001C1.52955 39.5742 2.05548 36.1927 2.50733 34.3927Z" fill="#000D44"/>
<path d="M30.1815 33.4667C30.0222 33.5741 29.6889 33.7408 29.5074 33.7741C29.1148 33.8482 28.9407 33.2927 29.3592 33.0667C29.5259 32.9778 29.6815 32.9112 29.8037 32.8297C32.5111 31.0445 35.7185 25.9445 35.4074 21.1186C35.0703 15.8519 32.137 11.5038 29.7333 8.78155C29.0333 7.98896 25.6222 3.96304 24.4629 2.79266C24.3185 2.64822 24.3222 2.41118 24.4666 2.27044C24.6111 2.126 24.8444 2.126 24.9889 2.27044C26.1704 3.46304 29.5926 7.50378 30.2889 8.29266C32.7666 11.1001 35.7963 15.5964 36.1481 21.0704C36.4741 26.1667 33.0444 31.563 30.1815 33.4667Z" fill="#000D44"/>
<path d="M40.6779 44.3445C40.6076 44.2741 40.515 44.2371 40.4187 44.2371C40.4187 44.2371 40.4187 44.2371 40.415 44.2371L4.90016 44.2926C4.80016 44.2926 4.52979 44.3704 4.52979 44.663L4.53349 47.4704C4.53349 47.6778 4.70016 47.8408 4.90386 47.8408C4.90386 47.8408 4.90386 47.8408 4.90756 47.8408L40.4224 47.7852C40.6261 47.7852 40.7927 47.6185 40.7927 47.4148L40.789 44.6074C40.789 44.5074 40.7483 44.4148 40.6779 44.3445ZM14.9224 47.0852L14.9187 45.0185L19.7002 45.0111L19.7039 47.0778L14.9224 47.0852ZM21.3853 47.0741L20.4446 47.0778L20.4409 45.0074H21.3853V47.0741ZM22.1261 47.0741V45.0074L26.2631 45L26.2668 47.0667L22.1261 47.0741Z" fill="#000D44"/>
<path d="M4.85202 43.6963C4.91498 43.737 4.98535 43.7592 5.05943 43.7592C5.08165 43.7592 5.10757 43.7555 5.1298 43.7518L39.9742 36.8667C40.0705 36.8481 40.1557 36.7926 40.2076 36.7111C40.2631 36.6296 40.2853 36.5296 40.2631 36.4296L39.7187 33.6741C39.6816 33.4741 39.4853 33.3444 39.2854 33.3852L4.44091 40.2704C4.24091 40.3074 4.11128 40.5037 4.15202 40.7037L4.69646 43.4592C4.71498 43.5555 4.77054 43.6407 4.85202 43.6963ZM25.5446 36.8555L25.9446 38.8852L21.8816 39.6852L21.4816 37.6555L25.5446 36.8555ZM20.7557 37.8L21.1557 39.8296L20.2298 40.0111L19.8298 37.9852L20.7557 37.8ZM19.1039 38.1259L19.5039 40.1555L14.815 41.0815L14.4113 39.0555L19.1039 38.1259Z" fill="#000D44"/>
<path d="M48.2887 36.9222C47.8109 33.9296 47.2183 30.2037 47.8887 26.1259C49.085 18.8556 48.1109 14.4407 47.9479 13.7815C48.0109 13.3963 48.1924 11.8222 47.3738 10.363C46.5627 8.91853 46.3442 4.34075 46.3405 4.2926C46.3331 4.15556 46.2516 4.03334 46.1294 3.97408C45.1664 3.51482 44.1887 3.51482 43.2294 3.97408C43.1035 4.03334 43.022 4.15556 43.0183 4.2926C43.0146 4.34075 42.7961 8.91853 41.985 10.363C41.1627 11.8222 41.3479 13.4037 41.4072 13.7815C41.2442 14.463 40.2072 19.2408 41.4109 26.1296C42.1257 30.2296 41.5146 33.9741 41.022 36.9815C40.6405 39.3148 40.3664 40.9963 40.8627 42.0074L40.8998 42.0778C41.6109 43.5 43.0479 44.3815 44.6479 44.3815H44.6516C46.2516 44.3815 47.6887 43.4963 48.3998 42.0778L48.4331 42.0074C48.9368 40.9889 48.6627 39.2815 48.2887 36.9222ZM47.7664 41.6926L47.7405 41.7444C47.1442 42.9333 45.9887 43.6407 44.6516 43.6407H44.6479C43.3109 43.6407 42.1553 42.9333 41.559 41.7444L41.5294 41.6815C41.1368 40.8815 41.4109 39.2148 41.7553 37.1037C42.2294 34.2 42.8775 30.2259 42.1405 26.0037C41.0627 19.837 41.8442 15.3037 42.085 14.1667H47.2738C47.5035 15.2482 48.2294 19.4963 47.159 26.0074C46.4664 30.2037 47.0961 34.1556 47.5553 37.037C47.8961 39.1815 48.1664 40.8741 47.7664 41.6926Z" fill="#000D44"/>
<path d="M44.7258 27.4519C43.9444 27.4519 43.3555 28.5075 43.3555 29.9112C43.3555 31.3112 43.9444 32.3667 44.7258 32.3667C45.5073 32.3667 46.0962 31.3112 46.0962 29.9112C46.0962 28.5075 45.5073 27.4519 44.7258 27.4519Z" fill="#04CE78"/>
<path d="M19.8853 30.8075C19.7001 30.7223 19.4816 30.8038 19.3927 30.989C19.3075 31.1741 19.389 31.3964 19.5742 31.4815C19.8593 31.6112 20.1519 31.7297 20.4445 31.8297C20.4853 31.8445 20.5223 31.8482 20.563 31.8482C20.7186 31.8482 20.863 31.7519 20.9149 31.5964C20.9816 31.4038 20.8779 31.1927 20.6816 31.126C20.4186 31.0371 20.1519 30.9297 19.8853 30.8075Z" fill="#000D44"/>
<path d="M17.9852 30.5704C18.0482 30.6148 18.1222 30.6371 18.1963 30.6371C18.3148 30.6371 18.4296 30.5815 18.5 30.4778C18.6148 30.3074 18.5741 30.0778 18.4037 29.963C14.6593 27.3852 12.4704 22.4778 12.4482 22.4297C12.3667 22.2445 12.1482 22.1556 11.9593 22.2408C11.7704 22.3222 11.6852 22.5408 11.7704 22.7296C11.863 22.9334 14.063 27.8667 17.9852 30.5704Z" fill="#000D44"/>
<path d="M37.8667 19.7408C37.8889 20.0445 37.9038 20.3556 37.9112 20.6705C37.9149 20.8705 38.0815 21.0334 38.2815 21.0334C38.2852 21.0334 38.2889 21.0334 38.2889 21.0334C38.4926 21.0297 38.6556 20.8593 38.6519 20.6556C38.6445 20.3297 38.6297 20.0075 38.6075 19.6927C38.5926 19.489 38.4223 19.3371 38.2112 19.3482C38.0038 19.3593 37.8519 19.5371 37.8667 19.7408Z" fill="#000D44"/>
<path d="M37.6334 17.8298C37.663 18.0113 37.8223 18.1372 37.9964 18.1372C38.0186 18.1372 38.0371 18.1372 38.0593 18.1335C38.2593 18.1002 38.3964 17.9076 38.363 17.7039C37.2667 11.3594 33.5149 7.96683 33.3556 7.82609C33.2038 7.68906 32.9705 7.70387 32.8334 7.85572C32.6964 8.00757 32.7112 8.24091 32.863 8.37794C32.9001 8.41128 36.5853 11.752 37.6334 17.8298Z" fill="#000D44"/>
<path d="M30.5445 14.615C21.8223 0.148297 7.2927 6.49274 14.5297 22.0705C24.052 40.4039 39.0483 28.7261 30.5445 14.615ZM21.8853 12.8076C22.2631 12.1261 20.6705 9.4483 23.4075 9.85571C20.6445 10.9002 24.4408 12.2113 23.589 14.8261C22.1668 14.789 21.3371 16.0816 22.789 17.7853C23.3186 17.0853 28.2668 16.7927 27.5668 18.5927C24.2594 18.0002 23.9038 18.0224 24.5927 21.7631C25.9408 19.615 32.389 23.7298 28.7038 26.8335C23.3483 31.6705 6.93714 9.07052 21.8853 12.8076Z" fill="#04CE78"/>
</svg>
