<svg width="30" height="30" viewBox="0 0 30 30" fill="none" xmlns="http://www.w3.org/2000/svg">
<g clip-path="url(#clip0_1241_1075)">
<path d="M24.876 7.14233C24.876 7.14233 20.4697 13.2361 15.0322 13.2361C9.59473 13.2361 5.18848 7.14233 5.18848 7.14233C5.18848 7.14233 9.59473 1.04858 15.0322 1.04858C20.4697 1.04858 24.876 7.14233 24.876 7.14233Z" fill="#CECECE"/>
<path d="M15.0323 12.2986C19.8081 12.2986 23.6798 9.99005 23.6798 7.14233C23.6798 4.29462 19.8081 1.98608 15.0323 1.98608C10.2564 1.98608 6.38477 4.29462 6.38477 7.14233C6.38477 9.99005 10.2564 12.2986 15.0323 12.2986Z" fill="white"/>
<path d="M15.0322 11.3611C17.3622 11.3611 19.251 9.47229 19.251 7.14233C19.251 4.81238 17.3622 2.92358 15.0322 2.92358C12.7023 2.92358 10.8135 4.81238 10.8135 7.14233C10.8135 9.47229 12.7023 11.3611 15.0322 11.3611Z" fill="#73544B"/>
<path d="M15.0322 10.4236C16.8444 10.4236 18.3135 8.95452 18.3135 7.14233C18.3135 5.33015 16.8444 3.86108 15.0322 3.86108C13.22 3.86108 11.751 5.33015 11.751 7.14233C11.751 8.95452 13.22 10.4236 15.0322 10.4236Z" fill="#8A685A"/>
<path d="M15.0324 3.8611C14.4136 3.86118 13.8076 4.0376 13.2854 4.36969C13.1014 5.00834 13.1162 5.68786 13.3277 6.31792C13.5392 6.94799 13.9374 7.49878 14.4695 7.89707C15.0015 8.29537 15.6422 8.52233 16.3063 8.54777C16.9705 8.57322 17.6266 8.39595 18.1876 8.03953C18.3282 7.55152 18.3533 7.03747 18.2609 6.53807C18.1685 6.03867 17.9611 5.56764 17.6552 5.16225C17.3493 4.75686 16.9532 4.42824 16.4983 4.2024C16.0434 3.97657 15.5422 3.85972 15.0343 3.8611H15.0324Z" fill="#9C7968"/>
<path d="M18.2916 23.8486C17.5367 25.4417 16.3451 26.7878 14.8554 27.7304C13.3657 28.6731 11.6391 29.1735 9.87616 29.1736C8.11327 29.1735 6.38661 28.6731 4.89689 27.7304C3.40718 26.7878 2.21561 25.4417 1.46069 23.8486H18.2916Z" fill="#AEEEFF"/>
<path d="M5.65723 25.4236L5.68066 25.447C7.16628 26.9327 9.18122 27.7673 11.2822 27.7673L10.9199 27.8878C10.2322 28.1171 9.50287 28.1943 8.78238 28.1142C7.82339 28.0077 6.90633 27.6627 6.11483 27.1109C5.32333 26.559 4.68257 25.8178 4.25098 24.9548L5.65723 25.4236Z" fill="#DBF1FB"/>
<path d="M2.27726 25.2352C3.84101 25.9093 6.65491 26.3602 9.87616 26.3602C13.0974 26.3602 15.9113 25.9083 17.4751 25.2352C17.7871 24.7977 18.0603 24.3337 18.2916 23.8486H1.46069C1.69215 24.3336 1.96537 24.7976 2.27726 25.2352Z" fill="#C7ECF9"/>
<path d="M9.87598 25.4236C14.7948 25.4236 18.7822 24.3743 18.7822 23.0798C18.7822 21.7854 14.7948 20.7361 9.87598 20.7361C4.95719 20.7361 0.969727 21.7854 0.969727 23.0798C0.969727 24.3743 4.95719 25.4236 9.87598 25.4236Z" fill="#AEEEFF"/>
<path d="M9.87616 25.4236C14.5692 25.4236 18.3737 24.6891 18.3737 23.783C18.3737 22.8769 14.5692 22.1423 9.87616 22.1423C5.18312 22.1423 1.37866 22.8769 1.37866 23.783C1.37866 24.6891 5.18312 25.4236 9.87616 25.4236Z" fill="#04CE78"/>
<path d="M27.9881 28.6313C26.3279 29.224 24.5334 29.3332 22.8135 28.9463C21.0936 28.5593 19.5189 27.6921 18.2724 26.4455C17.0258 25.199 16.1587 23.6242 15.7718 21.9043C15.3848 20.1844 15.494 18.39 16.0866 16.7297L27.9881 28.6313Z" fill="#AEEEFF"/>
<path d="M17.941 20.8125V20.8457C17.9411 22.9466 18.7758 24.9613 20.2613 26.4468L19.9196 26.2762C19.2711 25.9521 18.7008 25.491 18.248 24.9248C17.6454 24.1714 17.2409 23.2792 17.0715 22.3294C16.9021 21.3796 16.9731 20.4026 17.2782 19.4873L17.941 20.8125Z" fill="#DBF1FB"/>
<path d="M15.6838 18.2874C16.3129 19.8704 17.9807 22.178 20.2612 24.4571C22.5416 26.7361 24.8479 28.4049 26.4304 29.034C26.9603 28.9452 27.4815 28.8105 27.9881 28.6313L16.0865 16.7297C15.9076 17.2364 15.7729 17.7575 15.6838 18.2874Z" fill="#C7ECF9"/>
<path d="M28.8733 28.4338C29.7884 27.5187 27.7112 23.9577 24.2336 20.4801C20.756 17.0025 17.195 14.9253 16.2798 15.8404C15.3647 16.7556 17.4419 20.3166 20.9195 23.7942C24.3971 27.2717 27.9581 29.349 28.8733 28.4338Z" fill="#AEEEFF"/>
<path d="M28.0873 28.6414C28.7279 28.0008 26.5574 24.7918 23.2394 21.4738C19.9215 18.1558 16.7124 15.9854 16.0718 16.626C15.4312 17.2666 17.6016 20.4756 20.9196 23.7936C24.2376 27.1116 27.4466 29.282 28.0873 28.6414Z" fill="#04CE78"/>
<path d="M12.6562 6.09375H17.3438V7.96875H12.6562V6.09375Z" fill="#04CE78"/>
<path d="M1.03828 24.0038C1.74838 25.4747 2.81561 26.7443 4.14255 27.6967C5.46949 28.6491 7.01385 29.254 8.63466 29.456C10.2555 29.6581 11.9011 29.451 13.4212 28.8535C14.9414 28.2561 16.2877 27.2874 17.3372 26.0358C17.5186 26.2524 17.7066 26.4643 17.9086 26.6663C19.7508 28.4997 22.2446 29.5283 24.8438 29.5266C25.9359 29.5265 27.0203 29.3419 28.0509 28.9805C28.1142 28.9857 28.1794 28.9946 28.2384 28.9946C28.4095 29.0041 28.5808 28.9789 28.7419 28.9205C28.9031 28.8621 29.0507 28.7717 29.1759 28.6547C30.4814 27.3493 27.8302 23.3311 24.5353 20.0372C21.2405 16.7433 17.2228 14.0916 15.9173 15.3966C15.7778 15.5519 15.6751 15.7366 15.6169 15.9371C15.5586 16.1375 15.5463 16.3485 15.5808 16.5544C15.1324 17.8521 14.9637 19.2299 15.0858 20.5974C13.3552 20.2937 11.6008 20.1461 9.84375 20.1563C5.18484 20.1563 0.46875 21.1224 0.46875 22.9688C0.480431 23.1729 0.537645 23.3718 0.636195 23.5508C0.734745 23.7299 0.872132 23.8847 1.03828 24.0038ZM9.84375 28.5938C8.42328 28.5892 7.02461 28.2441 5.76506 27.5874C4.50551 26.9306 3.42181 25.9814 2.60484 24.8194C4.41375 25.4532 7.13766 25.7813 9.84375 25.7813C12.1111 25.8179 14.3731 25.5513 16.5698 24.9886C16.6289 25.0824 16.6927 25.1719 16.7545 25.2628C15.925 26.2995 14.8735 27.1368 13.6775 27.7133C12.4815 28.2898 11.1714 28.5906 9.84375 28.5938ZM16.5825 16.0594C16.6666 15.9926 16.7733 15.961 16.8802 15.9713C17.8177 15.9713 20.513 17.3382 23.8748 20.7C27.7345 24.5607 28.965 27.5438 28.5155 27.9919C28.0659 28.44 25.0833 27.211 21.2236 23.3513C19.7321 21.9023 18.4242 20.2756 17.3292 18.5077C16.4648 17.0278 16.4091 16.2328 16.5825 16.0594ZM16.5188 18.9807C17.6546 20.8179 19.012 22.5085 20.5603 24.0146C22.4752 25.9299 24.6328 27.6239 26.362 28.4527C24.9637 28.7016 23.5259 28.6095 22.1708 28.1842C20.8156 27.7588 19.5831 27.0129 18.5777 26.0095C17.5724 25.0062 16.8239 23.7752 16.3959 22.4209C15.9678 21.0666 15.8728 19.629 16.1189 18.2302C16.2356 18.4688 16.365 18.7168 16.5188 18.9807ZM9.84375 21.0938C11.6509 21.0804 13.455 21.2443 15.2302 21.5832C15.401 22.4744 15.6939 23.3378 16.1006 24.1491C14.0524 24.6419 11.9502 24.8753 9.84375 24.8438C4.38469 24.8438 1.40625 23.6049 1.40625 22.9688C1.40625 22.3327 4.38469 21.0938 9.84375 21.0938Z" fill="#000D44"/>
<path d="M15.0001 13.5938C20.6115 13.5938 25.0379 7.56281 25.2235 7.30594C25.2813 7.22601 25.3125 7.12989 25.3125 7.03125C25.3125 6.93261 25.2813 6.83649 25.2235 6.75656C25.0379 6.49969 20.6115 0.46875 15.0001 0.46875C9.38869 0.46875 4.96229 6.49969 4.77666 6.75656C4.71886 6.83649 4.68774 6.93261 4.68774 7.03125C4.68774 7.12989 4.71886 7.22601 4.77666 7.30594C4.96229 7.56281 9.38869 13.5938 15.0001 13.5938ZM15.0001 1.40625C19.4828 1.40625 23.3256 5.86688 24.2523 7.03125C23.3256 8.19562 19.4828 12.6562 15.0001 12.6562C10.5174 12.6562 6.67463 8.19562 5.74791 7.03125C6.67463 5.86688 10.5174 1.40625 15.0001 1.40625Z" fill="#000D44"/>
<path d="M15 11.7188C15.9271 11.7188 16.8334 11.4438 17.6042 10.9288C18.3751 10.4137 18.9759 9.68161 19.3307 8.82508C19.6855 7.96855 19.7783 7.02605 19.5974 6.11677C19.4166 5.20748 18.9701 4.37225 18.3146 3.71669C17.659 3.06113 16.8238 2.61469 15.9145 2.43382C15.0052 2.25295 14.0627 2.34578 13.2062 2.70057C12.3496 3.05535 11.6176 3.65616 11.1025 4.42702C10.5874 5.19787 10.3125 6.10415 10.3125 7.03125C10.3139 8.27404 10.8082 9.46553 11.6869 10.3443C12.5657 11.2231 13.7572 11.7174 15 11.7188ZM15 3.28125C15.7417 3.28125 16.4667 3.50119 17.0834 3.91324C17.7001 4.3253 18.1807 4.91097 18.4645 5.59619C18.7484 6.28141 18.8226 7.03541 18.6779 7.76284C18.5333 8.49027 18.1761 9.15846 17.6516 9.6829C17.1272 10.2073 16.459 10.5645 15.7316 10.7092C15.0042 10.8539 14.2502 10.7796 13.5649 10.4958C12.8797 10.212 12.294 9.73132 11.882 9.11464C11.4699 8.49796 11.25 7.77293 11.25 7.03125C11.2511 6.03703 11.6466 5.08385 12.3496 4.38083C13.0526 3.67782 14.0058 3.28237 15 3.28125Z" fill="#000D44"/>
<path d="M17.3438 8.4375C17.4681 8.4375 17.5873 8.38811 17.6752 8.30021C17.7631 8.2123 17.8125 8.09307 17.8125 7.96875V6.09375C17.8125 5.96943 17.7631 5.8502 17.6752 5.76229C17.5873 5.67439 17.4681 5.625 17.3438 5.625H12.6562C12.5319 5.625 12.4127 5.67439 12.3248 5.76229C12.2369 5.8502 12.1875 5.96943 12.1875 6.09375V7.96875C12.1875 8.09307 12.2369 8.2123 12.3248 8.30021C12.4127 8.38811 12.5319 8.4375 12.6562 8.4375H17.3438ZM13.125 6.5625H16.875V7.5H13.125V6.5625Z" fill="#000D44"/>
</g>
<defs>
<clipPath id="clip0_1241_1075">
<rect width="30" height="30" fill="white"/>
</clipPath>
</defs>
</svg>
