<svg width="60" height="61" viewBox="0 0 60 61" fill="none" xmlns="http://www.w3.org/2000/svg">
<g clip-path="url(#clip0_1517_1953)">
<path d="M52.2699 39.8067C51.4227 40.2332 50.5098 40.5696 49.5395 40.8004C48.4367 41.0641 47.3281 41.3043 46.2172 41.5211C45.7613 41.6114 45.3043 41.6958 44.8473 41.7778C42.8375 42.1375 40.8195 42.4235 38.7945 42.6356C38.3375 42.6848 37.8816 42.7282 37.4246 42.7692C35.4113 42.9473 33.3922 43.0528 31.3719 43.0844C30.9148 43.0926 30.459 43.0961 30.002 43.0961C27.9828 43.0961 25.9637 43.0235 23.9492 42.8793C23.4922 42.8465 23.0363 42.809 22.5793 42.7692C20.5555 42.5899 18.5375 42.3379 16.5277 42.0122C16.0695 41.9372 15.6125 41.8598 15.1566 41.7778C13.5863 41.4977 12.0207 41.1719 10.4645 40.8004C9.99805 40.6903 9.54336 40.5532 9.10508 40.395C8.63047 40.2239 8.17344 40.027 7.73398 39.8055C3.49648 37.6774 0.880859 33.311 0.880859 28.6786C0.880859 27.0356 1.20898 25.3598 1.91094 23.7391C2.57539 22.204 3.51172 20.8575 4.64375 19.7395C5.24258 19.1477 5.89531 18.6192 6.59258 18.161C7.93906 17.275 9.44727 16.6469 11.0352 16.3188C11.6094 16.1993 12.1941 16.1196 12.7859 16.0821C14.0199 16.0012 15.2832 16.0985 16.5406 16.3926C17.859 16.7008 19.1867 16.9633 20.5191 17.179C21.1016 17.2739 21.6852 17.3594 22.2699 17.4368C24.8352 17.7754 27.4191 17.9442 30.002 17.9442C30.5855 17.9442 31.1691 17.936 31.7527 17.9184C34.3391 17.8422 36.923 17.5961 39.4848 17.179C40.0695 17.084 40.6531 16.9809 41.2355 16.8672C41.9809 16.7243 42.7238 16.5661 43.4633 16.3926C44.4395 16.1641 45.4191 16.054 46.3859 16.054C47.2613 16.054 48.1262 16.1442 48.9688 16.3188C49.6344 16.4571 50.2859 16.6469 50.9176 16.8872C52.5723 17.5153 54.0898 18.4844 55.3602 19.7395C56.4922 20.8575 57.4285 22.204 58.093 23.7391C60.773 29.9336 58.0098 36.9227 52.2699 39.8067Z" fill="#04CE78"/>
<path d="M49.2496 36.8419L40.9387 40.2872H19.5836L10.9902 36.7071C15.5687 34.1466 22.3023 32.5188 29.8187 32.4942C29.8797 32.493 29.9406 32.493 30.0016 32.493C37.723 32.493 44.6324 34.1829 49.2496 36.8419Z" fill="#1F5FFF"/>
<path d="M25.4008 40.2872H19.5836L10.9902 36.7072C15.5687 34.1466 22.3023 32.5189 29.8187 32.4943C24.1527 32.6009 21.5734 37.64 25.4008 40.2872Z" fill="#1F5FFF"/>
<path d="M37.4246 40.4841V42.7693C34.9555 42.9872 32.4781 43.0962 30.002 43.0962V40.4841C30.002 39.1001 31.1234 37.9786 32.5074 37.9786H34.9191C36.3031 37.9786 37.4246 39.1001 37.4246 40.4841Z" fill="#ECF4FF"/>
<path d="M30.0018 40.4841V43.0962C27.5244 43.0962 25.0482 42.9872 22.5791 42.7693V40.4841C22.5791 39.1001 23.7006 37.9786 25.0857 37.9786H27.4963C28.8803 37.9786 30.0018 39.1001 30.0018 40.4841Z" fill="#ECF4FF"/>
<path d="M33.8785 37.9786C32.4945 37.9786 31.3719 39.1001 31.3719 40.4841V43.0845C30.9148 43.0927 30.459 43.0962 30.002 43.0962V40.4841C30.002 39.1001 31.1246 37.9786 32.5074 37.9786H33.8785Z" fill="#DDEAFB"/>
<path d="M26.4557 37.9786C25.0717 37.9786 23.949 39.1001 23.949 40.4841V42.8794C23.492 42.8466 23.0361 42.8091 22.5791 42.7693V40.4841C22.5791 39.1001 23.7018 37.9786 25.0857 37.9786H26.4557Z" fill="#DDEAFB"/>
<path d="M44.8475 39.3122V41.7779C42.3854 42.2185 39.9092 42.549 37.4248 42.7693V39.3122C37.4248 37.9282 38.5463 36.8068 39.9303 36.8068H42.342C43.726 36.8068 44.8475 37.9282 44.8475 39.3122Z" fill="#ECF4FF"/>
<path d="M41.3014 36.8068C39.9174 36.8068 38.7947 37.9282 38.7947 39.3122V42.6357C38.3377 42.6849 37.8818 42.7282 37.4248 42.7693V39.3122C37.4248 37.9282 38.5475 36.8068 39.9303 36.8068H41.3014Z" fill="#DDEAFB"/>
<path d="M52.2703 38.1404V39.8068C51.423 40.2333 50.5102 40.5697 49.5398 40.8005C47.9836 41.172 46.418 41.4978 44.8477 41.7779V38.1404C44.8477 36.7564 45.9691 35.6349 47.3531 35.6349H49.7648C51.1477 35.6349 52.2703 36.7564 52.2703 38.1404Z" fill="#ECF4FF"/>
<path d="M48.7242 35.6349C47.3402 35.6349 46.2176 36.7564 46.2176 38.1404V41.5212C45.7617 41.6115 45.3047 41.6958 44.8477 41.7779V38.1404C44.8477 36.7564 45.9703 35.6349 47.3531 35.6349H48.7242Z" fill="#DDEAFB"/>
<path d="M22.5799 39.3122V42.7693C20.0955 42.549 17.6193 42.2197 15.1572 41.7779V39.3122C15.1572 37.9282 16.2787 36.8068 17.6639 36.8068H20.0744C21.4584 36.8068 22.5799 37.9282 22.5799 39.3122Z" fill="#ECF4FF"/>
<path d="M19.0338 36.8068C17.6498 36.8068 16.5283 37.9282 16.5283 39.3122V42.0122C16.0701 41.9372 15.6131 41.8599 15.1572 41.7779V39.3122C15.1572 37.9282 16.2799 36.8068 17.6639 36.8068H19.0338Z" fill="#DDEAFB"/>
<path d="M15.157 38.1404V41.7779C13.5867 41.4978 12.0211 41.172 10.4648 40.8005C9.49453 40.5697 8.58164 40.2322 7.73438 39.8056V38.1404C7.73438 36.7564 8.85703 35.6349 10.241 35.6349H12.6516C14.0355 35.6349 15.157 36.7564 15.157 38.1404Z" fill="#ECF4FF"/>
<path d="M11.6109 35.6349C10.227 35.6349 9.10547 36.7564 9.10547 38.1404V40.395C8.63086 40.224 8.17383 40.0271 7.73438 39.8056V38.1404C7.73438 36.7564 8.85703 35.6349 10.241 35.6349H11.6109Z" fill="#DDEAFB"/>
<path d="M48.9684 16.3188V23.4438C48.9684 25.2122 47.5352 26.6454 45.7668 26.6454H42.6859C40.9176 26.6454 39.4844 25.2122 39.4844 23.4438V17.179C40.8168 16.9633 42.1445 16.7008 43.4629 16.3926C44.4391 16.1641 45.4188 16.054 46.3855 16.054C47.2609 16.054 48.1258 16.1442 48.9684 16.3188Z" fill="#ECF4FF"/>
<path d="M39.4848 17.179V26.3735C39.4848 28.1418 38.0516 29.575 36.2844 29.575H33.2035C31.4352 29.575 30.002 28.1418 30.002 26.3735V17.9442C33.173 17.9442 36.3453 17.6899 39.4848 17.179Z" fill="#ECF4FF"/>
<path d="M30.0023 17.9442V26.3735C30.0023 28.1418 28.5691 29.575 26.8008 29.575H23.7211C21.9527 29.575 20.5195 28.1418 20.5195 26.3735V17.179C23.659 17.6899 26.8312 17.9442 30.0023 17.9442Z" fill="#ECF4FF"/>
<path d="M20.5191 17.179V23.4439C20.5191 25.2122 19.0859 26.6454 17.3176 26.6454H14.2367C12.4695 26.6454 11.0352 25.2122 11.0352 23.4439V16.3189C12.8082 15.9521 14.6809 15.9579 16.5406 16.3927C17.859 16.7009 19.1867 16.9634 20.5191 17.179Z" fill="#ECF4FF"/>
<path d="M44.4367 26.6454H42.6859C40.9188 26.6454 39.4844 25.2122 39.4844 23.4439V17.179C40.0691 17.0841 40.6527 16.981 41.2352 16.8673V23.4439C41.2352 25.2122 42.6684 26.6454 44.4367 26.6454Z" fill="#DDEAFB"/>
<path d="M34.9543 29.5751H33.2035C31.4363 29.5751 30.002 28.1419 30.002 26.3735V17.9442C30.5855 17.9442 31.1691 17.936 31.7527 17.9185V26.3735C31.7527 28.1419 33.1859 29.5751 34.9543 29.5751Z" fill="#DDEAFB"/>
<path d="M25.4719 29.575H23.7211C21.9539 29.575 20.5195 28.1418 20.5195 26.3735V17.179C21.102 17.2739 21.6855 17.3594 22.2703 17.4368V26.3735C22.2703 28.1418 23.7035 29.575 25.4719 29.575Z" fill="#DDEAFB"/>
<path d="M15.9875 26.6454H14.2367C12.4695 26.6454 11.0352 25.2122 11.0352 23.4439V16.3189C11.6094 16.1993 12.1941 16.1197 12.7859 16.0822V23.4439C12.7859 25.2122 14.2191 26.6454 15.9875 26.6454Z" fill="#DDEAFB"/>
<path d="M55.3602 19.7396V21.106C55.3602 21.9884 55.0027 22.7876 54.4238 23.3653C53.8461 23.9442 53.0469 24.3017 52.1645 24.3017C50.3996 24.3017 48.9688 22.8708 48.9688 21.106V16.3188C51.3793 16.8169 53.6047 18.0052 55.3602 19.7396Z" fill="#ECF4FF"/>
<path d="M53.1395 24.1493C52.8324 24.2489 52.5055 24.3017 52.1656 24.3017C50.3996 24.3017 48.9688 22.8708 48.9688 21.106V16.3188C49.6344 16.4571 50.2859 16.647 50.9176 16.8872V21.106C50.9176 22.531 51.8504 23.7392 53.1395 24.1493Z" fill="#DDEAFB"/>
<path d="M11.035 16.3188V21.106C11.035 21.9884 10.6775 22.7876 10.0986 23.3653C9.5209 23.9442 8.72168 24.3017 7.83926 24.3017C6.07441 24.3017 4.64355 22.8708 4.64355 21.106V19.7396C6.39902 18.0052 8.62441 16.8169 11.035 16.3188Z" fill="#ECF4FF"/>
<path d="M8.81426 24.1493C8.50723 24.2489 8.18027 24.3016 7.84043 24.3016C6.07441 24.3016 4.64355 22.8708 4.64355 21.1059V19.7395C5.24238 19.1477 5.89512 18.6192 6.59238 18.161V21.1059C6.59238 22.5309 7.5252 23.7391 8.81426 24.1493Z" fill="#DDEAFB"/>
<path d="M26.1242 25.557H24.3977C23.7984 25.557 23.3125 25.0711 23.3125 24.4718V22.7453C23.3125 22.146 23.7984 21.6602 24.3977 21.6602H26.1242C26.7235 21.6602 27.2093 22.146 27.2093 22.7453V24.4718C27.2093 25.0711 26.7235 25.557 26.1242 25.557Z" fill="#1F5FFF"/>
<path d="M16.6408 22.906H14.9143C14.315 22.906 13.8291 22.4201 13.8291 21.8208V20.0943C13.8291 19.495 14.315 19.0092 14.9143 19.0092H16.6408C17.2401 19.0092 17.7259 19.495 17.7259 20.0943V21.8208C17.7259 22.4201 17.2401 22.906 16.6408 22.906Z" fill="#1F5FFF"/>
<path d="M33.8801 25.557H35.6066C36.2059 25.557 36.6918 25.0711 36.6918 24.4718V22.7453C36.6918 22.146 36.2059 21.6602 35.6066 21.6602H33.8801C33.2808 21.6602 32.7949 22.146 32.7949 22.7453V24.4718C32.7948 25.0711 33.2807 25.557 33.8801 25.557Z" fill="#1F5FFF"/>
<path d="M43.3635 22.906H45.09C45.6893 22.906 46.1752 22.4201 46.1752 21.8208V20.0943C46.1752 19.495 45.6893 19.0092 45.09 19.0092H43.3635C42.7642 19.0092 42.2783 19.495 42.2783 20.0943V21.8208C42.2782 22.4201 42.7641 22.906 43.3635 22.906Z" fill="#1F5FFF"/>
<path d="M30.1665 8.96005H29.8372C28.676 8.96005 27.7131 8.06087 27.6335 6.90236L27.3891 3.3388C27.3016 2.06251 28.3134 0.978882 29.5929 0.978882H30.411C31.6904 0.978882 32.7022 2.06251 32.6147 3.33892L32.3702 6.90248C32.2908 8.06087 31.3278 8.96005 30.1665 8.96005Z" fill="#1F5FFF"/>
<path d="M19.5747 11.7099L19.2895 11.8746C18.2838 12.4552 17.0004 12.1579 16.3522 11.1944L14.3588 8.23051C13.6447 7.16891 13.9792 5.72457 15.0872 5.08485L15.7957 4.67574C16.9037 4.03602 18.3218 4.46856 18.8841 5.6177L20.4542 8.82606C20.9647 9.86914 20.5804 11.1293 19.5747 11.7099Z" fill="#1F5FFF"/>
<path d="M40.7141 11.8746L40.429 11.7099C39.4233 11.1293 39.039 9.86914 39.5494 8.82606L41.1195 5.6177C41.6819 4.46856 43.1 4.03602 44.2079 4.67574L44.9164 5.08485C46.0244 5.72457 46.3588 7.16891 45.6448 8.23051L43.6513 11.1944C43.0033 12.1579 41.7199 12.4551 40.7141 11.8746Z" fill="#1F5FFF"/>
<path d="M29.8371 51.24H30.1664C31.3276 51.24 32.2906 52.1392 32.3701 53.2977L32.6146 56.8612C32.7021 58.1376 31.6903 59.2213 30.4109 59.2213H29.5928C28.3133 59.2213 27.3015 58.1376 27.3891 56.8612L27.6335 53.2977C27.7129 52.1392 28.6759 51.24 29.8371 51.24Z" fill="#1F5FFF"/>
<path d="M40.429 48.49L40.7141 48.3254C41.7198 47.7447 43.0032 48.042 43.6514 49.0055L45.6449 51.9694C46.3589 53.031 46.0245 54.4754 44.9164 55.1151L44.2079 55.5242C43.0999 56.1639 41.6818 55.7314 41.1196 54.5822L39.5495 51.3739C39.0389 50.3308 39.4233 49.0707 40.429 48.49Z" fill="#1F5FFF"/>
<path d="M19.2894 48.3253L19.5745 48.49C20.5803 49.0706 20.9645 50.3307 20.4542 51.3738L18.8841 54.5822C18.3217 55.7313 16.9036 56.1639 15.7957 55.5241L15.0872 55.115C13.9792 54.4753 13.6447 53.031 14.3588 51.9694L16.3522 49.0055C17.0003 48.0419 18.2837 47.7448 19.2894 48.3253Z" fill="#1F5FFF"/>
<path d="M58.8992 23.3899C58.2018 21.7786 57.2188 20.34 55.9775 19.1142C54.6181 17.7712 53.0207 16.7455 51.2297 16.0656C50.5575 15.81 49.8568 15.6056 49.1466 15.4581C47.2153 15.0578 45.1958 15.0842 43.2622 15.5368C42.5395 15.7063 41.8018 15.8635 41.0669 16.0045C40.5185 16.1115 39.9386 16.2148 39.3432 16.3114C36.8356 16.7197 34.273 16.9648 31.7259 17.0398C31.1676 17.0566 30.5874 17.0652 30.0016 17.0652C27.4597 17.0652 24.8968 16.897 22.3848 16.5654C21.7987 16.4878 21.2184 16.4024 20.6592 16.3113C19.3527 16.0998 18.0342 15.8393 16.7404 15.5368C15.4228 15.2286 14.0727 15.1168 12.7299 15.205C12.1029 15.2447 11.4724 15.33 10.857 15.4581C9.15863 15.8091 7.56113 16.4714 6.10965 17.4265C5.36492 17.9159 4.66367 18.4836 4.02547 19.1144C3.23316 19.8978 2.54035 20.7753 1.96637 21.7226C1.71488 22.1376 1.8473 22.6782 2.2625 22.9297C2.67758 23.1812 3.21805 23.0488 3.46965 22.6336C3.59621 22.4248 3.72957 22.2199 3.86902 22.0193C4.28492 23.8275 5.90645 25.1805 7.83922 25.1805C8.72598 25.1805 9.56891 24.8994 10.2656 24.3803C10.69 26.1803 12.3086 27.5243 14.2365 27.5243H17.3173C18.1889 27.5243 18.9968 27.2488 19.6604 26.7814C19.8657 28.8405 21.608 30.454 23.7205 30.454H26.8002C28.0972 30.454 29.2538 29.8451 30.0017 28.8989C30.7496 29.8451 31.9063 30.454 33.2032 30.454H36.2829C38.3952 30.454 40.1376 28.8405 40.3429 26.7814C41.0066 27.2488 41.8145 27.5243 42.686 27.5243H45.7668C47.6955 27.5243 49.3148 26.1789 49.7383 24.3775C50.4165 24.8816 51.256 25.1805 52.1641 25.1805C53.2537 25.1805 54.277 24.7563 55.0443 23.9875C55.5937 23.4391 55.966 22.7609 56.1349 22.0217C56.5834 22.6666 56.9691 23.3563 57.2859 24.0881C59.5218 29.2557 57.6984 35.2104 53.1485 38.276V38.1404C53.1485 36.2742 51.6297 34.756 49.7629 34.756H47.3524C47.2525 34.756 47.154 34.7613 47.0564 34.7698C44.8334 33.811 42.3231 33.053 39.588 32.5165C39.1119 32.4228 38.6498 32.7335 38.5564 33.2099C38.4629 33.6861 38.7734 34.1481 39.2497 34.2415C41.2791 34.6396 43.175 35.163 44.9083 35.8031C44.6858 36.0357 44.4961 36.2999 44.3465 36.5883C43.7846 36.1737 43.0907 35.9279 42.3404 35.9279H39.9298C38.623 35.9279 37.4877 36.673 36.924 37.7601C36.3621 37.3455 35.6682 37.0998 34.9177 37.0998H32.5073C31.5152 37.0998 30.6214 37.5289 30.0018 38.2113C29.3823 37.5289 28.4885 37.0998 27.4963 37.0998H25.0858C24.3354 37.0998 23.6415 37.3455 23.0796 37.7601C22.5159 36.673 21.3805 35.9279 20.0737 35.9279H17.6633C16.9128 35.9279 16.2189 36.1737 15.657 36.5883C15.5075 36.2998 15.3177 36.0355 15.095 35.8028C19.3586 34.2289 24.5749 33.3719 30.002 33.3719C31.9914 33.3719 33.9658 33.4866 35.8702 33.7127C36.3498 33.7699 36.7893 33.4256 36.8465 32.9436C36.9038 32.4616 36.5594 32.0244 36.0774 31.9672C34.1046 31.733 32.0605 31.6143 30.002 31.6143C23.7071 31.6143 17.6629 32.7342 12.9452 34.7696C12.8482 34.7612 12.7503 34.756 12.6512 34.756H10.2406C8.37383 34.756 6.85508 36.2743 6.85508 38.1404V38.2704C3.72043 36.1419 1.75977 32.5207 1.75977 28.6786C1.75977 27.6499 1.89922 26.6249 2.17426 25.6319C2.30387 25.1641 2.02977 24.6798 1.56184 24.5503C1.09438 24.4205 0.609922 24.6948 0.480313 25.1626C0.162852 26.3084 0.00195312 27.4914 0.00195312 28.6785C0.00195312 33.6764 2.88219 38.3523 7.33836 40.5902C7.81016 40.828 8.30422 41.0405 8.80649 41.2216C9.28695 41.395 9.77668 41.5411 10.2603 41.6552C11.8205 42.0277 13.4161 42.36 15.0008 42.6426C15.4138 42.7169 15.8668 42.7944 16.3869 42.8796C18.4018 43.2063 20.4591 43.4635 22.5027 43.6446C23.0285 43.6905 23.468 43.7258 23.8863 43.7558C25.9177 43.9011 27.9753 43.9748 30.0018 43.9748C30.4912 43.9748 30.9445 43.971 31.3856 43.963C33.4143 43.9312 35.4722 43.824 37.5031 43.6444C38.0396 43.5962 38.4799 43.5533 38.8861 43.5095C40.9242 43.2961 42.9818 43.0044 45.0023 42.6426C45.543 42.5456 45.9833 42.4631 46.3855 42.3835C47.51 42.1641 48.6399 41.9189 49.7428 41.6552C50.7611 41.4129 51.7445 41.055 52.6644 40.5918C58.9644 37.4265 61.7032 29.8705 58.8992 23.3899ZM52.0476 18.368C51.4504 18.8742 50.6727 19.2344 49.8475 19.4897V17.4517C50.1036 17.5297 50.3571 17.6142 50.6055 17.7087C51.1039 17.8979 51.5849 18.1182 52.0476 18.368ZM41.4009 17.7303C42.1564 17.5854 42.9178 17.4232 43.6633 17.2484C45.116 16.9084 46.6238 16.845 48.0896 17.057V19.8866C47.73 19.943 47.3799 19.9851 47.05 20.0164C47.0088 18.9696 46.1466 18.13 45.0898 18.13H43.3633C42.2804 18.13 41.3993 19.0111 41.3993 20.0941V21.3336C41.0941 21.4455 40.7492 21.5627 40.3636 21.6805V17.9215C40.7184 17.8595 41.0662 17.7956 41.4009 17.7303ZM45.2961 20.0941V21.8207C45.2961 21.9344 45.2035 22.027 45.0897 22.027H43.3632C43.2494 22.027 43.157 21.9344 43.157 21.8207V20.0941C43.157 19.9803 43.2494 19.8878 43.3632 19.8878H45.0897C45.2035 19.8878 45.2961 19.9803 45.2961 20.0941ZM31.7784 18.7968C34.0576 18.7296 36.3495 18.5299 38.6057 18.203V22.1423C38.2665 22.2182 37.9091 22.2909 37.5321 22.359C37.3521 21.4603 36.5573 20.7811 35.6064 20.7811H33.8799C32.8023 20.7811 31.9255 21.6534 31.9166 22.729H30.8807V18.8167C31.1843 18.8122 31.4844 18.8057 31.7784 18.7968ZM35.8128 22.7451V24.4717C35.8128 24.5855 35.7202 24.6779 35.6064 24.6779H33.8799C33.7661 24.6779 33.6736 24.5853 33.6736 24.4717V22.7451C33.6736 22.6314 33.7661 22.5389 33.8799 22.5389H35.6064C35.7201 22.5389 35.8128 22.6314 35.8128 22.7451ZM29.1229 18.8157V22.7289H28.087C28.0782 21.6533 27.2013 20.781 26.1236 20.781H24.3971C23.4463 20.781 22.6515 21.4602 22.4715 22.3589C22.0945 22.2908 21.7371 22.218 21.3978 22.1422V18.2027C21.6484 18.2391 21.9008 18.2743 22.1546 18.308C24.4536 18.6116 26.7935 18.7814 29.1229 18.8157ZM26.33 22.7451V24.4717C26.33 24.5855 26.2374 24.6779 26.1236 24.6779H24.3971C24.2833 24.6779 24.1907 24.5853 24.1907 24.4717V22.7451C24.1907 22.6314 24.2833 22.5389 24.3971 22.5389H26.1236C26.2374 22.5389 26.33 22.6314 26.33 22.7451ZM12.8431 16.959C14.0143 16.8823 15.1911 16.9795 16.3404 17.2484C17.4302 17.5032 18.537 17.7273 19.64 17.9203V21.6805C19.2543 21.5626 18.9095 21.4455 18.6043 21.3336V20.0941C18.6043 19.0111 17.7232 18.13 16.6402 18.13H14.9137C13.8569 18.13 12.9948 18.9695 12.9535 20.0164C12.6235 19.9851 12.2735 19.943 11.9139 19.8866V17.0572C12.2225 17.0125 12.5328 16.9786 12.8431 16.959ZM16.8465 20.0941V21.8207C16.8465 21.9344 16.754 22.027 16.6402 22.027H14.9137C14.7999 22.027 14.7073 21.9344 14.7073 21.8207V20.0941C14.7073 19.9803 14.7999 19.8878 14.9137 19.8878H16.6402C16.754 19.8878 16.8465 19.9803 16.8465 20.0941ZM10.156 19.4897C9.3316 19.2347 8.55453 18.8748 7.95758 18.3694C8.65918 17.9892 9.39348 17.681 10.156 17.4493V19.4897ZM7.83922 23.4227C6.56176 23.4227 5.52231 22.3834 5.52231 21.1059V20.119C5.81398 19.8476 6.11879 19.5912 6.43543 19.3512C7.39238 20.3317 8.73231 20.942 10.1457 21.3148C10.0978 21.855 9.86527 22.3562 9.47633 22.7444C9.04004 23.1818 8.45856 23.4227 7.83922 23.4227ZM17.3173 25.7665H14.2365C12.9557 25.7665 11.9138 24.7246 11.9138 23.4438V21.6655C12.2641 21.7147 12.6107 21.7526 12.9495 21.7816V21.8207C12.9495 22.9037 13.8307 23.7848 14.9137 23.7848H16.6402C17.2598 23.7848 17.8123 23.4956 18.1726 23.0461C18.6426 23.2144 19.1313 23.3693 19.6365 23.5116C19.6003 24.7608 18.5752 25.7665 17.3173 25.7665ZM26.8002 28.6962H23.7205C22.4397 28.6962 21.3978 27.6543 21.3978 26.3735V23.9403C21.7372 24.0108 22.0814 24.0772 22.4329 24.137V24.4717C22.4329 25.5547 23.3141 26.4357 24.3971 26.4357H26.1236C27.2016 26.4357 28.0788 25.5627 28.087 24.4867H29.1229V26.3734C29.1229 27.6541 28.0809 28.6962 26.8002 28.6962ZM36.283 28.6962H33.2033C31.9225 28.6962 30.8807 27.6543 30.8807 26.3735V24.4868H31.9166C31.9248 25.5628 32.8019 26.4359 33.8799 26.4359H35.6064C36.6895 26.4359 37.5706 25.5547 37.5706 24.4718V24.1371C37.9222 24.0772 38.2664 24.0109 38.6057 23.9405V26.3736C38.6057 27.6541 37.5637 28.6962 36.283 28.6962ZM45.767 25.7665H42.6861C41.4282 25.7665 40.4033 24.7608 40.367 23.5116C40.8722 23.3693 41.3608 23.2144 41.8309 23.0461C42.1911 23.4957 42.7436 23.7848 43.3632 23.7848H45.0897C46.1728 23.7848 47.0539 22.9037 47.0539 21.8207V21.7816C47.3927 21.7526 47.7393 21.7147 48.0896 21.6655V23.4438C48.0896 24.7244 47.0477 25.7665 45.767 25.7665ZM53.8015 22.7444C53.3649 23.1818 52.7834 23.4227 52.1641 23.4227C50.9571 23.4227 49.964 22.4946 49.858 21.3148C51.2727 20.9416 52.6136 20.3306 53.5707 19.3485C53.8857 19.5876 54.1891 19.8436 54.481 20.1151V21.1059C54.481 21.7253 54.2402 22.3066 53.8015 22.7444ZM9.40285 39.568C9.13543 39.4717 8.87164 39.364 8.61266 39.2484V38.1402C8.61266 37.2432 9.34274 36.5136 10.2404 36.5136H12.6509C13.5478 36.5136 14.2775 37.2434 14.2775 38.1402V39.3121V40.7203C13.0671 40.4884 11.8568 40.2291 10.6663 39.9449C10.2455 39.8456 9.82063 39.7189 9.40285 39.568ZM16.0353 41.0388V39.3121C16.0353 38.4151 16.7655 37.6855 17.6632 37.6855H20.0736C20.9704 37.6855 21.7002 38.4152 21.7002 39.3121V40.4839V41.8025C20.0156 41.6337 18.3274 41.4135 16.6694 41.1446C16.4456 41.1081 16.2362 41.073 16.0353 41.0388ZM23.458 41.9606V40.4841C23.458 39.5871 24.1882 38.8575 25.0858 38.8575H27.4963C28.3932 38.8575 29.1229 39.5872 29.1229 40.4841V42.212C27.4237 42.1938 25.7086 42.124 24.0119 42.0026C23.8333 41.9898 23.65 41.9759 23.458 41.9606ZM31.3558 42.2055C31.1995 42.2084 31.0409 42.2105 30.8806 42.2122V40.4841C30.8806 39.5871 31.6104 38.8575 32.5072 38.8575H34.9176C35.8152 38.8575 36.5455 39.5872 36.5455 40.4841V41.9604C34.8191 42.0961 33.0775 42.1786 31.3558 42.2055ZM38.7002 41.7616C38.5721 41.7755 38.4402 41.7892 38.3033 41.8029V40.4839V39.3121C38.3033 38.4151 39.033 37.6855 39.9298 37.6855H42.3404C43.2379 37.6855 43.9681 38.4152 43.9681 39.3121V41.0386C42.2233 41.3351 40.4553 41.5778 38.7002 41.7616ZM49.3347 39.9456C48.2547 40.2039 47.1491 40.4436 46.0462 40.6589C45.9424 40.6794 45.8359 40.7003 45.7259 40.7214V39.3122V38.1403C45.7259 37.2434 46.4557 36.5137 47.3525 36.5137H49.7631C50.6606 36.5137 51.3908 37.2435 51.3908 38.1403V39.2496C50.7339 39.5425 50.0451 39.7765 49.3347 39.9456Z" fill="#000D44"/>
<path d="M26.7564 6.96248C26.8669 8.57556 28.2201 9.83896 29.8368 9.83896H30.1662C31.7829 9.83896 33.1361 8.57545 33.2466 6.96248L33.491 3.39892C33.5494 2.54849 33.2492 1.70334 32.6674 1.08025C32.0856 0.45728 31.2629 0.0999756 30.4105 0.0999756H29.5926C28.7401 0.0999756 27.9175 0.45728 27.3356 1.08037C26.7539 1.70345 26.4537 2.54849 26.512 3.39904L26.7564 6.96248ZM28.6204 2.28013C28.8747 2.00779 29.2198 1.85779 29.5924 1.85779H30.4104C30.7831 1.85779 31.1282 2.00779 31.3825 2.28013C31.6368 2.55248 31.7628 2.90709 31.7372 3.2788L31.4928 6.84236C31.4452 7.53716 30.8624 8.08127 30.1661 8.08127H29.8367C29.1403 8.08127 28.5576 7.53705 28.51 6.84236L28.2655 3.2788C28.2401 2.90709 28.3662 2.55236 28.6204 2.28013Z" fill="#000D44"/>
<path d="M15.6228 11.685C16.2146 12.5647 17.1935 13.0471 18.1926 13.0471C18.717 13.0471 19.247 12.9141 19.729 12.6357L20.0141 12.4711C21.4142 11.6628 21.9543 9.89203 21.2435 8.43984L19.6736 5.23136C19.2988 4.46566 18.6162 3.88382 17.8008 3.63527C16.9854 3.38648 16.0944 3.48843 15.3564 3.91464L14.6478 4.32375C13.9095 4.75007 13.3758 5.47078 13.1835 6.30128C12.9912 7.13179 13.1537 8.01375 13.6295 8.72097L15.6228 11.685ZM14.8958 6.69785C14.98 6.3348 15.2039 6.03234 15.5266 5.84613L16.2352 5.43703C16.441 5.3182 16.6675 5.25785 16.8971 5.25785C17.0274 5.25785 17.1589 5.27742 17.288 5.31667C17.6444 5.42531 17.9308 5.66953 18.0947 6.0041L19.6647 9.21246C19.9707 9.838 19.7382 10.6007 19.135 10.9488L18.8499 11.1134C18.2466 11.4614 17.4699 11.2816 17.0813 10.7039L15.0878 7.74C14.8801 7.43097 14.8119 7.06078 14.8958 6.69785Z" fill="#000D44"/>
<path d="M39.9891 12.471L40.2742 12.6357H40.2743C40.7563 12.914 41.2862 13.047 41.8106 13.047C42.8094 13.047 43.7888 12.5646 44.3804 11.6848L46.3739 8.72093C46.8497 8.01358 47.0121 7.13163 46.8199 6.30124C46.6275 5.47073 46.094 4.75003 45.3557 4.3237L44.647 3.91471C43.909 3.4885 43.0184 3.38667 42.2026 3.63534C41.3872 3.88401 40.7046 4.46573 40.3299 5.23155L38.7599 8.43991C38.0489 9.8921 38.5892 11.6628 39.9891 12.471ZM40.3385 9.21253L41.9085 6.00428C42.0723 5.6696 42.3588 5.42538 42.7152 5.31675C43.0717 5.20799 43.4454 5.25077 43.768 5.4371L44.4767 5.84608C44.7993 6.03241 45.0232 6.33487 45.1074 6.69792C45.1914 7.06085 45.1232 7.43104 44.9152 7.74018L42.9217 10.7041C42.5331 11.2819 41.7562 11.4618 41.1532 11.1137L40.868 10.949C40.2651 10.6006 40.0324 9.83807 40.3385 9.21253Z" fill="#000D44"/>
<path d="M33.2467 53.2374C33.1362 51.6244 31.783 50.361 30.1663 50.361H29.8369C28.2202 50.361 26.867 51.6245 26.7565 53.2374L26.512 56.801C26.4537 57.6514 26.7539 58.4966 27.3356 59.1197C27.9175 59.7428 28.74 60.1001 29.5926 60.1001H30.4105C31.2629 60.1001 32.0856 59.7428 32.6674 59.1197C33.2492 58.4966 33.5494 57.6515 33.491 56.801L33.2467 53.2374ZM31.3827 57.9198C31.1284 58.1921 30.7833 58.3421 30.4106 58.3421H29.5927C29.22 58.3421 28.8749 58.1921 28.6206 57.9198C28.3663 57.6474 28.2403 57.2928 28.2659 56.9211L28.5103 53.3576C28.5579 52.6628 29.1407 52.1187 29.837 52.1187H30.1664C30.8628 52.1187 31.4455 52.6629 31.4931 53.3576L31.7376 56.9211C31.763 57.2928 31.637 57.6476 31.3827 57.9198Z" fill="#000D44"/>
<path d="M44.3805 48.5149C43.4782 47.1735 41.6747 46.7558 40.2743 47.5643L39.9892 47.729C38.5891 48.5372 38.049 50.308 38.7597 51.7602L40.3297 54.9687C40.7045 55.7344 41.3871 56.3162 42.2025 56.5648C42.4957 56.6542 42.7985 56.6983 43.1006 56.6983C43.6387 56.6983 44.1742 56.5583 44.6469 56.2854L45.3555 55.8763C46.0938 55.45 46.6275 54.7293 46.8198 53.8988C47.0121 53.0683 46.8496 52.1863 46.3738 51.4791L44.3805 48.5149ZM45.1074 53.5021C45.0233 53.8651 44.7994 54.1676 44.4767 54.3538L43.7681 54.7629C43.4455 54.9491 43.0718 54.992 42.7153 54.8833C42.3589 54.7746 42.0725 54.5304 41.9086 54.1958L40.3386 50.9875C40.0326 50.3619 40.2651 49.5993 40.8683 49.2511H40.8684L41.1534 49.0866C41.3611 48.9667 41.5894 48.9094 41.8152 48.9094C42.2454 48.9094 42.6672 49.1172 42.9219 49.496L44.9154 52.4599C45.1233 52.769 45.1915 53.1392 45.1074 53.5021Z" fill="#000D44"/>
<path d="M20.0143 47.7289L19.7292 47.5643C18.3292 46.7559 16.5253 47.1734 15.6229 48.515L13.6295 51.4789C13.1537 52.1863 12.9913 53.0682 13.1835 53.8986C13.3759 54.7291 13.9094 55.4498 14.6477 55.8761L15.3563 56.2851C15.8291 56.5582 16.3646 56.698 16.9026 56.698C17.2046 56.698 17.5076 56.6539 17.8008 56.5645C18.6161 56.3158 19.2988 55.7341 19.6735 54.9683L21.2435 51.7599C21.9545 50.3079 21.4142 48.5372 20.0143 47.7289ZM19.665 50.9874L18.095 54.1957C17.9312 54.5304 17.6447 54.7746 17.2883 54.8832C16.9317 54.9918 16.558 54.9492 16.2355 54.7629L15.5269 54.3539C15.2042 54.1675 14.9803 53.8651 14.8961 53.502C14.8121 53.1391 14.8803 52.7689 15.0883 52.4598L17.0818 49.4959C17.3367 49.1169 17.7582 48.9092 18.1885 48.9092C18.4144 48.9092 18.6428 48.9665 18.8502 49.0863L19.1354 49.2509C19.7385 49.5993 19.971 50.3619 19.665 50.9874Z" fill="#000D44"/>
</g>
<defs>
<clipPath id="clip0_1517_1953">
<rect width="60" height="60" fill="white" transform="translate(0 0.0999756)"/>
</clipPath>
</defs>
</svg>
