<svg width="40" height="40" viewBox="0 0 40 40" fill="none" xmlns="http://www.w3.org/2000/svg">
<g clip-path="url(#clip0_1304_1440)">
<path d="M30.2312 30.5472L24.5012 28.0932C24.0251 27.8893 23.7174 27.4228 23.7174 26.9048V24.6044C25.8012 23.4048 27.2557 21.2297 27.4522 18.7071H27.8284C28.4353 18.7071 29.0169 18.4489 29.4242 17.9988C29.8312 17.5489 30.0297 16.9427 29.969 16.3356C29.9197 15.844 29.6905 15.401 29.3487 15.0634C29.3517 15.0393 29.3537 15.0148 29.3537 14.9899V13.1111C29.3537 10.0502 27.8758 7.32805 25.5962 5.62063C25.5955 2.53547 23.0854 0 20.0001 0C16.9165 0 14.4076 2.53281 14.4043 5.61578C14.1294 5.82149 13.8641 6.04273 13.6105 6.28008C11.8805 7.89891 10.8362 10.0877 10.67 12.4436C10.6472 12.7664 10.8904 13.0466 11.2132 13.0694C11.5346 13.0916 11.8162 12.849 11.839 12.5262C11.9843 10.4663 12.8979 8.55195 14.4112 7.13586C15.9317 5.71297 17.9165 4.92945 20.0001 4.92945C24.5115 4.92945 28.1819 8.59969 28.1819 13.1112V14.4476C28.0381 14.4193 27.8901 14.4041 27.739 14.4041H26.889C26.5215 14.4041 26.2225 14.1051 26.2225 13.7375V13.3241C26.2225 12.0577 25.5061 10.9553 24.4565 10.4009C24.996 10.0811 25.3062 9.86234 25.3508 9.83039C25.614 9.64242 25.6748 9.27687 25.487 9.01359C25.2993 8.75031 24.9334 8.68906 24.67 8.87656C24.6301 8.905 20.6117 11.7273 14.9103 12.4591C14.2647 12.542 13.7778 13.0904 13.7778 13.7374C13.7778 14.105 13.4788 14.404 13.1112 14.404H12.1719C11.5651 14.404 10.9835 14.6622 10.5762 15.1123C10.1691 15.5621 9.97053 16.1683 10.0313 16.7753C10.1397 17.8586 11.1192 18.7072 12.2613 18.7072H12.5479C12.6847 20.4829 13.4419 22.1338 14.7147 23.4066C15.1891 23.8811 15.7164 24.2836 16.2828 24.6094V26.9048C16.2828 27.4228 15.9751 27.8893 15.499 28.0932L9.76904 30.5472C8.3999 31.1336 7.51514 32.4748 7.51514 33.9642V39.4141C7.51514 39.7377 7.7774 40 8.10107 40C8.42475 40 8.68701 39.7377 8.68701 39.4141V33.9642C8.68701 32.9443 9.29279 32.0259 10.2304 31.6245L13.7777 30.1052V33.818H11.8587C10.845 33.818 10.0203 34.6428 10.0203 35.6565V38.1615C10.0203 39.1752 10.8451 39.9999 11.8587 39.9999C12.1824 39.9999 12.4447 39.7377 12.4447 39.414C12.4447 39.0903 12.1824 38.828 11.8587 38.828C11.4912 38.828 11.1922 38.5291 11.1922 38.1615V35.6565C11.1922 35.2889 11.4912 34.9899 11.8587 34.9899H16.8688C17.2364 34.9899 17.5354 35.2889 17.5354 35.6565V38.1615C17.5354 38.5291 17.2364 38.828 16.8688 38.828C16.5451 38.828 16.2829 39.0903 16.2829 39.414C16.2829 39.7377 16.5451 39.9999 16.8688 39.9999C17.8826 39.9999 18.7072 39.1752 18.7072 38.1615V35.6565C18.7072 34.6427 17.8825 33.818 16.8688 33.818H14.9497V30.4888L18.9804 33.1759C19.2901 33.3823 19.6451 33.4855 20.0002 33.4855C20.3552 33.4855 20.7103 33.3823 21.0201 33.1758L25.0507 30.4887V35.1415C23.9737 35.4052 23.1719 36.378 23.1719 37.5352C23.1719 38.8943 24.2775 40 25.6366 40C26.9957 40 28.1013 38.8944 28.1013 37.5352C28.1013 36.3781 27.2996 35.4052 26.2226 35.1415V30.1052L29.77 31.6244C30.7075 32.0259 31.3133 32.9443 31.3133 33.9641V39.4141C31.3133 39.7377 31.5755 40 31.8992 40C32.2229 40 32.4851 39.7377 32.4851 39.4141V33.9642C32.4851 32.4748 31.6003 31.1336 30.2312 30.5472ZM15.6433 4.83234C16.0064 2.7557 17.8212 1.17188 20.0001 1.17188C22.1807 1.17188 23.9965 2.75797 24.3577 4.8368C23.0556 4.14828 21.5727 3.75758 20.0001 3.75758C18.4634 3.75758 16.974 4.13094 15.6433 4.83234ZM13.6973 18.1212C13.6973 17.9658 13.6356 17.8168 13.5257 17.7068C13.4158 17.597 13.2668 17.5352 13.1113 17.5352L12.2612 17.5353C11.7139 17.5353 11.2466 17.1502 11.1974 16.6586C11.1691 16.3763 11.2571 16.1063 11.4451 15.8985C11.6307 15.6934 11.8956 15.5758 12.1719 15.5758H13.1112C14.125 15.5758 14.9497 14.751 14.9497 13.7348C14.9497 13.6773 14.9958 13.6295 15.0594 13.6214C18.4146 13.1907 21.1787 12.0967 22.9953 11.1934C24.1355 11.2339 25.0505 12.1741 25.0505 13.324V13.7373C25.0505 14.7511 25.8753 15.5758 26.889 15.5758H27.7389C28.2862 15.5758 28.7536 15.9609 28.8028 16.4524C28.8311 16.7348 28.7431 17.0047 28.5551 17.2125C28.3696 17.4176 28.1047 17.5352 27.8283 17.5352L26.8889 17.5353C26.5653 17.5353 26.303 17.7977 26.303 18.1213C26.303 21.5966 23.4756 24.4241 20.0001 24.4241C18.3165 24.4241 16.7337 23.7685 15.5433 22.578C14.3529 21.3876 13.6973 19.8048 13.6973 18.1212ZM20.3699 32.2007C20.1454 32.3505 19.855 32.3505 19.6303 32.2008L15.4273 29.3987L15.9604 29.1705C16.8682 28.7816 17.4547 27.8923 17.4547 26.9048V25.1532C18.2601 25.4441 19.1184 25.596 20.0002 25.596C20.8936 25.596 21.7507 25.438 22.5455 25.1492V26.9048C22.5455 27.8923 23.1321 28.7816 24.0398 29.1705L24.573 29.3987L20.3699 32.2007ZM26.9293 37.5352C26.9293 38.2481 26.3494 38.8281 25.6365 38.8281C24.9236 38.8281 24.3436 38.2481 24.3436 37.5352C24.3436 36.8223 24.9236 36.2424 25.6365 36.2424C26.3494 36.2424 26.9293 36.8223 26.9293 37.5352Z" fill="#1F5FFF"/>
<path d="M16.8687 15.6565C16.545 15.6565 16.2827 15.9188 16.2827 16.2424V16.8687C16.2827 17.1924 16.545 17.4546 16.8687 17.4546C17.1923 17.4546 17.4546 17.1924 17.4546 16.8687V16.2424C17.4546 15.9188 17.1923 15.6565 16.8687 15.6565Z" fill="#04CE78"/>
<path d="M23.1313 17.4546C23.455 17.4546 23.7173 17.1924 23.7173 16.8687V16.2424C23.7173 15.9188 23.455 15.6565 23.1313 15.6565C22.8077 15.6565 22.5454 15.9188 22.5454 16.2424V16.8687C22.5454 17.1924 22.8077 17.4546 23.1313 17.4546Z" fill="#04CE78"/>
<path d="M22.3309 19.6273C22.1249 19.3776 21.7558 19.3421 21.506 19.5478C21.1263 19.8608 20.5774 20.0403 19.9999 20.0403C19.4225 20.0403 18.8735 19.8608 18.4938 19.5478C18.2441 19.3419 17.8748 19.3775 17.669 19.6273C17.4631 19.877 17.4987 20.2463 17.7485 20.4521C18.3431 20.9423 19.1428 21.2122 19.9999 21.2122C20.8571 21.2122 21.6568 20.9423 22.2514 20.4521C22.5012 20.2463 22.5367 19.877 22.3309 19.6273Z" fill="#04CE78"/>
<path d="M38.7431 28.5525L36.2704 27.7283C36.2538 27.7228 36.2427 27.7073 36.2427 27.69V26.0787C37.3767 25.2942 38.1214 23.9853 38.1214 22.505V20.6263C38.1214 18.9219 36.7348 17.5353 35.0305 17.5353H32.5255C30.8212 17.5353 29.4346 18.9219 29.4346 20.6263V22.505C29.4346 23.9853 30.1794 25.2943 31.3134 26.0788V27.69C31.3134 27.7074 31.3022 27.7228 31.2858 27.7282L30.4615 28.003C30.1545 28.1054 29.9886 28.4372 30.0909 28.7441C30.1728 28.9897 30.4014 29.145 30.6467 29.145C30.7081 29.145 30.7706 29.1352 30.832 29.1147L31.3597 28.9388L33.0507 30.207C33.2649 30.3676 33.5214 30.4479 33.7782 30.4479C34.0347 30.4479 34.2913 30.3676 34.5054 30.207L35.6972 29.3132V32.0355C34.97 32.2807 34.4447 32.9688 34.4447 33.7777C34.4447 34.7915 35.2695 35.6161 36.2832 35.6161C37.2968 35.6161 38.1216 34.7914 38.1216 33.7777C38.1216 32.9689 37.5963 32.2808 36.8691 32.0355V29.1631L38.3728 29.6643C38.6454 29.7551 38.8286 30.0092 38.8286 30.2966V35.0302C38.8286 35.3539 39.0908 35.6161 39.4145 35.6161C39.7382 35.6161 40.0004 35.3539 40.0004 35.0302V30.2966C40.0002 29.504 39.495 28.8031 38.7431 28.5525ZM30.6063 22.505V20.6262C30.6063 19.5679 31.4672 18.7071 32.5254 18.7071H35.0303C36.0886 18.7071 36.9494 19.568 36.9494 20.6262V22.505C36.9494 24.2538 35.5266 25.6766 33.7778 25.6766C32.0289 25.6766 30.6063 24.2538 30.6063 22.505ZM33.802 29.2696C33.7878 29.2801 33.7679 29.2802 33.7537 29.2695L32.3605 28.2247C32.4405 28.0619 32.485 27.88 32.485 27.6899V26.6519C32.8936 26.7796 33.3278 26.8484 33.7779 26.8484C34.2279 26.8484 34.6621 26.7795 35.0707 26.6519V27.6899C35.0707 27.88 35.1154 28.0619 35.1953 28.2247L33.802 29.2696ZM36.2829 34.4443C35.9154 34.4443 35.6164 34.1453 35.6164 33.7777C35.6164 33.4101 35.9154 33.1111 36.2829 33.1111C36.6505 33.1111 36.9495 33.4101 36.9495 33.7777C36.9495 34.1453 36.6505 34.4443 36.2829 34.4443Z" fill="#04CE78"/>
<path d="M5.49492 30.207C5.70906 30.3677 5.96563 30.4479 6.22234 30.4479C6.47891 30.4479 6.73547 30.3677 6.94969 30.2071L8.6407 28.9389L9.16844 29.1147C9.22984 29.1353 9.29234 29.145 9.35375 29.145C9.59906 29.145 9.82766 28.9897 9.90953 28.7441C10.0119 28.4372 9.84594 28.1053 9.53891 28.003L8.71477 27.7283C8.6982 27.7228 8.68711 27.7073 8.68711 27.69V26.0788C9.82109 25.2943 10.5659 23.9853 10.5659 22.505V20C10.5659 18.641 9.46031 17.5353 8.10117 17.5353H4.34352C2.98445 17.5353 1.87883 18.6409 1.87883 20V22.505C1.87883 23.9853 2.62359 25.2942 3.75758 26.0787V27.69C3.75758 27.7074 3.74641 27.7228 3.72992 27.7282L1.25719 28.5525C0.505234 28.8032 0 29.504 0 30.2967V35.0303C0 35.3539 0.262266 35.6162 0.585938 35.6162C0.909609 35.6162 1.17188 35.3539 1.17188 35.0303V30.2967C1.17188 30.0093 1.35508 29.7552 1.62773 29.6643L3.75758 28.9543V31.9393H3.09102C2.42258 31.9393 1.87883 32.4831 1.87883 33.1515V34.404C1.87883 35.0725 2.42258 35.6162 3.09102 35.6162C3.41469 35.6162 3.67695 35.3539 3.67695 35.0303C3.67695 34.7066 3.41469 34.4443 3.09102 34.4443C3.06883 34.4443 3.0507 34.4263 3.0507 34.404V33.1515C3.0507 33.1293 3.06875 33.1111 3.09102 33.1111H5.59602C5.61828 33.1111 5.63641 33.1292 5.63641 33.1515V34.404C5.63641 34.4262 5.61836 34.4443 5.59602 34.4443C5.27234 34.4443 5.01008 34.7066 5.01008 35.0303C5.01008 35.3539 5.27234 35.6162 5.59602 35.6162C6.26445 35.6162 6.80828 35.0725 6.80828 34.404V33.1515C6.80828 32.4831 6.26445 31.9393 5.59602 31.9393H4.92945V29.7829L5.49492 30.207ZM4.34352 18.7072H8.10109C8.81398 18.7072 9.39398 19.2872 9.39398 20V21.2684C7.51461 21.1117 6.19656 20.2389 5.68727 19.8429C5.25812 19.5093 4.65398 19.5046 4.21836 19.8312L3.05078 20.707V20C3.0507 19.2872 3.63063 18.7072 4.34352 18.7072ZM3.0507 22.505V22.1718L4.92141 20.7686C4.93039 20.7618 4.94852 20.753 4.96781 20.768C5.71664 21.3501 7.24211 22.2939 9.39391 22.4437V22.505C9.39391 24.2538 7.97109 25.6766 6.22227 25.6766C4.47344 25.6766 3.0507 24.2539 3.0507 22.505ZM6.22234 26.8486C6.67234 26.8486 7.10664 26.7797 7.51516 26.6521V27.69C7.51516 27.8802 7.55969 28.0621 7.63969 28.2248L6.24648 29.2696C6.23227 29.2803 6.21227 29.2803 6.19812 29.2696L4.80492 28.2247C4.88492 28.062 4.92945 27.8801 4.92945 27.69V26.652C5.33797 26.7797 5.77227 26.8486 6.22234 26.8486Z" fill="#04CE78"/>
</g>
<defs>
<clipPath id="clip0_1304_1440">
<rect width="40" height="40" fill="white"/>
</clipPath>
</defs>
</svg>
