<svg width="50" height="50" viewBox="0 0 50 50" fill="none" xmlns="http://www.w3.org/2000/svg">
<g clip-path="url(#clip0_124_6579)">
<path d="M35.8764 30.2494L33.5411 26.5343C33.3172 26.178 33.3133 25.7259 33.5311 25.3658L34.404 23.9223C35.6517 21.8591 36.0392 19.3744 35.4155 17.0454C33.5313 10.0099 27.1114 4.8291 19.4814 4.8291H13.9736C6.66956 4.8292 0.746802 10.7432 0.732446 18.0438C0.726489 21.0939 1.8052 24.0474 3.70618 26.4327L6.12327 29.4658C6.74553 30.2467 6.98538 31.2651 6.77688 32.2415L4.14309 44.5806C4.07825 44.8845 4.30989 45.1708 4.62063 45.1708H18.4472C18.6825 45.1708 18.8844 45.0029 18.9273 44.7715L20.0155 38.9007L28.2032 40.4763C29.4569 40.777 30.7202 40.0179 31.0434 38.7699L32.1378 34.5437C32.225 34.2068 32.4503 33.9224 32.7582 33.7603L35.2916 32.426C36.0831 32.0092 36.3525 31.0068 35.8764 30.2494Z" fill="#04CE78"/>
<path d="M20.0117 38.9209L17.6797 38.4722C17.4519 38.4284 17.2321 38.5784 17.1898 38.8064L16.0101 45.1708H18.4471C18.6825 45.1708 18.8844 45.0029 18.9272 44.7714L20.0117 38.9209Z" fill="#1F5FFF"/>
<path d="M35.8763 30.2494L33.5411 26.5342C33.3172 26.178 33.3133 25.7258 33.531 25.3658L34.404 23.9222C35.6686 21.8308 36.0365 19.3105 35.3905 16.9534C33.6139 10.4707 27.9807 5.58335 21.1112 4.90942C26.7052 6.44595 31.1108 10.8538 32.6427 16.4498C33.2877 18.8055 32.9189 21.3242 31.6551 23.4142L30.7821 24.8578C30.5643 25.2178 30.5682 25.67 30.7922 26.0262L33.1274 29.7414C33.6035 30.4988 33.3342 31.5011 32.5427 31.9179L30.0093 33.2522C29.7013 33.4144 29.4761 33.6989 29.3888 34.0357L28.2944 38.2619C28.0084 39.3663 26.986 40.0872 25.8857 40.0301L28.2032 40.4761C29.4568 40.7768 30.7202 40.0178 31.0433 38.7698L32.1378 34.5436C32.225 34.2067 32.4503 33.9222 32.7582 33.7601L35.2916 32.4259C36.0831 32.0091 36.3524 31.0068 35.8763 30.2494Z" fill="#1F5FFF"/>
<path d="M13.7135 21.4422V25.7048C13.7135 26.7302 13.2909 27.7103 12.5452 28.4141L12.0774 28.8555C11.2836 29.6046 10.8337 30.6477 10.8337 31.7391V35.7985H13.7135V33.4303C13.7135 31.9076 14.6383 30.5333 16.0602 29.9434L18.3358 28.9993C19.7576 28.4093 20.6825 27.0351 20.6825 25.5124V18.8245L13.7135 21.4422Z" fill="#F9DBEB"/>
<path d="M19.3037 21.0374H26.4184C29.7354 21.0374 31.782 17.3518 29.4126 15.4564C29.7812 12.0868 26.6468 9.92811 24.8707 10.1913C23.7263 8.08524 19.5142 7.4534 17.8294 8.45379C15.7234 6.76893 10.5635 8.08524 9.29995 10.6651C7.08862 11.1916 4.56147 14.0347 5.45649 16.4567C2.77134 18.7207 5.98296 26.1445 10.7216 25.0915C13.5647 26.2499 19.1984 26.1972 19.3037 21.0374Z" fill="white"/>
<path d="M12.8235 25.627C15.7023 25.9984 19.2207 25.1049 19.3037 21.0374H17.684C17.3143 21.0374 17.0043 21.3146 16.96 21.6817C16.6519 24.2333 14.8358 25.3433 12.8235 25.627Z" fill="#1F5FFF"/>
<path d="M29.4126 15.4564C29.7812 12.0868 26.6468 9.9281 24.8706 10.1913C23.8328 8.28133 20.2721 7.58396 18.3613 8.21678C20.3896 8.53426 22.66 9.58357 23.0597 10.9725C24.8358 10.7093 27.9702 12.8679 27.6017 16.2377C29.971 18.1331 27.7612 21.0374 24.1191 21.0374H26.4185C29.7354 21.0374 31.7819 17.3518 29.4126 15.4564Z" fill="#1F5FFF"/>
<path d="M49.2788 21.3441C49.3666 20.4614 48.7222 19.6746 47.8395 19.5868C46.9567 19.499 46.17 20.1433 46.0821 21.0261C45.9943 21.9088 46.6387 22.6956 47.5214 22.7834C48.4041 22.8712 49.1909 22.2269 49.2788 21.3441Z" fill="#04CE78"/>
<path d="M41.046 24.9608C41.1338 24.0781 40.4894 23.2913 39.6067 23.2035C38.724 23.1157 37.9372 23.76 37.8493 24.6428C37.7615 25.5255 38.4059 26.3123 39.2886 26.4001C40.1713 26.4879 40.9581 25.8436 41.046 24.9608Z" fill="#04CE78"/>
<path d="M44.2613 16.713C44.3491 15.8303 43.7047 15.0435 42.822 14.9557C41.9393 14.8679 41.1525 15.5122 41.0647 16.395C40.9768 17.2777 41.6212 18.0645 42.504 18.1523C43.3867 18.2401 44.1735 17.5958 44.2613 16.713Z" fill="#04CE78"/>
<path d="M23.6675 38.8574L20.1539 38.1813C19.9623 38.1447 19.7639 38.1855 19.6028 38.2955C19.4415 38.4055 19.3309 38.5752 19.2953 38.767L18.1331 45.0371C18.0594 45.4349 18.3221 45.817 18.7198 45.8907C18.765 45.8991 18.8098 45.9031 18.8541 45.9031C19.2002 45.9031 19.5081 45.6568 19.5735 45.3041L20.6012 39.7591L23.3905 40.2959C23.7877 40.3718 24.1718 40.1122 24.2482 39.7151C24.3245 39.3179 24.0647 38.934 23.6675 38.8574Z" fill="#000D44"/>
<path d="M21.415 25.5126V21.7697H26.4183C28.459 21.7697 30.3265 20.5094 30.9595 18.7049C31.4201 17.392 31.1236 16.0903 30.17 15.1505C30.2376 13.5571 29.6332 12.0689 28.445 10.9252C27.5016 10.0172 26.3 9.46657 25.2562 9.43855C24.6296 8.5947 23.5657 7.93698 22.2053 7.56247C20.6355 7.13034 19.0073 7.15661 17.8909 7.60964C16.7702 6.949 15.1182 6.7862 13.3555 7.18103C11.315 7.63796 9.60943 8.71882 8.80641 10.0426C7.35943 10.5035 5.91617 11.7278 5.13824 13.1809C4.58062 14.2225 4.40855 15.272 4.63092 16.2454C3.90982 17.078 3.61578 18.2895 3.79986 19.7158C3.85162 20.1169 4.21891 20.4001 4.61998 20.3485C5.02115 20.2967 5.30445 19.9296 5.25269 19.5284C5.15123 18.7423 5.24527 18.0555 5.51061 17.5492C6.89732 18.7146 8.91158 19.1568 10.7598 18.4176C11.1354 18.2673 11.318 17.8411 11.1678 17.4655C11.0176 17.0899 10.5916 16.9071 10.2158 17.0574C8.62535 17.6938 6.94303 17.0467 6.10807 16.094C5.84557 15.2531 6.13297 14.427 6.42975 13.8723C7.05621 12.702 8.26773 11.6959 9.39762 11.3974H9.69615C11.0234 11.3974 12.1032 12.4773 12.1032 13.8045V14.0944C12.1032 15.5492 13.2868 16.7329 14.7417 16.7329H15.7124C16.1169 16.7329 16.4448 16.4051 16.4448 16.0005C16.4448 15.5959 16.1169 15.268 15.7124 15.268H14.7417C14.0945 15.268 13.568 14.7416 13.568 14.0944V13.8045C13.568 12.0108 12.342 10.4986 10.684 10.0607C11.4 9.41071 12.4697 8.88054 13.6757 8.61042C15.0368 8.30573 16.3057 8.39821 17.0971 8.84304V10.6872C17.0971 12.3779 18.4725 13.7533 20.1632 13.7533H21.9862C22.3907 13.7533 22.7186 13.4255 22.7186 13.0209C22.7186 12.6163 22.3907 12.2884 21.9862 12.2884H20.163C19.28 12.2884 18.5618 11.5702 18.5618 10.6872V8.92253C19.3675 8.64323 20.6508 8.65398 21.8166 8.97487C22.982 9.29577 23.8606 9.86657 24.2271 10.541C24.3739 10.8113 24.674 10.9615 24.978 10.9158C25.5397 10.8327 26.5458 11.1304 27.4291 11.9806C27.9571 12.4889 28.8024 13.5657 28.7012 15.1764L28.2069 15.8066C27.6752 16.4843 26.8761 16.8731 26.0146 16.8731H25.392C24.9875 16.8731 24.6595 17.2009 24.6595 17.6055C24.6595 18.0101 24.9875 18.338 25.392 18.338H26.0146C27.329 18.338 28.5481 17.7449 29.3593 16.7108L29.4557 16.588C29.8274 17.205 29.7095 17.843 29.5773 18.2201C29.2251 19.2242 28.0863 20.305 26.4183 20.305C25.5158 20.305 20.1072 20.305 19.3036 20.305C18.9048 20.305 18.5795 20.6239 18.5712 21.0224C18.5417 22.4722 18.0191 23.5411 17.018 24.1995C15.5303 25.1779 13.1533 25.1258 11.4539 24.5783V22.5849C11.4539 21.3225 12.4809 20.2956 13.7432 20.2956H15.3547C15.7592 20.2956 16.0872 19.9677 16.0872 19.5632C16.0872 19.1586 15.7592 18.8307 15.3547 18.8307H13.7432C11.6732 18.8307 9.98902 20.5149 9.98902 22.5849V24.4556C8.13678 24.5563 6.88209 23.0925 6.40084 22.4089C6.16783 22.0781 5.71109 21.9987 5.38033 22.2316C5.04957 22.4645 4.97018 22.9214 5.20309 23.2521C6.60562 25.2441 8.62887 26.2028 10.6542 25.8513C11.3383 26.1063 12.1169 26.2836 12.9045 26.3717C12.7726 26.944 12.4747 27.4732 12.0421 27.8814L11.5744 28.3228C10.6383 29.2059 10.1014 30.4511 10.1014 31.7392V35.7988C10.1014 36.2034 10.4294 36.5312 10.8338 36.5312C11.2383 36.5312 11.5663 36.2034 11.5663 35.7988V31.7392C11.5663 30.8527 11.9356 29.9958 12.5796 29.3882L13.0474 28.9468C13.7592 28.275 14.2271 27.3833 14.3856 26.4275C17.276 26.3071 19.4915 24.8582 19.95 22.0138V25.5127C19.95 26.7421 19.2061 27.845 18.0549 28.3225L15.7796 29.2668C14.0796 29.972 12.9812 31.6064 12.9812 33.4306V35.7988C12.9812 36.2034 13.3091 36.5312 13.7136 36.5312C14.1181 36.5312 14.4461 36.2034 14.4461 35.7988V33.4306C14.4461 32.2007 15.1898 31.0973 16.3411 30.6198L18.6164 29.6756C20.3166 28.9702 21.415 27.3362 21.415 25.5126Z" fill="#000D44"/>
<path d="M47.6612 18.8301C46.6274 18.8301 45.7487 19.5045 45.4405 20.4363H45.111L44.1928 18.2921C44.6776 17.8633 44.9842 17.2372 44.9842 16.5404C44.9842 15.2508 43.935 14.2017 42.6454 14.2017C41.3559 14.2017 40.3066 15.2508 40.3066 16.5404C40.3066 17.2642 40.6371 17.912 41.155 18.3414L39.5483 22.4489C39.51 22.447 39.4714 22.446 39.4326 22.446C39.2174 22.446 39.0092 22.4758 38.811 22.5305L37.6476 20.7656C37.512 20.5601 37.2823 20.4363 37.036 20.4363H36.3668C36.513 19.2401 36.4353 18.0227 36.1228 16.8559C34.1109 9.34355 27.2678 4.09668 19.4813 4.09668H13.9736C6.26846 4.09668 0 10.3652 0 18.0702C0 21.2217 1.08164 24.3144 3.04561 26.7789L5.55049 29.9222C6.03799 30.534 6.22393 31.3235 6.06064 32.0886L3.30078 45.0178C3.21641 45.4134 3.46855 45.8024 3.86426 45.8869C3.91582 45.8979 3.96719 45.9032 4.01787 45.9032C4.35605 45.9031 4.65996 45.6676 4.7335 45.3234L7.49336 32.3941C7.74854 31.1988 7.45801 29.965 6.69619 29.0092L4.19131 25.8659C2.43311 23.6598 1.46484 20.8913 1.46484 18.0702C1.46484 11.1729 7.07617 5.56152 13.9735 5.56152H19.4813C26.6058 5.56152 32.8672 10.3617 34.7078 17.2349C35.2704 19.3355 34.9312 21.6349 33.7771 23.5433L32.9042 24.9867C32.5409 25.5875 32.5475 26.3299 32.921 26.9239L35.2562 30.6392C35.3767 30.8308 35.4107 31.0566 35.352 31.2753C35.2932 31.4938 35.1506 31.6724 34.9503 31.7778L32.417 33.1121C31.9275 33.3698 31.5674 33.8246 31.4287 34.36L30.3343 38.5861C30.1127 39.4415 29.2332 39.9695 28.374 39.764C28.3633 39.7614 28.3524 39.759 28.3416 39.7569L27.028 39.5041C26.6304 39.4274 26.2468 39.6877 26.1704 40.085C26.0939 40.4821 26.354 40.8661 26.7512 40.9426L28.0496 41.1925C29.6746 41.5721 31.3334 40.5712 31.7524 38.9533L32.8469 34.7271C32.8823 34.5903 32.9744 34.474 33.0995 34.4081L35.6328 33.0738C36.19 32.7804 36.6032 32.2633 36.7666 31.6553C36.93 31.0471 36.8314 30.3926 36.4963 29.8596L34.161 26.1442C34.084 26.0217 34.0827 25.8687 34.1576 25.7446L35.0305 24.3012C35.4877 23.5451 35.8356 22.7362 36.0715 21.9012H36.6416L37.5925 23.3437C37.2805 23.7411 37.0937 24.2414 37.0937 24.7848C37.0937 26.0744 38.1429 27.1235 39.4324 27.1235C40.7221 27.1235 41.7713 26.0744 41.7713 24.7848C41.7713 24.0572 41.4373 23.4062 40.9146 22.977L42.5188 18.8757C42.6276 18.8815 42.7249 18.8805 42.8465 18.8699L43.9545 21.457C44.0699 21.7264 44.3348 21.9011 44.6278 21.9011H45.4403C45.7484 22.833 46.6272 23.5075 47.6611 23.5075C48.9508 23.5075 49.9999 22.4584 49.9999 21.1688C49.9999 19.8791 48.9508 18.8301 47.6612 18.8301ZM39.4326 25.6588C38.9507 25.6588 38.5587 25.2667 38.5587 24.7849C38.5587 24.3051 38.9495 23.9109 39.4326 23.9109C39.9146 23.9109 40.3066 24.303 40.3066 24.7849C40.3066 25.2667 39.9146 25.6588 39.4326 25.6588ZM42.6454 15.6666C43.1273 15.6666 43.5193 16.0587 43.5193 16.5405C43.5193 17.0224 43.1272 17.4145 42.6454 17.4145C42.1636 17.4145 41.7715 17.0224 41.7715 16.5405C41.7715 16.0587 42.1635 15.6666 42.6454 15.6666ZM47.6612 22.0429C47.1793 22.0429 46.7872 21.6508 46.7872 21.1689C46.7872 20.6871 47.1793 20.295 47.6612 20.295C48.1432 20.295 48.5352 20.6871 48.5352 21.1689C48.5352 21.6508 48.1431 22.0429 47.6612 22.0429Z" fill="#000D44"/>
</g>
<defs>
<clipPath id="clip0_124_6579">
<rect width="50" height="50" fill="white"/>
</clipPath>
</defs>
</svg>
