<svg width="50" height="50" viewBox="0 0 50 50" fill="none" xmlns="http://www.w3.org/2000/svg">
<g clip-path="url(#clip0_302_8470)">
<path d="M39.8405 33.2438C39.8405 42.0935 32.6664 49.2676 23.8168 49.2676C14.9672 49.2676 7.79297 42.0934 7.79297 33.2438C7.79297 21.6179 18.5286 8.04148 22.4251 3.49685C23.157 2.64314 24.4764 2.64314 25.2083 3.49685C29.1048 8.04148 39.8405 21.6179 39.8405 33.2438Z" fill="#04CE78"/>
<path d="M25.2085 3.49673C24.4766 2.64302 23.1572 2.64302 22.4253 3.49673C22.1806 3.78218 21.9087 4.10347 21.6143 4.45747C26.0063 9.7395 35.4354 22.3481 35.4354 33.2437C35.4354 41.346 29.4216 48.0426 21.6143 49.1161C22.3345 49.2151 23.0694 49.2674 23.8168 49.2674C32.6665 49.2674 39.8406 42.0933 39.8406 33.2437C39.8407 21.6179 29.105 8.04145 25.2085 3.49673Z" fill="#1F5FFF"/>
<path d="M38.4718 19.9133C43.7684 19.9133 48.0622 15.6195 48.0622 10.3229C48.0622 5.0262 43.7684 0.732422 38.4718 0.732422C33.1751 0.732422 28.8813 5.0262 28.8813 10.3229C28.8813 15.6195 33.1751 19.9133 38.4718 19.9133Z" fill="#F2FBFF"/>
<path d="M38.4717 0.732422C37.7283 0.732422 37.0048 0.816992 36.3101 0.977051C40.5657 1.95732 43.7389 5.76953 43.7389 10.3228C43.7389 14.876 40.5656 18.6882 36.3101 19.6685C37.0048 19.8285 37.7283 19.9131 38.4717 19.9131C43.7683 19.9131 48.0621 15.6193 48.0621 10.3227C48.0621 5.02598 43.7683 0.732422 38.4717 0.732422Z" fill="#DFF6FD"/>
<path d="M43.9013 8.05378H40.7409V4.89353C40.7409 4.42986 40.365 4.05408 39.9015 4.05408H37.0424C36.5787 4.05408 36.2029 4.42996 36.2029 4.89353V8.05388H33.0426C32.579 8.05388 32.2031 8.42976 32.2031 8.89333V11.7524C32.2031 12.2161 32.579 12.5919 33.0426 12.5919H36.2029V15.7522C36.2029 16.2158 36.5788 16.5917 37.0424 16.5917H39.9015C40.3651 16.5917 40.7409 16.2158 40.7409 15.7522V12.5918H43.9013C44.3649 12.5918 44.7407 12.2159 44.7407 11.7523V8.89324C44.7407 8.42966 44.3648 8.05378 43.9013 8.05378Z" fill="#04CE78"/>
<path d="M44.7407 8.89355V11.752C44.7407 12.2158 44.3647 12.5918 43.9009 12.5918H43.4683C43.645 11.8643 43.7388 11.1045 43.7388 10.3232C43.7388 9.54102 43.645 8.78125 43.4683 8.05371H43.9009C44.3647 8.05371 44.7407 8.42969 44.7407 8.89355Z" fill="#04CE78"/>
<path d="M14.0302 32.1574C17.353 28.8345 18.0097 24.1038 15.4969 21.591C12.9842 19.0783 8.25345 19.735 4.93061 23.0578C1.60776 26.3806 0.951073 31.1114 3.46385 33.6241C5.97664 36.1369 10.7073 35.4802 14.0302 32.1574Z" fill="#1F5FFF"/>
<path d="M15.502 21.5922C14.1717 20.2619 12.2199 19.8203 10.1846 20.1916C11.205 20.3978 12.1274 20.8592 12.8604 21.5922C15.3736 24.1054 14.7169 28.8368 11.3936 32.1602C9.8293 33.7244 7.95303 34.6975 6.14307 35.0276C8.62129 35.5283 11.6811 34.5142 14.0352 32.1602C17.3584 28.8368 18.0151 24.1054 15.502 21.5922Z" fill="#1F5FFF"/>
<path d="M23.8167 46.1443C27.3708 46.1443 30.2521 42.3343 30.2521 37.6344C30.2521 32.9344 27.3708 29.1244 23.8167 29.1244C20.2626 29.1244 17.3813 32.9344 17.3813 37.6344C17.3813 42.3343 20.2626 46.1443 23.8167 46.1443Z" fill="#1F5FFF"/>
<path d="M23.8169 29.1244C23.365 29.1244 22.9241 29.1863 22.4985 29.3034C25.4203 30.1078 27.6155 33.5319 27.6155 37.6343C27.6155 41.7366 25.4203 45.1607 22.4985 45.9651C22.9241 46.0823 23.365 46.1441 23.8169 46.1441C27.3711 46.1441 30.2522 42.3341 30.2522 37.6342C30.2523 32.9344 27.3711 29.1244 23.8169 29.1244Z" fill="#1F5FFF"/>
<path d="M25.2645 22.9922C26.5058 21.7509 26.7511 19.9837 25.8124 19.045C24.8737 18.1063 23.1065 18.3516 21.8652 19.5929C20.6239 20.8342 20.3786 22.6014 21.3173 23.5401C22.256 24.4788 24.0232 24.2334 25.2645 22.9922Z" fill="#1F5FFF"/>
<path d="M25.8177 19.0444C25.1225 18.3492 23.9729 18.304 22.919 18.8311C23.0101 18.8939 23.0963 18.9645 23.1762 19.0444C24.115 19.9833 23.8696 21.7507 22.6282 22.9922C22.3061 23.3143 21.9484 23.5687 21.5791 23.7534C22.5581 24.4293 24.1339 24.128 25.2697 22.9922C26.5111 21.7508 26.7565 19.9833 25.8177 19.0444Z" fill="#1F5FFF"/>
<path d="M35.4705 13.3242V15.7521C35.4705 16.6188 36.1757 17.324 37.0424 17.324H39.9015C40.7682 17.324 41.4733 16.6188 41.4733 15.7521V13.3242H43.9012C44.768 13.3242 45.4731 12.619 45.4731 11.7523V8.89324C45.4731 8.02654 44.768 7.32136 43.9012 7.32136H41.4733V4.89353C41.4733 4.02683 40.7682 3.32166 39.9015 3.32166H37.0424C36.1757 3.32166 35.4705 4.02683 35.4705 4.89353V7.32136H33.0427C32.1759 7.32136 31.4707 8.02654 31.4707 8.89324V11.7523C31.4707 12.619 32.1759 13.3242 33.0427 13.3242H35.4705ZM32.9355 11.7523V8.89324C32.9355 8.83425 32.9836 8.78621 33.0427 8.78621H36.2029C36.6075 8.78621 36.9354 8.45828 36.9354 8.05378V4.89353C36.9354 4.83455 36.9833 4.7865 37.0424 4.7865H39.9015C39.9604 4.7865 40.0085 4.83455 40.0085 4.89353V8.05378C40.0085 8.45828 40.3363 8.78621 40.7409 8.78621H43.9012C43.9602 8.78621 44.0083 8.83425 44.0083 8.89324V11.7523C44.0083 11.8113 43.9603 11.8594 43.9012 11.8594H40.7409C40.3363 11.8594 40.0085 12.1873 40.0085 12.5918V15.7521C40.0085 15.8111 39.9605 15.8592 39.9015 15.8592H37.0424C36.9834 15.8592 36.9354 15.8111 36.9354 15.7521V12.5918C36.9354 12.1873 36.6075 11.8594 36.2029 11.8594H33.0427C32.9836 11.8594 32.9355 11.8113 32.9355 11.7523Z" fill="#000D44"/>
<path d="M38.4717 20.6456C44.1637 20.6456 48.7946 16.0148 48.7946 10.3228C48.7946 4.63066 44.1637 0 38.4717 0C34.0359 0 30.2448 2.8126 28.7874 6.74805C27.57 5.16484 26.5015 3.87988 25.7647 3.02061C25.277 2.45146 24.5675 2.1249 23.8182 2.12461C23.8178 2.12461 23.8176 2.12461 23.8172 2.12461C23.0677 2.12461 22.3579 2.45098 21.8693 3.02041C19.2222 6.10713 14.3153 12.2902 10.8541 19.363C8.60631 19.5542 6.22428 20.7217 4.41607 22.5413C2.69674 24.2606 1.58531 26.3933 1.28639 28.5463C0.977011 30.775 1.56754 32.7634 2.94908 34.145C4.06021 35.2562 5.56432 35.8539 7.26959 35.8852C8.5481 43.9777 15.5463 50 23.817 50C33.0561 50 40.5728 42.4833 40.5728 33.2441C40.5728 30.0755 39.7954 26.5238 38.2622 22.6878C38.1122 22.3121 37.6855 22.1294 37.3103 22.2795C36.9346 22.4297 36.7518 22.8559 36.902 23.2314C38.3657 26.8937 39.108 30.2625 39.108 33.244C39.108 41.6755 32.2485 48.5351 23.817 48.5351C16.3107 48.5351 9.9523 43.1003 8.73521 35.7772C10.8243 35.4415 12.8836 34.3475 14.553 32.6779C16.2723 30.9586 17.3838 28.826 17.6827 26.673C17.9921 24.4441 17.4015 22.4559 16.02 21.0742C15.0811 20.1354 13.8613 19.5629 12.477 19.3888C15.8451 12.7204 20.4576 6.9166 22.9811 3.97393C23.1909 3.72939 23.4958 3.58926 23.8172 3.58926H23.8176C24.1389 3.58936 24.4431 3.72949 24.6525 3.97373C25.5111 4.9752 26.8281 6.56494 28.3043 8.53447C28.2024 9.11553 28.1488 9.71299 28.1488 10.3228C28.1489 16.0148 32.7797 20.6456 38.4717 20.6456ZM16.2318 26.4716C15.9765 28.3106 15.0125 30.147 13.5171 31.6422C11.0249 34.2206 6.57223 35.5968 3.98512 33.1091C1.76148 30.8854 2.41959 26.6094 5.45201 23.577C7.19615 21.8759 9.2568 20.8332 11.5514 20.7966C12.9267 20.7966 14.1236 21.2494 14.984 22.1101C16.0335 23.1594 16.4765 24.7084 16.2318 26.4716ZM38.4717 1.46484C43.3561 1.46484 47.3297 5.43848 47.3297 10.3229C47.3297 15.2072 43.3561 19.1809 38.4717 19.1809C33.5874 19.1809 29.6137 15.2072 29.6137 10.3229C29.6137 5.43848 33.5874 1.46484 38.4717 1.46484Z" fill="#000D44"/>
<path d="M10.7837 22.0231C9.73425 22.1687 8.64802 22.6041 7.64226 23.2819C7.30681 23.508 7.21824 23.9632 7.44441 24.2986C7.67029 24.634 8.12547 24.7225 8.46111 24.4965C9.28269 23.9427 10.1555 23.5891 10.9851 23.474C11.521 23.3996 12.511 23.3657 13.1197 23.9745C13.7283 24.5832 13.6945 25.5731 13.6201 26.109C13.4459 27.3644 12.7288 28.7016 11.6527 29.7777C9.90486 31.4871 7.37439 32.4568 5.84939 31.2446C5.2408 30.6359 5.27459 29.6459 5.349 29.1099C5.45564 28.3412 5.77058 27.5274 6.25994 26.7565C6.47674 26.415 6.37566 25.9625 6.03416 25.7457C5.69256 25.5288 5.24011 25.6298 5.02322 25.9715C4.42244 26.9181 4.03328 27.9338 3.89812 28.9086C3.78631 29.7141 3.75662 31.2233 4.81365 32.2803C7.30154 34.3229 10.4825 32.8847 12.6886 30.8134C13.9854 29.5165 14.8539 27.8752 15.071 26.3103C15.1828 25.5047 15.2125 23.9956 14.1554 22.9386C13.0984 21.8817 11.5894 21.9113 10.7837 22.0231Z" fill="#000D44"/>
<path d="M18.6824 31.175C17.3714 32.9087 16.6494 35.2027 16.6494 37.6343C16.6494 40.066 17.3715 42.3598 18.6824 44.0935C20.0396 45.8882 21.8632 46.8767 23.8172 46.8767C25.7711 46.8767 27.5947 45.8883 28.9519 44.0935C30.263 42.3598 30.985 40.0659 30.985 37.6343C30.985 35.2028 30.2629 32.9088 28.9519 31.175C27.5947 29.3803 25.7711 28.3918 23.8172 28.3918C21.8633 28.3919 20.0397 29.3803 18.6824 31.175ZM23.8172 29.8568C26.9618 29.8568 29.5201 33.3458 29.5201 37.6343C29.5201 41.9228 26.9618 45.4119 23.8172 45.4119C20.6726 45.4119 18.1143 41.9229 18.1143 37.6343C18.1143 33.3458 20.6726 29.8568 23.8172 29.8568Z" fill="#000D44"/>
<path d="M20.7855 42.5031C21.2761 43.1517 22.3223 44.2399 23.8172 44.2399C25.3121 44.2399 26.3583 43.1517 26.8487 42.5031C27.8018 41.243 28.3482 39.4684 28.3482 37.6344C28.3482 35.8002 27.8017 34.0256 26.8488 32.7655C26.3583 32.1169 25.3121 31.0287 23.8172 31.0287C22.3223 31.0287 21.2761 32.1169 20.7856 32.7655C19.8326 34.0256 19.2861 35.8002 19.2861 37.6344C19.286 39.4684 19.8326 41.2431 20.7855 42.5031ZM21.9539 33.6491C22.2803 33.2176 22.9563 32.4935 23.8171 32.4935C24.6778 32.4935 25.3539 33.2176 25.6804 33.6491C26.4448 34.66 26.8833 36.1126 26.8833 37.6344C26.8833 39.1561 26.4448 40.6087 25.6803 41.6196C25.3539 42.0511 24.6778 42.7752 23.8171 42.7752C22.9563 42.7752 22.2803 42.0511 21.9538 41.6196C21.1894 40.6087 20.7509 39.1561 20.7509 37.6344C20.7509 36.1126 21.1894 34.66 21.9539 33.6491Z" fill="#000D44"/>
<path d="M23.2833 24.8092C24.1858 24.6839 25.0754 24.2226 25.7878 23.5101C26.5002 22.7976 26.9617 21.9082 27.087 21.0055C27.2228 20.0271 26.9559 19.1467 26.3358 18.5265C25.1127 17.3037 22.8772 17.5496 21.3522 19.0745C19.8272 20.5995 19.5814 22.8351 20.8043 24.0581C21.3188 24.5726 22.0123 24.8438 22.7923 24.8438C22.9525 24.8438 23.1165 24.8324 23.2833 24.8092ZM21.84 23.0223C21.1992 22.3816 21.4503 21.0481 22.3879 20.1103C22.9736 19.5247 23.7135 19.207 24.3428 19.207C24.7211 19.207 25.0593 19.3218 25.3 19.5624C25.5879 19.8503 25.7072 20.2913 25.636 20.8042C25.5554 21.3842 25.2332 21.993 24.7518 22.4744C24.2706 22.9556 23.6619 23.2779 23.0817 23.3584C22.5685 23.4295 22.1279 23.3101 21.84 23.0223Z" fill="#000D44"/>
</g>
<defs>
<clipPath id="clip0_302_8470">
<rect width="50" height="50" fill="white"/>
</clipPath>
</defs>
</svg>
