<svg width="40" height="40" viewBox="0 0 40 40" fill="none" xmlns="http://www.w3.org/2000/svg">
<g clip-path="url(#clip0_1304_1500)">
<path fill-rule="evenodd" clip-rule="evenodd" d="M9.25477 13.785H12.0509C12.1805 13.785 12.2855 13.68 12.2855 13.5505V11.3727C12.2855 11.243 12.1806 11.1381 12.0509 11.1381H9.25477V8.34166C9.25477 8.21228 9.14953 8.10751 9.02023 8.10751H6.84211C6.71281 8.10751 6.60797 8.21236 6.60797 8.34166V11.1381H3.81148C3.68195 11.1381 3.57695 11.2431 3.57695 11.3727V13.5505C3.57695 13.6799 3.68219 13.785 3.81148 13.785H6.60797V16.5811C6.60797 16.7106 6.71258 16.8156 6.84211 16.8156H9.02023C9.14977 16.8156 9.25477 16.7106 9.25477 16.5811V13.785ZM12.6803 31.8973C12.6803 34.2672 10.7527 36.1948 8.38281 36.1948C6.01289 36.1948 4.08531 34.2672 4.08531 31.8973C4.08531 30.7503 4.53305 29.6697 5.34398 28.8585C6.15508 28.0473 7.23562 27.5998 8.38273 27.5998C10.7526 27.5998 12.6803 29.5275 12.6803 31.8973ZM29.6294 32.7365H36.7866C37.7402 32.7365 38.5155 33.5122 38.5155 34.4658C38.5155 35.4195 37.7402 36.1947 36.7866 36.1947H29.6294V32.7365ZM7.93141 18.795C4.43898 18.795 1.59766 15.9542 1.59766 12.4617C1.59766 8.96916 4.43898 6.1283 7.93141 6.1283C11.4238 6.1283 14.2648 8.96923 14.2648 12.4617C14.2648 15.9541 11.4238 18.795 7.93141 18.795ZM21.6615 13.9917C21.6623 13.988 21.6632 13.9843 21.6641 13.9808C21.7476 13.6191 21.971 13.3145 22.2928 13.1288L27.7888 9.95587C28.4223 9.59009 29.2375 9.8083 29.6034 10.4419L35.3673 20.4245C35.8991 21.3457 36.1113 22.4441 35.9421 23.4957C35.7793 24.5074 35.2704 25.4384 34.443 26.0549L28.9573 30.1422H26.4068V28.836C26.4068 28.3188 26.0143 27.8814 25.5002 27.8267L24.895 27.7621L27.3999 24.9533C27.4673 24.8778 27.4789 24.7677 27.4283 24.6801L24.0697 18.862L24.89 15.8092C24.9234 15.6847 24.849 15.5558 24.7245 15.5223C24.6003 15.4888 24.4709 15.5634 24.4374 15.6877L21.8821 25.1954C21.6795 25.9495 21.2358 26.7888 20.3411 26.7888H11.2664C10.4212 26.7888 9.73375 26.1014 9.73375 25.2563C9.73375 24.4111 10.4212 23.7236 11.2664 23.7236H18.9357C19.0421 23.7236 19.1355 23.6516 19.1623 23.5486L21.6615 13.9917Z" fill="#04CE78"/>
<path fill-rule="evenodd" clip-rule="evenodd" d="M21.6434 34.5607C21.6434 34.2585 21.8883 34.0137 22.1905 34.0137H23.254V32.9505C23.254 32.6483 23.4984 32.4035 23.8006 32.4035C24.1024 32.4035 24.3477 32.6483 24.3477 32.9505V34.0137H25.4108C25.7122 34.0137 25.9578 34.2585 25.9578 34.5607C25.9578 34.8625 25.7123 35.1076 25.4108 35.1076H24.3477V36.1708C24.3477 36.4726 24.1024 36.7179 23.8006 36.7179C23.4984 36.7179 23.254 36.4726 23.254 36.1708V35.1076H22.1905C21.8883 35.1077 21.6434 34.8625 21.6434 34.5607ZM22.037 0.708496H21.3809C20.1489 0.787324 19.0018 1.30467 18.1209 2.18521C17.1622 3.14467 16.6336 4.41998 16.6336 5.77646C16.6336 8.57701 18.9121 10.8554 21.7126 10.8554C24.5131 10.8554 26.7913 8.57693 26.7913 5.77646C26.7912 3.08498 24.6868 0.876387 22.037 0.708496ZM16.063 38.7446C16.063 39.0464 15.8181 39.2916 15.5163 39.2916H1.24977C0.947969 39.2916 0.703125 39.0465 0.703125 38.7446C0.703125 38.4428 0.947969 38.1976 1.24977 38.1976H15.5163C15.8181 38.1976 16.063 38.4428 16.063 38.7446ZM4.35875 11.9194H6.84234C7.14453 11.9194 7.38937 11.6746 7.38937 11.3728V8.88881H8.47352V11.3728C8.47352 11.6746 8.71836 11.9194 9.02055 11.9194H11.5041V13.0036H9.02055C8.71836 13.0036 8.47352 13.2484 8.47352 13.5506V16.0343H7.38937V13.5506C7.38937 13.2484 7.14453 13.0036 6.84234 13.0036H4.35875V11.9194ZM6.2957 14.0976V16.5812C6.2957 16.8833 6.54055 17.1282 6.84234 17.1282H9.02047C9.32227 17.1282 9.5675 16.8833 9.5675 16.5812V14.0976H12.0512C12.3534 14.0976 12.5982 13.8523 12.5982 13.5505V11.3727C12.5982 11.0705 12.3534 10.8257 12.0512 10.8257H9.5675V8.3417C9.5675 8.0399 9.32234 7.79506 9.02047 7.79506H6.84234C6.54055 7.79506 6.2957 8.0399 6.2957 8.3417V10.8257H3.81172C3.50992 10.8257 3.26469 11.0705 3.26469 11.3727V13.5505C3.26469 13.8523 3.50992 14.0976 3.81172 14.0976H6.2957ZM7.93164 6.44084C4.61164 6.44084 1.91039 9.14178 1.91039 12.4617C1.91039 15.7816 4.61164 18.4826 7.93164 18.4826C11.2516 18.4826 13.9525 15.7816 13.9525 12.4617C13.9525 9.1417 11.2516 6.44084 7.93164 6.44084ZM7.93164 19.5762C11.8545 19.5762 15.0462 16.3845 15.0462 12.4617C15.0462 8.53842 11.8545 5.34717 7.93164 5.34717C4.00844 5.34717 0.816719 8.5385 0.816719 12.4617C0.816719 16.3845 4.00836 19.5762 7.93164 19.5762ZM36.7868 35.8823H29.9421V33.049H36.7868C37.568 33.049 38.2032 33.6847 38.2032 34.4658C38.2032 35.247 37.568 35.8823 36.7868 35.8823ZM28.8484 38.198V30.9235H18.7525V38.198H28.8484ZM21.975 28.8362C21.975 28.7094 22.082 28.602 22.2091 28.602H25.3913C25.521 28.602 25.6258 28.7072 25.6258 28.8362V29.8298H21.975V28.8362ZM27.6992 24.524L24.4054 18.8182L25.1921 15.8904C25.2712 15.5989 25.0977 15.299 24.8061 15.2207C24.5149 15.142 24.215 15.3151 24.1359 15.6067L21.5806 25.1144C21.4134 25.7357 21.063 26.4765 20.3414 26.4765H11.2666C10.5939 26.4765 10.0465 25.9291 10.0465 25.2564C10.0465 24.5837 10.5939 24.0362 11.2666 24.0362H18.9359C19.1845 24.0362 19.402 23.8683 19.4649 23.6278L21.9651 14.0668C21.9662 14.0616 21.9677 14.0565 21.9688 14.0513C22.033 13.7726 22.2037 13.5414 22.4492 13.3995L27.9452 10.2266C28.4304 9.94646 29.0531 10.113 29.3329 10.5983L35.0968 20.5809C36.1375 22.3833 35.768 24.678 34.2564 25.8044L28.8539 29.8298H26.7195V28.8362C26.7195 28.152 26.1994 27.587 25.5336 27.516L27.6334 25.1614C27.7908 24.9854 27.8173 24.7283 27.6992 24.524ZM14.9693 29.2541C14.9693 28.6476 14.7939 28.0704 14.4602 27.5701H11.2666C11.1821 27.5701 11.099 27.5653 11.017 27.5565C12.4816 28.4483 13.462 30.0603 13.462 31.8973C13.462 32.037 13.4547 32.1749 13.4437 32.3116H14.9693V29.2541ZM8.38305 35.8823C10.5803 35.8823 12.368 34.095 12.368 31.8973C12.368 29.7001 10.5803 27.9123 8.38305 27.9123C7.31883 27.9123 6.31773 28.3266 5.56523 29.0795C4.81273 29.832 4.39805 30.833 4.39805 31.8973C4.39805 34.0949 6.18578 35.8823 8.38305 35.8823ZM1.7968 32.3116V29.2541C1.7968 27.5682 3.16836 26.1962 4.8543 26.1962H9.1532C9.29359 26.5105 9.50172 26.7877 9.75937 27.0094C9.32117 26.8859 8.86016 26.8187 8.38297 26.8187C7.02648 26.8187 5.75117 27.3465 4.79172 28.3061C3.83258 29.2652 3.30438 30.5408 3.30438 31.8973C3.30438 32.037 3.31133 32.1749 3.32273 32.3116H1.7968ZM36.7868 31.9554H29.9421V30.3831L34.9094 26.6815C36.8592 25.2287 37.357 22.3091 36.0438 20.0343L30.2803 10.0512C29.6984 9.04396 28.4062 8.69764 27.3985 9.2792L21.9027 12.4525C21.4013 12.7418 21.038 13.2319 20.9049 13.7972L18.5136 22.9425H11.2667C10.0426 22.9425 9.03781 23.8983 8.95844 25.1026H4.8543C2.56547 25.1026 0.703125 26.965 0.703125 29.2541V32.8587C0.703125 33.1605 0.947969 33.4053 1.24977 33.4053H3.53266C4.17672 35.4717 6.1075 36.976 8.38305 36.976C10.6586 36.976 12.5894 35.4717 13.2334 33.4053H15.5163C15.8181 33.4053 16.063 33.1605 16.063 32.8587V29.2541C16.063 28.6733 15.9384 28.0979 15.7027 27.5701H20.3413C21.4291 27.5701 22.2654 26.7786 22.6367 25.3982L24.0039 20.3111L26.5548 24.7284L24.0748 27.5083H22.2092C21.477 27.5083 20.8814 28.1039 20.8814 28.8362V29.8298H18.2055C17.9037 29.8298 17.6588 30.0747 17.6588 30.3769V38.7446C17.6588 39.0464 17.9037 39.2916 18.2055 39.2916H29.3951C29.6977 39.2916 29.9421 39.0465 29.9421 38.7446V36.976H36.7868C38.1702 36.976 39.2969 35.85 39.2969 34.4659C39.2969 33.0814 38.1701 31.9554 36.7868 31.9554ZM18.8944 2.95873C19.6473 2.20584 20.6479 1.79154 21.7126 1.79154C23.9102 1.79154 25.6976 3.57928 25.6976 5.77654C25.6976 7.97381 23.9102 9.76154 21.7126 9.76154C19.5149 9.76154 17.7272 7.97381 17.7272 5.77654C17.7272 4.71193 18.1419 3.71123 18.8944 2.95873Z" fill="#1F5FFF"/>
</g>
<defs>
<clipPath id="clip0_1304_1500">
<rect width="40" height="40" fill="white"/>
</clipPath>
</defs>
</svg>
