<svg width="50" height="50" viewBox="0 0 50 50" fill="none" xmlns="http://www.w3.org/2000/svg">
<path d="M9.34081 0.286131C9.15917 0.104492 8.90722 0 8.65038 0C8.39355 0 8.1416 0.104492 7.95996 0.286131C7.77832 0.467771 7.67383 0.719722 7.67383 0.976557C7.67383 1.23339 7.77832 1.48534 7.95996 1.66698C8.1416 1.84862 8.39355 1.95311 8.65038 1.95311C8.90722 1.95311 9.15917 1.84862 9.34081 1.66698C9.52245 1.48534 9.62694 1.23339 9.62694 0.976557C9.62694 0.719722 9.52245 0.467771 9.34081 0.286131Z" fill="#000D44"/>
<path d="M8.5 18.5V4L21.5 0.5L23.5 2L27 6L32 10L32.5 12.5C32 13.5 31 15.6 31 16C31 16.5 32.5 16 33 16C33.4 16 35.8333 16.3333 37 16.5L38.5 18.5L36.5 21H29L25 22.5L19 25.5H13.5L10 24C9.5 22.3333 8.5 18.9 8.5 18.5Z" fill="#04CE78"/>
<path d="M29.5 27.5L28.5 31V33L30.5 32.5L33 32L35 33.5L37 35V37.5L35.5 38L34 37.5L30.5 40C28.8333 39.5 25.4 38.4 25 38C24.5 37.5 23.5 35 23.5 34.5C23.5 34.1 22.8333 31.3333 22.5 30L22 27.5L24.5 26.5H27L29.5 27.5Z" fill="#04CE78"/>
<path d="M41.0935 24.4547C41.0702 24.3572 41.0325 24.2655 40.9824 24.1818C40.5754 23.2069 40.0793 22.2672 39.4966 21.3782L38.9592 20.5583C38.9315 20.516 38.9002 20.4775 38.8674 20.441C39.0284 20.0891 39.119 19.6985 39.119 19.287C39.119 16.9984 37.2572 15.1366 34.9686 15.1366H32.6706C33.2249 14.3672 33.5526 13.4242 33.5526 12.4057C33.5526 11.0113 32.9577 9.67718 31.9203 8.74535L22.4864 0.271568C22.0852 -0.0887812 21.4678 -0.0558712 21.1073 0.345494C20.747 0.746663 20.78 1.36414 21.1813 1.72459L30.615 10.1983C31.2406 10.7602 31.5994 11.5648 31.5994 12.4057C31.5994 13.9114 30.3743 15.1365 28.8685 15.1365H28.7674C28.7126 15.1365 28.658 15.1411 28.6041 15.1503L18.8701 16.8016C18.862 16.803 18.8452 16.8058 18.8258 16.7895C18.8065 16.7732 18.8065 16.7561 18.8065 16.7479V6.24985C18.8065 5.7105 18.3693 5.2733 17.8299 5.2733C17.2906 5.2733 16.8534 5.7105 16.8534 6.24985V16.7478C16.8534 17.3402 17.1129 17.8993 17.5655 18.2815C18.018 18.6638 18.6127 18.826 19.1967 18.7271L28.8497 17.0896H34.9686C36.1802 17.0896 37.1658 18.0753 37.1658 19.2869C37.1658 19.7446 36.7935 20.117 36.3358 20.117H28.9628C28.8354 20.117 28.7093 20.1419 28.5915 20.1903L18.1076 24.5004C16.5737 25.1311 14.8228 25.1108 13.3039 24.4448C11.0702 23.4654 9.62694 21.2566 9.62694 18.8177V4.00377C9.62694 3.46442 9.18974 3.02722 8.65038 3.02722C8.11103 3.02722 7.67383 3.46442 7.67383 4.00377V18.8177C7.67383 21.7709 9.28026 24.4669 11.8242 25.8866V29.627C11.8242 30.4044 11.6998 31.1727 11.4545 31.9103C9.67059 37.2746 9.52186 42.9904 11.0241 48.44L11.2563 49.2826C11.3758 49.7157 11.7687 49.9999 12.1972 49.9999C12.2832 49.9999 12.3705 49.9885 12.4574 49.9645C12.9773 49.8212 13.2826 49.2835 13.1393 48.7636L12.9071 47.921C11.508 42.8457 11.6466 37.5225 13.3079 32.5267C13.6194 31.5899 13.7774 30.6144 13.7774 29.6271V26.6627C14.4305 26.8276 15.1013 26.9115 15.7724 26.9115C16.8206 26.9115 17.8692 26.7102 18.8503 26.3069L29.1556 22.0701H36.3357C36.7353 22.0701 37.1152 21.9847 37.459 21.8325L37.863 22.4489C38.3736 23.228 38.8052 24.0381 39.16 24.8692C39.0633 26.1811 37.9657 27.2192 36.6296 27.2192C34.4881 27.2192 32.6931 28.7261 32.2463 30.7349C32.185 30.7347 32.1237 30.7361 32.0622 30.741C31.4884 30.7866 30.6344 31.0758 29.8244 32.1944C29.6974 32.3698 29.4492 32.4499 29.149 32.4684C29.862 31.6711 30.2964 30.6197 30.2964 29.4684C30.2964 26.9835 28.2748 24.9619 25.7899 24.9619C23.3051 24.9619 21.2835 26.9835 21.2835 29.4684C21.2835 30.2627 21.4908 31.0092 21.8531 31.6579C21.8418 31.6943 21.8319 31.7315 21.8247 31.77C21.8139 31.8283 21.5628 33.2165 21.9056 34.8717C22.3736 37.1322 23.707 38.8264 25.7615 39.771C27.2483 40.4546 28.5529 40.7377 29.6729 40.7376C31.9169 40.7375 33.4183 39.6004 34.15 38.2687C34.215 38.3532 34.2723 38.4464 34.2947 38.5091C34.4801 39.1747 35.1673 39.5541 36.0084 39.4539C37.0655 39.3276 38.2236 38.4711 38.2689 36.8891C38.3057 35.5993 37.5141 34.1466 36.299 33.2742C35.7155 32.8554 35.0974 32.6188 34.4856 32.5687C34.4104 32.2057 34.2681 31.8907 34.093 31.6506C34.1249 30.2786 35.2501 29.1722 36.6296 29.1722C37.9904 29.1722 39.211 28.5629 40.0354 27.6038C41.0975 32.4505 39.7577 37.6298 36.1687 41.4182C34.9224 42.7336 34.2361 44.456 34.2361 46.268V49.023C34.2361 49.5624 34.6733 49.9996 35.2126 49.9996C35.752 49.9996 36.1892 49.5624 36.1892 49.023V46.2681C36.1892 44.9579 36.6855 43.7126 37.5864 42.7615C40.2546 39.9452 41.9141 36.266 42.2593 32.4018C42.5011 29.695 42.0912 26.9636 41.0935 24.4547ZM25.79 26.9151C27.1979 26.9151 28.3434 28.0605 28.3434 29.4685C28.3434 30.8764 27.198 32.0218 25.79 32.0218C24.3821 32.0218 23.2367 30.8764 23.2367 29.4685C23.2367 28.0605 24.3821 26.9151 25.79 26.9151ZM34.2109 34.5146C34.5946 34.5055 34.9551 34.7138 35.16 34.8609C35.8265 35.3394 36.3346 36.2058 36.3166 36.8335C36.3099 37.0699 36.241 37.2429 36.106 37.3626C36.0557 37.4072 36.0019 37.4398 35.9509 37.4632C35.64 36.908 35.0527 36.2423 34.2372 36.1558C33.8976 36.12 33.0454 36.1565 32.4684 37.2718C31.7749 38.6127 29.8632 39.5071 26.5774 37.9964C24.263 36.9323 23.7502 34.8301 23.6817 33.4496C24.3112 33.7843 25.0287 33.9748 25.79 33.9748C26.0454 33.9748 26.2956 33.9523 26.5395 33.9113C27.0146 34.1071 30.0251 35.2474 31.4064 33.3399C31.6891 32.9495 31.9921 32.7058 32.217 32.688C32.3473 32.6781 32.4548 32.7487 32.5263 32.816C32.5651 32.8827 32.6532 33.1423 32.5213 33.5055C32.2196 34.3368 31.0177 35.0952 29.2241 35.5864C28.7039 35.7289 28.3977 36.266 28.5401 36.7862C28.659 37.2201 29.0523 37.505 29.4814 37.505C29.5669 37.505 29.6536 37.4937 29.7399 37.4702C32.5077 36.7123 33.7092 35.5345 34.2109 34.5146Z" fill="#000D44"/>
</svg>
