<svg width="50" height="50" viewBox="0 0 50 50" fill="none" xmlns="http://www.w3.org/2000/svg">
<path fill-rule="evenodd" clip-rule="evenodd" d="M23.8117 21.0332L29.5409 22.6222L41.1491 25.8416L44.287 14.5776C45.8989 8.79192 42.4725 2.74055 36.674 1.13215C30.8727 -0.476246 24.8105 2.93987 23.1959 8.72825L21.337 15.408C21.3369 19.4886 22.4189 20.6485 23.8117 21.0332Z" fill="#04CE78"/>
<path fill-rule="evenodd" clip-rule="evenodd" d="M39.3596 13.2101L36.2217 24.4741L41.149 25.8416L44.2869 14.5775C45.8988 8.79185 42.4725 2.74048 36.6739 1.13208C35.825 0.896826 34.9732 0.769482 34.127 0.739014C38.4385 3.13638 40.7356 8.2687 39.3596 13.2101Z" fill="#1F5FFF"/>
<path fill-rule="evenodd" clip-rule="evenodd" d="M41.149 25.8417L36.2217 24.4742L33.0838 35.7383C32.2432 38.7585 30.19 41.1336 27.5932 42.4845C27.349 43.0797 27.0604 43.6389 26.7275 44.1649C26.5416 44.4611 26.3419 44.7462 26.1282 45.0202C31.4079 45.6653 36.5462 42.3627 38.011 37.1058L41.149 25.8417Z" fill="#DDDAEC"/>
<path fill-rule="evenodd" clip-rule="evenodd" d="M14.5728 12.4792C9.45683 12.4792 5.31181 16.6178 5.31181 21.7224C5.31181 25.3239 7.37324 28.441 10.3862 29.969C13.8349 31.5026 18.0714 31.4638 21.2925 28.0838C22.8684 26.4285 23.8366 24.1862 23.8366 21.7224C23.8366 21.4899 23.8283 21.2601 23.8116 21.0332C23.6507 18.8628 22.7407 16.9029 21.3368 15.4081C19.6473 13.6059 17.2419 12.4792 14.5728 12.4792Z" fill="#1F5FFF"/>
<path fill-rule="evenodd" clip-rule="evenodd" d="M17.4527 38.332L28.2092 40.4608C29.2246 35.3838 26.5029 30.1518 21.509 28.1669C21.4368 28.1393 21.3647 28.1116 21.2926 28.0839C20.2078 27.6797 19.0952 27.4555 17.9937 27.403C15.211 27.2646 12.4893 28.2002 10.3863 29.9692C9.53457 30.6806 8.78828 31.5305 8.17793 32.5021L17.4527 38.332Z" fill="#B1E4F9"/>
<path fill-rule="evenodd" clip-rule="evenodd" d="M26.7276 44.1647L17.4416 39.5334L6.69902 36.2087C5.68916 41.2802 8.41084 46.5094 13.3992 48.4915C14.7254 49.0174 16.096 49.2693 17.4415 49.2693H17.4609C20.8263 49.2666 24.0502 47.7052 26.1282 45.02C26.342 44.746 26.5417 44.4609 26.7276 44.1647Z" fill="#B1E4F9"/>
<path fill-rule="evenodd" clip-rule="evenodd" d="M16.8563 12.7644C18.9787 15.0289 21.7031 23.2866 16.3984 27.4417C16.9256 27.389 17.4583 27.3752 17.9937 27.4029C19.0952 27.4555 20.2077 27.6797 21.2926 28.0838C22.8685 26.4285 23.8367 24.1862 23.8367 21.7224C23.8367 21.4899 23.8284 21.2601 23.8117 21.0332C23.6508 18.8628 22.7408 16.9029 21.3369 15.4081C20.1439 14.1375 18.5985 13.2045 16.8563 12.7644Z" fill="#04CE78"/>
<path fill-rule="evenodd" clip-rule="evenodd" d="M26.7276 44.1647L21.5533 42.1079C21.4478 42.4595 21.3342 42.8 21.2065 43.1377C20.266 45.6513 18.7429 47.7772 16.8479 49.2527C17.0449 49.2638 17.2447 49.2693 17.4417 49.2693H17.4611C20.8265 49.2666 24.0504 47.7053 26.1284 45.02C26.342 44.7461 26.5417 44.4609 26.7276 44.1647Z" fill="#04CE78"/>
<path fill-rule="evenodd" clip-rule="evenodd" d="M22.2386 38.0885L28.2092 40.4608C29.2246 35.3839 26.5029 30.1518 21.509 28.167C21.4368 28.1393 21.3647 28.1116 21.2926 28.084C20.5906 27.821 19.8776 27.6355 19.1646 27.5248C19.5336 28.012 19.8748 28.5297 20.1855 29.0778C21.4951 31.3838 22.2608 34.1852 22.2608 37.2054C22.2607 37.5015 22.2553 37.795 22.2386 38.0885Z" fill="#04CE78"/>
<path fill-rule="evenodd" clip-rule="evenodd" d="M28.2092 40.4608L16.6592 35.871L8.17773 32.5021C7.82812 33.0557 7.52295 33.6509 7.2705 34.2821C7.01806 34.9188 6.82939 35.561 6.69902 36.2087L19.0119 41.1002L26.7275 44.1647C27.0799 43.6082 27.3851 43.0103 27.6375 42.3764C27.8901 41.7452 28.0787 41.103 28.2092 40.4608Z" fill="#04CE78"/>
<path fill-rule="evenodd" clip-rule="evenodd" d="M21.5533 42.1079L26.7276 44.1648C27.08 43.6083 27.3852 43.0104 27.6376 42.3765C27.89 41.7453 28.0787 41.1031 28.2091 40.4609L22.2385 38.0885C22.1692 39.4919 21.9334 40.8429 21.5533 42.1079Z" fill="#04CE78"/>
<path d="M43.9022 5.93729C42.3644 3.21531 39.8676 1.25838 36.8714 0.426934C36.8707 0.426739 36.8701 0.426641 36.8695 0.426446C30.6676 -1.29299 24.2167 2.34275 22.4901 8.53191L20.9545 14.0502C19.222 12.6126 16.9969 11.7468 14.5728 11.7468C12.184 11.7468 9.8706 12.6028 8.05879 14.1573C7.75175 14.4207 7.7165 14.8831 7.97978 15.1901C8.24326 15.4971 8.70556 15.5324 9.01259 15.269C10.5591 13.9423 12.5337 13.2116 14.5728 13.2116C19.277 13.2116 23.1042 17.0296 23.1042 21.7223C23.1042 23.7565 22.3855 25.6951 21.073 27.2322C17.3005 26.0044 13.2882 26.8074 10.3101 29.0938C7.66767 27.5721 6.04433 24.7892 6.04433 21.7223C6.04433 20.3436 6.36484 19.0265 6.99697 17.8075C7.1832 17.4484 7.04306 17.0063 6.68388 16.8201C6.3247 16.6339 5.88271 16.774 5.69648 17.1332C4.95527 18.5627 4.57939 20.1067 4.57939 21.7224C4.57939 25.1515 6.30927 28.2783 9.15576 30.107C8.07519 31.1902 7.19179 32.5033 6.59033 34.0107C5.43584 36.9054 5.47881 40.0759 6.71103 42.9378C7.94541 45.8044 10.2246 48.0185 13.1289 49.1721C14.5432 49.7339 16.0029 50 17.4398 50C20.8982 50 24.2214 48.4576 26.4473 45.7888C26.7792 45.8175 27.1113 45.8324 27.4431 45.8324C29.7203 45.8324 31.9719 45.1609 33.9037 43.8877C36.2561 42.3372 37.9653 39.9984 38.7168 37.3021L39.9043 33.0363C40.0127 32.6467 39.7848 32.2428 39.3951 32.1344C39.0057 32.0259 38.6016 32.2538 38.4931 32.6435L37.3057 36.9093C36.0754 41.3243 31.9705 44.3565 27.4622 44.3654C27.7888 43.8255 28.0766 43.2529 28.3179 42.6482C29.4731 39.7553 29.4316 36.5867 28.2012 33.7262C27.0712 31.0993 25.0625 29.0201 22.4988 27.801C23.7836 26.1377 24.5063 24.12 24.5649 22.0023L40.2468 26.3516L39.4171 29.3299C39.3085 29.7195 39.5364 30.1234 39.9261 30.232C39.9919 30.2504 40.058 30.2591 40.123 30.2591C40.4436 30.2591 40.738 30.047 40.8282 29.723L44.9927 14.7744C45.8236 11.7912 45.4364 8.65281 43.9022 5.93729ZM26.9574 42.1051C26.7984 42.5034 26.6168 42.886 26.4149 43.2524L7.55322 35.76C7.66006 35.3532 7.79257 34.9504 7.95078 34.5535C8.10859 34.1579 8.28945 33.7783 8.48965 33.4141L27.3527 40.9087C27.2463 41.312 27.1145 41.7114 26.9574 42.1051ZM13.6697 47.8108C11.1294 46.8017 9.13593 44.8654 8.05644 42.3585C7.34931 40.7164 7.09013 38.9581 7.28076 37.228L25.599 44.5046C22.8881 48.0617 18.03 49.5428 13.6697 47.8108ZM26.8555 34.3049C27.5627 35.9489 27.8205 37.7094 27.6272 39.4414L9.30312 32.161C11.2444 29.6087 14.2902 28.1232 17.4662 28.1232C18.7233 28.1232 20.0012 28.3561 21.2385 28.8476C23.7817 29.8587 25.7766 31.7968 26.8555 34.3049ZM43.5814 14.381L40.6397 24.9403L24.4895 20.4611C24.2372 18.4745 23.3969 16.6683 22.1489 15.222L23.9012 8.92518C25.4109 3.51326 31.0547 0.334454 36.4777 1.83807H36.478C39.0976 2.56463 41.2812 4.27635 42.6268 6.65789C43.9685 9.0324 44.3073 11.7753 43.5814 14.381Z" fill="#000D44"/>
<path d="M16.9366 21.5525C17.3411 21.5525 17.669 21.2246 17.669 20.8201C17.669 20.4156 17.3411 20.0876 16.9366 20.0876H16.9172C16.5127 20.0876 16.1848 20.4156 16.1848 20.8201C16.1848 21.2246 16.5127 21.5525 16.9172 21.5525H16.9366Z" fill="#000D44"/>
<path d="M14.8642 25.536H14.8836C15.2881 25.536 15.616 25.2081 15.616 24.8036C15.616 24.3991 15.2881 24.0712 14.8836 24.0712H14.8642C14.4597 24.0712 14.1317 24.3991 14.1317 24.8036C14.1317 25.2081 14.4597 25.536 14.8642 25.536Z" fill="#000D44"/>
<path d="M10.9522 22.6127C11.3567 22.6127 11.6847 22.2847 11.6847 21.8802C11.6847 21.4758 11.3567 21.1478 10.9522 21.1478H10.93C10.5255 21.1478 10.1976 21.4758 10.1976 21.8802C10.1976 22.2847 10.5255 22.6127 10.93 22.6127H10.9522Z" fill="#000D44"/>
<path d="M13.6351 16.3893H13.6156C13.2111 16.3893 12.8832 16.7172 12.8832 17.1217C12.8832 17.5262 13.2111 17.8541 13.6156 17.8541H13.6351C14.0395 17.8541 14.3675 17.5262 14.3675 17.1217C14.3675 16.7172 14.0396 16.3893 13.6351 16.3893Z" fill="#000D44"/>
</svg>
