<svg width="40" height="40" viewBox="0 0 40 40" fill="none" xmlns="http://www.w3.org/2000/svg">
<g clip-path="url(#clip0_1304_1472)">
<path d="M0.253191 18.5615C0.0513932 18.6373 -0.0507628 18.8623 0.0250228 19.0641L3.28149 27.7367C3.29042 27.7604 3.30202 27.7823 3.31481 27.8032C3.62011 28.473 5.23696 29.0095 7.32123 29.1469V29.4232H7.98476V32.7103L3.41795 34.1154V34.6906C3.12535 34.8349 2.92356 35.1353 2.92356 35.4836C2.92356 35.9723 3.31967 36.3684 3.80831 36.3684C4.29693 36.3684 4.69303 35.9723 4.69303 35.4836C4.69303 35.1361 4.49213 34.8362 4.20054 34.6915L7.98474 33.5271V34.6906C7.69214 34.8349 7.49036 35.1353 7.49036 35.4836C7.49036 35.9723 7.88646 36.3684 8.3751 36.3684C8.86372 36.3684 9.25983 35.9723 9.25983 35.4836C9.25983 35.1353 9.05801 34.8349 8.76539 34.6906V33.5271L12.5496 34.6915C12.2581 34.8362 12.0572 35.1361 12.0572 35.4836C12.0572 35.9723 12.4533 36.3684 12.9419 36.3684C13.4305 36.3684 13.8266 35.9723 13.8266 35.4836C13.8266 35.1353 13.6248 34.8349 13.3322 34.6906V34.1155L8.76539 32.7104V29.4232H9.42898V29.1469C10.7674 29.0587 11.9128 28.8058 12.6424 28.4588C12.9576 28.8368 13.1172 29.3052 13.1172 29.8519L13.064 32.6552L13.1861 32.6984C13.2334 32.7151 13.8211 32.9159 14.8988 33.013L15.0415 34.7938C15.1234 35.8153 15.9775 36.5897 16.9848 36.5896C17.0371 36.5896 17.0898 36.5876 17.1427 36.5833C18.2172 36.4973 19.0184 35.5565 18.9323 34.4821L18.8006 32.8387C19.0725 32.7954 19.3513 32.7466 19.6414 32.6878L19.8014 32.6554L19.04 25.3933C18.7441 23.2901 17.7249 22.0838 16.2438 22.0838H11.9492C12.022 20.6497 12.2911 19.1708 12.5466 17.8909L16.6519 19.1348C16.8106 19.1829 16.9752 19.2073 17.1407 19.2073C17.664 19.2073 18.1487 18.9707 18.4706 18.558L22.5896 13.2758L23.4094 13.0203C24.297 12.7436 24.7942 11.7964 24.5174 10.9087C24.5043 10.8665 24.4894 10.8253 24.4733 10.7848L26.8929 10.3845C26.9838 10.4519 27.1475 10.4817 27.3277 10.4519C27.5853 10.4093 27.7755 10.2627 27.7527 10.1246C27.7298 9.98645 27.5025 9.90901 27.2449 9.95163C27.0647 9.98143 26.9194 10.0624 26.855 10.1555L24.3674 10.5671C24.0715 10.0516 23.5229 9.72384 22.9081 9.72384C22.7383 9.72384 22.5692 9.74967 22.4059 9.80068L21.0824 10.2132C20.7529 10.3159 20.4666 10.5139 20.2545 10.7861L19.051 12.3294L18.4582 6.74868C18.4385 6.56328 18.3404 6.39464 18.1888 6.28601C18.0372 6.17737 17.8459 6.13857 17.6641 6.17951L17.3635 6.29145C17.3582 6.2817 17.3536 6.27153 17.3479 6.26195C16.9659 6.35634 14.7235 6.95132 12.8067 8.32314C12.8045 8.39821 12.8384 8.473 12.9039 8.52017C13.3877 8.86843 13.8729 9.16868 14.3583 9.42057L15.0736 12.021C14.7875 12.0947 14.4891 12.1333 14.1837 12.1333C13.919 12.1333 13.6562 12.1037 13.402 12.0454C13.2654 11.8928 12.7409 10.926 13.0647 9.4648C13.0855 9.47901 13.1104 9.49582 13.1431 9.51728L13.2288 9.38677C13.154 9.33765 13.1126 9.3083 13.1049 9.3028C13.1229 9.2334 13.1428 9.16314 13.1647 9.0917C12.9162 8.92208 12.6827 8.74996 12.4656 8.57998C11.8771 9.0415 11.3335 9.58052 10.9041 10.2079C11.0011 10.4359 11.1719 10.6218 11.3873 10.7389C11.8032 11.3004 12.3592 11.704 12.9744 11.9341C12.9921 11.971 13.0089 12.0045 13.023 12.0305C13.1753 12.3123 13.2611 12.3329 13.2976 12.3417C13.5855 12.4106 13.8836 12.4456 14.1837 12.4456C14.5386 12.4456 14.8845 12.3966 15.215 12.3054C15.4276 12.481 16.207 13.05 17.385 13.05C17.7691 13.05 18.1961 12.9876 18.6586 12.8328L16.5226 15.5718L12.9314 14.4837C12.8524 14.0233 12.7033 13.5863 12.4854 13.2084C12.1029 12.5448 11.5506 12.1069 10.8883 11.942C10.6334 11.8784 10.3646 11.8461 10.0892 11.8461C8.74026 11.8461 6.87743 12.6827 6.06637 15.0412C4.96415 18.3092 4.7414 20.484 5.14964 23.9906L5.15718 24.0402C5.43431 25.466 6.11424 26.4321 7.17333 26.9236C5.84702 26.9609 4.63542 27.0611 3.92289 27.2242L2.17259 22.5628C2.91893 23.7272 3.68801 24.3875 4.20594 24.193C5.03744 23.8808 1.44251 14.3069 0.611026 14.6191C-0.0667037 14.8736 -0.105018 16.5127 0.441422 18.5417C0.379735 18.5335 0.31555 18.5381 0.253191 18.5615ZM15.0004 10.8721L15.0036 10.8626L14.9946 10.8299C14.9925 10.8291 14.9904 10.8284 14.9882 10.8277L14.8477 10.3168L14.8511 10.3081L14.8253 10.2141C14.8231 10.2132 14.8209 10.2123 14.8187 10.2114L14.6398 9.56101C14.642 9.56208 14.6443 9.56327 14.6465 9.56435L14.1447 7.74L17.7228 6.40644C17.7769 6.39533 17.8321 6.39595 17.8855 6.40602C17.945 6.41725 18.0021 6.4404 18.0523 6.47634C18.1497 6.5461 18.2127 6.65435 18.2254 6.77335L18.8356 12.5194C18.398 12.6957 17.9942 12.7835 17.6283 12.8113C16.3342 12.9099 15.5144 12.2589 15.3473 12.1121L15.3036 11.953L15.2983 11.9549L15.0004 10.8721ZM5.50642 23.95C5.1052 20.5031 5.32392 18.3662 6.40631 15.157C7.15555 12.9782 8.85849 12.2052 10.0892 12.2052C10.3353 12.2052 10.5749 12.2339 10.8014 12.2904C11.3669 12.4313 11.8417 12.8107 12.1744 13.3877C12.3433 13.6807 12.4664 14.0135 12.5435 14.3662L11.0209 13.9048C10.8614 13.8564 10.6964 13.8319 10.531 13.8319C9.78342 13.8319 9.13528 14.3132 8.91815 15.0296C8.64858 15.9194 9.15311 16.8627 10.0429 17.1323L12.2011 17.7862C11.9348 19.118 11.6529 20.6697 11.5869 22.1754L9.79604 23.6768L10.0267 23.952L11.8268 22.4429H16.2438C17.5266 22.4429 18.4162 23.5365 18.6837 25.437L19.3043 31.358C19.2656 31.3673 17.2426 31.8454 14.6544 31.6111L14.6221 31.9688C15.1517 32.0166 15.6555 32.0358 16.1242 32.0358C17.8486 32.0358 19.088 31.7756 19.342 31.7178L19.4101 32.3676C16.0527 33.0194 13.942 32.5399 13.4281 32.3966L13.4763 29.8553C13.4763 29.1277 13.2322 28.5194 12.7507 28.0473C11.651 26.9692 9.69332 26.9527 9.3094 26.9599C9.02123 26.9599 8.76492 26.9466 8.51465 26.9183C8.322 26.9082 8.13545 26.8753 7.94974 26.8173C6.63414 26.4908 5.81324 25.5334 5.50975 23.9721L5.50642 23.95ZM18.8474 13.1746C19.1293 13.5448 19.9265 14.493 20.9146 14.84L20.7594 15.0389C19.7215 14.6276 18.878 13.554 18.7179 13.3405L18.8474 13.1746ZM20.5376 11.0069C20.7038 10.7937 20.9312 10.6364 21.1893 10.556L22.5127 10.1435C23.2121 9.92517 23.9565 10.3157 24.1747 11.0155C24.3927 11.7152 24.0022 12.4593 23.3025 12.6774L22.3755 12.9664L21.1499 14.5382C20.1342 14.2455 19.2725 13.1465 19.0764 12.8808L20.5376 11.0069ZM15.7611 15.7163L15.73 15.7248L16.0781 17.001L16.4246 16.9065L16.1305 15.8282L16.4655 15.9297L16.8772 17.4644L17.224 17.3714L16.8019 15.7978L18.4895 13.6335C18.7507 13.9706 19.5352 14.8991 20.5309 15.332L18.1875 18.3371C17.9316 18.6652 17.5427 18.8482 17.1407 18.8482C17.0125 18.8482 16.8831 18.8296 16.7561 18.7911L10.1471 16.7886C9.4457 16.5761 9.04928 15.8352 9.26182 15.1337C9.47436 14.4323 10.2148 14.0356 10.9167 14.2485L15.7611 15.7163Z" fill="#1F5FFF"/>
<path d="M11.0489 8.38148C10.0271 8.79767 9.74664 7.34312 10.8499 7.34982C9.74664 7.34312 10.0444 5.89184 11.0612 6.32025C10.0444 5.89184 10.8749 4.66508 11.6503 5.44999C10.8749 4.66508 12.1113 3.84957 12.5275 4.87136C12.1113 3.84957 13.5661 3.56931 13.5594 4.6725C13.5661 3.56931 15.0172 3.86704 14.589 4.88372C15.0172 3.86704 16.2439 4.69743 15.459 5.47279C16.0896 4.84978 16.7393 5.52553 16.4405 6.03111C16.7017 5.94874 16.9143 5.88937 17.0643 5.85006C17.0698 5.78594 17.0717 5.72275 17.066 5.66281C17.0232 5.20036 16.6869 4.81 16.2415 4.69955C16.2368 4.67938 16.2315 4.65938 16.2257 4.63926C16.1107 4.25274 15.7919 3.96185 15.3934 3.88009C15.278 3.85642 15.1493 3.85102 15.0167 3.87105C14.8588 3.65052 14.6219 3.49607 14.3486 3.43999C14.0755 3.38395 13.7969 3.43264 13.565 3.57322C13.4507 3.50253 13.3302 3.45682 13.2149 3.43315C12.8166 3.35143 12.409 3.49328 12.1511 3.80371C12.1378 3.81978 12.1251 3.83583 12.1129 3.85252C11.66 3.77839 11.1972 4.00477 10.9758 4.41334C10.9341 4.48962 10.9005 4.57556 10.8776 4.66812C10.5112 4.75432 10.2028 5.02813 10.084 5.41188C10.0385 5.55936 10.0245 5.72461 10.0503 5.89112C9.82189 6.05632 9.67029 6.30237 9.61736 6.56036C9.56128 6.83373 9.60874 7.11148 9.75154 7.34608C9.66253 7.48904 9.6101 7.64628 9.59402 7.80006C9.55214 8.19943 9.72785 8.57258 10.0307 8.79608C10.0153 8.89018 10.0123 8.98255 10.0206 9.06893C10.053 9.41998 10.2548 9.72857 10.5445 9.90551C10.6511 9.75171 10.764 9.60343 10.8818 9.45978C10.4987 9.27976 10.379 8.65433 11.0489 8.38148Z" fill="#04CE78"/>
<path d="M17.3624 10.7489C17.2451 10.7368 17.1285 10.7223 17.013 10.7046C16.6432 11.2089 16.1544 11.5961 15.5962 11.8394L15.6586 12.0663C15.6771 12.0818 15.7017 12.1012 15.7292 12.1222C16.3846 11.8348 16.9514 11.3645 17.3624 10.7489Z" fill="#1F5FFF"/>
<path d="M17.8145 10.1586C17.824 10.0296 17.7271 9.9173 17.5981 9.90784C17.5619 9.90518 17.5256 9.90086 17.4894 9.89759C17.8128 9.04821 17.8037 8.08445 17.4181 7.21927C17.4566 7.12488 17.4824 7.02784 17.4927 6.93181C17.4983 6.87805 17.4994 6.82495 17.4973 6.77246L14.5088 7.88629L15.0163 9.73133C15.8693 10.0969 16.7208 10.3132 17.5638 10.375C17.5696 10.3754 17.5754 10.3756 17.5811 10.3756C17.5852 10.3756 17.5887 10.3736 17.5927 10.3734C17.709 10.3674 17.8057 10.2776 17.8145 10.1586Z" fill="#04CE78"/>
<path d="M16.0572 10.6187L16.0195 10.7702C16.0702 10.7828 16.1212 10.7951 16.1727 10.8069L16.2078 10.6547C16.1572 10.6431 16.107 10.6311 16.0572 10.6187Z" fill="#1F5FFF"/>
<path d="M16.4814 10.8713C16.5329 10.881 16.5846 10.8903 16.6367 10.899L16.6626 10.745C16.6116 10.7364 16.5608 10.7274 16.5104 10.7179L16.4814 10.8713Z" fill="#1F5FFF"/>
<path d="M15.2379 10.5366C15.247 10.5397 15.2558 10.543 15.2649 10.5461L15.3153 10.3984C15.2722 10.3836 15.2297 10.3685 15.1875 10.3533L15.2379 10.5366Z" fill="#1F5FFF"/>
<path d="M15.6099 10.4944L15.564 10.6437C15.6138 10.659 15.6642 10.6739 15.7151 10.6886L15.7582 10.5385C15.7083 10.5242 15.6588 10.5094 15.6099 10.4944Z" fill="#1F5FFF"/>
<path d="M13.8228 9.91711C13.8677 9.94097 13.9142 9.96529 13.9623 9.99007L14.0336 9.85118C13.9863 9.82685 13.9404 9.80284 13.8961 9.7793L13.8228 9.91711Z" fill="#1F5FFF"/>
<path d="M13.625 9.62904C13.5774 9.60175 13.5329 9.57552 13.4913 9.55066L13.4111 9.68468C13.4534 9.70999 13.4989 9.73667 13.5472 9.76442L13.625 9.62904Z" fill="#1F5FFF"/>
<path d="M14.2446 10.1293C14.2911 10.1514 14.3387 10.1735 14.3873 10.1957L14.4521 10.0536C14.4043 10.0318 14.3573 10.01 14.3116 9.98828L14.2446 10.1293Z" fill="#1F5FFF"/>
<path d="M15.4561 10.9753C15.4201 10.9649 15.3849 10.9542 15.3496 10.9436L15.3984 11.121C15.4031 11.1224 15.4077 11.1238 15.4125 11.1252L15.4561 10.9753Z" fill="#1F5FFF"/>
<path d="M15.7163 11.2084C15.7666 11.2213 15.8173 11.2341 15.8686 11.2467L15.9058 11.0949C15.8551 11.0825 15.805 11.0699 15.7553 11.0571L15.7163 11.2084Z" fill="#1F5FFF"/>
<path d="M16.1753 11.3166C16.2261 11.3274 16.2774 11.338 16.3293 11.3482L16.3596 11.1952C16.3086 11.185 16.2579 11.1745 16.2078 11.1638L16.1753 11.3166Z" fill="#1F5FFF"/>
<path d="M14.5754 10.6772C14.5264 10.6581 14.4785 10.639 14.4314 10.6198L14.3726 10.7645C14.4204 10.7838 14.4691 10.8033 14.5189 10.8226L14.5754 10.6772Z" fill="#1F5FFF"/>
<path d="M13.3179 10.079C13.2704 10.0517 13.2261 10.0254 13.185 10.0004L13.104 10.1339C13.1461 10.1594 13.1915 10.1863 13.24 10.2143L13.3179 10.079Z" fill="#1F5FFF"/>
<path d="M14.0834 10.6412L14.1467 10.4985C14.0985 10.4771 14.0515 10.4557 14.0057 10.4344L13.9399 10.5761C13.9865 10.5977 14.0343 10.6195 14.0834 10.6412Z" fill="#1F5FFF"/>
<path d="M13.6561 10.4389L13.7267 10.2995C13.679 10.2754 13.6331 10.2517 13.589 10.2284L13.5161 10.3665C13.561 10.3902 13.6077 10.4143 13.6561 10.4389Z" fill="#1F5FFF"/>
<path d="M5.81329 23.3477L6.17114 23.3185C5.5685 15.9195 8.41932 13.3179 8.44821 13.2924L8.21187 13.0221C8.08838 13.1298 5.19418 15.7474 5.81329 23.3477Z" fill="#1F5FFF"/>
<path d="M32.6534 11.5817C34.4734 12.2535 36.4936 11.3227 37.1655 9.50257C37.8373 7.6824 36.9063 5.66233 35.0863 4.99053C33.266 4.31866 31.2461 5.24954 30.5743 7.0697C29.9024 8.88985 30.8331 10.9098 32.6534 11.5817ZM31.8318 8.39083C32.2889 8.23129 32.8496 8.64691 33.0843 9.31912C33.3189 9.99133 33.1385 10.6656 32.6814 10.8251C32.2243 10.9847 31.6635 10.5691 31.4289 9.89684C31.1943 9.22463 31.3747 8.55036 31.8318 8.39083Z" fill="#04CE78"/>
<path d="M33.9537 13.9245C34.2403 13.9086 34.5269 13.9704 34.7826 14.1032C35.5696 14.5119 35.8774 15.4846 35.4687 16.2716L32.661 21.6777C32.4653 22.0543 32.1209 22.3434 31.716 22.4706C31.1821 22.6385 30.6613 22.8171 30.1688 22.9975L30.1689 23.0284H24.794C23.7807 23.0284 22.9358 23.804 22.8495 24.8137L22.0272 34.4267C21.9353 35.5007 22.7315 36.4458 23.8054 36.5376C23.8621 36.5424 23.918 36.5449 23.9738 36.5448C24.9765 36.5447 25.8293 35.7767 25.9162 34.7594L26.5194 27.7076H26.5308C26.5709 27.8596 26.6776 28.0055 26.8426 28.1425C27.453 28.6492 28.8531 29.0336 30.571 29.1468V29.4232H31.2346V32.7103L26.6677 34.1154V34.6905C26.3751 34.8348 26.1733 35.1353 26.1733 35.4836C26.1733 35.9722 26.5694 36.3683 27.0581 36.3683C27.5467 36.3683 27.9428 35.9722 27.9428 35.4836C27.9428 35.136 27.7419 34.8361 27.4503 34.6915L31.2346 33.5271V34.6905C30.942 34.8348 30.7401 35.1353 30.7401 35.4836C30.7401 35.9722 31.1363 36.3683 31.6249 36.3683C32.1135 36.3683 32.5096 35.9722 32.5096 35.4836C32.5096 35.1353 32.3078 34.8348 32.0152 34.6905V33.5271L35.7995 34.6914C35.5079 34.8361 35.307 35.136 35.307 35.4836C35.307 35.9722 35.7031 36.3683 36.1917 36.3683C36.6803 36.3683 37.0764 35.9722 37.0764 35.4836C37.0764 35.1353 36.8746 34.8348 36.582 34.6905V34.1154L32.0152 32.7103V29.4232H32.6788V29.1468C34.7628 29.0095 36.3796 28.4731 36.6851 27.8034C36.698 27.7824 36.7096 27.7605 36.7186 27.7366L39.975 19.0641C40.0508 18.8623 39.9487 18.6372 39.7469 18.5615C39.6845 18.538 39.6203 18.5334 39.5586 18.5417C40.105 16.5127 40.0667 14.8736 39.389 14.6191C38.9759 14.464 37.8809 16.7489 36.9853 19.1259C37.1254 18.2568 37.2097 17.3338 37.2577 16.2833C37.3577 13.782 35.8051 12.4166 34.4285 12.2873C33.0522 12.1578 31.8173 13.7752 31.668 15.446C31.5751 15.9756 31.4796 16.5628 31.372 17.1813L32.6144 14.7891C32.8753 14.2871 33.3885 13.9558 33.9537 13.9245ZM35.794 24.1929C36.312 24.3874 37.0812 23.7271 37.8275 22.5625L36.0771 27.2241C35.2962 27.0454 33.9154 26.9423 32.4415 26.9146C32.6705 26.8858 32.8869 26.8176 33.0841 26.7166C33.7154 26.4916 34.3397 25.9945 34.9079 25.0541C35.213 24.4545 35.4796 23.8951 35.7134 23.3592C35.6405 23.8334 35.6561 24.1411 35.794 24.1929Z" fill="#1F5FFF"/>
<path d="M24.644 22.6764C24.6939 22.6732 24.7435 22.6693 24.7942 22.6693H30.0225C30.5375 22.48 31.0743 22.296 31.6084 22.1281C31.9251 22.0285 32.1894 21.8069 32.3424 21.5122L35.1502 16.1061C35.4681 15.4939 35.2296 14.7399 34.6173 14.4219C34.0052 14.1041 33.2513 14.3426 32.9332 14.9546L30.3609 19.9077C29.783 20.1009 28.7835 20.4491 27.7795 20.8639C26.3377 21.4596 25.2429 22.0198 24.644 22.6764Z" fill="#04CE78"/>
</g>
<defs>
<clipPath id="clip0_1304_1472">
<rect width="40" height="40" fill="white"/>
</clipPath>
</defs>
</svg>
