<svg width="50" height="50" viewBox="0 0 50 50" fill="none" xmlns="http://www.w3.org/2000/svg">
<g clip-path="url(#clip0_125_7064)">
<path d="M26.5428 30.8015C26.1261 30.8015 25.7162 30.6045 25.46 30.2367C23.6246 27.6026 20.9584 25.5318 17.952 24.4052C17.5341 24.2485 17.1076 24.1078 16.6564 23.9593C15.4846 23.5734 14.2729 23.1748 13.1493 22.459C9.43965 20.096 8.20576 15.2323 10.3406 11.3868C10.694 10.7502 11.4965 10.5207 12.1332 10.8741C12.7698 11.2274 12.9993 12.0301 12.6459 12.6666C11.1866 15.2952 12.0298 18.6199 14.5655 20.2352C15.4107 20.7736 16.4166 21.1046 17.4812 21.4552C17.9375 21.6054 18.4091 21.7604 18.877 21.9358C22.3789 23.2482 25.4851 25.661 27.6231 28.7294C28.0394 29.3267 27.8926 30.1484 27.2952 30.5647C27.0656 30.7246 26.8028 30.8015 26.5428 30.8015Z" fill="#1F5FFF"/>
<path d="M42.5276 20.9729C42.1781 20.6201 42.1929 20.0483 42.5579 19.7117C42.6709 19.6075 42.7841 19.5033 42.8977 19.3993C45.2004 17.2902 46.7968 14.3611 46.6876 10.9637C46.5062 5.3252 41.8675 0.780961 36.2263 0.732816C30.3523 0.682621 25.5751 5.42901 25.5751 11.2913C25.5751 11.7628 25.7181 13.8785 25.7968 15.0067C25.8253 15.4161 25.5472 15.7834 25.1455 15.8674C24.6751 15.9656 24.3883 16.4449 24.5263 16.9053C25.2003 19.1537 27.4561 25.005 32.5939 24.5962C33.4872 24.5251 34.295 24.399 35.0352 24.229L34.8512 25.3011L27.5113 28.0211L20.4544 37.7355V41.6452C20.4544 47.6165 29.4901 54.3767 39.9106 43.4825C47.6527 35.3887 46.3352 24.8148 42.5276 20.9729Z" fill="#04CE78"/>
<path d="M42.5579 19.7117C42.6709 19.6075 42.7841 19.5033 42.8977 19.3993C45.2004 17.2902 46.7968 14.3611 46.6876 10.9637C46.5063 5.3252 41.8675 0.781062 36.2263 0.732819C35.8635 0.729694 35.5048 0.745026 35.1513 0.777741C40.3882 1.26114 44.5628 5.62061 44.7346 10.9635C44.8438 14.3609 43.2474 17.2901 40.9447 19.3992C40.8312 19.5032 40.7181 19.6074 40.6051 19.7115C40.24 20.0482 40.2252 20.6202 40.5748 20.9729C44.3823 24.8148 45.6998 35.3885 37.9576 43.4826C34.3377 47.2671 30.885 48.9206 27.92 49.2173C31.2682 49.5656 35.4633 48.1323 39.9107 43.4826C47.6529 35.3885 46.3353 24.8147 42.5277 20.9728C42.178 20.6202 42.1928 20.0483 42.5579 19.7117Z" fill="#1F5FFF"/>
<path d="M40.7433 24.1083C39.9849 22.275 37.867 21.3803 36.0009 22.1788L28.3094 25.5547C27.8509 25.7518 27.3173 25.6289 26.9916 25.2507L23.3519 21.0263C22.4878 20.0235 20.9766 19.9057 19.968 20.763C18.9518 21.6269 18.8313 23.1524 19.6992 24.1651L25.2701 30.6659C26.6308 32.2536 28.8508 32.799 30.7923 32.0225L38.7492 28.8225C40.6127 28.0813 41.5101 25.9607 40.7433 24.1083Z" fill="#04CE78"/>
<path d="M21.8305 22.0062L26.1703 27.0704C26.4961 27.4484 27.0294 27.5716 27.4878 27.3745L35.1794 23.9985C37.0455 23.2 39.1636 24.0945 39.922 25.9279C40.0393 26.2112 40.1174 26.5007 40.1591 26.7906C40.2026 27.0931 40.6187 27.1521 40.7369 26.8702C41.094 26.0184 41.1249 25.0302 40.7432 24.1081C39.9848 22.2748 37.8669 21.3801 36.0008 22.1786L28.3093 25.5546C27.8508 25.7516 27.3172 25.6287 26.9915 25.2506L23.3897 21.0699C22.5268 20.0682 20.9629 19.9093 19.9594 20.7702C19.804 20.9035 19.6698 21.0523 19.5571 21.2124C20.3744 21.0582 21.249 21.3313 21.8305 22.0062Z" fill="#1F5FFF"/>
<path d="M21.0838 28.1486H15.7734C15.5859 28.1486 15.4075 28.0674 15.2844 27.926L14.1729 26.6487C13.739 26.1503 13.1104 25.8643 12.4495 25.8643H12.3758C11.1141 25.8643 10.0913 26.887 10.0913 28.1487V33.0796C10.0913 33.8298 10.6995 34.438 11.4497 34.438H18.0957C19.3984 34.438 20.4544 35.494 20.4544 36.7968V38.6777L28.2445 37.3513V35.3096C28.2445 31.3547 25.0387 28.1486 21.0838 28.1486Z" fill="#04CE78"/>
<path d="M28.2445 35.3095L28.2441 35.3301C28.2441 35.8613 27.8135 36.2919 27.2823 36.2919C26.8035 36.2919 26.3908 35.9406 26.3301 35.4656C25.8798 31.9439 22.872 29.2225 19.2285 29.2225H13.918C13.7305 29.2225 13.5518 29.1415 13.4287 28.9999L12.3174 27.7225C11.8838 27.2245 11.2549 26.9384 10.5938 26.9384H10.5205C10.4922 26.9384 10.4648 26.9393 10.4375 26.9403C10.8408 26.2938 11.5575 25.8641 12.3759 25.8641H12.4496C13.1107 25.8641 13.7394 26.1506 14.1729 26.6486L15.2845 27.9259C15.4075 28.0675 15.586 28.1485 15.7735 28.1485H21.0839C25.0379 28.1486 28.2445 31.3545 28.2445 35.3095Z" fill="#1F5FFF"/>
<path d="M18.48 13.9189L14.7225 10.1614C14.5919 10.0309 14.5919 9.81914 14.7225 9.68857L18.48 5.93105C18.6105 5.80049 18.6105 5.58877 18.48 5.4582L15.4095 2.3877C15.2789 2.25713 15.0672 2.25713 14.9366 2.3877L11.1791 6.14521C11.0485 6.27578 10.8368 6.27578 10.7063 6.14521L6.94863 2.3876C6.81807 2.25703 6.60635 2.25703 6.47578 2.3876L3.40518 5.45811C3.27461 5.58867 3.27461 5.80039 3.40518 5.93096L7.1627 9.68848C7.29326 9.81904 7.29326 10.0308 7.1627 10.1613L3.40518 13.9189C3.27461 14.0495 3.27461 14.2612 3.40518 14.3918L6.47568 17.4623C6.60625 17.5929 6.81797 17.5929 6.94854 17.4623L10.7061 13.7048C10.8366 13.5742 11.0483 13.5742 11.1789 13.7048L14.9364 17.4623C15.067 17.5929 15.2787 17.5929 15.4093 17.4623L18.4798 14.3918C18.6105 14.2612 18.6105 14.0495 18.48 13.9189Z" fill="#1F5FFF"/>
<path d="M43.0547 20.2511C43.1672 20.1472 43.2797 20.0436 43.3927 19.9402C46.0969 17.4632 47.5272 14.2671 47.4201 10.9409C47.3267 8.02334 46.1182 5.28447 44.0173 3.22881C41.9153 1.17217 39.151 0.0255859 36.2331 0.000292969C36.2001 9.76562e-05 36.1674 0 36.1344 0C33.1354 0 30.3153 1.16025 28.1841 3.27354C26.0294 5.41006 24.8428 8.25762 24.8428 11.2917C24.8428 11.8134 24.999 14.0999 25.0662 15.0581C25.0692 15.1021 25.0389 15.142 24.9953 15.1511C24.5696 15.2402 24.1982 15.5058 23.9765 15.8795C23.7554 16.2521 23.7002 16.7032 23.8248 17.1164C24.3613 18.9058 25.8355 22.7908 28.8763 24.5069L28.0204 24.8826C27.8546 24.9539 27.6639 24.9101 27.5462 24.7737L23.9067 20.5494C22.7849 19.2461 20.8053 19.0915 19.4934 20.2055C19.1889 20.4643 18.9419 20.7726 18.7586 21.1143C18.4104 20.9911 17.7075 20.7592 17.7075 20.7592C16.6887 20.4235 15.7263 20.1066 14.9591 19.6185C13.7678 18.8589 12.9807 17.6468 12.741 16.3035L14.4183 17.9808C14.6198 18.1824 14.8877 18.2935 15.1728 18.2935C15.4578 18.2935 15.7257 18.1823 15.9271 17.981L18.9979 14.9104C19.4146 14.4935 19.4147 13.8185 18.9977 13.4015L15.5216 9.92549L18.9978 6.44932C19.4136 6.0335 19.4137 5.35674 18.9978 4.94043L15.9271 1.86973C15.511 1.45391 14.8344 1.454 14.4185 1.86982L10.9423 5.34609L7.46611 1.86982C7.0502 1.454 6.37344 1.454 5.95742 1.86982L2.88662 4.94062C2.68516 5.14219 2.57422 5.41006 2.57422 5.69502C2.57422 5.97998 2.68525 6.24795 2.88672 6.44941L6.36289 9.92549L2.88682 13.4016C2.68525 13.6031 2.57422 13.8711 2.57422 14.1561C2.57422 14.441 2.68516 14.7089 2.88672 14.9105L5.95723 17.981C6.37422 18.3979 7.04912 18.3981 7.46602 17.9811L8.66758 16.7795C9.0583 19.3432 10.5361 21.6638 12.7555 23.0776C15.4077 24.7685 17.6587 24.4996 21.0377 26.8534L21.5326 27.4309C21.3839 27.4225 21.2344 27.4173 21.0837 27.4173H15.8115L14.7252 26.1689C12.9047 24.0772 9.35859 25.3578 9.35859 28.1498V33.0809C9.35859 34.2337 10.2966 35.1717 11.4494 35.1717H18.0955C18.9922 35.1717 19.7218 35.9013 19.7218 36.7981V41.6469C19.7218 44.7952 21.8617 47.8385 25.0468 49.2194C26.2441 49.7387 27.5435 50.0001 28.8906 50.0001C29.7586 50 30.6466 49.8915 31.5395 49.6732C34.1412 49.0375 36.7519 47.506 39.2988 45.121C39.5941 44.8445 39.6094 44.3811 39.3329 44.0857C39.0564 43.7903 38.5929 43.7751 38.2977 44.0517C35.9367 46.2624 33.546 47.675 31.1918 48.2502C29.2262 48.7304 27.3028 48.6009 25.6296 47.8754C23.0137 46.7411 21.1867 44.1799 21.1867 41.6468V36.798C21.1867 35.0935 19.8 33.7067 18.0956 33.7067H11.4495C11.1044 33.7067 10.8235 33.426 10.8235 33.0809V28.1498C10.8235 26.6849 12.6962 26.0689 13.6202 27.1307L14.7318 28.408C14.9942 28.7094 15.3738 28.8822 15.7733 28.8822H21.0838C24.6284 28.8822 27.5122 31.7661 27.5122 35.3109V37.7985C27.5122 38.2031 27.8401 38.531 28.2446 38.531C28.6491 38.531 28.9771 38.203 28.9771 37.7985V35.3109C28.9771 34.5416 28.8644 33.7984 28.6582 33.0948C28.7643 33.1009 28.8704 33.1049 28.9766 33.1049C29.6876 33.1049 30.398 32.9705 31.0653 32.7034L34.9346 31.1478C35.3099 30.9968 35.4918 30.5702 35.3409 30.1949C35.19 29.8196 34.7634 29.6378 34.3881 29.7886L30.5199 31.3438C29.7219 31.6633 28.8403 31.7247 28.0075 31.5249C27.1109 29.8916 25.6529 28.6095 23.8955 27.9369L20.2551 23.6896C19.9628 23.3486 19.8213 22.9144 19.8566 22.4668C19.892 22.0193 20.0998 21.6127 20.4415 21.3222C21.1416 20.7278 22.1979 20.8102 22.7964 21.5056L26.4365 25.7307C26.9741 26.3536 27.843 26.5538 28.6038 26.2265L36.2892 22.8531C37.002 22.5481 37.7872 22.5401 38.5003 22.8311C39.2155 23.1228 39.7717 23.6762 40.0665 24.3896C40.3617 25.1029 40.3588 25.8871 40.0584 26.5976C39.7578 27.3086 39.1967 27.8573 38.4754 28.144L37.5594 28.5131C37.1842 28.6644 37.0025 29.091 37.1537 29.4662C37.2687 29.7518 37.5433 29.9251 37.8333 29.9251C38.0701 29.9251 38.1405 29.8478 39.0197 29.504C40.1076 29.0786 40.9532 28.2428 41.4076 27.1678C41.8619 26.0934 41.8663 24.9077 41.4202 23.8296C40.9748 22.7518 40.1344 21.9153 39.0535 21.4744C37.9748 21.0345 36.7883 21.0457 35.7065 21.509L30.7171 23.6989C29.327 23.3088 28.0891 22.2987 27.0351 20.6906C26.0575 19.1991 25.4831 17.5475 25.2273 16.6947C25.2126 16.6459 25.2444 16.5956 25.2953 16.585C26.051 16.4268 26.5807 15.727 26.5272 14.9564C26.421 13.4395 26.3073 11.6802 26.3073 11.2918C26.3073 8.65127 27.34 6.17314 29.2151 4.31377C31.0902 2.45449 33.5741 1.44492 36.2201 1.46533C38.7572 1.4873 41.1624 2.48545 42.9924 4.27598C44.822 6.06611 45.8743 8.4498 45.9556 10.9881C46.0487 13.8805 44.7869 16.6762 42.4032 18.8598C42.2892 18.964 42.1751 19.0692 42.0611 19.1743C41.7371 19.4731 41.5531 19.8806 41.543 20.3214C41.5328 20.7614 41.6976 21.1759 42.0072 21.4891C43.7504 23.2479 44.8328 26.4836 44.8322 29.9338C44.8314 34.0679 43.3197 38.2184 40.5755 41.6205C40.3216 41.9354 40.3709 42.3966 40.6857 42.6505C40.9999 42.9038 41.4612 42.8558 41.7157 42.5402C44.6692 38.8785 46.2962 34.4016 46.2971 29.934C46.2978 26.054 45.083 22.5115 43.0482 20.4585C42.9913 20.4006 42.9949 20.3062 43.0547 20.2511ZM6.71172 16.6637L4.204 14.156L7.68037 10.6797C8.09609 10.2636 8.096 9.58682 7.68018 9.171L4.204 5.69482L6.71172 3.18711L10.188 6.66348C10.6038 7.0791 11.2806 7.0792 11.6966 6.66338L15.1728 3.18711L17.6805 5.69482L14.2042 9.17109C14.0027 9.37266 13.8918 9.64053 13.8918 9.92549C13.8918 10.2104 14.0028 10.4784 14.2043 10.6799L17.6805 14.156L15.1728 16.6637L11.6966 13.1875C11.2807 12.7717 10.6039 12.7717 10.1879 13.1875L6.71172 16.6637ZM13.5428 21.8422C11.3572 20.4498 10.0288 18.0081 10.0286 15.4185L10.9422 14.5049L11.2312 14.7938C10.9919 17.1978 12.118 19.5445 14.172 20.8541C15.0941 21.4409 16.1408 21.7856 17.2519 22.1517L17.2699 22.1576C17.6372 22.2788 18.0146 22.4039 18.3877 22.5381C18.3779 23.0137 18.4748 23.4773 18.669 23.9017C18.5168 23.8393 18.3639 23.7786 18.21 23.7209C16.703 23.1535 15.0026 22.7727 13.5428 21.8422Z" fill="#000D44"/>
<path d="M30.6848 13.5028C30.3322 13.9127 29.737 13.9949 29.2884 13.7117C28.9461 13.4955 28.4939 13.5979 28.2779 13.9399C28.0619 14.282 28.1641 14.7343 28.5062 14.9503C28.9159 15.2091 29.3858 15.3436 29.8635 15.3436C30.6309 15.3436 31.3296 14.9997 31.7954 14.458C32.0592 14.1513 32.0243 13.6889 31.7177 13.425C31.411 13.1613 30.9485 13.1961 30.6848 13.5028Z" fill="#000D44"/>
<path d="M36.1277 16.6366C35.7786 16.432 35.3301 16.5491 35.1255 16.8983C34.921 17.2472 35.0382 17.6959 35.3872 17.9004C35.7463 18.1109 36.1376 18.2392 36.5501 18.2817C38.2127 18.4537 39.7135 17.1599 39.8957 15.3981C40.0762 13.6523 38.8974 12.0651 37.211 11.8909C36.5975 11.8276 35.987 11.9603 35.4453 12.2753C35.0956 12.4787 34.977 12.927 35.1804 13.2767C35.3838 13.6263 35.832 13.7448 36.1817 13.5417C36.4534 13.3836 36.7571 13.3169 37.0602 13.348C37.8921 13.434 38.5407 14.2587 38.4385 15.2475C38.3103 16.4874 37.0932 17.2018 36.1277 16.6366Z" fill="#000D44"/>
</g>
<defs>
<clipPath id="clip0_125_7064">
<rect width="50" height="50" fill="white"/>
</clipPath>
</defs>
</svg>
