<svg width="44" height="44" viewBox="0 0 44 44" fill="none" xmlns="http://www.w3.org/2000/svg">
<g clip-path="url(#clip0_378_1038)">
<path d="M40.9198 24.6587L39.7804 20.101C40.0919 20.0349 40.3256 19.7585 40.3256 19.4274V18.6925C40.3256 17.097 39.0276 15.799 37.4321 15.799H32.2422V14.2833C32.2422 13.4982 31.6035 12.8595 30.8184 12.8595H21.1681L27.0325 10.5138C27.2014 10.4454 27.3364 10.3129 27.4078 10.1452C27.4792 9.97759 27.4813 9.78847 27.4137 9.61927C27.346 9.45007 27.214 9.31458 27.0467 9.24245C26.8793 9.17033 26.6902 9.16744 26.5207 9.23442L21.7191 11.155C23.1822 10.2163 24.6299 9.18303 25.181 8.46047C26.2539 7.05376 25.9822 5.03646 24.5755 3.96353C23.1687 2.89051 21.1514 3.16234 20.0785 4.56905C19.2946 5.59703 18.2603 8.48548 17.5908 10.5209C16.9213 8.48565 15.887 5.59703 15.1031 4.56905C14.0302 3.16234 12.0129 2.89069 10.6061 3.96353C9.19944 5.03637 8.92779 7.05367 10.0006 8.46047C10.5517 9.18312 11.9993 10.2163 13.4625 11.155L8.66087 9.23442C8.57687 9.20078 8.48706 9.18403 8.39658 9.18512C8.30611 9.1862 8.21673 9.20511 8.13356 9.24075C8.05039 9.27639 7.97506 9.32807 7.91188 9.39284C7.84869 9.45761 7.79889 9.53419 7.76531 9.61822C7.7317 9.70222 7.71496 9.79202 7.71606 9.88249C7.71716 9.97296 7.73606 10.0623 7.7717 10.1455C7.80734 10.2287 7.85902 10.304 7.92377 10.3672C7.98853 10.4304 8.0651 10.4802 8.14911 10.5138L14.0135 12.8595H4.36322C3.57809 12.8595 2.93941 13.4982 2.93941 14.2833V26.7761C2.93941 26.9588 3.01199 27.134 3.1412 27.2632C3.2704 27.3924 3.44564 27.465 3.62837 27.465C3.81109 27.465 3.98633 27.3924 4.11554 27.2632C4.24474 27.134 4.31733 26.9588 4.31733 26.7761V14.2833C4.31733 14.258 4.33787 14.2374 4.36322 14.2374H30.8183C30.8437 14.2374 30.8642 14.258 30.8642 14.2833V26.7762C30.8642 26.959 30.9368 27.1342 31.066 27.2634C31.1952 27.3926 31.3704 27.4652 31.5532 27.4652C31.7359 27.4652 31.9111 27.3926 32.0403 27.2634C32.1695 27.1342 32.2421 26.959 32.2421 26.7762V25.9952H40.3689L40.371 25.9954L40.3733 25.9953C41.3732 25.9961 42.2223 26.6525 42.5138 27.5569H40.3715C40.1888 27.5569 40.0136 27.6295 39.8844 27.7587C39.7552 27.8879 39.6826 28.0631 39.6826 28.2459V29.7156C39.6826 30.9059 40.6509 31.8742 41.8412 31.8742H42.6221V34.9055H40.8206C40.2289 33.1969 38.6046 31.966 36.6972 31.966C34.7898 31.966 33.1654 33.1968 32.5737 34.9055H32.242V29.7155C32.242 29.5328 32.1694 29.3575 32.0402 29.2283C31.911 29.0991 31.7358 29.0265 31.5531 29.0265C31.3703 29.0265 31.1951 29.0991 31.0659 29.2283C30.9367 29.3575 30.8641 29.5328 30.8641 29.7155V34.9054H16.5702C15.9784 33.1968 14.3541 31.9659 12.4468 31.9659C10.5394 31.9659 8.91498 33.1967 8.3233 34.9054H4.36322C4.35105 34.9054 4.33937 34.9006 4.33077 34.892C4.32216 34.8834 4.31733 34.8717 4.31733 34.8595V33.3438H7.30271C7.48543 33.3438 7.66067 33.2713 7.78988 33.142C7.91908 33.0128 7.99167 32.8376 7.99167 32.6549C7.99167 32.4722 7.91908 32.2969 7.78988 32.1677C7.66067 32.0385 7.48543 31.9659 7.30271 31.9659H0.688961C0.506237 31.9659 0.330997 32.0385 0.201792 32.1677C0.0725867 32.2969 0 32.4722 0 32.6549C0 32.8376 0.0725867 33.0128 0.201792 33.142C0.330997 33.2713 0.506237 33.3438 0.688961 33.3438H2.93949V34.8595C2.93949 35.6446 3.57818 36.2833 4.3633 36.2833H8.08474C8.08457 36.2986 8.08354 36.3138 8.08354 36.3292C8.08354 38.735 10.0409 40.6924 12.4468 40.6924C14.8526 40.6924 16.81 38.735 16.81 36.3292C16.81 36.3138 16.8089 36.2986 16.8088 36.2833H32.3351C32.3349 36.2986 32.3339 36.3138 32.3339 36.3292C32.3339 38.735 34.2913 40.6924 36.6971 40.6924C39.1029 40.6924 41.0603 38.735 41.0603 36.3292C41.0603 36.3138 41.0593 36.2986 41.0591 36.2833H43.3109C43.4937 36.2833 43.6689 36.2108 43.7981 36.0815C43.9273 35.9523 43.9999 35.7771 43.9999 35.5944V28.2458C44 26.4313 42.6613 24.9238 40.9198 24.6587ZM14.8586 10.4035C12.141 8.71476 11.3349 7.9378 11.0962 7.62481C10.4841 6.82224 10.6391 5.67128 11.4418 5.05915C11.7599 4.81598 12.1494 4.68445 12.5498 4.68489C13.1017 4.68489 13.6477 4.93291 14.0076 5.4047C14.674 6.27851 15.7177 9.21955 16.4068 11.3389C15.887 11.0332 15.3709 10.7214 14.8586 10.4035ZM18.775 11.3388C19.4641 9.21955 20.5078 6.2786 21.1741 5.40462C21.7863 4.60205 22.9372 4.4471 23.7398 5.05915C24.5425 5.67128 24.6974 6.82224 24.0854 7.62481C23.8467 7.93771 23.0406 8.71476 20.3232 10.4034C19.8109 10.7214 19.2948 11.0332 18.775 11.3388ZM32.2422 17.1768H37.4321C38.2679 17.1768 38.9478 17.8567 38.9478 18.6924V18.7383H32.2422V17.1768ZM32.2422 24.6173V20.1163H38.364L39.4892 24.6173H32.2422ZM12.4468 39.3146C10.8006 39.3146 9.46137 37.9754 9.46137 36.3292C9.46137 34.6831 10.8006 33.3438 12.4468 33.3438C14.0929 33.3438 15.4321 34.6831 15.4321 36.3292C15.4321 37.9754 14.0929 39.3146 12.4468 39.3146ZM36.6973 39.3146C35.0512 39.3146 33.7119 37.9754 33.7119 36.3292C33.7119 34.6831 35.0512 33.3438 36.6973 33.3438C38.3434 33.3438 39.6827 34.6831 39.6827 36.3292C39.6827 37.9754 38.3434 39.3146 36.6973 39.3146ZM42.6222 30.4962H41.8413C41.4108 30.4962 41.0605 30.1459 41.0605 29.7154V28.9346H42.6221V30.4962H42.6222Z" fill="#1F5FFF"/>
<path d="M12.4468 34.9054C11.6617 34.9054 11.023 35.5441 11.023 36.3292C11.023 37.1144 11.6617 37.753 12.4468 37.753C13.2319 37.753 13.8706 37.1144 13.8706 36.3292C13.8706 35.5441 13.2319 34.9054 12.4468 34.9054ZM36.6973 34.9054C35.9122 34.9054 35.2735 35.5441 35.2735 36.3292C35.2735 37.1144 35.9122 37.753 36.6973 37.753C37.4824 37.753 38.1211 37.1144 38.1211 36.3292C38.1211 35.5441 37.4824 34.9054 36.6973 34.9054ZM28.6138 31.9659H18.3257C18.143 31.9659 17.9677 32.0385 17.8385 32.1677C17.7093 32.2969 17.6367 32.4722 17.6367 32.6549C17.6367 32.8376 17.7093 33.0128 17.8385 33.1421C17.9677 33.2713 18.143 33.3438 18.3257 33.3438H28.6138C28.7965 33.3438 28.9717 33.2713 29.1009 33.1421C29.2301 33.0128 29.3027 32.8376 29.3027 32.6549C29.3027 32.4722 29.2301 32.2969 29.1009 32.1677C28.9717 32.0385 28.7965 31.9659 28.6138 31.9659ZM10.9771 29.0265H2.15869C1.97596 29.0265 1.80072 29.0991 1.67152 29.2283C1.54231 29.3575 1.46973 29.5328 1.46973 29.7155C1.46973 29.8982 1.54231 30.0734 1.67152 30.2027C1.80072 30.3319 1.97596 30.4044 2.15869 30.4044H10.9771C11.1598 30.4044 11.335 30.3319 11.4642 30.2027C11.5935 30.0734 11.666 29.8982 11.666 29.7155C11.666 29.5328 11.5935 29.3575 11.4642 29.2283C11.335 29.0991 11.1598 29.0265 10.9771 29.0265ZM10.9771 18.7383H8.03758C7.85486 18.7383 7.67962 18.8109 7.55042 18.9401C7.42121 19.0693 7.34862 19.2446 7.34862 19.4273V25.3062C7.34862 25.4889 7.42121 25.6642 7.55042 25.7934C7.67962 25.9226 7.85486 25.9952 8.03758 25.9952C8.22031 25.9952 8.39555 25.9226 8.52475 25.7934C8.65396 25.6642 8.72655 25.4889 8.72655 25.3062V23.0557H10.2422C10.4249 23.0557 10.6002 22.9831 10.7294 22.8539C10.8586 22.7247 10.9312 22.5494 10.9312 22.3667C10.9312 22.184 10.8586 22.0087 10.7294 21.8795C10.6002 21.7503 10.4249 21.6777 10.2422 21.6777H8.72655V20.1163H10.9771C11.1598 20.1163 11.335 20.0437 11.4642 19.9145C11.5935 19.7853 11.666 19.61 11.666 19.4273C11.666 19.2446 11.5935 19.0693 11.4642 18.9401C11.335 18.8109 11.1598 18.7383 10.9771 18.7383ZM16.3988 23.3787C17.0883 22.9271 17.5449 22.1483 17.5449 21.2645C17.5449 19.8715 16.4118 18.7383 15.0188 18.7383H13.1816C12.9989 18.7383 12.8237 18.8109 12.6945 18.9401C12.5653 19.0693 12.4927 19.2446 12.4927 19.4273V25.3062C12.4927 25.4889 12.5653 25.6642 12.6945 25.7934C12.8237 25.9226 12.9989 25.9952 13.1816 25.9952C13.3644 25.9952 13.5396 25.9226 13.6688 25.7934C13.798 25.6642 13.8706 25.4889 13.8706 25.3062V23.7905H15.0175L16.2827 25.6883C16.3456 25.7828 16.4309 25.8603 16.531 25.9138C16.6311 25.9674 16.743 25.9953 16.8565 25.9952C16.9923 25.9952 17.1251 25.9549 17.238 25.8793C17.3133 25.8292 17.3779 25.7647 17.4283 25.6895C17.4786 25.6143 17.5137 25.53 17.5314 25.4413C17.5492 25.3525 17.5493 25.2612 17.5317 25.1725C17.5141 25.0837 17.4792 24.9993 17.429 24.924L16.3988 23.3787ZM15.0188 22.4127H13.8706V20.1163H15.0188C15.652 20.1163 16.167 20.6313 16.167 21.2645C16.167 21.8977 15.652 22.4127 15.0188 22.4127ZM22 24.6173H19.7495V23.0534C19.7647 23.0545 19.7799 23.0558 19.7954 23.0558H21.2651C21.4478 23.0558 21.623 22.9832 21.7523 22.854C21.8815 22.7248 21.954 22.5495 21.954 22.3668C21.954 22.1841 21.8815 22.0088 21.7523 21.8796C21.623 21.7504 21.4478 21.6778 21.2651 21.6778H19.7954C19.7798 21.6778 19.7647 21.6791 19.7495 21.6802V20.1163H22C22.1827 20.1163 22.358 20.0437 22.4872 19.9145C22.6164 19.7853 22.689 19.61 22.689 19.4273C22.689 19.2446 22.6164 19.0693 22.4872 18.9401C22.358 18.8109 22.1827 18.7383 22 18.7383H19.0605C18.8778 18.7383 18.7026 18.8109 18.5734 18.9401C18.4442 19.0693 18.3716 19.2446 18.3716 19.4273V25.3062C18.3716 25.4889 18.4442 25.6642 18.5734 25.7934C18.7026 25.9226 18.8778 25.9952 19.0605 25.9952H22C22.1814 25.9931 22.3547 25.9197 22.4822 25.7907C22.6098 25.6617 22.6813 25.4876 22.6813 25.3062C22.6813 25.1249 22.6098 24.9508 22.4822 24.8218C22.3547 24.6928 22.1814 24.6194 22 24.6173ZM27.1441 24.6173H24.8935V23.0558H25.6744C25.8571 23.0558 26.0323 22.9832 26.1615 22.854C26.2907 22.7248 26.3633 22.5495 26.3633 22.3668C26.3633 22.1841 26.2907 22.0088 26.1615 21.8796C26.0323 21.7504 25.8571 21.6778 25.6744 21.6778H24.8935V20.1163H27.1441C27.3268 20.1163 27.502 20.0437 27.6312 19.9145C27.7604 19.7853 27.833 19.61 27.833 19.4273C27.833 19.2446 27.7604 19.0693 27.6312 18.9401C27.502 18.8109 27.3268 18.7383 27.1441 18.7383H24.2046C24.0219 18.7383 23.8466 18.8109 23.7174 18.9401C23.5882 19.0693 23.5156 19.2446 23.5156 19.4273V25.3062C23.5156 25.4889 23.5882 25.6642 23.7174 25.7934C23.8466 25.9226 24.0219 25.9952 24.2046 25.9952H27.1441C27.3254 25.9931 27.4987 25.9197 27.6263 25.7907C27.7538 25.6617 27.8253 25.4876 27.8253 25.3062C27.8253 25.1249 27.7538 24.9508 27.6263 24.8218C27.4987 24.6928 27.3254 24.6194 27.1441 24.6173Z" fill="#1F5FFF"/>
</g>
<defs>
<clipPath id="clip0_378_1038">
<rect width="44" height="44" fill="white"/>
</clipPath>
</defs>
</svg>
