<svg width="44" height="44" viewBox="0 0 44 44" fill="none" xmlns="http://www.w3.org/2000/svg">
<g clip-path="url(#clip0_378_1013)">
<path d="M40.9103 19.1833C40.7419 14.3839 38.7983 9.89586 35.3856 6.48311C31.8085 2.90536 27.0545 0.935669 22 0.935669C11.7913 0.935669 3.44983 9.06123 3.09027 19.1833C1.53239 19.8756 0.442017 21.4349 0.442017 23.2471V28.2397C0.442017 30.6914 2.43645 32.6865 4.88877 32.6865C6.47552 32.6865 7.76595 31.396 7.76595 29.8093V21.6769C7.76595 20.187 6.62333 18.9722 5.17064 18.8279C5.70689 10.0093 13.048 2.99817 22 2.99817C26.5045 2.99817 30.7401 4.75404 33.9281 7.94198C36.8555 10.8694 38.5687 14.685 38.8265 18.8285C37.3752 18.9743 36.2346 20.1884 36.2346 21.6769V29.8086C36.2346 31.3108 37.3951 32.5332 38.865 32.6604V34.7153C38.865 37.0294 36.982 38.9118 34.6678 38.9118H31.5596C31.407 38.4759 31.1678 38.073 30.8323 37.7389C30.2445 37.1484 29.4607 36.8232 28.6261 36.8232H25.4223C24.9624 36.8232 24.521 36.9208 24.1168 37.1092C23.014 37.6159 22.3018 38.7282 22.3018 39.943C22.3018 40.7777 22.627 41.5614 23.2161 42.1479C23.8053 42.7384 24.5891 43.0636 25.4223 43.0636H28.6261C29.9543 43.0636 31.1251 42.2049 31.5617 40.9743H34.6678C38.1198 40.9743 40.9275 38.1665 40.9275 34.7153V32.2932C42.4758 31.5968 43.5579 30.043 43.5579 28.2384V23.2457C43.5579 21.4349 42.4675 19.8756 40.9103 19.1833ZM5.70277 21.6769V29.8086C5.70277 30.2575 5.3377 30.6233 4.88808 30.6233C3.57358 30.6233 2.50383 29.5535 2.50383 28.239V23.2464C2.50383 21.9312 3.57358 20.8622 4.88808 20.8622C5.3377 20.8622 5.70277 21.2279 5.70277 21.6769ZM29.6608 40.1644C29.5583 40.6498 29.1225 41.0025 28.6254 41.0025H25.4216C25.1398 41.0025 24.8751 40.8925 24.673 40.6904C24.4736 40.4917 24.3636 40.2263 24.3636 39.9444C24.3636 39.5326 24.6049 39.1565 24.983 38.9826C25.1178 38.9194 25.2656 38.887 25.4216 38.887H28.6254C28.9073 38.887 29.172 38.9964 29.3734 39.1985C29.5728 39.3972 29.6828 39.6625 29.6828 39.9444C29.6835 40.02 29.6752 40.0957 29.6608 40.1644ZM41.4954 28.239C41.4954 29.5535 40.4256 30.6233 39.1111 30.6233C38.6622 30.6233 38.2965 30.2582 38.2965 29.8086V21.6769C38.2965 21.2279 38.6615 20.8622 39.1111 20.8622C40.4256 20.8622 41.4954 21.9319 41.4954 23.2464V28.239Z" fill="#1F5FFF"/>
<path d="M28.6776 28.5945C31.0873 28.5945 33.0474 26.6337 33.0474 24.2247V15.3209C33.0474 14.1563 32.5923 13.059 31.7659 12.2327C30.9395 11.4063 29.843 10.9512 28.6776 10.9512H15.3223C12.9126 10.9512 10.9525 12.9112 10.9525 15.3209V24.2247C10.9525 26.6344 12.9126 28.5945 15.3223 28.5945H15.4041V30.9017C15.4041 31.7817 15.9286 32.5627 16.7399 32.892C17.0018 32.9972 17.2741 33.0495 17.5436 33.0495C18.1053 33.0495 18.6525 32.8267 19.0533 32.4122L22.8916 28.5945H28.6776ZM21.7401 26.8317L17.5862 30.9629C17.5676 30.9822 17.5539 30.9966 17.5147 30.9794C17.4673 30.9602 17.4673 30.9292 17.4673 30.9017V27.5632C17.4673 26.994 17.006 26.532 16.436 26.532H15.323C14.0504 26.532 13.0157 25.4966 13.0157 24.2247V15.3209C13.0157 14.0484 14.0504 13.0137 15.323 13.0137H28.6783C29.293 13.0137 29.8711 13.2543 30.3084 13.6909C30.7456 14.1281 30.9856 14.707 30.9856 15.3209V24.2247C30.9856 25.4973 29.9502 26.532 28.6783 26.532H22.4675C22.1945 26.532 21.9333 26.6399 21.7401 26.8317Z" fill="#1F5FFF"/>
<path d="M16.9902 18.416C16.1514 18.416 15.4688 19.0994 15.4688 19.9375C15.4688 20.7755 16.1521 21.4589 16.9902 21.4589C17.8296 21.4589 18.513 20.7755 18.513 19.9375C18.513 19.0994 17.8303 18.416 16.9902 18.416Z" fill="#1F5FFF"/>
<path d="M21.9992 18.416C21.1605 18.416 20.4778 19.0994 20.4778 19.9375C20.4778 20.7755 21.1612 21.4589 21.9992 21.4589C22.8393 21.4589 23.522 20.7755 23.522 19.9375C23.522 19.0994 22.8393 18.416 21.9992 18.416Z" fill="#1F5FFF"/>
<path d="M27.0084 18.416C26.1696 18.416 25.4869 19.0994 25.4869 19.9375C25.4869 20.7755 26.1703 21.4589 27.0084 21.4589C27.8478 21.4589 28.5312 20.7755 28.5312 19.9375C28.5312 19.0994 27.8478 18.416 27.0084 18.416Z" fill="#1F5FFF"/>
</g>
<defs>
<clipPath id="clip0_378_1013">
<rect width="44" height="44" fill="white"/>
</clipPath>
</defs>
</svg>
