<svg width="44" height="44" viewBox="0 0 44 44" fill="none" xmlns="http://www.w3.org/2000/svg">
<path d="M41.9869 28.7133C41.8512 28.617 41.6851 28.5732 41.5195 28.5901C41.354 28.607 41.2001 28.6833 41.0866 28.805C38.3241 31.765 34.7727 34.1042 30.8163 35.5698C24.4051 37.9449 16.9367 37.7385 11.1671 35.0561L11.7244 33.269C11.7564 33.1661 11.7639 33.0571 11.746 32.9508C11.7282 32.8445 11.6856 32.7438 11.6218 32.657C11.5579 32.5702 11.4745 32.4996 11.3783 32.4509C11.2821 32.4022 11.1759 32.3768 11.0681 32.3768H11.0678C7.56458 32.377 4.52772 31.8284 2.73962 30.8686C2.63688 30.8135 2.5218 30.7854 2.40521 30.7869C2.28862 30.7885 2.17434 30.8197 2.07313 30.8776C1.97192 30.9355 1.8871 31.0182 1.82664 31.1179C1.76618 31.2176 1.73208 31.3311 1.72753 31.4476C1.56433 35.6381 5.16168 40.5868 7.76816 42.7622C7.85498 42.8347 7.95835 42.8846 8.0691 42.9076C8.17985 42.9306 8.29456 42.9259 8.40305 42.8939C8.51155 42.8619 8.61048 42.8037 8.69107 42.7243C8.77167 42.645 8.83143 42.547 8.86507 42.439L9.26296 41.1628C12.1061 42.4071 15.1117 43.1181 18.2092 43.2781C18.6519 43.3011 19.0938 43.3124 19.5349 43.3124C22.5597 43.3124 25.5412 42.7752 28.4153 41.7105C34.3608 39.5082 39.2556 35.2048 42.1982 29.5931C42.2754 29.4457 42.2966 29.2753 42.2577 29.1135C42.2189 28.9518 42.1227 28.8095 41.9869 28.7133ZM27.9375 40.4212C21.763 42.7086 15.0847 42.4141 9.13311 39.5928C9.04418 39.5506 8.94722 39.528 8.8488 39.5266C8.75038 39.5251 8.65279 39.5448 8.56265 39.5844C8.47252 39.6239 8.39191 39.6823 8.32628 39.7556C8.26065 39.8289 8.21152 39.9155 8.18221 40.0094L7.87387 40.9984C5.88201 39.0309 3.53325 35.6174 3.15074 32.5649C5.39508 33.4368 8.17731 33.6855 10.1374 33.7393L9.67778 35.2127C9.62921 35.3685 9.63762 35.5365 9.70151 35.6866C9.7654 35.8367 9.8806 35.9592 10.0265 36.0322C13.1182 37.5795 16.7378 38.4644 20.494 38.591C24.166 38.7148 27.9007 38.1161 31.2941 36.8591C33.7466 35.9507 36.0518 34.7215 38.1274 33.2262C35.4385 36.4505 31.9396 38.9388 27.9375 40.4212ZM8.01644 26.0379L21.6506 34.0613C21.7582 34.1247 21.8788 34.1563 21.9993 34.1563C22.1199 34.1563 22.2405 34.1247 22.3481 34.0613L35.9823 26.0379C36.0855 25.9771 36.171 25.8905 36.2304 25.7866C36.2898 25.6827 36.3211 25.5651 36.3211 25.4453V9.39824C36.3211 9.15469 36.1922 8.92928 35.9823 8.8057L22.348 0.782143C22.2423 0.719899 22.1219 0.687073 21.9993 0.687073C21.8767 0.687073 21.7563 0.719899 21.6506 0.782143L8.01644 8.80578C7.91329 8.86653 7.82778 8.95314 7.76836 9.05706C7.70895 9.16099 7.67769 9.27861 7.67767 9.39832V25.4454C7.67765 25.5651 7.7089 25.6828 7.76832 25.7867C7.82773 25.8906 7.91326 25.9772 8.01644 26.0379ZM9.05259 10.6005L21.3117 17.8149V32.2665L9.05259 25.0523V10.6005ZM26.8395 13.7757L14.5607 6.54984L17.1592 5.02067L29.4379 12.2465L26.8395 13.7757ZM30.1059 13.4489V18.1726L27.527 19.6902L27.5269 14.9666L30.1059 13.4489ZM25.4839 14.5734L21.9992 16.6241L9.72058 9.39824L13.2052 7.3476L25.4839 14.5734ZM22.6868 32.2666V17.815L26.1519 15.7757L26.152 20.8925C26.152 21.0136 26.184 21.1326 26.2448 21.2374C26.3056 21.3422 26.393 21.4291 26.4982 21.4892C26.6034 21.5495 26.7226 21.5808 26.8438 21.5801C26.965 21.5793 27.0838 21.5465 27.1882 21.485L31.1421 19.1582C31.2453 19.0975 31.3308 19.0109 31.3902 18.907C31.4496 18.803 31.4809 18.6854 31.4809 18.5657V12.6398L34.9461 10.6006V25.0524L22.6868 32.2666ZM21.9993 2.17235L34.2781 9.39824L30.7934 11.449L18.5146 4.22299L21.9993 2.17235Z" fill="#1F5FFF"/>
</svg>
