<svg width="22" height="22" viewBox="0 0 22 22" fill="none" xmlns="http://www.w3.org/2000/svg">
<path d="M18.2052 10.6453L16.5803 10.742" stroke="white" stroke-miterlimit="10" stroke-linecap="round" stroke-linejoin="round"/>
<path d="M19.6027 11.9356C20.3745 11.9356 21.0001 11.3145 21.0001 10.5485C21.0001 9.7824 20.3745 9.16138 19.6027 9.16138C18.831 9.16138 18.2053 9.7824 18.2053 10.5485C18.2053 11.3145 18.831 11.9356 19.6027 11.9356Z" stroke="white" stroke-miterlimit="10" stroke-linecap="round" stroke-linejoin="round"/>
<path d="M17.2626 14.742L16.1902 13.6775" stroke="white" stroke-miterlimit="10" stroke-linecap="round" stroke-linejoin="round"/>
<path d="M18.9914 16.9128C19.6497 16.5136 19.8574 15.6603 19.4553 15.0069C19.0532 14.3534 18.1936 14.1472 17.5353 14.5464C16.8769 14.9455 16.6692 15.7988 17.0713 16.4522C17.4734 17.1057 18.333 17.3119 18.9914 16.9128Z" stroke="white" stroke-miterlimit="10" stroke-linecap="round" stroke-linejoin="round"/>
<path d="M17.1977 6.58081L16.1252 7.83888" stroke="white" stroke-miterlimit="10" stroke-linecap="round" stroke-linejoin="round"/>
<path d="M19.2115 6.39262C19.6846 5.78742 19.5738 4.91612 18.9642 4.44652C18.3545 3.97692 17.4767 4.08684 17.0036 4.69204C16.5305 5.29723 16.6412 6.16853 17.2509 6.63813C17.8606 7.10773 18.7384 6.99781 19.2115 6.39262Z" stroke="white" stroke-miterlimit="10" stroke-linecap="round" stroke-linejoin="round"/>
<path d="M5.46596 10.9353L3.84106 10.9031" stroke="white" stroke-miterlimit="10" stroke-linecap="round" stroke-linejoin="round"/>
<path d="M2.48618 12.2639C3.25794 12.2392 3.8637 11.5982 3.83919 10.8321C3.81467 10.066 3.16916 9.46501 2.3974 9.48971C1.62564 9.5144 1.01987 10.1555 1.04439 10.9215C1.0689 11.6876 1.71441 12.2886 2.48618 12.2639Z" stroke="white" stroke-miterlimit="10" stroke-linecap="round" stroke-linejoin="round"/>
<path d="M5.95351 13.8386L4.91357 14.9677" stroke="white" stroke-miterlimit="10" stroke-linecap="round" stroke-linejoin="round"/>
<path d="M5.25794 16.5323C5.56047 15.8275 5.23013 15.0127 4.5201 14.7124C3.81008 14.4121 2.98923 14.74 2.6867 15.4448C2.38417 16.1496 2.71451 16.9644 3.42453 17.2647C4.13456 17.565 4.9554 17.2371 5.25794 16.5323Z" stroke="white" stroke-miterlimit="10" stroke-linecap="round" stroke-linejoin="round"/>
<path d="M5.85593 8.0322L4.71851 6.8064" stroke="white" stroke-miterlimit="10" stroke-linecap="round" stroke-linejoin="round"/>
<path d="M4.67478 6.85932C5.26904 6.37056 5.35162 5.49616 4.85923 4.90628C4.36685 4.31641 3.48594 4.23443 2.89168 4.72319C2.29742 5.21194 2.21483 6.08634 2.70722 6.67622C3.19961 7.26609 4.08051 7.34807 4.67478 6.85932Z" stroke="white" stroke-miterlimit="10" stroke-linecap="round" stroke-linejoin="round"/>
<path d="M12.9082 2.90323C12.9082 3.45161 12.6807 4.19355 12.3232 4.80645C11.9982 5.35484 11.5433 5.74194 11.0233 5.74194C10.5358 5.74194 10.0809 5.32258 9.72339 4.80645C9.36591 4.22581 9.13843 3.45161 9.13843 2.93548C9.13843 1.83871 9.98337 1 11.0233 1C12.0632 1 12.9082 1.83871 12.9082 2.90323Z" stroke="white" stroke-miterlimit="10" stroke-linecap="round" stroke-linejoin="round"/>
<path d="M8.68335 13.7099V11.0647" stroke="white" stroke-miterlimit="10" stroke-linecap="round" stroke-linejoin="round"/>
<path d="M8.68333 13.7097H8.09836C7.64339 13.7097 7.25342 13.3226 7.25342 12.871L7.28592 9.25807C7.31841 8.00001 8.22836 6.96775 9.46328 6.7742C9.56077 6.7742 9.65826 6.74194 9.75576 6.74194C10.0807 7.29033 10.5357 7.67743 11.0557 7.67743C11.5431 7.67743 11.9981 7.25807 12.3556 6.74194C12.4531 6.74194 12.5506 6.7742 12.6481 6.7742C13.883 6.96775 14.7929 8.03227 14.8254 9.25807L14.8579 12.7742C14.8579 13.2903 14.4355 13.7419 13.883 13.7419H13.3955" stroke="white" stroke-miterlimit="10" stroke-linecap="round" stroke-linejoin="round"/>
<path d="M11.0232 20.0968V16" stroke="white" stroke-miterlimit="10" stroke-linecap="round" stroke-linejoin="round"/>
<path d="M13.3631 10.8386V19.8386C13.3631 20.4838 12.8431 20.9999 12.1931 20.9999C11.5432 20.9999 11.0232 20.4838 11.0232 19.8386M11.0232 19.8386V15.9999M11.0232 19.8386C11.0232 20.4838 10.5032 20.9999 9.85327 20.9999C9.20332 20.9999 8.68335 20.4838 8.68335 19.8386V10.8386" stroke="white" stroke-miterlimit="10" stroke-linecap="round" stroke-linejoin="round"/>
</svg>
