<svg width="40" height="40" viewBox="0 0 40 40" fill="none" xmlns="http://www.w3.org/2000/svg">
<path d="M16.875 30.625H18.125V34.375H16.875V30.625Z" fill="#000D44"/>
<path d="M20.625 34.375V28.125H4.375V34.375H5.625V30C5.625 29.8342 5.69085 29.6753 5.80806 29.5581C5.92527 29.4408 6.08424 29.375 6.25 29.375H11.25C11.4158 29.375 11.5747 29.4408 11.6919 29.5581C11.8092 29.6753 11.875 29.8342 11.875 30V34.375H13.125V30C13.125 29.8342 13.1908 29.6753 13.3081 29.5581C13.4253 29.4408 13.5842 29.375 13.75 29.375H18.75C18.9158 29.375 19.0747 29.4408 19.1919 29.5581C19.3092 29.6753 19.375 29.8342 19.375 30V34.375H20.625Z" fill="#000D44"/>
<path d="M24.375 34.375V4.375H3.125V6.875H21.25C21.4158 6.875 21.5747 6.94085 21.6919 7.05806C21.8092 7.17527 21.875 7.33424 21.875 7.5V34.375H24.375Z" fill="#000D44"/>
<path d="M9.375 30.625H10.625V34.375H9.375V30.625Z" fill="#000D44"/>
<path d="M14.375 30.625H15.625V34.375H14.375V30.625Z" fill="#000D44"/>
<path d="M36.875 24.375H25.625V30.625H36.875V24.375ZM30.625 28.75C30.625 28.9158 30.5592 29.0747 30.4419 29.1919C30.3247 29.3092 30.1658 29.375 30 29.375H27.5C27.3342 29.375 27.1753 29.3092 27.0581 29.1919C26.9408 29.0747 26.875 28.9158 26.875 28.75V26.25C26.875 26.0842 26.9408 25.9253 27.0581 25.8081C27.1753 25.6908 27.3342 25.625 27.5 25.625H30C30.1658 25.625 30.3247 25.6908 30.4419 25.8081C30.5592 25.9253 30.625 26.0842 30.625 26.25V28.75ZM35.625 28.75C35.625 28.9158 35.5592 29.0747 35.4419 29.1919C35.3247 29.3092 35.1658 29.375 35 29.375H32.5C32.3342 29.375 32.1753 29.3092 32.0581 29.1919C31.9408 29.0747 31.875 28.9158 31.875 28.75V26.25C31.875 26.0842 31.9408 25.9253 32.0581 25.8081C32.1753 25.6908 32.3342 25.625 32.5 25.625H35C35.1658 25.625 35.3247 25.6908 35.4419 25.8081C35.5592 25.9253 35.625 26.0842 35.625 26.25V28.75Z" fill="#000D44"/>
<path d="M6.875 30.625H8.125V34.375H6.875V30.625Z" fill="#000D44"/>
<path d="M1.875 1.875H25.625V3.125H1.875V1.875Z" fill="#000D44"/>
<path d="M28.125 26.875H29.375V28.125H28.125V26.875Z" fill="#000D44"/>
<path d="M33.125 26.875H34.375V28.125H33.125V26.875Z" fill="#000D44"/>
<path d="M25.625 31.875H36.875V34.375H25.625V31.875Z" fill="#000D44"/>
<path d="M4.375 8.125H11.875V13.125H4.375V8.125Z" fill="#04CE78"/>
<path d="M4.375 14.375H20.625V15.625H4.375V14.375Z" fill="#000D44"/>
<path d="M13.125 8.125H20.625V13.125H13.125V8.125Z" fill="#04CE78"/>
<path d="M25.625 21.875H38.125V23.125H25.625V21.875Z" fill="#000D44"/>
<path d="M13.125 16.875H20.625V21.875H13.125V16.875Z" fill="#04CE78"/>
<path d="M1.875 35.625H38.125V38.125H1.875V35.625Z" fill="#000D44"/>
<path d="M6.875 23.125H9.375V26.875H6.875V23.125Z" fill="#000D44"/>
<path d="M4.375 16.875H11.875V21.875H4.375V16.875Z" fill="#04CE78"/>
<path d="M10.625 23.125H13.125V26.875H10.625V23.125Z" fill="#000D44"/>
<path d="M18.125 23.125H20.625V26.875H18.125V23.125Z" fill="#000D44"/>
<path d="M3.125 23.125H5.625V26.875H3.125V23.125Z" fill="#000D44"/>
<path d="M14.375 23.125H16.875V26.875H14.375V23.125Z" fill="#000D44"/>
<path d="M33.125 18.125C34.1139 18.125 35.0806 17.8318 35.9029 17.2824C36.7251 16.7329 37.366 15.9521 37.7444 15.0384C38.1228 14.1248 38.2219 13.1195 38.0289 12.1496C37.836 11.1796 37.3598 10.2887 36.6605 9.58947C35.9613 8.89021 35.0704 8.414 34.1005 8.22108C33.1305 8.02815 32.1252 8.12717 31.2116 8.5056C30.298 8.88404 29.5171 9.52491 28.9677 10.3472C28.4182 11.1694 28.125 12.1361 28.125 13.125C28.1265 14.4506 28.6538 15.7215 29.5911 16.6589C30.5285 17.5963 31.7994 18.1235 33.125 18.125ZM29.375 14.375V11.875C29.375 11.7092 29.4408 11.5503 29.5581 11.4331C29.6753 11.3158 29.8342 11.25 30 11.25H31.25V10C31.25 9.83424 31.3158 9.67527 31.4331 9.55806C31.5503 9.44085 31.7092 9.375 31.875 9.375H34.375C34.5408 9.375 34.6997 9.44085 34.8169 9.55806C34.9342 9.67527 35 9.83424 35 10V11.25H36.25C36.4158 11.25 36.5747 11.3158 36.6919 11.4331C36.8092 11.5503 36.875 11.7092 36.875 11.875V14.375C36.875 14.5408 36.8092 14.6997 36.6919 14.8169C36.5747 14.9342 36.4158 15 36.25 15H35V16.25C35 16.4158 34.9342 16.5747 34.8169 16.6919C34.6997 16.8092 34.5408 16.875 34.375 16.875H31.875C31.7092 16.875 31.5503 16.8092 31.4331 16.6919C31.3158 16.5747 31.25 16.4158 31.25 16.25V15H30C29.8342 15 29.6753 14.9342 29.5581 14.8169C29.4408 14.6997 29.375 14.5408 29.375 14.375Z" fill="#04CE78"/>
<path d="M32.5 14.375V15.625H33.75V14.375C33.75 14.2092 33.8158 14.0503 33.9331 13.9331C34.0503 13.8158 34.2092 13.75 34.375 13.75H35.625V12.5H34.375C34.2092 12.5 34.0503 12.4342 33.9331 12.3169C33.8158 12.1997 33.75 12.0408 33.75 11.875V10.625H32.5V11.875C32.5 12.0408 32.4342 12.1997 32.3169 12.3169C32.1997 12.4342 32.0408 12.5 31.875 12.5H30.625V13.75H31.875C32.0408 13.75 32.1997 13.8158 32.3169 13.9331C32.4342 14.0503 32.5 14.2092 32.5 14.375Z" fill="#04CE78"/>
<path d="M29.375 18.125V20.625H30.625V18.8494C30.1813 18.6537 29.7619 18.4073 29.375 18.115V18.125Z" fill="#000D44"/>
<path d="M35.625 20.625H36.875V18.125V18.115C36.4881 18.4073 36.0687 18.6537 35.625 18.8494V20.625Z" fill="#000D44"/>
</svg>
