<svg width="40" height="40" viewBox="0 0 40 40" fill="none" xmlns="http://www.w3.org/2000/svg">
<path d="M11.0726 7.28117H21.5809C21.8497 7.28117 22.0686 7.06227 22.0686 6.79344V3.52414C22.0686 3.25609 21.8497 3.03719 21.5809 3.03719H19.3225C18.9667 3.03719 18.6778 2.74906 18.6778 2.3925C18.6778 1.09508 17.6234 0.0390625 16.3268 0.0390625C15.0301 0.0390625 13.9757 1.09508 13.9757 2.3925C13.9757 2.74906 13.6876 3.03719 13.3311 3.03719H11.0726C10.8038 3.03719 10.5857 3.25609 10.5857 3.52414V6.79344C10.5857 7.06227 10.8038 7.28117 11.0726 7.28117ZM15.5565 1.61984C15.7618 1.41461 16.0354 1.30109 16.3268 1.30109C16.6181 1.30109 16.8918 1.41461 17.0978 1.61984C17.3054 1.8275 17.4189 2.10352 17.4181 2.39656C17.4173 2.68789 17.3022 2.96156 17.0946 3.1668C16.8918 3.36883 16.6181 3.48234 16.3268 3.48234C16.0354 3.48234 15.7618 3.36891 15.5565 3.16359C15.3513 2.96156 15.237 2.68789 15.2362 2.39656C15.2346 2.10352 15.3489 1.8275 15.5565 1.61984ZM28.291 5.97812H23.3571V5.2457V3.95711H29.5232C30.3296 3.95711 30.9864 4.61305 30.9864 5.42031V15.2469H29.6978H28.9356V6.62281C28.9357 6.26703 28.6468 5.97812 28.291 5.97812ZM23.5825 38.6723C24.1073 39.1641 24.6876 39.5971 25.3121 39.9609H3.13262C2.32457 39.9609 1.66699 39.3042 1.66699 38.4977V5.42031C1.66699 4.61305 2.32457 3.95711 3.13262 3.95711H9.29629V5.2457V5.97812H4.36246C4.00668 5.97812 3.71855 6.26703 3.71855 6.62281V37.2952C3.71855 37.6509 4.00668 37.9399 4.36246 37.9399H22.8782C23.0996 38.1966 23.3347 38.4413 23.5825 38.6723ZM36.7058 26.8015C35.7577 25.529 34.4925 24.572 33.026 24.0151V21.1707H33.3125C34.0418 21.1707 34.635 20.5767 34.635 19.8459V17.8587C34.635 17.1287 34.0418 16.5347 33.3125 16.5347H26.872C26.142 16.5347 25.5471 17.1287 25.5471 17.8587V19.8459C25.5471 20.5766 26.142 21.1707 26.872 21.1707H27.1586V24.0151C25.6913 24.572 24.4253 25.5282 23.4771 26.8015C22.4123 28.2317 21.8497 29.9316 21.8497 31.7191C21.8497 36.2634 25.5464 39.9609 30.0915 39.9609C34.6357 39.9609 38.3333 36.2634 38.3333 31.7191C38.3332 29.9323 37.7707 28.2317 36.7058 26.8015ZM24.645 32.9184C24.0429 32.9184 23.5536 32.4291 23.5536 31.8287C23.5536 31.2283 24.0429 30.7389 24.645 30.7389C25.2462 30.7389 25.7347 31.2283 25.7347 31.8287C25.7347 32.4291 25.2462 32.9184 24.645 32.9184ZM26.8173 36.5226C26.2168 36.5226 25.7275 36.0332 25.7275 35.4312C25.7275 34.8308 26.2169 34.3414 26.8173 34.3414C27.4193 34.3414 27.9087 34.8308 27.9087 35.4312C27.9086 36.0332 27.4193 36.5226 26.8173 36.5226ZM27.0965 32.755C27.0965 32.1546 27.5851 31.6652 28.1863 31.6652C28.7883 31.6652 29.2777 32.1546 29.2777 32.755C29.2777 33.357 28.7883 33.8464 28.1863 33.8464C27.5851 33.8464 27.0965 33.357 27.0965 32.755ZM29.8082 38.063C29.2061 38.063 28.7168 37.5737 28.7168 36.9733C28.7168 36.3713 29.2061 35.8819 29.8082 35.8819C30.4086 35.8819 30.8979 36.3712 30.8979 36.9733C30.8979 37.5737 30.4086 38.063 29.8082 38.063ZM29.5136 29.4824C29.1031 29.245 28.6797 29.0003 28.2443 28.758C27.0531 28.0941 25.6711 27.888 24.1258 28.1367C24.9766 26.717 26.3296 25.6143 27.9972 25.0879C28.2653 25.0034 28.4471 24.7547 28.4471 24.473V21.1706H31.7375V24.473C31.7375 24.7538 31.9193 25.0026 32.1874 25.0879C34.701 25.8823 36.4998 27.9846 36.9393 30.5118C34.7701 32.3623 32.7725 31.3642 29.5136 29.4824ZM19.8415 15.1946C19.1501 15.3918 18.6986 15.8328 18.4257 16.5887C18.2575 16.5202 18.0813 16.4688 17.8986 16.4357C17.6434 16.3891 17.3867 16.3802 17.1315 16.4059C17.2176 16.1227 17.3231 15.861 17.4486 15.6228C16.3709 15.9512 15.4461 16.4752 14.8956 17.2736C14.6541 17.148 14.3966 17.0595 14.1293 17.0104C13.9458 16.9766 13.7615 16.9621 13.578 16.9661C14.0883 16.0043 14.9729 15.2429 16.1882 14.7149C16.2929 14.6691 16.4007 14.6255 16.5104 14.5834C16.4144 14.5512 16.3193 14.5178 16.2262 14.4818C14.5266 13.8291 13.3168 12.5739 13.1779 11.24C13.1461 10.9288 13.3707 10.6503 13.6818 10.617C14.4026 10.5391 15.1808 10.5951 15.9307 10.7786C17.8181 11.235 19.2908 12.4123 19.7211 13.7454C19.7385 13.7988 19.7528 13.8514 19.7661 13.9046C19.7687 13.9046 19.7713 13.9044 19.7739 13.9044C19.9003 13.8939 20.0282 13.8851 20.157 13.8786C21.2693 13.8166 22.4517 13.8584 23.6034 14.0073C23.9559 14.0532 24.2054 14.3768 24.1596 14.7293C24.1137 15.0827 23.7901 15.3313 23.4376 15.2855C22.434 15.1552 21.1395 15.0909 19.8448 15.1943C19.8445 15.1944 19.8443 15.1945 19.8439 15.1945H19.8432C19.8424 15.1946 19.8424 15.1946 19.8415 15.1946ZM16.6302 21.5771C16.8459 20.4012 16.635 19.2261 16.0515 18.3391C16.5248 17.8425 17.1164 17.6027 17.6669 17.7041C18.7454 17.8996 19.4022 19.2759 19.131 20.7706C18.8582 22.2636 17.7571 23.3188 16.6778 23.1224C16.4999 23.0902 16.3309 23.025 16.1739 22.9269C16.3839 22.5188 16.5408 22.0648 16.6302 21.5771ZM14.9432 18.9991C15.3633 19.606 15.5195 20.4833 15.3625 21.3453C15.2724 21.8379 15.0913 22.2838 14.8507 22.6516C14.8273 22.6886 14.8024 22.7256 14.7766 22.761C14.2913 23.4403 13.5958 23.8227 12.9093 23.6979C11.8292 23.4999 11.1732 22.1236 11.4469 20.6305C11.5846 19.8764 11.9346 19.2148 12.4337 18.7681C12.808 18.4325 13.2289 18.2554 13.641 18.2554C13.7271 18.2554 13.8124 18.2627 13.8969 18.2787H13.8986C14.2696 18.3455 14.5481 18.5459 14.7461 18.7552C14.7557 18.7649 14.7646 18.7745 14.7734 18.7842C14.8393 18.8575 14.8957 18.9307 14.9432 18.9991ZM9.53605 27.6763C9.53605 27.3203 9.82457 27.0318 10.1806 27.0318H20.5933C20.9493 27.0318 21.2379 27.3203 21.2379 27.6763C21.2379 28.0323 20.9493 28.3209 20.5933 28.3209H10.1806C9.82457 28.3209 9.53605 28.0323 9.53605 27.6763ZM8.7398 27.6763C8.7398 28.0323 8.45129 28.3209 8.09527 28.3209H7.2534C6.89738 28.3209 6.60887 28.0323 6.60887 27.6763C6.60887 27.3203 6.89738 27.0318 7.2534 27.0318H8.09527C8.45129 27.0318 8.7398 27.3204 8.7398 27.6763ZM9.53605 30.8134C9.53605 30.4574 9.82457 30.1688 10.1806 30.1688H20.5933C20.9493 30.1688 21.2379 30.4573 21.2379 30.8134C21.2379 31.1694 20.9493 31.4579 20.5933 31.4579H10.1806C9.82457 31.4578 9.53605 31.1693 9.53605 30.8134ZM8.7398 30.8134C8.7398 31.1694 8.45129 31.4579 8.09527 31.4579H7.2534C6.89738 31.4579 6.60887 31.1694 6.60887 30.8134C6.60887 30.4574 6.89738 30.1688 7.2534 30.1688H8.09527C8.45129 30.1688 8.7398 30.4573 8.7398 30.8134ZM9.53605 33.9527C9.53605 33.5967 9.82457 33.3081 10.1806 33.3081H20.5933C20.9493 33.3081 21.2379 33.5966 21.2379 33.9527C21.2379 34.3087 20.9493 34.5972 20.5933 34.5972H10.1806C9.82457 34.5972 9.53605 34.3087 9.53605 33.9527ZM8.7398 33.9527C8.7398 34.3087 8.45129 34.5972 8.09527 34.5972H7.2534C6.89738 34.5972 6.60887 34.3087 6.60887 33.9527C6.60887 33.5967 6.89738 33.3081 7.2534 33.3081H8.09527C8.45129 33.3081 8.7398 33.5967 8.7398 33.9527Z" fill="white"/>
</svg>
